<svg xmlns="http://www.w3.org/2000/svg" xmlns:rdkit="http://www.rdkit.org/xml" xmlns:xlink="http://www.w3.org/1999/xlink" version="1.1" baseProfile="full" xml:space="preserve" width="600px" height="200px" viewBox="0 0 600 200">
<!-- END OF HEADER -->
<rect style="opacity:1.0;fill:#FFFFFF;stroke:none" width="600.0" height="200.0" x="0.0" y="0.0"> </rect>
<path class="bond-0 atom-0 atom-1" d="M 110.4,153.7 L 111.9,136.8" style="fill:none;fill-rule:evenodd;stroke:#000000;stroke-width:2.0px;stroke-linecap:butt;stroke-linejoin:miter;stroke-opacity:1"/>
<path class="bond-1 atom-1 atom-2" d="M 111.9,136.8 L 127.2,129.6" style="fill:none;fill-rule:evenodd;stroke:#000000;stroke-width:2.0px;stroke-linecap:butt;stroke-linejoin:miter;stroke-opacity:1"/>
<path class="bond-2 atom-1 atom-3" d="M 111.9,136.8 L 106.1,132.8" style="fill:none;fill-rule:evenodd;stroke:#000000;stroke-width:2.0px;stroke-linecap:butt;stroke-linejoin:miter;stroke-opacity:1"/>
<path class="bond-2 atom-1 atom-3" d="M 106.1,132.8 L 100.3,128.8" style="fill:none;fill-rule:evenodd;stroke:#0000FF;stroke-width:2.0px;stroke-linecap:butt;stroke-linejoin:miter;stroke-opacity:1"/>
<path class="bond-3 atom-3 atom-4" d="M 98.2,124.2 L 98.8,117.2" style="fill:none;fill-rule:evenodd;stroke:#0000FF;stroke-width:2.0px;stroke-linecap:butt;stroke-linejoin:miter;stroke-opacity:1"/>
<path class="bond-3 atom-3 atom-4" d="M 98.8,117.2 L 99.4,110.3" style="fill:none;fill-rule:evenodd;stroke:#000000;stroke-width:2.0px;stroke-linecap:butt;stroke-linejoin:miter;stroke-opacity:1"/>
<path class="bond-3 atom-3 atom-4" d="M 100.7,124.4 L 101.2,118.2" style="fill:none;fill-rule:evenodd;stroke:#0000FF;stroke-width:2.0px;stroke-linecap:butt;stroke-linejoin:miter;stroke-opacity:1"/>
<path class="bond-3 atom-3 atom-4" d="M 101.2,118.2 L 101.8,111.9" style="fill:none;fill-rule:evenodd;stroke:#000000;stroke-width:2.0px;stroke-linecap:butt;stroke-linejoin:miter;stroke-opacity:1"/>
<path class="bond-4 atom-4 atom-5" d="M 99.4,110.3 L 114.7,103.0" style="fill:none;fill-rule:evenodd;stroke:#000000;stroke-width:2.0px;stroke-linecap:butt;stroke-linejoin:miter;stroke-opacity:1"/>
<path class="bond-5 atom-5 atom-6" d="M 114.7,103.0 L 116.1,86.2" style="fill:none;fill-rule:evenodd;stroke:#000000;stroke-width:2.0px;stroke-linecap:butt;stroke-linejoin:miter;stroke-opacity:1"/>
<path class="bond-5 atom-5 atom-6" d="M 112.3,101.4 L 113.4,87.4" style="fill:none;fill-rule:evenodd;stroke:#000000;stroke-width:2.0px;stroke-linecap:butt;stroke-linejoin:miter;stroke-opacity:1"/>
<path class="bond-6 atom-6 atom-7" d="M 116.1,86.2 L 122.6,83.1" style="fill:none;fill-rule:evenodd;stroke:#000000;stroke-width:2.0px;stroke-linecap:butt;stroke-linejoin:miter;stroke-opacity:1"/>
<path class="bond-6 atom-6 atom-7" d="M 122.6,83.1 L 129.0,80.1" style="fill:none;fill-rule:evenodd;stroke:#0000FF;stroke-width:2.0px;stroke-linecap:butt;stroke-linejoin:miter;stroke-opacity:1"/>
<path class="bond-7 atom-7 atom-8" d="M 133.8,80.6 L 139.6,84.6" style="fill:none;fill-rule:evenodd;stroke:#0000FF;stroke-width:2.0px;stroke-linecap:butt;stroke-linejoin:miter;stroke-opacity:1"/>
<path class="bond-7 atom-7 atom-8" d="M 139.6,84.6 L 145.3,88.6" style="fill:none;fill-rule:evenodd;stroke:#000000;stroke-width:2.0px;stroke-linecap:butt;stroke-linejoin:miter;stroke-opacity:1"/>
<path class="bond-8 atom-8 atom-9" d="M 145.3,88.6 L 143.9,105.5" style="fill:none;fill-rule:evenodd;stroke:#000000;stroke-width:2.0px;stroke-linecap:butt;stroke-linejoin:miter;stroke-opacity:1"/>
<path class="bond-8 atom-8 atom-9" d="M 147.7,90.3 L 146.6,104.2" style="fill:none;fill-rule:evenodd;stroke:#000000;stroke-width:2.0px;stroke-linecap:butt;stroke-linejoin:miter;stroke-opacity:1"/>
<path class="bond-9 atom-9 atom-10" d="M 143.9,105.5 L 157.8,115.1" style="fill:none;fill-rule:evenodd;stroke:#000000;stroke-width:2.0px;stroke-linecap:butt;stroke-linejoin:miter;stroke-opacity:1"/>
<path class="bond-10 atom-10 atom-11" d="M 157.8,115.1 L 173.1,107.9" style="fill:none;fill-rule:evenodd;stroke:#000000;stroke-width:2.0px;stroke-linecap:butt;stroke-linejoin:miter;stroke-opacity:1"/>
<path class="bond-10 atom-10 atom-11" d="M 158.1,112.2 L 170.7,106.3" style="fill:none;fill-rule:evenodd;stroke:#000000;stroke-width:2.0px;stroke-linecap:butt;stroke-linejoin:miter;stroke-opacity:1"/>
<path class="bond-11 atom-11 atom-12" d="M 173.1,107.9 L 178.9,111.9" style="fill:none;fill-rule:evenodd;stroke:#000000;stroke-width:2.0px;stroke-linecap:butt;stroke-linejoin:miter;stroke-opacity:1"/>
<path class="bond-11 atom-11 atom-12" d="M 178.9,111.9 L 184.6,115.9" style="fill:none;fill-rule:evenodd;stroke:#00CC00;stroke-width:2.0px;stroke-linecap:butt;stroke-linejoin:miter;stroke-opacity:1"/>
<path class="bond-12 atom-11 atom-13" d="M 173.1,107.9 L 174.5,91.1" style="fill:none;fill-rule:evenodd;stroke:#000000;stroke-width:2.0px;stroke-linecap:butt;stroke-linejoin:miter;stroke-opacity:1"/>
<path class="bond-13 atom-13 atom-14" d="M 174.5,91.1 L 160.6,81.4" style="fill:none;fill-rule:evenodd;stroke:#000000;stroke-width:2.0px;stroke-linecap:butt;stroke-linejoin:miter;stroke-opacity:1"/>
<path class="bond-13 atom-13 atom-14" d="M 171.9,92.3 L 160.4,84.3" style="fill:none;fill-rule:evenodd;stroke:#000000;stroke-width:2.0px;stroke-linecap:butt;stroke-linejoin:miter;stroke-opacity:1"/>
<path class="bond-14 atom-7 atom-15" d="M 131.7,76.0 L 132.2,69.0" style="fill:none;fill-rule:evenodd;stroke:#0000FF;stroke-width:2.0px;stroke-linecap:butt;stroke-linejoin:miter;stroke-opacity:1"/>
<path class="bond-14 atom-7 atom-15" d="M 132.2,69.0 L 132.8,62.1" style="fill:none;fill-rule:evenodd;stroke:#000000;stroke-width:2.0px;stroke-linecap:butt;stroke-linejoin:miter;stroke-opacity:1"/>
<path class="bond-15 atom-15 atom-16" d="M 132.8,62.1 L 148.1,54.9" style="fill:none;fill-rule:evenodd;stroke:#000000;stroke-width:2.0px;stroke-linecap:butt;stroke-linejoin:miter;stroke-opacity:1"/>
<path class="bond-15 atom-15 atom-16" d="M 133.1,59.2 L 145.7,53.2" style="fill:none;fill-rule:evenodd;stroke:#000000;stroke-width:2.0px;stroke-linecap:butt;stroke-linejoin:miter;stroke-opacity:1"/>
<path class="bond-16 atom-16 atom-17" d="M 148.1,54.9 L 149.6,38.0" style="fill:none;fill-rule:evenodd;stroke:#000000;stroke-width:2.0px;stroke-linecap:butt;stroke-linejoin:miter;stroke-opacity:1"/>
<path class="bond-17 atom-17 atom-18" d="M 149.6,38.0 L 135.6,28.3" style="fill:none;fill-rule:evenodd;stroke:#000000;stroke-width:2.0px;stroke-linecap:butt;stroke-linejoin:miter;stroke-opacity:1"/>
<path class="bond-17 atom-17 atom-18" d="M 146.9,39.2 L 135.4,31.3" style="fill:none;fill-rule:evenodd;stroke:#000000;stroke-width:2.0px;stroke-linecap:butt;stroke-linejoin:miter;stroke-opacity:1"/>
<path class="bond-18 atom-18 atom-19" d="M 135.6,28.3 L 120.3,35.5" style="fill:none;fill-rule:evenodd;stroke:#000000;stroke-width:2.0px;stroke-linecap:butt;stroke-linejoin:miter;stroke-opacity:1"/>
<path class="bond-19 atom-19 atom-20" d="M 120.3,35.5 L 118.9,52.4" style="fill:none;fill-rule:evenodd;stroke:#000000;stroke-width:2.0px;stroke-linecap:butt;stroke-linejoin:miter;stroke-opacity:1"/>
<path class="bond-19 atom-19 atom-20" d="M 122.7,37.2 L 121.6,51.2" style="fill:none;fill-rule:evenodd;stroke:#000000;stroke-width:2.0px;stroke-linecap:butt;stroke-linejoin:miter;stroke-opacity:1"/>
<path class="bond-20 atom-20 atom-21" d="M 118.9,52.4 L 112.4,55.5" style="fill:none;fill-rule:evenodd;stroke:#000000;stroke-width:2.0px;stroke-linecap:butt;stroke-linejoin:miter;stroke-opacity:1"/>
<path class="bond-20 atom-20 atom-21" d="M 112.4,55.5 L 106.0,58.5" style="fill:none;fill-rule:evenodd;stroke:#0000FF;stroke-width:2.0px;stroke-linecap:butt;stroke-linejoin:miter;stroke-opacity:1"/>
<path class="bond-21 atom-21 atom-22" d="M 103.3,62.6 L 102.8,69.6" style="fill:none;fill-rule:evenodd;stroke:#0000FF;stroke-width:2.0px;stroke-linecap:butt;stroke-linejoin:miter;stroke-opacity:1"/>
<path class="bond-21 atom-21 atom-22" d="M 102.8,69.6 L 102.2,76.5" style="fill:none;fill-rule:evenodd;stroke:#000000;stroke-width:2.0px;stroke-linecap:butt;stroke-linejoin:miter;stroke-opacity:1"/>
<path class="bond-21 atom-21 atom-22" d="M 105.9,62.8 L 105.4,69.0" style="fill:none;fill-rule:evenodd;stroke:#0000FF;stroke-width:2.0px;stroke-linecap:butt;stroke-linejoin:miter;stroke-opacity:1"/>
<path class="bond-21 atom-21 atom-22" d="M 105.4,69.0 L 104.8,75.3" style="fill:none;fill-rule:evenodd;stroke:#000000;stroke-width:2.0px;stroke-linecap:butt;stroke-linejoin:miter;stroke-opacity:1"/>
<path class="bond-22 atom-22 atom-23" d="M 102.2,76.5 L 86.9,83.7" style="fill:none;fill-rule:evenodd;stroke:#000000;stroke-width:2.0px;stroke-linecap:butt;stroke-linejoin:miter;stroke-opacity:1"/>
<path class="bond-23 atom-23 atom-24" d="M 86.9,83.7 L 85.4,100.6" style="fill:none;fill-rule:evenodd;stroke:#000000;stroke-width:2.0px;stroke-linecap:butt;stroke-linejoin:miter;stroke-opacity:1"/>
<path class="bond-23 atom-23 atom-24" d="M 89.3,85.4 L 88.1,99.4" style="fill:none;fill-rule:evenodd;stroke:#000000;stroke-width:2.0px;stroke-linecap:butt;stroke-linejoin:miter;stroke-opacity:1"/>
<path class="bond-24 atom-24 atom-25" d="M 85.4,100.6 L 79.0,103.6" style="fill:none;fill-rule:evenodd;stroke:#000000;stroke-width:2.0px;stroke-linecap:butt;stroke-linejoin:miter;stroke-opacity:1"/>
<path class="bond-24 atom-24 atom-25" d="M 79.0,103.6 L 72.5,106.7" style="fill:none;fill-rule:evenodd;stroke:#0000FF;stroke-width:2.0px;stroke-linecap:butt;stroke-linejoin:miter;stroke-opacity:1"/>
<path class="bond-25 atom-25 atom-26" d="M 67.8,106.2 L 62.0,102.2" style="fill:none;fill-rule:evenodd;stroke:#0000FF;stroke-width:2.0px;stroke-linecap:butt;stroke-linejoin:miter;stroke-opacity:1"/>
<path class="bond-25 atom-25 atom-26" d="M 62.0,102.2 L 56.2,98.2" style="fill:none;fill-rule:evenodd;stroke:#000000;stroke-width:2.0px;stroke-linecap:butt;stroke-linejoin:miter;stroke-opacity:1"/>
<path class="bond-26 atom-26 atom-27" d="M 56.2,98.2 L 57.6,81.3" style="fill:none;fill-rule:evenodd;stroke:#000000;stroke-width:2.0px;stroke-linecap:butt;stroke-linejoin:miter;stroke-opacity:1"/>
<path class="bond-26 atom-26 atom-27" d="M 53.8,96.5 L 55.0,82.5" style="fill:none;fill-rule:evenodd;stroke:#000000;stroke-width:2.0px;stroke-linecap:butt;stroke-linejoin:miter;stroke-opacity:1"/>
<path class="bond-27 atom-27 atom-28" d="M 57.6,81.3 L 43.7,71.6" style="fill:none;fill-rule:evenodd;stroke:#000000;stroke-width:2.0px;stroke-linecap:butt;stroke-linejoin:miter;stroke-opacity:1"/>
<path class="bond-28 atom-28 atom-29" d="M 43.7,71.6 L 28.4,78.8" style="fill:none;fill-rule:evenodd;stroke:#000000;stroke-width:2.0px;stroke-linecap:butt;stroke-linejoin:miter;stroke-opacity:1"/>
<path class="bond-28 atom-28 atom-29" d="M 43.5,74.5 L 30.8,80.5" style="fill:none;fill-rule:evenodd;stroke:#000000;stroke-width:2.0px;stroke-linecap:butt;stroke-linejoin:miter;stroke-opacity:1"/>
<path class="bond-29 atom-29 atom-30" d="M 28.4,78.8 L 21.9,74.3" style="fill:none;fill-rule:evenodd;stroke:#000000;stroke-width:2.0px;stroke-linecap:butt;stroke-linejoin:miter;stroke-opacity:1"/>
<path class="bond-29 atom-29 atom-30" d="M 21.9,74.3 L 15.4,69.8" style="fill:none;fill-rule:evenodd;stroke:#00CC00;stroke-width:2.0px;stroke-linecap:butt;stroke-linejoin:miter;stroke-opacity:1"/>
<path class="bond-30 atom-29 atom-31" d="M 28.4,78.8 L 27.0,95.7" style="fill:none;fill-rule:evenodd;stroke:#000000;stroke-width:2.0px;stroke-linecap:butt;stroke-linejoin:miter;stroke-opacity:1"/>
<path class="bond-31 atom-31 atom-32" d="M 27.0,95.7 L 40.9,105.4" style="fill:none;fill-rule:evenodd;stroke:#000000;stroke-width:2.0px;stroke-linecap:butt;stroke-linejoin:miter;stroke-opacity:1"/>
<path class="bond-31 atom-31 atom-32" d="M 29.6,94.5 L 41.1,102.4" style="fill:none;fill-rule:evenodd;stroke:#000000;stroke-width:2.0px;stroke-linecap:butt;stroke-linejoin:miter;stroke-opacity:1"/>
<path class="bond-32 atom-24 atom-4" d="M 85.4,100.6 L 99.4,110.3" style="fill:none;fill-rule:evenodd;stroke:#000000;stroke-width:2.0px;stroke-linecap:butt;stroke-linejoin:miter;stroke-opacity:1"/>
<path class="bond-33 atom-32 atom-26" d="M 40.9,105.4 L 56.2,98.2" style="fill:none;fill-rule:evenodd;stroke:#000000;stroke-width:2.0px;stroke-linecap:butt;stroke-linejoin:miter;stroke-opacity:1"/>
<path class="bond-34 atom-22 atom-6" d="M 102.2,76.5 L 116.1,86.2" style="fill:none;fill-rule:evenodd;stroke:#000000;stroke-width:2.0px;stroke-linecap:butt;stroke-linejoin:miter;stroke-opacity:1"/>
<path class="bond-35 atom-14 atom-8" d="M 160.6,81.4 L 145.3,88.6" style="fill:none;fill-rule:evenodd;stroke:#000000;stroke-width:2.0px;stroke-linecap:butt;stroke-linejoin:miter;stroke-opacity:1"/>
<path class="bond-36 atom-20 atom-15" d="M 118.9,52.4 L 132.8,62.1" style="fill:none;fill-rule:evenodd;stroke:#000000;stroke-width:2.0px;stroke-linecap:butt;stroke-linejoin:miter;stroke-opacity:1"/>
<path d="M 113.9,103.4 L 114.7,103.0 L 114.7,102.2" style="fill:none;stroke:#000000;stroke-width:2.0px;stroke-linecap:butt;stroke-linejoin:miter;stroke-opacity:1;"/>
<path d="M 144.0,104.6 L 143.9,105.5 L 144.6,106.0" style="fill:none;stroke:#000000;stroke-width:2.0px;stroke-linecap:butt;stroke-linejoin:miter;stroke-opacity:1;"/>
<path d="M 157.1,114.7 L 157.8,115.1 L 158.6,114.8" style="fill:none;stroke:#000000;stroke-width:2.0px;stroke-linecap:butt;stroke-linejoin:miter;stroke-opacity:1;"/>
<path d="M 174.5,91.9 L 174.5,91.1 L 173.8,90.6" style="fill:none;stroke:#000000;stroke-width:2.0px;stroke-linecap:butt;stroke-linejoin:miter;stroke-opacity:1;"/>
<path d="M 161.3,81.9 L 160.6,81.4 L 159.9,81.8" style="fill:none;stroke:#000000;stroke-width:2.0px;stroke-linecap:butt;stroke-linejoin:miter;stroke-opacity:1;"/>
<path d="M 147.4,55.2 L 148.1,54.9 L 148.2,54.0" style="fill:none;stroke:#000000;stroke-width:2.0px;stroke-linecap:butt;stroke-linejoin:miter;stroke-opacity:1;"/>
<path d="M 149.5,38.8 L 149.6,38.0 L 148.9,37.5" style="fill:none;stroke:#000000;stroke-width:2.0px;stroke-linecap:butt;stroke-linejoin:miter;stroke-opacity:1;"/>
<path d="M 136.3,28.8 L 135.6,28.3 L 134.9,28.7" style="fill:none;stroke:#000000;stroke-width:2.0px;stroke-linecap:butt;stroke-linejoin:miter;stroke-opacity:1;"/>
<path d="M 121.1,35.2 L 120.3,35.5 L 120.3,36.4" style="fill:none;stroke:#000000;stroke-width:2.0px;stroke-linecap:butt;stroke-linejoin:miter;stroke-opacity:1;"/>
<path d="M 87.6,83.4 L 86.9,83.7 L 86.8,84.6" style="fill:none;stroke:#000000;stroke-width:2.0px;stroke-linecap:butt;stroke-linejoin:miter;stroke-opacity:1;"/>
<path d="M 57.6,82.1 L 57.6,81.3 L 56.9,80.8" style="fill:none;stroke:#000000;stroke-width:2.0px;stroke-linecap:butt;stroke-linejoin:miter;stroke-opacity:1;"/>
<path d="M 44.4,72.1 L 43.7,71.6 L 43.0,72.0" style="fill:none;stroke:#000000;stroke-width:2.0px;stroke-linecap:butt;stroke-linejoin:miter;stroke-opacity:1;"/>
<path d="M 27.1,94.9 L 27.0,95.7 L 27.7,96.2" style="fill:none;stroke:#000000;stroke-width:2.0px;stroke-linecap:butt;stroke-linejoin:miter;stroke-opacity:1;"/>
<path d="M 40.2,104.9 L 40.9,105.4 L 41.7,105.0" style="fill:none;stroke:#000000;stroke-width:2.0px;stroke-linecap:butt;stroke-linejoin:miter;stroke-opacity:1;"/>
<path class="atom-3" d="M 96.9 124.7 L 98.5 127.3 Q 98.6 127.5, 98.9 128.0 Q 99.1 128.4, 99.1 128.5 L 99.1 124.7 L 99.8 124.7 L 99.8 129.5 L 99.1 129.5 L 97.4 126.8 Q 97.2 126.4, 97.0 126.1 Q 96.8 125.7, 96.8 125.6 L 96.8 129.5 L 96.1 129.5 L 96.1 124.7 L 96.9 124.7 " fill="#0000FF"/>
<path class="atom-7" d="M 130.3 76.6 L 131.9 79.1 Q 132.1 79.3, 132.3 79.8 Q 132.6 80.3, 132.6 80.3 L 132.6 76.6 L 133.2 76.6 L 133.2 81.4 L 132.6 81.4 L 130.9 78.6 Q 130.7 78.3, 130.5 77.9 Q 130.3 77.5, 130.2 77.4 L 130.2 81.4 L 129.6 81.4 L 129.6 76.6 L 130.3 76.6 " fill="#0000FF"/>
<path class="atom-12" d="M 185.2 117.8 Q 185.2 116.6, 185.7 115.9 Q 186.3 115.3, 187.4 115.3 Q 188.4 115.3, 188.9 116.0 L 188.4 116.4 Q 188.1 115.9, 187.4 115.9 Q 186.6 115.9, 186.3 116.4 Q 185.9 116.8, 185.9 117.8 Q 185.9 118.7, 186.3 119.2 Q 186.7 119.7, 187.4 119.7 Q 188.0 119.7, 188.6 119.4 L 188.8 119.9 Q 188.5 120.0, 188.2 120.1 Q 187.8 120.2, 187.4 120.2 Q 186.3 120.2, 185.7 119.6 Q 185.2 119.0, 185.2 117.8 " fill="#00CC00"/>
<path class="atom-12" d="M 189.4 115.0 L 190.0 115.0 L 190.0 120.2 L 189.4 120.2 L 189.4 115.0 " fill="#00CC00"/>
<path class="atom-21" d="M 102.5 57.2 L 104.1 59.8 Q 104.3 60.0, 104.5 60.5 Q 104.8 60.9, 104.8 61.0 L 104.8 57.2 L 105.4 57.2 L 105.4 62.0 L 104.8 62.0 L 103.1 59.3 Q 102.9 58.9, 102.7 58.6 Q 102.5 58.2, 102.4 58.1 L 102.4 62.0 L 101.8 62.0 L 101.8 57.2 L 102.5 57.2 " fill="#0000FF"/>
<path class="atom-25" d="M 69.1 105.4 L 70.6 108.0 Q 70.8 108.2, 71.0 108.7 Q 71.3 109.1, 71.3 109.1 L 71.3 105.4 L 71.9 105.4 L 71.9 110.2 L 71.3 110.2 L 69.6 107.4 Q 69.4 107.1, 69.2 106.7 Q 69.0 106.4, 68.9 106.3 L 68.9 110.2 L 68.3 110.2 L 68.3 105.4 L 69.1 105.4 " fill="#0000FF"/>
<path class="atom-25" d="M 68.3 110.7 L 68.9 110.7 L 68.9 112.7 L 71.4 112.7 L 71.4 110.7 L 72.0 110.7 L 72.0 115.5 L 71.4 115.5 L 71.4 113.3 L 68.9 113.3 L 68.9 115.5 L 68.3 115.5 L 68.3 110.7 " fill="#0000FF"/>
<path class="atom-30" d="M 10.0 69.3 Q 10.0 68.1, 10.6 67.5 Q 11.1 66.9, 12.2 66.9 Q 13.2 66.9, 13.7 67.6 L 13.3 68.0 Q 12.9 67.5, 12.2 67.5 Q 11.5 67.5, 11.1 67.9 Q 10.7 68.4, 10.7 69.3 Q 10.7 70.3, 11.1 70.8 Q 11.5 71.3, 12.3 71.3 Q 12.8 71.3, 13.4 70.9 L 13.6 71.5 Q 13.3 71.6, 13.0 71.7 Q 12.6 71.8, 12.2 71.8 Q 11.1 71.8, 10.6 71.2 Q 10.0 70.5, 10.0 69.3 " fill="#00CC00"/>
<path class="atom-30" d="M 14.2 66.6 L 14.8 66.6 L 14.8 71.7 L 14.2 71.7 L 14.2 66.6 " fill="#00CC00"/>
<path class="legend" d="M 51.4 184.1 Q 51.4 181.3, 52.7 179.9 Q 54.0 178.4, 56.5 178.4 Q 58.9 178.4, 60.1 180.0 L 59.1 180.9 Q 58.1 179.7, 56.5 179.7 Q 54.8 179.7, 53.9 180.8 Q 53.0 182.0, 53.0 184.1 Q 53.0 186.4, 53.9 187.5 Q 54.9 188.7, 56.7 188.7 Q 57.9 188.7, 59.4 187.9 L 59.9 189.1 Q 59.3 189.5, 58.4 189.7 Q 57.5 190.0, 56.5 190.0 Q 54.0 190.0, 52.7 188.5 Q 51.4 187.0, 51.4 184.1 " fill="#000000"/>
<path class="legend" d="M 61.5 178.5 L 63.0 178.5 L 63.0 188.5 L 68.2 188.5 L 68.2 189.8 L 61.5 189.8 L 61.5 178.5 " fill="#000000"/>
<path class="legend" d="M 69.4 184.1 Q 69.4 181.4, 70.7 179.9 Q 72.1 178.4, 74.6 178.4 Q 77.1 178.4, 78.4 179.9 Q 79.8 181.4, 79.8 184.1 Q 79.8 186.9, 78.4 188.4 Q 77.1 190.0, 74.6 190.0 Q 72.1 190.0, 70.7 188.4 Q 69.4 186.9, 69.4 184.1 M 74.6 188.7 Q 76.3 188.7, 77.2 187.6 Q 78.2 186.4, 78.2 184.1 Q 78.2 181.9, 77.2 180.8 Q 76.3 179.6, 74.6 179.6 Q 72.9 179.6, 71.9 180.8 Q 71.0 181.9, 71.0 184.1 Q 71.0 186.4, 71.9 187.6 Q 72.9 188.7, 74.6 188.7 " fill="#000000"/>
<path class="legend" d="M 81.3 178.5 L 88.1 178.5 L 88.1 179.8 L 82.8 179.8 L 82.8 183.2 L 87.5 183.2 L 87.5 184.5 L 82.8 184.5 L 82.8 189.8 L 81.3 189.8 L 81.3 178.5 " fill="#000000"/>
<path class="legend" d="M 97.5 189.8 L 96.3 186.5 L 91.8 186.5 L 90.7 189.8 L 89.2 189.8 L 93.1 178.5 L 94.9 178.5 L 99.0 189.8 L 97.5 189.8 M 92.3 185.2 L 95.9 185.2 L 94.0 180.1 L 92.3 185.2 " fill="#000000"/>
<path class="legend" d="M 99.9 188.6 L 105.6 179.8 L 100.1 179.8 L 100.1 178.5 L 107.6 178.5 L 107.6 179.6 L 101.8 188.5 L 107.5 188.5 L 107.5 189.8 L 99.9 189.8 L 99.9 188.6 " fill="#000000"/>
<path class="legend" d="M 109.0 178.4 L 110.5 178.4 L 110.5 189.8 L 109.0 189.8 L 109.0 178.4 " fill="#000000"/>
<path class="legend" d="M 125.6 189.8 L 124.1 189.8 L 123.0 180.6 L 119.9 189.8 L 118.4 189.8 L 115.3 180.6 L 114.1 189.8 L 112.7 189.8 L 114.1 178.5 L 116.0 178.5 L 119.1 187.6 L 122.3 178.5 L 124.2 178.5 L 125.6 189.8 " fill="#000000"/>
<path class="legend" d="M 127.4 178.4 L 128.9 178.4 L 128.9 189.8 L 127.4 189.8 L 127.4 178.4 " fill="#000000"/>
<path class="legend" d="M 132.8 178.5 L 136.6 184.5 Q 136.9 185.1, 137.5 186.2 Q 138.1 187.2, 138.1 187.3 L 138.1 178.5 L 139.6 178.5 L 139.6 189.8 L 138.1 189.8 L 134.1 183.3 Q 133.6 182.5, 133.1 181.6 Q 132.7 180.7, 132.5 180.5 L 132.5 189.8 L 131.1 189.8 L 131.1 178.5 L 132.8 178.5 " fill="#000000"/>
<path class="legend" d="M 141.7 178.5 L 148.5 178.5 L 148.5 179.8 L 143.2 179.8 L 143.2 183.2 L 147.9 183.2 L 147.9 184.5 L 143.2 184.5 L 143.2 188.5 L 148.6 188.5 L 148.6 189.8 L 141.7 189.8 L 141.7 178.5 " fill="#000000"/>
<path class="bond-0 atom-0 atom-1" d="M 223.9,91.0 L 230.1,95.9" style="fill:none;fill-rule:evenodd;stroke:#00CC00;stroke-width:2.0px;stroke-linecap:butt;stroke-linejoin:miter;stroke-opacity:1"/>
<path class="bond-0 atom-0 atom-1" d="M 230.1,95.9 L 236.3,100.8" style="fill:none;fill-rule:evenodd;stroke:#000000;stroke-width:2.0px;stroke-linecap:butt;stroke-linejoin:miter;stroke-opacity:1"/>
<path class="bond-1 atom-1 atom-2" d="M 236.3,100.8 L 252.0,94.5" style="fill:none;fill-rule:evenodd;stroke:#000000;stroke-width:2.0px;stroke-linecap:butt;stroke-linejoin:miter;stroke-opacity:1"/>
<path class="bond-1 atom-1 atom-2" d="M 238.6,102.6 L 251.6,97.4" style="fill:none;fill-rule:evenodd;stroke:#000000;stroke-width:2.0px;stroke-linecap:butt;stroke-linejoin:miter;stroke-opacity:1"/>
<path class="bond-2 atom-2 atom-3" d="M 252.0,94.5 L 265.4,105.0" style="fill:none;fill-rule:evenodd;stroke:#000000;stroke-width:2.0px;stroke-linecap:butt;stroke-linejoin:miter;stroke-opacity:1"/>
<path class="bond-3 atom-3 atom-4" d="M 265.4,105.0 L 263.0,121.7" style="fill:none;fill-rule:evenodd;stroke:#000000;stroke-width:2.0px;stroke-linecap:butt;stroke-linejoin:miter;stroke-opacity:1"/>
<path class="bond-3 atom-3 atom-4" d="M 262.6,106.1 L 260.7,119.9" style="fill:none;fill-rule:evenodd;stroke:#000000;stroke-width:2.0px;stroke-linecap:butt;stroke-linejoin:miter;stroke-opacity:1"/>
<path class="bond-4 atom-4 atom-5" d="M 263.0,121.7 L 247.2,128.0" style="fill:none;fill-rule:evenodd;stroke:#000000;stroke-width:2.0px;stroke-linecap:butt;stroke-linejoin:miter;stroke-opacity:1"/>
<path class="bond-5 atom-5 atom-6" d="M 247.2,128.0 L 233.9,117.6" style="fill:none;fill-rule:evenodd;stroke:#000000;stroke-width:2.0px;stroke-linecap:butt;stroke-linejoin:miter;stroke-opacity:1"/>
<path class="bond-5 atom-5 atom-6" d="M 247.7,125.1 L 236.6,116.5" style="fill:none;fill-rule:evenodd;stroke:#000000;stroke-width:2.0px;stroke-linecap:butt;stroke-linejoin:miter;stroke-opacity:1"/>
<path class="bond-6 atom-4 atom-7" d="M 263.0,121.7 L 268.4,126.0" style="fill:none;fill-rule:evenodd;stroke:#000000;stroke-width:2.0px;stroke-linecap:butt;stroke-linejoin:miter;stroke-opacity:1"/>
<path class="bond-6 atom-4 atom-7" d="M 268.4,126.0 L 273.9,130.3" style="fill:none;fill-rule:evenodd;stroke:#0000FF;stroke-width:2.0px;stroke-linecap:butt;stroke-linejoin:miter;stroke-opacity:1"/>
<path class="bond-7 atom-7 atom-8" d="M 278.7,131.2 L 285.3,128.6" style="fill:none;fill-rule:evenodd;stroke:#0000FF;stroke-width:2.0px;stroke-linecap:butt;stroke-linejoin:miter;stroke-opacity:1"/>
<path class="bond-7 atom-7 atom-8" d="M 285.3,128.6 L 292.0,125.9" style="fill:none;fill-rule:evenodd;stroke:#000000;stroke-width:2.0px;stroke-linecap:butt;stroke-linejoin:miter;stroke-opacity:1"/>
<path class="bond-8 atom-8 atom-9" d="M 292.0,125.9 L 305.3,136.3" style="fill:none;fill-rule:evenodd;stroke:#000000;stroke-width:2.0px;stroke-linecap:butt;stroke-linejoin:miter;stroke-opacity:1"/>
<path class="bond-8 atom-8 atom-9" d="M 294.7,124.8 L 305.7,133.4" style="fill:none;fill-rule:evenodd;stroke:#000000;stroke-width:2.0px;stroke-linecap:butt;stroke-linejoin:miter;stroke-opacity:1"/>
<path class="bond-9 atom-9 atom-10" d="M 305.3,136.3 L 321.0,130.0" style="fill:none;fill-rule:evenodd;stroke:#000000;stroke-width:2.0px;stroke-linecap:butt;stroke-linejoin:miter;stroke-opacity:1"/>
<path class="bond-10 atom-10 atom-11" d="M 321.0,130.0 L 326.5,134.3" style="fill:none;fill-rule:evenodd;stroke:#000000;stroke-width:2.0px;stroke-linecap:butt;stroke-linejoin:miter;stroke-opacity:1"/>
<path class="bond-10 atom-10 atom-11" d="M 326.5,134.3 L 332.0,138.6" style="fill:none;fill-rule:evenodd;stroke:#0000FF;stroke-width:2.0px;stroke-linecap:butt;stroke-linejoin:miter;stroke-opacity:1"/>
<path class="bond-10 atom-10 atom-11" d="M 323.7,128.9 L 328.6,132.8" style="fill:none;fill-rule:evenodd;stroke:#000000;stroke-width:2.0px;stroke-linecap:butt;stroke-linejoin:miter;stroke-opacity:1"/>
<path class="bond-10 atom-10 atom-11" d="M 328.6,132.8 L 333.5,136.6" style="fill:none;fill-rule:evenodd;stroke:#0000FF;stroke-width:2.0px;stroke-linecap:butt;stroke-linejoin:miter;stroke-opacity:1"/>
<path class="bond-11 atom-11 atom-12" d="M 336.7,139.5 L 343.4,136.9" style="fill:none;fill-rule:evenodd;stroke:#0000FF;stroke-width:2.0px;stroke-linecap:butt;stroke-linejoin:miter;stroke-opacity:1"/>
<path class="bond-11 atom-11 atom-12" d="M 343.4,136.9 L 350.1,134.2" style="fill:none;fill-rule:evenodd;stroke:#000000;stroke-width:2.0px;stroke-linecap:butt;stroke-linejoin:miter;stroke-opacity:1"/>
<path class="bond-12 atom-12 atom-13" d="M 350.1,134.2 L 363.4,144.7" style="fill:none;fill-rule:evenodd;stroke:#000000;stroke-width:2.0px;stroke-linecap:butt;stroke-linejoin:miter;stroke-opacity:1"/>
<path class="bond-12 atom-12 atom-13" d="M 352.8,133.1 L 363.8,141.7" style="fill:none;fill-rule:evenodd;stroke:#000000;stroke-width:2.0px;stroke-linecap:butt;stroke-linejoin:miter;stroke-opacity:1"/>
<path class="bond-13 atom-13 atom-14" d="M 363.4,144.7 L 379.1,138.3" style="fill:none;fill-rule:evenodd;stroke:#000000;stroke-width:2.0px;stroke-linecap:butt;stroke-linejoin:miter;stroke-opacity:1"/>
<path class="bond-14 atom-14 atom-15" d="M 379.1,138.3 L 381.5,121.6" style="fill:none;fill-rule:evenodd;stroke:#000000;stroke-width:2.0px;stroke-linecap:butt;stroke-linejoin:miter;stroke-opacity:1"/>
<path class="bond-14 atom-14 atom-15" d="M 376.8,136.5 L 378.8,122.7" style="fill:none;fill-rule:evenodd;stroke:#000000;stroke-width:2.0px;stroke-linecap:butt;stroke-linejoin:miter;stroke-opacity:1"/>
<path class="bond-15 atom-15 atom-16" d="M 381.5,121.6 L 368.2,111.1" style="fill:none;fill-rule:evenodd;stroke:#000000;stroke-width:2.0px;stroke-linecap:butt;stroke-linejoin:miter;stroke-opacity:1"/>
<path class="bond-16 atom-16 atom-17" d="M 368.2,111.1 L 352.5,117.4" style="fill:none;fill-rule:evenodd;stroke:#000000;stroke-width:2.0px;stroke-linecap:butt;stroke-linejoin:miter;stroke-opacity:1"/>
<path class="bond-16 atom-16 atom-17" d="M 367.8,114.0 L 354.8,119.2" style="fill:none;fill-rule:evenodd;stroke:#000000;stroke-width:2.0px;stroke-linecap:butt;stroke-linejoin:miter;stroke-opacity:1"/>
<path class="bond-17 atom-17 atom-18" d="M 352.5,117.4 L 347.0,113.1" style="fill:none;fill-rule:evenodd;stroke:#000000;stroke-width:2.0px;stroke-linecap:butt;stroke-linejoin:miter;stroke-opacity:1"/>
<path class="bond-17 atom-17 atom-18" d="M 347.0,113.1 L 341.5,108.8" style="fill:none;fill-rule:evenodd;stroke:#0000FF;stroke-width:2.0px;stroke-linecap:butt;stroke-linejoin:miter;stroke-opacity:1"/>
<path class="bond-18 atom-18 atom-19" d="M 339.6,104.0 L 340.6,97.1" style="fill:none;fill-rule:evenodd;stroke:#0000FF;stroke-width:2.0px;stroke-linecap:butt;stroke-linejoin:miter;stroke-opacity:1"/>
<path class="bond-18 atom-18 atom-19" d="M 340.6,97.1 L 341.5,90.2" style="fill:none;fill-rule:evenodd;stroke:#000000;stroke-width:2.0px;stroke-linecap:butt;stroke-linejoin:miter;stroke-opacity:1"/>
<path class="bond-19 atom-19 atom-20" d="M 341.5,90.2 L 357.3,83.9" style="fill:none;fill-rule:evenodd;stroke:#000000;stroke-width:2.0px;stroke-linecap:butt;stroke-linejoin:miter;stroke-opacity:1"/>
<path class="bond-19 atom-19 atom-20" d="M 342.0,87.3 L 354.9,82.1" style="fill:none;fill-rule:evenodd;stroke:#000000;stroke-width:2.0px;stroke-linecap:butt;stroke-linejoin:miter;stroke-opacity:1"/>
<path class="bond-20 atom-20 atom-21" d="M 357.3,83.9 L 359.7,67.1" style="fill:none;fill-rule:evenodd;stroke:#000000;stroke-width:2.0px;stroke-linecap:butt;stroke-linejoin:miter;stroke-opacity:1"/>
<path class="bond-21 atom-21 atom-22" d="M 359.7,67.1 L 346.3,56.7" style="fill:none;fill-rule:evenodd;stroke:#000000;stroke-width:2.0px;stroke-linecap:butt;stroke-linejoin:miter;stroke-opacity:1"/>
<path class="bond-21 atom-21 atom-22" d="M 356.9,68.2 L 345.9,59.6" style="fill:none;fill-rule:evenodd;stroke:#000000;stroke-width:2.0px;stroke-linecap:butt;stroke-linejoin:miter;stroke-opacity:1"/>
<path class="bond-22 atom-22 atom-23" d="M 346.3,56.7 L 347.3,49.9" style="fill:none;fill-rule:evenodd;stroke:#000000;stroke-width:2.0px;stroke-linecap:butt;stroke-linejoin:miter;stroke-opacity:1"/>
<path class="bond-22 atom-22 atom-23" d="M 347.3,49.9 L 348.3,43.1" style="fill:none;fill-rule:evenodd;stroke:#00CC00;stroke-width:2.0px;stroke-linecap:butt;stroke-linejoin:miter;stroke-opacity:1"/>
<path class="bond-23 atom-22 atom-24" d="M 346.3,56.7 L 330.6,63.0" style="fill:none;fill-rule:evenodd;stroke:#000000;stroke-width:2.0px;stroke-linecap:butt;stroke-linejoin:miter;stroke-opacity:1"/>
<path class="bond-24 atom-24 atom-25" d="M 330.6,63.0 L 328.2,79.8" style="fill:none;fill-rule:evenodd;stroke:#000000;stroke-width:2.0px;stroke-linecap:butt;stroke-linejoin:miter;stroke-opacity:1"/>
<path class="bond-24 atom-24 atom-25" d="M 332.9,64.8 L 330.9,78.7" style="fill:none;fill-rule:evenodd;stroke:#000000;stroke-width:2.0px;stroke-linecap:butt;stroke-linejoin:miter;stroke-opacity:1"/>
<path class="bond-25 atom-18 atom-26" d="M 336.8,107.9 L 330.1,110.6" style="fill:none;fill-rule:evenodd;stroke:#0000FF;stroke-width:2.0px;stroke-linecap:butt;stroke-linejoin:miter;stroke-opacity:1"/>
<path class="bond-25 atom-18 atom-26" d="M 330.1,110.6 L 323.4,113.3" style="fill:none;fill-rule:evenodd;stroke:#000000;stroke-width:2.0px;stroke-linecap:butt;stroke-linejoin:miter;stroke-opacity:1"/>
<path class="bond-26 atom-26 atom-27" d="M 323.4,113.3 L 310.1,102.8" style="fill:none;fill-rule:evenodd;stroke:#000000;stroke-width:2.0px;stroke-linecap:butt;stroke-linejoin:miter;stroke-opacity:1"/>
<path class="bond-26 atom-26 atom-27" d="M 320.7,114.4 L 309.7,105.7" style="fill:none;fill-rule:evenodd;stroke:#000000;stroke-width:2.0px;stroke-linecap:butt;stroke-linejoin:miter;stroke-opacity:1"/>
<path class="bond-27 atom-27 atom-28" d="M 310.1,102.8 L 294.4,109.1" style="fill:none;fill-rule:evenodd;stroke:#000000;stroke-width:2.0px;stroke-linecap:butt;stroke-linejoin:miter;stroke-opacity:1"/>
<path class="bond-28 atom-28 atom-29" d="M 294.4,109.1 L 288.9,104.8" style="fill:none;fill-rule:evenodd;stroke:#000000;stroke-width:2.0px;stroke-linecap:butt;stroke-linejoin:miter;stroke-opacity:1"/>
<path class="bond-28 atom-28 atom-29" d="M 288.9,104.8 L 283.4,100.5" style="fill:none;fill-rule:evenodd;stroke:#0000FF;stroke-width:2.0px;stroke-linecap:butt;stroke-linejoin:miter;stroke-opacity:1"/>
<path class="bond-28 atom-28 atom-29" d="M 294.8,106.2 L 289.9,102.4" style="fill:none;fill-rule:evenodd;stroke:#000000;stroke-width:2.0px;stroke-linecap:butt;stroke-linejoin:miter;stroke-opacity:1"/>
<path class="bond-28 atom-28 atom-29" d="M 289.9,102.4 L 285.0,98.5" style="fill:none;fill-rule:evenodd;stroke:#0000FF;stroke-width:2.0px;stroke-linecap:butt;stroke-linejoin:miter;stroke-opacity:1"/>
<path class="bond-29 atom-29 atom-30" d="M 281.5,95.7 L 282.5,88.8" style="fill:none;fill-rule:evenodd;stroke:#0000FF;stroke-width:2.0px;stroke-linecap:butt;stroke-linejoin:miter;stroke-opacity:1"/>
<path class="bond-29 atom-29 atom-30" d="M 282.5,88.8 L 283.5,81.9" style="fill:none;fill-rule:evenodd;stroke:#000000;stroke-width:2.0px;stroke-linecap:butt;stroke-linejoin:miter;stroke-opacity:1"/>
<path class="bond-30 atom-30 atom-31" d="M 283.5,81.9 L 270.2,71.4" style="fill:none;fill-rule:evenodd;stroke:#000000;stroke-width:2.0px;stroke-linecap:butt;stroke-linejoin:miter;stroke-opacity:1"/>
<path class="bond-31 atom-30 atom-32" d="M 283.5,81.9 L 299.2,75.6" style="fill:none;fill-rule:evenodd;stroke:#000000;stroke-width:2.0px;stroke-linecap:butt;stroke-linejoin:miter;stroke-opacity:1"/>
<path class="bond-32 atom-6 atom-1" d="M 233.9,117.6 L 236.3,100.8" style="fill:none;fill-rule:evenodd;stroke:#000000;stroke-width:2.0px;stroke-linecap:butt;stroke-linejoin:miter;stroke-opacity:1"/>
<path class="bond-33 atom-28 atom-8" d="M 294.4,109.1 L 292.0,125.9" style="fill:none;fill-rule:evenodd;stroke:#000000;stroke-width:2.0px;stroke-linecap:butt;stroke-linejoin:miter;stroke-opacity:1"/>
<path class="bond-34 atom-26 atom-10" d="M 323.4,113.3 L 321.0,130.0" style="fill:none;fill-rule:evenodd;stroke:#000000;stroke-width:2.0px;stroke-linecap:butt;stroke-linejoin:miter;stroke-opacity:1"/>
<path class="bond-35 atom-12 atom-17" d="M 350.1,134.2 L 352.5,117.4" style="fill:none;fill-rule:evenodd;stroke:#000000;stroke-width:2.0px;stroke-linecap:butt;stroke-linejoin:miter;stroke-opacity:1"/>
<path class="bond-36 atom-25 atom-19" d="M 328.2,79.8 L 341.5,90.2" style="fill:none;fill-rule:evenodd;stroke:#000000;stroke-width:2.0px;stroke-linecap:butt;stroke-linejoin:miter;stroke-opacity:1"/>
<path d="M 251.3,94.8 L 252.0,94.5 L 252.7,95.0" style="fill:none;stroke:#000000;stroke-width:2.0px;stroke-linecap:butt;stroke-linejoin:miter;stroke-opacity:1;"/>
<path d="M 264.7,104.4 L 265.4,105.0 L 265.2,105.8" style="fill:none;stroke:#000000;stroke-width:2.0px;stroke-linecap:butt;stroke-linejoin:miter;stroke-opacity:1;"/>
<path d="M 248.0,127.7 L 247.2,128.0 L 246.6,127.5" style="fill:none;stroke:#000000;stroke-width:2.0px;stroke-linecap:butt;stroke-linejoin:miter;stroke-opacity:1;"/>
<path d="M 234.6,118.1 L 233.9,117.6 L 234.0,116.7" style="fill:none;stroke:#000000;stroke-width:2.0px;stroke-linecap:butt;stroke-linejoin:miter;stroke-opacity:1;"/>
<path d="M 304.6,135.8 L 305.3,136.3 L 306.1,136.0" style="fill:none;stroke:#000000;stroke-width:2.0px;stroke-linecap:butt;stroke-linejoin:miter;stroke-opacity:1;"/>
<path d="M 362.7,144.1 L 363.4,144.7 L 364.2,144.3" style="fill:none;stroke:#000000;stroke-width:2.0px;stroke-linecap:butt;stroke-linejoin:miter;stroke-opacity:1;"/>
<path d="M 378.3,138.7 L 379.1,138.3 L 379.2,137.5" style="fill:none;stroke:#000000;stroke-width:2.0px;stroke-linecap:butt;stroke-linejoin:miter;stroke-opacity:1;"/>
<path d="M 381.4,122.4 L 381.5,121.6 L 380.8,121.1" style="fill:none;stroke:#000000;stroke-width:2.0px;stroke-linecap:butt;stroke-linejoin:miter;stroke-opacity:1;"/>
<path d="M 368.8,111.6 L 368.2,111.1 L 367.4,111.4" style="fill:none;stroke:#000000;stroke-width:2.0px;stroke-linecap:butt;stroke-linejoin:miter;stroke-opacity:1;"/>
<path d="M 356.5,84.2 L 357.3,83.9 L 357.4,83.1" style="fill:none;stroke:#000000;stroke-width:2.0px;stroke-linecap:butt;stroke-linejoin:miter;stroke-opacity:1;"/>
<path d="M 359.5,68.0 L 359.7,67.1 L 359.0,66.6" style="fill:none;stroke:#000000;stroke-width:2.0px;stroke-linecap:butt;stroke-linejoin:miter;stroke-opacity:1;"/>
<path d="M 331.4,62.7 L 330.6,63.0 L 330.5,63.8" style="fill:none;stroke:#000000;stroke-width:2.0px;stroke-linecap:butt;stroke-linejoin:miter;stroke-opacity:1;"/>
<path d="M 328.3,78.9 L 328.2,79.8 L 328.9,80.3" style="fill:none;stroke:#000000;stroke-width:2.0px;stroke-linecap:butt;stroke-linejoin:miter;stroke-opacity:1;"/>
<path d="M 310.8,103.3 L 310.1,102.8 L 309.3,103.1" style="fill:none;stroke:#000000;stroke-width:2.0px;stroke-linecap:butt;stroke-linejoin:miter;stroke-opacity:1;"/>
<path class="atom-0" d="M 218.5 90.5 Q 218.5 89.3, 219.1 88.7 Q 219.6 88.1, 220.7 88.1 Q 221.7 88.1, 222.2 88.8 L 221.8 89.1 Q 221.4 88.6, 220.7 88.6 Q 220.0 88.6, 219.6 89.1 Q 219.2 89.6, 219.2 90.5 Q 219.2 91.5, 219.6 92.0 Q 220.0 92.4, 220.8 92.4 Q 221.3 92.4, 221.9 92.1 L 222.1 92.6 Q 221.8 92.8, 221.5 92.9 Q 221.1 93.0, 220.7 93.0 Q 219.6 93.0, 219.1 92.4 Q 218.5 91.7, 218.5 90.5 " fill="#00CC00"/>
<path class="atom-0" d="M 222.7 87.8 L 223.3 87.8 L 223.3 92.9 L 222.7 92.9 L 222.7 87.8 " fill="#00CC00"/>
<path class="atom-7" d="M 275.2 129.8 L 276.8 132.3 Q 276.9 132.6, 277.2 133.0 Q 277.4 133.5, 277.5 133.5 L 277.5 129.8 L 278.1 129.8 L 278.1 134.6 L 277.4 134.6 L 275.8 131.8 Q 275.6 131.5, 275.3 131.1 Q 275.1 130.7, 275.1 130.6 L 275.1 134.6 L 274.5 134.6 L 274.5 129.8 L 275.2 129.8 " fill="#0000FF"/>
<path class="atom-7" d="M 274.4 135.1 L 275.1 135.1 L 275.1 137.1 L 277.5 137.1 L 277.5 135.1 L 278.2 135.1 L 278.2 139.9 L 277.5 139.9 L 277.5 137.6 L 275.1 137.6 L 275.1 139.9 L 274.4 139.9 L 274.4 135.1 " fill="#0000FF"/>
<path class="atom-11" d="M 333.3 138.1 L 334.9 140.6 Q 335.0 140.9, 335.3 141.3 Q 335.5 141.8, 335.5 141.8 L 335.5 138.1 L 336.2 138.1 L 336.2 142.9 L 335.5 142.9 L 333.8 140.1 Q 333.6 139.8, 333.4 139.4 Q 333.2 139.0, 333.1 138.9 L 333.1 142.9 L 332.5 142.9 L 332.5 138.1 L 333.3 138.1 " fill="#0000FF"/>
<path class="atom-18" d="M 338.1 104.6 L 339.7 107.1 Q 339.8 107.4, 340.1 107.8 Q 340.3 108.3, 340.3 108.3 L 340.3 104.6 L 341.0 104.6 L 341.0 109.4 L 340.3 109.4 L 338.6 106.6 Q 338.4 106.3, 338.2 105.9 Q 338.0 105.5, 337.9 105.4 L 337.9 109.4 L 337.3 109.4 L 337.3 104.6 L 338.1 104.6 " fill="#0000FF"/>
<path class="atom-23" d="M 346.9 40.1 Q 346.9 38.9, 347.4 38.3 Q 348.0 37.6, 349.1 37.6 Q 350.1 37.6, 350.6 38.3 L 350.1 38.7 Q 349.7 38.2, 349.1 38.2 Q 348.3 38.2, 348.0 38.7 Q 347.6 39.2, 347.6 40.1 Q 347.6 41.0, 348.0 41.5 Q 348.4 42.0, 349.1 42.0 Q 349.7 42.0, 350.3 41.7 L 350.5 42.2 Q 350.2 42.4, 349.8 42.5 Q 349.5 42.6, 349.0 42.6 Q 348.0 42.6, 347.4 41.9 Q 346.9 41.3, 346.9 40.1 " fill="#00CC00"/>
<path class="atom-23" d="M 351.1 37.3 L 351.7 37.3 L 351.7 42.5 L 351.1 42.5 L 351.1 37.3 " fill="#00CC00"/>
<path class="atom-29" d="M 280.0 96.3 L 281.6 98.8 Q 281.7 99.1, 282.0 99.5 Q 282.2 100.0, 282.3 100.0 L 282.3 96.3 L 282.9 96.3 L 282.9 101.1 L 282.2 101.1 L 280.5 98.3 Q 280.4 98.0, 280.1 97.6 Q 279.9 97.2, 279.9 97.1 L 279.9 101.1 L 279.3 101.1 L 279.3 96.3 L 280.0 96.3 " fill="#0000FF"/>
<path class="legend" d="M 252.5 184.2 Q 252.5 181.4, 253.8 179.9 Q 255.1 178.4, 257.6 178.4 Q 259.9 178.4, 261.2 180.0 L 260.1 180.9 Q 259.2 179.7, 257.6 179.7 Q 255.9 179.7, 255.0 180.9 Q 254.1 182.0, 254.1 184.2 Q 254.1 186.4, 255.0 187.6 Q 256.0 188.7, 257.8 188.7 Q 259.0 188.7, 260.5 188.0 L 260.9 189.2 Q 260.3 189.6, 259.5 189.8 Q 258.6 190.0, 257.6 190.0 Q 255.1 190.0, 253.8 188.5 Q 252.5 187.0, 252.5 184.2 " fill="#000000"/>
<path class="legend" d="M 264.4 178.5 L 268.1 184.5 Q 268.5 185.1, 269.1 186.2 Q 269.7 187.3, 269.7 187.3 L 269.7 178.5 L 271.2 178.5 L 271.2 189.9 L 269.7 189.9 L 265.7 183.3 Q 265.2 182.5, 264.7 181.6 Q 264.3 180.8, 264.1 180.5 L 264.1 189.9 L 262.6 189.9 L 262.6 178.5 L 264.4 178.5 " fill="#000000"/>
<path class="legend" d="M 276.7 178.5 Q 278.6 178.5, 279.6 179.4 Q 280.6 180.3, 280.6 181.9 Q 280.6 183.4, 279.6 184.3 Q 278.6 185.2, 276.7 185.2 L 274.9 185.2 L 274.9 189.9 L 273.4 189.9 L 273.4 178.5 L 276.7 178.5 M 276.7 183.9 Q 277.8 183.9, 278.4 183.4 Q 279.0 182.9, 279.0 181.9 Q 279.0 180.8, 278.4 180.3 Q 277.8 179.8, 276.7 179.8 L 274.9 179.8 L 274.9 183.9 L 276.7 183.9 " fill="#000000"/>
<path class="legend" d="M 286.3 190.0 Q 284.2 190.0, 283.2 188.4 Q 282.1 186.9, 282.1 184.2 Q 282.1 181.4, 283.2 179.9 Q 284.2 178.4, 286.3 178.4 Q 288.4 178.4, 289.4 179.9 Q 290.4 181.4, 290.4 184.2 Q 290.4 186.9, 289.4 188.4 Q 288.4 190.0, 286.3 190.0 M 286.3 188.7 Q 287.5 188.7, 288.2 187.6 Q 288.8 186.4, 288.8 184.2 Q 288.8 182.0, 288.2 180.8 Q 287.5 179.7, 286.3 179.7 Q 285.1 179.7, 284.4 180.8 Q 283.7 182.0, 283.7 184.2 Q 283.7 186.4, 284.4 187.6 Q 285.1 188.7, 286.3 188.7 " fill="#000000"/>
<path class="legend" d="M 296.4 190.0 Q 294.3 190.0, 293.3 188.4 Q 292.3 186.9, 292.3 184.2 Q 292.3 181.4, 293.3 179.9 Q 294.3 178.4, 296.4 178.4 Q 298.5 178.4, 299.5 179.9 Q 300.6 181.4, 300.6 184.2 Q 300.6 186.9, 299.5 188.4 Q 298.5 190.0, 296.4 190.0 M 296.4 188.7 Q 297.6 188.7, 298.3 187.6 Q 299.0 186.4, 299.0 184.2 Q 299.0 182.0, 298.3 180.8 Q 297.6 179.7, 296.4 179.7 Q 295.2 179.7, 294.5 180.8 Q 293.9 182.0, 293.9 184.2 Q 293.9 186.4, 294.5 187.6 Q 295.2 188.7, 296.4 188.7 " fill="#000000"/>
<path class="legend" d="M 308.3 179.8 L 302.4 179.8 L 302.4 178.5 L 309.9 178.5 L 309.9 179.7 L 305.3 189.9 L 303.8 189.9 L 308.3 179.8 " fill="#000000"/>
<path class="legend" d="M 315.0 178.4 Q 317.0 178.4, 318.0 179.8 Q 319.0 181.1, 319.0 183.9 Q 319.0 186.9, 317.8 188.4 Q 316.5 190.0, 314.1 190.0 Q 313.4 190.0, 312.8 189.8 Q 312.2 189.7, 311.6 189.3 L 312.2 188.3 Q 313.1 188.7, 314.1 188.7 Q 315.7 188.7, 316.5 187.7 Q 317.3 186.6, 317.4 184.5 Q 316.8 185.0, 316.1 185.3 Q 315.4 185.6, 314.6 185.6 Q 313.6 185.6, 312.8 185.2 Q 312.0 184.7, 311.6 184.0 Q 311.2 183.2, 311.2 182.2 Q 311.2 181.1, 311.7 180.2 Q 312.2 179.4, 313.0 178.9 Q 313.9 178.4, 315.0 178.4 M 312.8 182.2 Q 312.8 183.2, 313.3 183.7 Q 313.9 184.3, 314.9 184.3 Q 315.6 184.3, 316.2 184.0 Q 316.9 183.8, 317.4 183.3 Q 317.4 181.4, 316.8 180.6 Q 316.2 179.7, 315.0 179.7 Q 314.4 179.7, 313.8 180.0 Q 313.4 180.4, 313.1 180.9 Q 312.8 181.5, 312.8 182.2 " fill="#000000"/>
<path class="legend" d="M 325.0 182.8 Q 326.0 182.8, 326.8 183.2 Q 327.7 183.6, 328.1 184.4 Q 328.6 185.2, 328.6 186.3 Q 328.6 187.4, 328.0 188.3 Q 327.4 189.1, 326.5 189.6 Q 325.6 190.0, 324.5 190.0 Q 323.5 190.0, 322.5 189.6 Q 321.6 189.2, 320.9 188.5 L 321.9 187.5 Q 322.4 188.1, 323.1 188.4 Q 323.8 188.7, 324.6 188.7 Q 325.6 188.7, 326.3 188.1 Q 327.0 187.4, 327.0 186.3 Q 327.0 185.1, 326.3 184.5 Q 325.6 184.0, 324.5 184.0 Q 323.5 184.0, 322.4 184.4 L 321.5 184.0 L 322.1 178.5 L 327.9 178.5 L 327.7 179.8 L 323.4 179.8 L 323.0 183.2 Q 324.0 182.8, 325.0 182.8 " fill="#000000"/>
<path class="legend" d="M 334.6 182.8 Q 335.6 182.8, 336.4 183.2 Q 337.1 183.6, 337.6 184.4 Q 338.0 185.2, 338.0 186.2 Q 338.0 187.3, 337.5 188.2 Q 337.0 189.0, 336.2 189.5 Q 335.3 190.0, 334.2 190.0 Q 332.2 190.0, 331.2 188.6 Q 330.1 187.2, 330.1 184.5 Q 330.1 181.5, 331.4 180.0 Q 332.7 178.4, 335.1 178.4 Q 335.8 178.4, 336.4 178.6 Q 337.0 178.7, 337.6 179.1 L 336.9 180.1 Q 336.1 179.7, 335.1 179.7 Q 333.5 179.7, 332.7 180.7 Q 331.9 181.7, 331.8 183.9 Q 332.3 183.3, 333.1 183.1 Q 333.8 182.8, 334.6 182.8 M 334.2 188.7 Q 334.8 188.7, 335.3 188.4 Q 335.8 188.0, 336.1 187.5 Q 336.4 186.9, 336.4 186.2 Q 336.4 185.2, 335.8 184.6 Q 335.3 184.1, 334.3 184.1 Q 333.6 184.1, 332.9 184.4 Q 332.2 184.6, 331.8 185.1 Q 331.8 187.0, 332.4 187.8 Q 333.0 188.7, 334.2 188.7 " fill="#000000"/>
<path class="legend" d="M 344.1 182.8 Q 345.1 182.8, 345.9 183.2 Q 346.7 183.6, 347.1 184.4 Q 347.5 185.2, 347.5 186.2 Q 347.5 187.3, 347.0 188.2 Q 346.6 189.0, 345.7 189.5 Q 344.8 190.0, 343.7 190.0 Q 341.7 190.0, 340.7 188.6 Q 339.7 187.2, 339.7 184.5 Q 339.7 181.5, 340.9 180.0 Q 342.2 178.4, 344.6 178.4 Q 345.3 178.4, 345.9 178.6 Q 346.5 178.7, 347.1 179.1 L 346.5 180.1 Q 345.6 179.7, 344.6 179.7 Q 343.0 179.7, 342.2 180.7 Q 341.4 181.7, 341.3 183.9 Q 341.9 183.3, 342.6 183.1 Q 343.3 182.8, 344.1 182.8 M 343.7 188.7 Q 344.4 188.7, 344.9 188.4 Q 345.4 188.0, 345.7 187.5 Q 345.9 186.9, 345.9 186.2 Q 345.9 185.2, 345.4 184.6 Q 344.8 184.1, 343.8 184.1 Q 343.1 184.1, 342.5 184.4 Q 341.8 184.6, 341.3 185.1 Q 341.4 187.0, 342.0 187.8 Q 342.5 188.7, 343.7 188.7 " fill="#000000"/>
</svg>