<svg xmlns="http://www.w3.org/2000/svg" xmlns:rdkit="http://www.rdkit.org/xml" xmlns:xlink="http://www.w3.org/1999/xlink" version="1.1" baseProfile="full" xml:space="preserve" width="600px" height="200px" viewBox="0 0 600 200">
<!-- END OF HEADER -->
<rect style="opacity:1.0;fill:#FFFFFF;stroke:none" width="600.0" height="200.0" x="0.0" y="0.0"> </rect>
<path class="bond-0 atom-0 atom-1" d="M 90.3,41.2 L 101.1,45.9" style="fill:none;fill-rule:evenodd;stroke:#FF0000;stroke-width:2.0px;stroke-linecap:butt;stroke-linejoin:miter;stroke-opacity:1"/>
<path class="bond-0 atom-0 atom-1" d="M 101.1,45.9 L 111.9,50.6" style="fill:none;fill-rule:evenodd;stroke:#000000;stroke-width:2.0px;stroke-linecap:butt;stroke-linejoin:miter;stroke-opacity:1"/>
<path class="bond-0 atom-0 atom-1" d="M 88.7,44.9 L 99.5,49.6" style="fill:none;fill-rule:evenodd;stroke:#FF0000;stroke-width:2.0px;stroke-linecap:butt;stroke-linejoin:miter;stroke-opacity:1"/>
<path class="bond-0 atom-0 atom-1" d="M 99.5,49.6 L 110.2,54.4" style="fill:none;fill-rule:evenodd;stroke:#000000;stroke-width:2.0px;stroke-linecap:butt;stroke-linejoin:miter;stroke-opacity:1"/>
<path class="bond-1 atom-1 atom-2" d="M 110.0,52.0 L 118.7,45.6" style="fill:none;fill-rule:evenodd;stroke:#000000;stroke-width:2.0px;stroke-linecap:butt;stroke-linejoin:miter;stroke-opacity:1"/>
<path class="bond-1 atom-1 atom-2" d="M 118.7,45.6 L 127.4,39.2" style="fill:none;fill-rule:evenodd;stroke:#FF0000;stroke-width:2.0px;stroke-linecap:butt;stroke-linejoin:miter;stroke-opacity:1"/>
<path class="bond-2 atom-3 atom-1" d="M 112.9,75.6 L 112.3,75.7" style="fill:none;fill-rule:evenodd;stroke:#000000;stroke-width:1.0px;stroke-linecap:butt;stroke-linejoin:miter;stroke-opacity:1"/>
<path class="bond-2 atom-3 atom-1" d="M 112.8,72.2 L 111.7,72.3" style="fill:none;fill-rule:evenodd;stroke:#000000;stroke-width:1.0px;stroke-linecap:butt;stroke-linejoin:miter;stroke-opacity:1"/>
<path class="bond-2 atom-3 atom-1" d="M 112.7,68.8 L 111.0,69.0" style="fill:none;fill-rule:evenodd;stroke:#000000;stroke-width:1.0px;stroke-linecap:butt;stroke-linejoin:miter;stroke-opacity:1"/>
<path class="bond-2 atom-3 atom-1" d="M 112.6,65.4 L 110.3,65.6" style="fill:none;fill-rule:evenodd;stroke:#000000;stroke-width:1.0px;stroke-linecap:butt;stroke-linejoin:miter;stroke-opacity:1"/>
<path class="bond-2 atom-3 atom-1" d="M 112.6,62.0 L 109.7,62.3" style="fill:none;fill-rule:evenodd;stroke:#000000;stroke-width:1.0px;stroke-linecap:butt;stroke-linejoin:miter;stroke-opacity:1"/>
<path class="bond-2 atom-3 atom-1" d="M 112.5,58.6 L 109.0,59.0" style="fill:none;fill-rule:evenodd;stroke:#000000;stroke-width:1.0px;stroke-linecap:butt;stroke-linejoin:miter;stroke-opacity:1"/>
<path class="bond-2 atom-3 atom-1" d="M 112.4,55.2 L 108.3,55.6" style="fill:none;fill-rule:evenodd;stroke:#000000;stroke-width:1.0px;stroke-linecap:butt;stroke-linejoin:miter;stroke-opacity:1"/>
<path class="bond-3 atom-3 atom-4" d="M 113.0,79.0 L 92.9,97.3" style="fill:none;fill-rule:evenodd;stroke:#000000;stroke-width:2.0px;stroke-linecap:butt;stroke-linejoin:miter;stroke-opacity:1"/>
<path class="bond-4 atom-4 atom-5" d="M 92.9,97.3 L 66.3,91.9" style="fill:none;fill-rule:evenodd;stroke:#000000;stroke-width:2.0px;stroke-linecap:butt;stroke-linejoin:miter;stroke-opacity:1"/>
<path class="bond-4 atom-4 atom-5" d="M 90.1,100.9 L 67.8,96.3" style="fill:none;fill-rule:evenodd;stroke:#000000;stroke-width:2.0px;stroke-linecap:butt;stroke-linejoin:miter;stroke-opacity:1"/>
<path class="bond-5 atom-5 atom-6" d="M 66.3,91.9 L 48.3,112.2" style="fill:none;fill-rule:evenodd;stroke:#000000;stroke-width:2.0px;stroke-linecap:butt;stroke-linejoin:miter;stroke-opacity:1"/>
<path class="bond-6 atom-6 atom-7" d="M 48.3,112.2 L 37.2,109.9" style="fill:none;fill-rule:evenodd;stroke:#000000;stroke-width:2.0px;stroke-linecap:butt;stroke-linejoin:miter;stroke-opacity:1"/>
<path class="bond-6 atom-6 atom-7" d="M 37.2,109.9 L 26.1,107.6" style="fill:none;fill-rule:evenodd;stroke:#FF0000;stroke-width:2.0px;stroke-linecap:butt;stroke-linejoin:miter;stroke-opacity:1"/>
<path class="bond-7 atom-4 atom-8" d="M 92.9,97.3 L 97.5,107.3" style="fill:none;fill-rule:evenodd;stroke:#000000;stroke-width:2.0px;stroke-linecap:butt;stroke-linejoin:miter;stroke-opacity:1"/>
<path class="bond-7 atom-4 atom-8" d="M 97.5,107.3 L 102.0,117.3" style="fill:none;fill-rule:evenodd;stroke:#FF0000;stroke-width:2.0px;stroke-linecap:butt;stroke-linejoin:miter;stroke-opacity:1"/>
<path class="bond-8 atom-8 atom-9" d="M 108.6,121.5 L 119.9,120.3" style="fill:none;fill-rule:evenodd;stroke:#FF0000;stroke-width:2.0px;stroke-linecap:butt;stroke-linejoin:miter;stroke-opacity:1"/>
<path class="bond-8 atom-8 atom-9" d="M 119.9,120.3 L 131.2,119.0" style="fill:none;fill-rule:evenodd;stroke:#000000;stroke-width:2.0px;stroke-linecap:butt;stroke-linejoin:miter;stroke-opacity:1"/>
<path class="bond-9 atom-9 atom-10" d="M 131.2,119.0 L 157.8,124.5" style="fill:none;fill-rule:evenodd;stroke:#000000;stroke-width:2.0px;stroke-linecap:butt;stroke-linejoin:miter;stroke-opacity:1"/>
<path class="bond-10 atom-10 atom-11" d="M 157.8,124.5 L 163.2,97.9" style="fill:none;fill-rule:evenodd;stroke:#000000;stroke-width:2.0px;stroke-linecap:butt;stroke-linejoin:miter;stroke-opacity:1"/>
<path class="bond-11 atom-11 atom-12" d="M 162.6,100.7 L 172.6,94.1" style="fill:none;fill-rule:evenodd;stroke:#000000;stroke-width:2.0px;stroke-linecap:butt;stroke-linejoin:miter;stroke-opacity:1"/>
<path class="bond-11 atom-11 atom-12" d="M 172.6,94.1 L 182.6,87.5" style="fill:none;fill-rule:evenodd;stroke:#FF0000;stroke-width:2.0px;stroke-linecap:butt;stroke-linejoin:miter;stroke-opacity:1"/>
<path class="bond-11 atom-11 atom-12" d="M 160.4,97.3 L 170.4,90.7" style="fill:none;fill-rule:evenodd;stroke:#000000;stroke-width:2.0px;stroke-linecap:butt;stroke-linejoin:miter;stroke-opacity:1"/>
<path class="bond-11 atom-11 atom-12" d="M 170.4,90.7 L 180.3,84.1" style="fill:none;fill-rule:evenodd;stroke:#FF0000;stroke-width:2.0px;stroke-linecap:butt;stroke-linejoin:miter;stroke-opacity:1"/>
<path class="bond-12 atom-11 atom-13" d="M 163.2,97.9 L 151.8,95.5" style="fill:none;fill-rule:evenodd;stroke:#000000;stroke-width:2.0px;stroke-linecap:butt;stroke-linejoin:miter;stroke-opacity:1"/>
<path class="bond-12 atom-11 atom-13" d="M 151.8,95.5 L 140.4,93.2" style="fill:none;fill-rule:evenodd;stroke:#0000FF;stroke-width:2.0px;stroke-linecap:butt;stroke-linejoin:miter;stroke-opacity:1"/>
<path class="bond-13 atom-13 atom-3" d="M 132.8,90.2 L 122.9,84.6" style="fill:none;fill-rule:evenodd;stroke:#0000FF;stroke-width:2.0px;stroke-linecap:butt;stroke-linejoin:miter;stroke-opacity:1"/>
<path class="bond-13 atom-13 atom-3" d="M 122.9,84.6 L 113.0,79.0" style="fill:none;fill-rule:evenodd;stroke:#000000;stroke-width:2.0px;stroke-linecap:butt;stroke-linejoin:miter;stroke-opacity:1"/>
<path class="bond-14 atom-13 atom-9" d="M 135.6,97.2 L 133.4,108.1" style="fill:none;fill-rule:evenodd;stroke:#0000FF;stroke-width:2.0px;stroke-linecap:butt;stroke-linejoin:miter;stroke-opacity:1"/>
<path class="bond-14 atom-13 atom-9" d="M 133.4,108.1 L 131.2,119.0" style="fill:none;fill-rule:evenodd;stroke:#000000;stroke-width:2.0px;stroke-linecap:butt;stroke-linejoin:miter;stroke-opacity:1"/>
<path class="bond-15 atom-9 atom-14" d="M 131.3,122.6 L 130.6,122.6" style="fill:none;fill-rule:evenodd;stroke:#000000;stroke-width:1.0px;stroke-linecap:butt;stroke-linejoin:miter;stroke-opacity:1"/>
<path class="bond-15 atom-9 atom-14" d="M 131.5,126.2 L 130.1,126.1" style="fill:none;fill-rule:evenodd;stroke:#000000;stroke-width:1.0px;stroke-linecap:butt;stroke-linejoin:miter;stroke-opacity:1"/>
<path class="bond-15 atom-9 atom-14" d="M 131.7,129.8 L 129.6,129.7" style="fill:none;fill-rule:evenodd;stroke:#000000;stroke-width:1.0px;stroke-linecap:butt;stroke-linejoin:miter;stroke-opacity:1"/>
<path class="bond-15 atom-9 atom-14" d="M 131.9,133.4 L 129.1,133.3" style="fill:none;fill-rule:evenodd;stroke:#000000;stroke-width:1.0px;stroke-linecap:butt;stroke-linejoin:miter;stroke-opacity:1"/>
<path class="bond-15 atom-9 atom-14" d="M 132.0,137.0 L 128.6,136.8" style="fill:none;fill-rule:evenodd;stroke:#000000;stroke-width:1.0px;stroke-linecap:butt;stroke-linejoin:miter;stroke-opacity:1"/>
<path class="bond-15 atom-9 atom-14" d="M 132.2,140.6 L 128.1,140.4" style="fill:none;fill-rule:evenodd;stroke:#000000;stroke-width:1.0px;stroke-linecap:butt;stroke-linejoin:miter;stroke-opacity:1"/>
<path d="M 112.0,79.9 L 113.0,79.0 L 113.5,79.3" style="fill:none;stroke:#000000;stroke-width:2.0px;stroke-linecap:butt;stroke-linejoin:miter;stroke-opacity:1;"/>
<path d="M 67.7,92.1 L 66.3,91.9 L 65.4,92.9" style="fill:none;stroke:#000000;stroke-width:2.0px;stroke-linecap:butt;stroke-linejoin:miter;stroke-opacity:1;"/>
<path d="M 49.2,111.1 L 48.3,112.2 L 47.8,112.0" style="fill:none;stroke:#000000;stroke-width:2.0px;stroke-linecap:butt;stroke-linejoin:miter;stroke-opacity:1;"/>
<path d="M 156.4,124.2 L 157.8,124.5 L 158.0,123.1" style="fill:none;stroke:#000000;stroke-width:2.0px;stroke-linecap:butt;stroke-linejoin:miter;stroke-opacity:1;"/>
<path d="M 162.9,99.2 L 163.2,97.9 L 162.6,97.8" style="fill:none;stroke:#000000;stroke-width:2.0px;stroke-linecap:butt;stroke-linejoin:miter;stroke-opacity:1;"/>
<path class="atom-0" d="M 81.6 41.2 Q 81.6 39.3, 82.5 38.3 Q 83.4 37.3, 85.1 37.3 Q 86.8 37.3, 87.7 38.3 Q 88.6 39.3, 88.6 41.2 Q 88.6 43.0, 87.7 44.1 Q 86.8 45.2, 85.1 45.2 Q 83.4 45.2, 82.5 44.1 Q 81.6 43.0, 81.6 41.2 M 85.1 44.3 Q 86.3 44.3, 86.9 43.5 Q 87.5 42.7, 87.5 41.2 Q 87.5 39.7, 86.9 38.9 Q 86.3 38.1, 85.1 38.1 Q 83.9 38.1, 83.3 38.9 Q 82.6 39.6, 82.6 41.2 Q 82.6 42.7, 83.3 43.5 Q 83.9 44.3, 85.1 44.3 " fill="#FF0000"/>
<path class="atom-2" d="M 128.3 35.9 Q 128.3 34.1, 129.2 33.0 Q 130.1 32.0, 131.8 32.0 Q 133.5 32.0, 134.4 33.0 Q 135.4 34.1, 135.4 35.9 Q 135.4 37.8, 134.4 38.9 Q 133.5 39.9, 131.8 39.9 Q 130.1 39.9, 129.2 38.9 Q 128.3 37.8, 128.3 35.9 M 131.8 39.0 Q 133.0 39.0, 133.6 38.3 Q 134.3 37.5, 134.3 35.9 Q 134.3 34.4, 133.6 33.7 Q 133.0 32.9, 131.8 32.9 Q 130.7 32.9, 130.0 33.6 Q 129.4 34.4, 129.4 35.9 Q 129.4 37.5, 130.0 38.3 Q 130.7 39.0, 131.8 39.0 " fill="#FF0000"/>
<path class="atom-2" d="M 136.6 32.1 L 137.6 32.1 L 137.6 35.4 L 141.5 35.4 L 141.5 32.1 L 142.6 32.1 L 142.6 39.8 L 141.5 39.8 L 141.5 36.2 L 137.6 36.2 L 137.6 39.8 L 136.6 39.8 L 136.6 32.1 " fill="#FF0000"/>
<path class="atom-7" d="M 10.6 102.9 L 11.6 102.9 L 11.6 106.2 L 15.6 106.2 L 15.6 102.9 L 16.6 102.9 L 16.6 110.6 L 15.6 110.6 L 15.6 107.0 L 11.6 107.0 L 11.6 110.6 L 10.6 110.6 L 10.6 102.9 " fill="#FF0000"/>
<path class="atom-7" d="M 18.2 106.7 Q 18.2 104.9, 19.1 103.8 Q 20.0 102.8, 21.7 102.8 Q 23.4 102.8, 24.3 103.8 Q 25.2 104.9, 25.2 106.7 Q 25.2 108.6, 24.3 109.7 Q 23.4 110.7, 21.7 110.7 Q 20.0 110.7, 19.1 109.7 Q 18.2 108.6, 18.2 106.7 M 21.7 109.8 Q 22.9 109.8, 23.5 109.1 Q 24.2 108.3, 24.2 106.7 Q 24.2 105.2, 23.5 104.5 Q 22.9 103.7, 21.7 103.7 Q 20.5 103.7, 19.9 104.4 Q 19.3 105.2, 19.3 106.7 Q 19.3 108.3, 19.9 109.1 Q 20.5 109.8, 21.7 109.8 " fill="#FF0000"/>
<path class="atom-8" d="M 100.6 122.1 Q 100.6 120.2, 101.5 119.2 Q 102.5 118.2, 104.2 118.2 Q 105.9 118.2, 106.8 119.2 Q 107.7 120.2, 107.7 122.1 Q 107.7 123.9, 106.8 125.0 Q 105.8 126.1, 104.2 126.1 Q 102.5 126.1, 101.5 125.0 Q 100.6 123.9, 100.6 122.1 M 104.2 125.2 Q 105.3 125.2, 106.0 124.4 Q 106.6 123.6, 106.6 122.1 Q 106.6 120.6, 106.0 119.8 Q 105.3 119.0, 104.2 119.0 Q 103.0 119.0, 102.4 119.8 Q 101.7 120.5, 101.7 122.1 Q 101.7 123.6, 102.4 124.4 Q 103.0 125.2, 104.2 125.2 " fill="#FF0000"/>
<path class="atom-12" d="M 182.4 82.9 Q 182.4 81.1, 183.3 80.1 Q 184.2 79.0, 185.9 79.0 Q 187.6 79.0, 188.5 80.1 Q 189.4 81.1, 189.4 82.9 Q 189.4 84.8, 188.5 85.9 Q 187.6 86.9, 185.9 86.9 Q 184.2 86.9, 183.3 85.9 Q 182.4 84.8, 182.4 82.9 M 185.9 86.1 Q 187.1 86.1, 187.7 85.3 Q 188.3 84.5, 188.3 82.9 Q 188.3 81.4, 187.7 80.7 Q 187.1 79.9, 185.9 79.9 Q 184.7 79.9, 184.1 80.7 Q 183.4 81.4, 183.4 82.9 Q 183.4 84.5, 184.1 85.3 Q 184.7 86.1, 185.9 86.1 " fill="#FF0000"/>
<path class="atom-13" d="M 134.9 88.6 L 137.4 92.6 Q 137.7 93.0, 138.1 93.8 Q 138.5 94.5, 138.5 94.5 L 138.5 88.6 L 139.5 88.6 L 139.5 96.3 L 138.5 96.3 L 135.8 91.8 Q 135.5 91.3, 135.1 90.7 Q 134.8 90.1, 134.7 89.9 L 134.7 96.3 L 133.7 96.3 L 133.7 88.6 L 134.9 88.6 " fill="#0000FF"/>
<path class="atom-14" d="M 126.9 142.3 L 128.0 142.3 L 128.0 145.6 L 131.9 145.6 L 131.9 142.3 L 132.9 142.3 L 132.9 150.0 L 131.9 150.0 L 131.9 146.4 L 128.0 146.4 L 128.0 150.0 L 126.9 150.0 L 126.9 142.3 " fill="#000000"/>
<path class="legend" d="M 33.8 184.2 Q 33.8 181.4, 35.1 179.9 Q 36.4 178.4, 38.9 178.4 Q 41.3 178.4, 42.5 180.0 L 41.5 180.9 Q 40.5 179.7, 38.9 179.7 Q 37.2 179.7, 36.3 180.9 Q 35.4 182.0, 35.4 184.2 Q 35.4 186.4, 36.3 187.6 Q 37.3 188.7, 39.1 188.7 Q 40.4 188.7, 41.8 188.0 L 42.3 189.2 Q 41.7 189.6, 40.8 189.8 Q 39.9 190.0, 38.9 190.0 Q 36.4 190.0, 35.1 188.5 Q 33.8 187.0, 33.8 184.2 " fill="#000000"/>
<path class="legend" d="M 43.9 178.5 L 45.4 178.5 L 45.4 188.5 L 50.6 188.5 L 50.6 189.9 L 43.9 189.9 L 43.9 178.5 " fill="#000000"/>
<path class="legend" d="M 60.1 189.9 L 58.9 186.5 L 54.4 186.5 L 53.3 189.9 L 51.7 189.9 L 55.6 178.5 L 57.5 178.5 L 61.6 189.9 L 60.1 189.9 M 54.9 185.2 L 58.4 185.2 L 56.6 180.1 L 54.9 185.2 " fill="#000000"/>
<path class="legend" d="M 70.5 178.5 L 72.0 178.5 L 68.1 189.9 L 66.2 189.9 L 62.5 178.5 L 64.0 178.5 L 67.2 188.2 L 70.5 178.5 " fill="#000000"/>
<path class="legend" d="M 74.5 178.5 L 74.5 186.2 Q 74.5 187.5, 75.2 188.1 Q 76.0 188.7, 77.4 188.7 Q 78.8 188.7, 79.6 188.1 Q 80.3 187.5, 80.3 186.3 L 80.3 178.5 L 81.8 178.5 L 81.8 186.3 Q 81.8 188.0, 80.7 189.0 Q 79.6 190.0, 77.4 190.0 Q 75.2 190.0, 74.1 189.0 Q 73.0 188.0, 73.0 186.3 L 73.0 178.5 L 74.5 178.5 " fill="#000000"/>
<path class="legend" d="M 83.8 178.5 L 85.3 178.5 L 85.3 188.5 L 90.5 188.5 L 90.5 189.9 L 83.8 189.9 L 83.8 178.5 " fill="#000000"/>
<path class="legend" d="M 100.0 189.9 L 98.8 186.5 L 94.3 186.5 L 93.2 189.9 L 91.7 189.9 L 95.6 178.5 L 97.5 178.5 L 101.5 189.9 L 100.0 189.9 M 94.8 185.2 L 98.4 185.2 L 96.6 180.1 L 94.8 185.2 " fill="#000000"/>
<path class="legend" d="M 104.2 178.5 L 107.9 184.5 Q 108.3 185.1, 108.9 186.2 Q 109.5 187.3, 109.5 187.3 L 109.5 178.5 L 111.0 178.5 L 111.0 189.9 L 109.5 189.9 L 105.5 183.3 Q 105.0 182.5, 104.5 181.6 Q 104.0 180.8, 103.9 180.5 L 103.9 189.9 L 102.4 189.9 L 102.4 178.5 L 104.2 178.5 " fill="#000000"/>
<path class="legend" d="M 113.1 178.5 L 114.6 178.5 L 114.6 189.9 L 113.1 189.9 L 113.1 178.5 " fill="#000000"/>
<path class="legend" d="M 116.7 184.2 Q 116.7 181.4, 118.0 179.9 Q 119.4 178.4, 121.9 178.4 Q 124.2 178.4, 125.5 180.0 L 124.4 180.9 Q 123.5 179.7, 121.9 179.7 Q 120.2 179.7, 119.2 180.9 Q 118.3 182.0, 118.3 184.2 Q 118.3 186.4, 119.3 187.6 Q 120.2 188.7, 122.0 188.7 Q 123.3 188.7, 124.7 188.0 L 125.2 189.2 Q 124.6 189.6, 123.7 189.8 Q 122.8 190.0, 121.8 190.0 Q 119.4 190.0, 118.0 188.5 Q 116.7 187.0, 116.7 184.2 " fill="#000000"/>
<path class="legend" d="" fill="#000000"/>
<path class="legend" d="M 141.2 189.9 L 140.0 186.5 L 135.5 186.5 L 134.4 189.9 L 132.9 189.9 L 136.8 178.5 L 138.7 178.5 L 142.7 189.9 L 141.2 189.9 M 136.0 185.2 L 139.6 185.2 L 137.7 180.1 L 136.0 185.2 " fill="#000000"/>
<path class="legend" d="M 143.6 184.2 Q 143.6 181.4, 144.9 179.9 Q 146.3 178.4, 148.8 178.4 Q 151.1 178.4, 152.4 180.0 L 151.3 180.9 Q 150.4 179.7, 148.8 179.7 Q 147.1 179.7, 146.1 180.9 Q 145.2 182.0, 145.2 184.2 Q 145.2 186.4, 146.2 187.6 Q 147.1 188.7, 148.9 188.7 Q 150.2 188.7, 151.6 188.0 L 152.1 189.2 Q 151.5 189.6, 150.6 189.8 Q 149.7 190.0, 148.7 190.0 Q 146.3 190.0, 144.9 188.5 Q 143.6 187.0, 143.6 184.2 " fill="#000000"/>
<path class="legend" d="M 153.7 178.5 L 155.2 178.5 L 155.2 189.9 L 153.7 189.9 L 153.7 178.5 " fill="#000000"/>
<path class="legend" d="M 161.0 178.5 Q 163.5 178.5, 164.9 180.0 Q 166.2 181.5, 166.2 184.2 Q 166.2 186.8, 164.9 188.4 Q 163.5 189.9, 161.0 189.9 L 157.4 189.9 L 157.4 178.5 L 161.0 178.5 M 161.0 188.6 Q 162.8 188.6, 163.7 187.5 Q 164.6 186.4, 164.6 184.2 Q 164.6 182.0, 163.7 180.9 Q 162.8 179.8, 161.0 179.8 L 158.9 179.8 L 158.9 188.6 L 161.0 188.6 " fill="#000000"/>
<path class="bond-0 atom-0 atom-1" d="M 330.0,132.9 L 320.3,126.6" style="fill:none;fill-rule:evenodd;stroke:#FF0000;stroke-width:2.0px;stroke-linecap:butt;stroke-linejoin:miter;stroke-opacity:1"/>
<path class="bond-0 atom-0 atom-1" d="M 320.3,126.6 L 310.6,120.4" style="fill:none;fill-rule:evenodd;stroke:#000000;stroke-width:2.0px;stroke-linecap:butt;stroke-linejoin:miter;stroke-opacity:1"/>
<path class="bond-0 atom-0 atom-1" d="M 332.2,129.5 L 322.5,123.2" style="fill:none;fill-rule:evenodd;stroke:#FF0000;stroke-width:2.0px;stroke-linecap:butt;stroke-linejoin:miter;stroke-opacity:1"/>
<path class="bond-0 atom-0 atom-1" d="M 322.5,123.2 L 312.8,117.0" style="fill:none;fill-rule:evenodd;stroke:#000000;stroke-width:2.0px;stroke-linecap:butt;stroke-linejoin:miter;stroke-opacity:1"/>
<path class="bond-1 atom-1 atom-2" d="M 312.7,119.3 L 302.8,124.4" style="fill:none;fill-rule:evenodd;stroke:#000000;stroke-width:2.0px;stroke-linecap:butt;stroke-linejoin:miter;stroke-opacity:1"/>
<path class="bond-1 atom-1 atom-2" d="M 302.8,124.4 L 292.9,129.5" style="fill:none;fill-rule:evenodd;stroke:#FF0000;stroke-width:2.0px;stroke-linecap:butt;stroke-linejoin:miter;stroke-opacity:1"/>
<path class="bond-2 atom-1 atom-3" d="M 312.7,119.3 L 314.0,92.2" style="fill:none;fill-rule:evenodd;stroke:#000000;stroke-width:2.0px;stroke-linecap:butt;stroke-linejoin:miter;stroke-opacity:1"/>
<path class="bond-3 atom-3 atom-4" d="M 314.0,92.2 L 292.8,75.2" style="fill:none;fill-rule:evenodd;stroke:#000000;stroke-width:2.0px;stroke-linecap:butt;stroke-linejoin:miter;stroke-opacity:1"/>
<path class="bond-4 atom-4 atom-5" d="M 292.8,75.2 L 296.7,64.9" style="fill:none;fill-rule:evenodd;stroke:#000000;stroke-width:2.0px;stroke-linecap:butt;stroke-linejoin:miter;stroke-opacity:1"/>
<path class="bond-4 atom-4 atom-5" d="M 296.7,64.9 L 300.6,54.7" style="fill:none;fill-rule:evenodd;stroke:#FF0000;stroke-width:2.0px;stroke-linecap:butt;stroke-linejoin:miter;stroke-opacity:1"/>
<path class="bond-5 atom-5 atom-6" d="M 306.9,50.0 L 318.2,50.6" style="fill:none;fill-rule:evenodd;stroke:#FF0000;stroke-width:2.0px;stroke-linecap:butt;stroke-linejoin:miter;stroke-opacity:1"/>
<path class="bond-5 atom-5 atom-6" d="M 318.2,50.6 L 329.6,51.1" style="fill:none;fill-rule:evenodd;stroke:#000000;stroke-width:2.0px;stroke-linecap:butt;stroke-linejoin:miter;stroke-opacity:1"/>
<path class="bond-6 atom-6 atom-7" d="M 329.6,51.1 L 332.5,61.8" style="fill:none;fill-rule:evenodd;stroke:#000000;stroke-width:2.0px;stroke-linecap:butt;stroke-linejoin:miter;stroke-opacity:1"/>
<path class="bond-6 atom-6 atom-7" d="M 332.5,61.8 L 335.4,72.6" style="fill:none;fill-rule:evenodd;stroke:#0000FF;stroke-width:2.0px;stroke-linecap:butt;stroke-linejoin:miter;stroke-opacity:1"/>
<path class="bond-7 atom-7 atom-8" d="M 340.5,76.3 L 351.7,73.2" style="fill:none;fill-rule:evenodd;stroke:#0000FF;stroke-width:2.0px;stroke-linecap:butt;stroke-linejoin:miter;stroke-opacity:1"/>
<path class="bond-7 atom-7 atom-8" d="M 351.7,73.2 L 362.9,70.2" style="fill:none;fill-rule:evenodd;stroke:#000000;stroke-width:2.0px;stroke-linecap:butt;stroke-linejoin:miter;stroke-opacity:1"/>
<path class="bond-8 atom-8 atom-9" d="M 360.1,70.9 L 370.6,76.9" style="fill:none;fill-rule:evenodd;stroke:#000000;stroke-width:2.0px;stroke-linecap:butt;stroke-linejoin:miter;stroke-opacity:1"/>
<path class="bond-8 atom-8 atom-9" d="M 370.6,76.9 L 381.0,82.9" style="fill:none;fill-rule:evenodd;stroke:#FF0000;stroke-width:2.0px;stroke-linecap:butt;stroke-linejoin:miter;stroke-opacity:1"/>
<path class="bond-8 atom-8 atom-9" d="M 362.1,67.4 L 372.6,73.4" style="fill:none;fill-rule:evenodd;stroke:#000000;stroke-width:2.0px;stroke-linecap:butt;stroke-linejoin:miter;stroke-opacity:1"/>
<path class="bond-8 atom-8 atom-9" d="M 372.6,73.4 L 383.1,79.4" style="fill:none;fill-rule:evenodd;stroke:#FF0000;stroke-width:2.0px;stroke-linecap:butt;stroke-linejoin:miter;stroke-opacity:1"/>
<path class="bond-9 atom-8 atom-10" d="M 362.9,70.2 L 355.8,44.0" style="fill:none;fill-rule:evenodd;stroke:#000000;stroke-width:2.0px;stroke-linecap:butt;stroke-linejoin:miter;stroke-opacity:1"/>
<path class="bond-10 atom-4 atom-11" d="M 292.8,75.2 L 266.6,82.3" style="fill:none;fill-rule:evenodd;stroke:#000000;stroke-width:2.0px;stroke-linecap:butt;stroke-linejoin:miter;stroke-opacity:1"/>
<path class="bond-10 atom-4 atom-11" d="M 289.7,71.8 L 267.8,77.8" style="fill:none;fill-rule:evenodd;stroke:#000000;stroke-width:2.0px;stroke-linecap:butt;stroke-linejoin:miter;stroke-opacity:1"/>
<path class="bond-11 atom-11 atom-12" d="M 266.6,82.3 L 247.3,63.2" style="fill:none;fill-rule:evenodd;stroke:#000000;stroke-width:2.0px;stroke-linecap:butt;stroke-linejoin:miter;stroke-opacity:1"/>
<path class="bond-12 atom-12 atom-13" d="M 247.3,63.2 L 236.4,66.1" style="fill:none;fill-rule:evenodd;stroke:#000000;stroke-width:2.0px;stroke-linecap:butt;stroke-linejoin:miter;stroke-opacity:1"/>
<path class="bond-12 atom-12 atom-13" d="M 236.4,66.1 L 225.6,69.1" style="fill:none;fill-rule:evenodd;stroke:#FF0000;stroke-width:2.0px;stroke-linecap:butt;stroke-linejoin:miter;stroke-opacity:1"/>
<path class="bond-13 atom-7 atom-3" d="M 332.9,79.8 L 323.4,86.0" style="fill:none;fill-rule:evenodd;stroke:#0000FF;stroke-width:2.0px;stroke-linecap:butt;stroke-linejoin:miter;stroke-opacity:1"/>
<path class="bond-13 atom-7 atom-3" d="M 323.4,86.0 L 314.0,92.2" style="fill:none;fill-rule:evenodd;stroke:#000000;stroke-width:2.0px;stroke-linecap:butt;stroke-linejoin:miter;stroke-opacity:1"/>
<path class="bond-14 atom-10 atom-6" d="M 355.8,44.0 L 329.6,51.1" style="fill:none;fill-rule:evenodd;stroke:#000000;stroke-width:2.0px;stroke-linecap:butt;stroke-linejoin:miter;stroke-opacity:1"/>
<path d="M 312.2,119.6 L 312.7,119.3 L 312.7,118.0" style="fill:none;stroke:#000000;stroke-width:2.0px;stroke-linecap:butt;stroke-linejoin:miter;stroke-opacity:1;"/>
<path d="M 362.3,70.3 L 362.9,70.2 L 362.5,68.9" style="fill:none;stroke:#000000;stroke-width:2.0px;stroke-linecap:butt;stroke-linejoin:miter;stroke-opacity:1;"/>
<path d="M 356.1,45.3 L 355.8,44.0 L 354.5,44.3" style="fill:none;stroke:#000000;stroke-width:2.0px;stroke-linecap:butt;stroke-linejoin:miter;stroke-opacity:1;"/>
<path d="M 267.9,81.9 L 266.6,82.3 L 265.6,81.3" style="fill:none;stroke:#000000;stroke-width:2.0px;stroke-linecap:butt;stroke-linejoin:miter;stroke-opacity:1;"/>
<path d="M 248.3,64.1 L 247.3,63.2 L 246.8,63.3" style="fill:none;stroke:#000000;stroke-width:2.0px;stroke-linecap:butt;stroke-linejoin:miter;stroke-opacity:1;"/>
<path class="atom-0" d="M 332.0 134.0 Q 332.0 132.2, 332.9 131.2 Q 333.8 130.1, 335.5 130.1 Q 337.2 130.1, 338.1 131.2 Q 339.0 132.2, 339.0 134.0 Q 339.0 135.9, 338.1 137.0 Q 337.2 138.0, 335.5 138.0 Q 333.8 138.0, 332.9 137.0 Q 332.0 135.9, 332.0 134.0 M 335.5 137.2 Q 336.7 137.2, 337.3 136.4 Q 337.9 135.6, 337.9 134.0 Q 337.9 132.5, 337.3 131.8 Q 336.7 131.0, 335.5 131.0 Q 334.3 131.0, 333.7 131.8 Q 333.0 132.5, 333.0 134.0 Q 333.0 135.6, 333.7 136.4 Q 334.3 137.2, 335.5 137.2 " fill="#FF0000"/>
<path class="atom-2" d="M 277.4 127.9 L 278.4 127.9 L 278.4 131.2 L 282.4 131.2 L 282.4 127.9 L 283.4 127.9 L 283.4 135.6 L 282.4 135.6 L 282.4 132.1 L 278.4 132.1 L 278.4 135.6 L 277.4 135.6 L 277.4 127.9 " fill="#FF0000"/>
<path class="atom-2" d="M 285.0 131.8 Q 285.0 129.9, 285.9 128.9 Q 286.8 127.8, 288.5 127.8 Q 290.2 127.8, 291.1 128.9 Q 292.0 129.9, 292.0 131.8 Q 292.0 133.6, 291.1 134.7 Q 290.2 135.7, 288.5 135.7 Q 286.8 135.7, 285.9 134.7 Q 285.0 133.6, 285.0 131.8 M 288.5 134.9 Q 289.7 134.9, 290.3 134.1 Q 291.0 133.3, 291.0 131.8 Q 291.0 130.2, 290.3 129.5 Q 289.7 128.7, 288.5 128.7 Q 287.3 128.7, 286.7 129.5 Q 286.1 130.2, 286.1 131.8 Q 286.1 133.3, 286.7 134.1 Q 287.3 134.9, 288.5 134.9 " fill="#FF0000"/>
<path class="atom-5" d="M 298.9 49.8 Q 298.9 48.0, 299.8 46.9 Q 300.7 45.9, 302.4 45.9 Q 304.2 45.9, 305.1 46.9 Q 306.0 48.0, 306.0 49.8 Q 306.0 51.7, 305.1 52.7 Q 304.1 53.8, 302.4 53.8 Q 300.8 53.8, 299.8 52.7 Q 298.9 51.7, 298.9 49.8 M 302.4 52.9 Q 303.6 52.9, 304.2 52.1 Q 304.9 51.3, 304.9 49.8 Q 304.9 48.3, 304.2 47.5 Q 303.6 46.8, 302.4 46.8 Q 301.3 46.8, 300.6 47.5 Q 300.0 48.3, 300.0 49.8 Q 300.0 51.4, 300.6 52.1 Q 301.3 52.9, 302.4 52.9 " fill="#FF0000"/>
<path class="atom-7" d="M 335.0 73.5 L 337.5 77.5 Q 337.8 77.9, 338.2 78.7 Q 338.6 79.4, 338.6 79.4 L 338.6 73.5 L 339.6 73.5 L 339.6 81.2 L 338.6 81.2 L 335.9 76.7 Q 335.5 76.2, 335.2 75.6 Q 334.9 75.0, 334.8 74.8 L 334.8 81.2 L 333.8 81.2 L 333.8 73.5 L 335.0 73.5 " fill="#0000FF"/>
<path class="atom-9" d="M 382.9 83.7 Q 382.9 81.8, 383.9 80.8 Q 384.8 79.8, 386.5 79.8 Q 388.2 79.8, 389.1 80.8 Q 390.0 81.8, 390.0 83.7 Q 390.0 85.6, 389.1 86.6 Q 388.2 87.7, 386.5 87.7 Q 384.8 87.7, 383.9 86.6 Q 382.9 85.6, 382.9 83.7 M 386.5 86.8 Q 387.6 86.8, 388.3 86.0 Q 388.9 85.2, 388.9 83.7 Q 388.9 82.2, 388.3 81.4 Q 387.6 80.7, 386.5 80.7 Q 385.3 80.7, 384.7 81.4 Q 384.0 82.2, 384.0 83.7 Q 384.0 85.2, 384.7 86.0 Q 385.3 86.8, 386.5 86.8 " fill="#FF0000"/>
<path class="atom-13" d="M 210.0 66.5 L 211.0 66.5 L 211.0 69.8 L 215.0 69.8 L 215.0 66.5 L 216.0 66.5 L 216.0 74.2 L 215.0 74.2 L 215.0 70.6 L 211.0 70.6 L 211.0 74.2 L 210.0 74.2 L 210.0 66.5 " fill="#FF0000"/>
<path class="atom-13" d="M 217.6 70.3 Q 217.6 68.5, 218.5 67.4 Q 219.4 66.4, 221.1 66.4 Q 222.8 66.4, 223.7 67.4 Q 224.7 68.5, 224.7 70.3 Q 224.7 72.2, 223.7 73.3 Q 222.8 74.3, 221.1 74.3 Q 219.4 74.3, 218.5 73.3 Q 217.6 72.2, 217.6 70.3 M 221.1 73.4 Q 222.3 73.4, 222.9 72.7 Q 223.6 71.9, 223.6 70.3 Q 223.6 68.8, 222.9 68.0 Q 222.3 67.3, 221.1 67.3 Q 220.0 67.3, 219.3 68.0 Q 218.7 68.8, 218.7 70.3 Q 218.7 71.9, 219.3 72.7 Q 220.0 73.4, 221.1 73.4 " fill="#FF0000"/>
<path class="legend" d="M 253.0 184.2 Q 253.0 181.3, 254.3 179.9 Q 255.6 178.4, 258.1 178.4 Q 260.5 178.4, 261.7 180.0 L 260.6 180.9 Q 259.7 179.7, 258.1 179.7 Q 256.4 179.7, 255.5 180.8 Q 254.6 182.0, 254.6 184.2 Q 254.6 186.4, 255.5 187.6 Q 256.5 188.7, 258.3 188.7 Q 259.5 188.7, 261.0 188.0 L 261.4 189.2 Q 260.9 189.5, 260.0 189.8 Q 259.1 190.0, 258.1 190.0 Q 255.6 190.0, 254.3 188.5 Q 253.0 187.0, 253.0 184.2 " fill="#000000"/>
<path class="legend" d="M 264.9 178.5 L 268.6 184.5 Q 269.0 185.1, 269.6 186.2 Q 270.2 187.2, 270.2 187.3 L 270.2 178.5 L 271.7 178.5 L 271.7 189.8 L 270.2 189.8 L 266.2 183.3 Q 265.7 182.5, 265.2 181.6 Q 264.7 180.8, 264.6 180.5 L 264.6 189.8 L 263.1 189.8 L 263.1 178.5 L 264.9 178.5 " fill="#000000"/>
<path class="legend" d="M 277.2 178.5 Q 279.1 178.5, 280.1 179.4 Q 281.1 180.3, 281.1 181.8 Q 281.1 183.4, 280.1 184.3 Q 279.1 185.2, 277.2 185.2 L 275.4 185.2 L 275.4 189.8 L 273.8 189.8 L 273.8 178.5 L 277.2 178.5 M 277.2 183.9 Q 278.3 183.9, 278.9 183.4 Q 279.5 182.8, 279.5 181.8 Q 279.5 180.8, 278.9 180.3 Q 278.3 179.8, 277.2 179.8 L 275.4 179.8 L 275.4 183.9 L 277.2 183.9 " fill="#000000"/>
<path class="legend" d="M 286.7 190.0 Q 284.7 190.0, 283.6 188.4 Q 282.6 186.9, 282.6 184.2 Q 282.6 181.4, 283.6 179.9 Q 284.6 178.4, 286.7 178.4 Q 288.8 178.4, 289.9 179.9 Q 290.9 181.4, 290.9 184.2 Q 290.9 186.9, 289.8 188.4 Q 288.8 190.0, 286.7 190.0 M 286.7 188.7 Q 288.0 188.7, 288.6 187.6 Q 289.3 186.4, 289.3 184.2 Q 289.3 181.9, 288.6 180.8 Q 288.0 179.7, 286.7 179.7 Q 285.5 179.7, 284.9 180.8 Q 284.2 181.9, 284.2 184.2 Q 284.2 186.4, 284.9 187.6 Q 285.5 188.7, 286.7 188.7 " fill="#000000"/>
<path class="legend" d="M 293.3 188.6 L 295.8 188.6 L 295.8 180.1 L 293.1 180.9 L 292.7 180.0 L 296.2 178.4 L 297.3 178.6 L 297.3 188.6 L 299.5 188.6 L 299.5 189.8 L 293.3 189.8 L 293.3 188.6 " fill="#000000"/>
<path class="legend" d="M 304.8 178.4 Q 306.8 178.4, 307.8 179.8 Q 308.9 181.1, 308.9 183.8 Q 308.9 186.8, 307.6 188.4 Q 306.3 190.0, 303.9 190.0 Q 303.2 190.0, 302.6 189.8 Q 302.0 189.6, 301.4 189.3 L 302.1 188.2 Q 302.9 188.7, 303.9 188.7 Q 305.5 188.7, 306.3 187.7 Q 307.1 186.6, 307.2 184.5 Q 306.7 185.0, 305.9 185.3 Q 305.2 185.6, 304.4 185.6 Q 303.4 185.6, 302.6 185.2 Q 301.9 184.7, 301.4 183.9 Q 301.0 183.2, 301.0 182.2 Q 301.0 181.1, 301.5 180.2 Q 302.0 179.3, 302.8 178.9 Q 303.7 178.4, 304.8 178.4 M 302.6 182.1 Q 302.6 183.2, 303.2 183.7 Q 303.7 184.3, 304.7 184.3 Q 305.4 184.3, 306.1 184.0 Q 306.8 183.7, 307.2 183.3 Q 307.2 181.4, 306.6 180.5 Q 306.0 179.7, 304.8 179.7 Q 304.2 179.7, 303.7 180.0 Q 303.2 180.3, 302.9 180.9 Q 302.6 181.5, 302.6 182.1 " fill="#000000"/>
<path class="legend" d="M 314.5 178.4 Q 316.6 178.4, 317.6 179.8 Q 318.6 181.1, 318.6 183.8 Q 318.6 186.8, 317.3 188.4 Q 316.1 190.0, 313.7 190.0 Q 313.0 190.0, 312.3 189.8 Q 311.8 189.6, 311.2 189.3 L 311.8 188.2 Q 312.6 188.7, 313.6 188.7 Q 315.2 188.7, 316.1 187.7 Q 316.9 186.6, 317.0 184.5 Q 316.4 185.0, 315.7 185.3 Q 314.9 185.6, 314.2 185.6 Q 313.2 185.6, 312.4 185.2 Q 311.6 184.7, 311.2 183.9 Q 310.7 183.2, 310.7 182.2 Q 310.7 181.1, 311.2 180.2 Q 311.7 179.3, 312.6 178.9 Q 313.4 178.4, 314.5 178.4 M 312.3 182.1 Q 312.3 183.2, 312.9 183.7 Q 313.4 184.3, 314.4 184.3 Q 315.1 184.3, 315.8 184.0 Q 316.5 183.7, 317.0 183.3 Q 316.9 181.4, 316.3 180.5 Q 315.7 179.7, 314.5 179.7 Q 313.9 179.7, 313.4 180.0 Q 312.9 180.3, 312.6 180.9 Q 312.3 181.5, 312.3 182.1 " fill="#000000"/>
<path class="legend" d="M 325.9 183.9 Q 327.0 184.2, 327.5 184.9 Q 328.1 185.6, 328.1 186.7 Q 328.1 187.7, 327.6 188.4 Q 327.1 189.2, 326.2 189.6 Q 325.4 190.0, 324.2 190.0 Q 323.0 190.0, 322.1 189.6 Q 321.2 189.2, 320.5 188.3 L 321.4 187.4 Q 322.1 188.1, 322.7 188.4 Q 323.3 188.7, 324.2 188.7 Q 325.2 188.7, 325.9 188.2 Q 326.5 187.6, 326.5 186.7 Q 326.5 185.6, 325.8 185.1 Q 325.2 184.5, 323.8 184.5 L 323.0 184.5 L 323.0 183.4 L 323.7 183.4 Q 324.9 183.4, 325.6 182.8 Q 326.2 182.3, 326.2 181.3 Q 326.2 180.5, 325.7 180.1 Q 325.1 179.7, 324.2 179.7 Q 323.3 179.7, 322.7 180.0 Q 322.1 180.3, 321.7 181.2 L 320.6 180.6 Q 321.0 179.6, 321.9 179.0 Q 322.9 178.4, 324.2 178.4 Q 325.9 178.4, 326.9 179.2 Q 327.8 180.0, 327.8 181.3 Q 327.8 182.2, 327.3 182.8 Q 326.8 183.5, 325.9 183.9 " fill="#000000"/>
<path class="legend" d="M 329.8 180.7 Q 330.3 179.6, 331.2 179.0 Q 332.2 178.4, 333.6 178.4 Q 335.3 178.4, 336.3 179.3 Q 337.2 180.2, 337.2 181.9 Q 337.2 183.6, 336.0 185.1 Q 334.8 186.7, 332.2 188.6 L 337.4 188.6 L 337.4 189.8 L 329.8 189.8 L 329.8 188.8 Q 331.9 187.3, 333.2 186.1 Q 334.4 185.0, 335.0 184.0 Q 335.6 183.0, 335.6 182.0 Q 335.6 180.9, 335.1 180.3 Q 334.6 179.7, 333.6 179.7 Q 332.7 179.7, 332.1 180.0 Q 331.5 180.4, 331.1 181.2 L 329.8 180.7 " fill="#000000"/>
<path class="legend" d="M 343.0 178.4 Q 345.0 178.4, 346.0 179.8 Q 347.0 181.1, 347.0 183.8 Q 347.0 186.8, 345.8 188.4 Q 344.5 190.0, 342.1 190.0 Q 341.4 190.0, 340.8 189.8 Q 340.2 189.6, 339.6 189.3 L 340.3 188.2 Q 341.1 188.7, 342.1 188.7 Q 343.7 188.7, 344.5 187.7 Q 345.3 186.6, 345.4 184.5 Q 344.8 185.0, 344.1 185.3 Q 343.4 185.6, 342.6 185.6 Q 341.6 185.6, 340.8 185.2 Q 340.0 184.7, 339.6 183.9 Q 339.2 183.2, 339.2 182.2 Q 339.2 181.1, 339.7 180.2 Q 340.2 179.3, 341.0 178.9 Q 341.9 178.4, 343.0 178.4 M 340.8 182.1 Q 340.8 183.2, 341.3 183.7 Q 341.9 184.3, 342.9 184.3 Q 343.6 184.3, 344.3 184.0 Q 344.9 183.7, 345.4 183.3 Q 345.4 181.4, 344.8 180.5 Q 344.2 179.7, 343.0 179.7 Q 342.4 179.7, 341.9 180.0 Q 341.4 180.3, 341.1 180.9 Q 340.8 181.5, 340.8 182.1 " fill="#000000"/>
</svg>