<svg xmlns="http://www.w3.org/2000/svg" xmlns:rdkit="http://www.rdkit.org/xml" xmlns:xlink="http://www.w3.org/1999/xlink" version="1.1" baseProfile="full" xml:space="preserve" width="600px" height="200px" viewBox="0 0 600 200">
<!-- END OF HEADER -->
<rect style="opacity:1.0;fill:#FFFFFF;stroke:none" width="600.0" height="200.0" x="0.0" y="0.0"> </rect>
<path class="bond-0 atom-1 atom-0" d="M 59.7,111.1 L 44.5,121.0 L 43.2,118.6 Z" style="fill:#000000;fill-rule:evenodd;fill-opacity:1;stroke:#000000;stroke-width:0.5px;stroke-linecap:butt;stroke-linejoin:miter;stroke-opacity:1;"/>
<path class="bond-1 atom-1 atom-2" d="M 59.7,111.1 L 76.0,118.9" style="fill:none;fill-rule:evenodd;stroke:#000000;stroke-width:2.0px;stroke-linecap:butt;stroke-linejoin:miter;stroke-opacity:1"/>
<path class="bond-2 atom-2 atom-3" d="M 76.0,118.9 L 88.3,105.8" style="fill:none;fill-rule:evenodd;stroke:#000000;stroke-width:2.0px;stroke-linecap:butt;stroke-linejoin:miter;stroke-opacity:1"/>
<path class="bond-3 atom-3 atom-4" d="M 88.3,105.8 L 106.3,106.2" style="fill:none;fill-rule:evenodd;stroke:#000000;stroke-width:2.0px;stroke-linecap:butt;stroke-linejoin:miter;stroke-opacity:1"/>
<path class="bond-4 atom-4 atom-5" d="M 106.3,106.2 L 114.9,122.0" style="fill:none;fill-rule:evenodd;stroke:#000000;stroke-width:2.0px;stroke-linecap:butt;stroke-linejoin:miter;stroke-opacity:1"/>
<path class="bond-5 atom-5 atom-6" d="M 114.9,122.0 L 132.9,122.4" style="fill:none;fill-rule:evenodd;stroke:#000000;stroke-width:2.0px;stroke-linecap:butt;stroke-linejoin:miter;stroke-opacity:1"/>
<path class="bond-6 atom-6 atom-7" d="M 132.9,122.4 L 142.3,107.0" style="fill:none;fill-rule:evenodd;stroke:#000000;stroke-width:2.0px;stroke-linecap:butt;stroke-linejoin:miter;stroke-opacity:1"/>
<path class="bond-7 atom-7 atom-8" d="M 142.3,107.0 L 160.3,107.5" style="fill:none;fill-rule:evenodd;stroke:#000000;stroke-width:2.0px;stroke-linecap:butt;stroke-linejoin:miter;stroke-opacity:1"/>
<path class="bond-7 atom-7 atom-8" d="M 143.9,104.4 L 158.8,104.7" style="fill:none;fill-rule:evenodd;stroke:#000000;stroke-width:2.0px;stroke-linecap:butt;stroke-linejoin:miter;stroke-opacity:1"/>
<path class="bond-8 atom-8 atom-9" d="M 160.3,107.5 L 169.7,92.1" style="fill:none;fill-rule:evenodd;stroke:#000000;stroke-width:2.0px;stroke-linecap:butt;stroke-linejoin:miter;stroke-opacity:1"/>
<path class="bond-9 atom-9 atom-10" d="M 168.9,93.4 L 176.8,93.6" style="fill:none;fill-rule:evenodd;stroke:#000000;stroke-width:2.0px;stroke-linecap:butt;stroke-linejoin:miter;stroke-opacity:1"/>
<path class="bond-9 atom-9 atom-10" d="M 176.8,93.6 L 184.7,93.8" style="fill:none;fill-rule:evenodd;stroke:#FF0000;stroke-width:2.0px;stroke-linecap:butt;stroke-linejoin:miter;stroke-opacity:1"/>
<path class="bond-9 atom-9 atom-10" d="M 168.9,90.7 L 176.8,90.9" style="fill:none;fill-rule:evenodd;stroke:#000000;stroke-width:2.0px;stroke-linecap:butt;stroke-linejoin:miter;stroke-opacity:1"/>
<path class="bond-9 atom-9 atom-10" d="M 176.8,90.9 L 184.8,91.1" style="fill:none;fill-rule:evenodd;stroke:#FF0000;stroke-width:2.0px;stroke-linecap:butt;stroke-linejoin:miter;stroke-opacity:1"/>
<path class="bond-10 atom-9 atom-11" d="M 169.7,92.1 L 161.0,76.3" style="fill:none;fill-rule:evenodd;stroke:#000000;stroke-width:2.0px;stroke-linecap:butt;stroke-linejoin:miter;stroke-opacity:1"/>
<path class="bond-11 atom-11 atom-12" d="M 161.0,76.3 L 143.0,75.9" style="fill:none;fill-rule:evenodd;stroke:#000000;stroke-width:2.0px;stroke-linecap:butt;stroke-linejoin:miter;stroke-opacity:1"/>
<path class="bond-11 atom-11 atom-12" d="M 159.4,79.0 L 144.5,78.6" style="fill:none;fill-rule:evenodd;stroke:#000000;stroke-width:2.0px;stroke-linecap:butt;stroke-linejoin:miter;stroke-opacity:1"/>
<path class="bond-12 atom-12 atom-13" d="M 143.0,75.9 L 133.7,91.2" style="fill:none;fill-rule:evenodd;stroke:#000000;stroke-width:2.0px;stroke-linecap:butt;stroke-linejoin:miter;stroke-opacity:1"/>
<path class="bond-13 atom-13 atom-14" d="M 131.7,88.2 L 132.2,88.0" style="fill:none;fill-rule:evenodd;stroke:#000000;stroke-width:1.0px;stroke-linecap:butt;stroke-linejoin:miter;stroke-opacity:1"/>
<path class="bond-13 atom-13 atom-14" d="M 129.7,85.2 L 130.7,84.7" style="fill:none;fill-rule:evenodd;stroke:#000000;stroke-width:1.0px;stroke-linecap:butt;stroke-linejoin:miter;stroke-opacity:1"/>
<path class="bond-13 atom-13 atom-14" d="M 127.8,82.2 L 129.2,81.4" style="fill:none;fill-rule:evenodd;stroke:#000000;stroke-width:1.0px;stroke-linecap:butt;stroke-linejoin:miter;stroke-opacity:1"/>
<path class="bond-13 atom-13 atom-14" d="M 125.8,79.1 L 127.7,78.1" style="fill:none;fill-rule:evenodd;stroke:#000000;stroke-width:1.0px;stroke-linecap:butt;stroke-linejoin:miter;stroke-opacity:1"/>
<path class="bond-13 atom-13 atom-14" d="M 123.9,76.1 L 126.2,74.8" style="fill:none;fill-rule:evenodd;stroke:#000000;stroke-width:1.0px;stroke-linecap:butt;stroke-linejoin:miter;stroke-opacity:1"/>
<path class="bond-14 atom-13 atom-15" d="M 133.7,91.2 L 115.7,90.8" style="fill:none;fill-rule:evenodd;stroke:#000000;stroke-width:2.0px;stroke-linecap:butt;stroke-linejoin:miter;stroke-opacity:1"/>
<path class="bond-15 atom-15 atom-16" d="M 115.7,90.8 L 108.0,91.3 L 108.0,90.0 Z" style="fill:#000000;fill-rule:evenodd;fill-opacity:1;stroke:#000000;stroke-width:0.5px;stroke-linecap:butt;stroke-linejoin:miter;stroke-opacity:1;"/>
<path class="bond-15 atom-15 atom-16" d="M 108.0,91.3 L 100.4,89.1 L 100.4,91.8 Z" style="fill:#33CCCC;fill-rule:evenodd;fill-opacity:1;stroke:#33CCCC;stroke-width:0.5px;stroke-linecap:butt;stroke-linejoin:miter;stroke-opacity:1;"/>
<path class="bond-15 atom-15 atom-16" d="M 108.0,91.3 L 108.0,90.0 L 100.4,89.1 Z" style="fill:#33CCCC;fill-rule:evenodd;fill-opacity:1;stroke:#33CCCC;stroke-width:0.5px;stroke-linecap:butt;stroke-linejoin:miter;stroke-opacity:1;"/>
<path class="bond-16 atom-15 atom-17" d="M 115.7,90.8 L 107.0,75.0" style="fill:none;fill-rule:evenodd;stroke:#000000;stroke-width:2.0px;stroke-linecap:butt;stroke-linejoin:miter;stroke-opacity:1"/>
<path class="bond-17 atom-17 atom-18" d="M 108.5,72.0 L 109.1,72.3" style="fill:none;fill-rule:evenodd;stroke:#000000;stroke-width:1.0px;stroke-linecap:butt;stroke-linejoin:miter;stroke-opacity:1"/>
<path class="bond-17 atom-17 atom-18" d="M 110.0,68.9 L 111.1,69.6" style="fill:none;fill-rule:evenodd;stroke:#000000;stroke-width:1.0px;stroke-linecap:butt;stroke-linejoin:miter;stroke-opacity:1"/>
<path class="bond-17 atom-17 atom-18" d="M 111.5,65.9 L 113.2,66.9" style="fill:none;fill-rule:evenodd;stroke:#FF0000;stroke-width:1.0px;stroke-linecap:butt;stroke-linejoin:miter;stroke-opacity:1"/>
<path class="bond-17 atom-17 atom-18" d="M 112.9,62.8 L 115.2,64.2" style="fill:none;fill-rule:evenodd;stroke:#FF0000;stroke-width:1.0px;stroke-linecap:butt;stroke-linejoin:miter;stroke-opacity:1"/>
<path class="bond-18 atom-17 atom-19" d="M 107.0,75.0 L 89.1,74.6" style="fill:none;fill-rule:evenodd;stroke:#000000;stroke-width:2.0px;stroke-linecap:butt;stroke-linejoin:miter;stroke-opacity:1"/>
<path class="bond-19 atom-19 atom-20" d="M 89.1,74.6 L 79.7,90.0" style="fill:none;fill-rule:evenodd;stroke:#000000;stroke-width:2.0px;stroke-linecap:butt;stroke-linejoin:miter;stroke-opacity:1"/>
<path class="bond-20 atom-20 atom-21" d="M 77.8,86.9 L 78.3,86.7" style="fill:none;fill-rule:evenodd;stroke:#000000;stroke-width:1.0px;stroke-linecap:butt;stroke-linejoin:miter;stroke-opacity:1"/>
<path class="bond-20 atom-20 atom-21" d="M 75.9,83.8 L 76.8,83.3" style="fill:none;fill-rule:evenodd;stroke:#000000;stroke-width:1.0px;stroke-linecap:butt;stroke-linejoin:miter;stroke-opacity:1"/>
<path class="bond-20 atom-20 atom-21" d="M 74.0,80.8 L 75.4,80.0" style="fill:none;fill-rule:evenodd;stroke:#000000;stroke-width:1.0px;stroke-linecap:butt;stroke-linejoin:miter;stroke-opacity:1"/>
<path class="bond-20 atom-20 atom-21" d="M 72.0,77.7 L 74.0,76.7" style="fill:none;fill-rule:evenodd;stroke:#000000;stroke-width:1.0px;stroke-linecap:butt;stroke-linejoin:miter;stroke-opacity:1"/>
<path class="bond-20 atom-20 atom-21" d="M 70.1,74.6 L 72.5,73.4" style="fill:none;fill-rule:evenodd;stroke:#000000;stroke-width:1.0px;stroke-linecap:butt;stroke-linejoin:miter;stroke-opacity:1"/>
<path class="bond-21 atom-20 atom-22" d="M 79.7,90.0 L 62.0,93.3" style="fill:none;fill-rule:evenodd;stroke:#000000;stroke-width:2.0px;stroke-linecap:butt;stroke-linejoin:miter;stroke-opacity:1"/>
<path class="bond-22 atom-22 atom-23" d="M 62.0,93.3 L 59.9,86.5 L 61.2,86.3 Z" style="fill:#000000;fill-rule:evenodd;fill-opacity:1;stroke:#000000;stroke-width:0.5px;stroke-linecap:butt;stroke-linejoin:miter;stroke-opacity:1;"/>
<path class="bond-22 atom-22 atom-23" d="M 59.9,86.5 L 60.5,79.2 L 57.8,79.8 Z" style="fill:#FF0000;fill-rule:evenodd;fill-opacity:1;stroke:#FF0000;stroke-width:0.5px;stroke-linecap:butt;stroke-linejoin:miter;stroke-opacity:1;"/>
<path class="bond-22 atom-22 atom-23" d="M 59.9,86.5 L 61.2,86.3 L 60.5,79.2 Z" style="fill:#FF0000;fill-rule:evenodd;fill-opacity:1;stroke:#FF0000;stroke-width:0.5px;stroke-linecap:butt;stroke-linejoin:miter;stroke-opacity:1;"/>
<path class="bond-23 atom-22 atom-24" d="M 62.0,93.3 L 44.0,92.9" style="fill:none;fill-rule:evenodd;stroke:#000000;stroke-width:2.0px;stroke-linecap:butt;stroke-linejoin:miter;stroke-opacity:1"/>
<path class="bond-24 atom-24 atom-25" d="M 43.3,91.5 L 39.3,97.9" style="fill:none;fill-rule:evenodd;stroke:#000000;stroke-width:2.0px;stroke-linecap:butt;stroke-linejoin:miter;stroke-opacity:1"/>
<path class="bond-24 atom-24 atom-25" d="M 39.3,97.9 L 35.4,104.4" style="fill:none;fill-rule:evenodd;stroke:#FF0000;stroke-width:2.0px;stroke-linecap:butt;stroke-linejoin:miter;stroke-opacity:1"/>
<path class="bond-24 atom-24 atom-25" d="M 45.6,92.9 L 41.6,99.3" style="fill:none;fill-rule:evenodd;stroke:#000000;stroke-width:2.0px;stroke-linecap:butt;stroke-linejoin:miter;stroke-opacity:1"/>
<path class="bond-24 atom-24 atom-25" d="M 41.6,99.3 L 37.7,105.8" style="fill:none;fill-rule:evenodd;stroke:#FF0000;stroke-width:2.0px;stroke-linecap:butt;stroke-linejoin:miter;stroke-opacity:1"/>
<path class="bond-25 atom-24 atom-26" d="M 44.0,92.9 L 35.4,77.1" style="fill:none;fill-rule:evenodd;stroke:#000000;stroke-width:2.0px;stroke-linecap:butt;stroke-linejoin:miter;stroke-opacity:1"/>
<path class="bond-26 atom-26 atom-27" d="M 35.4,77.1 L 27.8,76.9" style="fill:none;fill-rule:evenodd;stroke:#000000;stroke-width:2.0px;stroke-linecap:butt;stroke-linejoin:miter;stroke-opacity:1"/>
<path class="bond-26 atom-26 atom-27" d="M 27.8,76.9 L 20.3,76.7" style="fill:none;fill-rule:evenodd;stroke:#FF0000;stroke-width:2.0px;stroke-linecap:butt;stroke-linejoin:miter;stroke-opacity:1"/>
<path class="bond-27 atom-22 atom-1" d="M 62.0,93.3 L 59.7,111.1" style="fill:none;fill-rule:evenodd;stroke:#000000;stroke-width:2.0px;stroke-linecap:butt;stroke-linejoin:miter;stroke-opacity:1"/>
<path class="bond-28 atom-20 atom-3" d="M 79.7,90.0 L 88.3,105.8" style="fill:none;fill-rule:evenodd;stroke:#000000;stroke-width:2.0px;stroke-linecap:butt;stroke-linejoin:miter;stroke-opacity:1"/>
<path class="bond-29 atom-15 atom-4" d="M 115.7,90.8 L 106.3,106.2" style="fill:none;fill-rule:evenodd;stroke:#000000;stroke-width:2.0px;stroke-linecap:butt;stroke-linejoin:miter;stroke-opacity:1"/>
<path class="bond-30 atom-13 atom-7" d="M 133.7,91.2 L 142.3,107.0" style="fill:none;fill-rule:evenodd;stroke:#000000;stroke-width:2.0px;stroke-linecap:butt;stroke-linejoin:miter;stroke-opacity:1"/>
<path class="bond-31 atom-3 atom-28" d="M 88.3,105.8 L 94.9,118.1 L 92.4,119.2 Z" style="fill:#000000;fill-rule:evenodd;fill-opacity:1;stroke:#000000;stroke-width:0.5px;stroke-linecap:butt;stroke-linejoin:miter;stroke-opacity:1;"/>
<path class="bond-32 atom-4 atom-29" d="M 110.0,105.9 L 110.0,106.6" style="fill:none;fill-rule:evenodd;stroke:#000000;stroke-width:1.0px;stroke-linecap:butt;stroke-linejoin:miter;stroke-opacity:1"/>
<path class="bond-32 atom-4 atom-29" d="M 113.7,105.7 L 113.7,107.0" style="fill:none;fill-rule:evenodd;stroke:#000000;stroke-width:1.0px;stroke-linecap:butt;stroke-linejoin:miter;stroke-opacity:1"/>
<path class="bond-32 atom-4 atom-29" d="M 117.4,105.4 L 117.4,107.5" style="fill:none;fill-rule:evenodd;stroke:#000000;stroke-width:1.0px;stroke-linecap:butt;stroke-linejoin:miter;stroke-opacity:1"/>
<path class="bond-32 atom-4 atom-29" d="M 121.2,105.2 L 121.1,107.9" style="fill:none;fill-rule:evenodd;stroke:#000000;stroke-width:1.0px;stroke-linecap:butt;stroke-linejoin:miter;stroke-opacity:1"/>
<path d="M 60.5,111.5 L 59.7,111.1 L 59.8,110.2" style="fill:none;stroke:#000000;stroke-width:2.0px;stroke-linecap:butt;stroke-linejoin:miter;stroke-opacity:1;"/>
<path d="M 75.1,118.5 L 76.0,118.9 L 76.6,118.2" style="fill:none;stroke:#000000;stroke-width:2.0px;stroke-linecap:butt;stroke-linejoin:miter;stroke-opacity:1;"/>
<path d="M 114.5,121.2 L 114.9,122.0 L 115.8,122.0" style="fill:none;stroke:#000000;stroke-width:2.0px;stroke-linecap:butt;stroke-linejoin:miter;stroke-opacity:1;"/>
<path d="M 132.0,122.4 L 132.9,122.4 L 133.4,121.6" style="fill:none;stroke:#000000;stroke-width:2.0px;stroke-linecap:butt;stroke-linejoin:miter;stroke-opacity:1;"/>
<path d="M 159.4,107.5 L 160.3,107.5 L 160.8,106.7" style="fill:none;stroke:#000000;stroke-width:2.0px;stroke-linecap:butt;stroke-linejoin:miter;stroke-opacity:1;"/>
<path d="M 169.2,92.9 L 169.7,92.1 L 169.2,91.3" style="fill:none;stroke:#000000;stroke-width:2.0px;stroke-linecap:butt;stroke-linejoin:miter;stroke-opacity:1;"/>
<path d="M 161.5,77.1 L 161.0,76.3 L 160.1,76.3" style="fill:none;stroke:#000000;stroke-width:2.0px;stroke-linecap:butt;stroke-linejoin:miter;stroke-opacity:1;"/>
<path d="M 143.9,75.9 L 143.0,75.9 L 142.6,76.6" style="fill:none;stroke:#000000;stroke-width:2.0px;stroke-linecap:butt;stroke-linejoin:miter;stroke-opacity:1;"/>
<path d="M 107.5,75.8 L 107.0,75.0 L 106.1,75.0" style="fill:none;stroke:#000000;stroke-width:2.0px;stroke-linecap:butt;stroke-linejoin:miter;stroke-opacity:1;"/>
<path d="M 90.0,74.6 L 89.1,74.6 L 88.6,75.4" style="fill:none;stroke:#000000;stroke-width:2.0px;stroke-linecap:butt;stroke-linejoin:miter;stroke-opacity:1;"/>
<path d="M 44.9,92.9 L 44.0,92.9 L 43.6,92.1" style="fill:none;stroke:#000000;stroke-width:2.0px;stroke-linecap:butt;stroke-linejoin:miter;stroke-opacity:1;"/>
<path d="M 35.8,77.9 L 35.4,77.1 L 35.0,77.1" style="fill:none;stroke:#000000;stroke-width:2.0px;stroke-linecap:butt;stroke-linejoin:miter;stroke-opacity:1;"/>
<path class="atom-10" d="M 185.3 92.5 Q 185.3 91.3, 185.9 90.6 Q 186.5 90.0, 187.7 90.0 Q 188.8 90.0, 189.4 90.6 Q 190.0 91.3, 190.0 92.5 Q 190.0 93.8, 189.4 94.5 Q 188.8 95.2, 187.7 95.2 Q 186.5 95.2, 185.9 94.5 Q 185.3 93.8, 185.3 92.5 M 187.7 94.6 Q 188.4 94.6, 188.9 94.1 Q 189.3 93.6, 189.3 92.5 Q 189.3 91.5, 188.9 91.0 Q 188.4 90.5, 187.7 90.5 Q 186.9 90.5, 186.5 91.0 Q 186.0 91.5, 186.0 92.5 Q 186.0 93.6, 186.5 94.1 Q 186.9 94.6, 187.7 94.6 " fill="#FF0000"/>
<path class="atom-16" d="M 96.2 87.8 L 99.2 87.8 L 99.2 88.4 L 96.8 88.4 L 96.8 90.0 L 98.9 90.0 L 98.9 90.6 L 96.8 90.6 L 96.8 92.9 L 96.2 92.9 L 96.2 87.8 " fill="#33CCCC"/>
<path class="atom-18" d="M 114.1 59.7 Q 114.1 58.4, 114.7 57.8 Q 115.3 57.1, 116.4 57.1 Q 117.5 57.1, 118.2 57.8 Q 118.8 58.4, 118.8 59.7 Q 118.8 60.9, 118.1 61.6 Q 117.5 62.3, 116.4 62.3 Q 115.3 62.3, 114.7 61.6 Q 114.1 60.9, 114.1 59.7 M 116.4 61.7 Q 117.2 61.7, 117.6 61.2 Q 118.0 60.7, 118.0 59.7 Q 118.0 58.7, 117.6 58.2 Q 117.2 57.6, 116.4 57.6 Q 115.6 57.6, 115.2 58.2 Q 114.8 58.7, 114.8 59.7 Q 114.8 60.7, 115.2 61.2 Q 115.6 61.7, 116.4 61.7 " fill="#FF0000"/>
<path class="atom-18" d="M 119.6 57.1 L 120.2 57.1 L 120.2 59.3 L 122.8 59.3 L 122.8 57.1 L 123.5 57.1 L 123.5 62.2 L 122.8 62.2 L 122.8 59.9 L 120.2 59.9 L 120.2 62.2 L 119.6 62.2 L 119.6 57.1 " fill="#FF0000"/>
<path class="atom-23" d="M 56.0 75.7 Q 56.0 74.4, 56.6 73.8 Q 57.2 73.1, 58.4 73.1 Q 59.5 73.1, 60.1 73.8 Q 60.7 74.4, 60.7 75.7 Q 60.7 76.9, 60.1 77.6 Q 59.5 78.3, 58.4 78.3 Q 57.2 78.3, 56.6 77.6 Q 56.0 76.9, 56.0 75.7 M 58.4 77.7 Q 59.1 77.7, 59.6 77.2 Q 60.0 76.7, 60.0 75.7 Q 60.0 74.7, 59.6 74.2 Q 59.1 73.7, 58.4 73.7 Q 57.6 73.7, 57.2 74.2 Q 56.7 74.7, 56.7 75.7 Q 56.7 76.7, 57.2 77.2 Q 57.6 77.7, 58.4 77.7 " fill="#FF0000"/>
<path class="atom-23" d="M 61.5 73.1 L 62.2 73.1 L 62.2 75.3 L 64.8 75.3 L 64.8 73.1 L 65.5 73.1 L 65.5 78.2 L 64.8 78.2 L 64.8 75.9 L 62.2 75.9 L 62.2 78.2 L 61.5 78.2 L 61.5 73.1 " fill="#FF0000"/>
<path class="atom-25" d="M 32.3 108.2 Q 32.3 107.0, 32.9 106.3 Q 33.5 105.7, 34.6 105.7 Q 35.8 105.7, 36.4 106.3 Q 37.0 107.0, 37.0 108.2 Q 37.0 109.5, 36.4 110.2 Q 35.7 110.9, 34.6 110.9 Q 33.5 110.9, 32.9 110.2 Q 32.3 109.5, 32.3 108.2 M 34.6 110.3 Q 35.4 110.3, 35.8 109.8 Q 36.3 109.3, 36.3 108.2 Q 36.3 107.2, 35.8 106.7 Q 35.4 106.2, 34.6 106.2 Q 33.9 106.2, 33.4 106.7 Q 33.0 107.2, 33.0 108.2 Q 33.0 109.3, 33.4 109.8 Q 33.9 110.3, 34.6 110.3 " fill="#FF0000"/>
<path class="atom-27" d="M 10.0 74.1 L 10.7 74.1 L 10.7 76.3 L 13.3 76.3 L 13.3 74.1 L 14.0 74.1 L 14.0 79.2 L 13.3 79.2 L 13.3 76.9 L 10.7 76.9 L 10.7 79.2 L 10.0 79.2 L 10.0 74.1 " fill="#FF0000"/>
<path class="atom-27" d="M 15.0 76.7 Q 15.0 75.4, 15.6 74.7 Q 16.2 74.1, 17.4 74.1 Q 18.5 74.1, 19.1 74.7 Q 19.7 75.4, 19.7 76.7 Q 19.7 77.9, 19.1 78.6 Q 18.5 79.3, 17.4 79.3 Q 16.3 79.3, 15.6 78.6 Q 15.0 77.9, 15.0 76.7 M 17.4 78.7 Q 18.2 78.7, 18.6 78.2 Q 19.0 77.7, 19.0 76.7 Q 19.0 75.7, 18.6 75.1 Q 18.2 74.6, 17.4 74.6 Q 16.6 74.6, 16.2 75.1 Q 15.8 75.6, 15.8 76.7 Q 15.8 77.7, 16.2 78.2 Q 16.6 78.7, 17.4 78.7 " fill="#FF0000"/>
<path class="atom-28" d="M 93.2 119.8 L 93.9 119.8 L 93.9 122.0 L 96.5 122.0 L 96.5 119.8 L 97.2 119.8 L 97.2 124.9 L 96.5 124.9 L 96.5 122.6 L 93.9 122.6 L 93.9 124.9 L 93.2 124.9 L 93.2 119.8 " fill="#000000"/>
<path class="atom-29" d="M 122.3 104.1 L 123.0 104.1 L 123.0 106.2 L 125.6 106.2 L 125.6 104.1 L 126.3 104.1 L 126.3 109.2 L 125.6 109.2 L 125.6 106.8 L 123.0 106.8 L 123.0 109.2 L 122.3 109.2 L 122.3 104.1 " fill="#000000"/>
<path class="legend" d="M 36.4 178.4 Q 38.9 178.4, 40.2 179.9 Q 41.6 181.3, 41.6 184.0 Q 41.6 186.7, 40.2 188.2 Q 38.9 189.7, 36.4 189.7 L 32.7 189.7 L 32.7 178.4 L 36.4 178.4 M 36.4 188.4 Q 38.1 188.4, 39.0 187.3 Q 40.0 186.2, 40.0 184.0 Q 40.0 181.8, 39.0 180.7 Q 38.1 179.6, 36.4 179.6 L 34.2 179.6 L 34.2 188.4 L 36.4 188.4 " fill="#000000"/>
<path class="legend" d="M 43.2 178.4 L 49.9 178.4 L 49.9 179.7 L 44.7 179.7 L 44.7 183.1 L 49.4 183.1 L 49.4 184.4 L 44.7 184.4 L 44.7 188.4 L 50.1 188.4 L 50.1 189.7 L 43.2 189.7 L 43.2 178.4 " fill="#000000"/>
<path class="legend" d="M 62.0 189.7 L 60.2 189.7 L 56.8 185.0 L 53.5 189.7 L 51.8 189.7 L 56.0 183.8 L 52.1 178.4 L 53.8 178.4 L 56.9 182.7 L 60.0 178.4 L 61.7 178.4 L 57.8 183.9 L 62.0 189.7 " fill="#000000"/>
<path class="legend" d="M 71.3 189.7 L 70.1 186.4 L 65.6 186.4 L 64.5 189.7 L 62.9 189.7 L 66.8 178.4 L 68.7 178.4 L 72.8 189.7 L 71.3 189.7 M 66.0 185.1 L 69.6 185.1 L 67.8 180.0 L 66.0 185.1 " fill="#000000"/>
<path class="legend" d="M 86.8 189.7 L 85.3 189.7 L 84.1 180.4 L 81.1 189.7 L 79.5 189.7 L 76.5 180.4 L 75.3 189.7 L 73.8 189.7 L 75.3 178.4 L 77.2 178.4 L 80.3 187.5 L 83.4 178.4 L 85.3 178.4 L 86.8 189.7 " fill="#000000"/>
<path class="legend" d="M 88.7 178.4 L 95.5 178.4 L 95.5 179.7 L 90.2 179.7 L 90.2 183.1 L 94.9 183.1 L 94.9 184.4 L 90.2 184.4 L 90.2 188.4 L 95.6 188.4 L 95.6 189.7 L 88.7 189.7 L 88.7 178.4 " fill="#000000"/>
<path class="legend" d="M 100.8 179.6 L 97.3 179.6 L 97.3 178.4 L 105.7 178.4 L 105.7 179.6 L 102.3 179.6 L 102.3 189.7 L 100.8 189.7 L 100.8 179.6 " fill="#000000"/>
<path class="legend" d="M 106.5 178.4 L 108.1 178.4 L 108.1 183.2 L 113.9 183.2 L 113.9 178.4 L 115.4 178.4 L 115.4 189.7 L 113.9 189.7 L 113.9 184.5 L 108.1 184.5 L 108.1 189.7 L 106.5 189.7 L 106.5 178.4 " fill="#000000"/>
<path class="legend" d="M 126.0 189.7 L 124.8 186.4 L 120.3 186.4 L 119.2 189.7 L 117.7 189.7 L 121.6 178.4 L 123.5 178.4 L 127.5 189.7 L 126.0 189.7 M 120.8 185.1 L 124.4 185.1 L 122.5 180.0 L 120.8 185.1 " fill="#000000"/>
<path class="legend" d="M 129.0 187.9 Q 129.1 188.0, 129.7 188.2 Q 130.2 188.4, 130.8 188.6 Q 131.4 188.7, 131.9 188.7 Q 133.0 188.7, 133.6 188.2 Q 134.3 187.7, 134.3 186.8 Q 134.3 186.1, 133.9 185.7 Q 133.6 185.4, 133.2 185.2 Q 132.7 184.9, 131.9 184.7 Q 130.9 184.4, 130.3 184.1 Q 129.7 183.8, 129.2 183.2 Q 128.8 182.6, 128.8 181.6 Q 128.8 180.2, 129.8 179.3 Q 130.8 178.4, 132.7 178.4 Q 134.0 178.4, 135.5 179.0 L 135.1 180.3 Q 133.8 179.7, 132.7 179.7 Q 131.6 179.7, 131.0 180.2 Q 130.4 180.6, 130.4 181.4 Q 130.4 182.0, 130.7 182.4 Q 131.1 182.7, 131.5 182.9 Q 132.0 183.2, 132.7 183.4 Q 133.8 183.7, 134.4 184.0 Q 135.0 184.4, 135.4 185.0 Q 135.9 185.6, 135.9 186.8 Q 135.9 188.3, 134.8 189.2 Q 133.8 190.0, 132.0 190.0 Q 131.0 190.0, 130.2 189.8 Q 129.5 189.6, 128.6 189.2 L 129.0 187.9 " fill="#000000"/>
<path class="legend" d="M 137.5 184.0 Q 137.5 181.3, 138.8 179.8 Q 140.2 178.2, 142.7 178.2 Q 145.2 178.2, 146.6 179.8 Q 147.9 181.3, 147.9 184.0 Q 147.9 186.8, 146.5 188.3 Q 145.2 189.9, 142.7 189.9 Q 140.2 189.9, 138.8 188.3 Q 137.5 186.8, 137.5 184.0 M 142.7 188.6 Q 144.4 188.6, 145.4 187.4 Q 146.3 186.3, 146.3 184.0 Q 146.3 181.8, 145.4 180.7 Q 144.4 179.5, 142.7 179.5 Q 141.0 179.5, 140.0 180.6 Q 139.1 181.8, 139.1 184.0 Q 139.1 186.3, 140.0 187.4 Q 141.0 188.6, 142.7 188.6 " fill="#000000"/>
<path class="legend" d="M 151.4 178.4 L 155.1 184.4 Q 155.5 185.0, 156.0 186.0 Q 156.6 187.1, 156.7 187.2 L 156.7 178.4 L 158.2 178.4 L 158.2 189.7 L 156.6 189.7 L 152.6 183.1 Q 152.2 182.4, 151.7 181.5 Q 151.2 180.6, 151.1 180.3 L 151.1 189.7 L 149.6 189.7 L 149.6 178.4 L 151.4 178.4 " fill="#000000"/>
<path class="legend" d="M 160.4 178.4 L 167.1 178.4 L 167.1 179.7 L 161.9 179.7 L 161.9 183.1 L 166.6 183.1 L 166.6 184.4 L 161.9 184.4 L 161.9 188.4 L 167.3 188.4 L 167.3 189.7 L 160.4 189.7 L 160.4 178.4 " fill="#000000"/>
<path class="bond-0 atom-1 atom-0" d="M 256.7,113.1 L 256.4,112.6" style="fill:none;fill-rule:evenodd;stroke:#000000;stroke-width:1.0px;stroke-linecap:butt;stroke-linejoin:miter;stroke-opacity:1"/>
<path class="bond-0 atom-1 atom-0" d="M 253.6,115.1 L 253.1,114.1" style="fill:none;fill-rule:evenodd;stroke:#000000;stroke-width:1.0px;stroke-linecap:butt;stroke-linejoin:miter;stroke-opacity:1"/>
<path class="bond-0 atom-1 atom-0" d="M 250.6,117.0 L 249.8,115.6" style="fill:none;fill-rule:evenodd;stroke:#000000;stroke-width:1.0px;stroke-linecap:butt;stroke-linejoin:miter;stroke-opacity:1"/>
<path class="bond-0 atom-1 atom-0" d="M 247.6,119.0 L 246.5,117.1" style="fill:none;fill-rule:evenodd;stroke:#000000;stroke-width:1.0px;stroke-linecap:butt;stroke-linejoin:miter;stroke-opacity:1"/>
<path class="bond-0 atom-1 atom-0" d="M 244.5,121.0 L 243.2,118.6" style="fill:none;fill-rule:evenodd;stroke:#000000;stroke-width:1.0px;stroke-linecap:butt;stroke-linejoin:miter;stroke-opacity:1"/>
<path class="bond-1 atom-1 atom-2" d="M 259.7,111.1 L 276.0,118.9" style="fill:none;fill-rule:evenodd;stroke:#000000;stroke-width:2.0px;stroke-linecap:butt;stroke-linejoin:miter;stroke-opacity:1"/>
<path class="bond-2 atom-2 atom-3" d="M 276.0,118.9 L 288.3,105.8" style="fill:none;fill-rule:evenodd;stroke:#000000;stroke-width:2.0px;stroke-linecap:butt;stroke-linejoin:miter;stroke-opacity:1"/>
<path class="bond-3 atom-3 atom-4" d="M 288.3,105.8 L 306.3,106.2" style="fill:none;fill-rule:evenodd;stroke:#000000;stroke-width:2.0px;stroke-linecap:butt;stroke-linejoin:miter;stroke-opacity:1"/>
<path class="bond-4 atom-4 atom-5" d="M 306.3,106.2 L 314.9,122.0" style="fill:none;fill-rule:evenodd;stroke:#000000;stroke-width:2.0px;stroke-linecap:butt;stroke-linejoin:miter;stroke-opacity:1"/>
<path class="bond-5 atom-5 atom-6" d="M 314.9,122.0 L 332.9,122.4" style="fill:none;fill-rule:evenodd;stroke:#000000;stroke-width:2.0px;stroke-linecap:butt;stroke-linejoin:miter;stroke-opacity:1"/>
<path class="bond-6 atom-6 atom-7" d="M 332.9,122.4 L 342.3,107.0" style="fill:none;fill-rule:evenodd;stroke:#000000;stroke-width:2.0px;stroke-linecap:butt;stroke-linejoin:miter;stroke-opacity:1"/>
<path class="bond-7 atom-7 atom-8" d="M 342.3,107.0 L 360.3,107.5" style="fill:none;fill-rule:evenodd;stroke:#000000;stroke-width:2.0px;stroke-linecap:butt;stroke-linejoin:miter;stroke-opacity:1"/>
<path class="bond-7 atom-7 atom-8" d="M 343.9,104.4 L 358.8,104.7" style="fill:none;fill-rule:evenodd;stroke:#000000;stroke-width:2.0px;stroke-linecap:butt;stroke-linejoin:miter;stroke-opacity:1"/>
<path class="bond-8 atom-8 atom-9" d="M 360.3,107.5 L 369.7,92.1" style="fill:none;fill-rule:evenodd;stroke:#000000;stroke-width:2.0px;stroke-linecap:butt;stroke-linejoin:miter;stroke-opacity:1"/>
<path class="bond-9 atom-9 atom-10" d="M 368.9,93.4 L 376.8,93.6" style="fill:none;fill-rule:evenodd;stroke:#000000;stroke-width:2.0px;stroke-linecap:butt;stroke-linejoin:miter;stroke-opacity:1"/>
<path class="bond-9 atom-9 atom-10" d="M 376.8,93.6 L 384.7,93.8" style="fill:none;fill-rule:evenodd;stroke:#FF0000;stroke-width:2.0px;stroke-linecap:butt;stroke-linejoin:miter;stroke-opacity:1"/>
<path class="bond-9 atom-9 atom-10" d="M 368.9,90.7 L 376.8,90.9" style="fill:none;fill-rule:evenodd;stroke:#000000;stroke-width:2.0px;stroke-linecap:butt;stroke-linejoin:miter;stroke-opacity:1"/>
<path class="bond-9 atom-9 atom-10" d="M 376.8,90.9 L 384.8,91.1" style="fill:none;fill-rule:evenodd;stroke:#FF0000;stroke-width:2.0px;stroke-linecap:butt;stroke-linejoin:miter;stroke-opacity:1"/>
<path class="bond-10 atom-9 atom-11" d="M 369.7,92.1 L 361.0,76.3" style="fill:none;fill-rule:evenodd;stroke:#000000;stroke-width:2.0px;stroke-linecap:butt;stroke-linejoin:miter;stroke-opacity:1"/>
<path class="bond-11 atom-11 atom-12" d="M 361.0,76.3 L 343.0,75.9" style="fill:none;fill-rule:evenodd;stroke:#000000;stroke-width:2.0px;stroke-linecap:butt;stroke-linejoin:miter;stroke-opacity:1"/>
<path class="bond-11 atom-11 atom-12" d="M 359.4,79.0 L 344.5,78.6" style="fill:none;fill-rule:evenodd;stroke:#000000;stroke-width:2.0px;stroke-linecap:butt;stroke-linejoin:miter;stroke-opacity:1"/>
<path class="bond-12 atom-12 atom-13" d="M 343.0,75.9 L 333.7,91.2" style="fill:none;fill-rule:evenodd;stroke:#000000;stroke-width:2.0px;stroke-linecap:butt;stroke-linejoin:miter;stroke-opacity:1"/>
<path class="bond-13 atom-13 atom-14" d="M 331.7,88.2 L 332.2,88.0" style="fill:none;fill-rule:evenodd;stroke:#000000;stroke-width:1.0px;stroke-linecap:butt;stroke-linejoin:miter;stroke-opacity:1"/>
<path class="bond-13 atom-13 atom-14" d="M 329.7,85.2 L 330.7,84.7" style="fill:none;fill-rule:evenodd;stroke:#000000;stroke-width:1.0px;stroke-linecap:butt;stroke-linejoin:miter;stroke-opacity:1"/>
<path class="bond-13 atom-13 atom-14" d="M 327.8,82.2 L 329.2,81.4" style="fill:none;fill-rule:evenodd;stroke:#000000;stroke-width:1.0px;stroke-linecap:butt;stroke-linejoin:miter;stroke-opacity:1"/>
<path class="bond-13 atom-13 atom-14" d="M 325.8,79.1 L 327.7,78.1" style="fill:none;fill-rule:evenodd;stroke:#000000;stroke-width:1.0px;stroke-linecap:butt;stroke-linejoin:miter;stroke-opacity:1"/>
<path class="bond-13 atom-13 atom-14" d="M 323.9,76.1 L 326.2,74.8" style="fill:none;fill-rule:evenodd;stroke:#000000;stroke-width:1.0px;stroke-linecap:butt;stroke-linejoin:miter;stroke-opacity:1"/>
<path class="bond-14 atom-13 atom-15" d="M 333.7,91.2 L 315.7,90.8" style="fill:none;fill-rule:evenodd;stroke:#000000;stroke-width:2.0px;stroke-linecap:butt;stroke-linejoin:miter;stroke-opacity:1"/>
<path class="bond-15 atom-15 atom-16" d="M 315.7,90.8 L 308.0,91.3 L 308.0,90.0 Z" style="fill:#000000;fill-rule:evenodd;fill-opacity:1;stroke:#000000;stroke-width:0.5px;stroke-linecap:butt;stroke-linejoin:miter;stroke-opacity:1;"/>
<path class="bond-15 atom-15 atom-16" d="M 308.0,91.3 L 300.4,89.1 L 300.4,91.8 Z" style="fill:#33CCCC;fill-rule:evenodd;fill-opacity:1;stroke:#33CCCC;stroke-width:0.5px;stroke-linecap:butt;stroke-linejoin:miter;stroke-opacity:1;"/>
<path class="bond-15 atom-15 atom-16" d="M 308.0,91.3 L 308.0,90.0 L 300.4,89.1 Z" style="fill:#33CCCC;fill-rule:evenodd;fill-opacity:1;stroke:#33CCCC;stroke-width:0.5px;stroke-linecap:butt;stroke-linejoin:miter;stroke-opacity:1;"/>
<path class="bond-16 atom-15 atom-17" d="M 315.7,90.8 L 307.0,75.0" style="fill:none;fill-rule:evenodd;stroke:#000000;stroke-width:2.0px;stroke-linecap:butt;stroke-linejoin:miter;stroke-opacity:1"/>
<path class="bond-17 atom-17 atom-18" d="M 308.5,72.0 L 309.1,72.3" style="fill:none;fill-rule:evenodd;stroke:#000000;stroke-width:1.0px;stroke-linecap:butt;stroke-linejoin:miter;stroke-opacity:1"/>
<path class="bond-17 atom-17 atom-18" d="M 310.0,68.9 L 311.1,69.6" style="fill:none;fill-rule:evenodd;stroke:#000000;stroke-width:1.0px;stroke-linecap:butt;stroke-linejoin:miter;stroke-opacity:1"/>
<path class="bond-17 atom-17 atom-18" d="M 311.5,65.9 L 313.2,66.9" style="fill:none;fill-rule:evenodd;stroke:#FF0000;stroke-width:1.0px;stroke-linecap:butt;stroke-linejoin:miter;stroke-opacity:1"/>
<path class="bond-17 atom-17 atom-18" d="M 312.9,62.8 L 315.2,64.2" style="fill:none;fill-rule:evenodd;stroke:#FF0000;stroke-width:1.0px;stroke-linecap:butt;stroke-linejoin:miter;stroke-opacity:1"/>
<path class="bond-18 atom-17 atom-19" d="M 307.0,75.0 L 289.1,74.6" style="fill:none;fill-rule:evenodd;stroke:#000000;stroke-width:2.0px;stroke-linecap:butt;stroke-linejoin:miter;stroke-opacity:1"/>
<path class="bond-19 atom-19 atom-20" d="M 289.1,74.6 L 279.7,90.0" style="fill:none;fill-rule:evenodd;stroke:#000000;stroke-width:2.0px;stroke-linecap:butt;stroke-linejoin:miter;stroke-opacity:1"/>
<path class="bond-20 atom-20 atom-21" d="M 277.8,86.9 L 278.3,86.7" style="fill:none;fill-rule:evenodd;stroke:#000000;stroke-width:1.0px;stroke-linecap:butt;stroke-linejoin:miter;stroke-opacity:1"/>
<path class="bond-20 atom-20 atom-21" d="M 275.9,83.8 L 276.8,83.3" style="fill:none;fill-rule:evenodd;stroke:#000000;stroke-width:1.0px;stroke-linecap:butt;stroke-linejoin:miter;stroke-opacity:1"/>
<path class="bond-20 atom-20 atom-21" d="M 274.0,80.8 L 275.4,80.0" style="fill:none;fill-rule:evenodd;stroke:#000000;stroke-width:1.0px;stroke-linecap:butt;stroke-linejoin:miter;stroke-opacity:1"/>
<path class="bond-20 atom-20 atom-21" d="M 272.0,77.7 L 274.0,76.7" style="fill:none;fill-rule:evenodd;stroke:#000000;stroke-width:1.0px;stroke-linecap:butt;stroke-linejoin:miter;stroke-opacity:1"/>
<path class="bond-20 atom-20 atom-21" d="M 270.1,74.6 L 272.5,73.4" style="fill:none;fill-rule:evenodd;stroke:#000000;stroke-width:1.0px;stroke-linecap:butt;stroke-linejoin:miter;stroke-opacity:1"/>
<path class="bond-21 atom-20 atom-22" d="M 279.7,90.0 L 262.0,93.3" style="fill:none;fill-rule:evenodd;stroke:#000000;stroke-width:2.0px;stroke-linecap:butt;stroke-linejoin:miter;stroke-opacity:1"/>
<path class="bond-22 atom-22 atom-23" d="M 262.0,93.3 L 259.9,86.5 L 261.2,86.3 Z" style="fill:#000000;fill-rule:evenodd;fill-opacity:1;stroke:#000000;stroke-width:0.5px;stroke-linecap:butt;stroke-linejoin:miter;stroke-opacity:1;"/>
<path class="bond-22 atom-22 atom-23" d="M 259.9,86.5 L 260.5,79.2 L 257.8,79.8 Z" style="fill:#FF0000;fill-rule:evenodd;fill-opacity:1;stroke:#FF0000;stroke-width:0.5px;stroke-linecap:butt;stroke-linejoin:miter;stroke-opacity:1;"/>
<path class="bond-22 atom-22 atom-23" d="M 259.9,86.5 L 261.2,86.3 L 260.5,79.2 Z" style="fill:#FF0000;fill-rule:evenodd;fill-opacity:1;stroke:#FF0000;stroke-width:0.5px;stroke-linecap:butt;stroke-linejoin:miter;stroke-opacity:1;"/>
<path class="bond-23 atom-22 atom-24" d="M 262.0,93.3 L 244.0,92.9" style="fill:none;fill-rule:evenodd;stroke:#000000;stroke-width:2.0px;stroke-linecap:butt;stroke-linejoin:miter;stroke-opacity:1"/>
<path class="bond-24 atom-24 atom-25" d="M 243.3,91.5 L 239.3,97.9" style="fill:none;fill-rule:evenodd;stroke:#000000;stroke-width:2.0px;stroke-linecap:butt;stroke-linejoin:miter;stroke-opacity:1"/>
<path class="bond-24 atom-24 atom-25" d="M 239.3,97.9 L 235.4,104.4" style="fill:none;fill-rule:evenodd;stroke:#FF0000;stroke-width:2.0px;stroke-linecap:butt;stroke-linejoin:miter;stroke-opacity:1"/>
<path class="bond-24 atom-24 atom-25" d="M 245.6,92.9 L 241.6,99.3" style="fill:none;fill-rule:evenodd;stroke:#000000;stroke-width:2.0px;stroke-linecap:butt;stroke-linejoin:miter;stroke-opacity:1"/>
<path class="bond-24 atom-24 atom-25" d="M 241.6,99.3 L 237.7,105.8" style="fill:none;fill-rule:evenodd;stroke:#FF0000;stroke-width:2.0px;stroke-linecap:butt;stroke-linejoin:miter;stroke-opacity:1"/>
<path class="bond-25 atom-24 atom-26" d="M 244.0,92.9 L 235.4,77.1" style="fill:none;fill-rule:evenodd;stroke:#000000;stroke-width:2.0px;stroke-linecap:butt;stroke-linejoin:miter;stroke-opacity:1"/>
<path class="bond-26 atom-26 atom-27" d="M 235.4,77.1 L 227.8,76.9" style="fill:none;fill-rule:evenodd;stroke:#000000;stroke-width:2.0px;stroke-linecap:butt;stroke-linejoin:miter;stroke-opacity:1"/>
<path class="bond-26 atom-26 atom-27" d="M 227.8,76.9 L 220.3,76.7" style="fill:none;fill-rule:evenodd;stroke:#FF0000;stroke-width:2.0px;stroke-linecap:butt;stroke-linejoin:miter;stroke-opacity:1"/>
<path class="bond-27 atom-22 atom-1" d="M 262.0,93.3 L 259.7,111.1" style="fill:none;fill-rule:evenodd;stroke:#000000;stroke-width:2.0px;stroke-linecap:butt;stroke-linejoin:miter;stroke-opacity:1"/>
<path class="bond-28 atom-20 atom-3" d="M 279.7,90.0 L 288.3,105.8" style="fill:none;fill-rule:evenodd;stroke:#000000;stroke-width:2.0px;stroke-linecap:butt;stroke-linejoin:miter;stroke-opacity:1"/>
<path class="bond-29 atom-15 atom-4" d="M 315.7,90.8 L 306.3,106.2" style="fill:none;fill-rule:evenodd;stroke:#000000;stroke-width:2.0px;stroke-linecap:butt;stroke-linejoin:miter;stroke-opacity:1"/>
<path class="bond-30 atom-13 atom-7" d="M 333.7,91.2 L 342.3,107.0" style="fill:none;fill-rule:evenodd;stroke:#000000;stroke-width:2.0px;stroke-linecap:butt;stroke-linejoin:miter;stroke-opacity:1"/>
<path class="bond-31 atom-3 atom-28" d="M 288.3,105.8 L 294.9,118.1 L 292.4,119.2 Z" style="fill:#000000;fill-rule:evenodd;fill-opacity:1;stroke:#000000;stroke-width:0.5px;stroke-linecap:butt;stroke-linejoin:miter;stroke-opacity:1;"/>
<path class="bond-32 atom-4 atom-29" d="M 310.0,105.9 L 310.0,106.6" style="fill:none;fill-rule:evenodd;stroke:#000000;stroke-width:1.0px;stroke-linecap:butt;stroke-linejoin:miter;stroke-opacity:1"/>
<path class="bond-32 atom-4 atom-29" d="M 313.7,105.7 L 313.7,107.0" style="fill:none;fill-rule:evenodd;stroke:#000000;stroke-width:1.0px;stroke-linecap:butt;stroke-linejoin:miter;stroke-opacity:1"/>
<path class="bond-32 atom-4 atom-29" d="M 317.4,105.4 L 317.4,107.5" style="fill:none;fill-rule:evenodd;stroke:#000000;stroke-width:1.0px;stroke-linecap:butt;stroke-linejoin:miter;stroke-opacity:1"/>
<path class="bond-32 atom-4 atom-29" d="M 321.2,105.2 L 321.1,107.9" style="fill:none;fill-rule:evenodd;stroke:#000000;stroke-width:1.0px;stroke-linecap:butt;stroke-linejoin:miter;stroke-opacity:1"/>
<path d="M 260.5,111.5 L 259.7,111.1 L 259.8,110.2" style="fill:none;stroke:#000000;stroke-width:2.0px;stroke-linecap:butt;stroke-linejoin:miter;stroke-opacity:1;"/>
<path d="M 275.1,118.5 L 276.0,118.9 L 276.6,118.2" style="fill:none;stroke:#000000;stroke-width:2.0px;stroke-linecap:butt;stroke-linejoin:miter;stroke-opacity:1;"/>
<path d="M 314.5,121.2 L 314.9,122.0 L 315.8,122.0" style="fill:none;stroke:#000000;stroke-width:2.0px;stroke-linecap:butt;stroke-linejoin:miter;stroke-opacity:1;"/>
<path d="M 332.0,122.4 L 332.9,122.4 L 333.4,121.6" style="fill:none;stroke:#000000;stroke-width:2.0px;stroke-linecap:butt;stroke-linejoin:miter;stroke-opacity:1;"/>
<path d="M 359.4,107.5 L 360.3,107.5 L 360.8,106.7" style="fill:none;stroke:#000000;stroke-width:2.0px;stroke-linecap:butt;stroke-linejoin:miter;stroke-opacity:1;"/>
<path d="M 369.2,92.9 L 369.7,92.1 L 369.2,91.3" style="fill:none;stroke:#000000;stroke-width:2.0px;stroke-linecap:butt;stroke-linejoin:miter;stroke-opacity:1;"/>
<path d="M 361.5,77.1 L 361.0,76.3 L 360.1,76.3" style="fill:none;stroke:#000000;stroke-width:2.0px;stroke-linecap:butt;stroke-linejoin:miter;stroke-opacity:1;"/>
<path d="M 343.9,75.9 L 343.0,75.9 L 342.6,76.6" style="fill:none;stroke:#000000;stroke-width:2.0px;stroke-linecap:butt;stroke-linejoin:miter;stroke-opacity:1;"/>
<path d="M 307.5,75.8 L 307.0,75.0 L 306.1,75.0" style="fill:none;stroke:#000000;stroke-width:2.0px;stroke-linecap:butt;stroke-linejoin:miter;stroke-opacity:1;"/>
<path d="M 290.0,74.6 L 289.1,74.6 L 288.6,75.4" style="fill:none;stroke:#000000;stroke-width:2.0px;stroke-linecap:butt;stroke-linejoin:miter;stroke-opacity:1;"/>
<path d="M 244.9,92.9 L 244.0,92.9 L 243.6,92.1" style="fill:none;stroke:#000000;stroke-width:2.0px;stroke-linecap:butt;stroke-linejoin:miter;stroke-opacity:1;"/>
<path d="M 235.8,77.9 L 235.4,77.1 L 235.0,77.1" style="fill:none;stroke:#000000;stroke-width:2.0px;stroke-linecap:butt;stroke-linejoin:miter;stroke-opacity:1;"/>
<path class="atom-10" d="M 385.3 92.5 Q 385.3 91.3, 385.9 90.6 Q 386.5 90.0, 387.7 90.0 Q 388.8 90.0, 389.4 90.6 Q 390.0 91.3, 390.0 92.5 Q 390.0 93.8, 389.4 94.5 Q 388.8 95.2, 387.7 95.2 Q 386.5 95.2, 385.9 94.5 Q 385.3 93.8, 385.3 92.5 M 387.7 94.6 Q 388.4 94.6, 388.9 94.1 Q 389.3 93.6, 389.3 92.5 Q 389.3 91.5, 388.9 91.0 Q 388.4 90.5, 387.7 90.5 Q 386.9 90.5, 386.5 91.0 Q 386.0 91.5, 386.0 92.5 Q 386.0 93.6, 386.5 94.1 Q 386.9 94.6, 387.7 94.6 " fill="#FF0000"/>
<path class="atom-16" d="M 296.2 87.8 L 299.2 87.8 L 299.2 88.4 L 296.8 88.4 L 296.8 90.0 L 298.9 90.0 L 298.9 90.6 L 296.8 90.6 L 296.8 92.9 L 296.2 92.9 L 296.2 87.8 " fill="#33CCCC"/>
<path class="atom-18" d="M 314.1 59.7 Q 314.1 58.4, 314.7 57.8 Q 315.3 57.1, 316.4 57.1 Q 317.5 57.1, 318.2 57.8 Q 318.8 58.4, 318.8 59.7 Q 318.8 60.9, 318.1 61.6 Q 317.5 62.3, 316.4 62.3 Q 315.3 62.3, 314.7 61.6 Q 314.1 60.9, 314.1 59.7 M 316.4 61.7 Q 317.2 61.7, 317.6 61.2 Q 318.0 60.7, 318.0 59.7 Q 318.0 58.7, 317.6 58.2 Q 317.2 57.6, 316.4 57.6 Q 315.6 57.6, 315.2 58.2 Q 314.8 58.7, 314.8 59.7 Q 314.8 60.7, 315.2 61.2 Q 315.6 61.7, 316.4 61.7 " fill="#FF0000"/>
<path class="atom-18" d="M 319.6 57.1 L 320.2 57.1 L 320.2 59.3 L 322.8 59.3 L 322.8 57.1 L 323.5 57.1 L 323.5 62.2 L 322.8 62.2 L 322.8 59.9 L 320.2 59.9 L 320.2 62.2 L 319.6 62.2 L 319.6 57.1 " fill="#FF0000"/>
<path class="atom-23" d="M 256.0 75.7 Q 256.0 74.4, 256.6 73.8 Q 257.2 73.1, 258.4 73.1 Q 259.5 73.1, 260.1 73.8 Q 260.7 74.4, 260.7 75.7 Q 260.7 76.9, 260.1 77.6 Q 259.5 78.3, 258.4 78.3 Q 257.2 78.3, 256.6 77.6 Q 256.0 76.9, 256.0 75.7 M 258.4 77.7 Q 259.1 77.7, 259.6 77.2 Q 260.0 76.7, 260.0 75.7 Q 260.0 74.7, 259.6 74.2 Q 259.1 73.7, 258.4 73.7 Q 257.6 73.7, 257.2 74.2 Q 256.7 74.7, 256.7 75.7 Q 256.7 76.7, 257.2 77.2 Q 257.6 77.7, 258.4 77.7 " fill="#FF0000"/>
<path class="atom-23" d="M 261.5 73.1 L 262.2 73.1 L 262.2 75.3 L 264.8 75.3 L 264.8 73.1 L 265.5 73.1 L 265.5 78.2 L 264.8 78.2 L 264.8 75.9 L 262.2 75.9 L 262.2 78.2 L 261.5 78.2 L 261.5 73.1 " fill="#FF0000"/>
<path class="atom-25" d="M 232.3 108.2 Q 232.3 107.0, 232.9 106.3 Q 233.5 105.7, 234.6 105.7 Q 235.8 105.7, 236.4 106.3 Q 237.0 107.0, 237.0 108.2 Q 237.0 109.5, 236.4 110.2 Q 235.7 110.9, 234.6 110.9 Q 233.5 110.9, 232.9 110.2 Q 232.3 109.5, 232.3 108.2 M 234.6 110.3 Q 235.4 110.3, 235.8 109.8 Q 236.3 109.3, 236.3 108.2 Q 236.3 107.2, 235.8 106.7 Q 235.4 106.2, 234.6 106.2 Q 233.9 106.2, 233.4 106.7 Q 233.0 107.2, 233.0 108.2 Q 233.0 109.3, 233.4 109.8 Q 233.9 110.3, 234.6 110.3 " fill="#FF0000"/>
<path class="atom-27" d="M 210.0 74.1 L 210.7 74.1 L 210.7 76.3 L 213.3 76.3 L 213.3 74.1 L 214.0 74.1 L 214.0 79.2 L 213.3 79.2 L 213.3 76.9 L 210.7 76.9 L 210.7 79.2 L 210.0 79.2 L 210.0 74.1 " fill="#FF0000"/>
<path class="atom-27" d="M 215.0 76.7 Q 215.0 75.4, 215.6 74.7 Q 216.2 74.1, 217.4 74.1 Q 218.5 74.1, 219.1 74.7 Q 219.7 75.4, 219.7 76.7 Q 219.7 77.9, 219.1 78.6 Q 218.5 79.3, 217.4 79.3 Q 216.3 79.3, 215.6 78.6 Q 215.0 77.9, 215.0 76.7 M 217.4 78.7 Q 218.2 78.7, 218.6 78.2 Q 219.0 77.7, 219.0 76.7 Q 219.0 75.7, 218.6 75.1 Q 218.2 74.6, 217.4 74.6 Q 216.6 74.6, 216.2 75.1 Q 215.8 75.6, 215.8 76.7 Q 215.8 77.7, 216.2 78.2 Q 216.6 78.7, 217.4 78.7 " fill="#FF0000"/>
<path class="atom-28" d="M 293.2 119.8 L 293.9 119.8 L 293.9 122.0 L 296.5 122.0 L 296.5 119.8 L 297.2 119.8 L 297.2 124.9 L 296.5 124.9 L 296.5 122.6 L 293.9 122.6 L 293.9 124.9 L 293.2 124.9 L 293.2 119.8 " fill="#000000"/>
<path class="atom-29" d="M 322.3 104.1 L 323.0 104.1 L 323.0 106.2 L 325.6 106.2 L 325.6 104.1 L 326.3 104.1 L 326.3 109.2 L 325.6 109.2 L 325.6 106.8 L 323.0 106.8 L 323.0 109.2 L 322.3 109.2 L 322.3 104.1 " fill="#000000"/>
<path class="legend" d="M 225.6 184.2 Q 225.6 181.4, 226.9 179.9 Q 228.2 178.4, 230.7 178.4 Q 233.1 178.4, 234.3 180.0 L 233.3 180.9 Q 232.3 179.7, 230.7 179.7 Q 229.0 179.7, 228.1 180.9 Q 227.2 182.0, 227.2 184.2 Q 227.2 186.4, 228.1 187.6 Q 229.1 188.7, 230.9 188.7 Q 232.2 188.7, 233.6 188.0 L 234.1 189.2 Q 233.5 189.6, 232.6 189.8 Q 231.7 190.0, 230.7 190.0 Q 228.2 190.0, 226.9 188.5 Q 225.6 187.0, 225.6 184.2 " fill="#000000"/>
<path class="legend" d="M 241.2 183.9 Q 242.3 184.2, 242.8 184.9 Q 243.4 185.5, 243.4 186.5 Q 243.4 188.1, 242.4 189.0 Q 241.4 189.9, 239.5 189.9 L 235.7 189.9 L 235.7 178.5 L 239.0 178.5 Q 241.0 178.5, 241.9 179.3 Q 242.9 180.1, 242.9 181.5 Q 242.9 183.2, 241.2 183.9 M 237.2 179.8 L 237.2 183.4 L 239.0 183.4 Q 240.1 183.4, 240.7 182.9 Q 241.3 182.4, 241.3 181.5 Q 241.3 179.8, 239.0 179.8 L 237.2 179.8 M 239.5 188.6 Q 240.6 188.6, 241.2 188.0 Q 241.8 187.5, 241.8 186.5 Q 241.8 185.6, 241.1 185.1 Q 240.5 184.6, 239.3 184.6 L 237.2 184.6 L 237.2 188.6 L 239.5 188.6 " fill="#000000"/>
<path class="legend" d="M 251.0 189.9 L 248.2 185.2 L 248.2 185.2 L 246.4 185.2 L 246.4 189.9 L 244.9 189.9 L 244.9 178.5 L 248.2 178.5 Q 250.1 178.5, 251.1 179.4 Q 252.1 180.3, 252.1 181.9 Q 252.1 183.1, 251.5 183.9 Q 250.9 184.7, 249.8 185.0 L 252.6 189.9 L 251.0 189.9 M 246.4 183.9 L 248.2 183.9 Q 249.3 183.9, 249.9 183.4 Q 250.5 182.9, 250.5 181.9 Q 250.5 180.8, 249.9 180.3 Q 249.3 179.8, 248.2 179.8 L 246.4 179.8 L 246.4 183.9 " fill="#000000"/>
<path class="legend" d="M 253.8 184.1 L 259.6 184.1 L 259.6 185.4 L 253.8 185.4 L 253.8 184.1 " fill="#000000"/>
<path class="legend" d="M 265.3 190.0 Q 263.2 190.0, 262.2 188.4 Q 261.2 186.9, 261.2 184.2 Q 261.2 181.4, 262.2 179.9 Q 263.2 178.4, 265.3 178.4 Q 267.4 178.4, 268.4 179.9 Q 269.5 181.4, 269.5 184.2 Q 269.5 186.9, 268.4 188.4 Q 267.4 190.0, 265.3 190.0 M 265.3 188.7 Q 266.5 188.7, 267.2 187.6 Q 267.9 186.4, 267.9 184.2 Q 267.9 182.0, 267.2 180.8 Q 266.5 179.7, 265.3 179.7 Q 264.1 179.7, 263.4 180.8 Q 262.8 182.0, 262.8 184.2 Q 262.8 186.4, 263.4 187.6 Q 264.1 188.7, 265.3 188.7 " fill="#000000"/>
<path class="legend" d="M 275.3 182.8 Q 276.3 182.8, 277.1 183.2 Q 278.0 183.6, 278.4 184.4 Q 278.9 185.2, 278.9 186.3 Q 278.9 187.4, 278.3 188.3 Q 277.8 189.1, 276.8 189.6 Q 275.9 190.0, 274.8 190.0 Q 273.8 190.0, 272.8 189.6 Q 271.9 189.2, 271.2 188.5 L 272.2 187.5 Q 272.7 188.1, 273.4 188.4 Q 274.2 188.7, 274.9 188.7 Q 275.9 188.7, 276.6 188.1 Q 277.3 187.4, 277.3 186.3 Q 277.3 185.1, 276.6 184.5 Q 275.9 184.0, 274.8 184.0 Q 273.8 184.0, 272.7 184.4 L 271.8 184.0 L 272.4 178.5 L 278.2 178.5 L 278.0 179.8 L 273.7 179.8 L 273.3 183.2 Q 274.3 182.8, 275.3 182.8 " fill="#000000"/>
<path class="legend" d="M 284.5 190.0 Q 282.5 190.0, 281.4 188.4 Q 280.4 186.9, 280.4 184.2 Q 280.4 181.4, 281.4 179.9 Q 282.4 178.4, 284.5 178.4 Q 286.6 178.4, 287.7 179.9 Q 288.7 181.4, 288.7 184.2 Q 288.7 186.9, 287.6 188.4 Q 286.6 190.0, 284.5 190.0 M 284.5 188.7 Q 285.8 188.7, 286.4 187.6 Q 287.1 186.4, 287.1 184.2 Q 287.1 182.0, 286.4 180.8 Q 285.8 179.7, 284.5 179.7 Q 283.3 179.7, 282.6 180.8 Q 282.0 182.0, 282.0 184.2 Q 282.0 186.4, 282.6 187.6 Q 283.3 188.7, 284.5 188.7 " fill="#000000"/>
<path class="legend" d="M 290.5 184.1 L 296.3 184.1 L 296.3 185.4 L 290.5 185.4 L 290.5 184.1 " fill="#000000"/>
<path class="legend" d="M 297.9 180.7 Q 298.3 179.6, 299.3 179.0 Q 300.3 178.4, 301.7 178.4 Q 303.4 178.4, 304.3 179.3 Q 305.3 180.3, 305.3 181.9 Q 305.3 183.6, 304.0 185.2 Q 302.8 186.7, 300.3 188.6 L 305.5 188.6 L 305.5 189.9 L 297.9 189.9 L 297.9 188.8 Q 300.0 187.3, 301.2 186.2 Q 302.5 185.0, 303.1 184.0 Q 303.7 183.0, 303.7 182.0 Q 303.7 180.9, 303.2 180.3 Q 302.6 179.7, 301.7 179.7 Q 300.8 179.7, 300.1 180.0 Q 299.5 180.4, 299.1 181.2 L 297.9 180.7 " fill="#000000"/>
<path class="legend" d="M 311.6 182.8 Q 312.6 182.8, 313.4 183.2 Q 314.2 183.6, 314.6 184.4 Q 315.0 185.2, 315.0 186.2 Q 315.0 187.3, 314.5 188.2 Q 314.1 189.0, 313.2 189.5 Q 312.3 190.0, 311.2 190.0 Q 309.2 190.0, 308.2 188.6 Q 307.2 187.2, 307.2 184.5 Q 307.2 181.5, 308.4 180.0 Q 309.7 178.4, 312.1 178.4 Q 312.8 178.4, 313.4 178.6 Q 314.0 178.7, 314.6 179.1 L 314.0 180.1 Q 313.1 179.7, 312.1 179.7 Q 310.5 179.7, 309.7 180.7 Q 308.9 181.7, 308.8 183.9 Q 309.4 183.3, 310.1 183.1 Q 310.8 182.8, 311.6 182.8 M 311.2 188.7 Q 311.9 188.7, 312.3 188.4 Q 312.9 188.0, 313.1 187.5 Q 313.4 186.9, 313.4 186.2 Q 313.4 185.2, 312.9 184.6 Q 312.3 184.1, 311.3 184.1 Q 310.6 184.1, 309.9 184.4 Q 309.3 184.6, 308.8 185.1 Q 308.9 187.0, 309.5 187.8 Q 310.0 188.7, 311.2 188.7 " fill="#000000"/>
<path class="legend" d="M 320.8 182.8 Q 321.8 182.8, 322.6 183.2 Q 323.4 183.6, 323.8 184.4 Q 324.3 185.2, 324.3 186.3 Q 324.3 187.4, 323.7 188.3 Q 323.2 189.1, 322.2 189.6 Q 321.3 190.0, 320.3 190.0 Q 319.2 190.0, 318.3 189.6 Q 317.3 189.2, 316.6 188.5 L 317.6 187.5 Q 318.1 188.1, 318.9 188.4 Q 319.6 188.7, 320.3 188.7 Q 321.3 188.7, 322.0 188.1 Q 322.7 187.4, 322.7 186.3 Q 322.7 185.1, 322.0 184.5 Q 321.3 184.0, 320.2 184.0 Q 319.2 184.0, 318.1 184.4 L 317.2 184.0 L 317.8 178.5 L 323.6 178.5 L 323.4 179.8 L 319.1 179.8 L 318.8 183.2 Q 319.8 182.8, 320.8 182.8 " fill="#000000"/>
<path class="legend" d="M 325.8 184.1 L 331.7 184.1 L 331.7 185.4 L 325.8 185.4 L 325.8 184.1 " fill="#000000"/>
<path class="legend" d="M 333.3 180.7 Q 333.7 179.6, 334.7 179.0 Q 335.7 178.4, 337.0 178.4 Q 338.7 178.4, 339.7 179.3 Q 340.7 180.3, 340.7 181.9 Q 340.7 183.6, 339.4 185.2 Q 338.2 186.7, 335.6 188.6 L 340.9 188.6 L 340.9 189.9 L 333.2 189.9 L 333.2 188.8 Q 335.3 187.3, 336.6 186.2 Q 337.8 185.0, 338.5 184.0 Q 339.1 183.0, 339.1 182.0 Q 339.1 180.9, 338.5 180.3 Q 338.0 179.7, 337.0 179.7 Q 336.1 179.7, 335.5 180.0 Q 334.9 180.4, 334.5 181.2 L 333.3 180.7 " fill="#000000"/>
<path class="legend" d="M 343.2 188.6 L 345.6 188.6 L 345.6 180.1 L 342.9 181.0 L 342.5 180.0 L 346.0 178.5 L 347.2 178.7 L 347.2 188.6 L 349.4 188.6 L 349.4 189.9 L 343.2 189.9 L 343.2 188.6 " fill="#000000"/>
<path class="legend" d="M 356.7 179.8 L 350.8 179.8 L 350.8 178.5 L 358.3 178.5 L 358.3 179.7 L 353.7 189.9 L 352.2 189.9 L 356.7 179.8 " fill="#000000"/>
<path class="legend" d="M 359.5 184.1 L 365.4 184.1 L 365.4 185.4 L 359.5 185.4 L 359.5 184.1 " fill="#000000"/>
<path class="legend" d="M 372.8 179.8 L 366.9 179.8 L 366.9 178.5 L 374.4 178.5 L 374.4 179.7 L 369.8 189.9 L 368.3 189.9 L 372.8 179.8 " fill="#000000"/>
</svg>