<svg xmlns="http://www.w3.org/2000/svg" xmlns:rdkit="http://www.rdkit.org/xml" xmlns:xlink="http://www.w3.org/1999/xlink" version="1.1" baseProfile="full" xml:space="preserve" width="600px" height="200px" viewBox="0 0 600 200">
<!-- END OF HEADER -->
<rect style="opacity:1.0;fill:#FFFFFF;stroke:none" width="600.0" height="200.0" x="0.0" y="0.0"> </rect>
<path class="bond-0 atom-1 atom-0" d="M 83.7,60.0 L 88.2,42.3 L 90.7,43.2 Z" style="fill:#000000;fill-rule:evenodd;fill-opacity:1;stroke:#000000;stroke-width:0.5px;stroke-linecap:butt;stroke-linejoin:miter;stroke-opacity:1;"/>
<path class="bond-1 atom-1 atom-2" d="M 83.7,60.0 L 95.8,73.5" style="fill:none;fill-rule:evenodd;stroke:#000000;stroke-width:2.0px;stroke-linecap:butt;stroke-linejoin:miter;stroke-opacity:1"/>
<path class="bond-2 atom-2 atom-3" d="M 99.4,73.3 L 99.3,72.4" style="fill:none;fill-rule:evenodd;stroke:#000000;stroke-width:1.0px;stroke-linecap:butt;stroke-linejoin:miter;stroke-opacity:1"/>
<path class="bond-2 atom-2 atom-3" d="M 103.1,73.0 L 102.7,71.2" style="fill:none;fill-rule:evenodd;stroke:#000000;stroke-width:1.0px;stroke-linecap:butt;stroke-linejoin:miter;stroke-opacity:1"/>
<path class="bond-2 atom-2 atom-3" d="M 106.7,72.7 L 106.2,70.1" style="fill:none;fill-rule:evenodd;stroke:#FF0000;stroke-width:1.0px;stroke-linecap:butt;stroke-linejoin:miter;stroke-opacity:1"/>
<path class="bond-3 atom-3 atom-4" d="M 116.5,73.2 L 121.1,78.3" style="fill:none;fill-rule:evenodd;stroke:#FF0000;stroke-width:2.0px;stroke-linecap:butt;stroke-linejoin:miter;stroke-opacity:1"/>
<path class="bond-3 atom-3 atom-4" d="M 121.1,78.3 L 125.6,83.5" style="fill:none;fill-rule:evenodd;stroke:#000000;stroke-width:2.0px;stroke-linecap:butt;stroke-linejoin:miter;stroke-opacity:1"/>
<path class="bond-4 atom-4 atom-5" d="M 124.6,82.3 L 122.2,89.7" style="fill:none;fill-rule:evenodd;stroke:#000000;stroke-width:2.0px;stroke-linecap:butt;stroke-linejoin:miter;stroke-opacity:1"/>
<path class="bond-4 atom-4 atom-5" d="M 122.2,89.7 L 119.7,97.1" style="fill:none;fill-rule:evenodd;stroke:#FF0000;stroke-width:2.0px;stroke-linecap:butt;stroke-linejoin:miter;stroke-opacity:1"/>
<path class="bond-4 atom-4 atom-5" d="M 127.1,83.2 L 124.7,90.6" style="fill:none;fill-rule:evenodd;stroke:#000000;stroke-width:2.0px;stroke-linecap:butt;stroke-linejoin:miter;stroke-opacity:1"/>
<path class="bond-4 atom-4 atom-5" d="M 124.7,90.6 L 122.2,98.0" style="fill:none;fill-rule:evenodd;stroke:#FF0000;stroke-width:2.0px;stroke-linecap:butt;stroke-linejoin:miter;stroke-opacity:1"/>
<path class="bond-5 atom-4 atom-6" d="M 125.6,83.5 L 143.4,79.8" style="fill:none;fill-rule:evenodd;stroke:#000000;stroke-width:2.0px;stroke-linecap:butt;stroke-linejoin:miter;stroke-opacity:1"/>
<path class="bond-6 atom-6 atom-7" d="M 143.4,79.8 L 155.5,93.4" style="fill:none;fill-rule:evenodd;stroke:#000000;stroke-width:2.0px;stroke-linecap:butt;stroke-linejoin:miter;stroke-opacity:1"/>
<path class="bond-7 atom-7 atom-8" d="M 155.5,93.4 L 173.3,89.8" style="fill:none;fill-rule:evenodd;stroke:#000000;stroke-width:2.0px;stroke-linecap:butt;stroke-linejoin:miter;stroke-opacity:1"/>
<path class="bond-8 atom-8 atom-9" d="M 171.8,90.1 L 176.6,95.6" style="fill:none;fill-rule:evenodd;stroke:#000000;stroke-width:2.0px;stroke-linecap:butt;stroke-linejoin:miter;stroke-opacity:1"/>
<path class="bond-8 atom-8 atom-9" d="M 176.6,95.6 L 181.5,101.1" style="fill:none;fill-rule:evenodd;stroke:#FF0000;stroke-width:2.0px;stroke-linecap:butt;stroke-linejoin:miter;stroke-opacity:1"/>
<path class="bond-8 atom-8 atom-9" d="M 173.8,88.3 L 178.6,93.8" style="fill:none;fill-rule:evenodd;stroke:#000000;stroke-width:2.0px;stroke-linecap:butt;stroke-linejoin:miter;stroke-opacity:1"/>
<path class="bond-8 atom-8 atom-9" d="M 178.6,93.8 L 183.5,99.3" style="fill:none;fill-rule:evenodd;stroke:#FF0000;stroke-width:2.0px;stroke-linecap:butt;stroke-linejoin:miter;stroke-opacity:1"/>
<path class="bond-9 atom-8 atom-10" d="M 173.3,89.8 L 175.6,82.8" style="fill:none;fill-rule:evenodd;stroke:#000000;stroke-width:2.0px;stroke-linecap:butt;stroke-linejoin:miter;stroke-opacity:1"/>
<path class="bond-9 atom-8 atom-10" d="M 175.6,82.8 L 177.9,75.8" style="fill:none;fill-rule:evenodd;stroke:#FF0000;stroke-width:2.0px;stroke-linecap:butt;stroke-linejoin:miter;stroke-opacity:1"/>
<path class="bond-10 atom-2 atom-11" d="M 95.8,73.5 L 93.5,80.6" style="fill:none;fill-rule:evenodd;stroke:#000000;stroke-width:2.0px;stroke-linecap:butt;stroke-linejoin:miter;stroke-opacity:1"/>
<path class="bond-10 atom-2 atom-11" d="M 93.5,80.6 L 91.1,87.6" style="fill:none;fill-rule:evenodd;stroke:#FF0000;stroke-width:2.0px;stroke-linecap:butt;stroke-linejoin:miter;stroke-opacity:1"/>
<path class="bond-11 atom-11 atom-12" d="M 87.1,91.4 L 79.7,92.9" style="fill:none;fill-rule:evenodd;stroke:#FF0000;stroke-width:2.0px;stroke-linecap:butt;stroke-linejoin:miter;stroke-opacity:1"/>
<path class="bond-11 atom-11 atom-12" d="M 79.7,92.9 L 72.3,94.4" style="fill:none;fill-rule:evenodd;stroke:#000000;stroke-width:2.0px;stroke-linecap:butt;stroke-linejoin:miter;stroke-opacity:1"/>
<path class="bond-12 atom-12 atom-13" d="M 72.3,94.4 L 66.7,98.9" style="fill:none;fill-rule:evenodd;stroke:#000000;stroke-width:2.0px;stroke-linecap:butt;stroke-linejoin:miter;stroke-opacity:1"/>
<path class="bond-12 atom-12 atom-13" d="M 66.7,98.9 L 61.1,103.4" style="fill:none;fill-rule:evenodd;stroke:#FF0000;stroke-width:2.0px;stroke-linecap:butt;stroke-linejoin:miter;stroke-opacity:1"/>
<path class="bond-13 atom-13 atom-14" d="M 58.4,109.1 L 58.8,115.3" style="fill:none;fill-rule:evenodd;stroke:#FF0000;stroke-width:2.0px;stroke-linecap:butt;stroke-linejoin:miter;stroke-opacity:1"/>
<path class="bond-13 atom-13 atom-14" d="M 58.8,115.3 L 59.3,121.6" style="fill:none;fill-rule:evenodd;stroke:#000000;stroke-width:2.0px;stroke-linecap:butt;stroke-linejoin:miter;stroke-opacity:1"/>
<path class="bond-14 atom-14 atom-15" d="M 59.3,121.6 L 64.2,139.2 L 61.6,139.7 Z" style="fill:#000000;fill-rule:evenodd;fill-opacity:1;stroke:#000000;stroke-width:0.5px;stroke-linecap:butt;stroke-linejoin:miter;stroke-opacity:1;"/>
<path class="bond-15 atom-14 atom-16" d="M 59.3,121.6 L 41.7,117.2" style="fill:none;fill-rule:evenodd;stroke:#000000;stroke-width:2.0px;stroke-linecap:butt;stroke-linejoin:miter;stroke-opacity:1"/>
<path class="bond-16 atom-16 atom-17" d="M 41.7,117.2 L 34.2,100.7" style="fill:none;fill-rule:evenodd;stroke:#000000;stroke-width:2.0px;stroke-linecap:butt;stroke-linejoin:miter;stroke-opacity:1"/>
<path class="bond-17 atom-17 atom-18" d="M 34.2,100.7 L 42.4,84.5" style="fill:none;fill-rule:evenodd;stroke:#000000;stroke-width:2.0px;stroke-linecap:butt;stroke-linejoin:miter;stroke-opacity:1"/>
<path class="bond-18 atom-18 atom-19" d="M 42.4,84.5 L 30.4,70.9" style="fill:none;fill-rule:evenodd;stroke:#000000;stroke-width:2.0px;stroke-linecap:butt;stroke-linejoin:miter;stroke-opacity:1"/>
<path class="bond-19 atom-19 atom-20" d="M 26.9,71.9 L 26.8,71.4" style="fill:none;fill-rule:evenodd;stroke:#000000;stroke-width:1.0px;stroke-linecap:butt;stroke-linejoin:miter;stroke-opacity:1"/>
<path class="bond-19 atom-19 atom-20" d="M 23.4,72.9 L 23.2,71.8" style="fill:none;fill-rule:evenodd;stroke:#000000;stroke-width:1.0px;stroke-linecap:butt;stroke-linejoin:miter;stroke-opacity:1"/>
<path class="bond-19 atom-19 atom-20" d="M 19.9,73.9 L 19.5,72.3" style="fill:none;fill-rule:evenodd;stroke:#000000;stroke-width:1.0px;stroke-linecap:butt;stroke-linejoin:miter;stroke-opacity:1"/>
<path class="bond-19 atom-19 atom-20" d="M 16.4,74.8 L 15.9,72.8" style="fill:none;fill-rule:evenodd;stroke:#000000;stroke-width:1.0px;stroke-linecap:butt;stroke-linejoin:miter;stroke-opacity:1"/>
<path class="bond-19 atom-19 atom-20" d="M 12.8,75.8 L 12.3,73.2" style="fill:none;fill-rule:evenodd;stroke:#000000;stroke-width:1.0px;stroke-linecap:butt;stroke-linejoin:miter;stroke-opacity:1"/>
<path class="bond-20 atom-19 atom-21" d="M 30.4,70.9 L 36.1,53.7" style="fill:none;fill-rule:evenodd;stroke:#000000;stroke-width:2.0px;stroke-linecap:butt;stroke-linejoin:miter;stroke-opacity:1"/>
<path class="bond-21 atom-21 atom-22" d="M 36.1,53.7 L 53.9,50.0" style="fill:none;fill-rule:evenodd;stroke:#000000;stroke-width:2.0px;stroke-linecap:butt;stroke-linejoin:miter;stroke-opacity:1"/>
<path class="bond-22 atom-22 atom-23" d="M 53.9,50.0 L 66.0,63.6" style="fill:none;fill-rule:evenodd;stroke:#000000;stroke-width:2.0px;stroke-linecap:butt;stroke-linejoin:miter;stroke-opacity:1"/>
<path class="bond-23 atom-23 atom-24" d="M 66.0,63.6 L 60.2,80.8" style="fill:none;fill-rule:evenodd;stroke:#000000;stroke-width:2.0px;stroke-linecap:butt;stroke-linejoin:miter;stroke-opacity:1"/>
<path class="bond-24 atom-24 atom-25" d="M 59.7,84.6 L 60.6,84.6" style="fill:none;fill-rule:evenodd;stroke:#000000;stroke-width:1.0px;stroke-linecap:butt;stroke-linejoin:miter;stroke-opacity:1"/>
<path class="bond-24 atom-24 atom-25" d="M 59.2,88.4 L 60.9,88.4" style="fill:none;fill-rule:evenodd;stroke:#000000;stroke-width:1.0px;stroke-linecap:butt;stroke-linejoin:miter;stroke-opacity:1"/>
<path class="bond-24 atom-24 atom-25" d="M 58.6,92.1 L 61.3,92.2" style="fill:none;fill-rule:evenodd;stroke:#FF0000;stroke-width:1.0px;stroke-linecap:butt;stroke-linejoin:miter;stroke-opacity:1"/>
<path class="bond-25 atom-25 atom-26" d="M 59.8,99.7 L 59.7,102.7" style="fill:none;fill-rule:evenodd;stroke:#FF0000;stroke-width:2.0px;stroke-linecap:butt;stroke-linejoin:miter;stroke-opacity:1"/>
<path class="bond-26 atom-23 atom-1" d="M 66.0,63.6 L 83.7,60.0" style="fill:none;fill-rule:evenodd;stroke:#000000;stroke-width:2.0px;stroke-linecap:butt;stroke-linejoin:miter;stroke-opacity:1"/>
<path class="bond-27 atom-24 atom-12" d="M 60.2,80.8 L 72.3,94.4" style="fill:none;fill-rule:evenodd;stroke:#000000;stroke-width:2.0px;stroke-linecap:butt;stroke-linejoin:miter;stroke-opacity:1"/>
<path class="bond-28 atom-26 atom-14" d="M 59.6,106.0 L 59.5,113.8" style="fill:none;fill-rule:evenodd;stroke:#FF0000;stroke-width:2.0px;stroke-linecap:butt;stroke-linejoin:miter;stroke-opacity:1"/>
<path class="bond-28 atom-26 atom-14" d="M 59.5,113.8 L 59.3,121.6" style="fill:none;fill-rule:evenodd;stroke:#000000;stroke-width:2.0px;stroke-linecap:butt;stroke-linejoin:miter;stroke-opacity:1"/>
<path class="bond-29 atom-24 atom-18" d="M 60.2,80.8 L 42.4,84.5" style="fill:none;fill-rule:evenodd;stroke:#000000;stroke-width:2.0px;stroke-linecap:butt;stroke-linejoin:miter;stroke-opacity:1"/>
<path class="bond-30 atom-12 atom-27" d="M 72.3,94.4 L 69.0,108.3 L 66.5,107.5 Z" style="fill:#000000;fill-rule:evenodd;fill-opacity:1;stroke:#000000;stroke-width:0.5px;stroke-linecap:butt;stroke-linejoin:miter;stroke-opacity:1;"/>
<path class="bond-31 atom-18 atom-28" d="M 38.8,85.3 L 38.7,84.6" style="fill:none;fill-rule:evenodd;stroke:#000000;stroke-width:1.0px;stroke-linecap:butt;stroke-linejoin:miter;stroke-opacity:1"/>
<path class="bond-31 atom-18 atom-28" d="M 35.1,86.1 L 34.9,84.8" style="fill:none;fill-rule:evenodd;stroke:#000000;stroke-width:1.0px;stroke-linecap:butt;stroke-linejoin:miter;stroke-opacity:1"/>
<path class="bond-31 atom-18 atom-28" d="M 31.4,86.9 L 31.2,84.9" style="fill:none;fill-rule:evenodd;stroke:#000000;stroke-width:1.0px;stroke-linecap:butt;stroke-linejoin:miter;stroke-opacity:1"/>
<path class="bond-31 atom-18 atom-28" d="M 27.8,87.7 L 27.4,85.1" style="fill:none;fill-rule:evenodd;stroke:#000000;stroke-width:1.0px;stroke-linecap:butt;stroke-linejoin:miter;stroke-opacity:1"/>
<path class="bond-32 atom-23 atom-29" d="M 66.8,60.1 L 67.4,60.3" style="fill:none;fill-rule:evenodd;stroke:#000000;stroke-width:1.0px;stroke-linecap:butt;stroke-linejoin:miter;stroke-opacity:1"/>
<path class="bond-32 atom-23 atom-29" d="M 67.6,56.6 L 68.8,57.1" style="fill:none;fill-rule:evenodd;stroke:#000000;stroke-width:1.0px;stroke-linecap:butt;stroke-linejoin:miter;stroke-opacity:1"/>
<path class="bond-32 atom-23 atom-29" d="M 68.4,53.2 L 70.3,53.8" style="fill:none;fill-rule:evenodd;stroke:#000000;stroke-width:1.0px;stroke-linecap:butt;stroke-linejoin:miter;stroke-opacity:1"/>
<path class="bond-32 atom-23 atom-29" d="M 69.2,49.7 L 71.7,50.5" style="fill:none;fill-rule:evenodd;stroke:#000000;stroke-width:1.0px;stroke-linecap:butt;stroke-linejoin:miter;stroke-opacity:1"/>
<path d="M 84.4,60.6 L 83.7,60.0 L 82.9,60.1" style="fill:none;stroke:#000000;stroke-width:2.0px;stroke-linecap:butt;stroke-linejoin:miter;stroke-opacity:1;"/>
<path d="M 95.2,72.9 L 95.8,73.5 L 95.7,73.9" style="fill:none;stroke:#000000;stroke-width:2.0px;stroke-linecap:butt;stroke-linejoin:miter;stroke-opacity:1;"/>
<path d="M 125.4,83.2 L 125.6,83.5 L 126.5,83.3" style="fill:none;stroke:#000000;stroke-width:2.0px;stroke-linecap:butt;stroke-linejoin:miter;stroke-opacity:1;"/>
<path d="M 142.5,80.0 L 143.4,79.8 L 144.0,80.5" style="fill:none;stroke:#000000;stroke-width:2.0px;stroke-linecap:butt;stroke-linejoin:miter;stroke-opacity:1;"/>
<path d="M 154.9,92.8 L 155.5,93.4 L 156.4,93.3" style="fill:none;stroke:#000000;stroke-width:2.0px;stroke-linecap:butt;stroke-linejoin:miter;stroke-opacity:1;"/>
<path d="M 172.4,90.0 L 173.3,89.8 L 173.4,89.4" style="fill:none;stroke:#000000;stroke-width:2.0px;stroke-linecap:butt;stroke-linejoin:miter;stroke-opacity:1;"/>
<path d="M 42.6,117.4 L 41.7,117.2 L 41.3,116.4" style="fill:none;stroke:#000000;stroke-width:2.0px;stroke-linecap:butt;stroke-linejoin:miter;stroke-opacity:1;"/>
<path d="M 34.6,101.5 L 34.2,100.7 L 34.6,99.8" style="fill:none;stroke:#000000;stroke-width:2.0px;stroke-linecap:butt;stroke-linejoin:miter;stroke-opacity:1;"/>
<path d="M 31.0,71.6 L 30.4,70.9 L 30.7,70.0" style="fill:none;stroke:#000000;stroke-width:2.0px;stroke-linecap:butt;stroke-linejoin:miter;stroke-opacity:1;"/>
<path d="M 35.8,54.5 L 36.1,53.7 L 37.0,53.5" style="fill:none;stroke:#000000;stroke-width:2.0px;stroke-linecap:butt;stroke-linejoin:miter;stroke-opacity:1;"/>
<path d="M 53.0,50.2 L 53.9,50.0 L 54.5,50.7" style="fill:none;stroke:#000000;stroke-width:2.0px;stroke-linecap:butt;stroke-linejoin:miter;stroke-opacity:1;"/>
<path class="atom-3" d="M 111.2 69.9 Q 111.2 68.7, 111.8 68.0 Q 112.4 67.3, 113.6 67.3 Q 114.7 67.3, 115.3 68.0 Q 116.0 68.7, 116.0 69.9 Q 116.0 71.2, 115.3 71.9 Q 114.7 72.6, 113.6 72.6 Q 112.5 72.6, 111.8 71.9 Q 111.2 71.2, 111.2 69.9 M 113.6 72.0 Q 114.4 72.0, 114.8 71.5 Q 115.2 71.0, 115.2 69.9 Q 115.2 68.9, 114.8 68.4 Q 114.4 67.9, 113.6 67.9 Q 112.8 67.9, 112.4 68.4 Q 112.0 68.9, 112.0 69.9 Q 112.0 71.0, 112.4 71.5 Q 112.8 72.0, 113.6 72.0 " fill="#FF0000"/>
<path class="atom-5" d="M 117.5 100.7 Q 117.5 99.5, 118.1 98.8 Q 118.8 98.1, 119.9 98.1 Q 121.0 98.1, 121.6 98.8 Q 122.3 99.5, 122.3 100.7 Q 122.3 102.0, 121.6 102.7 Q 121.0 103.4, 119.9 103.4 Q 118.8 103.4, 118.1 102.7 Q 117.5 102.0, 117.5 100.7 M 119.9 102.8 Q 120.7 102.8, 121.1 102.3 Q 121.5 101.8, 121.5 100.7 Q 121.5 99.7, 121.1 99.2 Q 120.7 98.7, 119.9 98.7 Q 119.1 98.7, 118.7 99.2 Q 118.3 99.7, 118.3 100.7 Q 118.3 101.8, 118.7 102.3 Q 119.1 102.8, 119.9 102.8 " fill="#FF0000"/>
<path class="atom-9" d="M 183.0 103.4 Q 183.0 102.2, 183.6 101.5 Q 184.2 100.8, 185.3 100.8 Q 186.5 100.8, 187.1 101.5 Q 187.7 102.2, 187.7 103.4 Q 187.7 104.6, 187.1 105.4 Q 186.4 106.1, 185.3 106.1 Q 184.2 106.1, 183.6 105.4 Q 183.0 104.7, 183.0 103.4 M 185.3 105.5 Q 186.1 105.5, 186.5 105.0 Q 187.0 104.4, 187.0 103.4 Q 187.0 102.4, 186.5 101.9 Q 186.1 101.4, 185.3 101.4 Q 184.5 101.4, 184.1 101.9 Q 183.7 102.4, 183.7 103.4 Q 183.7 104.4, 184.1 105.0 Q 184.5 105.5, 185.3 105.5 " fill="#FF0000"/>
<path class="atom-10" d="M 176.7 72.6 Q 176.7 71.3, 177.3 70.7 Q 177.9 70.0, 179.0 70.0 Q 180.2 70.0, 180.8 70.7 Q 181.4 71.3, 181.4 72.6 Q 181.4 73.8, 180.8 74.5 Q 180.1 75.2, 179.0 75.2 Q 177.9 75.2, 177.3 74.5 Q 176.7 73.8, 176.7 72.6 M 179.0 74.7 Q 179.8 74.7, 180.2 74.1 Q 180.6 73.6, 180.6 72.6 Q 180.6 71.6, 180.2 71.1 Q 179.8 70.5, 179.0 70.5 Q 178.2 70.5, 177.8 71.1 Q 177.4 71.6, 177.4 72.6 Q 177.4 73.6, 177.8 74.1 Q 178.2 74.7, 179.0 74.7 " fill="#FF0000"/>
<path class="atom-10" d="M 182.2 70.0 L 182.9 70.0 L 182.9 72.2 L 185.5 72.2 L 185.5 70.0 L 186.2 70.0 L 186.2 75.2 L 185.5 75.2 L 185.5 72.8 L 182.9 72.8 L 182.9 75.2 L 182.2 75.2 L 182.2 70.0 " fill="#FF0000"/>
<path class="atom-11" d="M 87.7 90.8 Q 87.7 89.6, 88.3 88.9 Q 88.9 88.2, 90.1 88.2 Q 91.2 88.2, 91.8 88.9 Q 92.4 89.6, 92.4 90.8 Q 92.4 92.0, 91.8 92.8 Q 91.2 93.5, 90.1 93.5 Q 88.9 93.5, 88.3 92.8 Q 87.7 92.0, 87.7 90.8 M 90.1 92.9 Q 90.8 92.9, 91.3 92.4 Q 91.7 91.8, 91.7 90.8 Q 91.7 89.8, 91.3 89.3 Q 90.8 88.8, 90.1 88.8 Q 89.3 88.8, 88.8 89.3 Q 88.4 89.8, 88.4 90.8 Q 88.4 91.8, 88.8 92.4 Q 89.3 92.9, 90.1 92.9 " fill="#FF0000"/>
<path class="atom-13" d="M 55.8 105.8 Q 55.8 104.6, 56.4 103.9 Q 57.0 103.2, 58.1 103.2 Q 59.3 103.2, 59.9 103.9 Q 60.5 104.6, 60.5 105.8 Q 60.5 107.1, 59.9 107.8 Q 59.2 108.5, 58.1 108.5 Q 57.0 108.5, 56.4 107.8 Q 55.8 107.1, 55.8 105.8 M 58.1 107.9 Q 58.9 107.9, 59.3 107.4 Q 59.7 106.8, 59.7 105.8 Q 59.7 104.8, 59.3 104.3 Q 58.9 103.8, 58.1 103.8 Q 57.3 103.8, 56.9 104.3 Q 56.5 104.8, 56.5 105.8 Q 56.5 106.9, 56.9 107.4 Q 57.3 107.9, 58.1 107.9 " fill="#FF0000"/>
<path class="atom-25" d="M 57.4 99.7 Q 57.4 98.5, 58.0 97.8 Q 58.7 97.1, 59.8 97.1 Q 60.9 97.1, 61.5 97.8 Q 62.2 98.5, 62.2 99.7 Q 62.2 101.0, 61.5 101.7 Q 60.9 102.4, 59.8 102.4 Q 58.7 102.4, 58.0 101.7 Q 57.4 101.0, 57.4 99.7 M 59.8 101.8 Q 60.6 101.8, 61.0 101.3 Q 61.4 100.8, 61.4 99.7 Q 61.4 98.7, 61.0 98.2 Q 60.6 97.7, 59.8 97.7 Q 59.0 97.7, 58.6 98.2 Q 58.2 98.7, 58.2 99.7 Q 58.2 100.8, 58.6 101.3 Q 59.0 101.8, 59.8 101.8 " fill="#FF0000"/>
<path class="atom-26" d="M 57.4 102.8 Q 57.4 101.5, 58.0 100.8 Q 58.6 100.1, 59.7 100.1 Q 60.9 100.1, 61.5 100.8 Q 62.1 101.5, 62.1 102.8 Q 62.1 104.0, 61.5 104.7 Q 60.8 105.4, 59.7 105.4 Q 58.6 105.4, 58.0 104.7 Q 57.4 104.0, 57.4 102.8 M 59.7 104.8 Q 60.5 104.8, 60.9 104.3 Q 61.4 103.8, 61.4 102.8 Q 61.4 101.7, 60.9 101.2 Q 60.5 100.7, 59.7 100.7 Q 58.9 100.7, 58.5 101.2 Q 58.1 101.7, 58.1 102.8 Q 58.1 103.8, 58.5 104.3 Q 58.9 104.8, 59.7 104.8 " fill="#FF0000"/>
<path class="atom-27" d="M 64.5 109.1 L 65.2 109.1 L 65.2 111.3 L 67.8 111.3 L 67.8 109.1 L 68.5 109.1 L 68.5 114.2 L 67.8 114.2 L 67.8 111.8 L 65.2 111.8 L 65.2 114.2 L 64.5 114.2 L 64.5 109.1 " fill="#000000"/>
<path class="atom-28" d="M 22.4 84.2 L 23.1 84.2 L 23.1 86.4 L 25.7 86.4 L 25.7 84.2 L 26.4 84.2 L 26.4 89.3 L 25.7 89.3 L 25.7 87.0 L 23.1 87.0 L 23.1 89.3 L 22.4 89.3 L 22.4 84.2 " fill="#000000"/>
<path class="atom-29" d="M 69.7 43.8 L 70.4 43.8 L 70.4 46.0 L 73.0 46.0 L 73.0 43.8 L 73.7 43.8 L 73.7 48.9 L 73.0 48.9 L 73.0 46.6 L 70.4 46.6 L 70.4 48.9 L 69.7 48.9 L 69.7 43.8 " fill="#000000"/>
<path class="legend" d="M 60.8 189.7 L 59.7 186.4 L 55.2 186.4 L 54.0 189.7 L 52.5 189.7 L 56.4 178.4 L 58.3 178.4 L 62.3 189.7 L 60.8 189.7 M 55.6 185.1 L 59.2 185.1 L 57.4 180.0 L 55.6 185.1 " fill="#000000"/>
<path class="legend" d="M 69.5 189.7 L 66.7 185.0 L 66.7 185.0 L 64.9 185.0 L 64.9 189.7 L 63.3 189.7 L 63.3 178.4 L 66.7 178.4 Q 68.6 178.4, 69.6 179.2 Q 70.6 180.1, 70.6 181.7 Q 70.6 182.9, 70.0 183.7 Q 69.4 184.5, 68.3 184.8 L 71.1 189.7 L 69.5 189.7 M 64.9 183.8 L 66.7 183.8 Q 67.8 183.8, 68.4 183.2 Q 69.0 182.7, 69.0 181.7 Q 69.0 180.7, 68.4 180.2 Q 67.8 179.6, 66.7 179.6 L 64.9 179.6 L 64.9 183.8 " fill="#000000"/>
<path class="legend" d="M 75.9 179.6 L 72.3 179.6 L 72.3 178.4 L 80.7 178.4 L 80.7 179.6 L 77.4 179.6 L 77.4 189.7 L 75.9 189.7 L 75.9 179.6 " fill="#000000"/>
<path class="legend" d="M 81.5 178.4 L 88.3 178.4 L 88.3 179.7 L 83.0 179.7 L 83.0 183.1 L 87.7 183.1 L 87.7 184.4 L 83.0 184.4 L 83.0 188.4 L 88.4 188.4 L 88.4 189.7 L 81.5 189.7 L 81.5 178.4 " fill="#000000"/>
<path class="legend" d="M 90.5 187.9 Q 90.6 188.0, 91.1 188.2 Q 91.7 188.4, 92.2 188.6 Q 92.8 188.7, 93.4 188.7 Q 94.5 188.7, 95.1 188.2 Q 95.7 187.7, 95.7 186.8 Q 95.7 186.1, 95.4 185.7 Q 95.1 185.4, 94.6 185.2 Q 94.1 184.9, 93.3 184.7 Q 92.3 184.4, 91.7 184.1 Q 91.1 183.8, 90.7 183.2 Q 90.3 182.6, 90.3 181.6 Q 90.3 180.2, 91.3 179.3 Q 92.2 178.4, 94.1 178.4 Q 95.5 178.4, 96.9 179.0 L 96.6 180.3 Q 95.2 179.7, 94.2 179.7 Q 93.1 179.7, 92.5 180.2 Q 91.9 180.6, 91.9 181.4 Q 91.9 182.0, 92.2 182.4 Q 92.5 182.7, 93.0 182.9 Q 93.4 183.2, 94.2 183.4 Q 95.2 183.7, 95.8 184.0 Q 96.4 184.4, 96.9 185.0 Q 97.3 185.6, 97.3 186.8 Q 97.3 188.3, 96.3 189.2 Q 95.2 190.0, 93.5 190.0 Q 92.5 190.0, 91.7 189.8 Q 90.9 189.6, 90.1 189.2 L 90.5 187.9 " fill="#000000"/>
<path class="legend" d="M 100.4 178.4 L 100.4 186.0 Q 100.4 187.3, 101.1 187.9 Q 101.9 188.5, 103.3 188.5 Q 104.7 188.5, 105.5 187.9 Q 106.2 187.3, 106.2 186.1 L 106.2 178.4 L 107.7 178.4 L 107.7 186.1 Q 107.7 187.9, 106.6 188.8 Q 105.5 189.8, 103.3 189.8 Q 101.1 189.8, 100.0 188.8 Q 98.9 187.9, 98.9 186.1 L 98.9 178.4 L 100.4 178.4 " fill="#000000"/>
<path class="legend" d="M 111.6 178.4 L 115.3 184.4 Q 115.7 185.0, 116.3 186.0 Q 116.9 187.1, 116.9 187.2 L 116.9 178.4 L 118.4 178.4 L 118.4 189.7 L 116.9 189.7 L 112.9 183.1 Q 112.4 182.4, 111.9 181.5 Q 111.4 180.6, 111.3 180.3 L 111.3 189.7 L 109.8 189.7 L 109.8 178.4 L 111.6 178.4 " fill="#000000"/>
<path class="legend" d="M 128.9 189.7 L 127.7 186.4 L 123.2 186.4 L 122.1 189.7 L 120.6 189.7 L 124.5 178.4 L 126.4 178.4 L 130.4 189.7 L 128.9 189.7 M 123.7 185.1 L 127.3 185.1 L 125.4 180.0 L 123.7 185.1 " fill="#000000"/>
<path class="legend" d="M 134.9 179.6 L 131.4 179.6 L 131.4 178.4 L 139.8 178.4 L 139.8 179.6 L 136.5 179.6 L 136.5 189.7 L 134.9 189.7 L 134.9 179.6 " fill="#000000"/>
<path class="legend" d="M 140.6 178.4 L 147.3 178.4 L 147.3 179.7 L 142.1 179.7 L 142.1 183.1 L 146.8 183.1 L 146.8 184.4 L 142.1 184.4 L 142.1 188.4 L 147.5 188.4 L 147.5 189.7 L 140.6 189.7 L 140.6 178.4 " fill="#000000"/>
<path class="bond-0 atom-1 atom-0" d="M 283.7,60.1 L 288.2,42.4 L 290.7,43.3 Z" style="fill:#000000;fill-rule:evenodd;fill-opacity:1;stroke:#000000;stroke-width:0.5px;stroke-linecap:butt;stroke-linejoin:miter;stroke-opacity:1;"/>
<path class="bond-1 atom-1 atom-2" d="M 283.7,60.1 L 295.8,73.7" style="fill:none;fill-rule:evenodd;stroke:#000000;stroke-width:2.0px;stroke-linecap:butt;stroke-linejoin:miter;stroke-opacity:1"/>
<path class="bond-2 atom-2 atom-3" d="M 299.4,73.4 L 299.3,72.5" style="fill:none;fill-rule:evenodd;stroke:#000000;stroke-width:1.0px;stroke-linecap:butt;stroke-linejoin:miter;stroke-opacity:1"/>
<path class="bond-2 atom-2 atom-3" d="M 303.1,73.1 L 302.7,71.4" style="fill:none;fill-rule:evenodd;stroke:#000000;stroke-width:1.0px;stroke-linecap:butt;stroke-linejoin:miter;stroke-opacity:1"/>
<path class="bond-2 atom-2 atom-3" d="M 306.7,72.8 L 306.2,70.2" style="fill:none;fill-rule:evenodd;stroke:#FF0000;stroke-width:1.0px;stroke-linecap:butt;stroke-linejoin:miter;stroke-opacity:1"/>
<path class="bond-3 atom-3 atom-4" d="M 316.5,73.3 L 321.1,78.5" style="fill:none;fill-rule:evenodd;stroke:#FF0000;stroke-width:2.0px;stroke-linecap:butt;stroke-linejoin:miter;stroke-opacity:1"/>
<path class="bond-3 atom-3 atom-4" d="M 321.1,78.5 L 325.6,83.6" style="fill:none;fill-rule:evenodd;stroke:#000000;stroke-width:2.0px;stroke-linecap:butt;stroke-linejoin:miter;stroke-opacity:1"/>
<path class="bond-4 atom-4 atom-5" d="M 324.6,82.5 L 322.2,89.9" style="fill:none;fill-rule:evenodd;stroke:#000000;stroke-width:2.0px;stroke-linecap:butt;stroke-linejoin:miter;stroke-opacity:1"/>
<path class="bond-4 atom-4 atom-5" d="M 322.2,89.9 L 319.7,97.3" style="fill:none;fill-rule:evenodd;stroke:#FF0000;stroke-width:2.0px;stroke-linecap:butt;stroke-linejoin:miter;stroke-opacity:1"/>
<path class="bond-4 atom-4 atom-5" d="M 327.1,83.3 L 324.7,90.7" style="fill:none;fill-rule:evenodd;stroke:#000000;stroke-width:2.0px;stroke-linecap:butt;stroke-linejoin:miter;stroke-opacity:1"/>
<path class="bond-4 atom-4 atom-5" d="M 324.7,90.7 L 322.2,98.1" style="fill:none;fill-rule:evenodd;stroke:#FF0000;stroke-width:2.0px;stroke-linecap:butt;stroke-linejoin:miter;stroke-opacity:1"/>
<path class="bond-5 atom-4 atom-6" d="M 325.6,83.6 L 343.4,80.0" style="fill:none;fill-rule:evenodd;stroke:#000000;stroke-width:2.0px;stroke-linecap:butt;stroke-linejoin:miter;stroke-opacity:1"/>
<path class="bond-6 atom-6 atom-7" d="M 343.4,80.0 L 355.5,93.6" style="fill:none;fill-rule:evenodd;stroke:#000000;stroke-width:2.0px;stroke-linecap:butt;stroke-linejoin:miter;stroke-opacity:1"/>
<path class="bond-7 atom-7 atom-8" d="M 355.5,93.6 L 373.3,89.9" style="fill:none;fill-rule:evenodd;stroke:#000000;stroke-width:2.0px;stroke-linecap:butt;stroke-linejoin:miter;stroke-opacity:1"/>
<path class="bond-8 atom-8 atom-9" d="M 371.8,90.2 L 376.6,95.7" style="fill:none;fill-rule:evenodd;stroke:#000000;stroke-width:2.0px;stroke-linecap:butt;stroke-linejoin:miter;stroke-opacity:1"/>
<path class="bond-8 atom-8 atom-9" d="M 376.6,95.7 L 381.5,101.2" style="fill:none;fill-rule:evenodd;stroke:#FF0000;stroke-width:2.0px;stroke-linecap:butt;stroke-linejoin:miter;stroke-opacity:1"/>
<path class="bond-8 atom-8 atom-9" d="M 373.8,88.5 L 378.6,94.0" style="fill:none;fill-rule:evenodd;stroke:#000000;stroke-width:2.0px;stroke-linecap:butt;stroke-linejoin:miter;stroke-opacity:1"/>
<path class="bond-8 atom-8 atom-9" d="M 378.6,94.0 L 383.5,99.4" style="fill:none;fill-rule:evenodd;stroke:#FF0000;stroke-width:2.0px;stroke-linecap:butt;stroke-linejoin:miter;stroke-opacity:1"/>
<path class="bond-9 atom-8 atom-10" d="M 373.3,89.9 L 375.6,82.9" style="fill:none;fill-rule:evenodd;stroke:#000000;stroke-width:2.0px;stroke-linecap:butt;stroke-linejoin:miter;stroke-opacity:1"/>
<path class="bond-9 atom-8 atom-10" d="M 375.6,82.9 L 377.9,76.0" style="fill:none;fill-rule:evenodd;stroke:#FF0000;stroke-width:2.0px;stroke-linecap:butt;stroke-linejoin:miter;stroke-opacity:1"/>
<path class="bond-10 atom-2 atom-11" d="M 295.8,73.7 L 293.5,80.7" style="fill:none;fill-rule:evenodd;stroke:#000000;stroke-width:2.0px;stroke-linecap:butt;stroke-linejoin:miter;stroke-opacity:1"/>
<path class="bond-10 atom-2 atom-11" d="M 293.5,80.7 L 291.1,87.7" style="fill:none;fill-rule:evenodd;stroke:#FF0000;stroke-width:2.0px;stroke-linecap:butt;stroke-linejoin:miter;stroke-opacity:1"/>
<path class="bond-11 atom-11 atom-12" d="M 287.1,91.5 L 279.7,93.0" style="fill:none;fill-rule:evenodd;stroke:#FF0000;stroke-width:2.0px;stroke-linecap:butt;stroke-linejoin:miter;stroke-opacity:1"/>
<path class="bond-11 atom-11 atom-12" d="M 279.7,93.0 L 272.3,94.6" style="fill:none;fill-rule:evenodd;stroke:#000000;stroke-width:2.0px;stroke-linecap:butt;stroke-linejoin:miter;stroke-opacity:1"/>
<path class="bond-12 atom-12 atom-13" d="M 272.3,94.6 L 266.7,99.1" style="fill:none;fill-rule:evenodd;stroke:#000000;stroke-width:2.0px;stroke-linecap:butt;stroke-linejoin:miter;stroke-opacity:1"/>
<path class="bond-12 atom-12 atom-13" d="M 266.7,99.1 L 261.1,103.6" style="fill:none;fill-rule:evenodd;stroke:#FF0000;stroke-width:2.0px;stroke-linecap:butt;stroke-linejoin:miter;stroke-opacity:1"/>
<path class="bond-13 atom-13 atom-14" d="M 258.4,109.2 L 258.8,115.5" style="fill:none;fill-rule:evenodd;stroke:#FF0000;stroke-width:2.0px;stroke-linecap:butt;stroke-linejoin:miter;stroke-opacity:1"/>
<path class="bond-13 atom-13 atom-14" d="M 258.8,115.5 L 259.3,121.8" style="fill:none;fill-rule:evenodd;stroke:#000000;stroke-width:2.0px;stroke-linecap:butt;stroke-linejoin:miter;stroke-opacity:1"/>
<path class="bond-14 atom-14 atom-15" d="M 259.3,121.8 L 262.9,139.6" style="fill:none;fill-rule:evenodd;stroke:#000000;stroke-width:2.0px;stroke-linecap:butt;stroke-linejoin:miter;stroke-opacity:1"/>
<path class="bond-15 atom-14 atom-16" d="M 259.3,121.8 L 241.7,117.3" style="fill:none;fill-rule:evenodd;stroke:#000000;stroke-width:2.0px;stroke-linecap:butt;stroke-linejoin:miter;stroke-opacity:1"/>
<path class="bond-16 atom-16 atom-17" d="M 241.7,117.3 L 234.2,100.8" style="fill:none;fill-rule:evenodd;stroke:#000000;stroke-width:2.0px;stroke-linecap:butt;stroke-linejoin:miter;stroke-opacity:1"/>
<path class="bond-17 atom-17 atom-18" d="M 234.2,100.8 L 242.4,84.6" style="fill:none;fill-rule:evenodd;stroke:#000000;stroke-width:2.0px;stroke-linecap:butt;stroke-linejoin:miter;stroke-opacity:1"/>
<path class="bond-18 atom-18 atom-19" d="M 242.4,84.6 L 230.4,71.0" style="fill:none;fill-rule:evenodd;stroke:#000000;stroke-width:2.0px;stroke-linecap:butt;stroke-linejoin:miter;stroke-opacity:1"/>
<path class="bond-19 atom-19 atom-20" d="M 226.9,72.0 L 226.8,71.5" style="fill:none;fill-rule:evenodd;stroke:#000000;stroke-width:1.0px;stroke-linecap:butt;stroke-linejoin:miter;stroke-opacity:1"/>
<path class="bond-19 atom-19 atom-20" d="M 223.4,73.0 L 223.2,72.0" style="fill:none;fill-rule:evenodd;stroke:#000000;stroke-width:1.0px;stroke-linecap:butt;stroke-linejoin:miter;stroke-opacity:1"/>
<path class="bond-19 atom-19 atom-20" d="M 219.9,74.0 L 219.5,72.4" style="fill:none;fill-rule:evenodd;stroke:#000000;stroke-width:1.0px;stroke-linecap:butt;stroke-linejoin:miter;stroke-opacity:1"/>
<path class="bond-19 atom-19 atom-20" d="M 216.4,75.0 L 215.9,72.9" style="fill:none;fill-rule:evenodd;stroke:#000000;stroke-width:1.0px;stroke-linecap:butt;stroke-linejoin:miter;stroke-opacity:1"/>
<path class="bond-19 atom-19 atom-20" d="M 212.8,76.0 L 212.3,73.4" style="fill:none;fill-rule:evenodd;stroke:#000000;stroke-width:1.0px;stroke-linecap:butt;stroke-linejoin:miter;stroke-opacity:1"/>
<path class="bond-20 atom-19 atom-21" d="M 230.4,71.0 L 236.1,53.8" style="fill:none;fill-rule:evenodd;stroke:#000000;stroke-width:2.0px;stroke-linecap:butt;stroke-linejoin:miter;stroke-opacity:1"/>
<path class="bond-21 atom-21 atom-22" d="M 236.1,53.8 L 253.9,50.2" style="fill:none;fill-rule:evenodd;stroke:#000000;stroke-width:2.0px;stroke-linecap:butt;stroke-linejoin:miter;stroke-opacity:1"/>
<path class="bond-22 atom-22 atom-23" d="M 253.9,50.2 L 266.0,63.7" style="fill:none;fill-rule:evenodd;stroke:#000000;stroke-width:2.0px;stroke-linecap:butt;stroke-linejoin:miter;stroke-opacity:1"/>
<path class="bond-23 atom-23 atom-24" d="M 266.0,63.7 L 260.2,81.0" style="fill:none;fill-rule:evenodd;stroke:#000000;stroke-width:2.0px;stroke-linecap:butt;stroke-linejoin:miter;stroke-opacity:1"/>
<path class="bond-24 atom-24 atom-25" d="M 259.7,84.7 L 260.6,84.7" style="fill:none;fill-rule:evenodd;stroke:#000000;stroke-width:1.0px;stroke-linecap:butt;stroke-linejoin:miter;stroke-opacity:1"/>
<path class="bond-24 atom-24 atom-25" d="M 259.2,88.5 L 260.9,88.5" style="fill:none;fill-rule:evenodd;stroke:#000000;stroke-width:1.0px;stroke-linecap:butt;stroke-linejoin:miter;stroke-opacity:1"/>
<path class="bond-24 atom-24 atom-25" d="M 258.6,92.2 L 261.3,92.3" style="fill:none;fill-rule:evenodd;stroke:#FF0000;stroke-width:1.0px;stroke-linecap:butt;stroke-linejoin:miter;stroke-opacity:1"/>
<path class="bond-25 atom-25 atom-26" d="M 259.8,99.9 L 259.7,102.9" style="fill:none;fill-rule:evenodd;stroke:#FF0000;stroke-width:2.0px;stroke-linecap:butt;stroke-linejoin:miter;stroke-opacity:1"/>
<path class="bond-26 atom-23 atom-1" d="M 266.0,63.7 L 283.7,60.1" style="fill:none;fill-rule:evenodd;stroke:#000000;stroke-width:2.0px;stroke-linecap:butt;stroke-linejoin:miter;stroke-opacity:1"/>
<path class="bond-27 atom-24 atom-12" d="M 260.2,81.0 L 272.3,94.6" style="fill:none;fill-rule:evenodd;stroke:#000000;stroke-width:2.0px;stroke-linecap:butt;stroke-linejoin:miter;stroke-opacity:1"/>
<path class="bond-28 atom-26 atom-14" d="M 259.6,106.1 L 259.5,113.9" style="fill:none;fill-rule:evenodd;stroke:#FF0000;stroke-width:2.0px;stroke-linecap:butt;stroke-linejoin:miter;stroke-opacity:1"/>
<path class="bond-28 atom-26 atom-14" d="M 259.5,113.9 L 259.3,121.8" style="fill:none;fill-rule:evenodd;stroke:#000000;stroke-width:2.0px;stroke-linecap:butt;stroke-linejoin:miter;stroke-opacity:1"/>
<path class="bond-29 atom-24 atom-18" d="M 260.2,81.0 L 242.4,84.6" style="fill:none;fill-rule:evenodd;stroke:#000000;stroke-width:2.0px;stroke-linecap:butt;stroke-linejoin:miter;stroke-opacity:1"/>
<path class="bond-30 atom-12 atom-27" d="M 272.3,94.6 L 269.0,108.5 L 266.5,107.6 Z" style="fill:#000000;fill-rule:evenodd;fill-opacity:1;stroke:#000000;stroke-width:0.5px;stroke-linecap:butt;stroke-linejoin:miter;stroke-opacity:1;"/>
<path class="bond-31 atom-18 atom-28" d="M 238.8,85.4 L 238.7,84.8" style="fill:none;fill-rule:evenodd;stroke:#000000;stroke-width:1.0px;stroke-linecap:butt;stroke-linejoin:miter;stroke-opacity:1"/>
<path class="bond-31 atom-18 atom-28" d="M 235.1,86.2 L 234.9,84.9" style="fill:none;fill-rule:evenodd;stroke:#000000;stroke-width:1.0px;stroke-linecap:butt;stroke-linejoin:miter;stroke-opacity:1"/>
<path class="bond-31 atom-18 atom-28" d="M 231.4,87.0 L 231.2,85.0" style="fill:none;fill-rule:evenodd;stroke:#000000;stroke-width:1.0px;stroke-linecap:butt;stroke-linejoin:miter;stroke-opacity:1"/>
<path class="bond-31 atom-18 atom-28" d="M 227.8,87.8 L 227.4,85.2" style="fill:none;fill-rule:evenodd;stroke:#000000;stroke-width:1.0px;stroke-linecap:butt;stroke-linejoin:miter;stroke-opacity:1"/>
<path class="bond-32 atom-23 atom-29" d="M 266.8,60.3 L 267.4,60.5" style="fill:none;fill-rule:evenodd;stroke:#000000;stroke-width:1.0px;stroke-linecap:butt;stroke-linejoin:miter;stroke-opacity:1"/>
<path class="bond-32 atom-23 atom-29" d="M 267.6,56.8 L 268.8,57.2" style="fill:none;fill-rule:evenodd;stroke:#000000;stroke-width:1.0px;stroke-linecap:butt;stroke-linejoin:miter;stroke-opacity:1"/>
<path class="bond-32 atom-23 atom-29" d="M 268.4,53.3 L 270.3,53.9" style="fill:none;fill-rule:evenodd;stroke:#000000;stroke-width:1.0px;stroke-linecap:butt;stroke-linejoin:miter;stroke-opacity:1"/>
<path class="bond-32 atom-23 atom-29" d="M 269.2,49.8 L 271.7,50.7" style="fill:none;fill-rule:evenodd;stroke:#000000;stroke-width:1.0px;stroke-linecap:butt;stroke-linejoin:miter;stroke-opacity:1"/>
<path d="M 284.4,60.8 L 283.7,60.1 L 282.9,60.3" style="fill:none;stroke:#000000;stroke-width:2.0px;stroke-linecap:butt;stroke-linejoin:miter;stroke-opacity:1;"/>
<path d="M 295.2,73.0 L 295.8,73.7 L 295.7,74.0" style="fill:none;stroke:#000000;stroke-width:2.0px;stroke-linecap:butt;stroke-linejoin:miter;stroke-opacity:1;"/>
<path d="M 325.4,83.4 L 325.6,83.6 L 326.5,83.4" style="fill:none;stroke:#000000;stroke-width:2.0px;stroke-linecap:butt;stroke-linejoin:miter;stroke-opacity:1;"/>
<path d="M 342.5,80.2 L 343.4,80.0 L 344.0,80.7" style="fill:none;stroke:#000000;stroke-width:2.0px;stroke-linecap:butt;stroke-linejoin:miter;stroke-opacity:1;"/>
<path d="M 354.9,92.9 L 355.5,93.6 L 356.4,93.4" style="fill:none;stroke:#000000;stroke-width:2.0px;stroke-linecap:butt;stroke-linejoin:miter;stroke-opacity:1;"/>
<path d="M 372.4,90.1 L 373.3,89.9 L 373.4,89.6" style="fill:none;stroke:#000000;stroke-width:2.0px;stroke-linecap:butt;stroke-linejoin:miter;stroke-opacity:1;"/>
<path d="M 242.6,117.5 L 241.7,117.3 L 241.3,116.5" style="fill:none;stroke:#000000;stroke-width:2.0px;stroke-linecap:butt;stroke-linejoin:miter;stroke-opacity:1;"/>
<path d="M 234.6,101.6 L 234.2,100.8 L 234.6,100.0" style="fill:none;stroke:#000000;stroke-width:2.0px;stroke-linecap:butt;stroke-linejoin:miter;stroke-opacity:1;"/>
<path d="M 231.0,71.7 L 230.4,71.0 L 230.7,70.2" style="fill:none;stroke:#000000;stroke-width:2.0px;stroke-linecap:butt;stroke-linejoin:miter;stroke-opacity:1;"/>
<path d="M 235.8,54.7 L 236.1,53.8 L 237.0,53.6" style="fill:none;stroke:#000000;stroke-width:2.0px;stroke-linecap:butt;stroke-linejoin:miter;stroke-opacity:1;"/>
<path d="M 253.0,50.3 L 253.9,50.2 L 254.5,50.8" style="fill:none;stroke:#000000;stroke-width:2.0px;stroke-linecap:butt;stroke-linejoin:miter;stroke-opacity:1;"/>
<path class="atom-3" d="M 311.2 70.1 Q 311.2 68.8, 311.8 68.1 Q 312.4 67.4, 313.6 67.4 Q 314.7 67.4, 315.3 68.1 Q 316.0 68.8, 316.0 70.1 Q 316.0 71.3, 315.3 72.0 Q 314.7 72.7, 313.6 72.7 Q 312.5 72.7, 311.8 72.0 Q 311.2 71.3, 311.2 70.1 M 313.6 72.1 Q 314.4 72.1, 314.8 71.6 Q 315.2 71.1, 315.2 70.1 Q 315.2 69.0, 314.8 68.5 Q 314.4 68.0, 313.6 68.0 Q 312.8 68.0, 312.4 68.5 Q 312.0 69.0, 312.0 70.1 Q 312.0 71.1, 312.4 71.6 Q 312.8 72.1, 313.6 72.1 " fill="#FF0000"/>
<path class="atom-5" d="M 317.5 100.9 Q 317.5 99.6, 318.1 98.9 Q 318.8 98.3, 319.9 98.3 Q 321.0 98.3, 321.6 98.9 Q 322.3 99.6, 322.3 100.9 Q 322.3 102.1, 321.6 102.8 Q 321.0 103.5, 319.9 103.5 Q 318.8 103.5, 318.1 102.8 Q 317.5 102.1, 317.5 100.9 M 319.9 103.0 Q 320.7 103.0, 321.1 102.4 Q 321.5 101.9, 321.5 100.9 Q 321.5 99.9, 321.1 99.4 Q 320.7 98.8, 319.9 98.8 Q 319.1 98.8, 318.7 99.3 Q 318.3 99.9, 318.3 100.9 Q 318.3 101.9, 318.7 102.4 Q 319.1 103.0, 319.9 103.0 " fill="#FF0000"/>
<path class="atom-9" d="M 383.0 103.5 Q 383.0 102.3, 383.6 101.6 Q 384.2 100.9, 385.3 100.9 Q 386.5 100.9, 387.1 101.6 Q 387.7 102.3, 387.7 103.5 Q 387.7 104.8, 387.1 105.5 Q 386.4 106.2, 385.3 106.2 Q 384.2 106.2, 383.6 105.5 Q 383.0 104.8, 383.0 103.5 M 385.3 105.6 Q 386.1 105.6, 386.5 105.1 Q 387.0 104.6, 387.0 103.5 Q 387.0 102.5, 386.5 102.0 Q 386.1 101.5, 385.3 101.5 Q 384.5 101.5, 384.1 102.0 Q 383.7 102.5, 383.7 103.5 Q 383.7 104.6, 384.1 105.1 Q 384.5 105.6, 385.3 105.6 " fill="#FF0000"/>
<path class="atom-10" d="M 376.7 72.7 Q 376.7 71.5, 377.3 70.8 Q 377.9 70.1, 379.0 70.1 Q 380.2 70.1, 380.8 70.8 Q 381.4 71.5, 381.4 72.7 Q 381.4 74.0, 380.8 74.7 Q 380.1 75.4, 379.0 75.4 Q 377.9 75.4, 377.3 74.7 Q 376.7 74.0, 376.7 72.7 M 379.0 74.8 Q 379.8 74.8, 380.2 74.3 Q 380.6 73.7, 380.6 72.7 Q 380.6 71.7, 380.2 71.2 Q 379.8 70.7, 379.0 70.7 Q 378.2 70.7, 377.8 71.2 Q 377.4 71.7, 377.4 72.7 Q 377.4 73.8, 377.8 74.3 Q 378.2 74.8, 379.0 74.8 " fill="#FF0000"/>
<path class="atom-10" d="M 382.2 70.2 L 382.9 70.2 L 382.9 72.3 L 385.5 72.3 L 385.5 70.2 L 386.2 70.2 L 386.2 75.3 L 385.5 75.3 L 385.5 72.9 L 382.9 72.9 L 382.9 75.3 L 382.2 75.3 L 382.2 70.2 " fill="#FF0000"/>
<path class="atom-11" d="M 287.7 90.9 Q 287.7 89.7, 288.3 89.0 Q 288.9 88.3, 290.1 88.3 Q 291.2 88.3, 291.8 89.0 Q 292.4 89.7, 292.4 90.9 Q 292.4 92.2, 291.8 92.9 Q 291.2 93.6, 290.1 93.6 Q 288.9 93.6, 288.3 92.9 Q 287.7 92.2, 287.7 90.9 M 290.1 93.0 Q 290.8 93.0, 291.3 92.5 Q 291.7 92.0, 291.7 90.9 Q 291.7 89.9, 291.3 89.4 Q 290.8 88.9, 290.1 88.9 Q 289.3 88.9, 288.8 89.4 Q 288.4 89.9, 288.4 90.9 Q 288.4 92.0, 288.8 92.5 Q 289.3 93.0, 290.1 93.0 " fill="#FF0000"/>
<path class="atom-13" d="M 255.8 105.9 Q 255.8 104.7, 256.4 104.0 Q 257.0 103.3, 258.1 103.3 Q 259.3 103.3, 259.9 104.0 Q 260.5 104.7, 260.5 105.9 Q 260.5 107.2, 259.9 107.9 Q 259.2 108.6, 258.1 108.6 Q 257.0 108.6, 256.4 107.9 Q 255.8 107.2, 255.8 105.9 M 258.1 108.0 Q 258.9 108.0, 259.3 107.5 Q 259.7 107.0, 259.7 105.9 Q 259.7 104.9, 259.3 104.4 Q 258.9 103.9, 258.1 103.9 Q 257.3 103.9, 256.9 104.4 Q 256.5 104.9, 256.5 105.9 Q 256.5 107.0, 256.9 107.5 Q 257.3 108.0, 258.1 108.0 " fill="#FF0000"/>
<path class="atom-25" d="M 257.4 99.9 Q 257.4 98.6, 258.0 97.9 Q 258.7 97.3, 259.8 97.3 Q 260.9 97.3, 261.5 97.9 Q 262.2 98.6, 262.2 99.9 Q 262.2 101.1, 261.5 101.8 Q 260.9 102.5, 259.8 102.5 Q 258.7 102.5, 258.0 101.8 Q 257.4 101.1, 257.4 99.9 M 259.8 102.0 Q 260.6 102.0, 261.0 101.4 Q 261.4 100.9, 261.4 99.9 Q 261.4 98.9, 261.0 98.4 Q 260.6 97.8, 259.8 97.8 Q 259.0 97.8, 258.6 98.3 Q 258.2 98.9, 258.2 99.9 Q 258.2 100.9, 258.6 101.4 Q 259.0 102.0, 259.8 102.0 " fill="#FF0000"/>
<path class="atom-26" d="M 257.4 102.9 Q 257.4 101.7, 258.0 101.0 Q 258.6 100.3, 259.7 100.3 Q 260.9 100.3, 261.5 101.0 Q 262.1 101.7, 262.1 102.9 Q 262.1 104.1, 261.5 104.8 Q 260.8 105.6, 259.7 105.6 Q 258.6 105.6, 258.0 104.8 Q 257.4 104.1, 257.4 102.9 M 259.7 105.0 Q 260.5 105.0, 260.9 104.4 Q 261.4 103.9, 261.4 102.9 Q 261.4 101.9, 260.9 101.4 Q 260.5 100.9, 259.7 100.9 Q 258.9 100.9, 258.5 101.4 Q 258.1 101.9, 258.1 102.9 Q 258.1 103.9, 258.5 104.4 Q 258.9 105.0, 259.7 105.0 " fill="#FF0000"/>
<path class="atom-27" d="M 264.5 109.2 L 265.2 109.2 L 265.2 111.4 L 267.8 111.4 L 267.8 109.2 L 268.5 109.2 L 268.5 114.4 L 267.8 114.4 L 267.8 112.0 L 265.2 112.0 L 265.2 114.4 L 264.5 114.4 L 264.5 109.2 " fill="#000000"/>
<path class="atom-28" d="M 222.4 84.3 L 223.1 84.3 L 223.1 86.5 L 225.7 86.5 L 225.7 84.3 L 226.4 84.3 L 226.4 89.5 L 225.7 89.5 L 225.7 87.1 L 223.1 87.1 L 223.1 89.5 L 222.4 89.5 L 222.4 84.3 " fill="#000000"/>
<path class="atom-29" d="M 269.7 43.9 L 270.4 43.9 L 270.4 46.1 L 273.0 46.1 L 273.0 43.9 L 273.7 43.9 L 273.7 49.1 L 273.0 49.1 L 273.0 46.7 L 270.4 46.7 L 270.4 49.1 L 269.7 49.1 L 269.7 43.9 " fill="#000000"/>
<path class="legend" d="M 225.1 184.2 Q 225.1 181.3, 226.4 179.9 Q 227.8 178.4, 230.3 178.4 Q 232.6 178.4, 233.9 180.0 L 232.8 180.9 Q 231.9 179.7, 230.3 179.7 Q 228.6 179.7, 227.7 180.8 Q 226.8 182.0, 226.8 184.2 Q 226.8 186.4, 227.7 187.6 Q 228.6 188.7, 230.5 188.7 Q 231.7 188.7, 233.2 188.0 L 233.6 189.2 Q 233.0 189.5, 232.1 189.8 Q 231.2 190.0, 230.2 190.0 Q 227.8 190.0, 226.4 188.5 Q 225.1 187.0, 225.1 184.2 " fill="#000000"/>
<path class="legend" d="M 240.8 183.9 Q 241.8 184.2, 242.4 184.9 Q 242.9 185.5, 242.9 186.5 Q 242.9 188.1, 241.9 189.0 Q 240.9 189.8, 239.1 189.8 L 235.3 189.8 L 235.3 178.5 L 238.6 178.5 Q 240.5 178.5, 241.5 179.3 Q 242.5 180.1, 242.5 181.5 Q 242.5 183.2, 240.8 183.9 M 236.8 179.8 L 236.8 183.3 L 238.6 183.3 Q 239.7 183.3, 240.3 182.9 Q 240.9 182.4, 240.9 181.5 Q 240.9 179.8, 238.6 179.8 L 236.8 179.8 M 239.1 188.6 Q 240.2 188.6, 240.8 188.0 Q 241.3 187.5, 241.3 186.5 Q 241.3 185.6, 240.7 185.1 Q 240.1 184.6, 238.8 184.6 L 236.8 184.6 L 236.8 188.6 L 239.1 188.6 " fill="#000000"/>
<path class="legend" d="M 250.5 189.8 L 247.8 185.2 L 247.8 185.2 L 246.0 185.2 L 246.0 189.8 L 244.4 189.8 L 244.4 178.5 L 247.8 178.5 Q 249.7 178.5, 250.7 179.4 Q 251.7 180.3, 251.7 181.8 Q 251.7 183.0, 251.1 183.9 Q 250.5 184.7, 249.3 185.0 L 252.2 189.8 L 250.5 189.8 M 246.0 183.9 L 247.8 183.9 Q 248.9 183.9, 249.5 183.4 Q 250.1 182.8, 250.1 181.8 Q 250.1 180.8, 249.5 180.3 Q 248.9 179.8, 247.8 179.8 L 246.0 179.8 L 246.0 183.9 " fill="#000000"/>
<path class="legend" d="M 253.3 184.1 L 259.2 184.1 L 259.2 185.4 L 253.3 185.4 L 253.3 184.1 " fill="#000000"/>
<path class="legend" d="M 264.9 190.0 Q 262.8 190.0, 261.8 188.4 Q 260.7 186.9, 260.7 184.2 Q 260.7 181.4, 261.8 179.9 Q 262.8 178.4, 264.9 178.4 Q 267.0 178.4, 268.0 179.9 Q 269.0 181.4, 269.0 184.2 Q 269.0 186.9, 268.0 188.4 Q 267.0 190.0, 264.9 190.0 M 264.9 188.7 Q 266.1 188.7, 266.8 187.6 Q 267.4 186.4, 267.4 184.2 Q 267.4 181.9, 266.8 180.8 Q 266.1 179.7, 264.9 179.7 Q 263.7 179.7, 263.0 180.8 Q 262.3 181.9, 262.3 184.2 Q 262.3 186.4, 263.0 187.6 Q 263.7 188.7, 264.9 188.7 " fill="#000000"/>
<path class="legend" d="M 274.9 190.0 Q 272.9 190.0, 271.8 188.4 Q 270.8 186.9, 270.8 184.2 Q 270.8 181.4, 271.8 179.9 Q 272.9 178.4, 274.9 178.4 Q 277.0 178.4, 278.1 179.9 Q 279.1 181.4, 279.1 184.2 Q 279.1 186.9, 278.1 188.4 Q 277.0 190.0, 274.9 190.0 M 274.9 188.7 Q 276.2 188.7, 276.8 187.6 Q 277.5 186.4, 277.5 184.2 Q 277.5 181.9, 276.8 180.8 Q 276.2 179.7, 274.9 179.7 Q 273.7 179.7, 273.1 180.8 Q 272.4 181.9, 272.4 184.2 Q 272.4 186.4, 273.1 187.6 Q 273.7 188.7, 274.9 188.7 " fill="#000000"/>
<path class="legend" d="M 281.5 188.6 L 284.0 188.6 L 284.0 180.1 L 281.2 180.9 L 280.9 180.0 L 284.3 178.4 L 285.5 178.6 L 285.5 188.6 L 287.7 188.6 L 287.7 189.8 L 281.5 189.8 L 281.5 188.6 " fill="#000000"/>
<path class="legend" d="M 289.1 184.1 L 295.0 184.1 L 295.0 185.4 L 289.1 185.4 L 289.1 184.1 " fill="#000000"/>
<path class="legend" d="M 302.3 183.8 Q 303.3 184.3, 303.9 185.0 Q 304.5 185.6, 304.5 186.7 Q 304.5 187.7, 304.0 188.4 Q 303.5 189.2, 302.6 189.6 Q 301.8 190.0, 300.6 190.0 Q 298.7 190.0, 297.6 189.1 Q 296.5 188.3, 296.5 186.7 Q 296.5 185.8, 297.0 185.1 Q 297.5 184.4, 298.5 183.9 Q 297.7 183.5, 297.3 182.9 Q 296.9 182.2, 296.9 181.3 Q 296.9 180.0, 297.9 179.2 Q 298.9 178.4, 300.5 178.4 Q 302.2 178.4, 303.1 179.2 Q 304.1 180.0, 304.1 181.3 Q 304.1 182.1, 303.6 182.7 Q 303.2 183.3, 302.3 183.8 M 300.5 179.6 Q 299.6 179.6, 299.0 180.0 Q 298.5 180.5, 298.5 181.3 Q 298.5 181.9, 298.9 182.3 Q 299.2 182.7, 299.7 182.9 Q 300.2 183.1, 301.2 183.4 Q 301.9 183.0, 302.2 182.4 Q 302.5 181.9, 302.5 181.3 Q 302.5 180.5, 302.0 180.0 Q 301.5 179.6, 300.5 179.6 M 300.6 188.8 Q 301.6 188.8, 302.3 188.2 Q 302.9 187.7, 302.9 186.7 Q 302.9 186.1, 302.6 185.7 Q 302.2 185.3, 301.7 185.1 Q 301.2 184.9, 300.3 184.6 L 299.6 184.4 Q 298.8 184.8, 298.5 185.4 Q 298.1 186.0, 298.1 186.7 Q 298.1 187.7, 298.8 188.2 Q 299.5 188.8, 300.6 188.8 " fill="#000000"/>
<path class="legend" d="M 310.4 182.8 Q 311.4 182.8, 312.2 183.2 Q 313.0 183.6, 313.5 184.4 Q 313.9 185.2, 313.9 186.3 Q 313.9 187.4, 313.4 188.3 Q 312.8 189.1, 311.9 189.5 Q 310.9 190.0, 309.9 190.0 Q 308.8 190.0, 307.9 189.6 Q 306.9 189.2, 306.3 188.5 L 307.2 187.5 Q 307.8 188.0, 308.5 188.4 Q 309.2 188.7, 309.9 188.7 Q 310.9 188.7, 311.6 188.0 Q 312.3 187.4, 312.3 186.3 Q 312.3 185.1, 311.6 184.5 Q 310.9 184.0, 309.8 184.0 Q 308.8 184.0, 307.7 184.4 L 306.9 184.0 L 307.4 178.5 L 313.2 178.5 L 313.1 179.8 L 308.7 179.8 L 308.4 183.2 Q 309.4 182.8, 310.4 182.8 " fill="#000000"/>
<path class="legend" d="M 315.5 180.7 Q 315.9 179.6, 316.9 179.0 Q 317.9 178.4, 319.2 178.4 Q 321.0 178.4, 321.9 179.3 Q 322.9 180.2, 322.9 181.9 Q 322.9 183.6, 321.6 185.1 Q 320.4 186.7, 317.8 188.6 L 323.1 188.6 L 323.1 189.8 L 315.4 189.8 L 315.4 188.8 Q 317.5 187.3, 318.8 186.1 Q 320.1 185.0, 320.7 184.0 Q 321.3 183.0, 321.3 182.0 Q 321.3 180.9, 320.7 180.3 Q 320.2 179.7, 319.2 179.7 Q 318.3 179.7, 317.7 180.0 Q 317.1 180.4, 316.7 181.2 L 315.5 180.7 " fill="#000000"/>
<path class="legend" d="M 324.8 184.1 L 330.6 184.1 L 330.6 185.4 L 324.8 185.4 L 324.8 184.1 " fill="#000000"/>
<path class="legend" d="M 336.3 182.8 Q 337.3 182.8, 338.1 183.2 Q 338.9 183.6, 339.4 184.4 Q 339.8 185.2, 339.8 186.3 Q 339.8 187.4, 339.3 188.3 Q 338.7 189.1, 337.8 189.5 Q 336.8 190.0, 335.8 190.0 Q 334.7 190.0, 333.8 189.6 Q 332.8 189.2, 332.2 188.5 L 333.1 187.5 Q 333.7 188.0, 334.4 188.4 Q 335.1 188.7, 335.8 188.7 Q 336.8 188.7, 337.5 188.0 Q 338.2 187.4, 338.2 186.3 Q 338.2 185.1, 337.5 184.5 Q 336.8 184.0, 335.7 184.0 Q 334.7 184.0, 333.6 184.4 L 332.8 184.0 L 333.3 178.5 L 339.1 178.5 L 339.0 179.8 L 334.6 179.8 L 334.3 183.2 Q 335.3 182.8, 336.3 182.8 " fill="#000000"/>
<path class="legend" d="M 348.7 186.0 L 350.1 186.0 L 350.1 187.2 L 348.7 187.2 L 348.7 189.8 L 347.2 189.8 L 347.2 187.2 L 341.3 187.2 L 341.3 186.2 L 346.3 178.5 L 348.7 178.5 L 348.7 186.0 M 343.2 186.0 L 347.2 186.0 L 347.2 179.5 L 343.2 186.0 " fill="#000000"/>
<path class="legend" d="M 352.2 188.6 L 354.7 188.6 L 354.7 180.1 L 351.9 180.9 L 351.6 180.0 L 355.1 178.4 L 356.2 178.6 L 356.2 188.6 L 358.4 188.6 L 358.4 189.8 L 352.2 189.8 L 352.2 188.6 " fill="#000000"/>
<path class="legend" d="M 359.8 184.1 L 365.7 184.1 L 365.7 185.4 L 359.8 185.4 L 359.8 184.1 " fill="#000000"/>
<path class="legend" d="M 367.3 180.7 Q 367.7 179.6, 368.7 179.0 Q 369.7 178.4, 371.0 178.4 Q 372.8 178.4, 373.7 179.3 Q 374.7 180.2, 374.7 181.9 Q 374.7 183.6, 373.4 185.1 Q 372.2 186.7, 369.6 188.6 L 374.9 188.6 L 374.9 189.8 L 367.2 189.8 L 367.2 188.8 Q 369.3 187.3, 370.6 186.1 Q 371.9 185.0, 372.5 184.0 Q 373.1 183.0, 373.1 182.0 Q 373.1 180.9, 372.5 180.3 Q 372.0 179.7, 371.0 179.7 Q 370.1 179.7, 369.5 180.0 Q 368.9 180.4, 368.5 181.2 L 367.3 180.7 " fill="#000000"/>
<path class="bond-0 atom-0 atom-1" d="M 574.1,107.0 L 571.7,99.6" style="fill:none;fill-rule:evenodd;stroke:#FF0000;stroke-width:2.0px;stroke-linecap:butt;stroke-linejoin:miter;stroke-opacity:1"/>
<path class="bond-0 atom-0 atom-1" d="M 571.7,99.6 L 569.2,92.2" style="fill:none;fill-rule:evenodd;stroke:#000000;stroke-width:2.0px;stroke-linecap:butt;stroke-linejoin:miter;stroke-opacity:1"/>
<path class="bond-0 atom-0 atom-1" d="M 576.6,106.2 L 574.2,98.8" style="fill:none;fill-rule:evenodd;stroke:#FF0000;stroke-width:2.0px;stroke-linecap:butt;stroke-linejoin:miter;stroke-opacity:1"/>
<path class="bond-0 atom-0 atom-1" d="M 574.2,98.8 L 571.7,91.4" style="fill:none;fill-rule:evenodd;stroke:#000000;stroke-width:2.0px;stroke-linecap:butt;stroke-linejoin:miter;stroke-opacity:1"/>
<path class="bond-1 atom-1 atom-2" d="M 570.7,92.5 L 575.3,87.4" style="fill:none;fill-rule:evenodd;stroke:#000000;stroke-width:2.0px;stroke-linecap:butt;stroke-linejoin:miter;stroke-opacity:1"/>
<path class="bond-1 atom-1 atom-2" d="M 575.3,87.4 L 579.9,82.2" style="fill:none;fill-rule:evenodd;stroke:#FF0000;stroke-width:2.0px;stroke-linecap:butt;stroke-linejoin:miter;stroke-opacity:1"/>
<path class="bond-2 atom-1 atom-3" d="M 570.7,92.5 L 552.9,88.8" style="fill:none;fill-rule:evenodd;stroke:#000000;stroke-width:2.0px;stroke-linecap:butt;stroke-linejoin:miter;stroke-opacity:1"/>
<path class="bond-3 atom-3 atom-4" d="M 552.9,88.8 L 540.9,102.4" style="fill:none;fill-rule:evenodd;stroke:#000000;stroke-width:2.0px;stroke-linecap:butt;stroke-linejoin:miter;stroke-opacity:1"/>
<path class="bond-4 atom-4 atom-5" d="M 540.9,102.4 L 523.1,98.7" style="fill:none;fill-rule:evenodd;stroke:#000000;stroke-width:2.0px;stroke-linecap:butt;stroke-linejoin:miter;stroke-opacity:1"/>
<path class="bond-5 atom-5 atom-6" d="M 524.6,99.0 L 522.1,91.7" style="fill:none;fill-rule:evenodd;stroke:#000000;stroke-width:2.0px;stroke-linecap:butt;stroke-linejoin:miter;stroke-opacity:1"/>
<path class="bond-5 atom-5 atom-6" d="M 522.1,91.7 L 519.7,84.3" style="fill:none;fill-rule:evenodd;stroke:#FF0000;stroke-width:2.0px;stroke-linecap:butt;stroke-linejoin:miter;stroke-opacity:1"/>
<path class="bond-5 atom-5 atom-6" d="M 522.1,99.8 L 519.6,92.5" style="fill:none;fill-rule:evenodd;stroke:#000000;stroke-width:2.0px;stroke-linecap:butt;stroke-linejoin:miter;stroke-opacity:1"/>
<path class="bond-5 atom-5 atom-6" d="M 519.6,92.5 L 517.2,85.1" style="fill:none;fill-rule:evenodd;stroke:#FF0000;stroke-width:2.0px;stroke-linecap:butt;stroke-linejoin:miter;stroke-opacity:1"/>
<path class="bond-6 atom-5 atom-7" d="M 523.1,98.7 L 518.5,103.9" style="fill:none;fill-rule:evenodd;stroke:#000000;stroke-width:2.0px;stroke-linecap:butt;stroke-linejoin:miter;stroke-opacity:1"/>
<path class="bond-6 atom-5 atom-7" d="M 518.5,103.9 L 513.8,109.1" style="fill:none;fill-rule:evenodd;stroke:#FF0000;stroke-width:2.0px;stroke-linecap:butt;stroke-linejoin:miter;stroke-opacity:1"/>
<path class="bond-7 atom-7 atom-8" d="M 508.1,111.7 L 500.6,110.1" style="fill:none;fill-rule:evenodd;stroke:#FF0000;stroke-width:2.0px;stroke-linecap:butt;stroke-linejoin:miter;stroke-opacity:1"/>
<path class="bond-7 atom-7 atom-8" d="M 500.6,110.1 L 493.2,108.6" style="fill:none;fill-rule:evenodd;stroke:#000000;stroke-width:2.0px;stroke-linecap:butt;stroke-linejoin:miter;stroke-opacity:1"/>
<path class="bond-8 atom-8 atom-9" d="M 493.2,108.6 L 490.9,101.6" style="fill:none;fill-rule:evenodd;stroke:#000000;stroke-width:2.0px;stroke-linecap:butt;stroke-linejoin:miter;stroke-opacity:1"/>
<path class="bond-8 atom-8 atom-9" d="M 490.9,101.6 L 488.6,94.6" style="fill:none;fill-rule:evenodd;stroke:#FF0000;stroke-width:2.0px;stroke-linecap:butt;stroke-linejoin:miter;stroke-opacity:1"/>
<path class="bond-9 atom-9 atom-10" d="M 484.6,90.7 L 477.2,89.2" style="fill:none;fill-rule:evenodd;stroke:#FF0000;stroke-width:2.0px;stroke-linecap:butt;stroke-linejoin:miter;stroke-opacity:1"/>
<path class="bond-9 atom-9 atom-10" d="M 477.2,89.2 L 469.7,87.6" style="fill:none;fill-rule:evenodd;stroke:#000000;stroke-width:2.0px;stroke-linecap:butt;stroke-linejoin:miter;stroke-opacity:1"/>
<path class="bond-10 atom-10 atom-11" d="M 469.7,87.6 L 464.7,84.1" style="fill:none;fill-rule:evenodd;stroke:#000000;stroke-width:2.0px;stroke-linecap:butt;stroke-linejoin:miter;stroke-opacity:1"/>
<path class="bond-10 atom-10 atom-11" d="M 464.7,84.1 L 459.7,80.6" style="fill:none;fill-rule:evenodd;stroke:#FF0000;stroke-width:2.0px;stroke-linecap:butt;stroke-linejoin:miter;stroke-opacity:1"/>
<path class="bond-11 atom-11 atom-12" d="M 456.7,75.4 L 456.8,67.9" style="fill:none;fill-rule:evenodd;stroke:#FF0000;stroke-width:2.0px;stroke-linecap:butt;stroke-linejoin:miter;stroke-opacity:1"/>
<path class="bond-11 atom-11 atom-12" d="M 456.8,67.9 L 456.8,60.4" style="fill:none;fill-rule:evenodd;stroke:#000000;stroke-width:2.0px;stroke-linecap:butt;stroke-linejoin:miter;stroke-opacity:1"/>
<path class="bond-12 atom-12 atom-13" d="M 456.8,60.4 L 457.0,68.3" style="fill:none;fill-rule:evenodd;stroke:#000000;stroke-width:2.0px;stroke-linecap:butt;stroke-linejoin:miter;stroke-opacity:1"/>
<path class="bond-12 atom-12 atom-13" d="M 457.0,68.3 L 457.1,76.1" style="fill:none;fill-rule:evenodd;stroke:#FF0000;stroke-width:2.0px;stroke-linecap:butt;stroke-linejoin:miter;stroke-opacity:1"/>
<path class="bond-13 atom-13 atom-14" d="M 457.2,79.3 L 457.3,82.3" style="fill:none;fill-rule:evenodd;stroke:#FF0000;stroke-width:2.0px;stroke-linecap:butt;stroke-linejoin:miter;stroke-opacity:1"/>
<path class="bond-14 atom-14 atom-15" d="M 457.3,85.6 L 457.5,93.4" style="fill:none;fill-rule:evenodd;stroke:#FF0000;stroke-width:2.0px;stroke-linecap:butt;stroke-linejoin:miter;stroke-opacity:1"/>
<path class="bond-14 atom-14 atom-15" d="M 457.5,93.4 L 457.6,101.2" style="fill:none;fill-rule:evenodd;stroke:#000000;stroke-width:2.0px;stroke-linecap:butt;stroke-linejoin:miter;stroke-opacity:1"/>
<path class="bond-15 atom-15 atom-16" d="M 457.6,101.2 L 439.9,97.5" style="fill:none;fill-rule:evenodd;stroke:#000000;stroke-width:2.0px;stroke-linecap:butt;stroke-linejoin:miter;stroke-opacity:1"/>
<path class="bond-16 atom-16 atom-17" d="M 439.9,97.5 L 431.7,81.3" style="fill:none;fill-rule:evenodd;stroke:#000000;stroke-width:2.0px;stroke-linecap:butt;stroke-linejoin:miter;stroke-opacity:1"/>
<path class="bond-17 atom-17 atom-18" d="M 431.7,81.3 L 439.2,64.8" style="fill:none;fill-rule:evenodd;stroke:#000000;stroke-width:2.0px;stroke-linecap:butt;stroke-linejoin:miter;stroke-opacity:1"/>
<path class="bond-18 atom-16 atom-19" d="M 439.9,97.5 L 427.8,111.1" style="fill:none;fill-rule:evenodd;stroke:#000000;stroke-width:2.0px;stroke-linecap:butt;stroke-linejoin:miter;stroke-opacity:1"/>
<path class="bond-19 atom-19 atom-20" d="M 427.8,111.1 L 410.0,107.4" style="fill:none;fill-rule:evenodd;stroke:#000000;stroke-width:2.0px;stroke-linecap:butt;stroke-linejoin:miter;stroke-opacity:1"/>
<path class="bond-20 atom-19 atom-21" d="M 427.8,111.1 L 433.5,128.3" style="fill:none;fill-rule:evenodd;stroke:#000000;stroke-width:2.0px;stroke-linecap:butt;stroke-linejoin:miter;stroke-opacity:1"/>
<path class="bond-21 atom-21 atom-22" d="M 433.5,128.3 L 451.3,132.0" style="fill:none;fill-rule:evenodd;stroke:#000000;stroke-width:2.0px;stroke-linecap:butt;stroke-linejoin:miter;stroke-opacity:1"/>
<path class="bond-22 atom-22 atom-23" d="M 451.3,132.0 L 463.3,118.4" style="fill:none;fill-rule:evenodd;stroke:#000000;stroke-width:2.0px;stroke-linecap:butt;stroke-linejoin:miter;stroke-opacity:1"/>
<path class="bond-23 atom-23 atom-24" d="M 463.3,118.4 L 481.1,122.1" style="fill:none;fill-rule:evenodd;stroke:#000000;stroke-width:2.0px;stroke-linecap:butt;stroke-linejoin:miter;stroke-opacity:1"/>
<path class="bond-24 atom-24 atom-25" d="M 481.1,122.1 L 486.8,139.4" style="fill:none;fill-rule:evenodd;stroke:#000000;stroke-width:2.0px;stroke-linecap:butt;stroke-linejoin:miter;stroke-opacity:1"/>
<path class="bond-25 atom-12 atom-26" d="M 456.8,60.4 L 460.5,42.6" style="fill:none;fill-rule:evenodd;stroke:#000000;stroke-width:2.0px;stroke-linecap:butt;stroke-linejoin:miter;stroke-opacity:1"/>
<path class="bond-26 atom-24 atom-8" d="M 481.1,122.1 L 493.2,108.6" style="fill:none;fill-rule:evenodd;stroke:#000000;stroke-width:2.0px;stroke-linecap:butt;stroke-linejoin:miter;stroke-opacity:1"/>
<path class="bond-27 atom-15 atom-10" d="M 457.6,101.2 L 469.7,87.6" style="fill:none;fill-rule:evenodd;stroke:#000000;stroke-width:2.0px;stroke-linecap:butt;stroke-linejoin:miter;stroke-opacity:1"/>
<path class="bond-28 atom-18 atom-12" d="M 439.2,64.8 L 456.8,60.4" style="fill:none;fill-rule:evenodd;stroke:#000000;stroke-width:2.0px;stroke-linecap:butt;stroke-linejoin:miter;stroke-opacity:1"/>
<path class="bond-29 atom-23 atom-15" d="M 463.3,118.4 L 457.6,101.2" style="fill:none;fill-rule:evenodd;stroke:#000000;stroke-width:2.0px;stroke-linecap:butt;stroke-linejoin:miter;stroke-opacity:1"/>
<path d="M 571.0,92.3 L 570.7,92.5 L 569.8,92.3" style="fill:none;stroke:#000000;stroke-width:2.0px;stroke-linecap:butt;stroke-linejoin:miter;stroke-opacity:1;"/>
<path d="M 553.8,89.0 L 552.9,88.8 L 552.3,89.5" style="fill:none;stroke:#000000;stroke-width:2.0px;stroke-linecap:butt;stroke-linejoin:miter;stroke-opacity:1;"/>
<path d="M 541.5,101.7 L 540.9,102.4 L 540.0,102.2" style="fill:none;stroke:#000000;stroke-width:2.0px;stroke-linecap:butt;stroke-linejoin:miter;stroke-opacity:1;"/>
<path d="M 524.0,98.9 L 523.1,98.7 L 522.8,99.0" style="fill:none;stroke:#000000;stroke-width:2.0px;stroke-linecap:butt;stroke-linejoin:miter;stroke-opacity:1;"/>
<path d="M 432.1,82.1 L 431.7,81.3 L 432.0,80.5" style="fill:none;stroke:#000000;stroke-width:2.0px;stroke-linecap:butt;stroke-linejoin:miter;stroke-opacity:1;"/>
<path d="M 438.8,65.6 L 439.2,64.8 L 440.1,64.6" style="fill:none;stroke:#000000;stroke-width:2.0px;stroke-linecap:butt;stroke-linejoin:miter;stroke-opacity:1;"/>
<path d="M 433.2,127.5 L 433.5,128.3 L 434.4,128.5" style="fill:none;stroke:#000000;stroke-width:2.0px;stroke-linecap:butt;stroke-linejoin:miter;stroke-opacity:1;"/>
<path d="M 450.4,131.8 L 451.3,132.0 L 451.9,131.3" style="fill:none;stroke:#000000;stroke-width:2.0px;stroke-linecap:butt;stroke-linejoin:miter;stroke-opacity:1;"/>
<path class="atom-0" d="M 574.1 109.8 Q 574.1 108.6, 574.7 107.9 Q 575.3 107.2, 576.4 107.2 Q 577.6 107.2, 578.2 107.9 Q 578.8 108.6, 578.8 109.8 Q 578.8 111.0, 578.2 111.7 Q 577.6 112.5, 576.4 112.5 Q 575.3 112.5, 574.7 111.7 Q 574.1 111.0, 574.1 109.8 M 576.4 111.9 Q 577.2 111.9, 577.6 111.3 Q 578.1 110.8, 578.1 109.8 Q 578.1 108.8, 577.6 108.3 Q 577.2 107.8, 576.4 107.8 Q 575.6 107.8, 575.2 108.3 Q 574.8 108.8, 574.8 109.8 Q 574.8 110.8, 575.2 111.3 Q 575.6 111.9, 576.4 111.9 " fill="#FF0000"/>
<path class="atom-2" d="M 580.5 79.0 Q 580.5 77.8, 581.1 77.1 Q 581.7 76.4, 582.8 76.4 Q 584.0 76.4, 584.6 77.1 Q 585.2 77.8, 585.2 79.0 Q 585.2 80.2, 584.6 80.9 Q 583.9 81.7, 582.8 81.7 Q 581.7 81.7, 581.1 80.9 Q 580.5 80.2, 580.5 79.0 M 582.8 81.1 Q 583.6 81.1, 584.0 80.5 Q 584.4 80.0, 584.4 79.0 Q 584.4 78.0, 584.0 77.5 Q 583.6 77.0, 582.8 77.0 Q 582.0 77.0, 581.6 77.5 Q 581.2 78.0, 581.2 79.0 Q 581.2 80.0, 581.6 80.5 Q 582.0 81.1, 582.8 81.1 " fill="#FF0000"/>
<path class="atom-2" d="M 586.0 76.4 L 586.7 76.4 L 586.7 78.6 L 589.3 78.6 L 589.3 76.4 L 590.0 76.4 L 590.0 81.6 L 589.3 81.6 L 589.3 79.2 L 586.7 79.2 L 586.7 81.6 L 586.0 81.6 L 586.0 76.4 " fill="#FF0000"/>
<path class="atom-6" d="M 515.0 81.5 Q 515.0 80.2, 515.6 79.6 Q 516.2 78.9, 517.4 78.9 Q 518.5 78.9, 519.1 79.6 Q 519.7 80.2, 519.7 81.5 Q 519.7 82.7, 519.1 83.4 Q 518.5 84.1, 517.4 84.1 Q 516.2 84.1, 515.6 83.4 Q 515.0 82.7, 515.0 81.5 M 517.4 83.6 Q 518.2 83.6, 518.6 83.0 Q 519.0 82.5, 519.0 81.5 Q 519.0 80.5, 518.6 80.0 Q 518.2 79.4, 517.4 79.4 Q 516.6 79.4, 516.2 80.0 Q 515.7 80.5, 515.7 81.5 Q 515.7 82.5, 516.2 83.0 Q 516.6 83.6, 517.4 83.6 " fill="#FF0000"/>
<path class="atom-7" d="M 508.6 112.3 Q 508.6 111.0, 509.2 110.4 Q 509.9 109.7, 511.0 109.7 Q 512.1 109.7, 512.7 110.4 Q 513.4 111.0, 513.4 112.3 Q 513.4 113.5, 512.7 114.2 Q 512.1 114.9, 511.0 114.9 Q 509.9 114.9, 509.2 114.2 Q 508.6 113.5, 508.6 112.3 M 511.0 114.4 Q 511.8 114.4, 512.2 113.8 Q 512.6 113.3, 512.6 112.3 Q 512.6 111.3, 512.2 110.8 Q 511.8 110.2, 511.0 110.2 Q 510.2 110.2, 509.8 110.8 Q 509.4 111.3, 509.4 112.3 Q 509.4 113.3, 509.8 113.8 Q 510.2 114.4, 511.0 114.4 " fill="#FF0000"/>
<path class="atom-9" d="M 485.2 91.3 Q 485.2 90.1, 485.8 89.4 Q 486.4 88.7, 487.5 88.7 Q 488.7 88.7, 489.3 89.4 Q 489.9 90.1, 489.9 91.3 Q 489.9 92.6, 489.3 93.3 Q 488.6 94.0, 487.5 94.0 Q 486.4 94.0, 485.8 93.3 Q 485.2 92.6, 485.2 91.3 M 487.5 93.4 Q 488.3 93.4, 488.7 92.9 Q 489.2 92.4, 489.2 91.3 Q 489.2 90.3, 488.7 89.8 Q 488.3 89.3, 487.5 89.3 Q 486.7 89.3, 486.3 89.8 Q 485.9 90.3, 485.9 91.3 Q 485.9 92.4, 486.3 92.9 Q 486.7 93.4, 487.5 93.4 " fill="#FF0000"/>
<path class="atom-11" d="M 454.4 78.6 Q 454.4 77.3, 455.0 76.7 Q 455.6 76.0, 456.7 76.0 Q 457.9 76.0, 458.5 76.7 Q 459.1 77.3, 459.1 78.6 Q 459.1 79.8, 458.5 80.5 Q 457.8 81.2, 456.7 81.2 Q 455.6 81.2, 455.0 80.5 Q 454.4 79.8, 454.4 78.6 M 456.7 80.7 Q 457.5 80.7, 457.9 80.1 Q 458.4 79.6, 458.4 78.6 Q 458.4 77.6, 457.9 77.1 Q 457.5 76.5, 456.7 76.5 Q 455.9 76.5, 455.5 77.1 Q 455.1 77.6, 455.1 78.6 Q 455.1 79.6, 455.5 80.1 Q 455.9 80.7, 456.7 80.7 " fill="#FF0000"/>
<path class="atom-13" d="M 454.9 79.3 Q 454.9 78.1, 455.5 77.4 Q 456.1 76.7, 457.2 76.7 Q 458.4 76.7, 459.0 77.4 Q 459.6 78.1, 459.6 79.3 Q 459.6 80.6, 459.0 81.3 Q 458.3 82.0, 457.2 82.0 Q 456.1 82.0, 455.5 81.3 Q 454.9 80.6, 454.9 79.3 M 457.2 81.4 Q 458.0 81.4, 458.4 80.9 Q 458.8 80.3, 458.8 79.3 Q 458.8 78.3, 458.4 77.8 Q 458.0 77.3, 457.2 77.3 Q 456.4 77.3, 456.0 77.8 Q 455.6 78.3, 455.6 79.3 Q 455.6 80.4, 456.0 80.9 Q 456.4 81.4, 457.2 81.4 " fill="#FF0000"/>
<path class="atom-14" d="M 454.9 82.3 Q 454.9 81.1, 455.5 80.4 Q 456.1 79.7, 457.3 79.7 Q 458.4 79.7, 459.0 80.4 Q 459.6 81.1, 459.6 82.3 Q 459.6 83.6, 459.0 84.3 Q 458.4 85.0, 457.3 85.0 Q 456.1 85.0, 455.5 84.3 Q 454.9 83.6, 454.9 82.3 M 457.3 84.4 Q 458.1 84.4, 458.5 83.9 Q 458.9 83.4, 458.9 82.3 Q 458.9 81.3, 458.5 80.8 Q 458.1 80.3, 457.3 80.3 Q 456.5 80.3, 456.1 80.8 Q 455.6 81.3, 455.6 82.3 Q 455.6 83.4, 456.1 83.9 Q 456.5 84.4, 457.3 84.4 " fill="#FF0000"/>
<path class="atom-11" d="M 455.5,77.4 L 455.5,79.8 L 457.9,79.8 L 457.9,77.4 L 455.5,77.4" style="fill:none;stroke:#FF0000;stroke-width:2.0px;stroke-linecap:butt;stroke-linejoin:miter;stroke-opacity:1;"/>
<path class="legend" d="M 452.1 184.2 Q 452.1 181.3, 453.4 179.9 Q 454.7 178.4, 457.3 178.4 Q 459.6 178.4, 460.8 180.0 L 459.8 180.9 Q 458.9 179.7, 457.3 179.7 Q 455.5 179.7, 454.6 180.8 Q 453.7 182.0, 453.7 184.2 Q 453.7 186.4, 454.7 187.6 Q 455.6 188.7, 457.4 188.7 Q 458.7 188.7, 460.1 188.0 L 460.6 189.2 Q 460.0 189.5, 459.1 189.8 Q 458.2 190.0, 457.2 190.0 Q 454.7 190.0, 453.4 188.5 Q 452.1 187.0, 452.1 184.2 " fill="#000000"/>
<path class="legend" d="M 464.1 178.5 L 467.8 184.5 Q 468.2 185.1, 468.8 186.2 Q 469.3 187.2, 469.4 187.3 L 469.4 178.5 L 470.9 178.5 L 470.9 189.8 L 469.3 189.8 L 465.3 183.3 Q 464.9 182.5, 464.4 181.6 Q 463.9 180.8, 463.8 180.5 L 463.8 189.8 L 462.3 189.8 L 462.3 178.5 L 464.1 178.5 " fill="#000000"/>
<path class="legend" d="M 476.4 178.5 Q 478.3 178.5, 479.3 179.4 Q 480.2 180.3, 480.2 181.8 Q 480.2 183.4, 479.2 184.3 Q 478.2 185.2, 476.4 185.2 L 474.6 185.2 L 474.6 189.8 L 473.0 189.8 L 473.0 178.5 L 476.4 178.5 M 476.4 183.9 Q 477.5 183.9, 478.1 183.4 Q 478.6 182.8, 478.6 181.8 Q 478.6 180.8, 478.1 180.3 Q 477.5 179.8, 476.4 179.8 L 474.6 179.8 L 474.6 183.9 L 476.4 183.9 " fill="#000000"/>
<path class="legend" d="M 486.0 190.0 Q 483.9 190.0, 482.8 188.4 Q 481.8 186.9, 481.8 184.2 Q 481.8 181.4, 482.8 179.9 Q 483.9 178.4, 486.0 178.4 Q 488.0 178.4, 489.1 179.9 Q 490.1 181.4, 490.1 184.2 Q 490.1 186.9, 489.1 188.4 Q 488.0 190.0, 486.0 190.0 M 486.0 188.7 Q 487.2 188.7, 487.8 187.6 Q 488.5 186.4, 488.5 184.2 Q 488.5 181.9, 487.8 180.8 Q 487.2 179.7, 486.0 179.7 Q 484.7 179.7, 484.1 180.8 Q 483.4 181.9, 483.4 184.2 Q 483.4 186.4, 484.1 187.6 Q 484.7 188.7, 486.0 188.7 " fill="#000000"/>
<path class="legend" d="M 497.4 183.9 Q 498.5 184.2, 499.0 184.9 Q 499.6 185.6, 499.6 186.7 Q 499.6 187.7, 499.1 188.4 Q 498.6 189.2, 497.7 189.6 Q 496.8 190.0, 495.7 190.0 Q 494.5 190.0, 493.6 189.6 Q 492.7 189.2, 491.9 188.3 L 492.9 187.4 Q 493.6 188.1, 494.1 188.4 Q 494.7 188.7, 495.7 188.7 Q 496.7 188.7, 497.3 188.2 Q 498.0 187.6, 498.0 186.7 Q 498.0 185.6, 497.3 185.1 Q 496.7 184.5, 495.3 184.5 L 494.5 184.5 L 494.5 183.4 L 495.2 183.4 Q 496.4 183.4, 497.1 182.8 Q 497.7 182.3, 497.7 181.3 Q 497.7 180.5, 497.2 180.1 Q 496.6 179.7, 495.7 179.7 Q 494.8 179.7, 494.2 180.0 Q 493.6 180.3, 493.1 181.2 L 492.0 180.6 Q 492.4 179.6, 493.4 179.0 Q 494.4 178.4, 495.7 178.4 Q 497.4 178.4, 498.3 179.2 Q 499.3 180.0, 499.3 181.3 Q 499.3 182.2, 498.8 182.8 Q 498.3 183.5, 497.4 183.9 " fill="#000000"/>
<path class="legend" d="M 506.7 183.9 Q 507.9 184.2, 508.4 184.9 Q 508.9 185.6, 508.9 186.7 Q 508.9 187.7, 508.4 188.4 Q 508.0 189.2, 507.1 189.6 Q 506.2 190.0, 505.1 190.0 Q 503.8 190.0, 502.9 189.6 Q 502.0 189.2, 501.3 188.3 L 502.2 187.4 Q 502.9 188.1, 503.5 188.4 Q 504.1 188.7, 505.1 188.7 Q 506.1 188.7, 506.7 188.2 Q 507.3 187.6, 507.3 186.7 Q 507.3 185.6, 506.7 185.1 Q 506.0 184.5, 504.6 184.5 L 503.8 184.5 L 503.8 183.4 L 504.5 183.4 Q 505.8 183.4, 506.4 182.8 Q 507.1 182.3, 507.1 181.3 Q 507.1 180.5, 506.5 180.1 Q 506.0 179.7, 505.1 179.7 Q 504.1 179.7, 503.5 180.0 Q 503.0 180.3, 502.5 181.2 L 501.4 180.6 Q 501.8 179.6, 502.8 179.0 Q 503.7 178.4, 505.1 178.4 Q 506.7 178.4, 507.7 179.2 Q 508.7 180.0, 508.7 181.3 Q 508.7 182.2, 508.2 182.8 Q 507.7 183.5, 506.7 183.9 " fill="#000000"/>
<path class="legend" d="M 518.0 186.0 L 519.4 186.0 L 519.4 187.2 L 518.0 187.2 L 518.0 189.8 L 516.5 189.8 L 516.5 187.2 L 510.7 187.2 L 510.7 186.2 L 515.6 178.5 L 518.0 178.5 L 518.0 186.0 M 512.5 186.0 L 516.5 186.0 L 516.5 179.5 L 512.5 186.0 " fill="#000000"/>
<path class="legend" d="M 521.6 188.6 L 524.1 188.6 L 524.1 180.1 L 521.4 180.9 L 521.0 180.0 L 524.5 178.4 L 525.6 178.6 L 525.6 188.6 L 527.8 188.6 L 527.8 189.8 L 521.6 189.8 L 521.6 188.6 " fill="#000000"/>
<path class="legend" d="M 536.7 186.0 L 538.0 186.0 L 538.0 187.2 L 536.7 187.2 L 536.7 189.8 L 535.2 189.8 L 535.2 187.2 L 529.3 187.2 L 529.3 186.2 L 534.3 178.5 L 536.7 178.5 L 536.7 186.0 M 531.2 186.0 L 535.2 186.0 L 535.2 179.5 L 531.2 186.0 " fill="#000000"/>
<path class="legend" d="M 543.7 190.0 Q 541.7 190.0, 540.6 188.4 Q 539.6 186.9, 539.6 184.2 Q 539.6 181.4, 540.6 179.9 Q 541.7 178.4, 543.7 178.4 Q 545.8 178.4, 546.9 179.9 Q 547.9 181.4, 547.9 184.2 Q 547.9 186.9, 546.9 188.4 Q 545.8 190.0, 543.7 190.0 M 543.7 188.7 Q 545.0 188.7, 545.6 187.6 Q 546.3 186.4, 546.3 184.2 Q 546.3 181.9, 545.6 180.8 Q 545.0 179.7, 543.7 179.7 Q 542.5 179.7, 541.9 180.8 Q 541.2 181.9, 541.2 184.2 Q 541.2 186.4, 541.9 187.6 Q 542.5 188.7, 543.7 188.7 " fill="#000000"/>
</svg>