<svg xmlns="http://www.w3.org/2000/svg" xmlns:rdkit="http://www.rdkit.org/xml" xmlns:xlink="http://www.w3.org/1999/xlink" version="1.1" baseProfile="full" xml:space="preserve" width="600px" height="200px" viewBox="0 0 600 200">
<!-- END OF HEADER -->
<rect style="opacity:1.0;fill:#FFFFFF;stroke:none" width="600.0" height="200.0" x="0.0" y="0.0"> </rect>
<path class="bond-0 atom-0 atom-1" d="M 38.1,132.9 L 53.4,141.1" style="fill:none;fill-rule:evenodd;stroke:#000000;stroke-width:2.0px;stroke-linecap:butt;stroke-linejoin:miter;stroke-opacity:1"/>
<path class="bond-1 atom-2 atom-1" d="M 65.9,132.0 L 53.4,141.1 L 51.0,139.8 Z" style="fill:#000000;fill-rule:evenodd;fill-opacity:1;stroke:#000000;stroke-width:0.5px;stroke-linecap:butt;stroke-linejoin:miter;stroke-opacity:1;"/>
<path class="bond-2 atom-2 atom-3" d="M 65.9,132.0 L 63.8,125.9" style="fill:none;fill-rule:evenodd;stroke:#000000;stroke-width:2.0px;stroke-linecap:butt;stroke-linejoin:miter;stroke-opacity:1"/>
<path class="bond-2 atom-2 atom-3" d="M 63.8,125.9 L 61.7,119.7" style="fill:none;fill-rule:evenodd;stroke:#FF0000;stroke-width:2.0px;stroke-linecap:butt;stroke-linejoin:miter;stroke-opacity:1"/>
<path class="bond-3 atom-3 atom-4" d="M 61.0,114.0 L 61.8,107.4" style="fill:none;fill-rule:evenodd;stroke:#FF0000;stroke-width:2.0px;stroke-linecap:butt;stroke-linejoin:miter;stroke-opacity:1"/>
<path class="bond-3 atom-3 atom-4" d="M 61.8,107.4 L 62.6,100.9" style="fill:none;fill-rule:evenodd;stroke:#000000;stroke-width:2.0px;stroke-linecap:butt;stroke-linejoin:miter;stroke-opacity:1"/>
<path class="bond-4 atom-4 atom-5" d="M 63.2,99.8 L 56.9,97.6" style="fill:none;fill-rule:evenodd;stroke:#000000;stroke-width:2.0px;stroke-linecap:butt;stroke-linejoin:miter;stroke-opacity:1"/>
<path class="bond-4 atom-4 atom-5" d="M 56.9,97.6 L 50.5,95.3" style="fill:none;fill-rule:evenodd;stroke:#FF0000;stroke-width:2.0px;stroke-linecap:butt;stroke-linejoin:miter;stroke-opacity:1"/>
<path class="bond-4 atom-4 atom-5" d="M 62.4,102.1 L 56.1,99.8" style="fill:none;fill-rule:evenodd;stroke:#000000;stroke-width:2.0px;stroke-linecap:butt;stroke-linejoin:miter;stroke-opacity:1"/>
<path class="bond-4 atom-4 atom-5" d="M 56.1,99.8 L 49.7,97.5" style="fill:none;fill-rule:evenodd;stroke:#FF0000;stroke-width:2.0px;stroke-linecap:butt;stroke-linejoin:miter;stroke-opacity:1"/>
<path class="bond-5 atom-4 atom-6" d="M 62.6,100.9 L 71.2,87.3" style="fill:none;fill-rule:evenodd;stroke:#000000;stroke-width:2.0px;stroke-linecap:butt;stroke-linejoin:miter;stroke-opacity:1"/>
<path class="bond-6 atom-6 atom-7" d="M 68.0,85.7 L 68.3,85.2" style="fill:none;fill-rule:evenodd;stroke:#000000;stroke-width:1.0px;stroke-linecap:butt;stroke-linejoin:miter;stroke-opacity:1"/>
<path class="bond-6 atom-6 atom-7" d="M 64.7,84.1 L 65.3,83.1" style="fill:none;fill-rule:evenodd;stroke:#000000;stroke-width:1.0px;stroke-linecap:butt;stroke-linejoin:miter;stroke-opacity:1"/>
<path class="bond-6 atom-6 atom-7" d="M 61.5,82.5 L 62.4,80.9" style="fill:none;fill-rule:evenodd;stroke:#000000;stroke-width:1.0px;stroke-linecap:butt;stroke-linejoin:miter;stroke-opacity:1"/>
<path class="bond-6 atom-6 atom-7" d="M 58.2,80.8 L 59.5,78.8" style="fill:none;fill-rule:evenodd;stroke:#000000;stroke-width:1.0px;stroke-linecap:butt;stroke-linejoin:miter;stroke-opacity:1"/>
<path class="bond-7 atom-6 atom-8" d="M 71.2,87.3 L 84.9,78.9" style="fill:none;fill-rule:evenodd;stroke:#000000;stroke-width:2.0px;stroke-linecap:butt;stroke-linejoin:miter;stroke-opacity:1"/>
<path class="bond-8 atom-8 atom-9" d="M 84.9,78.9 L 82.3,73.2 L 83.4,72.8 Z" style="fill:#000000;fill-rule:evenodd;fill-opacity:1;stroke:#000000;stroke-width:0.5px;stroke-linecap:butt;stroke-linejoin:miter;stroke-opacity:1;"/>
<path class="bond-8 atom-8 atom-9" d="M 82.3,73.2 L 82.0,66.7 L 79.7,67.5 Z" style="fill:#FF0000;fill-rule:evenodd;fill-opacity:1;stroke:#FF0000;stroke-width:0.5px;stroke-linecap:butt;stroke-linejoin:miter;stroke-opacity:1;"/>
<path class="bond-8 atom-8 atom-9" d="M 82.3,73.2 L 83.4,72.8 L 82.0,66.7 Z" style="fill:#FF0000;fill-rule:evenodd;fill-opacity:1;stroke:#FF0000;stroke-width:0.5px;stroke-linecap:butt;stroke-linejoin:miter;stroke-opacity:1;"/>
<path class="bond-9 atom-10 atom-9" d="M 67.0,61.6 L 67.1,60.8" style="fill:none;fill-rule:evenodd;stroke:#000000;stroke-width:1.0px;stroke-linecap:butt;stroke-linejoin:miter;stroke-opacity:1"/>
<path class="bond-9 atom-10 atom-9" d="M 70.0,62.6 L 70.3,61.0" style="fill:none;fill-rule:evenodd;stroke:#000000;stroke-width:1.0px;stroke-linecap:butt;stroke-linejoin:miter;stroke-opacity:1"/>
<path class="bond-9 atom-10 atom-9" d="M 73.1,63.6 L 73.6,61.3" style="fill:none;fill-rule:evenodd;stroke:#FF0000;stroke-width:1.0px;stroke-linecap:butt;stroke-linejoin:miter;stroke-opacity:1"/>
<path class="bond-10 atom-10 atom-11" d="M 63.9,60.6 L 58.7,45.4" style="fill:none;fill-rule:evenodd;stroke:#000000;stroke-width:2.0px;stroke-linecap:butt;stroke-linejoin:miter;stroke-opacity:1"/>
<path class="bond-11 atom-11 atom-12" d="M 58.7,45.4 L 42.9,42.3" style="fill:none;fill-rule:evenodd;stroke:#000000;stroke-width:2.0px;stroke-linecap:butt;stroke-linejoin:miter;stroke-opacity:1"/>
<path class="bond-12 atom-12 atom-13" d="M 42.9,42.3 L 28.5,35.0 L 29.8,33.0 Z" style="fill:#000000;fill-rule:evenodd;fill-opacity:1;stroke:#000000;stroke-width:0.5px;stroke-linecap:butt;stroke-linejoin:miter;stroke-opacity:1;"/>
<path class="bond-13 atom-12 atom-14" d="M 42.9,42.3 L 45.2,36.3" style="fill:none;fill-rule:evenodd;stroke:#000000;stroke-width:2.0px;stroke-linecap:butt;stroke-linejoin:miter;stroke-opacity:1"/>
<path class="bond-13 atom-12 atom-14" d="M 45.2,36.3 L 47.6,30.2" style="fill:none;fill-rule:evenodd;stroke:#FF0000;stroke-width:2.0px;stroke-linecap:butt;stroke-linejoin:miter;stroke-opacity:1"/>
<path class="bond-14 atom-14 atom-15" d="M 46.4,24.5 L 42.5,19.7" style="fill:none;fill-rule:evenodd;stroke:#FF0000;stroke-width:2.0px;stroke-linecap:butt;stroke-linejoin:miter;stroke-opacity:1"/>
<path class="bond-14 atom-14 atom-15" d="M 42.5,19.7 L 38.6,14.8" style="fill:none;fill-rule:evenodd;stroke:#000000;stroke-width:2.0px;stroke-linecap:butt;stroke-linejoin:miter;stroke-opacity:1"/>
<path class="bond-15 atom-12 atom-16" d="M 42.9,42.3 L 32.3,54.4" style="fill:none;fill-rule:evenodd;stroke:#000000;stroke-width:2.0px;stroke-linecap:butt;stroke-linejoin:miter;stroke-opacity:1"/>
<path class="bond-16 atom-16 atom-17" d="M 29.1,54.1 L 29.2,53.5" style="fill:none;fill-rule:evenodd;stroke:#000000;stroke-width:1.0px;stroke-linecap:butt;stroke-linejoin:miter;stroke-opacity:1"/>
<path class="bond-16 atom-16 atom-17" d="M 25.9,53.8 L 26.1,52.6" style="fill:none;fill-rule:evenodd;stroke:#000000;stroke-width:1.0px;stroke-linecap:butt;stroke-linejoin:miter;stroke-opacity:1"/>
<path class="bond-16 atom-16 atom-17" d="M 22.7,53.5 L 23.0,51.7" style="fill:none;fill-rule:evenodd;stroke:#FF0000;stroke-width:1.0px;stroke-linecap:butt;stroke-linejoin:miter;stroke-opacity:1"/>
<path class="bond-16 atom-16 atom-17" d="M 19.5,53.1 L 19.9,50.8" style="fill:none;fill-rule:evenodd;stroke:#FF0000;stroke-width:1.0px;stroke-linecap:butt;stroke-linejoin:miter;stroke-opacity:1"/>
<path class="bond-17 atom-16 atom-18" d="M 32.3,54.4 L 37.6,69.6" style="fill:none;fill-rule:evenodd;stroke:#000000;stroke-width:2.0px;stroke-linecap:butt;stroke-linejoin:miter;stroke-opacity:1"/>
<path class="bond-18 atom-18 atom-19" d="M 37.6,69.6 L 27.9,82.5 L 26.1,81.0 Z" style="fill:#000000;fill-rule:evenodd;fill-opacity:1;stroke:#000000;stroke-width:0.5px;stroke-linecap:butt;stroke-linejoin:miter;stroke-opacity:1;"/>
<path class="bond-19 atom-18 atom-20" d="M 37.6,69.6 L 44.1,70.9" style="fill:none;fill-rule:evenodd;stroke:#000000;stroke-width:2.0px;stroke-linecap:butt;stroke-linejoin:miter;stroke-opacity:1"/>
<path class="bond-19 atom-18 atom-20" d="M 44.1,70.9 L 50.7,72.2" style="fill:none;fill-rule:evenodd;stroke:#FF0000;stroke-width:2.0px;stroke-linecap:butt;stroke-linejoin:miter;stroke-opacity:1"/>
<path class="bond-20 atom-8 atom-21" d="M 84.9,78.9 L 100.8,77.2" style="fill:none;fill-rule:evenodd;stroke:#000000;stroke-width:2.0px;stroke-linecap:butt;stroke-linejoin:miter;stroke-opacity:1"/>
<path class="bond-21 atom-21 atom-22" d="M 101.0,73.9 L 101.5,74.0" style="fill:none;fill-rule:evenodd;stroke:#000000;stroke-width:1.0px;stroke-linecap:butt;stroke-linejoin:miter;stroke-opacity:1"/>
<path class="bond-21 atom-21 atom-22" d="M 101.1,70.7 L 102.1,70.8" style="fill:none;fill-rule:evenodd;stroke:#000000;stroke-width:1.0px;stroke-linecap:butt;stroke-linejoin:miter;stroke-opacity:1"/>
<path class="bond-21 atom-21 atom-22" d="M 101.3,67.5 L 102.7,67.7" style="fill:none;fill-rule:evenodd;stroke:#000000;stroke-width:1.0px;stroke-linecap:butt;stroke-linejoin:miter;stroke-opacity:1"/>
<path class="bond-21 atom-21 atom-22" d="M 101.4,64.3 L 103.3,64.5" style="fill:none;fill-rule:evenodd;stroke:#000000;stroke-width:1.0px;stroke-linecap:butt;stroke-linejoin:miter;stroke-opacity:1"/>
<path class="bond-21 atom-21 atom-22" d="M 101.5,61.1 L 103.9,61.3" style="fill:none;fill-rule:evenodd;stroke:#000000;stroke-width:1.0px;stroke-linecap:butt;stroke-linejoin:miter;stroke-opacity:1"/>
<path class="bond-22 atom-21 atom-23" d="M 100.8,77.2 L 116.0,82.6" style="fill:none;fill-rule:evenodd;stroke:#000000;stroke-width:2.0px;stroke-linecap:butt;stroke-linejoin:miter;stroke-opacity:1"/>
<path class="bond-23 atom-23 atom-24" d="M 116.0,82.6 L 118.7,77.2 L 119.7,77.8 Z" style="fill:#000000;fill-rule:evenodd;fill-opacity:1;stroke:#000000;stroke-width:0.5px;stroke-linecap:butt;stroke-linejoin:miter;stroke-opacity:1;"/>
<path class="bond-23 atom-23 atom-24" d="M 118.7,77.2 L 123.4,73.1 L 121.4,71.8 Z" style="fill:#FF0000;fill-rule:evenodd;fill-opacity:1;stroke:#FF0000;stroke-width:0.5px;stroke-linecap:butt;stroke-linejoin:miter;stroke-opacity:1;"/>
<path class="bond-23 atom-23 atom-24" d="M 118.7,77.2 L 119.7,77.8 L 123.4,73.1 Z" style="fill:#FF0000;fill-rule:evenodd;fill-opacity:1;stroke:#FF0000;stroke-width:0.5px;stroke-linecap:butt;stroke-linejoin:miter;stroke-opacity:1;"/>
<path class="bond-24 atom-25 atom-24" d="M 140.6,69.7 L 134.2,70.0 L 134.2,68.8 Z" style="fill:#000000;fill-rule:evenodd;fill-opacity:1;stroke:#000000;stroke-width:0.5px;stroke-linecap:butt;stroke-linejoin:miter;stroke-opacity:1;"/>
<path class="bond-24 atom-25 atom-24" d="M 134.2,70.0 L 127.8,67.9 L 127.7,70.3 Z" style="fill:#FF0000;fill-rule:evenodd;fill-opacity:1;stroke:#FF0000;stroke-width:0.5px;stroke-linecap:butt;stroke-linejoin:miter;stroke-opacity:1;"/>
<path class="bond-24 atom-25 atom-24" d="M 134.2,70.0 L 134.2,68.8 L 127.8,67.9 Z" style="fill:#FF0000;fill-rule:evenodd;fill-opacity:1;stroke:#FF0000;stroke-width:0.5px;stroke-linecap:butt;stroke-linejoin:miter;stroke-opacity:1;"/>
<path class="bond-25 atom-25 atom-26" d="M 140.6,69.7 L 143.6,75.4" style="fill:none;fill-rule:evenodd;stroke:#000000;stroke-width:2.0px;stroke-linecap:butt;stroke-linejoin:miter;stroke-opacity:1"/>
<path class="bond-25 atom-25 atom-26" d="M 143.6,75.4 L 146.6,81.1" style="fill:none;fill-rule:evenodd;stroke:#FF0000;stroke-width:2.0px;stroke-linecap:butt;stroke-linejoin:miter;stroke-opacity:1"/>
<path class="bond-26 atom-26 atom-27" d="M 150.7,84.1 L 157.4,84.3" style="fill:none;fill-rule:evenodd;stroke:#FF0000;stroke-width:2.0px;stroke-linecap:butt;stroke-linejoin:miter;stroke-opacity:1"/>
<path class="bond-26 atom-26 atom-27" d="M 157.4,84.3 L 164.1,84.6" style="fill:none;fill-rule:evenodd;stroke:#000000;stroke-width:2.0px;stroke-linecap:butt;stroke-linejoin:miter;stroke-opacity:1"/>
<path class="bond-27 atom-27 atom-28" d="M 164.1,84.6 L 172.6,98.3 L 170.5,99.4 Z" style="fill:#000000;fill-rule:evenodd;fill-opacity:1;stroke:#000000;stroke-width:0.5px;stroke-linecap:butt;stroke-linejoin:miter;stroke-opacity:1;"/>
<path class="bond-28 atom-27 atom-29" d="M 164.1,84.6 L 172.7,71.1" style="fill:none;fill-rule:evenodd;stroke:#000000;stroke-width:2.0px;stroke-linecap:butt;stroke-linejoin:miter;stroke-opacity:1"/>
<path class="bond-29 atom-29 atom-30" d="M 172.7,71.1 L 165.3,56.8" style="fill:none;fill-rule:evenodd;stroke:#000000;stroke-width:2.0px;stroke-linecap:butt;stroke-linejoin:miter;stroke-opacity:1"/>
<path class="bond-30 atom-30 atom-31" d="M 165.3,56.8 L 168.1,51.4 L 169.1,52.0 Z" style="fill:#000000;fill-rule:evenodd;fill-opacity:1;stroke:#000000;stroke-width:0.5px;stroke-linecap:butt;stroke-linejoin:miter;stroke-opacity:1;"/>
<path class="bond-30 atom-30 atom-31" d="M 168.1,51.4 L 172.8,47.3 L 170.8,46.0 Z" style="fill:#0000FF;fill-rule:evenodd;fill-opacity:1;stroke:#0000FF;stroke-width:0.5px;stroke-linecap:butt;stroke-linejoin:miter;stroke-opacity:1;"/>
<path class="bond-30 atom-30 atom-31" d="M 168.1,51.4 L 169.1,52.0 L 172.8,47.3 Z" style="fill:#0000FF;fill-rule:evenodd;fill-opacity:1;stroke:#0000FF;stroke-width:0.5px;stroke-linecap:butt;stroke-linejoin:miter;stroke-opacity:1;"/>
<path class="bond-31 atom-31 atom-32" d="M 176.2,43.4 L 183.1,43.7" style="fill:none;fill-rule:evenodd;stroke:#0000FF;stroke-width:2.0px;stroke-linecap:butt;stroke-linejoin:miter;stroke-opacity:1"/>
<path class="bond-31 atom-31 atom-32" d="M 183.1,43.7 L 190.0,44.0" style="fill:none;fill-rule:evenodd;stroke:#000000;stroke-width:2.0px;stroke-linecap:butt;stroke-linejoin:miter;stroke-opacity:1"/>
<path class="bond-32 atom-31 atom-33" d="M 172.5,40.5 L 169.5,34.8" style="fill:none;fill-rule:evenodd;stroke:#0000FF;stroke-width:2.0px;stroke-linecap:butt;stroke-linejoin:miter;stroke-opacity:1"/>
<path class="bond-32 atom-31 atom-33" d="M 169.5,34.8 L 166.5,29.0" style="fill:none;fill-rule:evenodd;stroke:#000000;stroke-width:2.0px;stroke-linecap:butt;stroke-linejoin:miter;stroke-opacity:1"/>
<path class="bond-33 atom-30 atom-34" d="M 165.3,56.8 L 149.3,56.1" style="fill:none;fill-rule:evenodd;stroke:#000000;stroke-width:2.0px;stroke-linecap:butt;stroke-linejoin:miter;stroke-opacity:1"/>
<path class="bond-34 atom-34 atom-35" d="M 147.0,52.7 L 147.7,52.4" style="fill:none;fill-rule:evenodd;stroke:#000000;stroke-width:1.0px;stroke-linecap:butt;stroke-linejoin:miter;stroke-opacity:1"/>
<path class="bond-34 atom-34 atom-35" d="M 144.8,49.3 L 146.2,48.6" style="fill:none;fill-rule:evenodd;stroke:#FF0000;stroke-width:1.0px;stroke-linecap:butt;stroke-linejoin:miter;stroke-opacity:1"/>
<path class="bond-34 atom-34 atom-35" d="M 142.6,45.9 L 144.7,44.8" style="fill:none;fill-rule:evenodd;stroke:#FF0000;stroke-width:1.0px;stroke-linecap:butt;stroke-linejoin:miter;stroke-opacity:1"/>
<path class="bond-35 atom-23 atom-36" d="M 116.0,82.6 L 127.3,94.0" style="fill:none;fill-rule:evenodd;stroke:#000000;stroke-width:2.0px;stroke-linecap:butt;stroke-linejoin:miter;stroke-opacity:1"/>
<path class="bond-36 atom-36 atom-37" d="M 127.3,94.0 L 132.7,78.8 L 134.9,79.8 Z" style="fill:#000000;fill-rule:evenodd;fill-opacity:1;stroke:#000000;stroke-width:0.5px;stroke-linecap:butt;stroke-linejoin:miter;stroke-opacity:1;"/>
<path class="bond-37 atom-36 atom-38" d="M 127.3,94.0 L 134.0,94.3" style="fill:none;fill-rule:evenodd;stroke:#000000;stroke-width:2.0px;stroke-linecap:butt;stroke-linejoin:miter;stroke-opacity:1"/>
<path class="bond-37 atom-36 atom-38" d="M 134.0,94.3 L 140.7,94.6" style="fill:none;fill-rule:evenodd;stroke:#FF0000;stroke-width:2.0px;stroke-linecap:butt;stroke-linejoin:miter;stroke-opacity:1"/>
<path class="bond-38 atom-38 atom-39" d="M 145.9,92.2 L 147.7,90.5" style="fill:none;fill-rule:evenodd;stroke:#FF0000;stroke-width:2.0px;stroke-linecap:butt;stroke-linejoin:miter;stroke-opacity:1"/>
<path class="bond-38 atom-38 atom-39" d="M 147.7,90.5 L 149.5,88.8" style="fill:none;fill-rule:evenodd;stroke:#000000;stroke-width:2.0px;stroke-linecap:butt;stroke-linejoin:miter;stroke-opacity:1"/>
<path class="bond-39 atom-36 atom-40" d="M 127.3,94.0 L 132.5,109.2" style="fill:none;fill-rule:evenodd;stroke:#000000;stroke-width:2.0px;stroke-linecap:butt;stroke-linejoin:miter;stroke-opacity:1"/>
<path class="bond-40 atom-40 atom-41" d="M 132.5,109.2 L 130.6,125.1" style="fill:none;fill-rule:evenodd;stroke:#000000;stroke-width:2.0px;stroke-linecap:butt;stroke-linejoin:miter;stroke-opacity:1"/>
<path class="bond-41 atom-41 atom-42" d="M 130.6,125.1 L 146.1,129.4 L 145.3,131.6 Z" style="fill:#000000;fill-rule:evenodd;fill-opacity:1;stroke:#000000;stroke-width:0.5px;stroke-linecap:butt;stroke-linejoin:miter;stroke-opacity:1;"/>
<path class="bond-42 atom-41 atom-43" d="M 130.6,125.1 L 122.0,138.7" style="fill:none;fill-rule:evenodd;stroke:#000000;stroke-width:2.0px;stroke-linecap:butt;stroke-linejoin:miter;stroke-opacity:1"/>
<path class="bond-43 atom-43 atom-44" d="M 120.9,139.3 L 125.4,143.8" style="fill:none;fill-rule:evenodd;stroke:#000000;stroke-width:2.0px;stroke-linecap:butt;stroke-linejoin:miter;stroke-opacity:1"/>
<path class="bond-43 atom-43 atom-44" d="M 125.4,143.8 L 129.8,148.3" style="fill:none;fill-rule:evenodd;stroke:#FF0000;stroke-width:2.0px;stroke-linecap:butt;stroke-linejoin:miter;stroke-opacity:1"/>
<path class="bond-43 atom-43 atom-44" d="M 122.6,137.6 L 127.1,142.1" style="fill:none;fill-rule:evenodd;stroke:#000000;stroke-width:2.0px;stroke-linecap:butt;stroke-linejoin:miter;stroke-opacity:1"/>
<path class="bond-43 atom-43 atom-44" d="M 127.1,142.1 L 131.5,146.6" style="fill:none;fill-rule:evenodd;stroke:#FF0000;stroke-width:2.0px;stroke-linecap:butt;stroke-linejoin:miter;stroke-opacity:1"/>
<path class="bond-44 atom-43 atom-45" d="M 122.0,138.7 L 108.3,147.1" style="fill:none;fill-rule:evenodd;stroke:#000000;stroke-width:2.0px;stroke-linecap:butt;stroke-linejoin:miter;stroke-opacity:1"/>
<path class="bond-45 atom-45 atom-46" d="M 109.6,150.1 L 109.1,150.3" style="fill:none;fill-rule:evenodd;stroke:#000000;stroke-width:1.0px;stroke-linecap:butt;stroke-linejoin:miter;stroke-opacity:1"/>
<path class="bond-45 atom-45 atom-46" d="M 110.8,153.1 L 109.9,153.4" style="fill:none;fill-rule:evenodd;stroke:#000000;stroke-width:1.0px;stroke-linecap:butt;stroke-linejoin:miter;stroke-opacity:1"/>
<path class="bond-45 atom-45 atom-46" d="M 112.1,156.0 L 110.8,156.5" style="fill:none;fill-rule:evenodd;stroke:#000000;stroke-width:1.0px;stroke-linecap:butt;stroke-linejoin:miter;stroke-opacity:1"/>
<path class="bond-45 atom-45 atom-46" d="M 113.4,159.0 L 111.6,159.6" style="fill:none;fill-rule:evenodd;stroke:#000000;stroke-width:1.0px;stroke-linecap:butt;stroke-linejoin:miter;stroke-opacity:1"/>
<path class="bond-45 atom-45 atom-46" d="M 114.7,162.0 L 112.4,162.7" style="fill:none;fill-rule:evenodd;stroke:#000000;stroke-width:1.0px;stroke-linecap:butt;stroke-linejoin:miter;stroke-opacity:1"/>
<path class="bond-46 atom-45 atom-47" d="M 108.3,147.1 L 92.3,148.8" style="fill:none;fill-rule:evenodd;stroke:#000000;stroke-width:2.0px;stroke-linecap:butt;stroke-linejoin:miter;stroke-opacity:1"/>
<path class="bond-47 atom-47 atom-48" d="M 92.3,148.8 L 92.2,155.2 L 91.0,155.1 Z" style="fill:#000000;fill-rule:evenodd;fill-opacity:1;stroke:#000000;stroke-width:0.5px;stroke-linecap:butt;stroke-linejoin:miter;stroke-opacity:1;"/>
<path class="bond-47 atom-47 atom-48" d="M 92.2,155.2 L 89.7,161.3 L 92.0,161.6 Z" style="fill:#FF0000;fill-rule:evenodd;fill-opacity:1;stroke:#FF0000;stroke-width:0.5px;stroke-linecap:butt;stroke-linejoin:miter;stroke-opacity:1;"/>
<path class="bond-47 atom-47 atom-48" d="M 92.2,155.2 L 91.0,155.1 L 89.7,161.3 Z" style="fill:#FF0000;fill-rule:evenodd;fill-opacity:1;stroke:#FF0000;stroke-width:0.5px;stroke-linecap:butt;stroke-linejoin:miter;stroke-opacity:1;"/>
<path class="bond-48 atom-47 atom-49" d="M 92.3,148.8 L 77.2,143.5" style="fill:none;fill-rule:evenodd;stroke:#000000;stroke-width:2.0px;stroke-linecap:butt;stroke-linejoin:miter;stroke-opacity:1"/>
<path class="bond-49 atom-49 atom-50" d="M 77.2,143.5 L 78.9,159.5 L 76.5,159.5 Z" style="fill:#000000;fill-rule:evenodd;fill-opacity:1;stroke:#000000;stroke-width:0.5px;stroke-linecap:butt;stroke-linejoin:miter;stroke-opacity:1;"/>
<path class="bond-50 atom-49 atom-51" d="M 77.2,143.5 L 71.1,146.1" style="fill:none;fill-rule:evenodd;stroke:#000000;stroke-width:2.0px;stroke-linecap:butt;stroke-linejoin:miter;stroke-opacity:1"/>
<path class="bond-50 atom-49 atom-51" d="M 71.1,146.1 L 65.1,148.7" style="fill:none;fill-rule:evenodd;stroke:#FF0000;stroke-width:2.0px;stroke-linecap:butt;stroke-linejoin:miter;stroke-opacity:1"/>
<path class="bond-51 atom-49 atom-2" d="M 77.2,143.5 L 65.9,132.0" style="fill:none;fill-rule:evenodd;stroke:#000000;stroke-width:2.0px;stroke-linecap:butt;stroke-linejoin:miter;stroke-opacity:1"/>
<path class="bond-52 atom-20 atom-10" d="M 55.8,69.9 L 59.8,65.2" style="fill:none;fill-rule:evenodd;stroke:#FF0000;stroke-width:2.0px;stroke-linecap:butt;stroke-linejoin:miter;stroke-opacity:1"/>
<path class="bond-52 atom-20 atom-10" d="M 59.8,65.2 L 63.9,60.6" style="fill:none;fill-rule:evenodd;stroke:#000000;stroke-width:2.0px;stroke-linecap:butt;stroke-linejoin:miter;stroke-opacity:1"/>
<path class="bond-53 atom-34 atom-25" d="M 149.3,56.1 L 140.6,69.7" style="fill:none;fill-rule:evenodd;stroke:#000000;stroke-width:2.0px;stroke-linecap:butt;stroke-linejoin:miter;stroke-opacity:1"/>
<path d="M 65.8,131.7 L 65.9,132.0 L 66.5,132.6" style="fill:none;stroke:#000000;stroke-width:2.0px;stroke-linecap:butt;stroke-linejoin:miter;stroke-opacity:1;"/>
<path d="M 62.5,101.2 L 62.6,100.9 L 63.0,100.2" style="fill:none;stroke:#000000;stroke-width:2.0px;stroke-linecap:butt;stroke-linejoin:miter;stroke-opacity:1;"/>
<path d="M 70.8,88.0 L 71.2,87.3 L 71.9,86.9" style="fill:none;stroke:#000000;stroke-width:2.0px;stroke-linecap:butt;stroke-linejoin:miter;stroke-opacity:1;"/>
<path d="M 84.2,79.3 L 84.9,78.9 L 85.7,78.8" style="fill:none;stroke:#000000;stroke-width:2.0px;stroke-linecap:butt;stroke-linejoin:miter;stroke-opacity:1;"/>
<path d="M 63.6,59.8 L 63.9,60.6 L 63.7,60.8" style="fill:none;stroke:#000000;stroke-width:2.0px;stroke-linecap:butt;stroke-linejoin:miter;stroke-opacity:1;"/>
<path d="M 58.9,46.2 L 58.7,45.4 L 57.9,45.2" style="fill:none;stroke:#000000;stroke-width:2.0px;stroke-linecap:butt;stroke-linejoin:miter;stroke-opacity:1;"/>
<path d="M 32.9,53.8 L 32.3,54.4 L 32.6,55.2" style="fill:none;stroke:#000000;stroke-width:2.0px;stroke-linecap:butt;stroke-linejoin:miter;stroke-opacity:1;"/>
<path d="M 37.3,68.9 L 37.6,69.6 L 37.9,69.7" style="fill:none;stroke:#000000;stroke-width:2.0px;stroke-linecap:butt;stroke-linejoin:miter;stroke-opacity:1;"/>
<path d="M 100.0,77.2 L 100.8,77.2 L 101.6,77.4" style="fill:none;stroke:#000000;stroke-width:2.0px;stroke-linecap:butt;stroke-linejoin:miter;stroke-opacity:1;"/>
<path d="M 115.2,82.3 L 116.0,82.6 L 116.5,83.1" style="fill:none;stroke:#000000;stroke-width:2.0px;stroke-linecap:butt;stroke-linejoin:miter;stroke-opacity:1;"/>
<path d="M 140.8,70.0 L 140.6,69.7 L 141.1,69.0" style="fill:none;stroke:#000000;stroke-width:2.0px;stroke-linecap:butt;stroke-linejoin:miter;stroke-opacity:1;"/>
<path d="M 163.8,84.6 L 164.1,84.6 L 164.6,84.0" style="fill:none;stroke:#000000;stroke-width:2.0px;stroke-linecap:butt;stroke-linejoin:miter;stroke-opacity:1;"/>
<path d="M 172.3,71.8 L 172.7,71.1 L 172.4,70.4" style="fill:none;stroke:#000000;stroke-width:2.0px;stroke-linecap:butt;stroke-linejoin:miter;stroke-opacity:1;"/>
<path d="M 165.7,57.6 L 165.3,56.8 L 164.5,56.8" style="fill:none;stroke:#000000;stroke-width:2.0px;stroke-linecap:butt;stroke-linejoin:miter;stroke-opacity:1;"/>
<path d="M 150.1,56.2 L 149.3,56.1 L 148.8,56.8" style="fill:none;stroke:#000000;stroke-width:2.0px;stroke-linecap:butt;stroke-linejoin:miter;stroke-opacity:1;"/>
<path d="M 132.2,108.4 L 132.5,109.2 L 132.4,110.0" style="fill:none;stroke:#000000;stroke-width:2.0px;stroke-linecap:butt;stroke-linejoin:miter;stroke-opacity:1;"/>
<path d="M 130.7,124.3 L 130.6,125.1 L 130.2,125.8" style="fill:none;stroke:#000000;stroke-width:2.0px;stroke-linecap:butt;stroke-linejoin:miter;stroke-opacity:1;"/>
<path d="M 122.4,138.0 L 122.0,138.7 L 121.3,139.1" style="fill:none;stroke:#000000;stroke-width:2.0px;stroke-linecap:butt;stroke-linejoin:miter;stroke-opacity:1;"/>
<path d="M 109.0,146.7 L 108.3,147.1 L 107.5,147.2" style="fill:none;stroke:#000000;stroke-width:2.0px;stroke-linecap:butt;stroke-linejoin:miter;stroke-opacity:1;"/>
<path d="M 93.1,148.8 L 92.3,148.8 L 91.6,148.6" style="fill:none;stroke:#000000;stroke-width:2.0px;stroke-linecap:butt;stroke-linejoin:miter;stroke-opacity:1;"/>
<path class="atom-3" d="M 58.6 116.8 Q 58.6 115.8, 59.1 115.1 Q 59.7 114.5, 60.7 114.5 Q 61.7 114.5, 62.2 115.1 Q 62.8 115.8, 62.8 116.8 Q 62.8 118.0, 62.2 118.6 Q 61.7 119.2, 60.7 119.2 Q 59.7 119.2, 59.1 118.6 Q 58.6 118.0, 58.6 116.8 M 60.7 118.7 Q 61.4 118.7, 61.8 118.2 Q 62.1 117.8, 62.1 116.8 Q 62.1 116.0, 61.8 115.5 Q 61.4 115.0, 60.7 115.0 Q 60.0 115.0, 59.6 115.5 Q 59.2 115.9, 59.2 116.8 Q 59.2 117.8, 59.6 118.2 Q 60.0 118.7, 60.7 118.7 " fill="#FF0000"/>
<path class="atom-5" d="M 45.4 95.5 Q 45.4 94.4, 45.9 93.8 Q 46.4 93.2, 47.5 93.2 Q 48.5 93.2, 49.0 93.8 Q 49.5 94.4, 49.5 95.5 Q 49.5 96.6, 49.0 97.2 Q 48.4 97.9, 47.5 97.9 Q 46.5 97.9, 45.9 97.2 Q 45.4 96.6, 45.4 95.5 M 47.5 97.3 Q 48.1 97.3, 48.5 96.9 Q 48.9 96.4, 48.9 95.5 Q 48.9 94.6, 48.5 94.2 Q 48.1 93.7, 47.5 93.7 Q 46.8 93.7, 46.4 94.1 Q 46.0 94.6, 46.0 95.5 Q 46.0 96.4, 46.4 96.9 Q 46.8 97.3, 47.5 97.3 " fill="#FF0000"/>
<path class="atom-9" d="M 77.6 63.7 Q 77.6 62.6, 78.1 62.0 Q 78.6 61.4, 79.6 61.4 Q 80.7 61.4, 81.2 62.0 Q 81.7 62.6, 81.7 63.7 Q 81.7 64.8, 81.2 65.4 Q 80.6 66.0, 79.6 66.0 Q 78.6 66.0, 78.1 65.4 Q 77.6 64.8, 77.6 63.7 M 79.6 65.5 Q 80.3 65.5, 80.7 65.1 Q 81.1 64.6, 81.1 63.7 Q 81.1 62.8, 80.7 62.3 Q 80.3 61.9, 79.6 61.9 Q 79.0 61.9, 78.6 62.3 Q 78.2 62.8, 78.2 63.7 Q 78.2 64.6, 78.6 65.1 Q 79.0 65.5, 79.6 65.5 " fill="#FF0000"/>
<path class="atom-14" d="M 46.6 27.3 Q 46.6 26.2, 47.1 25.6 Q 47.7 25.0, 48.7 25.0 Q 49.7 25.0, 50.2 25.6 Q 50.8 26.2, 50.8 27.3 Q 50.8 28.4, 50.2 29.1 Q 49.7 29.7, 48.7 29.7 Q 47.7 29.7, 47.1 29.1 Q 46.6 28.4, 46.6 27.3 M 48.7 29.2 Q 49.4 29.2, 49.7 28.7 Q 50.1 28.2, 50.1 27.3 Q 50.1 26.4, 49.7 26.0 Q 49.4 25.5, 48.7 25.5 Q 48.0 25.5, 47.6 26.0 Q 47.2 26.4, 47.2 27.3 Q 47.2 28.3, 47.6 28.7 Q 48.0 29.2, 48.7 29.2 " fill="#FF0000"/>
<path class="atom-17" d="M 10.0 49.1 L 10.6 49.1 L 10.6 51.0 L 12.9 51.0 L 12.9 49.1 L 13.6 49.1 L 13.6 53.6 L 12.9 53.6 L 12.9 51.5 L 10.6 51.5 L 10.6 53.6 L 10.0 53.6 L 10.0 49.1 " fill="#FF0000"/>
<path class="atom-17" d="M 14.5 51.4 Q 14.5 50.3, 15.0 49.7 Q 15.6 49.0, 16.6 49.0 Q 17.6 49.0, 18.1 49.7 Q 18.7 50.3, 18.7 51.4 Q 18.7 52.5, 18.1 53.1 Q 17.6 53.7, 16.6 53.7 Q 15.6 53.7, 15.0 53.1 Q 14.5 52.5, 14.5 51.4 M 16.6 53.2 Q 17.3 53.2, 17.6 52.7 Q 18.0 52.3, 18.0 51.4 Q 18.0 50.5, 17.6 50.0 Q 17.3 49.6, 16.6 49.6 Q 15.9 49.6, 15.5 50.0 Q 15.1 50.5, 15.1 51.4 Q 15.1 52.3, 15.5 52.7 Q 15.9 53.2, 16.6 53.2 " fill="#FF0000"/>
<path class="atom-20" d="M 51.2 72.7 Q 51.2 71.6, 51.8 71.0 Q 52.3 70.4, 53.3 70.4 Q 54.3 70.4, 54.9 71.0 Q 55.4 71.6, 55.4 72.7 Q 55.4 73.8, 54.9 74.5 Q 54.3 75.1, 53.3 75.1 Q 52.3 75.1, 51.8 74.5 Q 51.2 73.8, 51.2 72.7 M 53.3 74.6 Q 54.0 74.6, 54.4 74.1 Q 54.8 73.6, 54.8 72.7 Q 54.8 71.8, 54.4 71.4 Q 54.0 70.9, 53.3 70.9 Q 52.6 70.9, 52.3 71.4 Q 51.9 71.8, 51.9 72.7 Q 51.9 73.6, 52.3 74.1 Q 52.6 74.6, 53.3 74.6 " fill="#FF0000"/>
<path class="atom-24" d="M 122.5 69.0 Q 122.5 67.9, 123.0 67.3 Q 123.6 66.7, 124.6 66.7 Q 125.6 66.7, 126.1 67.3 Q 126.7 67.9, 126.7 69.0 Q 126.7 70.1, 126.1 70.7 Q 125.6 71.4, 124.6 71.4 Q 123.6 71.4, 123.0 70.7 Q 122.5 70.1, 122.5 69.0 M 124.6 70.9 Q 125.3 70.9, 125.7 70.4 Q 126.0 69.9, 126.0 69.0 Q 126.0 68.1, 125.7 67.7 Q 125.3 67.2, 124.6 67.2 Q 123.9 67.2, 123.5 67.7 Q 123.2 68.1, 123.2 69.0 Q 123.2 69.9, 123.5 70.4 Q 123.9 70.9, 124.6 70.9 " fill="#FF0000"/>
<path class="atom-26" d="M 146.0 84.0 Q 146.0 82.9, 146.5 82.3 Q 147.1 81.6, 148.1 81.6 Q 149.1 81.6, 149.6 82.3 Q 150.2 82.9, 150.2 84.0 Q 150.2 85.1, 149.6 85.7 Q 149.1 86.3, 148.1 86.3 Q 147.1 86.3, 146.5 85.7 Q 146.0 85.1, 146.0 84.0 M 148.1 85.8 Q 148.8 85.8, 149.1 85.3 Q 149.5 84.9, 149.5 84.0 Q 149.5 83.1, 149.1 82.6 Q 148.8 82.2, 148.1 82.2 Q 147.4 82.2, 147.0 82.6 Q 146.6 83.1, 146.6 84.0 Q 146.6 84.9, 147.0 85.3 Q 147.4 85.8, 148.1 85.8 " fill="#FF0000"/>
<path class="atom-31" d="M 172.9 41.0 L 174.4 43.4 Q 174.6 43.7, 174.8 44.1 Q 175.1 44.5, 175.1 44.5 L 175.1 41.0 L 175.7 41.0 L 175.7 45.6 L 175.1 45.6 L 173.5 42.9 Q 173.3 42.6, 173.1 42.3 Q 172.9 41.9, 172.8 41.8 L 172.8 45.6 L 172.2 45.6 L 172.2 41.0 L 172.9 41.0 " fill="#0000FF"/>
<path class="atom-35" d="M 135.3 39.6 L 135.9 39.6 L 135.9 41.6 L 138.2 41.6 L 138.2 39.6 L 138.8 39.6 L 138.8 44.2 L 138.2 44.2 L 138.2 42.1 L 135.9 42.1 L 135.9 44.2 L 135.3 44.2 L 135.3 39.6 " fill="#FF0000"/>
<path class="atom-35" d="M 139.8 41.9 Q 139.8 40.8, 140.3 40.2 Q 140.8 39.6, 141.9 39.6 Q 142.9 39.6, 143.4 40.2 Q 143.9 40.8, 143.9 41.9 Q 143.9 43.0, 143.4 43.6 Q 142.8 44.3, 141.9 44.3 Q 140.8 44.3, 140.3 43.6 Q 139.8 43.0, 139.8 41.9 M 141.9 43.8 Q 142.5 43.8, 142.9 43.3 Q 143.3 42.8, 143.3 41.9 Q 143.3 41.0, 142.9 40.6 Q 142.5 40.1, 141.9 40.1 Q 141.2 40.1, 140.8 40.6 Q 140.4 41.0, 140.4 41.9 Q 140.4 42.8, 140.8 43.3 Q 141.2 43.8, 141.9 43.8 " fill="#FF0000"/>
<path class="atom-38" d="M 141.2 94.7 Q 141.2 93.6, 141.8 93.0 Q 142.3 92.4, 143.3 92.4 Q 144.3 92.4, 144.9 93.0 Q 145.4 93.6, 145.4 94.7 Q 145.4 95.8, 144.9 96.4 Q 144.3 97.0, 143.3 97.0 Q 142.3 97.0, 141.8 96.4 Q 141.2 95.8, 141.2 94.7 M 143.3 96.5 Q 144.0 96.5, 144.4 96.1 Q 144.8 95.6, 144.8 94.7 Q 144.8 93.8, 144.4 93.3 Q 144.0 92.9, 143.3 92.9 Q 142.6 92.9, 142.2 93.3 Q 141.9 93.8, 141.9 94.7 Q 141.9 95.6, 142.2 96.1 Q 142.6 96.5, 143.3 96.5 " fill="#FF0000"/>
<path class="atom-44" d="M 131.2 150.1 Q 131.2 149.0, 131.7 148.4 Q 132.2 147.8, 133.3 147.8 Q 134.3 147.8, 134.8 148.4 Q 135.3 149.0, 135.3 150.1 Q 135.3 151.2, 134.8 151.9 Q 134.2 152.5, 133.3 152.5 Q 132.2 152.5, 131.7 151.9 Q 131.2 151.2, 131.2 150.1 M 133.3 152.0 Q 133.9 152.0, 134.3 151.5 Q 134.7 151.0, 134.7 150.1 Q 134.7 149.2, 134.3 148.8 Q 133.9 148.3, 133.3 148.3 Q 132.6 148.3, 132.2 148.8 Q 131.8 149.2, 131.8 150.1 Q 131.8 151.0, 132.2 151.5 Q 132.6 152.0, 133.3 152.0 " fill="#FF0000"/>
<path class="atom-48" d="M 88.4 164.8 Q 88.4 163.7, 88.9 163.1 Q 89.4 162.5, 90.4 162.5 Q 91.4 162.5, 92.0 163.1 Q 92.5 163.7, 92.5 164.8 Q 92.5 165.9, 92.0 166.5 Q 91.4 167.2, 90.4 167.2 Q 89.4 167.2, 88.9 166.5 Q 88.4 165.9, 88.4 164.8 M 90.4 166.7 Q 91.1 166.7, 91.5 166.2 Q 91.9 165.7, 91.9 164.8 Q 91.9 163.9, 91.5 163.5 Q 91.1 163.0, 90.4 163.0 Q 89.7 163.0, 89.4 163.5 Q 89.0 163.9, 89.0 164.8 Q 89.0 165.7, 89.4 166.2 Q 89.7 166.7, 90.4 166.7 " fill="#FF0000"/>
<path class="atom-48" d="M 93.2 162.6 L 93.9 162.6 L 93.9 164.5 L 96.2 164.5 L 96.2 162.6 L 96.8 162.6 L 96.8 167.1 L 96.2 167.1 L 96.2 165.0 L 93.9 165.0 L 93.9 167.1 L 93.2 167.1 L 93.2 162.6 " fill="#FF0000"/>
<path class="atom-51" d="M 55.9 147.5 L 56.5 147.5 L 56.5 149.5 L 58.8 149.5 L 58.8 147.5 L 59.4 147.5 L 59.4 152.1 L 58.8 152.1 L 58.8 150.0 L 56.5 150.0 L 56.5 152.1 L 55.9 152.1 L 55.9 147.5 " fill="#FF0000"/>
<path class="atom-51" d="M 60.4 149.8 Q 60.4 148.7, 60.9 148.1 Q 61.4 147.5, 62.4 147.5 Q 63.4 147.5, 64.0 148.1 Q 64.5 148.7, 64.5 149.8 Q 64.5 150.9, 64.0 151.5 Q 63.4 152.2, 62.4 152.2 Q 61.4 152.2, 60.9 151.5 Q 60.4 150.9, 60.4 149.8 M 62.4 151.6 Q 63.1 151.6, 63.5 151.2 Q 63.9 150.7, 63.9 149.8 Q 63.9 148.9, 63.5 148.5 Q 63.1 148.0, 62.4 148.0 Q 61.7 148.0, 61.4 148.5 Q 61.0 148.9, 61.0 149.8 Q 61.0 150.7, 61.4 151.2 Q 61.7 151.6, 62.4 151.6 " fill="#FF0000"/>
<path class="legend" d="M 35.1 184.1 Q 35.1 181.3, 36.4 179.9 Q 37.7 178.4, 40.2 178.4 Q 42.6 178.4, 43.8 180.0 L 42.8 180.9 Q 41.8 179.7, 40.2 179.7 Q 38.5 179.7, 37.6 180.8 Q 36.7 182.0, 36.7 184.1 Q 36.7 186.4, 37.6 187.5 Q 38.6 188.7, 40.4 188.7 Q 41.7 188.7, 43.1 187.9 L 43.6 189.1 Q 43.0 189.5, 42.1 189.7 Q 41.2 190.0, 40.2 190.0 Q 37.7 190.0, 36.4 188.5 Q 35.1 187.0, 35.1 184.1 " fill="#000000"/>
<path class="legend" d="M 45.2 178.5 L 46.8 178.5 L 46.8 188.5 L 52.0 188.5 L 52.0 189.8 L 45.2 189.8 L 45.2 178.5 " fill="#000000"/>
<path class="legend" d="M 61.5 189.8 L 60.4 186.5 L 55.9 186.5 L 54.7 189.8 L 53.2 189.8 L 57.1 178.5 L 59.0 178.5 L 63.0 189.8 L 61.5 189.8 M 56.3 185.2 L 59.9 185.2 L 58.1 180.1 L 56.3 185.2 " fill="#000000"/>
<path class="legend" d="M 70.1 189.8 L 67.4 185.2 L 67.4 185.2 L 65.5 185.2 L 65.5 189.8 L 64.0 189.8 L 64.0 178.5 L 67.4 178.5 Q 69.3 178.5, 70.3 179.4 Q 71.2 180.2, 71.2 181.8 Q 71.2 183.0, 70.7 183.8 Q 70.1 184.6, 68.9 185.0 L 71.8 189.8 L 70.1 189.8 M 65.5 183.9 L 67.4 183.9 Q 68.5 183.9, 69.1 183.4 Q 69.6 182.8, 69.6 181.8 Q 69.6 180.8, 69.1 180.3 Q 68.5 179.8, 67.4 179.8 L 65.5 179.8 L 65.5 183.9 " fill="#000000"/>
<path class="legend" d="M 73.0 178.4 L 74.5 178.4 L 74.5 189.8 L 73.0 189.8 L 73.0 178.4 " fill="#000000"/>
<path class="legend" d="M 80.2 179.8 L 76.7 179.8 L 76.7 178.5 L 85.1 178.5 L 85.1 179.8 L 81.7 179.8 L 81.7 189.8 L 80.2 189.8 L 80.2 179.8 " fill="#000000"/>
<path class="legend" d="M 85.8 178.5 L 87.4 178.5 L 87.4 183.3 L 93.2 183.3 L 93.2 178.5 L 94.7 178.5 L 94.7 189.8 L 93.2 189.8 L 93.2 184.6 L 87.4 184.6 L 87.4 189.8 L 85.8 189.8 L 85.8 178.5 " fill="#000000"/>
<path class="legend" d="M 103.0 189.8 L 100.2 185.2 L 100.2 185.2 L 98.4 185.2 L 98.4 189.8 L 96.9 189.8 L 96.9 178.5 L 100.2 178.5 Q 102.1 178.5, 103.1 179.4 Q 104.1 180.2, 104.1 181.8 Q 104.1 183.0, 103.5 183.8 Q 102.9 184.6, 101.8 185.0 L 104.7 189.8 L 103.0 189.8 M 98.4 183.9 L 100.2 183.9 Q 101.3 183.9, 101.9 183.4 Q 102.5 182.8, 102.5 181.8 Q 102.5 180.8, 101.9 180.3 Q 101.3 179.8, 100.2 179.8 L 98.4 179.8 L 98.4 183.9 " fill="#000000"/>
<path class="legend" d="M 105.8 184.1 Q 105.8 181.4, 107.2 179.9 Q 108.5 178.4, 111.0 178.4 Q 113.5 178.4, 114.9 179.9 Q 116.2 181.4, 116.2 184.1 Q 116.2 186.9, 114.9 188.4 Q 113.5 190.0, 111.0 190.0 Q 108.5 190.0, 107.2 188.4 Q 105.8 186.9, 105.8 184.1 M 111.0 188.7 Q 112.8 188.7, 113.7 187.6 Q 114.6 186.4, 114.6 184.1 Q 114.6 181.9, 113.7 180.8 Q 112.8 179.6, 111.0 179.6 Q 109.3 179.6, 108.4 180.8 Q 107.4 181.9, 107.4 184.1 Q 107.4 186.4, 108.4 187.6 Q 109.3 188.7, 111.0 188.7 " fill="#000000"/>
<path class="legend" d="M 130.8 189.8 L 129.3 189.8 L 128.1 180.6 L 125.1 189.8 L 123.5 189.8 L 120.5 180.6 L 119.3 189.8 L 117.8 189.8 L 119.3 178.5 L 121.2 178.5 L 124.3 187.6 L 127.4 178.5 L 129.3 178.5 L 130.8 189.8 " fill="#000000"/>
<path class="legend" d="M 136.3 185.1 L 132.6 178.5 L 134.3 178.5 L 137.1 183.6 L 140.0 178.5 L 141.6 178.5 L 137.9 185.1 L 137.9 189.8 L 136.3 189.8 L 136.3 185.1 " fill="#000000"/>
<path class="legend" d="M 142.4 184.1 Q 142.4 181.3, 143.8 179.9 Q 145.1 178.4, 147.6 178.4 Q 149.9 178.4, 151.2 180.0 L 150.1 180.9 Q 149.2 179.7, 147.6 179.7 Q 145.9 179.7, 145.0 180.8 Q 144.1 182.0, 144.1 184.1 Q 144.1 186.4, 145.0 187.5 Q 145.9 188.7, 147.8 188.7 Q 149.0 188.7, 150.5 187.9 L 150.9 189.1 Q 150.3 189.5, 149.4 189.7 Q 148.5 190.0, 147.5 190.0 Q 145.1 190.0, 143.8 188.5 Q 142.4 187.0, 142.4 184.1 " fill="#000000"/>
<path class="legend" d="M 152.6 178.4 L 154.1 178.4 L 154.1 189.8 L 152.6 189.8 L 152.6 178.4 " fill="#000000"/>
<path class="legend" d="M 158.1 178.5 L 161.8 184.5 Q 162.2 185.1, 162.8 186.2 Q 163.4 187.2, 163.4 187.3 L 163.4 178.5 L 164.9 178.5 L 164.9 189.8 L 163.4 189.8 L 159.4 183.3 Q 158.9 182.5, 158.4 181.6 Q 157.9 180.7, 157.8 180.5 L 157.8 189.8 L 156.3 189.8 L 156.3 178.5 L 158.1 178.5 " fill="#000000"/>
<path class="bond-0 atom-0 atom-1" d="M 294.2,127.1 L 291.3,121.2" style="fill:none;fill-rule:evenodd;stroke:#FF0000;stroke-width:2.0px;stroke-linecap:butt;stroke-linejoin:miter;stroke-opacity:1"/>
<path class="bond-0 atom-0 atom-1" d="M 291.3,121.2 L 288.4,115.3" style="fill:none;fill-rule:evenodd;stroke:#000000;stroke-width:2.0px;stroke-linecap:butt;stroke-linejoin:miter;stroke-opacity:1"/>
<path class="bond-0 atom-0 atom-1" d="M 296.4,126.0 L 293.4,120.1" style="fill:none;fill-rule:evenodd;stroke:#FF0000;stroke-width:2.0px;stroke-linecap:butt;stroke-linejoin:miter;stroke-opacity:1"/>
<path class="bond-0 atom-0 atom-1" d="M 293.4,120.1 L 290.5,114.2" style="fill:none;fill-rule:evenodd;stroke:#000000;stroke-width:2.0px;stroke-linecap:butt;stroke-linejoin:miter;stroke-opacity:1"/>
<path class="bond-1 atom-1 atom-2" d="M 289.6,115.0 L 283.1,116.6" style="fill:none;fill-rule:evenodd;stroke:#000000;stroke-width:2.0px;stroke-linecap:butt;stroke-linejoin:miter;stroke-opacity:1"/>
<path class="bond-1 atom-1 atom-2" d="M 283.1,116.6 L 276.6,118.1" style="fill:none;fill-rule:evenodd;stroke:#FF0000;stroke-width:2.0px;stroke-linecap:butt;stroke-linejoin:miter;stroke-opacity:1"/>
<path class="bond-2 atom-2 atom-3" d="M 271.3,118.2 L 264.8,116.8" style="fill:none;fill-rule:evenodd;stroke:#FF0000;stroke-width:2.0px;stroke-linecap:butt;stroke-linejoin:miter;stroke-opacity:1"/>
<path class="bond-2 atom-2 atom-3" d="M 264.8,116.8 L 258.2,115.4" style="fill:none;fill-rule:evenodd;stroke:#000000;stroke-width:2.0px;stroke-linecap:butt;stroke-linejoin:miter;stroke-opacity:1"/>
<path class="bond-3 atom-3 atom-4" d="M 258.2,115.4 L 251.4,130.0" style="fill:none;fill-rule:evenodd;stroke:#000000;stroke-width:2.0px;stroke-linecap:butt;stroke-linejoin:miter;stroke-opacity:1"/>
<path class="bond-4 atom-4 atom-5" d="M 251.4,130.0 L 235.4,131.4" style="fill:none;fill-rule:evenodd;stroke:#000000;stroke-width:2.0px;stroke-linecap:butt;stroke-linejoin:miter;stroke-opacity:1"/>
<path class="bond-5 atom-3 atom-6" d="M 258.2,115.4 L 245.5,105.5" style="fill:none;fill-rule:evenodd;stroke:#000000;stroke-width:2.0px;stroke-linecap:butt;stroke-linejoin:miter;stroke-opacity:1"/>
<path class="bond-6 atom-6 atom-7" d="M 245.5,105.5 L 238.9,106.1" style="fill:none;fill-rule:evenodd;stroke:#000000;stroke-width:2.0px;stroke-linecap:butt;stroke-linejoin:miter;stroke-opacity:1"/>
<path class="bond-6 atom-6 atom-7" d="M 238.9,106.1 L 232.2,106.7" style="fill:none;fill-rule:evenodd;stroke:#FF0000;stroke-width:2.0px;stroke-linecap:butt;stroke-linejoin:miter;stroke-opacity:1"/>
<path class="bond-7 atom-6 atom-8" d="M 245.5,105.5 L 241.0,121.0" style="fill:none;fill-rule:evenodd;stroke:#000000;stroke-width:2.0px;stroke-linecap:butt;stroke-linejoin:miter;stroke-opacity:1"/>
<path class="bond-8 atom-6 atom-9" d="M 245.5,105.5 L 238.4,91.2" style="fill:none;fill-rule:evenodd;stroke:#000000;stroke-width:2.0px;stroke-linecap:butt;stroke-linejoin:miter;stroke-opacity:1"/>
<path class="bond-9 atom-9 atom-10" d="M 238.4,91.2 L 231.9,92.7" style="fill:none;fill-rule:evenodd;stroke:#000000;stroke-width:2.0px;stroke-linecap:butt;stroke-linejoin:miter;stroke-opacity:1"/>
<path class="bond-9 atom-9 atom-10" d="M 231.9,92.7 L 225.4,94.3" style="fill:none;fill-rule:evenodd;stroke:#FF0000;stroke-width:2.0px;stroke-linecap:butt;stroke-linejoin:miter;stroke-opacity:1"/>
<path class="bond-10 atom-9 atom-11" d="M 238.4,91.2 L 238.2,75.1" style="fill:none;fill-rule:evenodd;stroke:#000000;stroke-width:2.0px;stroke-linecap:butt;stroke-linejoin:miter;stroke-opacity:1"/>
<path class="bond-11 atom-11 atom-12" d="M 238.2,75.1 L 245.0,60.5" style="fill:none;fill-rule:evenodd;stroke:#000000;stroke-width:2.0px;stroke-linecap:butt;stroke-linejoin:miter;stroke-opacity:1"/>
<path class="bond-12 atom-12 atom-13" d="M 245.9,59.8 L 240.8,55.8" style="fill:none;fill-rule:evenodd;stroke:#000000;stroke-width:2.0px;stroke-linecap:butt;stroke-linejoin:miter;stroke-opacity:1"/>
<path class="bond-12 atom-12 atom-13" d="M 240.8,55.8 L 235.7,51.8" style="fill:none;fill-rule:evenodd;stroke:#FF0000;stroke-width:2.0px;stroke-linecap:butt;stroke-linejoin:miter;stroke-opacity:1"/>
<path class="bond-12 atom-12 atom-13" d="M 244.5,61.7 L 239.3,57.7" style="fill:none;fill-rule:evenodd;stroke:#000000;stroke-width:2.0px;stroke-linecap:butt;stroke-linejoin:miter;stroke-opacity:1"/>
<path class="bond-12 atom-12 atom-13" d="M 239.3,57.7 L 234.2,53.7" style="fill:none;fill-rule:evenodd;stroke:#FF0000;stroke-width:2.0px;stroke-linecap:butt;stroke-linejoin:miter;stroke-opacity:1"/>
<path class="bond-13 atom-12 atom-14" d="M 245.0,60.5 L 257.4,50.4" style="fill:none;fill-rule:evenodd;stroke:#000000;stroke-width:2.0px;stroke-linecap:butt;stroke-linejoin:miter;stroke-opacity:1"/>
<path class="bond-14 atom-14 atom-15" d="M 257.4,50.4 L 250.3,36.0" style="fill:none;fill-rule:evenodd;stroke:#000000;stroke-width:2.0px;stroke-linecap:butt;stroke-linejoin:miter;stroke-opacity:1"/>
<path class="bond-15 atom-14 atom-16" d="M 257.4,50.4 L 273.0,46.6" style="fill:none;fill-rule:evenodd;stroke:#000000;stroke-width:2.0px;stroke-linecap:butt;stroke-linejoin:miter;stroke-opacity:1"/>
<path class="bond-16 atom-16 atom-17" d="M 273.0,46.6 L 288.7,50.0" style="fill:none;fill-rule:evenodd;stroke:#000000;stroke-width:2.0px;stroke-linecap:butt;stroke-linejoin:miter;stroke-opacity:1"/>
<path class="bond-17 atom-17 atom-18" d="M 288.7,50.0 L 294.3,46.6" style="fill:none;fill-rule:evenodd;stroke:#000000;stroke-width:2.0px;stroke-linecap:butt;stroke-linejoin:miter;stroke-opacity:1"/>
<path class="bond-17 atom-17 atom-18" d="M 294.3,46.6 L 299.9,43.3" style="fill:none;fill-rule:evenodd;stroke:#FF0000;stroke-width:2.0px;stroke-linecap:butt;stroke-linejoin:miter;stroke-opacity:1"/>
<path class="bond-18 atom-18 atom-19" d="M 302.5,38.9 L 302.4,32.3" style="fill:none;fill-rule:evenodd;stroke:#FF0000;stroke-width:2.0px;stroke-linecap:butt;stroke-linejoin:miter;stroke-opacity:1"/>
<path class="bond-18 atom-18 atom-19" d="M 302.4,32.3 L 302.3,25.7" style="fill:none;fill-rule:evenodd;stroke:#000000;stroke-width:2.0px;stroke-linecap:butt;stroke-linejoin:miter;stroke-opacity:1"/>
<path class="bond-19 atom-17 atom-20" d="M 288.7,50.0 L 286.1,34.1" style="fill:none;fill-rule:evenodd;stroke:#000000;stroke-width:2.0px;stroke-linecap:butt;stroke-linejoin:miter;stroke-opacity:1"/>
<path class="bond-20 atom-17 atom-21" d="M 288.7,50.0 L 301.4,59.8" style="fill:none;fill-rule:evenodd;stroke:#000000;stroke-width:2.0px;stroke-linecap:butt;stroke-linejoin:miter;stroke-opacity:1"/>
<path class="bond-21 atom-21 atom-22" d="M 301.4,59.8 L 306.3,55.8" style="fill:none;fill-rule:evenodd;stroke:#000000;stroke-width:2.0px;stroke-linecap:butt;stroke-linejoin:miter;stroke-opacity:1"/>
<path class="bond-21 atom-21 atom-22" d="M 306.3,55.8 L 311.2,51.8" style="fill:none;fill-rule:evenodd;stroke:#FF0000;stroke-width:2.0px;stroke-linecap:butt;stroke-linejoin:miter;stroke-opacity:1"/>
<path class="bond-22 atom-22 atom-23" d="M 316.5,50.6 L 322.7,53.0" style="fill:none;fill-rule:evenodd;stroke:#FF0000;stroke-width:2.0px;stroke-linecap:butt;stroke-linejoin:miter;stroke-opacity:1"/>
<path class="bond-22 atom-22 atom-23" d="M 322.7,53.0 L 328.9,55.3" style="fill:none;fill-rule:evenodd;stroke:#000000;stroke-width:2.0px;stroke-linecap:butt;stroke-linejoin:miter;stroke-opacity:1"/>
<path class="bond-23 atom-23 atom-24" d="M 328.9,55.3 L 329.9,61.8" style="fill:none;fill-rule:evenodd;stroke:#000000;stroke-width:2.0px;stroke-linecap:butt;stroke-linejoin:miter;stroke-opacity:1"/>
<path class="bond-23 atom-23 atom-24" d="M 329.9,61.8 L 331.0,68.4" style="fill:none;fill-rule:evenodd;stroke:#FF0000;stroke-width:2.0px;stroke-linecap:butt;stroke-linejoin:miter;stroke-opacity:1"/>
<path class="bond-24 atom-24 atom-25" d="M 334.1,72.2 L 340.3,74.5" style="fill:none;fill-rule:evenodd;stroke:#FF0000;stroke-width:2.0px;stroke-linecap:butt;stroke-linejoin:miter;stroke-opacity:1"/>
<path class="bond-24 atom-24 atom-25" d="M 340.3,74.5 L 346.5,76.9" style="fill:none;fill-rule:evenodd;stroke:#000000;stroke-width:2.0px;stroke-linecap:butt;stroke-linejoin:miter;stroke-opacity:1"/>
<path class="bond-25 atom-25 atom-26" d="M 346.5,76.9 L 349.1,92.7" style="fill:none;fill-rule:evenodd;stroke:#000000;stroke-width:2.0px;stroke-linecap:butt;stroke-linejoin:miter;stroke-opacity:1"/>
<path class="bond-26 atom-25 atom-27" d="M 346.5,76.9 L 358.9,66.7" style="fill:none;fill-rule:evenodd;stroke:#000000;stroke-width:2.0px;stroke-linecap:butt;stroke-linejoin:miter;stroke-opacity:1"/>
<path class="bond-27 atom-27 atom-28" d="M 358.9,66.7 L 356.3,50.8" style="fill:none;fill-rule:evenodd;stroke:#000000;stroke-width:2.0px;stroke-linecap:butt;stroke-linejoin:miter;stroke-opacity:1"/>
<path class="bond-28 atom-28 atom-29" d="M 356.3,50.8 L 361.4,46.7" style="fill:none;fill-rule:evenodd;stroke:#000000;stroke-width:2.0px;stroke-linecap:butt;stroke-linejoin:miter;stroke-opacity:1"/>
<path class="bond-28 atom-28 atom-29" d="M 361.4,46.7 L 366.5,42.5" style="fill:none;fill-rule:evenodd;stroke:#0000FF;stroke-width:2.0px;stroke-linecap:butt;stroke-linejoin:miter;stroke-opacity:1"/>
<path class="bond-29 atom-29 atom-30" d="M 371.0,41.5 L 377.4,43.9" style="fill:none;fill-rule:evenodd;stroke:#0000FF;stroke-width:2.0px;stroke-linecap:butt;stroke-linejoin:miter;stroke-opacity:1"/>
<path class="bond-29 atom-29 atom-30" d="M 377.4,43.9 L 383.8,46.3" style="fill:none;fill-rule:evenodd;stroke:#000000;stroke-width:2.0px;stroke-linecap:butt;stroke-linejoin:miter;stroke-opacity:1"/>
<path class="bond-30 atom-29 atom-31" d="M 368.3,37.9 L 367.2,31.3" style="fill:none;fill-rule:evenodd;stroke:#0000FF;stroke-width:2.0px;stroke-linecap:butt;stroke-linejoin:miter;stroke-opacity:1"/>
<path class="bond-30 atom-29 atom-31" d="M 367.2,31.3 L 366.2,24.8" style="fill:none;fill-rule:evenodd;stroke:#000000;stroke-width:2.0px;stroke-linecap:butt;stroke-linejoin:miter;stroke-opacity:1"/>
<path class="bond-31 atom-28 atom-32" d="M 356.3,50.8 L 341.3,45.2" style="fill:none;fill-rule:evenodd;stroke:#000000;stroke-width:2.0px;stroke-linecap:butt;stroke-linejoin:miter;stroke-opacity:1"/>
<path class="bond-32 atom-32 atom-33" d="M 341.3,45.2 L 340.3,38.7" style="fill:none;fill-rule:evenodd;stroke:#000000;stroke-width:2.0px;stroke-linecap:butt;stroke-linejoin:miter;stroke-opacity:1"/>
<path class="bond-32 atom-32 atom-33" d="M 340.3,38.7 L 339.2,32.2" style="fill:none;fill-rule:evenodd;stroke:#FF0000;stroke-width:2.0px;stroke-linecap:butt;stroke-linejoin:miter;stroke-opacity:1"/>
<path class="bond-33 atom-21 atom-34" d="M 301.4,59.8 L 308.6,74.2" style="fill:none;fill-rule:evenodd;stroke:#000000;stroke-width:2.0px;stroke-linecap:butt;stroke-linejoin:miter;stroke-opacity:1"/>
<path class="bond-34 atom-34 atom-35" d="M 308.6,74.2 L 323.0,74.3" style="fill:none;fill-rule:evenodd;stroke:#000000;stroke-width:2.0px;stroke-linecap:butt;stroke-linejoin:miter;stroke-opacity:1"/>
<path class="bond-35 atom-34 atom-36" d="M 308.6,74.2 L 308.8,90.3" style="fill:none;fill-rule:evenodd;stroke:#000000;stroke-width:2.0px;stroke-linecap:butt;stroke-linejoin:miter;stroke-opacity:1"/>
<path class="bond-36 atom-36 atom-37" d="M 308.8,90.3 L 315.3,91.7" style="fill:none;fill-rule:evenodd;stroke:#000000;stroke-width:2.0px;stroke-linecap:butt;stroke-linejoin:miter;stroke-opacity:1"/>
<path class="bond-36 atom-36 atom-37" d="M 315.3,91.7 L 321.9,93.1" style="fill:none;fill-rule:evenodd;stroke:#FF0000;stroke-width:2.0px;stroke-linecap:butt;stroke-linejoin:miter;stroke-opacity:1"/>
<path class="bond-37 atom-37 atom-38" d="M 325.4,96.6 L 327.4,102.7" style="fill:none;fill-rule:evenodd;stroke:#FF0000;stroke-width:2.0px;stroke-linecap:butt;stroke-linejoin:miter;stroke-opacity:1"/>
<path class="bond-37 atom-37 atom-38" d="M 327.4,102.7 L 329.4,108.9" style="fill:none;fill-rule:evenodd;stroke:#000000;stroke-width:2.0px;stroke-linecap:butt;stroke-linejoin:miter;stroke-opacity:1"/>
<path class="bond-38 atom-38 atom-39" d="M 329.4,108.9 L 325.3,113.5" style="fill:none;fill-rule:evenodd;stroke:#000000;stroke-width:2.0px;stroke-linecap:butt;stroke-linejoin:miter;stroke-opacity:1"/>
<path class="bond-38 atom-38 atom-39" d="M 325.3,113.5 L 321.2,118.0" style="fill:none;fill-rule:evenodd;stroke:#FF0000;stroke-width:2.0px;stroke-linecap:butt;stroke-linejoin:miter;stroke-opacity:1"/>
<path class="bond-39 atom-39 atom-40" d="M 319.6,123.8 L 321.6,130.0" style="fill:none;fill-rule:evenodd;stroke:#FF0000;stroke-width:2.0px;stroke-linecap:butt;stroke-linejoin:miter;stroke-opacity:1"/>
<path class="bond-39 atom-39 atom-40" d="M 321.6,130.0 L 323.6,136.1" style="fill:none;fill-rule:evenodd;stroke:#000000;stroke-width:2.0px;stroke-linecap:butt;stroke-linejoin:miter;stroke-opacity:1"/>
<path class="bond-40 atom-40 atom-41" d="M 323.6,136.1 L 312.8,148.1" style="fill:none;fill-rule:evenodd;stroke:#000000;stroke-width:2.0px;stroke-linecap:butt;stroke-linejoin:miter;stroke-opacity:1"/>
<path class="bond-41 atom-40 atom-42" d="M 323.6,136.1 L 339.3,139.5" style="fill:none;fill-rule:evenodd;stroke:#000000;stroke-width:2.0px;stroke-linecap:butt;stroke-linejoin:miter;stroke-opacity:1"/>
<path class="bond-42 atom-42 atom-43" d="M 339.3,139.5 L 341.3,145.8" style="fill:none;fill-rule:evenodd;stroke:#000000;stroke-width:2.0px;stroke-linecap:butt;stroke-linejoin:miter;stroke-opacity:1"/>
<path class="bond-42 atom-42 atom-43" d="M 341.3,145.8 L 343.3,152.0" style="fill:none;fill-rule:evenodd;stroke:#FF0000;stroke-width:2.0px;stroke-linecap:butt;stroke-linejoin:miter;stroke-opacity:1"/>
<path class="bond-43 atom-42 atom-44" d="M 339.3,139.5 L 350.0,127.6" style="fill:none;fill-rule:evenodd;stroke:#000000;stroke-width:2.0px;stroke-linecap:butt;stroke-linejoin:miter;stroke-opacity:1"/>
<path class="bond-44 atom-44 atom-45" d="M 350.0,127.6 L 353.9,132.5" style="fill:none;fill-rule:evenodd;stroke:#000000;stroke-width:2.0px;stroke-linecap:butt;stroke-linejoin:miter;stroke-opacity:1"/>
<path class="bond-44 atom-44 atom-45" d="M 353.9,132.5 L 357.7,137.5" style="fill:none;fill-rule:evenodd;stroke:#FF0000;stroke-width:2.0px;stroke-linecap:butt;stroke-linejoin:miter;stroke-opacity:1"/>
<path class="bond-45 atom-45 atom-46" d="M 362.5,139.9 L 369.2,139.0" style="fill:none;fill-rule:evenodd;stroke:#FF0000;stroke-width:2.0px;stroke-linecap:butt;stroke-linejoin:miter;stroke-opacity:1"/>
<path class="bond-45 atom-45 atom-46" d="M 369.2,139.0 L 375.8,138.1" style="fill:none;fill-rule:evenodd;stroke:#000000;stroke-width:2.0px;stroke-linecap:butt;stroke-linejoin:miter;stroke-opacity:1"/>
<path class="bond-46 atom-44 atom-47" d="M 350.0,127.6 L 364.2,120.1" style="fill:none;fill-rule:evenodd;stroke:#000000;stroke-width:2.0px;stroke-linecap:butt;stroke-linejoin:miter;stroke-opacity:1"/>
<path class="bond-47 atom-44 atom-48" d="M 350.0,127.6 L 345.1,112.3" style="fill:none;fill-rule:evenodd;stroke:#000000;stroke-width:2.0px;stroke-linecap:butt;stroke-linejoin:miter;stroke-opacity:1"/>
<path class="bond-48 atom-36 atom-49" d="M 308.8,90.3 L 302.0,104.8" style="fill:none;fill-rule:evenodd;stroke:#000000;stroke-width:2.0px;stroke-linecap:butt;stroke-linejoin:miter;stroke-opacity:1"/>
<path class="bond-49 atom-49 atom-50" d="M 302.0,104.8 L 310.9,116.2" style="fill:none;fill-rule:evenodd;stroke:#000000;stroke-width:2.0px;stroke-linecap:butt;stroke-linejoin:miter;stroke-opacity:1"/>
<path class="bond-50 atom-11 atom-51" d="M 238.2,75.1 L 222.5,71.7" style="fill:none;fill-rule:evenodd;stroke:#000000;stroke-width:2.0px;stroke-linecap:butt;stroke-linejoin:miter;stroke-opacity:1"/>
<path class="bond-51 atom-49 atom-1" d="M 302.0,104.8 L 289.6,115.0" style="fill:none;fill-rule:evenodd;stroke:#000000;stroke-width:2.0px;stroke-linecap:butt;stroke-linejoin:miter;stroke-opacity:1"/>
<path class="bond-52 atom-32 atom-23" d="M 341.3,45.2 L 328.9,55.3" style="fill:none;fill-rule:evenodd;stroke:#000000;stroke-width:2.0px;stroke-linecap:butt;stroke-linejoin:miter;stroke-opacity:1"/>
<path class="bond-53 atom-48 atom-38" d="M 345.1,112.3 L 329.4,108.9" style="fill:none;fill-rule:evenodd;stroke:#000000;stroke-width:2.0px;stroke-linecap:butt;stroke-linejoin:miter;stroke-opacity:1"/>
<path d="M 289.2,115.1 L 289.6,115.0 L 290.2,114.5" style="fill:none;stroke:#000000;stroke-width:2.0px;stroke-linecap:butt;stroke-linejoin:miter;stroke-opacity:1;"/>
<path d="M 251.8,129.2 L 251.4,130.0 L 250.6,130.0" style="fill:none;stroke:#000000;stroke-width:2.0px;stroke-linecap:butt;stroke-linejoin:miter;stroke-opacity:1;"/>
<path d="M 244.6,61.3 L 245.0,60.5 L 245.6,60.0" style="fill:none;stroke:#000000;stroke-width:2.0px;stroke-linecap:butt;stroke-linejoin:miter;stroke-opacity:1;"/>
<path d="M 272.2,46.8 L 273.0,46.6 L 273.8,46.8" style="fill:none;stroke:#000000;stroke-width:2.0px;stroke-linecap:butt;stroke-linejoin:miter;stroke-opacity:1;"/>
<path d="M 358.3,67.2 L 358.9,66.7 L 358.8,65.9" style="fill:none;stroke:#000000;stroke-width:2.0px;stroke-linecap:butt;stroke-linejoin:miter;stroke-opacity:1;"/>
<path d="M 345.4,113.1 L 345.1,112.3 L 344.3,112.2" style="fill:none;stroke:#000000;stroke-width:2.0px;stroke-linecap:butt;stroke-linejoin:miter;stroke-opacity:1;"/>
<path class="atom-0" d="M 294.6 129.4 Q 294.6 128.3, 295.2 127.7 Q 295.7 127.1, 296.7 127.1 Q 297.7 127.1, 298.3 127.7 Q 298.8 128.3, 298.8 129.4 Q 298.8 130.5, 298.2 131.1 Q 297.7 131.8, 296.7 131.8 Q 295.7 131.8, 295.2 131.1 Q 294.6 130.5, 294.6 129.4 M 296.7 131.3 Q 297.4 131.3, 297.8 130.8 Q 298.2 130.3, 298.2 129.4 Q 298.2 128.5, 297.8 128.1 Q 297.4 127.6, 296.7 127.6 Q 296.0 127.6, 295.6 128.1 Q 295.3 128.5, 295.3 129.4 Q 295.3 130.3, 295.6 130.8 Q 296.0 131.3, 296.7 131.3 " fill="#FF0000"/>
<path class="atom-2" d="M 271.9 118.8 Q 271.9 117.7, 272.4 117.1 Q 272.9 116.5, 273.9 116.5 Q 274.9 116.5, 275.5 117.1 Q 276.0 117.7, 276.0 118.8 Q 276.0 119.9, 275.5 120.5 Q 274.9 121.2, 273.9 121.2 Q 272.9 121.2, 272.4 120.5 Q 271.9 119.9, 271.9 118.8 M 273.9 120.6 Q 274.6 120.6, 275.0 120.2 Q 275.4 119.7, 275.4 118.8 Q 275.4 117.9, 275.0 117.5 Q 274.6 117.0, 273.9 117.0 Q 273.2 117.0, 272.9 117.4 Q 272.5 117.9, 272.5 118.8 Q 272.5 119.7, 272.9 120.2 Q 273.2 120.6, 273.9 120.6 " fill="#FF0000"/>
<path class="atom-7" d="M 223.0 104.7 L 223.6 104.7 L 223.6 106.6 L 225.9 106.6 L 225.9 104.7 L 226.5 104.7 L 226.5 109.3 L 225.9 109.3 L 225.9 107.1 L 223.6 107.1 L 223.6 109.3 L 223.0 109.3 L 223.0 104.7 " fill="#FF0000"/>
<path class="atom-7" d="M 227.5 107.0 Q 227.5 105.9, 228.0 105.3 Q 228.5 104.6, 229.5 104.6 Q 230.6 104.6, 231.1 105.3 Q 231.6 105.9, 231.6 107.0 Q 231.6 108.1, 231.1 108.7 Q 230.5 109.3, 229.5 109.3 Q 228.5 109.3, 228.0 108.7 Q 227.5 108.1, 227.5 107.0 M 229.5 108.8 Q 230.2 108.8, 230.6 108.3 Q 231.0 107.9, 231.0 107.0 Q 231.0 106.1, 230.6 105.6 Q 230.2 105.2, 229.5 105.2 Q 228.9 105.2, 228.5 105.6 Q 228.1 106.1, 228.1 107.0 Q 228.1 107.9, 228.5 108.3 Q 228.9 108.8, 229.5 108.8 " fill="#FF0000"/>
<path class="atom-10" d="M 216.2 92.7 L 216.8 92.7 L 216.8 94.6 L 219.1 94.6 L 219.1 92.7 L 219.8 92.7 L 219.8 97.2 L 219.1 97.2 L 219.1 95.1 L 216.8 95.1 L 216.8 97.2 L 216.2 97.2 L 216.2 92.7 " fill="#FF0000"/>
<path class="atom-10" d="M 220.7 94.9 Q 220.7 93.9, 221.2 93.2 Q 221.8 92.6, 222.8 92.6 Q 223.8 92.6, 224.3 93.2 Q 224.9 93.9, 224.9 94.9 Q 224.9 96.1, 224.3 96.7 Q 223.8 97.3, 222.8 97.3 Q 221.8 97.3, 221.2 96.7 Q 220.7 96.1, 220.7 94.9 M 222.8 96.8 Q 223.5 96.8, 223.8 96.3 Q 224.2 95.9, 224.2 94.9 Q 224.2 94.1, 223.8 93.6 Q 223.5 93.1, 222.8 93.1 Q 222.1 93.1, 221.7 93.6 Q 221.3 94.0, 221.3 94.9 Q 221.3 95.9, 221.7 96.3 Q 222.1 96.8, 222.8 96.8 " fill="#FF0000"/>
<path class="atom-13" d="M 230.2 50.7 Q 230.2 49.6, 230.7 49.0 Q 231.3 48.4, 232.3 48.4 Q 233.3 48.4, 233.8 49.0 Q 234.4 49.6, 234.4 50.7 Q 234.4 51.8, 233.8 52.4 Q 233.3 53.1, 232.3 53.1 Q 231.3 53.1, 230.7 52.4 Q 230.2 51.8, 230.2 50.7 M 232.3 52.5 Q 233.0 52.5, 233.4 52.1 Q 233.7 51.6, 233.7 50.7 Q 233.7 49.8, 233.4 49.4 Q 233.0 48.9, 232.3 48.9 Q 231.6 48.9, 231.2 49.3 Q 230.9 49.8, 230.9 50.7 Q 230.9 51.6, 231.2 52.1 Q 231.6 52.5, 232.3 52.5 " fill="#FF0000"/>
<path class="atom-18" d="M 300.5 41.8 Q 300.5 40.7, 301.0 40.1 Q 301.5 39.5, 302.5 39.5 Q 303.6 39.5, 304.1 40.1 Q 304.6 40.7, 304.6 41.8 Q 304.6 42.9, 304.1 43.5 Q 303.5 44.1, 302.5 44.1 Q 301.5 44.1, 301.0 43.5 Q 300.5 42.9, 300.5 41.8 M 302.5 43.6 Q 303.2 43.6, 303.6 43.2 Q 304.0 42.7, 304.0 41.8 Q 304.0 40.9, 303.6 40.4 Q 303.2 40.0, 302.5 40.0 Q 301.9 40.0, 301.5 40.4 Q 301.1 40.9, 301.1 41.8 Q 301.1 42.7, 301.5 43.2 Q 301.9 43.6, 302.5 43.6 " fill="#FF0000"/>
<path class="atom-22" d="M 311.8 49.7 Q 311.8 48.6, 312.3 48.0 Q 312.8 47.4, 313.9 47.4 Q 314.9 47.4, 315.4 48.0 Q 315.9 48.6, 315.9 49.7 Q 315.9 50.8, 315.4 51.4 Q 314.8 52.0, 313.9 52.0 Q 312.9 52.0, 312.3 51.4 Q 311.8 50.8, 311.8 49.7 M 313.9 51.5 Q 314.5 51.5, 314.9 51.0 Q 315.3 50.6, 315.3 49.7 Q 315.3 48.8, 314.9 48.3 Q 314.5 47.9, 313.9 47.9 Q 313.2 47.9, 312.8 48.3 Q 312.4 48.8, 312.4 49.7 Q 312.4 50.6, 312.8 51.0 Q 313.2 51.5, 313.9 51.5 " fill="#FF0000"/>
<path class="atom-24" d="M 329.4 71.2 Q 329.4 70.1, 329.9 69.5 Q 330.5 68.9, 331.5 68.9 Q 332.5 68.9, 333.0 69.5 Q 333.6 70.1, 333.6 71.2 Q 333.6 72.3, 333.0 72.9 Q 332.5 73.6, 331.5 73.6 Q 330.5 73.6, 329.9 72.9 Q 329.4 72.3, 329.4 71.2 M 331.5 73.0 Q 332.2 73.0, 332.5 72.6 Q 332.9 72.1, 332.9 71.2 Q 332.9 70.3, 332.5 69.9 Q 332.2 69.4, 331.5 69.4 Q 330.8 69.4, 330.4 69.9 Q 330.0 70.3, 330.0 71.2 Q 330.0 72.1, 330.4 72.6 Q 330.8 73.0, 331.5 73.0 " fill="#FF0000"/>
<path class="atom-29" d="M 367.8 38.4 L 369.3 40.8 Q 369.4 41.0, 369.6 41.5 Q 369.9 41.9, 369.9 41.9 L 369.9 38.4 L 370.5 38.4 L 370.5 42.9 L 369.9 42.9 L 368.3 40.3 Q 368.1 40.0, 367.9 39.6 Q 367.7 39.3, 367.6 39.2 L 367.6 42.9 L 367.0 42.9 L 367.0 38.4 L 367.8 38.4 " fill="#0000FF"/>
<path class="atom-33" d="M 336.6 29.3 Q 336.6 28.2, 337.2 27.6 Q 337.7 27.0, 338.7 27.0 Q 339.7 27.0, 340.3 27.6 Q 340.8 28.2, 340.8 29.3 Q 340.8 30.4, 340.3 31.1 Q 339.7 31.7, 338.7 31.7 Q 337.7 31.7, 337.2 31.1 Q 336.6 30.4, 336.6 29.3 M 338.7 31.2 Q 339.4 31.2, 339.8 30.7 Q 340.2 30.2, 340.2 29.3 Q 340.2 28.4, 339.8 28.0 Q 339.4 27.5, 338.7 27.5 Q 338.0 27.5, 337.6 28.0 Q 337.3 28.4, 337.3 29.3 Q 337.3 30.2, 337.6 30.7 Q 338.0 31.2, 338.7 31.2 " fill="#FF0000"/>
<path class="atom-33" d="M 341.5 27.1 L 342.1 27.1 L 342.1 29.0 L 344.5 29.0 L 344.5 27.1 L 345.1 27.1 L 345.1 31.6 L 344.5 31.6 L 344.5 29.5 L 342.1 29.5 L 342.1 31.6 L 341.5 31.6 L 341.5 27.1 " fill="#FF0000"/>
<path class="atom-37" d="M 322.4 93.7 Q 322.4 92.6, 322.9 92.0 Q 323.5 91.4, 324.5 91.4 Q 325.5 91.4, 326.0 92.0 Q 326.6 92.6, 326.6 93.7 Q 326.6 94.8, 326.0 95.4 Q 325.5 96.0, 324.5 96.0 Q 323.5 96.0, 322.9 95.4 Q 322.4 94.8, 322.4 93.7 M 324.5 95.5 Q 325.2 95.5, 325.5 95.0 Q 325.9 94.6, 325.9 93.7 Q 325.9 92.8, 325.5 92.3 Q 325.2 91.9, 324.5 91.9 Q 323.8 91.9, 323.4 92.3 Q 323.0 92.8, 323.0 93.7 Q 323.0 94.6, 323.4 95.0 Q 323.8 95.5, 324.5 95.5 " fill="#FF0000"/>
<path class="atom-39" d="M 316.5 120.9 Q 316.5 119.8, 317.1 119.2 Q 317.6 118.6, 318.6 118.6 Q 319.6 118.6, 320.2 119.2 Q 320.7 119.8, 320.7 120.9 Q 320.7 122.0, 320.2 122.6 Q 319.6 123.2, 318.6 123.2 Q 317.6 123.2, 317.1 122.6 Q 316.5 122.0, 316.5 120.9 M 318.6 122.7 Q 319.3 122.7, 319.7 122.3 Q 320.1 121.8, 320.1 120.9 Q 320.1 120.0, 319.7 119.5 Q 319.3 119.1, 318.6 119.1 Q 317.9 119.1, 317.6 119.5 Q 317.2 120.0, 317.2 120.9 Q 317.2 121.8, 317.6 122.3 Q 317.9 122.7, 318.6 122.7 " fill="#FF0000"/>
<path class="atom-43" d="M 342.1 154.8 Q 342.1 153.7, 342.6 153.1 Q 343.2 152.5, 344.2 152.5 Q 345.2 152.5, 345.7 153.1 Q 346.3 153.7, 346.3 154.8 Q 346.3 155.9, 345.7 156.6 Q 345.2 157.2, 344.2 157.2 Q 343.2 157.2, 342.6 156.6 Q 342.1 155.9, 342.1 154.8 M 344.2 156.7 Q 344.9 156.7, 345.3 156.2 Q 345.6 155.7, 345.6 154.8 Q 345.6 153.9, 345.3 153.5 Q 344.9 153.0, 344.2 153.0 Q 343.5 153.0, 343.1 153.5 Q 342.7 153.9, 342.7 154.8 Q 342.7 155.7, 343.1 156.2 Q 343.5 156.7, 344.2 156.7 " fill="#FF0000"/>
<path class="atom-43" d="M 347.0 152.6 L 347.6 152.6 L 347.6 154.5 L 349.9 154.5 L 349.9 152.6 L 350.5 152.6 L 350.5 157.1 L 349.9 157.1 L 349.9 155.0 L 347.6 155.0 L 347.6 157.1 L 347.0 157.1 L 347.0 152.6 " fill="#FF0000"/>
<path class="atom-45" d="M 357.8 140.3 Q 357.8 139.2, 358.4 138.6 Q 358.9 138.0, 359.9 138.0 Q 360.9 138.0, 361.5 138.6 Q 362.0 139.2, 362.0 140.3 Q 362.0 141.4, 361.4 142.0 Q 360.9 142.7, 359.9 142.7 Q 358.9 142.7, 358.4 142.0 Q 357.8 141.4, 357.8 140.3 M 359.9 142.2 Q 360.6 142.2, 361.0 141.7 Q 361.3 141.2, 361.3 140.3 Q 361.3 139.4, 361.0 139.0 Q 360.6 138.5, 359.9 138.5 Q 359.2 138.5, 358.8 139.0 Q 358.5 139.4, 358.5 140.3 Q 358.5 141.2, 358.8 141.7 Q 359.2 142.2, 359.9 142.2 " fill="#FF0000"/>
<path class="legend" d="M 253.1 184.2 Q 253.1 181.3, 254.4 179.9 Q 255.7 178.4, 258.3 178.4 Q 260.6 178.4, 261.8 180.0 L 260.8 180.9 Q 259.9 179.7, 258.3 179.7 Q 256.5 179.7, 255.6 180.8 Q 254.7 182.0, 254.7 184.2 Q 254.7 186.4, 255.7 187.6 Q 256.6 188.7, 258.4 188.7 Q 259.7 188.7, 261.1 188.0 L 261.6 189.2 Q 261.0 189.5, 260.1 189.8 Q 259.2 190.0, 258.2 190.0 Q 255.7 190.0, 254.4 188.5 Q 253.1 187.0, 253.1 184.2 " fill="#000000"/>
<path class="legend" d="M 265.1 178.5 L 268.8 184.5 Q 269.1 185.1, 269.7 186.2 Q 270.3 187.2, 270.4 187.3 L 270.4 178.5 L 271.9 178.5 L 271.9 189.8 L 270.3 189.8 L 266.3 183.3 Q 265.9 182.5, 265.4 181.6 Q 264.9 180.8, 264.7 180.5 L 264.7 189.8 L 263.3 189.8 L 263.3 178.5 L 265.1 178.5 " fill="#000000"/>
<path class="legend" d="M 277.3 178.5 Q 279.3 178.5, 280.2 179.4 Q 281.2 180.3, 281.2 181.8 Q 281.2 183.4, 280.2 184.3 Q 279.2 185.2, 277.3 185.2 L 275.5 185.2 L 275.5 189.8 L 274.0 189.8 L 274.0 178.5 L 277.3 178.5 M 277.3 183.9 Q 278.4 183.9, 279.0 183.4 Q 279.6 182.8, 279.6 181.8 Q 279.6 180.8, 279.0 180.3 Q 278.4 179.8, 277.3 179.8 L 275.5 179.8 L 275.5 183.9 L 277.3 183.9 " fill="#000000"/>
<path class="legend" d="M 286.9 190.0 Q 284.8 190.0, 283.8 188.4 Q 282.8 186.9, 282.8 184.2 Q 282.8 181.4, 283.8 179.9 Q 284.8 178.4, 286.9 178.4 Q 289.0 178.4, 290.0 179.9 Q 291.0 181.4, 291.0 184.2 Q 291.0 186.9, 290.0 188.4 Q 289.0 190.0, 286.9 190.0 M 286.9 188.7 Q 288.1 188.7, 288.8 187.6 Q 289.4 186.4, 289.4 184.2 Q 289.4 181.9, 288.8 180.8 Q 288.1 179.7, 286.9 179.7 Q 285.7 179.7, 285.0 180.8 Q 284.4 181.9, 284.4 184.2 Q 284.4 186.4, 285.0 187.6 Q 285.7 188.7, 286.9 188.7 " fill="#000000"/>
<path class="legend" d="M 298.3 183.9 Q 299.4 184.2, 299.9 184.9 Q 300.5 185.6, 300.5 186.7 Q 300.5 187.7, 300.0 188.4 Q 299.5 189.2, 298.7 189.6 Q 297.8 190.0, 296.6 190.0 Q 295.4 190.0, 294.5 189.6 Q 293.6 189.2, 292.9 188.3 L 293.8 187.4 Q 294.5 188.1, 295.1 188.4 Q 295.7 188.7, 296.6 188.7 Q 297.6 188.7, 298.3 188.2 Q 298.9 187.6, 298.9 186.7 Q 298.9 185.6, 298.2 185.1 Q 297.6 184.5, 296.2 184.5 L 295.4 184.5 L 295.4 183.4 L 296.1 183.4 Q 297.3 183.4, 298.0 182.8 Q 298.7 182.3, 298.7 181.3 Q 298.7 180.5, 298.1 180.1 Q 297.6 179.7, 296.6 179.7 Q 295.7 179.7, 295.1 180.0 Q 294.5 180.3, 294.1 181.2 L 293.0 180.6 Q 293.4 179.6, 294.3 179.0 Q 295.3 178.4, 296.6 178.4 Q 298.3 178.4, 299.3 179.2 Q 300.3 180.0, 300.3 181.3 Q 300.3 182.2, 299.8 182.8 Q 299.3 183.5, 298.3 183.9 " fill="#000000"/>
<path class="legend" d="M 307.7 183.9 Q 308.8 184.2, 309.3 184.9 Q 309.8 185.6, 309.8 186.7 Q 309.8 187.7, 309.4 188.4 Q 308.9 189.2, 308.0 189.6 Q 307.1 190.0, 306.0 190.0 Q 304.8 190.0, 303.8 189.6 Q 302.9 189.2, 302.2 188.3 L 303.1 187.4 Q 303.8 188.1, 304.4 188.4 Q 305.0 188.7, 306.0 188.7 Q 307.0 188.7, 307.6 188.2 Q 308.2 187.6, 308.2 186.7 Q 308.2 185.6, 307.6 185.1 Q 306.9 184.5, 305.6 184.5 L 304.7 184.5 L 304.7 183.4 L 305.5 183.4 Q 306.7 183.4, 307.3 182.8 Q 308.0 182.3, 308.0 181.3 Q 308.0 180.5, 307.5 180.1 Q 306.9 179.7, 306.0 179.7 Q 305.0 179.7, 304.5 180.0 Q 303.9 180.3, 303.4 181.2 L 302.3 180.6 Q 302.7 179.6, 303.7 179.0 Q 304.6 178.4, 306.0 178.4 Q 307.7 178.4, 308.6 179.2 Q 309.6 180.0, 309.6 181.3 Q 309.6 182.2, 309.1 182.8 Q 308.6 183.5, 307.7 183.9 " fill="#000000"/>
<path class="legend" d="M 316.0 182.8 Q 317.0 182.8, 317.8 183.2 Q 318.6 183.6, 319.0 184.4 Q 319.4 185.2, 319.4 186.2 Q 319.4 187.3, 318.9 188.2 Q 318.5 189.0, 317.6 189.5 Q 316.7 190.0, 315.6 190.0 Q 313.6 190.0, 312.6 188.6 Q 311.6 187.2, 311.6 184.5 Q 311.6 181.5, 312.8 180.0 Q 314.1 178.4, 316.5 178.4 Q 317.2 178.4, 317.8 178.5 Q 318.4 178.7, 319.0 179.0 L 318.4 180.1 Q 317.5 179.7, 316.5 179.7 Q 314.9 179.7, 314.1 180.7 Q 313.3 181.7, 313.2 183.9 Q 313.8 183.3, 314.5 183.1 Q 315.2 182.8, 316.0 182.8 M 315.6 188.7 Q 316.2 188.7, 316.7 188.3 Q 317.3 188.0, 317.5 187.5 Q 317.8 186.9, 317.8 186.2 Q 317.8 185.2, 317.3 184.6 Q 316.7 184.0, 315.7 184.0 Q 315.0 184.0, 314.3 184.3 Q 313.7 184.6, 313.2 185.1 Q 313.3 187.0, 313.8 187.8 Q 314.4 188.7, 315.6 188.7 " fill="#000000"/>
<path class="legend" d="M 327.0 179.8 L 321.1 179.8 L 321.1 178.5 L 328.6 178.5 L 328.6 179.6 L 324.0 189.8 L 322.5 189.8 L 327.0 179.8 " fill="#000000"/>
<path class="legend" d="M 330.5 188.6 L 333.0 188.6 L 333.0 180.1 L 330.2 180.9 L 329.9 180.0 L 333.3 178.4 L 334.5 178.6 L 334.5 188.6 L 336.7 188.6 L 336.7 189.8 L 330.5 189.8 L 330.5 188.6 " fill="#000000"/>
<path class="legend" d="M 345.5 186.0 L 346.9 186.0 L 346.9 187.2 L 345.5 187.2 L 345.5 189.8 L 344.0 189.8 L 344.0 187.2 L 338.2 187.2 L 338.2 186.2 L 343.1 178.5 L 345.5 178.5 L 345.5 186.0 M 340.0 186.0 L 344.0 186.0 L 344.0 179.5 L 340.0 186.0 " fill="#000000"/>
</svg>