<svg xmlns="http://www.w3.org/2000/svg" xmlns:rdkit="http://www.rdkit.org/xml" xmlns:xlink="http://www.w3.org/1999/xlink" version="1.1" baseProfile="full" xml:space="preserve" width="600px" height="200px" viewBox="0 0 600 200">
<!-- END OF HEADER -->
<rect style="opacity:1.0;fill:#FFFFFF;stroke:none" width="600.0" height="200.0" x="0.0" y="0.0"> </rect>
<path class="bond-0 atom-0 atom-1" d="M 10.0,86.4 L 19.4,82.7" style="fill:none;fill-rule:evenodd;stroke:#000000;stroke-width:2.0px;stroke-linecap:butt;stroke-linejoin:miter;stroke-opacity:1"/>
<path class="bond-1 atom-1 atom-2" d="M 19.4,82.7 L 27.3,89.0" style="fill:none;fill-rule:evenodd;stroke:#000000;stroke-width:2.0px;stroke-linecap:butt;stroke-linejoin:miter;stroke-opacity:1"/>
<path class="bond-2 atom-2 atom-3" d="M 27.3,89.0 L 36.8,85.4" style="fill:none;fill-rule:evenodd;stroke:#000000;stroke-width:2.0px;stroke-linecap:butt;stroke-linejoin:miter;stroke-opacity:1"/>
<path class="bond-3 atom-3 atom-4" d="M 36.8,85.4 L 44.7,91.7" style="fill:none;fill-rule:evenodd;stroke:#000000;stroke-width:2.0px;stroke-linecap:butt;stroke-linejoin:miter;stroke-opacity:1"/>
<path class="bond-4 atom-4 atom-5" d="M 44.7,91.7 L 54.1,88.0" style="fill:none;fill-rule:evenodd;stroke:#000000;stroke-width:2.0px;stroke-linecap:butt;stroke-linejoin:miter;stroke-opacity:1"/>
<path class="bond-5 atom-5 atom-6" d="M 54.1,88.0 L 62.0,94.3" style="fill:none;fill-rule:evenodd;stroke:#000000;stroke-width:2.0px;stroke-linecap:butt;stroke-linejoin:miter;stroke-opacity:1"/>
<path class="bond-6 atom-6 atom-7" d="M 62.0,94.3 L 71.4,90.6" style="fill:none;fill-rule:evenodd;stroke:#000000;stroke-width:2.0px;stroke-linecap:butt;stroke-linejoin:miter;stroke-opacity:1"/>
<path class="bond-7 atom-7 atom-8" d="M 71.4,90.6 L 79.3,97.0" style="fill:none;fill-rule:evenodd;stroke:#000000;stroke-width:2.0px;stroke-linecap:butt;stroke-linejoin:miter;stroke-opacity:1"/>
<path class="bond-8 atom-8 atom-9" d="M 79.3,97.0 L 88.8,93.3" style="fill:none;fill-rule:evenodd;stroke:#000000;stroke-width:2.0px;stroke-linecap:butt;stroke-linejoin:miter;stroke-opacity:1"/>
<path class="bond-9 atom-9 atom-10" d="M 88.8,93.3 L 96.7,99.6" style="fill:none;fill-rule:evenodd;stroke:#000000;stroke-width:2.0px;stroke-linecap:butt;stroke-linejoin:miter;stroke-opacity:1"/>
<path class="bond-10 atom-10 atom-11" d="M 96.7,99.6 L 106.1,95.9" style="fill:none;fill-rule:evenodd;stroke:#000000;stroke-width:2.0px;stroke-linecap:butt;stroke-linejoin:miter;stroke-opacity:1"/>
<path class="bond-11 atom-11 atom-12" d="M 106.1,95.9 L 114.0,102.3" style="fill:none;fill-rule:evenodd;stroke:#000000;stroke-width:2.0px;stroke-linecap:butt;stroke-linejoin:miter;stroke-opacity:1"/>
<path class="bond-12 atom-12 atom-13" d="M 114.0,102.3 L 123.4,98.6" style="fill:none;fill-rule:evenodd;stroke:#000000;stroke-width:2.0px;stroke-linecap:butt;stroke-linejoin:miter;stroke-opacity:1"/>
<path class="bond-13 atom-13 atom-14" d="M 123.4,98.6 L 131.3,104.9" style="fill:none;fill-rule:evenodd;stroke:#000000;stroke-width:2.0px;stroke-linecap:butt;stroke-linejoin:miter;stroke-opacity:1"/>
<path class="bond-14 atom-14 atom-15" d="M 131.3,104.9 L 140.7,101.2" style="fill:none;fill-rule:evenodd;stroke:#000000;stroke-width:2.0px;stroke-linecap:butt;stroke-linejoin:miter;stroke-opacity:1"/>
<path class="bond-15 atom-15 atom-16" d="M 140.7,101.2 L 143.6,103.5" style="fill:none;fill-rule:evenodd;stroke:#000000;stroke-width:2.0px;stroke-linecap:butt;stroke-linejoin:miter;stroke-opacity:1"/>
<path class="bond-15 atom-15 atom-16" d="M 143.6,103.5 L 146.4,105.7" style="fill:none;fill-rule:evenodd;stroke:#FF0000;stroke-width:2.0px;stroke-linecap:butt;stroke-linejoin:miter;stroke-opacity:1"/>
<path class="bond-16 atom-16 atom-17" d="M 150.9,106.7 L 153.7,105.6" style="fill:none;fill-rule:evenodd;stroke:#FF0000;stroke-width:2.0px;stroke-linecap:butt;stroke-linejoin:miter;stroke-opacity:1"/>
<path class="bond-16 atom-16 atom-17" d="M 153.7,105.6 L 156.4,104.5" style="fill:none;fill-rule:evenodd;stroke:#FF7F00;stroke-width:2.0px;stroke-linecap:butt;stroke-linejoin:miter;stroke-opacity:1"/>
<path class="bond-17 atom-17 atom-18" d="M 157.8,101.1 L 157.0,98.9" style="fill:none;fill-rule:evenodd;stroke:#FF7F00;stroke-width:2.0px;stroke-linecap:butt;stroke-linejoin:miter;stroke-opacity:1"/>
<path class="bond-17 atom-17 atom-18" d="M 157.0,98.9 L 156.1,96.7" style="fill:none;fill-rule:evenodd;stroke:#FF0000;stroke-width:2.0px;stroke-linecap:butt;stroke-linejoin:miter;stroke-opacity:1"/>
<path class="bond-17 atom-17 atom-18" d="M 156.4,101.7 L 155.6,99.5" style="fill:none;fill-rule:evenodd;stroke:#FF7F00;stroke-width:2.0px;stroke-linecap:butt;stroke-linejoin:miter;stroke-opacity:1"/>
<path class="bond-17 atom-17 atom-18" d="M 155.6,99.5 L 154.7,97.3" style="fill:none;fill-rule:evenodd;stroke:#FF0000;stroke-width:2.0px;stroke-linecap:butt;stroke-linejoin:miter;stroke-opacity:1"/>
<path class="bond-18 atom-17 atom-19" d="M 159.0,106.3 L 159.9,108.6" style="fill:none;fill-rule:evenodd;stroke:#FF7F00;stroke-width:2.0px;stroke-linecap:butt;stroke-linejoin:miter;stroke-opacity:1"/>
<path class="bond-18 atom-17 atom-19" d="M 159.9,108.6 L 160.8,110.8" style="fill:none;fill-rule:evenodd;stroke:#FF0000;stroke-width:2.0px;stroke-linecap:butt;stroke-linejoin:miter;stroke-opacity:1"/>
<path class="bond-19 atom-17 atom-20" d="M 159.8,103.2 L 162.5,102.1" style="fill:none;fill-rule:evenodd;stroke:#FF7F00;stroke-width:2.0px;stroke-linecap:butt;stroke-linejoin:miter;stroke-opacity:1"/>
<path class="bond-19 atom-17 atom-20" d="M 162.5,102.1 L 165.2,101.1" style="fill:none;fill-rule:evenodd;stroke:#FF0000;stroke-width:2.0px;stroke-linecap:butt;stroke-linejoin:miter;stroke-opacity:1"/>
<path class="bond-20 atom-20 atom-21" d="M 167.9,97.7 L 168.5,93.9" style="fill:none;fill-rule:evenodd;stroke:#FF0000;stroke-width:2.0px;stroke-linecap:butt;stroke-linejoin:miter;stroke-opacity:1"/>
<path class="bond-20 atom-20 atom-21" d="M 168.5,93.9 L 169.0,90.2" style="fill:none;fill-rule:evenodd;stroke:#000000;stroke-width:2.0px;stroke-linecap:butt;stroke-linejoin:miter;stroke-opacity:1"/>
<path class="bond-21 atom-21 atom-22" d="M 169.0,90.2 L 178.5,86.5" style="fill:none;fill-rule:evenodd;stroke:#000000;stroke-width:2.0px;stroke-linecap:butt;stroke-linejoin:miter;stroke-opacity:1"/>
<path class="bond-22 atom-22 atom-23" d="M 178.5,86.5 L 179.0,82.7" style="fill:none;fill-rule:evenodd;stroke:#000000;stroke-width:2.0px;stroke-linecap:butt;stroke-linejoin:miter;stroke-opacity:1"/>
<path class="bond-22 atom-22 atom-23" d="M 179.0,82.7 L 179.6,79.0" style="fill:none;fill-rule:evenodd;stroke:#0000FF;stroke-width:2.0px;stroke-linecap:butt;stroke-linejoin:miter;stroke-opacity:1"/>
<path class="bond-23 atom-23 atom-24" d="M 181.9,76.8 L 186.0,77.4" style="fill:none;fill-rule:evenodd;stroke:#0000FF;stroke-width:2.0px;stroke-linecap:butt;stroke-linejoin:miter;stroke-opacity:1"/>
<path class="bond-23 atom-23 atom-24" d="M 186.0,77.4 L 190.0,78.0" style="fill:none;fill-rule:evenodd;stroke:#000000;stroke-width:2.0px;stroke-linecap:butt;stroke-linejoin:miter;stroke-opacity:1"/>
<path class="bond-24 atom-23 atom-25" d="M 178.0,76.2 L 174.0,75.6" style="fill:none;fill-rule:evenodd;stroke:#0000FF;stroke-width:2.0px;stroke-linecap:butt;stroke-linejoin:miter;stroke-opacity:1"/>
<path class="bond-24 atom-23 atom-25" d="M 174.0,75.6 L 170.0,75.0" style="fill:none;fill-rule:evenodd;stroke:#000000;stroke-width:2.0px;stroke-linecap:butt;stroke-linejoin:miter;stroke-opacity:1"/>
<path class="bond-25 atom-23 atom-26" d="M 180.4,74.0 L 180.9,70.3" style="fill:none;fill-rule:evenodd;stroke:#0000FF;stroke-width:2.0px;stroke-linecap:butt;stroke-linejoin:miter;stroke-opacity:1"/>
<path class="bond-25 atom-23 atom-26" d="M 180.9,70.3 L 181.5,66.5" style="fill:none;fill-rule:evenodd;stroke:#000000;stroke-width:2.0px;stroke-linecap:butt;stroke-linejoin:miter;stroke-opacity:1"/>
<path d="M 19.0,82.9 L 19.4,82.7 L 19.8,83.0" style="fill:none;stroke:#000000;stroke-width:2.0px;stroke-linecap:butt;stroke-linejoin:miter;stroke-opacity:1;"/>
<path d="M 26.9,88.7 L 27.3,89.0 L 27.8,88.8" style="fill:none;stroke:#000000;stroke-width:2.0px;stroke-linecap:butt;stroke-linejoin:miter;stroke-opacity:1;"/>
<path d="M 36.3,85.5 L 36.8,85.4 L 37.2,85.7" style="fill:none;stroke:#000000;stroke-width:2.0px;stroke-linecap:butt;stroke-linejoin:miter;stroke-opacity:1;"/>
<path d="M 44.3,91.4 L 44.7,91.7 L 45.1,91.5" style="fill:none;stroke:#000000;stroke-width:2.0px;stroke-linecap:butt;stroke-linejoin:miter;stroke-opacity:1;"/>
<path d="M 53.6,88.2 L 54.1,88.0 L 54.5,88.3" style="fill:none;stroke:#000000;stroke-width:2.0px;stroke-linecap:butt;stroke-linejoin:miter;stroke-opacity:1;"/>
<path d="M 61.6,94.0 L 62.0,94.3 L 62.5,94.1" style="fill:none;stroke:#000000;stroke-width:2.0px;stroke-linecap:butt;stroke-linejoin:miter;stroke-opacity:1;"/>
<path d="M 71.0,90.8 L 71.4,90.6 L 71.8,91.0" style="fill:none;stroke:#000000;stroke-width:2.0px;stroke-linecap:butt;stroke-linejoin:miter;stroke-opacity:1;"/>
<path d="M 78.9,96.7 L 79.3,97.0 L 79.8,96.8" style="fill:none;stroke:#000000;stroke-width:2.0px;stroke-linecap:butt;stroke-linejoin:miter;stroke-opacity:1;"/>
<path d="M 88.3,93.5 L 88.8,93.3 L 89.2,93.6" style="fill:none;stroke:#000000;stroke-width:2.0px;stroke-linecap:butt;stroke-linejoin:miter;stroke-opacity:1;"/>
<path d="M 96.3,99.3 L 96.7,99.6 L 97.1,99.4" style="fill:none;stroke:#000000;stroke-width:2.0px;stroke-linecap:butt;stroke-linejoin:miter;stroke-opacity:1;"/>
<path d="M 105.6,96.1 L 106.1,95.9 L 106.5,96.2" style="fill:none;stroke:#000000;stroke-width:2.0px;stroke-linecap:butt;stroke-linejoin:miter;stroke-opacity:1;"/>
<path d="M 113.6,101.9 L 114.0,102.3 L 114.5,102.1" style="fill:none;stroke:#000000;stroke-width:2.0px;stroke-linecap:butt;stroke-linejoin:miter;stroke-opacity:1;"/>
<path d="M 122.9,98.8 L 123.4,98.6 L 123.8,98.9" style="fill:none;stroke:#000000;stroke-width:2.0px;stroke-linecap:butt;stroke-linejoin:miter;stroke-opacity:1;"/>
<path d="M 130.9,104.6 L 131.3,104.9 L 131.8,104.7" style="fill:none;stroke:#000000;stroke-width:2.0px;stroke-linecap:butt;stroke-linejoin:miter;stroke-opacity:1;"/>
<path d="M 140.3,101.4 L 140.7,101.2 L 140.9,101.3" style="fill:none;stroke:#000000;stroke-width:2.0px;stroke-linecap:butt;stroke-linejoin:miter;stroke-opacity:1;"/>
<path d="M 169.0,90.4 L 169.0,90.2 L 169.5,90.0" style="fill:none;stroke:#000000;stroke-width:2.0px;stroke-linecap:butt;stroke-linejoin:miter;stroke-opacity:1;"/>
<path d="M 178.0,86.7 L 178.5,86.5 L 178.5,86.3" style="fill:none;stroke:#000000;stroke-width:2.0px;stroke-linecap:butt;stroke-linejoin:miter;stroke-opacity:1;"/>
<path class="atom-16" d="M 146.7 107.6 Q 146.7 106.5, 147.2 106.0 Q 147.7 105.4, 148.7 105.4 Q 149.6 105.4, 150.1 106.0 Q 150.6 106.5, 150.6 107.6 Q 150.6 108.6, 150.1 109.2 Q 149.6 109.8, 148.7 109.8 Q 147.7 109.8, 147.2 109.2 Q 146.7 108.6, 146.7 107.6 M 148.7 109.3 Q 149.3 109.3, 149.6 108.9 Q 150.0 108.4, 150.0 107.6 Q 150.0 106.7, 149.6 106.3 Q 149.3 105.9, 148.7 105.9 Q 148.0 105.9, 147.6 106.3 Q 147.3 106.7, 147.3 107.6 Q 147.3 108.4, 147.6 108.9 Q 148.0 109.3, 148.7 109.3 " fill="#FF0000"/>
<path class="atom-17" d="M 158.0 101.7 Q 158.7 101.7, 159.1 102.1 Q 159.4 102.4, 159.4 103.0 Q 159.4 103.6, 159.1 103.9 Q 158.7 104.2, 158.0 104.2 L 157.3 104.2 L 157.3 106.0 L 156.7 106.0 L 156.7 101.7 L 158.0 101.7 M 158.0 103.8 Q 158.4 103.8, 158.6 103.6 Q 158.8 103.4, 158.8 103.0 Q 158.8 102.6, 158.6 102.4 Q 158.4 102.2, 158.0 102.2 L 157.3 102.2 L 157.3 103.8 L 158.0 103.8 " fill="#FF7F00"/>
<path class="atom-18" d="M 152.5 94.5 Q 152.5 93.4, 153.0 92.9 Q 153.5 92.3, 154.4 92.3 Q 155.3 92.3, 155.8 92.9 Q 156.4 93.4, 156.4 94.5 Q 156.4 95.5, 155.8 96.1 Q 155.3 96.7, 154.4 96.7 Q 153.5 96.7, 153.0 96.1 Q 152.5 95.5, 152.5 94.5 M 154.4 96.2 Q 155.0 96.2, 155.4 95.7 Q 155.8 95.3, 155.8 94.5 Q 155.8 93.6, 155.4 93.2 Q 155.0 92.8, 154.4 92.8 Q 153.8 92.8, 153.4 93.2 Q 153.1 93.6, 153.1 94.5 Q 153.1 95.3, 153.4 95.7 Q 153.8 96.2, 154.4 96.2 " fill="#FF0000"/>
<path class="atom-19" d="M 159.8 113.3 Q 159.8 112.3, 160.3 111.7 Q 160.8 111.1, 161.8 111.1 Q 162.7 111.1, 163.2 111.7 Q 163.7 112.3, 163.7 113.3 Q 163.7 114.3, 163.2 114.9 Q 162.7 115.5, 161.8 115.5 Q 160.8 115.5, 160.3 114.9 Q 159.8 114.3, 159.8 113.3 M 161.8 115.0 Q 162.4 115.0, 162.8 114.6 Q 163.1 114.2, 163.1 113.3 Q 163.1 112.5, 162.8 112.1 Q 162.4 111.6, 161.8 111.6 Q 161.1 111.6, 160.8 112.0 Q 160.4 112.5, 160.4 113.3 Q 160.4 114.2, 160.8 114.6 Q 161.1 115.0, 161.8 115.0 " fill="#FF0000"/>
<path class="atom-19" d="M 164.3 111.8 L 165.8 111.8 L 165.8 112.2 L 164.3 112.2 L 164.3 111.8 " fill="#FF0000"/>
<path class="atom-20" d="M 165.6 100.2 Q 165.6 99.2, 166.1 98.6 Q 166.6 98.0, 167.5 98.0 Q 168.5 98.0, 169.0 98.6 Q 169.5 99.2, 169.5 100.2 Q 169.5 101.2, 169.0 101.8 Q 168.4 102.4, 167.5 102.4 Q 166.6 102.4, 166.1 101.8 Q 165.6 101.2, 165.6 100.2 M 167.5 101.9 Q 168.2 101.9, 168.5 101.5 Q 168.9 101.1, 168.9 100.2 Q 168.9 99.4, 168.5 98.9 Q 168.2 98.5, 167.5 98.5 Q 166.9 98.5, 166.5 98.9 Q 166.2 99.4, 166.2 100.2 Q 166.2 101.1, 166.5 101.5 Q 166.9 101.9, 167.5 101.9 " fill="#FF0000"/>
<path class="atom-23" d="M 179.1 74.4 L 180.4 76.6 Q 180.6 76.8, 180.8 77.2 Q 181.0 77.6, 181.0 77.7 L 181.0 74.4 L 181.6 74.4 L 181.6 78.6 L 181.0 78.6 L 179.5 76.2 Q 179.4 75.9, 179.2 75.5 Q 179.0 75.2, 178.9 75.1 L 178.9 78.6 L 178.4 78.6 L 178.4 74.4 L 179.1 74.4 " fill="#0000FF"/>
<path class="atom-23" d="M 182.4 75.1 L 183.2 75.1 L 183.2 74.3 L 183.5 74.3 L 183.5 75.1 L 184.3 75.1 L 184.3 75.4 L 183.5 75.4 L 183.5 76.2 L 183.2 76.2 L 183.2 75.4 L 182.4 75.4 L 182.4 75.1 " fill="#0000FF"/>
<path class="legend" d="M 66.3 189.7 L 64.9 189.7 L 63.7 180.4 L 60.6 189.7 L 59.1 189.7 L 56.0 180.4 L 54.8 189.7 L 53.4 189.7 L 54.8 178.4 L 56.7 178.4 L 59.9 187.5 L 63.0 178.4 L 64.9 178.4 L 66.3 189.7 " fill="#000000"/>
<path class="legend" d="M 68.1 178.3 L 69.6 178.3 L 69.6 189.7 L 68.1 189.7 L 68.1 178.3 " fill="#000000"/>
<path class="legend" d="M 71.7 178.4 L 73.2 178.4 L 73.2 188.4 L 78.4 188.4 L 78.4 189.7 L 71.7 189.7 L 71.7 178.4 " fill="#000000"/>
<path class="legend" d="M 83.1 179.6 L 79.6 179.6 L 79.6 178.4 L 87.9 178.4 L 87.9 179.6 L 84.6 179.6 L 84.6 189.7 L 83.1 189.7 L 83.1 179.6 " fill="#000000"/>
<path class="legend" d="M 88.6 178.4 L 95.4 178.4 L 95.4 179.7 L 90.1 179.7 L 90.1 183.1 L 94.8 183.1 L 94.8 184.4 L 90.1 184.4 L 90.1 188.4 L 95.5 188.4 L 95.5 189.7 L 88.6 189.7 L 88.6 178.4 " fill="#000000"/>
<path class="legend" d="M 97.0 178.4 L 103.8 178.4 L 103.8 179.7 L 98.5 179.7 L 98.5 183.1 L 103.2 183.1 L 103.2 184.4 L 98.5 184.4 L 98.5 189.7 L 97.0 189.7 L 97.0 178.4 " fill="#000000"/>
<path class="legend" d="M 104.8 184.0 Q 104.8 181.3, 106.2 179.8 Q 107.5 178.2, 110.0 178.2 Q 112.5 178.2, 113.9 179.8 Q 115.2 181.3, 115.2 184.0 Q 115.2 186.8, 113.9 188.3 Q 112.5 189.9, 110.0 189.9 Q 107.5 189.9, 106.2 188.3 Q 104.8 186.8, 104.8 184.0 M 110.0 188.6 Q 111.7 188.6, 112.7 187.4 Q 113.6 186.3, 113.6 184.0 Q 113.6 181.8, 112.7 180.7 Q 111.7 179.5, 110.0 179.5 Q 108.3 179.5, 107.3 180.6 Q 106.4 181.8, 106.4 184.0 Q 106.4 186.3, 107.3 187.4 Q 108.3 188.6, 110.0 188.6 " fill="#000000"/>
<path class="legend" d="M 117.2 187.9 Q 117.3 188.0, 117.8 188.2 Q 118.3 188.4, 118.9 188.6 Q 119.5 188.7, 120.1 188.7 Q 121.2 188.7, 121.8 188.2 Q 122.4 187.7, 122.4 186.8 Q 122.4 186.1, 122.1 185.7 Q 121.8 185.4, 121.3 185.2 Q 120.8 184.9, 120.0 184.7 Q 119.0 184.4, 118.4 184.1 Q 117.8 183.8, 117.4 183.2 Q 117.0 182.6, 117.0 181.6 Q 117.0 180.2, 117.9 179.3 Q 118.9 178.4, 120.8 178.4 Q 122.1 178.4, 123.6 179.0 L 123.3 180.3 Q 121.9 179.7, 120.9 179.7 Q 119.8 179.7, 119.2 180.2 Q 118.6 180.6, 118.6 181.4 Q 118.6 182.0, 118.9 182.4 Q 119.2 182.7, 119.6 182.9 Q 120.1 183.2, 120.9 183.4 Q 121.9 183.7, 122.5 184.0 Q 123.1 184.4, 123.5 185.0 Q 124.0 185.6, 124.0 186.8 Q 124.0 188.3, 122.9 189.2 Q 121.9 190.0, 120.2 190.0 Q 119.1 190.0, 118.4 189.8 Q 117.6 189.6, 116.7 189.2 L 117.2 187.9 " fill="#000000"/>
<path class="legend" d="M 125.5 178.3 L 127.0 178.3 L 127.0 189.7 L 125.5 189.7 L 125.5 178.3 " fill="#000000"/>
<path class="legend" d="M 130.9 178.4 L 134.6 184.4 Q 135.0 185.0, 135.6 186.0 Q 136.1 187.1, 136.2 187.2 L 136.2 178.4 L 137.7 178.4 L 137.7 189.7 L 136.1 189.7 L 132.1 183.1 Q 131.7 182.4, 131.2 181.5 Q 130.7 180.6, 130.6 180.3 L 130.6 189.7 L 129.1 189.7 L 129.1 178.4 L 130.9 178.4 " fill="#000000"/>
<path class="legend" d="M 139.7 178.4 L 146.5 178.4 L 146.5 179.7 L 141.2 179.7 L 141.2 183.1 L 145.9 183.1 L 145.9 184.4 L 141.2 184.4 L 141.2 188.4 L 146.6 188.4 L 146.6 189.7 L 139.7 189.7 L 139.7 178.4 " fill="#000000"/>
<path class="bond-0 atom-0 atom-1" d="M 210.0,86.4 L 219.4,82.7" style="fill:none;fill-rule:evenodd;stroke:#000000;stroke-width:2.0px;stroke-linecap:butt;stroke-linejoin:miter;stroke-opacity:1"/>
<path class="bond-1 atom-1 atom-2" d="M 219.4,82.7 L 227.3,89.0" style="fill:none;fill-rule:evenodd;stroke:#000000;stroke-width:2.0px;stroke-linecap:butt;stroke-linejoin:miter;stroke-opacity:1"/>
<path class="bond-2 atom-2 atom-3" d="M 227.3,89.0 L 236.8,85.4" style="fill:none;fill-rule:evenodd;stroke:#000000;stroke-width:2.0px;stroke-linecap:butt;stroke-linejoin:miter;stroke-opacity:1"/>
<path class="bond-3 atom-3 atom-4" d="M 236.8,85.4 L 244.7,91.7" style="fill:none;fill-rule:evenodd;stroke:#000000;stroke-width:2.0px;stroke-linecap:butt;stroke-linejoin:miter;stroke-opacity:1"/>
<path class="bond-4 atom-4 atom-5" d="M 244.7,91.7 L 254.1,88.0" style="fill:none;fill-rule:evenodd;stroke:#000000;stroke-width:2.0px;stroke-linecap:butt;stroke-linejoin:miter;stroke-opacity:1"/>
<path class="bond-5 atom-5 atom-6" d="M 254.1,88.0 L 262.0,94.3" style="fill:none;fill-rule:evenodd;stroke:#000000;stroke-width:2.0px;stroke-linecap:butt;stroke-linejoin:miter;stroke-opacity:1"/>
<path class="bond-6 atom-6 atom-7" d="M 262.0,94.3 L 271.4,90.6" style="fill:none;fill-rule:evenodd;stroke:#000000;stroke-width:2.0px;stroke-linecap:butt;stroke-linejoin:miter;stroke-opacity:1"/>
<path class="bond-7 atom-7 atom-8" d="M 271.4,90.6 L 279.3,97.0" style="fill:none;fill-rule:evenodd;stroke:#000000;stroke-width:2.0px;stroke-linecap:butt;stroke-linejoin:miter;stroke-opacity:1"/>
<path class="bond-8 atom-8 atom-9" d="M 279.3,97.0 L 288.8,93.3" style="fill:none;fill-rule:evenodd;stroke:#000000;stroke-width:2.0px;stroke-linecap:butt;stroke-linejoin:miter;stroke-opacity:1"/>
<path class="bond-9 atom-9 atom-10" d="M 288.8,93.3 L 296.7,99.6" style="fill:none;fill-rule:evenodd;stroke:#000000;stroke-width:2.0px;stroke-linecap:butt;stroke-linejoin:miter;stroke-opacity:1"/>
<path class="bond-10 atom-10 atom-11" d="M 296.7,99.6 L 306.1,95.9" style="fill:none;fill-rule:evenodd;stroke:#000000;stroke-width:2.0px;stroke-linecap:butt;stroke-linejoin:miter;stroke-opacity:1"/>
<path class="bond-11 atom-11 atom-12" d="M 306.1,95.9 L 314.0,102.3" style="fill:none;fill-rule:evenodd;stroke:#000000;stroke-width:2.0px;stroke-linecap:butt;stroke-linejoin:miter;stroke-opacity:1"/>
<path class="bond-12 atom-12 atom-13" d="M 314.0,102.3 L 323.4,98.6" style="fill:none;fill-rule:evenodd;stroke:#000000;stroke-width:2.0px;stroke-linecap:butt;stroke-linejoin:miter;stroke-opacity:1"/>
<path class="bond-13 atom-13 atom-14" d="M 323.4,98.6 L 331.3,104.9" style="fill:none;fill-rule:evenodd;stroke:#000000;stroke-width:2.0px;stroke-linecap:butt;stroke-linejoin:miter;stroke-opacity:1"/>
<path class="bond-14 atom-14 atom-15" d="M 331.3,104.9 L 340.7,101.2" style="fill:none;fill-rule:evenodd;stroke:#000000;stroke-width:2.0px;stroke-linecap:butt;stroke-linejoin:miter;stroke-opacity:1"/>
<path class="bond-15 atom-15 atom-16" d="M 340.7,101.2 L 343.6,103.5" style="fill:none;fill-rule:evenodd;stroke:#000000;stroke-width:2.0px;stroke-linecap:butt;stroke-linejoin:miter;stroke-opacity:1"/>
<path class="bond-15 atom-15 atom-16" d="M 343.6,103.5 L 346.4,105.7" style="fill:none;fill-rule:evenodd;stroke:#FF0000;stroke-width:2.0px;stroke-linecap:butt;stroke-linejoin:miter;stroke-opacity:1"/>
<path class="bond-16 atom-16 atom-17" d="M 350.9,106.7 L 353.7,105.6" style="fill:none;fill-rule:evenodd;stroke:#FF0000;stroke-width:2.0px;stroke-linecap:butt;stroke-linejoin:miter;stroke-opacity:1"/>
<path class="bond-16 atom-16 atom-17" d="M 353.7,105.6 L 356.4,104.5" style="fill:none;fill-rule:evenodd;stroke:#FF7F00;stroke-width:2.0px;stroke-linecap:butt;stroke-linejoin:miter;stroke-opacity:1"/>
<path class="bond-17 atom-17 atom-18" d="M 357.8,101.1 L 357.0,98.9" style="fill:none;fill-rule:evenodd;stroke:#FF7F00;stroke-width:2.0px;stroke-linecap:butt;stroke-linejoin:miter;stroke-opacity:1"/>
<path class="bond-17 atom-17 atom-18" d="M 357.0,98.9 L 356.1,96.7" style="fill:none;fill-rule:evenodd;stroke:#FF0000;stroke-width:2.0px;stroke-linecap:butt;stroke-linejoin:miter;stroke-opacity:1"/>
<path class="bond-17 atom-17 atom-18" d="M 356.4,101.7 L 355.6,99.5" style="fill:none;fill-rule:evenodd;stroke:#FF7F00;stroke-width:2.0px;stroke-linecap:butt;stroke-linejoin:miter;stroke-opacity:1"/>
<path class="bond-17 atom-17 atom-18" d="M 355.6,99.5 L 354.7,97.3" style="fill:none;fill-rule:evenodd;stroke:#FF0000;stroke-width:2.0px;stroke-linecap:butt;stroke-linejoin:miter;stroke-opacity:1"/>
<path class="bond-18 atom-17 atom-19" d="M 359.0,106.3 L 359.9,108.6" style="fill:none;fill-rule:evenodd;stroke:#FF7F00;stroke-width:2.0px;stroke-linecap:butt;stroke-linejoin:miter;stroke-opacity:1"/>
<path class="bond-18 atom-17 atom-19" d="M 359.9,108.6 L 360.8,110.8" style="fill:none;fill-rule:evenodd;stroke:#FF0000;stroke-width:2.0px;stroke-linecap:butt;stroke-linejoin:miter;stroke-opacity:1"/>
<path class="bond-19 atom-17 atom-20" d="M 359.8,103.2 L 362.5,102.1" style="fill:none;fill-rule:evenodd;stroke:#FF7F00;stroke-width:2.0px;stroke-linecap:butt;stroke-linejoin:miter;stroke-opacity:1"/>
<path class="bond-19 atom-17 atom-20" d="M 362.5,102.1 L 365.2,101.1" style="fill:none;fill-rule:evenodd;stroke:#FF0000;stroke-width:2.0px;stroke-linecap:butt;stroke-linejoin:miter;stroke-opacity:1"/>
<path class="bond-20 atom-20 atom-21" d="M 367.9,97.7 L 368.5,93.9" style="fill:none;fill-rule:evenodd;stroke:#FF0000;stroke-width:2.0px;stroke-linecap:butt;stroke-linejoin:miter;stroke-opacity:1"/>
<path class="bond-20 atom-20 atom-21" d="M 368.5,93.9 L 369.0,90.2" style="fill:none;fill-rule:evenodd;stroke:#000000;stroke-width:2.0px;stroke-linecap:butt;stroke-linejoin:miter;stroke-opacity:1"/>
<path class="bond-21 atom-21 atom-22" d="M 369.0,90.2 L 378.5,86.5" style="fill:none;fill-rule:evenodd;stroke:#000000;stroke-width:2.0px;stroke-linecap:butt;stroke-linejoin:miter;stroke-opacity:1"/>
<path class="bond-22 atom-22 atom-23" d="M 378.5,86.5 L 379.0,82.7" style="fill:none;fill-rule:evenodd;stroke:#000000;stroke-width:2.0px;stroke-linecap:butt;stroke-linejoin:miter;stroke-opacity:1"/>
<path class="bond-22 atom-22 atom-23" d="M 379.0,82.7 L 379.6,79.0" style="fill:none;fill-rule:evenodd;stroke:#0000FF;stroke-width:2.0px;stroke-linecap:butt;stroke-linejoin:miter;stroke-opacity:1"/>
<path class="bond-23 atom-23 atom-24" d="M 381.9,76.8 L 386.0,77.4" style="fill:none;fill-rule:evenodd;stroke:#0000FF;stroke-width:2.0px;stroke-linecap:butt;stroke-linejoin:miter;stroke-opacity:1"/>
<path class="bond-23 atom-23 atom-24" d="M 386.0,77.4 L 390.0,78.0" style="fill:none;fill-rule:evenodd;stroke:#000000;stroke-width:2.0px;stroke-linecap:butt;stroke-linejoin:miter;stroke-opacity:1"/>
<path class="bond-24 atom-23 atom-25" d="M 378.0,76.2 L 374.0,75.6" style="fill:none;fill-rule:evenodd;stroke:#0000FF;stroke-width:2.0px;stroke-linecap:butt;stroke-linejoin:miter;stroke-opacity:1"/>
<path class="bond-24 atom-23 atom-25" d="M 374.0,75.6 L 370.0,75.0" style="fill:none;fill-rule:evenodd;stroke:#000000;stroke-width:2.0px;stroke-linecap:butt;stroke-linejoin:miter;stroke-opacity:1"/>
<path class="bond-25 atom-23 atom-26" d="M 380.4,74.0 L 380.9,70.3" style="fill:none;fill-rule:evenodd;stroke:#0000FF;stroke-width:2.0px;stroke-linecap:butt;stroke-linejoin:miter;stroke-opacity:1"/>
<path class="bond-25 atom-23 atom-26" d="M 380.9,70.3 L 381.5,66.5" style="fill:none;fill-rule:evenodd;stroke:#000000;stroke-width:2.0px;stroke-linecap:butt;stroke-linejoin:miter;stroke-opacity:1"/>
<path d="M 219.0,82.9 L 219.4,82.7 L 219.8,83.0" style="fill:none;stroke:#000000;stroke-width:2.0px;stroke-linecap:butt;stroke-linejoin:miter;stroke-opacity:1;"/>
<path d="M 226.9,88.7 L 227.3,89.0 L 227.8,88.8" style="fill:none;stroke:#000000;stroke-width:2.0px;stroke-linecap:butt;stroke-linejoin:miter;stroke-opacity:1;"/>
<path d="M 236.3,85.5 L 236.8,85.4 L 237.2,85.7" style="fill:none;stroke:#000000;stroke-width:2.0px;stroke-linecap:butt;stroke-linejoin:miter;stroke-opacity:1;"/>
<path d="M 244.3,91.4 L 244.7,91.7 L 245.1,91.5" style="fill:none;stroke:#000000;stroke-width:2.0px;stroke-linecap:butt;stroke-linejoin:miter;stroke-opacity:1;"/>
<path d="M 253.6,88.2 L 254.1,88.0 L 254.5,88.3" style="fill:none;stroke:#000000;stroke-width:2.0px;stroke-linecap:butt;stroke-linejoin:miter;stroke-opacity:1;"/>
<path d="M 261.6,94.0 L 262.0,94.3 L 262.5,94.1" style="fill:none;stroke:#000000;stroke-width:2.0px;stroke-linecap:butt;stroke-linejoin:miter;stroke-opacity:1;"/>
<path d="M 271.0,90.8 L 271.4,90.6 L 271.8,91.0" style="fill:none;stroke:#000000;stroke-width:2.0px;stroke-linecap:butt;stroke-linejoin:miter;stroke-opacity:1;"/>
<path d="M 278.9,96.7 L 279.3,97.0 L 279.8,96.8" style="fill:none;stroke:#000000;stroke-width:2.0px;stroke-linecap:butt;stroke-linejoin:miter;stroke-opacity:1;"/>
<path d="M 288.3,93.5 L 288.8,93.3 L 289.2,93.6" style="fill:none;stroke:#000000;stroke-width:2.0px;stroke-linecap:butt;stroke-linejoin:miter;stroke-opacity:1;"/>
<path d="M 296.3,99.3 L 296.7,99.6 L 297.1,99.4" style="fill:none;stroke:#000000;stroke-width:2.0px;stroke-linecap:butt;stroke-linejoin:miter;stroke-opacity:1;"/>
<path d="M 305.6,96.1 L 306.1,95.9 L 306.5,96.2" style="fill:none;stroke:#000000;stroke-width:2.0px;stroke-linecap:butt;stroke-linejoin:miter;stroke-opacity:1;"/>
<path d="M 313.6,101.9 L 314.0,102.3 L 314.5,102.1" style="fill:none;stroke:#000000;stroke-width:2.0px;stroke-linecap:butt;stroke-linejoin:miter;stroke-opacity:1;"/>
<path d="M 322.9,98.8 L 323.4,98.6 L 323.8,98.9" style="fill:none;stroke:#000000;stroke-width:2.0px;stroke-linecap:butt;stroke-linejoin:miter;stroke-opacity:1;"/>
<path d="M 330.9,104.6 L 331.3,104.9 L 331.8,104.7" style="fill:none;stroke:#000000;stroke-width:2.0px;stroke-linecap:butt;stroke-linejoin:miter;stroke-opacity:1;"/>
<path d="M 340.3,101.4 L 340.7,101.2 L 340.9,101.3" style="fill:none;stroke:#000000;stroke-width:2.0px;stroke-linecap:butt;stroke-linejoin:miter;stroke-opacity:1;"/>
<path d="M 369.0,90.4 L 369.0,90.2 L 369.5,90.0" style="fill:none;stroke:#000000;stroke-width:2.0px;stroke-linecap:butt;stroke-linejoin:miter;stroke-opacity:1;"/>
<path d="M 378.0,86.7 L 378.5,86.5 L 378.5,86.3" style="fill:none;stroke:#000000;stroke-width:2.0px;stroke-linecap:butt;stroke-linejoin:miter;stroke-opacity:1;"/>
<path class="atom-16" d="M 346.7 107.6 Q 346.7 106.5, 347.2 106.0 Q 347.7 105.4, 348.7 105.4 Q 349.6 105.4, 350.1 106.0 Q 350.6 106.5, 350.6 107.6 Q 350.6 108.6, 350.1 109.2 Q 349.6 109.8, 348.7 109.8 Q 347.7 109.8, 347.2 109.2 Q 346.7 108.6, 346.7 107.6 M 348.7 109.3 Q 349.3 109.3, 349.6 108.9 Q 350.0 108.4, 350.0 107.6 Q 350.0 106.7, 349.6 106.3 Q 349.3 105.9, 348.7 105.9 Q 348.0 105.9, 347.6 106.3 Q 347.3 106.7, 347.3 107.6 Q 347.3 108.4, 347.6 108.9 Q 348.0 109.3, 348.7 109.3 " fill="#FF0000"/>
<path class="atom-17" d="M 358.0 101.7 Q 358.7 101.7, 359.1 102.1 Q 359.4 102.4, 359.4 103.0 Q 359.4 103.6, 359.1 103.9 Q 358.7 104.2, 358.0 104.2 L 357.3 104.2 L 357.3 106.0 L 356.7 106.0 L 356.7 101.7 L 358.0 101.7 M 358.0 103.8 Q 358.4 103.8, 358.6 103.6 Q 358.8 103.4, 358.8 103.0 Q 358.8 102.6, 358.6 102.4 Q 358.4 102.2, 358.0 102.2 L 357.3 102.2 L 357.3 103.8 L 358.0 103.8 " fill="#FF7F00"/>
<path class="atom-18" d="M 352.5 94.5 Q 352.5 93.4, 353.0 92.9 Q 353.5 92.3, 354.4 92.3 Q 355.3 92.3, 355.8 92.9 Q 356.4 93.4, 356.4 94.5 Q 356.4 95.5, 355.8 96.1 Q 355.3 96.7, 354.4 96.7 Q 353.5 96.7, 353.0 96.1 Q 352.5 95.5, 352.5 94.5 M 354.4 96.2 Q 355.0 96.2, 355.4 95.7 Q 355.8 95.3, 355.8 94.5 Q 355.8 93.6, 355.4 93.2 Q 355.0 92.8, 354.4 92.8 Q 353.8 92.8, 353.4 93.2 Q 353.1 93.6, 353.1 94.5 Q 353.1 95.3, 353.4 95.7 Q 353.8 96.2, 354.4 96.2 " fill="#FF0000"/>
<path class="atom-19" d="M 359.8 113.3 Q 359.8 112.3, 360.3 111.7 Q 360.8 111.1, 361.8 111.1 Q 362.7 111.1, 363.2 111.7 Q 363.7 112.3, 363.7 113.3 Q 363.7 114.3, 363.2 114.9 Q 362.7 115.5, 361.8 115.5 Q 360.8 115.5, 360.3 114.9 Q 359.8 114.3, 359.8 113.3 M 361.8 115.0 Q 362.4 115.0, 362.8 114.6 Q 363.1 114.2, 363.1 113.3 Q 363.1 112.5, 362.8 112.1 Q 362.4 111.6, 361.8 111.6 Q 361.1 111.6, 360.8 112.0 Q 360.4 112.5, 360.4 113.3 Q 360.4 114.2, 360.8 114.6 Q 361.1 115.0, 361.8 115.0 " fill="#FF0000"/>
<path class="atom-19" d="M 364.4 111.2 L 364.9 111.2 L 364.9 113.0 L 367.1 113.0 L 367.1 111.2 L 367.7 111.2 L 367.7 115.4 L 367.1 115.4 L 367.1 113.5 L 364.9 113.5 L 364.9 115.4 L 364.4 115.4 L 364.4 111.2 " fill="#FF0000"/>
<path class="atom-20" d="M 365.6 100.2 Q 365.6 99.2, 366.1 98.6 Q 366.6 98.0, 367.5 98.0 Q 368.5 98.0, 369.0 98.6 Q 369.5 99.2, 369.5 100.2 Q 369.5 101.2, 369.0 101.8 Q 368.4 102.4, 367.5 102.4 Q 366.6 102.4, 366.1 101.8 Q 365.6 101.2, 365.6 100.2 M 367.5 101.9 Q 368.2 101.9, 368.5 101.5 Q 368.9 101.1, 368.9 100.2 Q 368.9 99.4, 368.5 98.9 Q 368.2 98.5, 367.5 98.5 Q 366.9 98.5, 366.5 98.9 Q 366.2 99.4, 366.2 100.2 Q 366.2 101.1, 366.5 101.5 Q 366.9 101.9, 367.5 101.9 " fill="#FF0000"/>
<path class="atom-23" d="M 379.1 74.4 L 380.4 76.6 Q 380.6 76.8, 380.8 77.2 Q 381.0 77.6, 381.0 77.7 L 381.0 74.4 L 381.6 74.4 L 381.6 78.6 L 381.0 78.6 L 379.5 76.2 Q 379.4 75.9, 379.2 75.5 Q 379.0 75.2, 378.9 75.1 L 378.9 78.6 L 378.4 78.6 L 378.4 74.4 L 379.1 74.4 " fill="#0000FF"/>
<path class="atom-23" d="M 382.4 75.1 L 383.2 75.1 L 383.2 74.3 L 383.5 74.3 L 383.5 75.1 L 384.3 75.1 L 384.3 75.4 L 383.5 75.4 L 383.5 76.2 L 383.2 76.2 L 383.2 75.4 L 382.4 75.4 L 382.4 75.1 " fill="#0000FF"/>
<path class="legend" d="M 225.5 184.2 Q 225.5 181.3, 226.8 179.9 Q 228.1 178.4, 230.6 178.4 Q 233.0 178.4, 234.2 180.0 L 233.2 180.9 Q 232.2 179.7, 230.6 179.7 Q 228.9 179.7, 228.0 180.8 Q 227.1 182.0, 227.1 184.2 Q 227.1 186.4, 228.0 187.6 Q 229.0 188.7, 230.8 188.7 Q 232.0 188.7, 233.5 188.0 L 234.0 189.2 Q 233.4 189.5, 232.5 189.8 Q 231.6 190.0, 230.6 190.0 Q 228.1 190.0, 226.8 188.5 Q 225.5 187.0, 225.5 184.2 " fill="#000000"/>
<path class="legend" d="M 241.1 183.9 Q 242.2 184.2, 242.7 184.9 Q 243.3 185.5, 243.3 186.5 Q 243.3 188.1, 242.3 189.0 Q 241.3 189.8, 239.4 189.8 L 235.6 189.8 L 235.6 178.5 L 238.9 178.5 Q 240.9 178.5, 241.8 179.3 Q 242.8 180.1, 242.8 181.5 Q 242.8 183.2, 241.1 183.9 M 237.1 179.8 L 237.1 183.3 L 238.9 183.3 Q 240.0 183.3, 240.6 182.9 Q 241.2 182.4, 241.2 181.5 Q 241.2 179.8, 238.9 179.8 L 237.1 179.8 M 239.4 188.6 Q 240.5 188.6, 241.1 188.0 Q 241.7 187.5, 241.7 186.5 Q 241.7 185.6, 241.0 185.1 Q 240.4 184.6, 239.2 184.6 L 237.1 184.6 L 237.1 188.6 L 239.4 188.6 " fill="#000000"/>
<path class="legend" d="M 250.9 189.8 L 248.1 185.2 L 248.1 185.2 L 246.3 185.2 L 246.3 189.8 L 244.8 189.8 L 244.8 178.5 L 248.1 178.5 Q 250.0 178.5, 251.0 179.4 Q 252.0 180.3, 252.0 181.8 Q 252.0 183.0, 251.4 183.9 Q 250.8 184.7, 249.7 185.0 L 252.5 189.8 L 250.9 189.8 M 246.3 183.9 L 248.1 183.9 Q 249.2 183.9, 249.8 183.4 Q 250.4 182.8, 250.4 181.8 Q 250.4 180.8, 249.8 180.3 Q 249.2 179.8, 248.1 179.8 L 246.3 179.8 L 246.3 183.9 " fill="#000000"/>
<path class="legend" d="M 253.7 184.1 L 259.5 184.1 L 259.5 185.4 L 253.7 185.4 L 253.7 184.1 " fill="#000000"/>
<path class="legend" d="M 265.2 190.0 Q 263.1 190.0, 262.1 188.4 Q 261.1 186.9, 261.1 184.2 Q 261.1 181.4, 262.1 179.9 Q 263.1 178.4, 265.2 178.4 Q 267.3 178.4, 268.3 179.9 Q 269.4 181.4, 269.4 184.2 Q 269.4 186.9, 268.3 188.4 Q 267.3 190.0, 265.2 190.0 M 265.2 188.7 Q 266.4 188.7, 267.1 187.6 Q 267.8 186.4, 267.8 184.2 Q 267.8 181.9, 267.1 180.8 Q 266.4 179.7, 265.2 179.7 Q 264.0 179.7, 263.3 180.8 Q 262.7 181.9, 262.7 184.2 Q 262.7 186.4, 263.3 187.6 Q 264.0 188.7, 265.2 188.7 " fill="#000000"/>
<path class="legend" d="M 275.3 190.0 Q 273.2 190.0, 272.2 188.4 Q 271.1 186.9, 271.1 184.2 Q 271.1 181.4, 272.2 179.9 Q 273.2 178.4, 275.3 178.4 Q 277.4 178.4, 278.4 179.9 Q 279.4 181.4, 279.4 184.2 Q 279.4 186.9, 278.4 188.4 Q 277.4 190.0, 275.3 190.0 M 275.3 188.7 Q 276.5 188.7, 277.2 187.6 Q 277.8 186.4, 277.8 184.2 Q 277.8 181.9, 277.2 180.8 Q 276.5 179.7, 275.3 179.7 Q 274.1 179.7, 273.4 180.8 Q 272.7 181.9, 272.7 184.2 Q 272.7 186.4, 273.4 187.6 Q 274.1 188.7, 275.3 188.7 " fill="#000000"/>
<path class="legend" d="M 281.8 188.6 L 284.3 188.6 L 284.3 180.1 L 281.6 180.9 L 281.2 180.0 L 284.7 178.4 L 285.8 178.6 L 285.8 188.6 L 288.0 188.6 L 288.0 189.8 L 281.8 189.8 L 281.8 188.6 " fill="#000000"/>
<path class="legend" d="M 289.4 184.1 L 295.3 184.1 L 295.3 185.4 L 289.4 185.4 L 289.4 184.1 " fill="#000000"/>
<path class="legend" d="M 301.0 182.8 Q 302.0 182.8, 302.8 183.2 Q 303.6 183.6, 304.0 184.4 Q 304.5 185.2, 304.5 186.3 Q 304.5 187.4, 303.9 188.3 Q 303.4 189.1, 302.4 189.5 Q 301.5 190.0, 300.5 190.0 Q 299.4 190.0, 298.5 189.6 Q 297.5 189.2, 296.8 188.5 L 297.8 187.5 Q 298.3 188.0, 299.1 188.4 Q 299.8 188.7, 300.5 188.7 Q 301.5 188.7, 302.2 188.0 Q 302.9 187.4, 302.9 186.3 Q 302.9 185.1, 302.2 184.5 Q 301.5 184.0, 300.4 184.0 Q 299.4 184.0, 298.3 184.4 L 297.4 184.0 L 298.0 178.5 L 303.8 178.5 L 303.6 179.8 L 299.3 179.8 L 299.0 183.2 Q 300.0 182.8, 301.0 182.8 " fill="#000000"/>
<path class="legend" d="M 312.0 179.8 L 306.0 179.8 L 306.0 178.5 L 313.5 178.5 L 313.5 179.6 L 309.0 189.8 L 307.4 189.8 L 312.0 179.8 " fill="#000000"/>
<path class="legend" d="M 322.1 186.0 L 323.5 186.0 L 323.5 187.2 L 322.1 187.2 L 322.1 189.8 L 320.6 189.8 L 320.6 187.2 L 314.7 187.2 L 314.7 186.2 L 319.7 178.5 L 322.1 178.5 L 322.1 186.0 M 316.6 186.0 L 320.6 186.0 L 320.6 179.5 L 316.6 186.0 " fill="#000000"/>
<path class="legend" d="M 325.0 184.1 L 330.8 184.1 L 330.8 185.4 L 325.0 185.4 L 325.0 184.1 " fill="#000000"/>
<path class="legend" d="M 336.5 182.8 Q 337.5 182.8, 338.3 183.2 Q 339.1 183.6, 339.6 184.4 Q 340.0 185.2, 340.0 186.3 Q 340.0 187.4, 339.5 188.3 Q 338.9 189.1, 338.0 189.5 Q 337.1 190.0, 336.0 190.0 Q 335.0 190.0, 334.0 189.6 Q 333.0 189.2, 332.4 188.5 L 333.3 187.5 Q 333.9 188.0, 334.6 188.4 Q 335.3 188.7, 336.0 188.7 Q 337.1 188.7, 337.7 188.0 Q 338.4 187.4, 338.4 186.3 Q 338.4 185.1, 337.7 184.5 Q 337.1 184.0, 336.0 184.0 Q 335.0 184.0, 333.9 184.4 L 333.0 184.0 L 333.5 178.5 L 339.3 178.5 L 339.2 179.8 L 334.8 179.8 L 334.5 183.2 Q 335.5 182.8, 336.5 182.8 " fill="#000000"/>
<path class="legend" d="M 341.6 180.7 Q 342.0 179.6, 343.0 179.0 Q 344.0 178.4, 345.4 178.4 Q 347.1 178.4, 348.0 179.3 Q 349.0 180.2, 349.0 181.9 Q 349.0 183.6, 347.7 185.1 Q 346.5 186.7, 344.0 188.6 L 349.2 188.6 L 349.2 189.8 L 341.6 189.8 L 341.6 188.8 Q 343.7 187.3, 344.9 186.1 Q 346.2 185.0, 346.8 184.0 Q 347.4 183.0, 347.4 182.0 Q 347.4 180.9, 346.8 180.3 Q 346.3 179.7, 345.4 179.7 Q 344.4 179.7, 343.8 180.0 Q 343.2 180.4, 342.8 181.2 L 341.6 180.7 " fill="#000000"/>
<path class="legend" d="M 351.5 188.6 L 354.0 188.6 L 354.0 180.1 L 351.2 180.9 L 350.9 180.0 L 354.4 178.4 L 355.5 178.6 L 355.5 188.6 L 357.7 188.6 L 357.7 189.8 L 351.5 189.8 L 351.5 188.6 " fill="#000000"/>
<path class="legend" d="M 359.1 184.1 L 365.0 184.1 L 365.0 185.4 L 359.1 185.4 L 359.1 184.1 " fill="#000000"/>
<path class="legend" d="M 372.3 183.8 Q 373.3 184.3, 373.9 185.0 Q 374.5 185.6, 374.5 186.7 Q 374.5 187.7, 374.0 188.4 Q 373.5 189.2, 372.6 189.6 Q 371.8 190.0, 370.6 190.0 Q 368.7 190.0, 367.6 189.1 Q 366.5 188.3, 366.5 186.7 Q 366.5 185.8, 367.0 185.1 Q 367.5 184.4, 368.5 183.9 Q 367.7 183.5, 367.3 182.9 Q 366.9 182.2, 366.9 181.3 Q 366.9 180.0, 367.9 179.2 Q 368.9 178.4, 370.5 178.4 Q 372.2 178.4, 373.1 179.2 Q 374.1 180.0, 374.1 181.3 Q 374.1 182.1, 373.6 182.7 Q 373.2 183.3, 372.3 183.8 M 370.5 179.6 Q 369.6 179.6, 369.1 180.0 Q 368.5 180.5, 368.5 181.3 Q 368.5 181.9, 368.9 182.3 Q 369.2 182.7, 369.7 182.9 Q 370.3 183.1, 371.2 183.4 Q 371.9 183.0, 372.2 182.4 Q 372.5 181.9, 372.5 181.3 Q 372.5 180.5, 372.0 180.0 Q 371.5 179.6, 370.5 179.6 M 370.6 188.8 Q 371.6 188.8, 372.3 188.2 Q 372.9 187.7, 372.9 186.7 Q 372.9 186.1, 372.6 185.7 Q 372.3 185.3, 371.7 185.1 Q 371.2 184.9, 370.4 184.6 L 369.6 184.4 Q 368.8 184.8, 368.5 185.4 Q 368.1 186.0, 368.1 186.7 Q 368.1 187.7, 368.8 188.2 Q 369.5 188.8, 370.6 188.8 " fill="#000000"/>
</svg>