<svg xmlns="http://www.w3.org/2000/svg" xmlns:rdkit="http://www.rdkit.org/xml" xmlns:xlink="http://www.w3.org/1999/xlink" version="1.1" baseProfile="full" xml:space="preserve" width="600px" height="200px" viewBox="0 0 600 200">
<!-- END OF HEADER -->
<rect style="opacity:1.0;fill:#FFFFFF;stroke:none" width="600.0" height="200.0" x="0.0" y="0.0"> </rect>
<path class="bond-0 atom-1 atom-0" d="M 134.1,89.6 L 127.1,106.2 L 124.7,104.9 Z" style="fill:#000000;fill-rule:evenodd;fill-opacity:1;stroke:#000000;stroke-width:0.5px;stroke-linecap:butt;stroke-linejoin:miter;stroke-opacity:1;"/>
<path class="bond-1 atom-1 atom-2" d="M 134.1,89.6 L 143.7,104.7" style="fill:none;fill-rule:evenodd;stroke:#000000;stroke-width:2.0px;stroke-linecap:butt;stroke-linejoin:miter;stroke-opacity:1"/>
<path class="bond-2 atom-2 atom-3" d="M 143.7,104.7 L 161.6,103.8" style="fill:none;fill-rule:evenodd;stroke:#000000;stroke-width:2.0px;stroke-linecap:butt;stroke-linejoin:miter;stroke-opacity:1"/>
<path class="bond-2 atom-2 atom-3" d="M 145.2,101.9 L 159.9,101.2" style="fill:none;fill-rule:evenodd;stroke:#000000;stroke-width:2.0px;stroke-linecap:butt;stroke-linejoin:miter;stroke-opacity:1"/>
<path class="bond-3 atom-3 atom-4" d="M 161.6,103.8 L 169.8,87.9" style="fill:none;fill-rule:evenodd;stroke:#000000;stroke-width:2.0px;stroke-linecap:butt;stroke-linejoin:miter;stroke-opacity:1"/>
<path class="bond-4 atom-4 atom-5" d="M 169.1,89.3 L 177.0,88.9" style="fill:none;fill-rule:evenodd;stroke:#000000;stroke-width:2.0px;stroke-linecap:butt;stroke-linejoin:miter;stroke-opacity:1"/>
<path class="bond-4 atom-4 atom-5" d="M 177.0,88.9 L 184.8,88.5" style="fill:none;fill-rule:evenodd;stroke:#FF0000;stroke-width:2.0px;stroke-linecap:butt;stroke-linejoin:miter;stroke-opacity:1"/>
<path class="bond-4 atom-4 atom-5" d="M 169.0,86.6 L 176.8,86.2" style="fill:none;fill-rule:evenodd;stroke:#000000;stroke-width:2.0px;stroke-linecap:butt;stroke-linejoin:miter;stroke-opacity:1"/>
<path class="bond-4 atom-4 atom-5" d="M 176.8,86.2 L 184.7,85.8" style="fill:none;fill-rule:evenodd;stroke:#FF0000;stroke-width:2.0px;stroke-linecap:butt;stroke-linejoin:miter;stroke-opacity:1"/>
<path class="bond-5 atom-4 atom-6" d="M 169.8,87.9 L 160.1,72.9" style="fill:none;fill-rule:evenodd;stroke:#000000;stroke-width:2.0px;stroke-linecap:butt;stroke-linejoin:miter;stroke-opacity:1"/>
<path class="bond-6 atom-6 atom-7" d="M 160.1,72.9 L 142.2,73.7" style="fill:none;fill-rule:evenodd;stroke:#000000;stroke-width:2.0px;stroke-linecap:butt;stroke-linejoin:miter;stroke-opacity:1"/>
<path class="bond-6 atom-6 atom-7" d="M 158.7,75.6 L 143.9,76.3" style="fill:none;fill-rule:evenodd;stroke:#000000;stroke-width:2.0px;stroke-linecap:butt;stroke-linejoin:miter;stroke-opacity:1"/>
<path class="bond-7 atom-7 atom-8" d="M 142.2,73.7 L 132.6,58.7" style="fill:none;fill-rule:evenodd;stroke:#000000;stroke-width:2.0px;stroke-linecap:butt;stroke-linejoin:miter;stroke-opacity:1"/>
<path class="bond-8 atom-8 atom-9" d="M 132.6,58.7 L 114.7,59.6" style="fill:none;fill-rule:evenodd;stroke:#000000;stroke-width:2.0px;stroke-linecap:butt;stroke-linejoin:miter;stroke-opacity:1"/>
<path class="bond-9 atom-9 atom-10" d="M 114.7,59.6 L 106.5,75.5" style="fill:none;fill-rule:evenodd;stroke:#000000;stroke-width:2.0px;stroke-linecap:butt;stroke-linejoin:miter;stroke-opacity:1"/>
<path class="bond-10 atom-10 atom-11" d="M 106.5,75.5 L 116.2,90.5" style="fill:none;fill-rule:evenodd;stroke:#000000;stroke-width:2.0px;stroke-linecap:butt;stroke-linejoin:miter;stroke-opacity:1"/>
<path class="bond-11 atom-11 atom-12" d="M 116.2,90.5 L 108.0,106.4" style="fill:none;fill-rule:evenodd;stroke:#000000;stroke-width:2.0px;stroke-linecap:butt;stroke-linejoin:miter;stroke-opacity:1"/>
<path class="bond-12 atom-12 atom-13" d="M 108.0,106.4 L 112.2,111.7 L 111.1,112.4 Z" style="fill:#000000;fill-rule:evenodd;fill-opacity:1;stroke:#000000;stroke-width:0.5px;stroke-linecap:butt;stroke-linejoin:miter;stroke-opacity:1;"/>
<path class="bond-12 atom-12 atom-13" d="M 112.2,111.7 L 114.1,118.5 L 116.4,117.0 Z" style="fill:#FF0000;fill-rule:evenodd;fill-opacity:1;stroke:#FF0000;stroke-width:0.5px;stroke-linecap:butt;stroke-linejoin:miter;stroke-opacity:1;"/>
<path class="bond-12 atom-12 atom-13" d="M 112.2,111.7 L 111.1,112.4 L 114.1,118.5 Z" style="fill:#FF0000;fill-rule:evenodd;fill-opacity:1;stroke:#FF0000;stroke-width:0.5px;stroke-linecap:butt;stroke-linejoin:miter;stroke-opacity:1;"/>
<path class="bond-13 atom-12 atom-14" d="M 108.0,106.4 L 90.1,107.3" style="fill:none;fill-rule:evenodd;stroke:#000000;stroke-width:2.0px;stroke-linecap:butt;stroke-linejoin:miter;stroke-opacity:1"/>
<path class="bond-14 atom-14 atom-15" d="M 90.1,107.3 L 80.4,92.2" style="fill:none;fill-rule:evenodd;stroke:#000000;stroke-width:2.0px;stroke-linecap:butt;stroke-linejoin:miter;stroke-opacity:1"/>
<path class="bond-15 atom-15 atom-16" d="M 80.4,92.2 L 73.7,108.9 L 71.3,107.7 Z" style="fill:#000000;fill-rule:evenodd;fill-opacity:1;stroke:#000000;stroke-width:0.5px;stroke-linecap:butt;stroke-linejoin:miter;stroke-opacity:1;"/>
<path class="bond-16 atom-15 atom-17" d="M 80.4,92.2 L 88.6,76.3" style="fill:none;fill-rule:evenodd;stroke:#000000;stroke-width:2.0px;stroke-linecap:butt;stroke-linejoin:miter;stroke-opacity:1"/>
<path class="bond-17 atom-17 atom-18" d="M 88.6,76.3 L 76.0,63.6" style="fill:none;fill-rule:evenodd;stroke:#000000;stroke-width:2.0px;stroke-linecap:butt;stroke-linejoin:miter;stroke-opacity:1"/>
<path class="bond-18 atom-18 atom-19" d="M 76.0,63.6 L 60.0,71.7" style="fill:none;fill-rule:evenodd;stroke:#000000;stroke-width:2.0px;stroke-linecap:butt;stroke-linejoin:miter;stroke-opacity:1"/>
<path class="bond-19 atom-19 atom-20" d="M 60.0,71.7 L 62.8,89.4" style="fill:none;fill-rule:evenodd;stroke:#000000;stroke-width:2.0px;stroke-linecap:butt;stroke-linejoin:miter;stroke-opacity:1"/>
<path class="bond-20 atom-20 atom-21" d="M 62.5,92.9 L 61.8,92.8" style="fill:none;fill-rule:evenodd;stroke:#000000;stroke-width:1.0px;stroke-linecap:butt;stroke-linejoin:miter;stroke-opacity:1"/>
<path class="bond-20 atom-20 atom-21" d="M 62.2,96.4 L 60.9,96.2" style="fill:none;fill-rule:evenodd;stroke:#000000;stroke-width:1.0px;stroke-linecap:butt;stroke-linejoin:miter;stroke-opacity:1"/>
<path class="bond-20 atom-20 atom-21" d="M 61.9,100.0 L 59.9,99.6" style="fill:none;fill-rule:evenodd;stroke:#FF0000;stroke-width:1.0px;stroke-linecap:butt;stroke-linejoin:miter;stroke-opacity:1"/>
<path class="bond-20 atom-20 atom-21" d="M 61.6,103.5 L 58.9,103.0" style="fill:none;fill-rule:evenodd;stroke:#FF0000;stroke-width:1.0px;stroke-linecap:butt;stroke-linejoin:miter;stroke-opacity:1"/>
<path class="bond-21 atom-20 atom-22" d="M 62.8,89.4 L 44.9,90.2" style="fill:none;fill-rule:evenodd;stroke:#000000;stroke-width:2.0px;stroke-linecap:butt;stroke-linejoin:miter;stroke-opacity:1"/>
<path class="bond-22 atom-22 atom-23" d="M 44.1,88.9 L 40.6,95.7" style="fill:none;fill-rule:evenodd;stroke:#000000;stroke-width:2.0px;stroke-linecap:butt;stroke-linejoin:miter;stroke-opacity:1"/>
<path class="bond-22 atom-22 atom-23" d="M 40.6,95.7 L 37.1,102.4" style="fill:none;fill-rule:evenodd;stroke:#FF0000;stroke-width:2.0px;stroke-linecap:butt;stroke-linejoin:miter;stroke-opacity:1"/>
<path class="bond-22 atom-22 atom-23" d="M 46.4,90.2 L 43.0,96.9" style="fill:none;fill-rule:evenodd;stroke:#000000;stroke-width:2.0px;stroke-linecap:butt;stroke-linejoin:miter;stroke-opacity:1"/>
<path class="bond-22 atom-22 atom-23" d="M 43.0,96.9 L 39.5,103.6" style="fill:none;fill-rule:evenodd;stroke:#FF0000;stroke-width:2.0px;stroke-linecap:butt;stroke-linejoin:miter;stroke-opacity:1"/>
<path class="bond-23 atom-22 atom-24" d="M 44.9,90.2 L 35.2,75.2" style="fill:none;fill-rule:evenodd;stroke:#000000;stroke-width:2.0px;stroke-linecap:butt;stroke-linejoin:miter;stroke-opacity:1"/>
<path class="bond-24 atom-24 atom-25" d="M 35.2,75.2 L 27.7,75.6" style="fill:none;fill-rule:evenodd;stroke:#000000;stroke-width:2.0px;stroke-linecap:butt;stroke-linejoin:miter;stroke-opacity:1"/>
<path class="bond-24 atom-24 atom-25" d="M 27.7,75.6 L 20.2,75.9" style="fill:none;fill-rule:evenodd;stroke:#FF0000;stroke-width:2.0px;stroke-linecap:butt;stroke-linejoin:miter;stroke-opacity:1"/>
<path class="bond-25 atom-7 atom-1" d="M 142.2,73.7 L 134.1,89.6" style="fill:none;fill-rule:evenodd;stroke:#000000;stroke-width:2.0px;stroke-linecap:butt;stroke-linejoin:miter;stroke-opacity:1"/>
<path class="bond-26 atom-17 atom-10" d="M 88.6,76.3 L 106.5,75.5" style="fill:none;fill-rule:evenodd;stroke:#000000;stroke-width:2.0px;stroke-linecap:butt;stroke-linejoin:miter;stroke-opacity:1"/>
<path class="bond-27 atom-11 atom-1" d="M 116.2,90.5 L 134.1,89.6" style="fill:none;fill-rule:evenodd;stroke:#000000;stroke-width:2.0px;stroke-linecap:butt;stroke-linejoin:miter;stroke-opacity:1"/>
<path class="bond-28 atom-20 atom-15" d="M 62.8,89.4 L 80.4,92.2" style="fill:none;fill-rule:evenodd;stroke:#000000;stroke-width:2.0px;stroke-linecap:butt;stroke-linejoin:miter;stroke-opacity:1"/>
<path class="bond-29 atom-10 atom-26" d="M 106.5,75.5 L 98.1,64.9 L 100.3,63.4 Z" style="fill:#000000;fill-rule:evenodd;fill-opacity:1;stroke:#000000;stroke-width:0.5px;stroke-linecap:butt;stroke-linejoin:miter;stroke-opacity:1;"/>
<path class="bond-30 atom-11 atom-27" d="M 117.4,87.3 L 118.0,87.6" style="fill:none;fill-rule:evenodd;stroke:#000000;stroke-width:1.0px;stroke-linecap:butt;stroke-linejoin:miter;stroke-opacity:1"/>
<path class="bond-30 atom-11 atom-27" d="M 118.7,84.1 L 119.9,84.7" style="fill:none;fill-rule:evenodd;stroke:#000000;stroke-width:1.0px;stroke-linecap:butt;stroke-linejoin:miter;stroke-opacity:1"/>
<path class="bond-30 atom-11 atom-27" d="M 120.0,80.9 L 121.8,81.8" style="fill:none;fill-rule:evenodd;stroke:#000000;stroke-width:1.0px;stroke-linecap:butt;stroke-linejoin:miter;stroke-opacity:1"/>
<path class="bond-30 atom-11 atom-27" d="M 121.3,77.7 L 123.6,78.9" style="fill:none;fill-rule:evenodd;stroke:#000000;stroke-width:1.0px;stroke-linecap:butt;stroke-linejoin:miter;stroke-opacity:1"/>
<path class="bond-31 atom-17 atom-28" d="M 90.5,79.2 L 89.9,79.6" style="fill:none;fill-rule:evenodd;stroke:#000000;stroke-width:1.0px;stroke-linecap:butt;stroke-linejoin:miter;stroke-opacity:1"/>
<path class="bond-31 atom-17 atom-28" d="M 92.3,82.2 L 91.1,82.8" style="fill:none;fill-rule:evenodd;stroke:#000000;stroke-width:1.0px;stroke-linecap:butt;stroke-linejoin:miter;stroke-opacity:1"/>
<path class="bond-31 atom-17 atom-28" d="M 94.2,85.1 L 92.4,86.0" style="fill:none;fill-rule:evenodd;stroke:#000000;stroke-width:1.0px;stroke-linecap:butt;stroke-linejoin:miter;stroke-opacity:1"/>
<path class="bond-31 atom-17 atom-28" d="M 96.0,88.0 L 93.6,89.2" style="fill:none;fill-rule:evenodd;stroke:#000000;stroke-width:1.0px;stroke-linecap:butt;stroke-linejoin:miter;stroke-opacity:1"/>
<path d="M 143.3,103.9 L 143.7,104.7 L 144.6,104.6" style="fill:none;stroke:#000000;stroke-width:2.0px;stroke-linecap:butt;stroke-linejoin:miter;stroke-opacity:1;"/>
<path d="M 160.7,103.9 L 161.6,103.8 L 162.0,103.0" style="fill:none;stroke:#000000;stroke-width:2.0px;stroke-linecap:butt;stroke-linejoin:miter;stroke-opacity:1;"/>
<path d="M 169.4,88.7 L 169.8,87.9 L 169.3,87.2" style="fill:none;stroke:#000000;stroke-width:2.0px;stroke-linecap:butt;stroke-linejoin:miter;stroke-opacity:1;"/>
<path d="M 160.6,73.6 L 160.1,72.9 L 159.2,72.9" style="fill:none;stroke:#000000;stroke-width:2.0px;stroke-linecap:butt;stroke-linejoin:miter;stroke-opacity:1;"/>
<path d="M 133.0,59.4 L 132.6,58.7 L 131.7,58.7" style="fill:none;stroke:#000000;stroke-width:2.0px;stroke-linecap:butt;stroke-linejoin:miter;stroke-opacity:1;"/>
<path d="M 115.6,59.5 L 114.7,59.6 L 114.3,60.3" style="fill:none;stroke:#000000;stroke-width:2.0px;stroke-linecap:butt;stroke-linejoin:miter;stroke-opacity:1;"/>
<path d="M 108.4,105.6 L 108.0,106.4 L 107.1,106.5" style="fill:none;stroke:#000000;stroke-width:2.0px;stroke-linecap:butt;stroke-linejoin:miter;stroke-opacity:1;"/>
<path d="M 91.0,107.2 L 90.1,107.3 L 89.6,106.5" style="fill:none;stroke:#000000;stroke-width:2.0px;stroke-linecap:butt;stroke-linejoin:miter;stroke-opacity:1;"/>
<path d="M 76.6,64.3 L 76.0,63.6 L 75.2,64.0" style="fill:none;stroke:#000000;stroke-width:2.0px;stroke-linecap:butt;stroke-linejoin:miter;stroke-opacity:1;"/>
<path d="M 60.8,71.3 L 60.0,71.7 L 60.2,72.6" style="fill:none;stroke:#000000;stroke-width:2.0px;stroke-linecap:butt;stroke-linejoin:miter;stroke-opacity:1;"/>
<path d="M 45.8,90.2 L 44.9,90.2 L 44.4,89.5" style="fill:none;stroke:#000000;stroke-width:2.0px;stroke-linecap:butt;stroke-linejoin:miter;stroke-opacity:1;"/>
<path d="M 35.7,76.0 L 35.2,75.2 L 34.8,75.2" style="fill:none;stroke:#000000;stroke-width:2.0px;stroke-linecap:butt;stroke-linejoin:miter;stroke-opacity:1;"/>
<path class="atom-5" d="M 185.3 87.1 Q 185.3 85.8, 185.9 85.2 Q 186.5 84.5, 187.7 84.5 Q 188.8 84.5, 189.4 85.2 Q 190.0 85.8, 190.0 87.1 Q 190.0 88.3, 189.4 89.0 Q 188.8 89.7, 187.7 89.7 Q 186.6 89.7, 185.9 89.0 Q 185.3 88.3, 185.3 87.1 M 187.7 89.1 Q 188.4 89.1, 188.9 88.6 Q 189.3 88.1, 189.3 87.1 Q 189.3 86.1, 188.9 85.6 Q 188.4 85.1, 187.7 85.1 Q 186.9 85.1, 186.5 85.6 Q 186.1 86.1, 186.1 87.1 Q 186.1 88.1, 186.5 88.6 Q 186.9 89.1, 187.7 89.1 " fill="#FF0000"/>
<path class="atom-13" d="M 115.4 121.5 Q 115.4 120.3, 116.0 119.6 Q 116.6 118.9, 117.7 118.9 Q 118.8 118.9, 119.4 119.6 Q 120.0 120.3, 120.0 121.5 Q 120.0 122.7, 119.4 123.4 Q 118.8 124.1, 117.7 124.1 Q 116.6 124.1, 116.0 123.4 Q 115.4 122.7, 115.4 121.5 M 117.7 123.5 Q 118.5 123.5, 118.9 123.0 Q 119.3 122.5, 119.3 121.5 Q 119.3 120.5, 118.9 120.0 Q 118.5 119.5, 117.7 119.5 Q 116.9 119.5, 116.5 120.0 Q 116.1 120.5, 116.1 121.5 Q 116.1 122.5, 116.5 123.0 Q 116.9 123.5, 117.7 123.5 " fill="#FF0000"/>
<path class="atom-13" d="M 120.8 119.0 L 121.5 119.0 L 121.5 121.1 L 124.1 121.1 L 124.1 119.0 L 124.8 119.0 L 124.8 124.0 L 124.1 124.0 L 124.1 121.7 L 121.5 121.7 L 121.5 124.0 L 120.8 124.0 L 120.8 119.0 " fill="#FF0000"/>
<path class="atom-21" d="M 57.3 107.0 Q 57.3 105.8, 57.9 105.1 Q 58.5 104.4, 59.6 104.4 Q 60.7 104.4, 61.3 105.1 Q 61.9 105.8, 61.9 107.0 Q 61.9 108.2, 61.3 108.9 Q 60.7 109.6, 59.6 109.6 Q 58.5 109.6, 57.9 108.9 Q 57.3 108.2, 57.3 107.0 M 59.6 109.1 Q 60.4 109.1, 60.8 108.5 Q 61.2 108.0, 61.2 107.0 Q 61.2 106.0, 60.8 105.5 Q 60.4 105.0, 59.6 105.0 Q 58.8 105.0, 58.4 105.5 Q 58.0 106.0, 58.0 107.0 Q 58.0 108.0, 58.4 108.5 Q 58.8 109.1, 59.6 109.1 " fill="#FF0000"/>
<path class="atom-21" d="M 62.7 104.5 L 63.4 104.5 L 63.4 106.6 L 66.0 106.6 L 66.0 104.5 L 66.7 104.5 L 66.7 109.6 L 66.0 109.6 L 66.0 107.2 L 63.4 107.2 L 63.4 109.6 L 62.7 109.6 L 62.7 104.5 " fill="#FF0000"/>
<path class="atom-23" d="M 34.4 106.2 Q 34.4 105.0, 35.0 104.3 Q 35.6 103.6, 36.7 103.6 Q 37.8 103.6, 38.4 104.3 Q 39.0 105.0, 39.0 106.2 Q 39.0 107.4, 38.4 108.1 Q 37.8 108.8, 36.7 108.8 Q 35.6 108.8, 35.0 108.1 Q 34.4 107.4, 34.4 106.2 M 36.7 108.2 Q 37.5 108.2, 37.9 107.7 Q 38.3 107.2, 38.3 106.2 Q 38.3 105.2, 37.9 104.7 Q 37.5 104.2, 36.7 104.2 Q 35.9 104.2, 35.5 104.7 Q 35.1 105.2, 35.1 106.2 Q 35.1 107.2, 35.5 107.7 Q 35.9 108.2, 36.7 108.2 " fill="#FF0000"/>
<path class="atom-25" d="M 10.0 73.6 L 10.7 73.6 L 10.7 75.7 L 13.3 75.7 L 13.3 73.6 L 14.0 73.6 L 14.0 78.6 L 13.3 78.6 L 13.3 76.3 L 10.7 76.3 L 10.7 78.6 L 10.0 78.6 L 10.0 73.6 " fill="#FF0000"/>
<path class="atom-25" d="M 15.0 76.1 Q 15.0 74.9, 15.6 74.2 Q 16.2 73.5, 17.3 73.5 Q 18.5 73.5, 19.1 74.2 Q 19.7 74.9, 19.7 76.1 Q 19.7 77.3, 19.0 78.0 Q 18.4 78.7, 17.3 78.7 Q 16.2 78.7, 15.6 78.0 Q 15.0 77.3, 15.0 76.1 M 17.3 78.1 Q 18.1 78.1, 18.5 77.6 Q 18.9 77.1, 18.9 76.1 Q 18.9 75.1, 18.5 74.6 Q 18.1 74.1, 17.3 74.1 Q 16.6 74.1, 16.1 74.6 Q 15.7 75.1, 15.7 76.1 Q 15.7 77.1, 16.1 77.6 Q 16.6 78.1, 17.3 78.1 " fill="#FF0000"/>
<path class="atom-26" d="M 94.8 57.9 L 95.5 57.9 L 95.5 60.0 L 98.1 60.0 L 98.1 57.9 L 98.8 57.9 L 98.8 63.0 L 98.1 63.0 L 98.1 60.6 L 95.5 60.6 L 95.5 63.0 L 94.8 63.0 L 94.8 57.9 " fill="#000000"/>
<path class="atom-27" d="M 122.4 72.1 L 123.1 72.1 L 123.1 74.2 L 125.7 74.2 L 125.7 72.1 L 126.3 72.1 L 126.3 77.1 L 125.7 77.1 L 125.7 74.8 L 123.1 74.8 L 123.1 77.1 L 122.4 77.1 L 122.4 72.1 " fill="#000000"/>
<path class="atom-28" d="M 94.7 89.8 L 95.4 89.8 L 95.4 91.9 L 98.0 91.9 L 98.0 89.8 L 98.7 89.8 L 98.7 94.8 L 98.0 94.8 L 98.0 92.5 L 95.4 92.5 L 95.4 94.8 L 94.7 94.8 L 94.7 89.8 " fill="#000000"/>
<path class="legend" d="M 48.8 178.4 Q 50.8 178.4, 51.7 179.2 Q 52.7 180.1, 52.7 181.7 Q 52.7 183.3, 51.7 184.2 Q 50.7 185.0, 48.8 185.0 L 47.0 185.0 L 47.0 189.7 L 45.5 189.7 L 45.5 178.4 L 48.8 178.4 M 48.8 183.8 Q 49.9 183.8, 50.5 183.2 Q 51.1 182.7, 51.1 181.7 Q 51.1 180.7, 50.5 180.2 Q 49.9 179.6, 48.8 179.6 L 47.0 179.6 L 47.0 183.8 L 48.8 183.8 " fill="#000000"/>
<path class="legend" d="M 60.3 189.7 L 57.6 185.0 L 57.6 185.0 L 55.8 185.0 L 55.8 189.7 L 54.2 189.7 L 54.2 178.4 L 57.6 178.4 Q 59.5 178.4, 60.5 179.2 Q 61.5 180.1, 61.5 181.7 Q 61.5 182.9, 60.9 183.7 Q 60.3 184.5, 59.1 184.8 L 62.0 189.7 L 60.3 189.7 M 55.8 183.8 L 57.6 183.8 Q 58.7 183.8, 59.3 183.2 Q 59.9 182.7, 59.9 181.7 Q 59.9 180.7, 59.3 180.2 Q 58.7 179.6, 57.6 179.6 L 55.8 179.6 L 55.8 183.8 " fill="#000000"/>
<path class="legend" d="M 63.2 178.4 L 69.9 178.4 L 69.9 179.7 L 64.7 179.7 L 64.7 183.1 L 69.4 183.1 L 69.4 184.4 L 64.7 184.4 L 64.7 188.4 L 70.1 188.4 L 70.1 189.7 L 63.2 189.7 L 63.2 178.4 " fill="#000000"/>
<path class="legend" d="M 75.3 178.4 Q 77.8 178.4, 79.1 179.9 Q 80.5 181.3, 80.5 184.0 Q 80.5 186.7, 79.1 188.2 Q 77.8 189.7, 75.3 189.7 L 71.6 189.7 L 71.6 178.4 L 75.3 178.4 M 75.3 188.4 Q 77.0 188.4, 77.9 187.3 Q 78.9 186.2, 78.9 184.0 Q 78.9 181.8, 77.9 180.7 Q 77.0 179.6, 75.3 179.6 L 73.1 179.6 L 73.1 188.4 L 75.3 188.4 " fill="#000000"/>
<path class="legend" d="M 83.7 178.4 L 87.5 184.4 Q 87.8 185.0, 88.4 186.0 Q 89.0 187.1, 89.0 187.2 L 89.0 178.4 L 90.5 178.4 L 90.5 189.7 L 89.0 189.7 L 85.0 183.1 Q 84.5 182.4, 84.1 181.5 Q 83.6 180.6, 83.4 180.3 L 83.4 189.7 L 82.0 189.7 L 82.0 178.4 L 83.7 178.4 " fill="#000000"/>
<path class="legend" d="M 92.6 178.3 L 94.2 178.3 L 94.2 189.7 L 92.6 189.7 L 92.6 178.3 " fill="#000000"/>
<path class="legend" d="M 96.8 187.9 Q 96.9 188.0, 97.4 188.2 Q 97.9 188.4, 98.5 188.6 Q 99.1 188.7, 99.7 188.7 Q 100.8 188.7, 101.4 188.2 Q 102.0 187.7, 102.0 186.8 Q 102.0 186.1, 101.7 185.7 Q 101.4 185.4, 100.9 185.2 Q 100.4 184.9, 99.6 184.7 Q 98.6 184.4, 98.0 184.1 Q 97.4 183.8, 97.0 183.2 Q 96.6 182.6, 96.6 181.6 Q 96.6 180.2, 97.5 179.3 Q 98.5 178.4, 100.4 178.4 Q 101.7 178.4, 103.2 179.0 L 102.9 180.3 Q 101.5 179.7, 100.5 179.7 Q 99.4 179.7, 98.8 180.2 Q 98.1 180.6, 98.2 181.4 Q 98.2 182.0, 98.5 182.4 Q 98.8 182.7, 99.2 182.9 Q 99.7 183.2, 100.5 183.4 Q 101.5 183.7, 102.1 184.0 Q 102.7 184.4, 103.1 185.0 Q 103.6 185.6, 103.6 186.8 Q 103.6 188.3, 102.5 189.2 Q 101.5 190.0, 99.7 190.0 Q 98.7 190.0, 98.0 189.8 Q 97.2 189.6, 96.3 189.2 L 96.8 187.9 " fill="#000000"/>
<path class="legend" d="M 105.1 184.0 Q 105.1 181.3, 106.4 179.8 Q 107.8 178.2, 110.3 178.2 Q 112.8 178.2, 114.2 179.8 Q 115.5 181.3, 115.5 184.0 Q 115.5 186.8, 114.1 188.3 Q 112.8 189.9, 110.3 189.9 Q 107.8 189.9, 106.4 188.3 Q 105.1 186.8, 105.1 184.0 M 110.3 188.6 Q 112.0 188.6, 113.0 187.4 Q 113.9 186.3, 113.9 184.0 Q 113.9 181.8, 113.0 180.7 Q 112.0 179.5, 110.3 179.5 Q 108.6 179.5, 107.6 180.6 Q 106.7 181.8, 106.7 184.0 Q 106.7 186.3, 107.6 187.4 Q 108.6 188.6, 110.3 188.6 " fill="#000000"/>
<path class="legend" d="M 117.1 178.4 L 118.6 178.4 L 118.6 188.4 L 123.8 188.4 L 123.8 189.7 L 117.1 189.7 L 117.1 178.4 " fill="#000000"/>
<path class="legend" d="M 125.0 184.0 Q 125.0 181.3, 126.3 179.8 Q 127.7 178.2, 130.2 178.2 Q 132.7 178.2, 134.0 179.8 Q 135.4 181.3, 135.4 184.0 Q 135.4 186.8, 134.0 188.3 Q 132.7 189.9, 130.2 189.9 Q 127.7 189.9, 126.3 188.3 Q 125.0 186.8, 125.0 184.0 M 130.2 188.6 Q 131.9 188.6, 132.8 187.4 Q 133.8 186.3, 133.8 184.0 Q 133.8 181.8, 132.8 180.7 Q 131.9 179.5, 130.2 179.5 Q 128.4 179.5, 127.5 180.6 Q 126.6 181.8, 126.6 184.0 Q 126.6 186.3, 127.5 187.4 Q 128.4 188.6, 130.2 188.6 " fill="#000000"/>
<path class="legend" d="M 138.7 178.4 L 142.4 184.4 Q 142.8 185.0, 143.4 186.0 Q 144.0 187.1, 144.0 187.2 L 144.0 178.4 L 145.5 178.4 L 145.5 189.7 L 144.0 189.7 L 140.0 183.1 Q 139.5 182.4, 139.0 181.5 Q 138.5 180.6, 138.4 180.3 L 138.4 189.7 L 136.9 189.7 L 136.9 178.4 L 138.7 178.4 " fill="#000000"/>
<path class="legend" d="M 147.6 178.4 L 154.3 178.4 L 154.3 179.7 L 149.1 179.7 L 149.1 183.1 L 153.8 183.1 L 153.8 184.4 L 149.1 184.4 L 149.1 188.4 L 154.5 188.4 L 154.5 189.7 L 147.6 189.7 L 147.6 178.4 " fill="#000000"/>
<path class="bond-0 atom-0 atom-1" d="M 215.3,94.1 L 223.1,93.7" style="fill:none;fill-rule:evenodd;stroke:#FF0000;stroke-width:2.0px;stroke-linecap:butt;stroke-linejoin:miter;stroke-opacity:1"/>
<path class="bond-0 atom-0 atom-1" d="M 223.1,93.7 L 231.0,93.2" style="fill:none;fill-rule:evenodd;stroke:#000000;stroke-width:2.0px;stroke-linecap:butt;stroke-linejoin:miter;stroke-opacity:1"/>
<path class="bond-0 atom-0 atom-1" d="M 215.4,96.8 L 223.3,96.3" style="fill:none;fill-rule:evenodd;stroke:#FF0000;stroke-width:2.0px;stroke-linecap:butt;stroke-linejoin:miter;stroke-opacity:1"/>
<path class="bond-0 atom-0 atom-1" d="M 223.3,96.3 L 231.1,95.9" style="fill:none;fill-rule:evenodd;stroke:#000000;stroke-width:2.0px;stroke-linecap:butt;stroke-linejoin:miter;stroke-opacity:1"/>
<path class="bond-1 atom-1 atom-2" d="M 230.3,94.6 L 238.4,78.7" style="fill:none;fill-rule:evenodd;stroke:#000000;stroke-width:2.0px;stroke-linecap:butt;stroke-linejoin:miter;stroke-opacity:1"/>
<path class="bond-2 atom-2 atom-3" d="M 238.4,78.7 L 256.3,77.7" style="fill:none;fill-rule:evenodd;stroke:#000000;stroke-width:2.0px;stroke-linecap:butt;stroke-linejoin:miter;stroke-opacity:1"/>
<path class="bond-2 atom-2 atom-3" d="M 240.1,81.3 L 254.9,80.5" style="fill:none;fill-rule:evenodd;stroke:#000000;stroke-width:2.0px;stroke-linecap:butt;stroke-linejoin:miter;stroke-opacity:1"/>
<path class="bond-3 atom-3 atom-4" d="M 256.3,77.7 L 266.0,92.8" style="fill:none;fill-rule:evenodd;stroke:#000000;stroke-width:2.0px;stroke-linecap:butt;stroke-linejoin:miter;stroke-opacity:1"/>
<path class="bond-4 atom-4 atom-5" d="M 266.0,92.8 L 257.9,108.7" style="fill:none;fill-rule:evenodd;stroke:#000000;stroke-width:2.0px;stroke-linecap:butt;stroke-linejoin:miter;stroke-opacity:1"/>
<path class="bond-5 atom-5 atom-6" d="M 257.9,108.7 L 240.0,109.6" style="fill:none;fill-rule:evenodd;stroke:#000000;stroke-width:2.0px;stroke-linecap:butt;stroke-linejoin:miter;stroke-opacity:1"/>
<path class="bond-5 atom-5 atom-6" d="M 256.2,106.1 L 241.5,106.9" style="fill:none;fill-rule:evenodd;stroke:#000000;stroke-width:2.0px;stroke-linecap:butt;stroke-linejoin:miter;stroke-opacity:1"/>
<path class="bond-6 atom-5 atom-7" d="M 257.9,108.7 L 267.7,123.7" style="fill:none;fill-rule:evenodd;stroke:#000000;stroke-width:2.0px;stroke-linecap:butt;stroke-linejoin:miter;stroke-opacity:1"/>
<path class="bond-7 atom-7 atom-8" d="M 267.7,123.7 L 285.5,122.8" style="fill:none;fill-rule:evenodd;stroke:#000000;stroke-width:2.0px;stroke-linecap:butt;stroke-linejoin:miter;stroke-opacity:1"/>
<path class="bond-8 atom-8 atom-9" d="M 285.5,122.8 L 293.7,106.8" style="fill:none;fill-rule:evenodd;stroke:#000000;stroke-width:2.0px;stroke-linecap:butt;stroke-linejoin:miter;stroke-opacity:1"/>
<path class="bond-9 atom-9 atom-10" d="M 293.7,106.8 L 311.5,105.9" style="fill:none;fill-rule:evenodd;stroke:#000000;stroke-width:2.0px;stroke-linecap:butt;stroke-linejoin:miter;stroke-opacity:1"/>
<path class="bond-10 atom-10 atom-11" d="M 311.5,105.9 L 324.2,118.5" style="fill:none;fill-rule:evenodd;stroke:#000000;stroke-width:2.0px;stroke-linecap:butt;stroke-linejoin:miter;stroke-opacity:1"/>
<path class="bond-11 atom-11 atom-12" d="M 324.2,118.5 L 340.1,110.4" style="fill:none;fill-rule:evenodd;stroke:#000000;stroke-width:2.0px;stroke-linecap:butt;stroke-linejoin:miter;stroke-opacity:1"/>
<path class="bond-12 atom-12 atom-13" d="M 340.1,110.4 L 337.3,92.7" style="fill:none;fill-rule:evenodd;stroke:#000000;stroke-width:2.0px;stroke-linecap:butt;stroke-linejoin:miter;stroke-opacity:1"/>
<path class="bond-13 atom-13 atom-14" d="M 337.3,92.7 L 338.6,85.5" style="fill:none;fill-rule:evenodd;stroke:#000000;stroke-width:2.0px;stroke-linecap:butt;stroke-linejoin:miter;stroke-opacity:1"/>
<path class="bond-13 atom-13 atom-14" d="M 338.6,85.5 L 339.9,78.3" style="fill:none;fill-rule:evenodd;stroke:#FF0000;stroke-width:2.0px;stroke-linecap:butt;stroke-linejoin:miter;stroke-opacity:1"/>
<path class="bond-14 atom-13 atom-15" d="M 337.3,92.7 L 355.2,91.8" style="fill:none;fill-rule:evenodd;stroke:#000000;stroke-width:2.0px;stroke-linecap:butt;stroke-linejoin:miter;stroke-opacity:1"/>
<path class="bond-15 atom-15 atom-16" d="M 356.0,93.1 L 359.5,86.4" style="fill:none;fill-rule:evenodd;stroke:#000000;stroke-width:2.0px;stroke-linecap:butt;stroke-linejoin:miter;stroke-opacity:1"/>
<path class="bond-15 atom-15 atom-16" d="M 359.5,86.4 L 362.9,79.7" style="fill:none;fill-rule:evenodd;stroke:#FF0000;stroke-width:2.0px;stroke-linecap:butt;stroke-linejoin:miter;stroke-opacity:1"/>
<path class="bond-15 atom-15 atom-16" d="M 353.6,91.9 L 357.1,85.2" style="fill:none;fill-rule:evenodd;stroke:#000000;stroke-width:2.0px;stroke-linecap:butt;stroke-linejoin:miter;stroke-opacity:1"/>
<path class="bond-15 atom-15 atom-16" d="M 357.1,85.2 L 360.5,78.5" style="fill:none;fill-rule:evenodd;stroke:#FF0000;stroke-width:2.0px;stroke-linecap:butt;stroke-linejoin:miter;stroke-opacity:1"/>
<path class="bond-16 atom-15 atom-17" d="M 355.2,91.8 L 364.9,106.8" style="fill:none;fill-rule:evenodd;stroke:#000000;stroke-width:2.0px;stroke-linecap:butt;stroke-linejoin:miter;stroke-opacity:1"/>
<path class="bond-17 atom-17 atom-18" d="M 364.9,106.8 L 372.4,106.4" style="fill:none;fill-rule:evenodd;stroke:#000000;stroke-width:2.0px;stroke-linecap:butt;stroke-linejoin:miter;stroke-opacity:1"/>
<path class="bond-17 atom-17 atom-18" d="M 372.4,106.4 L 379.9,106.0" style="fill:none;fill-rule:evenodd;stroke:#FF0000;stroke-width:2.0px;stroke-linecap:butt;stroke-linejoin:miter;stroke-opacity:1"/>
<path class="bond-18 atom-13 atom-19" d="M 337.3,92.7 L 319.7,89.9" style="fill:none;fill-rule:evenodd;stroke:#000000;stroke-width:2.0px;stroke-linecap:butt;stroke-linejoin:miter;stroke-opacity:1"/>
<path class="bond-19 atom-19 atom-20" d="M 319.7,89.9 L 327.5,73.8" style="fill:none;fill-rule:evenodd;stroke:#000000;stroke-width:2.0px;stroke-linecap:butt;stroke-linejoin:miter;stroke-opacity:1"/>
<path class="bond-20 atom-19 atom-21" d="M 319.7,89.9 L 309.9,74.9" style="fill:none;fill-rule:evenodd;stroke:#000000;stroke-width:2.0px;stroke-linecap:butt;stroke-linejoin:miter;stroke-opacity:1"/>
<path class="bond-21 atom-21 atom-22" d="M 309.9,74.9 L 292.0,75.9" style="fill:none;fill-rule:evenodd;stroke:#000000;stroke-width:2.0px;stroke-linecap:butt;stroke-linejoin:miter;stroke-opacity:1"/>
<path class="bond-22 atom-22 atom-23" d="M 292.0,75.9 L 288.2,70.0" style="fill:none;fill-rule:evenodd;stroke:#000000;stroke-width:2.0px;stroke-linecap:butt;stroke-linejoin:miter;stroke-opacity:1"/>
<path class="bond-22 atom-22 atom-23" d="M 288.2,70.0 L 284.4,64.1" style="fill:none;fill-rule:evenodd;stroke:#FF0000;stroke-width:2.0px;stroke-linecap:butt;stroke-linejoin:miter;stroke-opacity:1"/>
<path class="bond-23 atom-22 atom-24" d="M 292.0,75.9 L 283.9,91.8" style="fill:none;fill-rule:evenodd;stroke:#000000;stroke-width:2.0px;stroke-linecap:butt;stroke-linejoin:miter;stroke-opacity:1"/>
<path class="bond-24 atom-4 atom-25" d="M 266.0,92.8 L 274.2,76.8" style="fill:none;fill-rule:evenodd;stroke:#000000;stroke-width:2.0px;stroke-linecap:butt;stroke-linejoin:miter;stroke-opacity:1"/>
<path class="bond-25 atom-6 atom-1" d="M 240.0,109.6 L 230.3,94.6" style="fill:none;fill-rule:evenodd;stroke:#000000;stroke-width:2.0px;stroke-linecap:butt;stroke-linejoin:miter;stroke-opacity:1"/>
<path class="bond-26 atom-24 atom-4" d="M 283.9,91.8 L 266.0,92.8" style="fill:none;fill-rule:evenodd;stroke:#000000;stroke-width:2.0px;stroke-linecap:butt;stroke-linejoin:miter;stroke-opacity:1"/>
<path class="bond-27 atom-24 atom-9" d="M 283.9,91.8 L 293.7,106.8" style="fill:none;fill-rule:evenodd;stroke:#000000;stroke-width:2.0px;stroke-linecap:butt;stroke-linejoin:miter;stroke-opacity:1"/>
<path class="bond-28 atom-19 atom-10" d="M 319.7,89.9 L 311.5,105.9" style="fill:none;fill-rule:evenodd;stroke:#000000;stroke-width:2.0px;stroke-linecap:butt;stroke-linejoin:miter;stroke-opacity:1"/>
<path d="M 230.7,93.8 L 230.3,94.6 L 230.8,95.4" style="fill:none;stroke:#000000;stroke-width:2.0px;stroke-linecap:butt;stroke-linejoin:miter;stroke-opacity:1;"/>
<path d="M 238.0,79.5 L 238.4,78.7 L 239.3,78.6" style="fill:none;stroke:#000000;stroke-width:2.0px;stroke-linecap:butt;stroke-linejoin:miter;stroke-opacity:1;"/>
<path d="M 255.4,77.8 L 256.3,77.7 L 256.8,78.5" style="fill:none;stroke:#000000;stroke-width:2.0px;stroke-linecap:butt;stroke-linejoin:miter;stroke-opacity:1;"/>
<path d="M 240.9,109.6 L 240.0,109.6 L 239.6,108.9" style="fill:none;stroke:#000000;stroke-width:2.0px;stroke-linecap:butt;stroke-linejoin:miter;stroke-opacity:1;"/>
<path d="M 267.2,123.0 L 267.7,123.7 L 268.6,123.7" style="fill:none;stroke:#000000;stroke-width:2.0px;stroke-linecap:butt;stroke-linejoin:miter;stroke-opacity:1;"/>
<path d="M 284.6,122.8 L 285.5,122.8 L 285.9,122.0" style="fill:none;stroke:#000000;stroke-width:2.0px;stroke-linecap:butt;stroke-linejoin:miter;stroke-opacity:1;"/>
<path d="M 323.6,117.9 L 324.2,118.5 L 325.0,118.1" style="fill:none;stroke:#000000;stroke-width:2.0px;stroke-linecap:butt;stroke-linejoin:miter;stroke-opacity:1;"/>
<path d="M 339.3,110.8 L 340.1,110.4 L 340.0,109.5" style="fill:none;stroke:#000000;stroke-width:2.0px;stroke-linecap:butt;stroke-linejoin:miter;stroke-opacity:1;"/>
<path d="M 354.3,91.8 L 355.2,91.8 L 355.7,92.5" style="fill:none;stroke:#000000;stroke-width:2.0px;stroke-linecap:butt;stroke-linejoin:miter;stroke-opacity:1;"/>
<path d="M 364.5,106.0 L 364.9,106.8 L 365.3,106.8" style="fill:none;stroke:#000000;stroke-width:2.0px;stroke-linecap:butt;stroke-linejoin:miter;stroke-opacity:1;"/>
<path d="M 310.4,75.7 L 309.9,74.9 L 309.0,75.0" style="fill:none;stroke:#000000;stroke-width:2.0px;stroke-linecap:butt;stroke-linejoin:miter;stroke-opacity:1;"/>
<path class="atom-0" d="M 210.1 95.6 Q 210.1 94.4, 210.7 93.7 Q 211.3 93.0, 212.4 93.0 Q 213.6 93.0, 214.2 93.7 Q 214.8 94.4, 214.8 95.6 Q 214.8 96.8, 214.1 97.5 Q 213.5 98.2, 212.4 98.2 Q 211.3 98.2, 210.7 97.5 Q 210.1 96.8, 210.1 95.6 M 212.4 97.6 Q 213.2 97.6, 213.6 97.1 Q 214.0 96.6, 214.0 95.6 Q 214.0 94.6, 213.6 94.1 Q 213.2 93.6, 212.4 93.6 Q 211.7 93.6, 211.2 94.1 Q 210.8 94.6, 210.8 95.6 Q 210.8 96.6, 211.2 97.1 Q 211.7 97.6, 212.4 97.6 " fill="#FF0000"/>
<path class="atom-14" d="M 338.1 75.1 Q 338.1 73.9, 338.7 73.2 Q 339.3 72.5, 340.4 72.5 Q 341.6 72.5, 342.2 73.2 Q 342.8 73.9, 342.8 75.1 Q 342.8 76.4, 342.2 77.1 Q 341.5 77.7, 340.4 77.7 Q 339.3 77.7, 338.7 77.1 Q 338.1 76.4, 338.1 75.1 M 340.4 77.2 Q 341.2 77.2, 341.6 76.7 Q 342.0 76.1, 342.0 75.1 Q 342.0 74.1, 341.6 73.6 Q 341.2 73.1, 340.4 73.1 Q 339.7 73.1, 339.2 73.6 Q 338.8 74.1, 338.8 75.1 Q 338.8 76.1, 339.2 76.7 Q 339.7 77.2, 340.4 77.2 " fill="#FF0000"/>
<path class="atom-14" d="M 343.5 72.6 L 344.2 72.6 L 344.2 74.8 L 346.8 74.8 L 346.8 72.6 L 347.5 72.6 L 347.5 77.7 L 346.8 77.7 L 346.8 75.3 L 344.2 75.3 L 344.2 77.7 L 343.5 77.7 L 343.5 72.6 " fill="#FF0000"/>
<path class="atom-16" d="M 361.0 75.9 Q 361.0 74.6, 361.6 74.0 Q 362.2 73.3, 363.3 73.3 Q 364.4 73.3, 365.0 74.0 Q 365.6 74.6, 365.6 75.9 Q 365.6 77.1, 365.0 77.8 Q 364.4 78.5, 363.3 78.5 Q 362.2 78.5, 361.6 77.8 Q 361.0 77.1, 361.0 75.9 M 363.3 77.9 Q 364.1 77.9, 364.5 77.4 Q 364.9 76.9, 364.9 75.9 Q 364.9 74.9, 364.5 74.4 Q 364.1 73.9, 363.3 73.9 Q 362.5 73.9, 362.1 74.4 Q 361.7 74.9, 361.7 75.9 Q 361.7 76.9, 362.1 77.4 Q 362.5 77.9, 363.3 77.9 " fill="#FF0000"/>
<path class="atom-18" d="M 380.5 105.9 Q 380.5 104.7, 381.1 104.0 Q 381.7 103.3, 382.8 103.3 Q 383.9 103.3, 384.5 104.0 Q 385.1 104.7, 385.1 105.9 Q 385.1 107.1, 384.5 107.8 Q 383.9 108.5, 382.8 108.5 Q 381.7 108.5, 381.1 107.8 Q 380.5 107.1, 380.5 105.9 M 382.8 107.9 Q 383.6 107.9, 384.0 107.4 Q 384.4 106.9, 384.4 105.9 Q 384.4 104.9, 384.0 104.4 Q 383.6 103.9, 382.8 103.9 Q 382.0 103.9, 381.6 104.4 Q 381.2 104.9, 381.2 105.9 Q 381.2 106.9, 381.6 107.4 Q 382.0 107.9, 382.8 107.9 " fill="#FF0000"/>
<path class="atom-18" d="M 385.9 103.4 L 386.6 103.4 L 386.6 105.5 L 389.2 105.5 L 389.2 103.4 L 389.9 103.4 L 389.9 108.4 L 389.2 108.4 L 389.2 106.1 L 386.6 106.1 L 386.6 108.4 L 385.9 108.4 L 385.9 103.4 " fill="#FF0000"/>
<path class="atom-23" d="M 275.0 58.4 L 275.6 58.4 L 275.6 60.5 L 278.2 60.5 L 278.2 58.4 L 278.9 58.4 L 278.9 63.4 L 278.2 63.4 L 278.2 61.1 L 275.6 61.1 L 275.6 63.4 L 275.0 63.4 L 275.0 58.4 " fill="#FF0000"/>
<path class="atom-23" d="M 280.0 60.9 Q 280.0 59.7, 280.6 59.0 Q 281.2 58.3, 282.3 58.3 Q 283.4 58.3, 284.0 59.0 Q 284.6 59.7, 284.6 60.9 Q 284.6 62.1, 284.0 62.8 Q 283.4 63.5, 282.3 63.5 Q 281.2 63.5, 280.6 62.8 Q 280.0 62.1, 280.0 60.9 M 282.3 62.9 Q 283.1 62.9, 283.5 62.4 Q 283.9 61.9, 283.9 60.9 Q 283.9 59.9, 283.5 59.4 Q 283.1 58.9, 282.3 58.9 Q 281.5 58.9, 281.1 59.4 Q 280.7 59.9, 280.7 60.9 Q 280.7 61.9, 281.1 62.4 Q 281.5 62.9, 282.3 62.9 " fill="#FF0000"/>
<path class="legend" d="M 252.7 184.2 Q 252.7 181.3, 254.0 179.9 Q 255.4 178.4, 257.9 178.4 Q 260.2 178.4, 261.5 180.0 L 260.4 180.9 Q 259.5 179.7, 257.9 179.7 Q 256.2 179.7, 255.3 180.8 Q 254.4 182.0, 254.4 184.2 Q 254.4 186.4, 255.3 187.6 Q 256.2 188.7, 258.1 188.7 Q 259.3 188.7, 260.8 188.0 L 261.2 189.2 Q 260.6 189.5, 259.7 189.8 Q 258.8 190.0, 257.8 190.0 Q 255.4 190.0, 254.0 188.5 Q 252.7 187.0, 252.7 184.2 " fill="#000000"/>
<path class="legend" d="M 264.7 178.5 L 268.4 184.5 Q 268.8 185.1, 269.4 186.2 Q 270.0 187.2, 270.0 187.3 L 270.0 178.5 L 271.5 178.5 L 271.5 189.8 L 269.9 189.8 L 266.0 183.3 Q 265.5 182.5, 265.0 181.6 Q 264.5 180.8, 264.4 180.5 L 264.4 189.8 L 262.9 189.8 L 262.9 178.5 L 264.7 178.5 " fill="#000000"/>
<path class="legend" d="M 277.0 178.5 Q 278.9 178.5, 279.9 179.4 Q 280.8 180.3, 280.8 181.8 Q 280.8 183.4, 279.8 184.3 Q 278.8 185.2, 277.0 185.2 L 275.2 185.2 L 275.2 189.8 L 273.6 189.8 L 273.6 178.5 L 277.0 178.5 M 277.0 183.9 Q 278.1 183.9, 278.7 183.4 Q 279.2 182.8, 279.2 181.8 Q 279.2 180.8, 278.7 180.3 Q 278.1 179.8, 277.0 179.8 L 275.2 179.8 L 275.2 183.9 L 277.0 183.9 " fill="#000000"/>
<path class="legend" d="M 286.5 190.0 Q 284.5 190.0, 283.4 188.4 Q 282.4 186.9, 282.4 184.2 Q 282.4 181.4, 283.4 179.9 Q 284.4 178.4, 286.5 178.4 Q 288.6 178.4, 289.7 179.9 Q 290.7 181.4, 290.7 184.2 Q 290.7 186.9, 289.6 188.4 Q 288.6 190.0, 286.5 190.0 M 286.5 188.7 Q 287.8 188.7, 288.4 187.6 Q 289.1 186.4, 289.1 184.2 Q 289.1 181.9, 288.4 180.8 Q 287.8 179.7, 286.5 179.7 Q 285.3 179.7, 284.6 180.8 Q 284.0 181.9, 284.0 184.2 Q 284.0 186.4, 284.6 187.6 Q 285.3 188.7, 286.5 188.7 " fill="#000000"/>
<path class="legend" d="M 298.0 183.9 Q 299.1 184.2, 299.6 184.9 Q 300.1 185.6, 300.1 186.7 Q 300.1 187.7, 299.7 188.4 Q 299.2 189.2, 298.3 189.6 Q 297.4 190.0, 296.3 190.0 Q 295.0 190.0, 294.1 189.6 Q 293.2 189.2, 292.5 188.3 L 293.4 187.4 Q 294.1 188.1, 294.7 188.4 Q 295.3 188.7, 296.3 188.7 Q 297.3 188.7, 297.9 188.2 Q 298.5 187.6, 298.5 186.7 Q 298.5 185.6, 297.9 185.1 Q 297.2 184.5, 295.8 184.5 L 295.0 184.5 L 295.0 183.4 L 295.7 183.4 Q 297.0 183.4, 297.6 182.8 Q 298.3 182.3, 298.3 181.3 Q 298.3 180.5, 297.7 180.1 Q 297.2 179.7, 296.3 179.7 Q 295.3 179.7, 294.7 180.0 Q 294.2 180.3, 293.7 181.2 L 292.6 180.6 Q 293.0 179.6, 294.0 179.0 Q 294.9 178.4, 296.3 178.4 Q 297.9 178.4, 298.9 179.2 Q 299.9 180.0, 299.9 181.3 Q 299.9 182.2, 299.4 182.8 Q 298.9 183.5, 298.0 183.9 " fill="#000000"/>
<path class="legend" d="M 307.3 183.9 Q 308.4 184.2, 308.9 184.9 Q 309.5 185.6, 309.5 186.7 Q 309.5 187.7, 309.0 188.4 Q 308.5 189.2, 307.6 189.6 Q 306.8 190.0, 305.6 190.0 Q 304.4 190.0, 303.5 189.6 Q 302.6 189.2, 301.9 188.3 L 302.8 187.4 Q 303.5 188.1, 304.1 188.4 Q 304.7 188.7, 305.6 188.7 Q 306.6 188.7, 307.3 188.2 Q 307.9 187.6, 307.9 186.7 Q 307.9 185.6, 307.2 185.1 Q 306.6 184.5, 305.2 184.5 L 304.4 184.5 L 304.4 183.4 L 305.1 183.4 Q 306.3 183.4, 307.0 182.8 Q 307.6 182.3, 307.6 181.3 Q 307.6 180.5, 307.1 180.1 Q 306.6 179.7, 305.6 179.7 Q 304.7 179.7, 304.1 180.0 Q 303.5 180.3, 303.1 181.2 L 302.0 180.6 Q 302.4 179.6, 303.3 179.0 Q 304.3 178.4, 305.6 178.4 Q 307.3 178.4, 308.3 179.2 Q 309.2 180.0, 309.2 181.3 Q 309.2 182.2, 308.7 182.8 Q 308.3 183.5, 307.3 183.9 " fill="#000000"/>
<path class="legend" d="M 317.2 179.8 L 311.2 179.8 L 311.2 178.5 L 318.7 178.5 L 318.7 179.6 L 314.2 189.8 L 312.6 189.8 L 317.2 179.8 " fill="#000000"/>
<path class="legend" d="M 324.1 190.0 Q 322.1 190.0, 321.0 188.4 Q 320.0 186.9, 320.0 184.2 Q 320.0 181.4, 321.0 179.9 Q 322.0 178.4, 324.1 178.4 Q 326.2 178.4, 327.3 179.9 Q 328.3 181.4, 328.3 184.2 Q 328.3 186.9, 327.2 188.4 Q 326.2 190.0, 324.1 190.0 M 324.1 188.7 Q 325.4 188.7, 326.0 187.6 Q 326.7 186.4, 326.7 184.2 Q 326.7 181.9, 326.0 180.8 Q 325.4 179.7, 324.1 179.7 Q 322.9 179.7, 322.3 180.8 Q 321.6 181.9, 321.6 184.2 Q 321.6 186.4, 322.3 187.6 Q 322.9 188.7, 324.1 188.7 " fill="#000000"/>
<path class="legend" d="M 334.6 182.8 Q 335.5 182.8, 336.3 183.2 Q 337.1 183.6, 337.5 184.4 Q 338.0 185.2, 338.0 186.2 Q 338.0 187.3, 337.5 188.2 Q 337.0 189.0, 336.1 189.5 Q 335.3 190.0, 334.2 190.0 Q 332.2 190.0, 331.1 188.6 Q 330.1 187.2, 330.1 184.5 Q 330.1 181.5, 331.4 180.0 Q 332.6 178.4, 335.0 178.4 Q 335.8 178.4, 336.3 178.5 Q 337.0 178.7, 337.5 179.0 L 336.9 180.1 Q 336.1 179.7, 335.1 179.7 Q 333.5 179.7, 332.6 180.7 Q 331.8 181.7, 331.7 183.9 Q 332.3 183.3, 333.0 183.1 Q 333.8 182.8, 334.6 182.8 M 334.2 188.7 Q 334.8 188.7, 335.3 188.3 Q 335.8 188.0, 336.1 187.5 Q 336.4 186.9, 336.4 186.2 Q 336.4 185.2, 335.8 184.6 Q 335.3 184.0, 334.3 184.0 Q 333.6 184.0, 332.9 184.3 Q 332.2 184.6, 331.7 185.1 Q 331.8 187.0, 332.4 187.8 Q 333.0 188.7, 334.2 188.7 " fill="#000000"/>
<path class="legend" d="M 345.1 183.9 Q 346.2 184.2, 346.7 184.9 Q 347.3 185.6, 347.3 186.7 Q 347.3 187.7, 346.8 188.4 Q 346.3 189.2, 345.4 189.6 Q 344.5 190.0, 343.4 190.0 Q 342.2 190.0, 341.3 189.6 Q 340.4 189.2, 339.7 188.3 L 340.6 187.4 Q 341.3 188.1, 341.9 188.4 Q 342.5 188.7, 343.4 188.7 Q 344.4 188.7, 345.0 188.2 Q 345.7 187.6, 345.7 186.7 Q 345.7 185.6, 345.0 185.1 Q 344.4 184.5, 343.0 184.5 L 342.2 184.5 L 342.2 183.4 L 342.9 183.4 Q 344.1 183.4, 344.8 182.8 Q 345.4 182.3, 345.4 181.3 Q 345.4 180.5, 344.9 180.1 Q 344.3 179.7, 343.4 179.7 Q 342.5 179.7, 341.9 180.0 Q 341.3 180.3, 340.9 181.2 L 339.7 180.6 Q 340.1 179.6, 341.1 179.0 Q 342.1 178.4, 343.4 178.4 Q 345.1 178.4, 346.1 179.2 Q 347.0 180.0, 347.0 181.3 Q 347.0 182.2, 346.5 182.8 Q 346.0 183.5, 345.1 183.9 " fill="#000000"/>
</svg>