<svg xmlns="http://www.w3.org/2000/svg" xmlns:rdkit="http://www.rdkit.org/xml" xmlns:xlink="http://www.w3.org/1999/xlink" version="1.1" baseProfile="full" xml:space="preserve" width="600px" height="200px" viewBox="0 0 600 200">
<!-- END OF HEADER -->
<rect style="opacity:1.0;fill:#FFFFFF;stroke:none" width="600.0" height="200.0" x="0.0" y="0.0"> </rect>
<path class="bond-0 atom-0 atom-1" d="M 190.0,75.5 L 162.2,68.0" style="fill:none;fill-rule:evenodd;stroke:#000000;stroke-width:2.0px;stroke-linecap:butt;stroke-linejoin:miter;stroke-opacity:1"/>
<path class="bond-1 atom-1 atom-2" d="M 162.2,68.0 L 141.7,88.3" style="fill:none;fill-rule:evenodd;stroke:#000000;stroke-width:2.0px;stroke-linecap:butt;stroke-linejoin:miter;stroke-opacity:1"/>
<path class="bond-1 atom-1 atom-2" d="M 163.5,72.8 L 144.8,91.4" style="fill:none;fill-rule:evenodd;stroke:#000000;stroke-width:2.0px;stroke-linecap:butt;stroke-linejoin:miter;stroke-opacity:1"/>
<path class="bond-2 atom-2 atom-3" d="M 141.7,88.3 L 113.9,80.8" style="fill:none;fill-rule:evenodd;stroke:#000000;stroke-width:2.0px;stroke-linecap:butt;stroke-linejoin:miter;stroke-opacity:1"/>
<path class="bond-3 atom-3 atom-4" d="M 116.3,81.5 L 113.2,69.5" style="fill:none;fill-rule:evenodd;stroke:#000000;stroke-width:2.0px;stroke-linecap:butt;stroke-linejoin:miter;stroke-opacity:1"/>
<path class="bond-3 atom-3 atom-4" d="M 113.2,69.5 L 110.0,57.6" style="fill:none;fill-rule:evenodd;stroke:#FF0000;stroke-width:2.0px;stroke-linecap:butt;stroke-linejoin:miter;stroke-opacity:1"/>
<path class="bond-3 atom-3 atom-4" d="M 112.1,82.6 L 109.0,70.7" style="fill:none;fill-rule:evenodd;stroke:#000000;stroke-width:2.0px;stroke-linecap:butt;stroke-linejoin:miter;stroke-opacity:1"/>
<path class="bond-3 atom-3 atom-4" d="M 109.0,70.7 L 105.8,58.7" style="fill:none;fill-rule:evenodd;stroke:#FF0000;stroke-width:2.0px;stroke-linecap:butt;stroke-linejoin:miter;stroke-opacity:1"/>
<path class="bond-4 atom-3 atom-5" d="M 113.9,80.8 L 105.7,89.0" style="fill:none;fill-rule:evenodd;stroke:#000000;stroke-width:2.0px;stroke-linecap:butt;stroke-linejoin:miter;stroke-opacity:1"/>
<path class="bond-4 atom-3 atom-5" d="M 105.7,89.0 L 97.5,97.1" style="fill:none;fill-rule:evenodd;stroke:#0000FF;stroke-width:2.0px;stroke-linecap:butt;stroke-linejoin:miter;stroke-opacity:1"/>
<path class="bond-5 atom-5 atom-6" d="M 94.8,106.2 L 97.9,117.6" style="fill:none;fill-rule:evenodd;stroke:#0000FF;stroke-width:2.0px;stroke-linecap:butt;stroke-linejoin:miter;stroke-opacity:1"/>
<path class="bond-5 atom-5 atom-6" d="M 97.9,117.6 L 100.9,129.0" style="fill:none;fill-rule:evenodd;stroke:#000000;stroke-width:2.0px;stroke-linecap:butt;stroke-linejoin:miter;stroke-opacity:1"/>
<path class="bond-6 atom-6 atom-7" d="M 100.9,129.0 L 128.7,136.5" style="fill:none;fill-rule:evenodd;stroke:#000000;stroke-width:2.0px;stroke-linecap:butt;stroke-linejoin:miter;stroke-opacity:1"/>
<path class="bond-7 atom-5 atom-8" d="M 89.4,100.1 L 77.6,96.9" style="fill:none;fill-rule:evenodd;stroke:#0000FF;stroke-width:2.0px;stroke-linecap:butt;stroke-linejoin:miter;stroke-opacity:1"/>
<path class="bond-7 atom-5 atom-8" d="M 77.6,96.9 L 65.7,93.7" style="fill:none;fill-rule:evenodd;stroke:#000000;stroke-width:2.0px;stroke-linecap:butt;stroke-linejoin:miter;stroke-opacity:1"/>
<path class="bond-8 atom-8 atom-9" d="M 65.7,93.7 L 45.2,114.0" style="fill:none;fill-rule:evenodd;stroke:#000000;stroke-width:2.0px;stroke-linecap:butt;stroke-linejoin:miter;stroke-opacity:1"/>
<path class="bond-8 atom-8 atom-9" d="M 60.8,92.4 L 44.0,109.2" style="fill:none;fill-rule:evenodd;stroke:#000000;stroke-width:2.0px;stroke-linecap:butt;stroke-linejoin:miter;stroke-opacity:1"/>
<path class="bond-9 atom-9 atom-10" d="M 45.2,114.0 L 17.4,106.5" style="fill:none;fill-rule:evenodd;stroke:#000000;stroke-width:2.0px;stroke-linecap:butt;stroke-linejoin:miter;stroke-opacity:1"/>
<path class="bond-10 atom-10 atom-11" d="M 17.4,106.5 L 10.0,78.6" style="fill:none;fill-rule:evenodd;stroke:#000000;stroke-width:2.0px;stroke-linecap:butt;stroke-linejoin:miter;stroke-opacity:1"/>
<path class="bond-10 atom-10 atom-11" d="M 20.9,103.0 L 14.8,79.9" style="fill:none;fill-rule:evenodd;stroke:#000000;stroke-width:2.0px;stroke-linecap:butt;stroke-linejoin:miter;stroke-opacity:1"/>
<path class="bond-11 atom-11 atom-12" d="M 10.0,78.6 L 30.4,58.3" style="fill:none;fill-rule:evenodd;stroke:#000000;stroke-width:2.0px;stroke-linecap:butt;stroke-linejoin:miter;stroke-opacity:1"/>
<path class="bond-12 atom-12 atom-13" d="M 30.4,58.3 L 58.3,65.8" style="fill:none;fill-rule:evenodd;stroke:#000000;stroke-width:2.0px;stroke-linecap:butt;stroke-linejoin:miter;stroke-opacity:1"/>
<path class="bond-12 atom-12 atom-13" d="M 31.7,63.1 L 54.7,69.3" style="fill:none;fill-rule:evenodd;stroke:#000000;stroke-width:2.0px;stroke-linecap:butt;stroke-linejoin:miter;stroke-opacity:1"/>
<path class="bond-13 atom-13 atom-14" d="M 58.3,65.8 L 78.7,45.5" style="fill:none;fill-rule:evenodd;stroke:#000000;stroke-width:2.0px;stroke-linecap:butt;stroke-linejoin:miter;stroke-opacity:1"/>
<path class="bond-14 atom-13 atom-8" d="M 58.3,65.8 L 65.7,93.7" style="fill:none;fill-rule:evenodd;stroke:#000000;stroke-width:2.0px;stroke-linecap:butt;stroke-linejoin:miter;stroke-opacity:1"/>
<path d="M 163.6,68.4 L 162.2,68.0 L 161.1,69.0" style="fill:none;stroke:#000000;stroke-width:2.0px;stroke-linecap:butt;stroke-linejoin:miter;stroke-opacity:1;"/>
<path d="M 142.8,87.3 L 141.7,88.3 L 140.4,88.0" style="fill:none;stroke:#000000;stroke-width:2.0px;stroke-linecap:butt;stroke-linejoin:miter;stroke-opacity:1;"/>
<path d="M 115.3,81.2 L 113.9,80.8 L 113.5,81.2" style="fill:none;stroke:#000000;stroke-width:2.0px;stroke-linecap:butt;stroke-linejoin:miter;stroke-opacity:1;"/>
<path d="M 100.7,128.5 L 100.9,129.0 L 102.3,129.4" style="fill:none;stroke:#000000;stroke-width:2.0px;stroke-linecap:butt;stroke-linejoin:miter;stroke-opacity:1;"/>
<path d="M 46.3,113.0 L 45.2,114.0 L 43.8,113.6" style="fill:none;stroke:#000000;stroke-width:2.0px;stroke-linecap:butt;stroke-linejoin:miter;stroke-opacity:1;"/>
<path d="M 18.8,106.9 L 17.4,106.5 L 17.0,105.1" style="fill:none;stroke:#000000;stroke-width:2.0px;stroke-linecap:butt;stroke-linejoin:miter;stroke-opacity:1;"/>
<path d="M 10.4,80.0 L 10.0,78.6 L 11.0,77.6" style="fill:none;stroke:#000000;stroke-width:2.0px;stroke-linecap:butt;stroke-linejoin:miter;stroke-opacity:1;"/>
<path d="M 29.4,59.3 L 30.4,58.3 L 31.8,58.7" style="fill:none;stroke:#000000;stroke-width:2.0px;stroke-linecap:butt;stroke-linejoin:miter;stroke-opacity:1;"/>
<path class="atom-4" d="M 102.8 53.0 Q 102.8 51.0, 103.7 49.9 Q 104.7 48.8, 106.5 48.8 Q 108.3 48.8, 109.3 49.9 Q 110.3 51.0, 110.3 53.0 Q 110.3 55.0, 109.3 56.1 Q 108.3 57.2, 106.5 57.2 Q 104.7 57.2, 103.7 56.1 Q 102.8 55.0, 102.8 53.0 M 106.5 56.3 Q 107.8 56.3, 108.4 55.5 Q 109.1 54.6, 109.1 53.0 Q 109.1 51.4, 108.4 50.6 Q 107.8 49.8, 106.5 49.8 Q 105.3 49.8, 104.6 50.6 Q 103.9 51.4, 103.9 53.0 Q 103.9 54.6, 104.6 55.5 Q 105.3 56.3, 106.5 56.3 " fill="#FF0000"/>
<path class="atom-5" d="M 91.7 97.1 L 94.4 101.4 Q 94.6 101.8, 95.1 102.6 Q 95.5 103.4, 95.5 103.4 L 95.5 97.1 L 96.6 97.1 L 96.6 105.3 L 95.5 105.3 L 92.6 100.5 Q 92.3 100.0, 91.9 99.3 Q 91.6 98.7, 91.5 98.5 L 91.5 105.3 L 90.4 105.3 L 90.4 97.1 L 91.7 97.1 " fill="#0000FF"/>
<path class="legend" d="M 50.0 184.1 Q 50.0 181.3, 51.3 179.9 Q 52.6 178.4, 55.1 178.4 Q 57.5 178.4, 58.7 180.0 L 57.7 180.9 Q 56.8 179.7, 55.1 179.7 Q 53.4 179.7, 52.5 180.8 Q 51.6 182.0, 51.6 184.1 Q 51.6 186.4, 52.6 187.5 Q 53.5 188.7, 55.3 188.7 Q 56.6 188.7, 58.0 187.9 L 58.5 189.1 Q 57.9 189.5, 57.0 189.7 Q 56.1 190.0, 55.1 190.0 Q 52.6 190.0, 51.3 188.5 Q 50.0 187.0, 50.0 184.1 " fill="#000000"/>
<path class="legend" d="M 66.3 189.8 L 63.6 185.2 L 63.6 185.2 L 61.8 185.2 L 61.8 189.8 L 60.2 189.8 L 60.2 178.5 L 63.6 178.5 Q 65.5 178.5, 66.5 179.4 Q 67.5 180.2, 67.5 181.8 Q 67.5 183.0, 66.9 183.8 Q 66.3 184.6, 65.2 185.0 L 68.0 189.8 L 66.3 189.8 M 61.8 183.9 L 63.6 183.9 Q 64.7 183.9, 65.3 183.4 Q 65.9 182.8, 65.9 181.8 Q 65.9 180.8, 65.3 180.3 Q 64.7 179.8, 63.6 179.8 L 61.8 179.8 L 61.8 183.9 " fill="#000000"/>
<path class="legend" d="M 69.3 184.1 Q 69.3 181.4, 70.6 179.9 Q 72.0 178.4, 74.5 178.4 Q 77.0 178.4, 78.3 179.9 Q 79.7 181.4, 79.7 184.1 Q 79.7 186.9, 78.3 188.4 Q 77.0 190.0, 74.5 190.0 Q 72.0 190.0, 70.6 188.4 Q 69.3 186.9, 69.3 184.1 M 74.5 188.7 Q 76.2 188.7, 77.1 187.6 Q 78.1 186.4, 78.1 184.1 Q 78.1 181.9, 77.1 180.8 Q 76.2 179.6, 74.5 179.6 Q 72.8 179.6, 71.8 180.8 Q 70.9 181.9, 70.9 184.1 Q 70.9 186.4, 71.8 187.6 Q 72.8 188.7, 74.5 188.7 " fill="#000000"/>
<path class="legend" d="M 84.9 179.8 L 81.4 179.8 L 81.4 178.5 L 89.7 178.5 L 89.7 179.8 L 86.4 179.8 L 86.4 189.8 L 84.9 189.8 L 84.9 179.8 " fill="#000000"/>
<path class="legend" d="M 98.9 189.8 L 97.7 186.5 L 93.2 186.5 L 92.1 189.8 L 90.6 189.8 L 94.5 178.5 L 96.4 178.5 L 100.4 189.8 L 98.9 189.8 M 93.7 185.2 L 97.3 185.2 L 95.5 180.1 L 93.7 185.2 " fill="#000000"/>
<path class="legend" d="M 114.4 189.8 L 113.0 189.8 L 111.8 180.6 L 108.7 189.8 L 107.2 189.8 L 104.1 180.6 L 102.9 189.8 L 101.5 189.8 L 102.9 178.5 L 104.8 178.5 L 108.0 187.6 L 111.1 178.5 L 113.0 178.5 L 114.4 189.8 " fill="#000000"/>
<path class="legend" d="M 116.3 178.4 L 117.8 178.4 L 117.8 189.8 L 116.3 189.8 L 116.3 178.4 " fill="#000000"/>
<path class="legend" d="M 123.6 179.8 L 120.1 179.8 L 120.1 178.5 L 128.5 178.5 L 128.5 179.8 L 125.2 179.8 L 125.2 189.8 L 123.6 189.8 L 123.6 179.8 " fill="#000000"/>
<path class="legend" d="M 129.3 184.1 Q 129.3 181.4, 130.7 179.9 Q 132.0 178.4, 134.5 178.4 Q 137.1 178.4, 138.4 179.9 Q 139.7 181.4, 139.7 184.1 Q 139.7 186.9, 138.4 188.4 Q 137.0 190.0, 134.5 190.0 Q 132.1 190.0, 130.7 188.4 Q 129.3 186.9, 129.3 184.1 M 134.5 188.7 Q 136.3 188.7, 137.2 187.6 Q 138.1 186.4, 138.1 184.1 Q 138.1 181.9, 137.2 180.8 Q 136.3 179.6, 134.5 179.6 Q 132.8 179.6, 131.9 180.8 Q 130.9 181.9, 130.9 184.1 Q 130.9 186.4, 131.9 187.6 Q 132.8 188.7, 134.5 188.7 " fill="#000000"/>
<path class="legend" d="M 143.2 178.5 L 146.9 184.5 Q 147.3 185.1, 147.9 186.2 Q 148.5 187.2, 148.5 187.3 L 148.5 178.5 L 150.0 178.5 L 150.0 189.8 L 148.5 189.8 L 144.5 183.3 Q 144.0 182.5, 143.5 181.6 Q 143.0 180.7, 142.9 180.5 L 142.9 189.8 L 141.4 189.8 L 141.4 178.5 L 143.2 178.5 " fill="#000000"/>
<path class="bond-0 atom-0 atom-1" d="M 310.0,57.6 L 313.2,69.5" style="fill:none;fill-rule:evenodd;stroke:#FF0000;stroke-width:2.0px;stroke-linecap:butt;stroke-linejoin:miter;stroke-opacity:1"/>
<path class="bond-0 atom-0 atom-1" d="M 313.2,69.5 L 316.3,81.5" style="fill:none;fill-rule:evenodd;stroke:#000000;stroke-width:2.0px;stroke-linecap:butt;stroke-linejoin:miter;stroke-opacity:1"/>
<path class="bond-0 atom-0 atom-1" d="M 305.8,58.7 L 309.0,70.7" style="fill:none;fill-rule:evenodd;stroke:#FF0000;stroke-width:2.0px;stroke-linecap:butt;stroke-linejoin:miter;stroke-opacity:1"/>
<path class="bond-0 atom-0 atom-1" d="M 309.0,70.7 L 312.1,82.6" style="fill:none;fill-rule:evenodd;stroke:#000000;stroke-width:2.0px;stroke-linecap:butt;stroke-linejoin:miter;stroke-opacity:1"/>
<path class="bond-1 atom-1 atom-2" d="M 313.9,80.8 L 341.7,88.3" style="fill:none;fill-rule:evenodd;stroke:#000000;stroke-width:2.0px;stroke-linecap:butt;stroke-linejoin:miter;stroke-opacity:1"/>
<path class="bond-2 atom-2 atom-3" d="M 341.7,88.3 L 362.2,68.0" style="fill:none;fill-rule:evenodd;stroke:#000000;stroke-width:2.0px;stroke-linecap:butt;stroke-linejoin:miter;stroke-opacity:1"/>
<path class="bond-2 atom-2 atom-3" d="M 340.5,83.5 L 359.1,64.9" style="fill:none;fill-rule:evenodd;stroke:#000000;stroke-width:2.0px;stroke-linecap:butt;stroke-linejoin:miter;stroke-opacity:1"/>
<path class="bond-3 atom-3 atom-4" d="M 362.2,68.0 L 390.0,75.5" style="fill:none;fill-rule:evenodd;stroke:#000000;stroke-width:2.0px;stroke-linecap:butt;stroke-linejoin:miter;stroke-opacity:1"/>
<path class="bond-4 atom-1 atom-5" d="M 313.9,80.8 L 305.7,89.0" style="fill:none;fill-rule:evenodd;stroke:#000000;stroke-width:2.0px;stroke-linecap:butt;stroke-linejoin:miter;stroke-opacity:1"/>
<path class="bond-4 atom-1 atom-5" d="M 305.7,89.0 L 297.5,97.1" style="fill:none;fill-rule:evenodd;stroke:#0000FF;stroke-width:2.0px;stroke-linecap:butt;stroke-linejoin:miter;stroke-opacity:1"/>
<path class="bond-5 atom-5 atom-6" d="M 289.4,100.1 L 277.6,96.9" style="fill:none;fill-rule:evenodd;stroke:#0000FF;stroke-width:2.0px;stroke-linecap:butt;stroke-linejoin:miter;stroke-opacity:1"/>
<path class="bond-5 atom-5 atom-6" d="M 277.6,96.9 L 265.7,93.7" style="fill:none;fill-rule:evenodd;stroke:#000000;stroke-width:2.0px;stroke-linecap:butt;stroke-linejoin:miter;stroke-opacity:1"/>
<path class="bond-6 atom-6 atom-7" d="M 265.7,93.7 L 245.2,114.0" style="fill:none;fill-rule:evenodd;stroke:#000000;stroke-width:2.0px;stroke-linecap:butt;stroke-linejoin:miter;stroke-opacity:1"/>
<path class="bond-6 atom-6 atom-7" d="M 260.8,92.4 L 244.0,109.2" style="fill:none;fill-rule:evenodd;stroke:#000000;stroke-width:2.0px;stroke-linecap:butt;stroke-linejoin:miter;stroke-opacity:1"/>
<path class="bond-7 atom-7 atom-8" d="M 245.2,114.0 L 217.4,106.5" style="fill:none;fill-rule:evenodd;stroke:#000000;stroke-width:2.0px;stroke-linecap:butt;stroke-linejoin:miter;stroke-opacity:1"/>
<path class="bond-8 atom-8 atom-9" d="M 217.4,106.5 L 210.0,78.6" style="fill:none;fill-rule:evenodd;stroke:#000000;stroke-width:2.0px;stroke-linecap:butt;stroke-linejoin:miter;stroke-opacity:1"/>
<path class="bond-8 atom-8 atom-9" d="M 220.9,103.0 L 214.8,79.9" style="fill:none;fill-rule:evenodd;stroke:#000000;stroke-width:2.0px;stroke-linecap:butt;stroke-linejoin:miter;stroke-opacity:1"/>
<path class="bond-9 atom-9 atom-10" d="M 210.0,78.6 L 230.4,58.3" style="fill:none;fill-rule:evenodd;stroke:#000000;stroke-width:2.0px;stroke-linecap:butt;stroke-linejoin:miter;stroke-opacity:1"/>
<path class="bond-10 atom-10 atom-11" d="M 230.4,58.3 L 258.3,65.8" style="fill:none;fill-rule:evenodd;stroke:#000000;stroke-width:2.0px;stroke-linecap:butt;stroke-linejoin:miter;stroke-opacity:1"/>
<path class="bond-10 atom-10 atom-11" d="M 231.7,63.1 L 254.7,69.3" style="fill:none;fill-rule:evenodd;stroke:#000000;stroke-width:2.0px;stroke-linecap:butt;stroke-linejoin:miter;stroke-opacity:1"/>
<path class="bond-11 atom-11 atom-12" d="M 258.3,65.8 L 278.7,45.5" style="fill:none;fill-rule:evenodd;stroke:#000000;stroke-width:2.0px;stroke-linecap:butt;stroke-linejoin:miter;stroke-opacity:1"/>
<path class="bond-12 atom-5 atom-13" d="M 294.8,106.2 L 297.9,117.6" style="fill:none;fill-rule:evenodd;stroke:#0000FF;stroke-width:2.0px;stroke-linecap:butt;stroke-linejoin:miter;stroke-opacity:1"/>
<path class="bond-12 atom-5 atom-13" d="M 297.9,117.6 L 300.9,129.0" style="fill:none;fill-rule:evenodd;stroke:#000000;stroke-width:2.0px;stroke-linecap:butt;stroke-linejoin:miter;stroke-opacity:1"/>
<path class="bond-13 atom-13 atom-14" d="M 300.9,129.0 L 328.7,136.5" style="fill:none;fill-rule:evenodd;stroke:#000000;stroke-width:2.0px;stroke-linecap:butt;stroke-linejoin:miter;stroke-opacity:1"/>
<path class="bond-14 atom-6 atom-11" d="M 265.7,93.7 L 258.3,65.8" style="fill:none;fill-rule:evenodd;stroke:#000000;stroke-width:2.0px;stroke-linecap:butt;stroke-linejoin:miter;stroke-opacity:1"/>
<path d="M 315.3,81.2 L 313.9,80.8 L 313.5,81.2" style="fill:none;stroke:#000000;stroke-width:2.0px;stroke-linecap:butt;stroke-linejoin:miter;stroke-opacity:1;"/>
<path d="M 340.4,88.0 L 341.7,88.3 L 342.8,87.3" style="fill:none;stroke:#000000;stroke-width:2.0px;stroke-linecap:butt;stroke-linejoin:miter;stroke-opacity:1;"/>
<path d="M 361.1,69.0 L 362.2,68.0 L 363.6,68.4" style="fill:none;stroke:#000000;stroke-width:2.0px;stroke-linecap:butt;stroke-linejoin:miter;stroke-opacity:1;"/>
<path d="M 246.3,113.0 L 245.2,114.0 L 243.8,113.6" style="fill:none;stroke:#000000;stroke-width:2.0px;stroke-linecap:butt;stroke-linejoin:miter;stroke-opacity:1;"/>
<path d="M 218.8,106.9 L 217.4,106.5 L 217.0,105.1" style="fill:none;stroke:#000000;stroke-width:2.0px;stroke-linecap:butt;stroke-linejoin:miter;stroke-opacity:1;"/>
<path d="M 210.4,80.0 L 210.0,78.6 L 211.0,77.6" style="fill:none;stroke:#000000;stroke-width:2.0px;stroke-linecap:butt;stroke-linejoin:miter;stroke-opacity:1;"/>
<path d="M 229.4,59.3 L 230.4,58.3 L 231.8,58.7" style="fill:none;stroke:#000000;stroke-width:2.0px;stroke-linecap:butt;stroke-linejoin:miter;stroke-opacity:1;"/>
<path d="M 300.7,128.5 L 300.9,129.0 L 302.3,129.4" style="fill:none;stroke:#000000;stroke-width:2.0px;stroke-linecap:butt;stroke-linejoin:miter;stroke-opacity:1;"/>
<path class="atom-0" d="M 302.8 53.0 Q 302.8 51.0, 303.7 49.9 Q 304.7 48.8, 306.5 48.8 Q 308.3 48.8, 309.3 49.9 Q 310.3 51.0, 310.3 53.0 Q 310.3 55.0, 309.3 56.1 Q 308.3 57.2, 306.5 57.2 Q 304.7 57.2, 303.7 56.1 Q 302.8 55.0, 302.8 53.0 M 306.5 56.3 Q 307.8 56.3, 308.4 55.5 Q 309.1 54.6, 309.1 53.0 Q 309.1 51.4, 308.4 50.6 Q 307.8 49.8, 306.5 49.8 Q 305.3 49.8, 304.6 50.6 Q 303.9 51.4, 303.9 53.0 Q 303.9 54.6, 304.6 55.5 Q 305.3 56.3, 306.5 56.3 " fill="#FF0000"/>
<path class="atom-5" d="M 291.7 97.1 L 294.4 101.4 Q 294.6 101.8, 295.1 102.6 Q 295.5 103.4, 295.5 103.4 L 295.5 97.1 L 296.6 97.1 L 296.6 105.3 L 295.5 105.3 L 292.6 100.5 Q 292.3 100.0, 291.9 99.3 Q 291.6 98.7, 291.5 98.5 L 291.5 105.3 L 290.4 105.3 L 290.4 97.1 L 291.7 97.1 " fill="#0000FF"/>
<path class="legend" d="M 252.2 184.2 Q 252.2 181.3, 253.5 179.9 Q 254.8 178.4, 257.3 178.4 Q 259.7 178.4, 260.9 180.0 L 259.9 180.9 Q 259.0 179.7, 257.3 179.7 Q 255.6 179.7, 254.7 180.8 Q 253.8 182.0, 253.8 184.2 Q 253.8 186.4, 254.8 187.6 Q 255.7 188.7, 257.5 188.7 Q 258.8 188.7, 260.2 188.0 L 260.7 189.2 Q 260.1 189.5, 259.2 189.8 Q 258.3 190.0, 257.3 190.0 Q 254.8 190.0, 253.5 188.5 Q 252.2 187.0, 252.2 184.2 " fill="#000000"/>
<path class="legend" d="M 264.2 178.5 L 267.9 184.5 Q 268.2 185.1, 268.8 186.2 Q 269.4 187.2, 269.5 187.3 L 269.5 178.5 L 271.0 178.5 L 271.0 189.8 L 269.4 189.8 L 265.4 183.3 Q 265.0 182.5, 264.5 181.6 Q 264.0 180.8, 263.8 180.5 L 263.8 189.8 L 262.4 189.8 L 262.4 178.5 L 264.2 178.5 " fill="#000000"/>
<path class="legend" d="M 276.4 178.5 Q 278.4 178.5, 279.3 179.4 Q 280.3 180.3, 280.3 181.8 Q 280.3 183.4, 279.3 184.3 Q 278.3 185.2, 276.4 185.2 L 274.6 185.2 L 274.6 189.8 L 273.1 189.8 L 273.1 178.5 L 276.4 178.5 M 276.4 183.9 Q 277.5 183.9, 278.1 183.4 Q 278.7 182.8, 278.7 181.8 Q 278.7 180.8, 278.1 180.3 Q 277.6 179.8, 276.4 179.8 L 274.6 179.8 L 274.6 183.9 L 276.4 183.9 " fill="#000000"/>
<path class="legend" d="M 286.0 190.0 Q 283.9 190.0, 282.9 188.4 Q 281.9 186.9, 281.9 184.2 Q 281.9 181.4, 282.9 179.9 Q 283.9 178.4, 286.0 178.4 Q 288.1 178.4, 289.1 179.9 Q 290.2 181.4, 290.2 184.2 Q 290.2 186.9, 289.1 188.4 Q 288.1 190.0, 286.0 190.0 M 286.0 188.7 Q 287.2 188.7, 287.9 187.6 Q 288.6 186.4, 288.6 184.2 Q 288.6 181.9, 287.9 180.8 Q 287.2 179.7, 286.0 179.7 Q 284.8 179.7, 284.1 180.8 Q 283.5 181.9, 283.5 184.2 Q 283.5 186.4, 284.1 187.6 Q 284.8 188.7, 286.0 188.7 " fill="#000000"/>
<path class="legend" d="M 296.1 190.0 Q 294.1 190.0, 293.0 188.4 Q 292.0 186.9, 292.0 184.2 Q 292.0 181.4, 293.0 179.9 Q 294.0 178.4, 296.1 178.4 Q 298.2 178.4, 299.3 179.9 Q 300.3 181.4, 300.3 184.2 Q 300.3 186.9, 299.2 188.4 Q 298.2 190.0, 296.1 190.0 M 296.1 188.7 Q 297.4 188.7, 298.0 187.6 Q 298.7 186.4, 298.7 184.2 Q 298.7 181.9, 298.0 180.8 Q 297.4 179.7, 296.1 179.7 Q 294.9 179.7, 294.3 180.8 Q 293.6 181.9, 293.6 184.2 Q 293.6 186.4, 294.3 187.6 Q 294.9 188.7, 296.1 188.7 " fill="#000000"/>
<path class="legend" d="M 306.6 182.8 Q 307.6 182.8, 308.3 183.2 Q 309.1 183.6, 309.6 184.4 Q 310.0 185.2, 310.0 186.2 Q 310.0 187.3, 309.5 188.2 Q 309.0 189.0, 308.1 189.5 Q 307.3 190.0, 306.2 190.0 Q 304.2 190.0, 303.1 188.6 Q 302.1 187.2, 302.1 184.5 Q 302.1 181.5, 303.4 180.0 Q 304.6 178.4, 307.1 178.4 Q 307.8 178.4, 308.4 178.5 Q 309.0 178.7, 309.5 179.0 L 308.9 180.1 Q 308.1 179.7, 307.1 179.7 Q 305.5 179.7, 304.7 180.7 Q 303.8 181.7, 303.7 183.9 Q 304.3 183.3, 305.0 183.1 Q 305.8 182.8, 306.6 182.8 M 306.2 188.7 Q 306.8 188.7, 307.3 188.3 Q 307.8 188.0, 308.1 187.5 Q 308.4 186.9, 308.4 186.2 Q 308.4 185.2, 307.8 184.6 Q 307.3 184.0, 306.3 184.0 Q 305.6 184.0, 304.9 184.3 Q 304.2 184.6, 303.7 185.1 Q 303.8 187.0, 304.4 187.8 Q 305.0 188.7, 306.2 188.7 " fill="#000000"/>
<path class="legend" d="M 311.7 180.7 Q 312.1 179.6, 313.1 179.0 Q 314.1 178.4, 315.5 178.4 Q 317.2 178.4, 318.1 179.3 Q 319.1 180.2, 319.1 181.9 Q 319.1 183.6, 317.9 185.1 Q 316.6 186.7, 314.1 188.6 L 319.3 188.6 L 319.3 189.8 L 311.7 189.8 L 311.7 188.8 Q 313.8 187.3, 315.0 186.1 Q 316.3 185.0, 316.9 184.0 Q 317.5 183.0, 317.5 182.0 Q 317.5 180.9, 317.0 180.3 Q 316.4 179.7, 315.5 179.7 Q 314.6 179.7, 314.0 180.0 Q 313.3 180.4, 312.9 181.2 L 311.7 180.7 " fill="#000000"/>
<path class="legend" d="M 325.5 182.8 Q 326.5 182.8, 327.3 183.2 Q 328.0 183.6, 328.5 184.4 Q 328.9 185.2, 328.9 186.2 Q 328.9 187.3, 328.4 188.2 Q 327.9 189.0, 327.1 189.5 Q 326.2 190.0, 325.1 190.0 Q 323.1 190.0, 322.1 188.6 Q 321.1 187.2, 321.1 184.5 Q 321.1 181.5, 322.3 180.0 Q 323.6 178.4, 326.0 178.4 Q 326.7 178.4, 327.3 178.5 Q 327.9 178.7, 328.5 179.0 L 327.8 180.1 Q 327.0 179.7, 326.0 179.7 Q 324.4 179.7, 323.6 180.7 Q 322.8 181.7, 322.7 183.9 Q 323.2 183.3, 324.0 183.1 Q 324.7 182.8, 325.5 182.8 M 325.1 188.7 Q 325.7 188.7, 326.2 188.3 Q 326.7 188.0, 327.0 187.5 Q 327.3 186.9, 327.3 186.2 Q 327.3 185.2, 326.8 184.6 Q 326.2 184.0, 325.2 184.0 Q 324.5 184.0, 323.8 184.3 Q 323.2 184.6, 322.7 185.1 Q 322.7 187.0, 323.3 187.8 Q 323.9 188.7, 325.1 188.7 " fill="#000000"/>
<path class="legend" d="M 336.0 183.9 Q 337.1 184.2, 337.7 184.9 Q 338.2 185.6, 338.2 186.7 Q 338.2 187.7, 337.7 188.4 Q 337.2 189.2, 336.4 189.6 Q 335.5 190.0, 334.3 190.0 Q 333.1 190.0, 332.2 189.6 Q 331.3 189.2, 330.6 188.3 L 331.5 187.4 Q 332.2 188.1, 332.8 188.4 Q 333.4 188.7, 334.3 188.7 Q 335.4 188.7, 336.0 188.2 Q 336.6 187.6, 336.6 186.7 Q 336.6 185.6, 336.0 185.1 Q 335.3 184.5, 333.9 184.5 L 333.1 184.5 L 333.1 183.4 L 333.8 183.4 Q 335.1 183.4, 335.7 182.8 Q 336.4 182.3, 336.4 181.3 Q 336.4 180.5, 335.8 180.1 Q 335.3 179.7, 334.4 179.7 Q 333.4 179.7, 332.8 180.0 Q 332.2 180.3, 331.8 181.2 L 330.7 180.6 Q 331.1 179.6, 332.0 179.0 Q 333.0 178.4, 334.4 178.4 Q 336.0 178.4, 337.0 179.2 Q 338.0 180.0, 338.0 181.3 Q 338.0 182.2, 337.5 182.8 Q 337.0 183.5, 336.0 183.9 " fill="#000000"/>
<path class="legend" d="M 344.4 182.8 Q 345.4 182.8, 346.2 183.2 Q 346.9 183.6, 347.4 184.4 Q 347.8 185.2, 347.8 186.2 Q 347.8 187.3, 347.3 188.2 Q 346.8 189.0, 346.0 189.5 Q 345.1 190.0, 344.0 190.0 Q 342.0 190.0, 341.0 188.6 Q 339.9 187.2, 339.9 184.5 Q 339.9 181.5, 341.2 180.0 Q 342.5 178.4, 344.9 178.4 Q 345.6 178.4, 346.2 178.5 Q 346.8 178.7, 347.4 179.0 L 346.7 180.1 Q 345.9 179.7, 344.9 179.7 Q 343.3 179.7, 342.5 180.7 Q 341.7 181.7, 341.6 183.9 Q 342.1 183.3, 342.9 183.1 Q 343.6 182.8, 344.4 182.8 M 344.0 188.7 Q 344.6 188.7, 345.1 188.3 Q 345.6 188.0, 345.9 187.5 Q 346.2 186.9, 346.2 186.2 Q 346.2 185.2, 345.6 184.6 Q 345.1 184.0, 344.1 184.0 Q 343.4 184.0, 342.7 184.3 Q 342.0 184.6, 341.6 185.1 Q 341.6 187.0, 342.2 187.8 Q 342.8 188.7, 344.0 188.7 " fill="#000000"/>
</svg>