<svg xmlns="http://www.w3.org/2000/svg" xmlns:rdkit="http://www.rdkit.org/xml" xmlns:xlink="http://www.w3.org/1999/xlink" version="1.1" baseProfile="full" xml:space="preserve" width="600px" height="200px" viewBox="0 0 600 200">
<!-- END OF HEADER -->
<rect style="opacity:1.0;fill:#FFFFFF;stroke:none" width="600.0" height="200.0" x="0.0" y="0.0"> </rect>
<path class="bond-0 atom-0 atom-1" d="M 125.4,120.0 L 131.4,120.5" style="fill:none;fill-rule:evenodd;stroke:#000000;stroke-width:2.0px;stroke-linecap:butt;stroke-linejoin:miter;stroke-opacity:1"/>
<path class="bond-0 atom-0 atom-1" d="M 131.4,120.5 L 137.5,120.9" style="fill:none;fill-rule:evenodd;stroke:#0000FF;stroke-width:2.0px;stroke-linecap:butt;stroke-linejoin:miter;stroke-opacity:1"/>
<path class="bond-1 atom-2 atom-1" d="M 145.7,111.3 L 146.3,111.7" style="fill:none;fill-rule:evenodd;stroke:#000000;stroke-width:1.0px;stroke-linecap:butt;stroke-linejoin:miter;stroke-opacity:1"/>
<path class="bond-1 atom-2 atom-1" d="M 144.0,113.2 L 145.2,114.0" style="fill:none;fill-rule:evenodd;stroke:#000000;stroke-width:1.0px;stroke-linecap:butt;stroke-linejoin:miter;stroke-opacity:1"/>
<path class="bond-1 atom-2 atom-1" d="M 142.2,115.2 L 144.0,116.4" style="fill:none;fill-rule:evenodd;stroke:#0000FF;stroke-width:1.0px;stroke-linecap:butt;stroke-linejoin:miter;stroke-opacity:1"/>
<path class="bond-2 atom-2 atom-3" d="M 147.5,109.3 L 141.3,96.6" style="fill:none;fill-rule:evenodd;stroke:#000000;stroke-width:2.0px;stroke-linecap:butt;stroke-linejoin:miter;stroke-opacity:1"/>
<path class="bond-3 atom-3 atom-4" d="M 138.5,96.0 L 138.5,96.7" style="fill:none;fill-rule:evenodd;stroke:#000000;stroke-width:1.0px;stroke-linecap:butt;stroke-linejoin:miter;stroke-opacity:1"/>
<path class="bond-3 atom-3 atom-4" d="M 135.8,95.5 L 135.7,96.9" style="fill:none;fill-rule:evenodd;stroke:#000000;stroke-width:1.0px;stroke-linecap:butt;stroke-linejoin:miter;stroke-opacity:1"/>
<path class="bond-3 atom-3 atom-4" d="M 133.0,94.9 L 132.8,97.0" style="fill:none;fill-rule:evenodd;stroke:#FF0000;stroke-width:1.0px;stroke-linecap:butt;stroke-linejoin:miter;stroke-opacity:1"/>
<path class="bond-4 atom-5 atom-4" d="M 121.0,82.8 L 123.8,87.4 L 122.9,87.9 Z" style="fill:#000000;fill-rule:evenodd;fill-opacity:1;stroke:#000000;stroke-width:0.5px;stroke-linecap:butt;stroke-linejoin:miter;stroke-opacity:1;"/>
<path class="bond-4 atom-5 atom-4" d="M 123.8,87.4 L 124.7,92.9 L 126.6,92.0 Z" style="fill:#FF0000;fill-rule:evenodd;fill-opacity:1;stroke:#FF0000;stroke-width:0.5px;stroke-linecap:butt;stroke-linejoin:miter;stroke-opacity:1;"/>
<path class="bond-4 atom-5 atom-4" d="M 123.8,87.4 L 122.9,87.9 L 124.7,92.9 Z" style="fill:#FF0000;fill-rule:evenodd;fill-opacity:1;stroke:#FF0000;stroke-width:0.5px;stroke-linecap:butt;stroke-linejoin:miter;stroke-opacity:1;"/>
<path class="bond-5 atom-5 atom-6" d="M 121.0,82.8 L 107.0,80.3" style="fill:none;fill-rule:evenodd;stroke:#000000;stroke-width:2.0px;stroke-linecap:butt;stroke-linejoin:miter;stroke-opacity:1"/>
<path class="bond-6 atom-6 atom-7" d="M 105.0,81.8 L 105.5,82.3" style="fill:none;fill-rule:evenodd;stroke:#000000;stroke-width:1.0px;stroke-linecap:butt;stroke-linejoin:miter;stroke-opacity:1"/>
<path class="bond-6 atom-6 atom-7" d="M 102.9,83.3 L 103.9,84.3" style="fill:none;fill-rule:evenodd;stroke:#000000;stroke-width:1.0px;stroke-linecap:butt;stroke-linejoin:miter;stroke-opacity:1"/>
<path class="bond-6 atom-6 atom-7" d="M 100.8,84.8 L 102.3,86.4" style="fill:none;fill-rule:evenodd;stroke:#FF0000;stroke-width:1.0px;stroke-linecap:butt;stroke-linejoin:miter;stroke-opacity:1"/>
<path class="bond-7 atom-8 atom-7" d="M 85.8,87.3 L 86.0,86.7" style="fill:none;fill-rule:evenodd;stroke:#000000;stroke-width:1.0px;stroke-linecap:butt;stroke-linejoin:miter;stroke-opacity:1"/>
<path class="bond-7 atom-8 atom-7" d="M 88.4,88.4 L 88.8,87.1" style="fill:none;fill-rule:evenodd;stroke:#000000;stroke-width:1.0px;stroke-linecap:butt;stroke-linejoin:miter;stroke-opacity:1"/>
<path class="bond-7 atom-8 atom-7" d="M 90.9,89.6 L 91.5,87.5" style="fill:none;fill-rule:evenodd;stroke:#FF0000;stroke-width:1.0px;stroke-linecap:butt;stroke-linejoin:miter;stroke-opacity:1"/>
<path class="bond-8 atom-8 atom-9" d="M 83.2,86.2 L 79.8,72.5" style="fill:none;fill-rule:evenodd;stroke:#000000;stroke-width:2.0px;stroke-linecap:butt;stroke-linejoin:miter;stroke-opacity:1"/>
<path class="bond-9 atom-9 atom-10" d="M 79.8,72.5 L 83.1,68.6 L 83.8,69.3 Z" style="fill:#000000;fill-rule:evenodd;fill-opacity:1;stroke:#000000;stroke-width:0.5px;stroke-linecap:butt;stroke-linejoin:miter;stroke-opacity:1;"/>
<path class="bond-9 atom-9 atom-10" d="M 83.1,68.6 L 87.9,66.2 L 86.4,64.7 Z" style="fill:#FF0000;fill-rule:evenodd;fill-opacity:1;stroke:#FF0000;stroke-width:0.5px;stroke-linecap:butt;stroke-linejoin:miter;stroke-opacity:1;"/>
<path class="bond-9 atom-9 atom-10" d="M 83.1,68.6 L 83.8,69.3 L 87.9,66.2 Z" style="fill:#FF0000;fill-rule:evenodd;fill-opacity:1;stroke:#FF0000;stroke-width:0.5px;stroke-linecap:butt;stroke-linejoin:miter;stroke-opacity:1;"/>
<path class="bond-10 atom-9 atom-11" d="M 79.8,72.5 L 66.2,68.5" style="fill:none;fill-rule:evenodd;stroke:#000000;stroke-width:2.0px;stroke-linecap:butt;stroke-linejoin:miter;stroke-opacity:1"/>
<path class="bond-11 atom-11 atom-12" d="M 65.0,65.1 L 65.7,64.9" style="fill:none;fill-rule:evenodd;stroke:#000000;stroke-width:1.0px;stroke-linecap:butt;stroke-linejoin:miter;stroke-opacity:1"/>
<path class="bond-11 atom-11 atom-12" d="M 63.8,61.6 L 65.1,61.3" style="fill:none;fill-rule:evenodd;stroke:#FF0000;stroke-width:1.0px;stroke-linecap:butt;stroke-linejoin:miter;stroke-opacity:1"/>
<path class="bond-11 atom-11 atom-12" d="M 62.5,58.2 L 64.6,57.7" style="fill:none;fill-rule:evenodd;stroke:#FF0000;stroke-width:1.0px;stroke-linecap:butt;stroke-linejoin:miter;stroke-opacity:1"/>
<path class="bond-12 atom-11 atom-13" d="M 66.2,68.5 L 56.0,78.4" style="fill:none;fill-rule:evenodd;stroke:#000000;stroke-width:2.0px;stroke-linecap:butt;stroke-linejoin:miter;stroke-opacity:1"/>
<path class="bond-13 atom-13 atom-14" d="M 56.0,78.4 L 50.3,77.3 L 50.6,76.3 Z" style="fill:#000000;fill-rule:evenodd;fill-opacity:1;stroke:#000000;stroke-width:0.5px;stroke-linecap:butt;stroke-linejoin:miter;stroke-opacity:1;"/>
<path class="bond-13 atom-13 atom-14" d="M 50.3,77.3 L 45.2,74.1 L 44.6,76.2 Z" style="fill:#0000FF;fill-rule:evenodd;fill-opacity:1;stroke:#0000FF;stroke-width:0.5px;stroke-linecap:butt;stroke-linejoin:miter;stroke-opacity:1;"/>
<path class="bond-13 atom-13 atom-14" d="M 50.3,77.3 L 50.6,76.3 L 45.2,74.1 Z" style="fill:#0000FF;fill-rule:evenodd;fill-opacity:1;stroke:#0000FF;stroke-width:0.5px;stroke-linecap:butt;stroke-linejoin:miter;stroke-opacity:1;"/>
<path class="bond-14 atom-14 atom-15" d="M 40.3,76.4 L 36.2,80.3" style="fill:none;fill-rule:evenodd;stroke:#0000FF;stroke-width:2.0px;stroke-linecap:butt;stroke-linejoin:miter;stroke-opacity:1"/>
<path class="bond-14 atom-14 atom-15" d="M 36.2,80.3 L 32.2,84.3" style="fill:none;fill-rule:evenodd;stroke:#000000;stroke-width:2.0px;stroke-linecap:butt;stroke-linejoin:miter;stroke-opacity:1"/>
<path class="bond-14 atom-14 atom-15" d="M 41.8,78.0 L 38.2,81.4" style="fill:none;fill-rule:evenodd;stroke:#0000FF;stroke-width:2.0px;stroke-linecap:butt;stroke-linejoin:miter;stroke-opacity:1"/>
<path class="bond-14 atom-14 atom-15" d="M 38.2,81.4 L 34.5,84.9" style="fill:none;fill-rule:evenodd;stroke:#000000;stroke-width:2.0px;stroke-linecap:butt;stroke-linejoin:miter;stroke-opacity:1"/>
<path class="bond-15 atom-15 atom-16" d="M 32.2,84.3 L 26.4,82.6" style="fill:none;fill-rule:evenodd;stroke:#000000;stroke-width:2.0px;stroke-linecap:butt;stroke-linejoin:miter;stroke-opacity:1"/>
<path class="bond-15 atom-15 atom-16" d="M 26.4,82.6 L 20.6,80.9" style="fill:none;fill-rule:evenodd;stroke:#0000FF;stroke-width:2.0px;stroke-linecap:butt;stroke-linejoin:miter;stroke-opacity:1"/>
<path class="bond-16 atom-15 atom-17" d="M 32.2,84.3 L 33.6,89.8" style="fill:none;fill-rule:evenodd;stroke:#000000;stroke-width:2.0px;stroke-linecap:butt;stroke-linejoin:miter;stroke-opacity:1"/>
<path class="bond-16 atom-15 atom-17" d="M 33.6,89.8 L 34.9,95.4" style="fill:none;fill-rule:evenodd;stroke:#0000FF;stroke-width:2.0px;stroke-linecap:butt;stroke-linejoin:miter;stroke-opacity:1"/>
<path class="bond-17 atom-13 atom-18" d="M 56.0,78.4 L 59.4,92.1" style="fill:none;fill-rule:evenodd;stroke:#000000;stroke-width:2.0px;stroke-linecap:butt;stroke-linejoin:miter;stroke-opacity:1"/>
<path class="bond-18 atom-18 atom-19" d="M 57.2,94.7 L 56.7,94.2" style="fill:none;fill-rule:evenodd;stroke:#000000;stroke-width:1.0px;stroke-linecap:butt;stroke-linejoin:miter;stroke-opacity:1"/>
<path class="bond-18 atom-18 atom-19" d="M 55.0,97.3 L 54.0,96.3" style="fill:none;fill-rule:evenodd;stroke:#FF0000;stroke-width:1.0px;stroke-linecap:butt;stroke-linejoin:miter;stroke-opacity:1"/>
<path class="bond-18 atom-18 atom-19" d="M 52.8,99.9 L 51.3,98.4" style="fill:none;fill-rule:evenodd;stroke:#FF0000;stroke-width:1.0px;stroke-linecap:butt;stroke-linejoin:miter;stroke-opacity:1"/>
<path class="bond-19 atom-18 atom-20" d="M 59.4,92.1 L 73.0,96.0" style="fill:none;fill-rule:evenodd;stroke:#000000;stroke-width:2.0px;stroke-linecap:butt;stroke-linejoin:miter;stroke-opacity:1"/>
<path class="bond-20 atom-20 atom-21" d="M 73.0,96.0 L 74.8,101.3 L 73.8,101.5 Z" style="fill:#000000;fill-rule:evenodd;fill-opacity:1;stroke:#000000;stroke-width:0.5px;stroke-linecap:butt;stroke-linejoin:miter;stroke-opacity:1;"/>
<path class="bond-20 atom-20 atom-21" d="M 74.8,101.3 L 74.6,107.0 L 76.7,106.5 Z" style="fill:#0000FF;fill-rule:evenodd;fill-opacity:1;stroke:#0000FF;stroke-width:0.5px;stroke-linecap:butt;stroke-linejoin:miter;stroke-opacity:1;"/>
<path class="bond-20 atom-20 atom-21" d="M 74.8,101.3 L 73.8,101.5 L 74.6,107.0 Z" style="fill:#0000FF;fill-rule:evenodd;fill-opacity:1;stroke:#0000FF;stroke-width:0.5px;stroke-linecap:butt;stroke-linejoin:miter;stroke-opacity:1;"/>
<path class="bond-21 atom-21 atom-22" d="M 74.3,111.8 L 70.3,115.7" style="fill:none;fill-rule:evenodd;stroke:#0000FF;stroke-width:2.0px;stroke-linecap:butt;stroke-linejoin:miter;stroke-opacity:1"/>
<path class="bond-21 atom-21 atom-22" d="M 70.3,115.7 L 66.2,119.6" style="fill:none;fill-rule:evenodd;stroke:#000000;stroke-width:2.0px;stroke-linecap:butt;stroke-linejoin:miter;stroke-opacity:1"/>
<path class="bond-21 atom-21 atom-22" d="M 72.9,110.3 L 69.2,113.8" style="fill:none;fill-rule:evenodd;stroke:#0000FF;stroke-width:2.0px;stroke-linecap:butt;stroke-linejoin:miter;stroke-opacity:1"/>
<path class="bond-21 atom-21 atom-22" d="M 69.2,113.8 L 65.6,117.2" style="fill:none;fill-rule:evenodd;stroke:#000000;stroke-width:2.0px;stroke-linecap:butt;stroke-linejoin:miter;stroke-opacity:1"/>
<path class="bond-22 atom-22 atom-23" d="M 66.2,119.6 L 67.6,125.2" style="fill:none;fill-rule:evenodd;stroke:#000000;stroke-width:2.0px;stroke-linecap:butt;stroke-linejoin:miter;stroke-opacity:1"/>
<path class="bond-22 atom-22 atom-23" d="M 67.6,125.2 L 69.0,130.8" style="fill:none;fill-rule:evenodd;stroke:#0000FF;stroke-width:2.0px;stroke-linecap:butt;stroke-linejoin:miter;stroke-opacity:1"/>
<path class="bond-23 atom-22 atom-24" d="M 66.2,119.6 L 60.4,118.0" style="fill:none;fill-rule:evenodd;stroke:#000000;stroke-width:2.0px;stroke-linecap:butt;stroke-linejoin:miter;stroke-opacity:1"/>
<path class="bond-23 atom-22 atom-24" d="M 60.4,118.0 L 54.7,116.3" style="fill:none;fill-rule:evenodd;stroke:#0000FF;stroke-width:2.0px;stroke-linecap:butt;stroke-linejoin:miter;stroke-opacity:1"/>
<path class="bond-24 atom-6 atom-25" d="M 107.0,80.3 L 106.3,74.7" style="fill:none;fill-rule:evenodd;stroke:#000000;stroke-width:2.0px;stroke-linecap:butt;stroke-linejoin:miter;stroke-opacity:1"/>
<path class="bond-24 atom-6 atom-25" d="M 106.3,74.7 L 105.5,69.0" style="fill:none;fill-rule:evenodd;stroke:#FF0000;stroke-width:2.0px;stroke-linecap:butt;stroke-linejoin:miter;stroke-opacity:1"/>
<path class="bond-25 atom-25 atom-26" d="M 107.5,65.1 L 112.7,62.6" style="fill:none;fill-rule:evenodd;stroke:#FF0000;stroke-width:2.0px;stroke-linecap:butt;stroke-linejoin:miter;stroke-opacity:1"/>
<path class="bond-25 atom-25 atom-26" d="M 112.7,62.6 L 117.8,60.1" style="fill:none;fill-rule:evenodd;stroke:#000000;stroke-width:2.0px;stroke-linecap:butt;stroke-linejoin:miter;stroke-opacity:1"/>
<path class="bond-26 atom-26 atom-27" d="M 117.8,60.1 L 119.3,46.0 L 121.4,46.3 Z" style="fill:#000000;fill-rule:evenodd;fill-opacity:1;stroke:#000000;stroke-width:0.5px;stroke-linecap:butt;stroke-linejoin:miter;stroke-opacity:1;"/>
<path class="bond-27 atom-26 atom-28" d="M 117.8,60.1 L 127.7,70.3" style="fill:none;fill-rule:evenodd;stroke:#000000;stroke-width:2.0px;stroke-linecap:butt;stroke-linejoin:miter;stroke-opacity:1"/>
<path class="bond-28 atom-28 atom-29" d="M 127.7,70.3 L 132.4,72.9 L 131.8,73.8 Z" style="fill:#000000;fill-rule:evenodd;fill-opacity:1;stroke:#000000;stroke-width:0.5px;stroke-linecap:butt;stroke-linejoin:miter;stroke-opacity:1;"/>
<path class="bond-28 atom-28 atom-29" d="M 132.4,72.9 L 135.9,77.2 L 137.1,75.4 Z" style="fill:#FF0000;fill-rule:evenodd;fill-opacity:1;stroke:#FF0000;stroke-width:0.5px;stroke-linecap:butt;stroke-linejoin:miter;stroke-opacity:1;"/>
<path class="bond-28 atom-28 atom-29" d="M 132.4,72.9 L 131.8,73.8 L 135.9,77.2 Z" style="fill:#FF0000;fill-rule:evenodd;fill-opacity:1;stroke:#FF0000;stroke-width:0.5px;stroke-linecap:butt;stroke-linejoin:miter;stroke-opacity:1;"/>
<path class="bond-29 atom-28 atom-30" d="M 127.7,70.3 L 136.8,59.5" style="fill:none;fill-rule:evenodd;stroke:#000000;stroke-width:2.0px;stroke-linecap:butt;stroke-linejoin:miter;stroke-opacity:1"/>
<path class="bond-30 atom-30 atom-31" d="M 136.8,59.5 L 134.9,54.2" style="fill:none;fill-rule:evenodd;stroke:#000000;stroke-width:2.0px;stroke-linecap:butt;stroke-linejoin:miter;stroke-opacity:1"/>
<path class="bond-30 atom-30 atom-31" d="M 134.9,54.2 L 132.9,48.8" style="fill:none;fill-rule:evenodd;stroke:#FF0000;stroke-width:2.0px;stroke-linecap:butt;stroke-linejoin:miter;stroke-opacity:1"/>
<path class="bond-30 atom-30 atom-31" d="M 134.4,59.1 L 132.9,54.9" style="fill:none;fill-rule:evenodd;stroke:#000000;stroke-width:2.0px;stroke-linecap:butt;stroke-linejoin:miter;stroke-opacity:1"/>
<path class="bond-30 atom-30 atom-31" d="M 132.9,54.9 L 130.9,49.6" style="fill:none;fill-rule:evenodd;stroke:#FF0000;stroke-width:2.0px;stroke-linecap:butt;stroke-linejoin:miter;stroke-opacity:1"/>
<path class="bond-31 atom-3 atom-32" d="M 141.3,96.6 L 144.4,92.1" style="fill:none;fill-rule:evenodd;stroke:#000000;stroke-width:2.0px;stroke-linecap:butt;stroke-linejoin:miter;stroke-opacity:1"/>
<path class="bond-31 atom-3 atom-32" d="M 144.4,92.1 L 147.4,87.5" style="fill:none;fill-rule:evenodd;stroke:#FF0000;stroke-width:2.0px;stroke-linecap:butt;stroke-linejoin:miter;stroke-opacity:1"/>
<path class="bond-32 atom-32 atom-33" d="M 151.7,85.0 L 157.5,85.4" style="fill:none;fill-rule:evenodd;stroke:#FF0000;stroke-width:2.0px;stroke-linecap:butt;stroke-linejoin:miter;stroke-opacity:1"/>
<path class="bond-32 atom-32 atom-33" d="M 157.5,85.4 L 163.4,85.9" style="fill:none;fill-rule:evenodd;stroke:#000000;stroke-width:2.0px;stroke-linecap:butt;stroke-linejoin:miter;stroke-opacity:1"/>
<path class="bond-33 atom-33 atom-34" d="M 163.4,85.9 L 170.8,73.0 L 171.8,75.2 Z" style="fill:#000000;fill-rule:evenodd;fill-opacity:1;stroke:#000000;stroke-width:0.5px;stroke-linecap:butt;stroke-linejoin:miter;stroke-opacity:1;"/>
<path class="bond-34 atom-34 atom-35" d="M 171.8,75.2 L 168.9,69.1" style="fill:none;fill-rule:evenodd;stroke:#000000;stroke-width:2.0px;stroke-linecap:butt;stroke-linejoin:miter;stroke-opacity:1"/>
<path class="bond-34 atom-34 atom-35" d="M 168.9,69.1 L 166.4,64.1" style="fill:none;fill-rule:evenodd;stroke:#FF0000;stroke-width:2.0px;stroke-linecap:butt;stroke-linejoin:miter;stroke-opacity:1"/>
<path class="bond-35 atom-33 atom-36" d="M 163.4,85.9 L 169.6,98.6" style="fill:none;fill-rule:evenodd;stroke:#000000;stroke-width:2.0px;stroke-linecap:butt;stroke-linejoin:miter;stroke-opacity:1"/>
<path class="bond-36 atom-36 atom-37" d="M 173.3,98.5 L 173.3,99.2" style="fill:none;fill-rule:evenodd;stroke:#000000;stroke-width:1.0px;stroke-linecap:butt;stroke-linejoin:miter;stroke-opacity:1"/>
<path class="bond-36 atom-36 atom-37" d="M 177.1,98.4 L 177.0,99.9" style="fill:none;fill-rule:evenodd;stroke:#FF0000;stroke-width:1.0px;stroke-linecap:butt;stroke-linejoin:miter;stroke-opacity:1"/>
<path class="bond-36 atom-36 atom-37" d="M 180.9,98.4 L 180.7,100.5" style="fill:none;fill-rule:evenodd;stroke:#FF0000;stroke-width:1.0px;stroke-linecap:butt;stroke-linejoin:miter;stroke-opacity:1"/>
<path class="bond-37 atom-36 atom-38" d="M 169.6,98.6 L 161.6,110.3" style="fill:none;fill-rule:evenodd;stroke:#000000;stroke-width:2.0px;stroke-linecap:butt;stroke-linejoin:miter;stroke-opacity:1"/>
<path class="bond-38 atom-38 atom-39" d="M 161.6,110.3 L 164.5,114.9 L 163.5,115.4 Z" style="fill:#000000;fill-rule:evenodd;fill-opacity:1;stroke:#000000;stroke-width:0.5px;stroke-linecap:butt;stroke-linejoin:miter;stroke-opacity:1;"/>
<path class="bond-38 atom-38 atom-39" d="M 164.5,114.9 L 165.4,120.5 L 167.3,119.5 Z" style="fill:#FF0000;fill-rule:evenodd;fill-opacity:1;stroke:#FF0000;stroke-width:0.5px;stroke-linecap:butt;stroke-linejoin:miter;stroke-opacity:1;"/>
<path class="bond-38 atom-38 atom-39" d="M 164.5,114.9 L 163.5,115.4 L 165.4,120.5 Z" style="fill:#FF0000;fill-rule:evenodd;fill-opacity:1;stroke:#FF0000;stroke-width:0.5px;stroke-linecap:butt;stroke-linejoin:miter;stroke-opacity:1;"/>
<path class="bond-39 atom-38 atom-2" d="M 161.6,110.3 L 147.5,109.3" style="fill:none;fill-rule:evenodd;stroke:#000000;stroke-width:2.0px;stroke-linecap:butt;stroke-linejoin:miter;stroke-opacity:1"/>
<path class="bond-40 atom-28 atom-5" d="M 127.7,70.3 L 121.0,82.8" style="fill:none;fill-rule:evenodd;stroke:#000000;stroke-width:2.0px;stroke-linecap:butt;stroke-linejoin:miter;stroke-opacity:1"/>
<path class="bond-41 atom-20 atom-8" d="M 73.0,96.0 L 83.2,86.2" style="fill:none;fill-rule:evenodd;stroke:#000000;stroke-width:2.0px;stroke-linecap:butt;stroke-linejoin:miter;stroke-opacity:1"/>
<path d="M 147.2,108.7 L 147.5,109.3 L 148.2,109.4" style="fill:none;stroke:#000000;stroke-width:2.0px;stroke-linecap:butt;stroke-linejoin:miter;stroke-opacity:1;"/>
<path d="M 141.6,97.2 L 141.3,96.6 L 141.5,96.4" style="fill:none;stroke:#000000;stroke-width:2.0px;stroke-linecap:butt;stroke-linejoin:miter;stroke-opacity:1;"/>
<path d="M 120.3,82.7 L 121.0,82.8 L 121.3,82.2" style="fill:none;stroke:#000000;stroke-width:2.0px;stroke-linecap:butt;stroke-linejoin:miter;stroke-opacity:1;"/>
<path d="M 107.7,80.5 L 107.0,80.3 L 107.0,80.0" style="fill:none;stroke:#000000;stroke-width:2.0px;stroke-linecap:butt;stroke-linejoin:miter;stroke-opacity:1;"/>
<path d="M 83.0,85.5 L 83.2,86.2 L 82.7,86.7" style="fill:none;stroke:#000000;stroke-width:2.0px;stroke-linecap:butt;stroke-linejoin:miter;stroke-opacity:1;"/>
<path d="M 80.0,73.2 L 79.8,72.5 L 79.1,72.3" style="fill:none;stroke:#000000;stroke-width:2.0px;stroke-linecap:butt;stroke-linejoin:miter;stroke-opacity:1;"/>
<path d="M 66.9,68.7 L 66.2,68.5 L 65.7,69.0" style="fill:none;stroke:#000000;stroke-width:2.0px;stroke-linecap:butt;stroke-linejoin:miter;stroke-opacity:1;"/>
<path d="M 56.5,77.9 L 56.0,78.4 L 56.2,79.0" style="fill:none;stroke:#000000;stroke-width:2.0px;stroke-linecap:butt;stroke-linejoin:miter;stroke-opacity:1;"/>
<path d="M 59.2,91.4 L 59.4,92.1 L 60.1,92.3" style="fill:none;stroke:#000000;stroke-width:2.0px;stroke-linecap:butt;stroke-linejoin:miter;stroke-opacity:1;"/>
<path d="M 72.3,95.8 L 73.0,96.0 L 73.5,95.6" style="fill:none;stroke:#000000;stroke-width:2.0px;stroke-linecap:butt;stroke-linejoin:miter;stroke-opacity:1;"/>
<path d="M 117.6,60.2 L 117.8,60.1 L 118.3,60.6" style="fill:none;stroke:#000000;stroke-width:2.0px;stroke-linecap:butt;stroke-linejoin:miter;stroke-opacity:1;"/>
<path d="M 136.3,60.0 L 136.8,59.5 L 136.7,59.2" style="fill:none;stroke:#000000;stroke-width:2.0px;stroke-linecap:butt;stroke-linejoin:miter;stroke-opacity:1;"/>
<path d="M 163.1,85.8 L 163.4,85.9 L 163.7,86.5" style="fill:none;stroke:#000000;stroke-width:2.0px;stroke-linecap:butt;stroke-linejoin:miter;stroke-opacity:1;"/>
<path d="M 169.3,98.0 L 169.6,98.6 L 169.2,99.2" style="fill:none;stroke:#000000;stroke-width:2.0px;stroke-linecap:butt;stroke-linejoin:miter;stroke-opacity:1;"/>
<path d="M 162.0,109.8 L 161.6,110.3 L 160.9,110.3" style="fill:none;stroke:#000000;stroke-width:2.0px;stroke-linecap:butt;stroke-linejoin:miter;stroke-opacity:1;"/>
<path class="atom-1" d="M 138.6 118.9 L 140.0 121.2 Q 140.1 121.4, 140.4 121.8 Q 140.6 122.2, 140.6 122.2 L 140.6 118.9 L 141.2 118.9 L 141.2 123.2 L 140.6 123.2 L 139.1 120.7 Q 138.9 120.4, 138.7 120.1 Q 138.5 119.8, 138.5 119.7 L 138.5 123.2 L 137.9 123.2 L 137.9 118.9 L 138.6 118.9 " fill="#0000FF"/>
<path class="atom-1" d="M 142.0 118.9 L 142.6 118.9 L 142.6 120.7 L 144.7 120.7 L 144.7 118.9 L 145.3 118.9 L 145.3 123.2 L 144.7 123.2 L 144.7 121.2 L 142.6 121.2 L 142.6 123.2 L 142.0 123.2 L 142.0 118.9 " fill="#0000FF"/>
<path class="atom-4" d="M 125.2 95.6 Q 125.2 94.6, 125.7 94.0 Q 126.2 93.4, 127.2 93.4 Q 128.1 93.4, 128.6 94.0 Q 129.1 94.6, 129.1 95.6 Q 129.1 96.6, 128.6 97.2 Q 128.1 97.8, 127.2 97.8 Q 126.2 97.8, 125.7 97.2 Q 125.2 96.6, 125.2 95.6 M 127.2 97.3 Q 127.8 97.3, 128.2 96.9 Q 128.5 96.4, 128.5 95.6 Q 128.5 94.7, 128.2 94.3 Q 127.8 93.9, 127.2 93.9 Q 126.5 93.9, 126.2 94.3 Q 125.8 94.7, 125.8 95.6 Q 125.8 96.4, 126.2 96.9 Q 126.5 97.3, 127.2 97.3 " fill="#FF0000"/>
<path class="atom-7" d="M 94.9 90.2 Q 94.9 89.1, 95.4 88.6 Q 95.9 88.0, 96.8 88.0 Q 97.8 88.0, 98.3 88.6 Q 98.8 89.1, 98.8 90.2 Q 98.8 91.2, 98.3 91.8 Q 97.8 92.4, 96.8 92.4 Q 95.9 92.4, 95.4 91.8 Q 94.9 91.2, 94.9 90.2 M 96.8 91.9 Q 97.5 91.9, 97.8 91.5 Q 98.2 91.0, 98.2 90.2 Q 98.2 89.3, 97.8 88.9 Q 97.5 88.5, 96.8 88.5 Q 96.2 88.5, 95.8 88.9 Q 95.5 89.3, 95.5 90.2 Q 95.5 91.0, 95.8 91.5 Q 96.2 91.9, 96.8 91.9 " fill="#FF0000"/>
<path class="atom-10" d="M 88.1 62.7 Q 88.1 61.6, 88.6 61.1 Q 89.1 60.5, 90.0 60.5 Q 91.0 60.5, 91.5 61.1 Q 92.0 61.6, 92.0 62.7 Q 92.0 63.7, 91.5 64.3 Q 91.0 64.9, 90.0 64.9 Q 89.1 64.9, 88.6 64.3 Q 88.1 63.7, 88.1 62.7 M 90.0 64.4 Q 90.7 64.4, 91.0 63.9 Q 91.4 63.5, 91.4 62.7 Q 91.4 61.8, 91.0 61.4 Q 90.7 61.0, 90.0 61.0 Q 89.4 61.0, 89.0 61.4 Q 88.7 61.8, 88.7 62.7 Q 88.7 63.5, 89.0 63.9 Q 89.4 64.4, 90.0 64.4 " fill="#FF0000"/>
<path class="atom-10" d="M 92.6 60.5 L 93.2 60.5 L 93.2 62.4 L 95.4 62.4 L 95.4 60.5 L 96.0 60.5 L 96.0 64.8 L 95.4 64.8 L 95.4 62.8 L 93.2 62.8 L 93.2 64.8 L 92.6 64.8 L 92.6 60.5 " fill="#FF0000"/>
<path class="atom-12" d="M 60.9 54.8 Q 60.9 53.8, 61.4 53.2 Q 61.9 52.6, 62.8 52.6 Q 63.7 52.6, 64.2 53.2 Q 64.8 53.8, 64.8 54.8 Q 64.8 55.8, 64.2 56.4 Q 63.7 57.0, 62.8 57.0 Q 61.9 57.0, 61.4 56.4 Q 60.9 55.8, 60.9 54.8 M 62.8 56.5 Q 63.5 56.5, 63.8 56.1 Q 64.2 55.6, 64.2 54.8 Q 64.2 54.0, 63.8 53.5 Q 63.5 53.1, 62.8 53.1 Q 62.2 53.1, 61.8 53.5 Q 61.5 54.0, 61.5 54.8 Q 61.5 55.7, 61.8 56.1 Q 62.2 56.5, 62.8 56.5 " fill="#FF0000"/>
<path class="atom-12" d="M 65.4 52.7 L 66.0 52.7 L 66.0 54.5 L 68.2 54.5 L 68.2 52.7 L 68.7 52.7 L 68.7 56.9 L 68.2 56.9 L 68.2 55.0 L 66.0 55.0 L 66.0 56.9 L 65.4 56.9 L 65.4 52.7 " fill="#FF0000"/>
<path class="atom-14" d="M 41.4 72.3 L 42.8 74.6 Q 43.0 74.8, 43.2 75.2 Q 43.4 75.6, 43.4 75.6 L 43.4 72.3 L 44.0 72.3 L 44.0 76.6 L 43.4 76.6 L 41.9 74.1 Q 41.7 73.8, 41.6 73.5 Q 41.4 73.1, 41.3 73.0 L 41.3 76.6 L 40.8 76.6 L 40.8 72.3 L 41.4 72.3 " fill="#0000FF"/>
<path class="atom-16" d="M 10.4 78.2 L 10.9 78.2 L 10.9 80.0 L 13.1 80.0 L 13.1 78.2 L 13.7 78.2 L 13.7 82.4 L 13.1 82.4 L 13.1 80.5 L 10.9 80.5 L 10.9 82.4 L 10.4 82.4 L 10.4 78.2 " fill="#0000FF"/>
<path class="atom-16" d="M 14.5 82.3 Q 14.6 82.0, 14.9 81.9 Q 15.1 81.7, 15.4 81.7 Q 15.9 81.7, 16.1 82.0 Q 16.3 82.2, 16.3 82.6 Q 16.3 83.0, 16.0 83.4 Q 15.7 83.8, 15.1 84.3 L 16.4 84.3 L 16.4 84.6 L 14.5 84.6 L 14.5 84.3 Q 15.0 83.9, 15.3 83.7 Q 15.7 83.4, 15.8 83.1 Q 16.0 82.9, 16.0 82.6 Q 16.0 82.4, 15.8 82.2 Q 15.7 82.1, 15.4 82.1 Q 15.2 82.1, 15.1 82.1 Q 14.9 82.2, 14.8 82.4 L 14.5 82.3 " fill="#0000FF"/>
<path class="atom-16" d="M 17.6 78.2 L 19.0 80.4 Q 19.1 80.7, 19.4 81.1 Q 19.6 81.5, 19.6 81.5 L 19.6 78.2 L 20.2 78.2 L 20.2 82.4 L 19.6 82.4 L 18.1 80.0 Q 17.9 79.7, 17.7 79.4 Q 17.6 79.0, 17.5 78.9 L 17.5 82.4 L 16.9 82.4 L 16.9 78.2 L 17.6 78.2 " fill="#0000FF"/>
<path class="atom-17" d="M 34.6 95.9 L 36.0 98.1 Q 36.2 98.4, 36.4 98.8 Q 36.6 99.2, 36.6 99.2 L 36.6 95.9 L 37.2 95.9 L 37.2 100.1 L 36.6 100.1 L 35.1 97.7 Q 34.9 97.4, 34.7 97.1 Q 34.6 96.7, 34.5 96.6 L 34.5 100.1 L 34.0 100.1 L 34.0 95.9 L 34.6 95.9 " fill="#0000FF"/>
<path class="atom-17" d="M 38.0 95.9 L 38.6 95.9 L 38.6 97.7 L 40.7 97.7 L 40.7 95.9 L 41.3 95.9 L 41.3 100.1 L 40.7 100.1 L 40.7 98.2 L 38.6 98.2 L 38.6 100.1 L 38.0 100.1 L 38.0 95.9 " fill="#0000FF"/>
<path class="atom-17" d="M 42.2 100.0 Q 42.3 99.7, 42.5 99.6 Q 42.7 99.4, 43.1 99.4 Q 43.5 99.4, 43.7 99.6 Q 44.0 99.9, 44.0 100.3 Q 44.0 100.7, 43.7 101.1 Q 43.4 101.5, 42.7 101.9 L 44.0 101.9 L 44.0 102.3 L 42.1 102.3 L 42.1 102.0 Q 42.7 101.6, 43.0 101.3 Q 43.3 101.1, 43.4 100.8 Q 43.6 100.6, 43.6 100.3 Q 43.6 100.0, 43.5 99.9 Q 43.3 99.7, 43.1 99.7 Q 42.9 99.7, 42.7 99.8 Q 42.6 99.9, 42.5 100.1 L 42.2 100.0 " fill="#0000FF"/>
<path class="atom-19" d="M 43.0 99.8 L 43.6 99.8 L 43.6 101.6 L 45.8 101.6 L 45.8 99.8 L 46.4 99.8 L 46.4 104.1 L 45.8 104.1 L 45.8 102.1 L 43.6 102.1 L 43.6 104.1 L 43.0 104.1 L 43.0 99.8 " fill="#FF0000"/>
<path class="atom-19" d="M 47.2 102.0 Q 47.2 100.9, 47.7 100.4 Q 48.2 99.8, 49.2 99.8 Q 50.1 99.8, 50.6 100.4 Q 51.1 100.9, 51.1 102.0 Q 51.1 103.0, 50.6 103.6 Q 50.1 104.2, 49.2 104.2 Q 48.2 104.2, 47.7 103.6 Q 47.2 103.0, 47.2 102.0 M 49.2 103.7 Q 49.8 103.7, 50.2 103.2 Q 50.5 102.8, 50.5 102.0 Q 50.5 101.1, 50.2 100.7 Q 49.8 100.3, 49.2 100.3 Q 48.5 100.3, 48.2 100.7 Q 47.8 101.1, 47.8 102.0 Q 47.8 102.8, 48.2 103.2 Q 48.5 103.7, 49.2 103.7 " fill="#FF0000"/>
<path class="atom-21" d="M 75.5 107.7 L 76.9 109.9 Q 77.0 110.1, 77.2 110.6 Q 77.4 111.0, 77.5 111.0 L 77.5 107.7 L 78.0 107.7 L 78.0 111.9 L 77.4 111.9 L 75.9 109.5 Q 75.8 109.2, 75.6 108.8 Q 75.4 108.5, 75.4 108.4 L 75.4 111.9 L 74.8 111.9 L 74.8 107.7 L 75.5 107.7 " fill="#0000FF"/>
<path class="atom-23" d="M 68.7 131.3 L 70.1 133.5 Q 70.2 133.7, 70.4 134.1 Q 70.6 134.5, 70.6 134.6 L 70.6 131.3 L 71.2 131.3 L 71.2 135.5 L 70.6 135.5 L 69.1 133.0 Q 69.0 132.8, 68.8 132.4 Q 68.6 132.1, 68.5 132.0 L 68.5 135.5 L 68.0 135.5 L 68.0 131.3 L 68.7 131.3 " fill="#0000FF"/>
<path class="atom-23" d="M 72.0 131.3 L 72.6 131.3 L 72.6 133.1 L 74.8 133.1 L 74.8 131.3 L 75.3 131.3 L 75.3 135.5 L 74.8 135.5 L 74.8 133.5 L 72.6 133.5 L 72.6 135.5 L 72.0 135.5 L 72.0 131.3 " fill="#0000FF"/>
<path class="atom-23" d="M 76.2 135.4 Q 76.3 135.1, 76.5 134.9 Q 76.8 134.8, 77.1 134.8 Q 77.5 134.8, 77.8 135.0 Q 78.0 135.2, 78.0 135.7 Q 78.0 136.1, 77.7 136.5 Q 77.4 136.8, 76.8 137.3 L 78.1 137.3 L 78.1 137.6 L 76.2 137.6 L 76.2 137.4 Q 76.7 137.0, 77.0 136.7 Q 77.3 136.4, 77.5 136.2 Q 77.6 135.9, 77.6 135.7 Q 77.6 135.4, 77.5 135.3 Q 77.3 135.1, 77.1 135.1 Q 76.9 135.1, 76.7 135.2 Q 76.6 135.3, 76.5 135.5 L 76.2 135.4 " fill="#0000FF"/>
<path class="atom-24" d="M 44.4 113.6 L 45.0 113.6 L 45.0 115.4 L 47.1 115.4 L 47.1 113.6 L 47.7 113.6 L 47.7 117.8 L 47.1 117.8 L 47.1 115.9 L 45.0 115.9 L 45.0 117.8 L 44.4 117.8 L 44.4 113.6 " fill="#0000FF"/>
<path class="atom-24" d="M 48.5 117.7 Q 48.6 117.4, 48.9 117.3 Q 49.1 117.1, 49.5 117.1 Q 49.9 117.1, 50.1 117.3 Q 50.4 117.6, 50.4 118.0 Q 50.4 118.4, 50.1 118.8 Q 49.8 119.2, 49.1 119.6 L 50.4 119.6 L 50.4 119.9 L 48.5 119.9 L 48.5 119.7 Q 49.1 119.3, 49.4 119.0 Q 49.7 118.7, 49.8 118.5 Q 50.0 118.2, 50.0 118.0 Q 50.0 117.7, 49.8 117.6 Q 49.7 117.4, 49.5 117.4 Q 49.3 117.4, 49.1 117.5 Q 49.0 117.6, 48.8 117.8 L 48.5 117.7 " fill="#0000FF"/>
<path class="atom-24" d="M 51.6 113.6 L 53.0 115.8 Q 53.2 116.0, 53.4 116.4 Q 53.6 116.8, 53.6 116.9 L 53.6 113.6 L 54.2 113.6 L 54.2 117.8 L 53.6 117.8 L 52.1 115.4 Q 51.9 115.1, 51.8 114.7 Q 51.6 114.4, 51.5 114.3 L 51.5 117.8 L 51.0 117.8 L 51.0 113.6 L 51.6 113.6 " fill="#0000FF"/>
<path class="atom-25" d="M 103.1 66.3 Q 103.1 65.3, 103.6 64.7 Q 104.2 64.1, 105.1 64.1 Q 106.0 64.1, 106.5 64.7 Q 107.0 65.3, 107.0 66.3 Q 107.0 67.3, 106.5 67.9 Q 106.0 68.5, 105.1 68.5 Q 104.2 68.5, 103.6 67.9 Q 103.1 67.3, 103.1 66.3 M 105.1 68.0 Q 105.7 68.0, 106.1 67.6 Q 106.4 67.2, 106.4 66.3 Q 106.4 65.5, 106.1 65.1 Q 105.7 64.6, 105.1 64.6 Q 104.4 64.6, 104.1 65.0 Q 103.7 65.5, 103.7 66.3 Q 103.7 67.2, 104.1 67.6 Q 104.4 68.0, 105.1 68.0 " fill="#FF0000"/>
<path class="atom-29" d="M 137.4 78.3 Q 137.4 77.3, 138.0 76.7 Q 138.5 76.1, 139.4 76.1 Q 140.3 76.1, 140.8 76.7 Q 141.3 77.3, 141.3 78.3 Q 141.3 79.3, 140.8 79.9 Q 140.3 80.5, 139.4 80.5 Q 138.5 80.5, 138.0 79.9 Q 137.4 79.3, 137.4 78.3 M 139.4 80.0 Q 140.0 80.0, 140.4 79.6 Q 140.7 79.1, 140.7 78.3 Q 140.7 77.4, 140.4 77.0 Q 140.0 76.6, 139.4 76.6 Q 138.7 76.6, 138.4 77.0 Q 138.0 77.4, 138.0 78.3 Q 138.0 79.1, 138.4 79.6 Q 138.7 80.0, 139.4 80.0 " fill="#FF0000"/>
<path class="atom-29" d="M 142.0 76.2 L 142.6 76.2 L 142.6 78.0 L 144.8 78.0 L 144.8 76.2 L 145.3 76.2 L 145.3 80.4 L 144.8 80.4 L 144.8 78.5 L 142.6 78.5 L 142.6 80.4 L 142.0 80.4 L 142.0 76.2 " fill="#FF0000"/>
<path class="atom-31" d="M 129.0 46.5 Q 129.0 45.5, 129.5 44.9 Q 130.0 44.4, 131.0 44.4 Q 131.9 44.4, 132.4 44.9 Q 132.9 45.5, 132.9 46.5 Q 132.9 47.6, 132.4 48.2 Q 131.9 48.7, 131.0 48.7 Q 130.0 48.7, 129.5 48.2 Q 129.0 47.6, 129.0 46.5 M 131.0 48.3 Q 131.6 48.3, 132.0 47.8 Q 132.3 47.4, 132.3 46.5 Q 132.3 45.7, 132.0 45.3 Q 131.6 44.9, 131.0 44.9 Q 130.3 44.9, 130.0 45.3 Q 129.6 45.7, 129.6 46.5 Q 129.6 47.4, 130.0 47.8 Q 130.3 48.3, 131.0 48.3 " fill="#FF0000"/>
<path class="atom-32" d="M 147.3 84.9 Q 147.3 83.8, 147.8 83.3 Q 148.3 82.7, 149.3 82.7 Q 150.2 82.7, 150.7 83.3 Q 151.2 83.8, 151.2 84.9 Q 151.2 85.9, 150.7 86.5 Q 150.2 87.1, 149.3 87.1 Q 148.3 87.1, 147.8 86.5 Q 147.3 85.9, 147.3 84.9 M 149.3 86.6 Q 149.9 86.6, 150.2 86.2 Q 150.6 85.7, 150.6 84.9 Q 150.6 84.0, 150.2 83.6 Q 149.9 83.2, 149.3 83.2 Q 148.6 83.2, 148.3 83.6 Q 147.9 84.0, 147.9 84.9 Q 147.9 85.7, 148.3 86.2 Q 148.6 86.6, 149.3 86.6 " fill="#FF0000"/>
<path class="atom-35" d="M 159.0 59.3 L 159.6 59.3 L 159.6 61.1 L 161.7 61.1 L 161.7 59.3 L 162.3 59.3 L 162.3 63.5 L 161.7 63.5 L 161.7 61.6 L 159.6 61.6 L 159.6 63.5 L 159.0 63.5 L 159.0 59.3 " fill="#FF0000"/>
<path class="atom-35" d="M 163.2 61.4 Q 163.2 60.4, 163.7 59.8 Q 164.2 59.2, 165.1 59.2 Q 166.1 59.2, 166.6 59.8 Q 167.1 60.4, 167.1 61.4 Q 167.1 62.4, 166.6 63.0 Q 166.1 63.6, 165.1 63.6 Q 164.2 63.6, 163.7 63.0 Q 163.2 62.4, 163.2 61.4 M 165.1 63.1 Q 165.8 63.1, 166.1 62.7 Q 166.5 62.2, 166.5 61.4 Q 166.5 60.6, 166.1 60.1 Q 165.8 59.7, 165.1 59.7 Q 164.5 59.7, 164.1 60.1 Q 163.8 60.6, 163.8 61.4 Q 163.8 62.3, 164.1 62.7 Q 164.5 63.1, 165.1 63.1 " fill="#FF0000"/>
<path class="atom-37" d="M 181.8 99.6 Q 181.8 98.6, 182.3 98.0 Q 182.8 97.5, 183.7 97.5 Q 184.6 97.5, 185.2 98.0 Q 185.7 98.6, 185.7 99.6 Q 185.7 100.7, 185.1 101.3 Q 184.6 101.8, 183.7 101.8 Q 182.8 101.8, 182.3 101.3 Q 181.8 100.7, 181.8 99.6 M 183.7 101.4 Q 184.4 101.4, 184.7 100.9 Q 185.1 100.5, 185.1 99.6 Q 185.1 98.8, 184.7 98.4 Q 184.4 98.0, 183.7 98.0 Q 183.1 98.0, 182.7 98.4 Q 182.4 98.8, 182.4 99.6 Q 182.4 100.5, 182.7 100.9 Q 183.1 101.4, 183.7 101.4 " fill="#FF0000"/>
<path class="atom-37" d="M 186.3 97.5 L 186.9 97.5 L 186.9 99.3 L 189.1 99.3 L 189.1 97.5 L 189.6 97.5 L 189.6 101.8 L 189.1 101.8 L 189.1 99.8 L 186.9 99.8 L 186.9 101.8 L 186.3 101.8 L 186.3 97.5 " fill="#FF0000"/>
<path class="atom-39" d="M 165.9 123.1 Q 165.9 122.1, 166.4 121.5 Q 166.9 120.9, 167.8 120.9 Q 168.8 120.9, 169.3 121.5 Q 169.8 122.1, 169.8 123.1 Q 169.8 124.1, 169.3 124.7 Q 168.7 125.3, 167.8 125.3 Q 166.9 125.3, 166.4 124.7 Q 165.9 124.1, 165.9 123.1 M 167.8 124.8 Q 168.5 124.8, 168.8 124.4 Q 169.2 124.0, 169.2 123.1 Q 169.2 122.3, 168.8 121.8 Q 168.5 121.4, 167.8 121.4 Q 167.2 121.4, 166.8 121.8 Q 166.5 122.3, 166.5 123.1 Q 166.5 124.0, 166.8 124.4 Q 167.2 124.8, 167.8 124.8 " fill="#FF0000"/>
<path class="atom-39" d="M 170.4 121.0 L 171.0 121.0 L 171.0 122.8 L 173.2 122.8 L 173.2 121.0 L 173.7 121.0 L 173.7 125.2 L 173.2 125.2 L 173.2 123.3 L 171.0 123.3 L 171.0 125.2 L 170.4 125.2 L 170.4 121.0 " fill="#FF0000"/>
<path class="legend" d="M 44.1 187.9 Q 44.3 188.0, 44.8 188.2 Q 45.3 188.4, 45.9 188.6 Q 46.5 188.7, 47.1 188.7 Q 48.1 188.7, 48.7 188.2 Q 49.4 187.7, 49.4 186.8 Q 49.4 186.1, 49.1 185.7 Q 48.7 185.4, 48.3 185.2 Q 47.8 184.9, 47.0 184.7 Q 46.0 184.4, 45.4 184.1 Q 44.8 183.8, 44.3 183.2 Q 43.9 182.6, 43.9 181.6 Q 43.9 180.2, 44.9 179.3 Q 45.9 178.4, 47.8 178.4 Q 49.1 178.4, 50.6 179.0 L 50.2 180.3 Q 48.9 179.7, 47.8 179.7 Q 46.7 179.7, 46.1 180.2 Q 45.5 180.6, 45.5 181.4 Q 45.5 182.0, 45.8 182.4 Q 46.2 182.7, 46.6 182.9 Q 47.1 183.2, 47.8 183.4 Q 48.9 183.7, 49.5 184.0 Q 50.1 184.4, 50.5 185.0 Q 51.0 185.6, 51.0 186.8 Q 51.0 188.3, 49.9 189.2 Q 48.9 190.0, 47.1 190.0 Q 46.1 190.0, 45.3 189.8 Q 44.6 189.6, 43.7 189.2 L 44.1 187.9 " fill="#000000"/>
<path class="legend" d="M 56.0 179.6 L 52.5 179.6 L 52.5 178.4 L 60.9 178.4 L 60.9 179.6 L 57.6 179.6 L 57.6 189.7 L 56.0 189.7 L 56.0 179.6 " fill="#000000"/>
<path class="legend" d="M 67.8 189.7 L 65.1 185.0 L 65.0 185.0 L 63.2 185.0 L 63.2 189.7 L 61.7 189.7 L 61.7 178.4 L 65.0 178.4 Q 67.0 178.4, 67.9 179.2 Q 68.9 180.1, 68.9 181.7 Q 68.9 182.9, 68.3 183.7 Q 67.7 184.5, 66.6 184.8 L 69.5 189.7 L 67.8 189.7 M 63.2 183.8 L 65.0 183.8 Q 66.1 183.8, 66.7 183.2 Q 67.3 182.7, 67.3 181.7 Q 67.3 180.7, 66.7 180.2 Q 66.1 179.6, 65.0 179.6 L 63.2 179.6 L 63.2 183.8 " fill="#000000"/>
<path class="legend" d="M 70.7 178.4 L 77.4 178.4 L 77.4 179.7 L 72.2 179.7 L 72.2 183.1 L 76.9 183.1 L 76.9 184.4 L 72.2 184.4 L 72.2 188.4 L 77.6 188.4 L 77.6 189.7 L 70.7 189.7 L 70.7 178.4 " fill="#000000"/>
<path class="legend" d="M 82.5 178.4 Q 84.5 178.4, 85.4 179.2 Q 86.4 180.1, 86.4 181.7 Q 86.4 183.3, 85.4 184.2 Q 84.4 185.0, 82.5 185.0 L 80.7 185.0 L 80.7 189.7 L 79.2 189.7 L 79.2 178.4 L 82.5 178.4 M 82.5 183.8 Q 83.6 183.8, 84.2 183.2 Q 84.8 182.7, 84.8 181.7 Q 84.8 180.7, 84.2 180.2 Q 83.6 179.6, 82.5 179.6 L 80.7 179.6 L 80.7 183.8 L 82.5 183.8 " fill="#000000"/>
<path class="legend" d="M 91.5 179.6 L 88.0 179.6 L 88.0 178.4 L 96.3 178.4 L 96.3 179.6 L 93.0 179.6 L 93.0 189.7 L 91.5 189.7 L 91.5 179.6 " fill="#000000"/>
<path class="legend" d="M 97.1 184.0 Q 97.1 181.3, 98.5 179.8 Q 99.8 178.2, 102.3 178.2 Q 104.8 178.2, 106.2 179.8 Q 107.5 181.3, 107.5 184.0 Q 107.5 186.8, 106.2 188.3 Q 104.8 189.9, 102.3 189.9 Q 99.8 189.9, 98.5 188.3 Q 97.1 186.8, 97.1 184.0 M 102.3 188.6 Q 104.1 188.6, 105.0 187.4 Q 105.9 186.3, 105.9 184.0 Q 105.9 181.8, 105.0 180.7 Q 104.1 179.5, 102.3 179.5 Q 100.6 179.5, 99.7 180.6 Q 98.7 181.8, 98.7 184.0 Q 98.7 186.3, 99.7 187.4 Q 100.6 188.6, 102.3 188.6 " fill="#000000"/>
<path class="legend" d="M 122.1 189.7 L 120.6 189.7 L 119.4 180.4 L 116.4 189.7 L 114.8 189.7 L 111.8 180.4 L 110.6 189.7 L 109.1 189.7 L 110.6 178.4 L 112.5 178.4 L 115.6 187.5 L 118.7 178.4 L 120.6 178.4 L 122.1 189.7 " fill="#000000"/>
<path class="legend" d="M 127.7 184.9 L 123.9 178.4 L 125.6 178.4 L 128.4 183.4 L 131.3 178.4 L 133.0 178.4 L 129.2 184.9 L 129.2 189.7 L 127.7 189.7 L 127.7 184.9 " fill="#000000"/>
<path class="legend" d="M 133.8 184.0 Q 133.8 181.2, 135.1 179.7 Q 136.4 178.2, 138.9 178.2 Q 141.3 178.2, 142.5 179.9 L 141.5 180.8 Q 140.6 179.6, 138.9 179.6 Q 137.2 179.6, 136.3 180.7 Q 135.4 181.8, 135.4 184.0 Q 135.4 186.3, 136.4 187.4 Q 137.3 188.6, 139.1 188.6 Q 140.4 188.6, 141.8 187.8 L 142.3 189.0 Q 141.7 189.4, 140.8 189.6 Q 139.9 189.8, 138.9 189.8 Q 136.4 189.8, 135.1 188.3 Q 133.8 186.8, 133.8 184.0 " fill="#000000"/>
<path class="legend" d="M 144.0 178.3 L 145.5 178.3 L 145.5 189.7 L 144.0 189.7 L 144.0 178.3 " fill="#000000"/>
<path class="legend" d="M 149.5 178.4 L 153.2 184.4 Q 153.6 185.0, 154.2 186.0 Q 154.8 187.1, 154.8 187.2 L 154.8 178.4 L 156.3 178.4 L 156.3 189.7 L 154.8 189.7 L 150.8 183.1 Q 150.3 182.4, 149.8 181.5 Q 149.3 180.6, 149.2 180.3 L 149.2 189.7 L 147.7 189.7 L 147.7 178.4 L 149.5 178.4 " fill="#000000"/>
<path class="bond-0 atom-0 atom-1" d="M 256.2,117.4 L 262.1,117.6" style="fill:none;fill-rule:evenodd;stroke:#FF0000;stroke-width:2.0px;stroke-linecap:butt;stroke-linejoin:miter;stroke-opacity:1"/>
<path class="bond-0 atom-0 atom-1" d="M 262.1,117.6 L 267.9,117.8" style="fill:none;fill-rule:evenodd;stroke:#000000;stroke-width:2.0px;stroke-linecap:butt;stroke-linejoin:miter;stroke-opacity:1"/>
<path class="bond-0 atom-0 atom-1" d="M 256.3,115.3 L 262.1,115.5" style="fill:none;fill-rule:evenodd;stroke:#FF0000;stroke-width:2.0px;stroke-linecap:butt;stroke-linejoin:miter;stroke-opacity:1"/>
<path class="bond-0 atom-0 atom-1" d="M 262.1,115.5 L 266.8,115.6" style="fill:none;fill-rule:evenodd;stroke:#000000;stroke-width:2.0px;stroke-linecap:butt;stroke-linejoin:miter;stroke-opacity:1"/>
<path class="bond-1 atom-1 atom-2" d="M 267.9,117.8 L 275.4,105.7" style="fill:none;fill-rule:evenodd;stroke:#000000;stroke-width:2.0px;stroke-linecap:butt;stroke-linejoin:miter;stroke-opacity:1"/>
<path class="bond-2 atom-2 atom-3" d="M 275.4,105.7 L 270.2,103.2" style="fill:none;fill-rule:evenodd;stroke:#000000;stroke-width:2.0px;stroke-linecap:butt;stroke-linejoin:miter;stroke-opacity:1"/>
<path class="bond-2 atom-2 atom-3" d="M 270.2,103.2 L 265.1,100.7" style="fill:none;fill-rule:evenodd;stroke:#FF0000;stroke-width:2.0px;stroke-linecap:butt;stroke-linejoin:miter;stroke-opacity:1"/>
<path class="bond-3 atom-2 atom-4" d="M 275.4,105.7 L 286.6,114.4" style="fill:none;fill-rule:evenodd;stroke:#000000;stroke-width:2.0px;stroke-linecap:butt;stroke-linejoin:miter;stroke-opacity:1"/>
<path class="bond-4 atom-4 atom-5" d="M 286.6,114.4 L 291.3,111.3" style="fill:none;fill-rule:evenodd;stroke:#000000;stroke-width:2.0px;stroke-linecap:butt;stroke-linejoin:miter;stroke-opacity:1"/>
<path class="bond-4 atom-4 atom-5" d="M 291.3,111.3 L 295.9,108.1" style="fill:none;fill-rule:evenodd;stroke:#FF0000;stroke-width:2.0px;stroke-linecap:butt;stroke-linejoin:miter;stroke-opacity:1"/>
<path class="bond-5 atom-5 atom-6" d="M 297.6,103.9 L 296.0,98.4" style="fill:none;fill-rule:evenodd;stroke:#FF0000;stroke-width:2.0px;stroke-linecap:butt;stroke-linejoin:miter;stroke-opacity:1"/>
<path class="bond-5 atom-5 atom-6" d="M 296.0,98.4 L 294.4,92.9" style="fill:none;fill-rule:evenodd;stroke:#000000;stroke-width:2.0px;stroke-linecap:butt;stroke-linejoin:miter;stroke-opacity:1"/>
<path class="bond-6 atom-6 atom-7" d="M 294.4,92.9 L 297.7,88.6" style="fill:none;fill-rule:evenodd;stroke:#000000;stroke-width:2.0px;stroke-linecap:butt;stroke-linejoin:miter;stroke-opacity:1"/>
<path class="bond-6 atom-6 atom-7" d="M 297.7,88.6 L 301.0,84.4" style="fill:none;fill-rule:evenodd;stroke:#FF0000;stroke-width:2.0px;stroke-linecap:butt;stroke-linejoin:miter;stroke-opacity:1"/>
<path class="bond-7 atom-7 atom-8" d="M 305.5,82.0 L 311.3,82.8" style="fill:none;fill-rule:evenodd;stroke:#FF0000;stroke-width:2.0px;stroke-linecap:butt;stroke-linejoin:miter;stroke-opacity:1"/>
<path class="bond-7 atom-7 atom-8" d="M 311.3,82.8 L 317.1,83.6" style="fill:none;fill-rule:evenodd;stroke:#000000;stroke-width:2.0px;stroke-linecap:butt;stroke-linejoin:miter;stroke-opacity:1"/>
<path class="bond-8 atom-8 atom-9" d="M 317.1,83.6 L 325.8,72.4" style="fill:none;fill-rule:evenodd;stroke:#000000;stroke-width:2.0px;stroke-linecap:butt;stroke-linejoin:miter;stroke-opacity:1"/>
<path class="bond-9 atom-9 atom-10" d="M 325.8,72.4 L 323.7,67.2" style="fill:none;fill-rule:evenodd;stroke:#000000;stroke-width:2.0px;stroke-linecap:butt;stroke-linejoin:miter;stroke-opacity:1"/>
<path class="bond-9 atom-9 atom-10" d="M 323.7,67.2 L 321.5,62.0" style="fill:none;fill-rule:evenodd;stroke:#FF0000;stroke-width:2.0px;stroke-linecap:butt;stroke-linejoin:miter;stroke-opacity:1"/>
<path class="bond-10 atom-9 atom-11" d="M 325.8,72.4 L 339.8,74.3" style="fill:none;fill-rule:evenodd;stroke:#000000;stroke-width:2.0px;stroke-linecap:butt;stroke-linejoin:miter;stroke-opacity:1"/>
<path class="bond-11 atom-11 atom-12" d="M 339.8,74.3 L 343.1,70.1" style="fill:none;fill-rule:evenodd;stroke:#000000;stroke-width:2.0px;stroke-linecap:butt;stroke-linejoin:miter;stroke-opacity:1"/>
<path class="bond-11 atom-11 atom-12" d="M 343.1,70.1 L 346.4,65.8" style="fill:none;fill-rule:evenodd;stroke:#FF0000;stroke-width:2.0px;stroke-linecap:butt;stroke-linejoin:miter;stroke-opacity:1"/>
<path class="bond-12 atom-11 atom-13" d="M 339.8,74.3 L 345.2,87.5" style="fill:none;fill-rule:evenodd;stroke:#000000;stroke-width:2.0px;stroke-linecap:butt;stroke-linejoin:miter;stroke-opacity:1"/>
<path class="bond-13 atom-13 atom-14" d="M 345.2,87.5 L 351.2,88.3" style="fill:none;fill-rule:evenodd;stroke:#000000;stroke-width:2.0px;stroke-linecap:butt;stroke-linejoin:miter;stroke-opacity:1"/>
<path class="bond-13 atom-13 atom-14" d="M 351.2,88.3 L 357.1,89.1" style="fill:none;fill-rule:evenodd;stroke:#0000FF;stroke-width:2.0px;stroke-linecap:butt;stroke-linejoin:miter;stroke-opacity:1"/>
<path class="bond-14 atom-14 atom-15" d="M 361.2,86.8 L 364.6,82.5" style="fill:none;fill-rule:evenodd;stroke:#0000FF;stroke-width:2.0px;stroke-linecap:butt;stroke-linejoin:miter;stroke-opacity:1"/>
<path class="bond-14 atom-14 atom-15" d="M 364.6,82.5 L 367.9,78.2" style="fill:none;fill-rule:evenodd;stroke:#000000;stroke-width:2.0px;stroke-linecap:butt;stroke-linejoin:miter;stroke-opacity:1"/>
<path class="bond-15 atom-15 atom-16" d="M 369.1,78.4 L 366.9,72.8" style="fill:none;fill-rule:evenodd;stroke:#000000;stroke-width:2.0px;stroke-linecap:butt;stroke-linejoin:miter;stroke-opacity:1"/>
<path class="bond-15 atom-15 atom-16" d="M 366.9,72.8 L 364.6,67.3" style="fill:none;fill-rule:evenodd;stroke:#0000FF;stroke-width:2.0px;stroke-linecap:butt;stroke-linejoin:miter;stroke-opacity:1"/>
<path class="bond-15 atom-15 atom-16" d="M 367.2,79.2 L 364.9,73.6" style="fill:none;fill-rule:evenodd;stroke:#000000;stroke-width:2.0px;stroke-linecap:butt;stroke-linejoin:miter;stroke-opacity:1"/>
<path class="bond-15 atom-15 atom-16" d="M 364.9,73.6 L 362.6,68.1" style="fill:none;fill-rule:evenodd;stroke:#0000FF;stroke-width:2.0px;stroke-linecap:butt;stroke-linejoin:miter;stroke-opacity:1"/>
<path class="bond-16 atom-15 atom-17" d="M 367.9,78.2 L 373.9,79.0" style="fill:none;fill-rule:evenodd;stroke:#000000;stroke-width:2.0px;stroke-linecap:butt;stroke-linejoin:miter;stroke-opacity:1"/>
<path class="bond-16 atom-15 atom-17" d="M 373.9,79.0 L 379.9,79.9" style="fill:none;fill-rule:evenodd;stroke:#0000FF;stroke-width:2.0px;stroke-linecap:butt;stroke-linejoin:miter;stroke-opacity:1"/>
<path class="bond-17 atom-13 atom-18" d="M 345.2,87.5 L 336.5,98.7" style="fill:none;fill-rule:evenodd;stroke:#000000;stroke-width:2.0px;stroke-linecap:butt;stroke-linejoin:miter;stroke-opacity:1"/>
<path class="bond-18 atom-18 atom-19" d="M 336.5,98.7 L 338.6,103.9" style="fill:none;fill-rule:evenodd;stroke:#000000;stroke-width:2.0px;stroke-linecap:butt;stroke-linejoin:miter;stroke-opacity:1"/>
<path class="bond-18 atom-18 atom-19" d="M 338.6,103.9 L 340.8,109.2" style="fill:none;fill-rule:evenodd;stroke:#FF0000;stroke-width:2.0px;stroke-linecap:butt;stroke-linejoin:miter;stroke-opacity:1"/>
<path class="bond-19 atom-18 atom-20" d="M 336.5,98.7 L 322.5,96.7" style="fill:none;fill-rule:evenodd;stroke:#000000;stroke-width:2.0px;stroke-linecap:butt;stroke-linejoin:miter;stroke-opacity:1"/>
<path class="bond-20 atom-20 atom-21" d="M 322.5,96.7 L 319.1,101.0" style="fill:none;fill-rule:evenodd;stroke:#000000;stroke-width:2.0px;stroke-linecap:butt;stroke-linejoin:miter;stroke-opacity:1"/>
<path class="bond-20 atom-20 atom-21" d="M 319.1,101.0 L 315.8,105.3" style="fill:none;fill-rule:evenodd;stroke:#0000FF;stroke-width:2.0px;stroke-linecap:butt;stroke-linejoin:miter;stroke-opacity:1"/>
<path class="bond-21 atom-21 atom-22" d="M 314.8,110.5 L 317.0,115.8" style="fill:none;fill-rule:evenodd;stroke:#0000FF;stroke-width:2.0px;stroke-linecap:butt;stroke-linejoin:miter;stroke-opacity:1"/>
<path class="bond-21 atom-21 atom-22" d="M 317.0,115.8 L 319.1,121.0" style="fill:none;fill-rule:evenodd;stroke:#000000;stroke-width:2.0px;stroke-linecap:butt;stroke-linejoin:miter;stroke-opacity:1"/>
<path class="bond-22 atom-22 atom-23" d="M 318.4,122.0 L 324.6,122.9" style="fill:none;fill-rule:evenodd;stroke:#000000;stroke-width:2.0px;stroke-linecap:butt;stroke-linejoin:miter;stroke-opacity:1"/>
<path class="bond-22 atom-22 atom-23" d="M 324.6,122.9 L 330.9,123.7" style="fill:none;fill-rule:evenodd;stroke:#0000FF;stroke-width:2.0px;stroke-linecap:butt;stroke-linejoin:miter;stroke-opacity:1"/>
<path class="bond-22 atom-22 atom-23" d="M 318.6,119.9 L 324.9,120.8" style="fill:none;fill-rule:evenodd;stroke:#000000;stroke-width:2.0px;stroke-linecap:butt;stroke-linejoin:miter;stroke-opacity:1"/>
<path class="bond-22 atom-22 atom-23" d="M 324.9,120.8 L 331.2,121.6" style="fill:none;fill-rule:evenodd;stroke:#0000FF;stroke-width:2.0px;stroke-linecap:butt;stroke-linejoin:miter;stroke-opacity:1"/>
<path class="bond-23 atom-22 atom-24" d="M 319.1,121.0 L 315.8,125.3" style="fill:none;fill-rule:evenodd;stroke:#000000;stroke-width:2.0px;stroke-linecap:butt;stroke-linejoin:miter;stroke-opacity:1"/>
<path class="bond-23 atom-22 atom-24" d="M 315.8,125.3 L 312.4,129.6" style="fill:none;fill-rule:evenodd;stroke:#0000FF;stroke-width:2.0px;stroke-linecap:butt;stroke-linejoin:miter;stroke-opacity:1"/>
<path class="bond-24 atom-6 atom-25" d="M 294.4,92.9 L 280.2,92.4" style="fill:none;fill-rule:evenodd;stroke:#000000;stroke-width:2.0px;stroke-linecap:butt;stroke-linejoin:miter;stroke-opacity:1"/>
<path class="bond-25 atom-25 atom-26" d="M 280.2,92.4 L 277.2,87.9" style="fill:none;fill-rule:evenodd;stroke:#000000;stroke-width:2.0px;stroke-linecap:butt;stroke-linejoin:miter;stroke-opacity:1"/>
<path class="bond-25 atom-25 atom-26" d="M 277.2,87.9 L 274.1,83.4" style="fill:none;fill-rule:evenodd;stroke:#FF0000;stroke-width:2.0px;stroke-linecap:butt;stroke-linejoin:miter;stroke-opacity:1"/>
<path class="bond-26 atom-26 atom-27" d="M 269.8,80.9 L 264.0,81.3" style="fill:none;fill-rule:evenodd;stroke:#FF0000;stroke-width:2.0px;stroke-linecap:butt;stroke-linejoin:miter;stroke-opacity:1"/>
<path class="bond-26 atom-26 atom-27" d="M 264.0,81.3 L 258.1,81.7" style="fill:none;fill-rule:evenodd;stroke:#000000;stroke-width:2.0px;stroke-linecap:butt;stroke-linejoin:miter;stroke-opacity:1"/>
<path class="bond-27 atom-27 atom-28" d="M 258.1,81.7 L 255.7,86.8" style="fill:none;fill-rule:evenodd;stroke:#000000;stroke-width:2.0px;stroke-linecap:butt;stroke-linejoin:miter;stroke-opacity:1"/>
<path class="bond-27 atom-27 atom-28" d="M 255.7,86.8 L 253.2,91.9" style="fill:none;fill-rule:evenodd;stroke:#FF0000;stroke-width:2.0px;stroke-linecap:butt;stroke-linejoin:miter;stroke-opacity:1"/>
<path class="bond-28 atom-28 atom-29" d="M 249.5,94.6 L 243.7,95.1" style="fill:none;fill-rule:evenodd;stroke:#FF0000;stroke-width:2.0px;stroke-linecap:butt;stroke-linejoin:miter;stroke-opacity:1"/>
<path class="bond-28 atom-28 atom-29" d="M 243.7,95.1 L 237.8,95.5" style="fill:none;fill-rule:evenodd;stroke:#000000;stroke-width:2.0px;stroke-linecap:butt;stroke-linejoin:miter;stroke-opacity:1"/>
<path class="bond-29 atom-29 atom-30" d="M 237.8,95.5 L 231.7,108.3" style="fill:none;fill-rule:evenodd;stroke:#000000;stroke-width:2.0px;stroke-linecap:butt;stroke-linejoin:miter;stroke-opacity:1"/>
<path class="bond-30 atom-30 atom-31" d="M 231.7,108.3 L 225.8,108.7" style="fill:none;fill-rule:evenodd;stroke:#000000;stroke-width:2.0px;stroke-linecap:butt;stroke-linejoin:miter;stroke-opacity:1"/>
<path class="bond-30 atom-30 atom-31" d="M 225.8,108.7 L 219.9,109.1" style="fill:none;fill-rule:evenodd;stroke:#FF0000;stroke-width:2.0px;stroke-linecap:butt;stroke-linejoin:miter;stroke-opacity:1"/>
<path class="bond-31 atom-29 atom-32" d="M 237.8,95.5 L 229.9,83.8" style="fill:none;fill-rule:evenodd;stroke:#000000;stroke-width:2.0px;stroke-linecap:butt;stroke-linejoin:miter;stroke-opacity:1"/>
<path class="bond-32 atom-32 atom-33" d="M 229.9,83.8 L 224.0,84.2" style="fill:none;fill-rule:evenodd;stroke:#000000;stroke-width:2.0px;stroke-linecap:butt;stroke-linejoin:miter;stroke-opacity:1"/>
<path class="bond-32 atom-32 atom-33" d="M 224.0,84.2 L 218.2,84.6" style="fill:none;fill-rule:evenodd;stroke:#FF0000;stroke-width:2.0px;stroke-linecap:butt;stroke-linejoin:miter;stroke-opacity:1"/>
<path class="bond-33 atom-32 atom-34" d="M 229.9,83.8 L 236.0,71.0" style="fill:none;fill-rule:evenodd;stroke:#000000;stroke-width:2.0px;stroke-linecap:butt;stroke-linejoin:miter;stroke-opacity:1"/>
<path class="bond-34 atom-34 atom-35" d="M 236.0,71.0 L 233.0,66.5" style="fill:none;fill-rule:evenodd;stroke:#000000;stroke-width:2.0px;stroke-linecap:butt;stroke-linejoin:miter;stroke-opacity:1"/>
<path class="bond-34 atom-34 atom-35" d="M 233.0,66.5 L 229.9,62.0" style="fill:none;fill-rule:evenodd;stroke:#FF0000;stroke-width:2.0px;stroke-linecap:butt;stroke-linejoin:miter;stroke-opacity:1"/>
<path class="bond-35 atom-34 atom-36" d="M 236.0,71.0 L 250.2,70.0" style="fill:none;fill-rule:evenodd;stroke:#000000;stroke-width:2.0px;stroke-linecap:butt;stroke-linejoin:miter;stroke-opacity:1"/>
<path class="bond-36 atom-36 atom-37" d="M 250.2,70.0 L 252.6,64.9" style="fill:none;fill-rule:evenodd;stroke:#000000;stroke-width:2.0px;stroke-linecap:butt;stroke-linejoin:miter;stroke-opacity:1"/>
<path class="bond-36 atom-36 atom-37" d="M 252.6,64.9 L 255.1,59.8" style="fill:none;fill-rule:evenodd;stroke:#0000FF;stroke-width:2.0px;stroke-linecap:butt;stroke-linejoin:miter;stroke-opacity:1"/>
<path class="bond-37 atom-37 atom-38" d="M 254.6,54.7 L 251.5,50.1" style="fill:none;fill-rule:evenodd;stroke:#0000FF;stroke-width:2.0px;stroke-linecap:butt;stroke-linejoin:miter;stroke-opacity:1"/>
<path class="bond-37 atom-37 atom-38" d="M 251.5,50.1 L 248.4,45.5" style="fill:none;fill-rule:evenodd;stroke:#000000;stroke-width:2.0px;stroke-linecap:butt;stroke-linejoin:miter;stroke-opacity:1"/>
<path class="bond-38 atom-4 atom-39" d="M 286.6,114.4 L 286.2,128.6" style="fill:none;fill-rule:evenodd;stroke:#000000;stroke-width:2.0px;stroke-linecap:butt;stroke-linejoin:miter;stroke-opacity:1"/>
<path class="bond-39 atom-25 atom-2" d="M 280.2,92.4 L 275.4,105.7" style="fill:none;fill-rule:evenodd;stroke:#000000;stroke-width:2.0px;stroke-linecap:butt;stroke-linejoin:miter;stroke-opacity:1"/>
<path class="bond-40 atom-20 atom-8" d="M 322.5,96.7 L 317.1,83.6" style="fill:none;fill-rule:evenodd;stroke:#000000;stroke-width:2.0px;stroke-linecap:butt;stroke-linejoin:miter;stroke-opacity:1"/>
<path class="bond-41 atom-36 atom-27" d="M 250.2,70.0 L 258.1,81.7" style="fill:none;fill-rule:evenodd;stroke:#000000;stroke-width:2.0px;stroke-linecap:butt;stroke-linejoin:miter;stroke-opacity:1"/>
<path d="M 267.6,117.8 L 267.9,117.8 L 268.3,117.2" style="fill:none;stroke:#000000;stroke-width:2.0px;stroke-linecap:butt;stroke-linejoin:miter;stroke-opacity:1;"/>
<path d="M 367.7,78.4 L 367.9,78.2 L 368.2,78.2" style="fill:none;stroke:#000000;stroke-width:2.0px;stroke-linecap:butt;stroke-linejoin:miter;stroke-opacity:1;"/>
<path d="M 319.0,120.8 L 319.1,121.0 L 318.9,121.3" style="fill:none;stroke:#000000;stroke-width:2.0px;stroke-linecap:butt;stroke-linejoin:miter;stroke-opacity:1;"/>
<path d="M 232.0,107.6 L 231.7,108.3 L 231.4,108.3" style="fill:none;stroke:#000000;stroke-width:2.0px;stroke-linecap:butt;stroke-linejoin:miter;stroke-opacity:1;"/>
<path class="atom-0" d="M 251.9 116.3 Q 251.9 115.3, 252.4 114.7 Q 252.9 114.1, 253.8 114.1 Q 254.8 114.1, 255.3 114.7 Q 255.8 115.3, 255.8 116.3 Q 255.8 117.3, 255.3 117.9 Q 254.7 118.5, 253.8 118.5 Q 252.9 118.5, 252.4 117.9 Q 251.9 117.3, 251.9 116.3 M 253.8 118.0 Q 254.5 118.0, 254.8 117.6 Q 255.2 117.1, 255.2 116.3 Q 255.2 115.4, 254.8 115.0 Q 254.5 114.6, 253.8 114.6 Q 253.2 114.6, 252.8 115.0 Q 252.5 115.4, 252.5 116.3 Q 252.5 117.1, 252.8 117.6 Q 253.2 118.0, 253.8 118.0 " fill="#FF0000"/>
<path class="atom-3" d="M 256.5 97.5 L 257.1 97.5 L 257.1 99.3 L 259.3 99.3 L 259.3 97.5 L 259.8 97.5 L 259.8 101.7 L 259.3 101.7 L 259.3 99.8 L 257.1 99.8 L 257.1 101.7 L 256.5 101.7 L 256.5 97.5 " fill="#FF0000"/>
<path class="atom-3" d="M 260.7 99.6 Q 260.7 98.6, 261.2 98.0 Q 261.7 97.4, 262.7 97.4 Q 263.6 97.4, 264.1 98.0 Q 264.6 98.6, 264.6 99.6 Q 264.6 100.6, 264.1 101.2 Q 263.6 101.8, 262.7 101.8 Q 261.7 101.8, 261.2 101.2 Q 260.7 100.6, 260.7 99.6 M 262.7 101.3 Q 263.3 101.3, 263.7 100.9 Q 264.0 100.4, 264.0 99.6 Q 264.0 98.7, 263.7 98.3 Q 263.3 97.9, 262.7 97.9 Q 262.0 97.9, 261.7 98.3 Q 261.3 98.7, 261.3 99.6 Q 261.3 100.4, 261.7 100.9 Q 262.0 101.3, 262.7 101.3 " fill="#FF0000"/>
<path class="atom-5" d="M 296.4 106.5 Q 296.4 105.5, 296.9 104.9 Q 297.4 104.3, 298.3 104.3 Q 299.3 104.3, 299.8 104.9 Q 300.3 105.5, 300.3 106.5 Q 300.3 107.5, 299.8 108.1 Q 299.3 108.7, 298.3 108.7 Q 297.4 108.7, 296.9 108.1 Q 296.4 107.5, 296.4 106.5 M 298.3 108.2 Q 299.0 108.2, 299.3 107.8 Q 299.7 107.3, 299.7 106.5 Q 299.7 105.7, 299.3 105.2 Q 299.0 104.8, 298.3 104.8 Q 297.7 104.8, 297.3 105.2 Q 297.0 105.6, 297.0 106.5 Q 297.0 107.3, 297.3 107.8 Q 297.7 108.2, 298.3 108.2 " fill="#FF0000"/>
<path class="atom-7" d="M 301.1 81.7 Q 301.1 80.7, 301.6 80.1 Q 302.1 79.5, 303.1 79.5 Q 304.0 79.5, 304.5 80.1 Q 305.0 80.7, 305.0 81.7 Q 305.0 82.7, 304.5 83.3 Q 304.0 83.9, 303.1 83.9 Q 302.1 83.9, 301.6 83.3 Q 301.1 82.7, 301.1 81.7 M 303.1 83.4 Q 303.7 83.4, 304.1 83.0 Q 304.4 82.5, 304.4 81.7 Q 304.4 80.9, 304.1 80.4 Q 303.7 80.0, 303.1 80.0 Q 302.4 80.0, 302.1 80.4 Q 301.7 80.8, 301.7 81.7 Q 301.7 82.5, 302.1 83.0 Q 302.4 83.4, 303.1 83.4 " fill="#FF0000"/>
<path class="atom-10" d="M 314.3 57.2 L 314.9 57.2 L 314.9 59.0 L 317.1 59.0 L 317.1 57.2 L 317.6 57.2 L 317.6 61.4 L 317.1 61.4 L 317.1 59.5 L 314.9 59.5 L 314.9 61.4 L 314.3 61.4 L 314.3 57.2 " fill="#FF0000"/>
<path class="atom-10" d="M 318.5 59.3 Q 318.5 58.3, 319.0 57.7 Q 319.5 57.1, 320.5 57.1 Q 321.4 57.1, 321.9 57.7 Q 322.4 58.3, 322.4 59.3 Q 322.4 60.3, 321.9 60.9 Q 321.4 61.5, 320.5 61.5 Q 319.5 61.5, 319.0 60.9 Q 318.5 60.3, 318.5 59.3 M 320.5 61.0 Q 321.1 61.0, 321.4 60.6 Q 321.8 60.2, 321.8 59.3 Q 321.8 58.5, 321.4 58.1 Q 321.1 57.6, 320.5 57.6 Q 319.8 57.6, 319.5 58.0 Q 319.1 58.5, 319.1 59.3 Q 319.1 60.2, 319.5 60.6 Q 319.8 61.0, 320.5 61.0 " fill="#FF0000"/>
<path class="atom-12" d="M 346.6 63.2 Q 346.6 62.1, 347.1 61.6 Q 347.6 61.0, 348.5 61.0 Q 349.5 61.0, 350.0 61.6 Q 350.5 62.1, 350.5 63.2 Q 350.5 64.2, 350.0 64.8 Q 349.5 65.4, 348.5 65.4 Q 347.6 65.4, 347.1 64.8 Q 346.6 64.2, 346.6 63.2 M 348.5 64.9 Q 349.2 64.9, 349.5 64.5 Q 349.9 64.0, 349.9 63.2 Q 349.9 62.3, 349.5 61.9 Q 349.2 61.5, 348.5 61.5 Q 347.9 61.5, 347.5 61.9 Q 347.2 62.3, 347.2 63.2 Q 347.2 64.0, 347.5 64.5 Q 347.9 64.9, 348.5 64.9 " fill="#FF0000"/>
<path class="atom-12" d="M 351.1 61.1 L 351.7 61.1 L 351.7 62.9 L 353.9 62.9 L 353.9 61.1 L 354.5 61.1 L 354.5 65.3 L 353.9 65.3 L 353.9 63.3 L 351.7 63.3 L 351.7 65.3 L 351.1 65.3 L 351.1 61.1 " fill="#FF0000"/>
<path class="atom-14" d="M 358.3 87.3 L 359.7 89.5 Q 359.8 89.7, 360.0 90.1 Q 360.3 90.6, 360.3 90.6 L 360.3 87.3 L 360.8 87.3 L 360.8 91.5 L 360.2 91.5 L 358.8 89.1 Q 358.6 88.8, 358.4 88.4 Q 358.2 88.1, 358.2 88.0 L 358.2 91.5 L 357.6 91.5 L 357.6 87.3 L 358.3 87.3 " fill="#0000FF"/>
<path class="atom-14" d="M 361.7 87.3 L 362.2 87.3 L 362.2 89.1 L 364.4 89.1 L 364.4 87.3 L 365.0 87.3 L 365.0 91.5 L 364.4 91.5 L 364.4 89.6 L 362.2 89.6 L 362.2 91.5 L 361.7 91.5 L 361.7 87.3 " fill="#0000FF"/>
<path class="atom-16" d="M 356.8 63.0 L 357.4 63.0 L 357.4 64.8 L 359.5 64.8 L 359.5 63.0 L 360.1 63.0 L 360.1 67.2 L 359.5 67.2 L 359.5 65.2 L 357.4 65.2 L 357.4 67.2 L 356.8 67.2 L 356.8 63.0 " fill="#0000FF"/>
<path class="atom-16" d="M 361.6 63.0 L 363.0 65.2 Q 363.2 65.4, 363.4 65.8 Q 363.6 66.2, 363.6 66.3 L 363.6 63.0 L 364.2 63.0 L 364.2 67.2 L 363.6 67.2 L 362.1 64.8 Q 361.9 64.5, 361.7 64.1 Q 361.6 63.8, 361.5 63.7 L 361.5 67.2 L 361.0 67.2 L 361.0 63.0 L 361.6 63.0 " fill="#0000FF"/>
<path class="atom-17" d="M 381.0 78.0 L 382.4 80.3 Q 382.5 80.5, 382.8 80.9 Q 383.0 81.3, 383.0 81.3 L 383.0 78.0 L 383.6 78.0 L 383.6 82.3 L 383.0 82.3 L 381.5 79.8 Q 381.3 79.5, 381.1 79.2 Q 380.9 78.9, 380.9 78.8 L 380.9 82.3 L 380.3 82.3 L 380.3 78.0 L 381.0 78.0 " fill="#0000FF"/>
<path class="atom-17" d="M 384.4 78.0 L 384.9 78.0 L 384.9 79.8 L 387.1 79.8 L 387.1 78.0 L 387.7 78.0 L 387.7 82.3 L 387.1 82.3 L 387.1 80.3 L 384.9 80.3 L 384.9 82.3 L 384.4 82.3 L 384.4 78.0 " fill="#0000FF"/>
<path class="atom-17" d="M 388.5 82.1 Q 388.6 81.8, 388.9 81.7 Q 389.1 81.6, 389.5 81.6 Q 389.9 81.6, 390.1 81.8 Q 390.4 82.0, 390.4 82.4 Q 390.4 82.8, 390.0 83.2 Q 389.7 83.6, 389.1 84.1 L 390.4 84.1 L 390.4 84.4 L 388.5 84.4 L 388.5 84.1 Q 389.0 83.7, 389.3 83.5 Q 389.7 83.2, 389.8 82.9 Q 390.0 82.7, 390.0 82.4 Q 390.0 82.2, 389.8 82.0 Q 389.7 81.9, 389.5 81.9 Q 389.2 81.9, 389.1 82.0 Q 388.9 82.1, 388.8 82.3 L 388.5 82.1 " fill="#0000FF"/>
<path class="atom-19" d="M 339.9 111.8 Q 339.9 110.8, 340.4 110.2 Q 340.9 109.6, 341.8 109.6 Q 342.8 109.6, 343.3 110.2 Q 343.8 110.8, 343.8 111.8 Q 343.8 112.8, 343.3 113.4 Q 342.8 114.0, 341.8 114.0 Q 340.9 114.0, 340.4 113.4 Q 339.9 112.8, 339.9 111.8 M 341.8 113.5 Q 342.5 113.5, 342.8 113.1 Q 343.2 112.6, 343.2 111.8 Q 343.2 111.0, 342.8 110.5 Q 342.5 110.1, 341.8 110.1 Q 341.2 110.1, 340.8 110.5 Q 340.5 111.0, 340.5 111.8 Q 340.5 112.6, 340.8 113.1 Q 341.2 113.5, 341.8 113.5 " fill="#FF0000"/>
<path class="atom-19" d="M 344.4 109.7 L 345.0 109.7 L 345.0 111.5 L 347.2 111.5 L 347.2 109.7 L 347.8 109.7 L 347.8 113.9 L 347.2 113.9 L 347.2 112.0 L 345.0 112.0 L 345.0 113.9 L 344.4 113.9 L 344.4 109.7 " fill="#FF0000"/>
<path class="atom-21" d="M 308.0 105.8 L 308.6 105.8 L 308.6 107.6 L 310.7 107.6 L 310.7 105.8 L 311.3 105.8 L 311.3 110.0 L 310.7 110.0 L 310.7 108.1 L 308.6 108.1 L 308.6 110.0 L 308.0 110.0 L 308.0 105.8 " fill="#0000FF"/>
<path class="atom-21" d="M 312.8 105.8 L 314.2 108.0 Q 314.4 108.3, 314.6 108.7 Q 314.8 109.1, 314.8 109.1 L 314.8 105.8 L 315.4 105.8 L 315.4 110.0 L 314.8 110.0 L 313.3 107.6 Q 313.1 107.3, 312.9 107.0 Q 312.8 106.6, 312.7 106.5 L 312.7 110.0 L 312.2 110.0 L 312.2 105.8 L 312.8 105.8 " fill="#0000FF"/>
<path class="atom-23" d="M 332.2 120.8 L 333.6 123.1 Q 333.7 123.3, 334.0 123.7 Q 334.2 124.1, 334.2 124.1 L 334.2 120.8 L 334.8 120.8 L 334.8 125.1 L 334.2 125.1 L 332.7 122.6 Q 332.5 122.3, 332.3 122.0 Q 332.1 121.7, 332.1 121.6 L 332.1 125.1 L 331.5 125.1 L 331.5 120.8 L 332.2 120.8 " fill="#0000FF"/>
<path class="atom-23" d="M 335.6 120.8 L 336.2 120.8 L 336.2 122.7 L 338.3 122.7 L 338.3 120.8 L 338.9 120.8 L 338.9 125.1 L 338.3 125.1 L 338.3 123.1 L 336.2 123.1 L 336.2 125.1 L 335.6 125.1 L 335.6 120.8 " fill="#0000FF"/>
<path class="atom-24" d="M 302.2 130.1 L 302.8 130.1 L 302.8 131.9 L 305.0 131.9 L 305.0 130.1 L 305.5 130.1 L 305.5 134.4 L 305.0 134.4 L 305.0 132.4 L 302.8 132.4 L 302.8 134.4 L 302.2 134.4 L 302.2 130.1 " fill="#0000FF"/>
<path class="atom-24" d="M 306.4 134.2 Q 306.5 133.9, 306.7 133.8 Q 307.0 133.6, 307.3 133.6 Q 307.7 133.6, 308.0 133.9 Q 308.2 134.1, 308.2 134.5 Q 308.2 134.9, 307.9 135.3 Q 307.6 135.7, 307.0 136.2 L 308.3 136.2 L 308.3 136.5 L 306.4 136.5 L 306.4 136.2 Q 306.9 135.8, 307.2 135.6 Q 307.5 135.3, 307.7 135.0 Q 307.8 134.8, 307.8 134.5 Q 307.8 134.3, 307.7 134.1 Q 307.5 134.0, 307.3 134.0 Q 307.1 134.0, 306.9 134.1 Q 306.8 134.1, 306.7 134.3 L 306.4 134.2 " fill="#0000FF"/>
<path class="atom-24" d="M 309.5 130.1 L 310.9 132.4 Q 311.0 132.6, 311.2 133.0 Q 311.5 133.4, 311.5 133.4 L 311.5 130.1 L 312.0 130.1 L 312.0 134.4 L 311.5 134.4 L 310.0 131.9 Q 309.8 131.6, 309.6 131.3 Q 309.4 130.9, 309.4 130.8 L 309.4 134.4 L 308.8 134.4 L 308.8 130.1 L 309.5 130.1 " fill="#0000FF"/>
<path class="atom-26" d="M 270.3 80.7 Q 270.3 79.7, 270.8 79.1 Q 271.3 78.5, 272.3 78.5 Q 273.2 78.5, 273.7 79.1 Q 274.2 79.7, 274.2 80.7 Q 274.2 81.7, 273.7 82.3 Q 273.2 82.9, 272.3 82.9 Q 271.3 82.9, 270.8 82.3 Q 270.3 81.7, 270.3 80.7 M 272.3 82.4 Q 272.9 82.4, 273.3 82.0 Q 273.6 81.6, 273.6 80.7 Q 273.6 79.9, 273.3 79.4 Q 272.9 79.0, 272.3 79.0 Q 271.6 79.0, 271.3 79.4 Q 270.9 79.9, 270.9 80.7 Q 270.9 81.6, 271.3 82.0 Q 271.6 82.4, 272.3 82.4 " fill="#FF0000"/>
<path class="atom-28" d="M 250.0 94.5 Q 250.0 93.5, 250.5 92.9 Q 251.0 92.3, 252.0 92.3 Q 252.9 92.3, 253.4 92.9 Q 253.9 93.5, 253.9 94.5 Q 253.9 95.5, 253.4 96.1 Q 252.9 96.7, 252.0 96.7 Q 251.0 96.7, 250.5 96.1 Q 250.0 95.5, 250.0 94.5 M 252.0 96.2 Q 252.6 96.2, 253.0 95.8 Q 253.3 95.3, 253.3 94.5 Q 253.3 93.7, 253.0 93.2 Q 252.6 92.8, 252.0 92.8 Q 251.3 92.8, 251.0 93.2 Q 250.6 93.6, 250.6 94.5 Q 250.6 95.3, 251.0 95.8 Q 251.3 96.2, 252.0 96.2 " fill="#FF0000"/>
<path class="atom-31" d="M 211.4 107.2 L 212.0 107.2 L 212.0 109.0 L 214.1 109.0 L 214.1 107.2 L 214.7 107.2 L 214.7 111.4 L 214.1 111.4 L 214.1 109.5 L 212.0 109.5 L 212.0 111.4 L 211.4 111.4 L 211.4 107.2 " fill="#FF0000"/>
<path class="atom-31" d="M 215.6 109.3 Q 215.6 108.3, 216.1 107.7 Q 216.6 107.1, 217.5 107.1 Q 218.5 107.1, 219.0 107.7 Q 219.5 108.3, 219.5 109.3 Q 219.5 110.3, 219.0 110.9 Q 218.5 111.5, 217.5 111.5 Q 216.6 111.5, 216.1 110.9 Q 215.6 110.3, 215.6 109.3 M 217.5 111.0 Q 218.2 111.0, 218.5 110.6 Q 218.9 110.1, 218.9 109.3 Q 218.9 108.5, 218.5 108.0 Q 218.2 107.6, 217.5 107.6 Q 216.9 107.6, 216.5 108.0 Q 216.2 108.5, 216.2 109.3 Q 216.2 110.2, 216.5 110.6 Q 216.9 111.0, 217.5 111.0 " fill="#FF0000"/>
<path class="atom-33" d="M 209.6 82.7 L 210.2 82.7 L 210.2 84.5 L 212.3 84.5 L 212.3 82.7 L 212.9 82.7 L 212.9 87.0 L 212.3 87.0 L 212.3 85.0 L 210.2 85.0 L 210.2 87.0 L 209.6 87.0 L 209.6 82.7 " fill="#FF0000"/>
<path class="atom-33" d="M 213.8 84.8 Q 213.8 83.8, 214.3 83.2 Q 214.8 82.7, 215.7 82.7 Q 216.7 82.7, 217.2 83.2 Q 217.7 83.8, 217.7 84.8 Q 217.7 85.9, 217.2 86.4 Q 216.7 87.0, 215.7 87.0 Q 214.8 87.0, 214.3 86.4 Q 213.8 85.9, 213.8 84.8 M 215.7 86.5 Q 216.4 86.5, 216.7 86.1 Q 217.1 85.7, 217.1 84.8 Q 217.1 84.0, 216.7 83.6 Q 216.4 83.1, 215.7 83.1 Q 215.1 83.1, 214.7 83.6 Q 214.4 84.0, 214.4 84.8 Q 214.4 85.7, 214.7 86.1 Q 215.1 86.5, 215.7 86.5 " fill="#FF0000"/>
<path class="atom-35" d="M 221.9 57.2 L 222.5 57.2 L 222.5 59.0 L 224.7 59.0 L 224.7 57.2 L 225.3 57.2 L 225.3 61.5 L 224.7 61.5 L 224.7 59.5 L 222.5 59.5 L 222.5 61.5 L 221.9 61.5 L 221.9 57.2 " fill="#FF0000"/>
<path class="atom-35" d="M 226.1 59.3 Q 226.1 58.3, 226.6 57.7 Q 227.1 57.2, 228.1 57.2 Q 229.0 57.2, 229.5 57.7 Q 230.0 58.3, 230.0 59.3 Q 230.0 60.3, 229.5 60.9 Q 229.0 61.5, 228.1 61.5 Q 227.2 61.5, 226.6 60.9 Q 226.1 60.4, 226.1 59.3 M 228.1 61.0 Q 228.7 61.0, 229.1 60.6 Q 229.4 60.2, 229.4 59.3 Q 229.4 58.5, 229.1 58.1 Q 228.7 57.6, 228.1 57.6 Q 227.4 57.6, 227.1 58.1 Q 226.7 58.5, 226.7 59.3 Q 226.7 60.2, 227.1 60.6 Q 227.4 61.0, 228.1 61.0 " fill="#FF0000"/>
<path class="atom-37" d="M 255.4 55.1 L 256.8 57.4 Q 256.9 57.6, 257.2 58.0 Q 257.4 58.4, 257.4 58.4 L 257.4 55.1 L 258.0 55.1 L 258.0 59.4 L 257.4 59.4 L 255.9 56.9 Q 255.7 56.6, 255.5 56.3 Q 255.3 56.0, 255.3 55.9 L 255.3 59.4 L 254.7 59.4 L 254.7 55.1 L 255.4 55.1 " fill="#0000FF"/>
<path class="atom-37" d="M 258.8 55.1 L 259.4 55.1 L 259.4 56.9 L 261.5 56.9 L 261.5 55.1 L 262.1 55.1 L 262.1 59.4 L 261.5 59.4 L 261.5 57.4 L 259.4 57.4 L 259.4 59.4 L 258.8 59.4 L 258.8 55.1 " fill="#0000FF"/>
<path class="legend" d="M 252.2 184.2 Q 252.2 181.4, 253.5 179.9 Q 254.9 178.4, 257.4 178.4 Q 259.7 178.4, 261.0 180.0 L 259.9 180.9 Q 259.0 179.7, 257.4 179.7 Q 255.7 179.7, 254.8 180.9 Q 253.9 182.0, 253.9 184.2 Q 253.9 186.4, 254.8 187.6 Q 255.7 188.7, 257.6 188.7 Q 258.8 188.7, 260.3 188.0 L 260.7 189.2 Q 260.1 189.6, 259.2 189.8 Q 258.3 190.0, 257.3 190.0 Q 254.9 190.0, 253.5 188.5 Q 252.2 187.0, 252.2 184.2 " fill="#000000"/>
<path class="legend" d="M 264.2 178.5 L 267.9 184.5 Q 268.3 185.1, 268.9 186.2 Q 269.5 187.3, 269.5 187.3 L 269.5 178.5 L 271.0 178.5 L 271.0 189.9 L 269.4 189.9 L 265.5 183.3 Q 265.0 182.5, 264.5 181.6 Q 264.0 180.8, 263.9 180.5 L 263.9 189.9 L 262.4 189.9 L 262.4 178.5 L 264.2 178.5 " fill="#000000"/>
<path class="legend" d="M 276.5 178.5 Q 278.4 178.5, 279.4 179.4 Q 280.4 180.3, 280.4 181.9 Q 280.4 183.4, 279.3 184.3 Q 278.4 185.2, 276.5 185.2 L 274.7 185.2 L 274.7 189.9 L 273.1 189.9 L 273.1 178.5 L 276.5 178.5 M 276.5 183.9 Q 277.6 183.9, 278.2 183.4 Q 278.8 182.9, 278.8 181.9 Q 278.8 180.8, 278.2 180.3 Q 277.6 179.8, 276.5 179.8 L 274.7 179.8 L 274.7 183.9 L 276.5 183.9 " fill="#000000"/>
<path class="legend" d="M 286.0 190.0 Q 284.0 190.0, 282.9 188.4 Q 281.9 186.9, 281.9 184.2 Q 281.9 181.4, 282.9 179.9 Q 284.0 178.4, 286.0 178.4 Q 288.1 178.4, 289.2 179.9 Q 290.2 181.4, 290.2 184.2 Q 290.2 186.9, 289.2 188.4 Q 288.1 190.0, 286.0 190.0 M 286.0 188.7 Q 287.3 188.7, 287.9 187.6 Q 288.6 186.4, 288.6 184.2 Q 288.6 182.0, 287.9 180.8 Q 287.3 179.7, 286.0 179.7 Q 284.8 179.7, 284.2 180.8 Q 283.5 182.0, 283.5 184.2 Q 283.5 186.4, 284.2 187.6 Q 284.8 188.7, 286.0 188.7 " fill="#000000"/>
<path class="legend" d="M 292.7 188.6 L 295.1 188.6 L 295.1 180.1 L 292.4 181.0 L 292.0 180.0 L 295.5 178.5 L 296.6 178.7 L 296.6 188.6 L 298.9 188.6 L 298.9 189.9 L 292.7 189.9 L 292.7 188.6 " fill="#000000"/>
<path class="legend" d="M 307.7 186.0 L 309.1 186.0 L 309.1 187.2 L 307.7 187.2 L 307.7 189.9 L 306.2 189.9 L 306.2 187.2 L 300.3 187.2 L 300.3 186.2 L 305.3 178.5 L 307.7 178.5 L 307.7 186.0 M 302.2 186.0 L 306.2 186.0 L 306.2 179.6 L 302.2 186.0 " fill="#000000"/>
<path class="legend" d="M 314.4 178.4 Q 316.5 178.4, 317.5 179.8 Q 318.5 181.1, 318.5 183.9 Q 318.5 186.9, 317.2 188.4 Q 316.0 190.0, 313.6 190.0 Q 312.9 190.0, 312.3 189.8 Q 311.7 189.7, 311.1 189.3 L 311.7 188.3 Q 312.5 188.7, 313.6 188.7 Q 315.2 188.7, 316.0 187.7 Q 316.8 186.6, 316.9 184.5 Q 316.3 185.0, 315.6 185.3 Q 314.8 185.6, 314.1 185.6 Q 313.1 185.6, 312.3 185.2 Q 311.5 184.7, 311.1 184.0 Q 310.6 183.2, 310.6 182.2 Q 310.6 181.1, 311.1 180.2 Q 311.6 179.4, 312.5 178.9 Q 313.3 178.4, 314.4 178.4 M 312.2 182.2 Q 312.2 183.2, 312.8 183.7 Q 313.4 184.3, 314.4 184.3 Q 315.0 184.3, 315.7 184.0 Q 316.4 183.8, 316.9 183.3 Q 316.8 181.4, 316.2 180.6 Q 315.6 179.7, 314.4 179.7 Q 313.8 179.7, 313.3 180.0 Q 312.8 180.4, 312.5 180.9 Q 312.2 181.5, 312.2 182.2 " fill="#000000"/>
<path class="legend" d="M 324.2 178.4 Q 326.2 178.4, 327.2 179.8 Q 328.2 181.1, 328.2 183.9 Q 328.2 186.9, 327.0 188.4 Q 325.7 190.0, 323.3 190.0 Q 322.6 190.0, 322.0 189.8 Q 321.4 189.7, 320.8 189.3 L 321.5 188.3 Q 322.3 188.7, 323.3 188.7 Q 324.9 188.7, 325.7 187.7 Q 326.5 186.6, 326.6 184.5 Q 326.0 185.0, 325.3 185.3 Q 324.6 185.6, 323.8 185.6 Q 322.8 185.6, 322.0 185.2 Q 321.2 184.7, 320.8 184.0 Q 320.4 183.2, 320.4 182.2 Q 320.4 181.1, 320.9 180.2 Q 321.4 179.4, 322.2 178.9 Q 323.1 178.4, 324.2 178.4 M 322.0 182.2 Q 322.0 183.2, 322.5 183.7 Q 323.1 184.3, 324.1 184.3 Q 324.8 184.3, 325.5 184.0 Q 326.1 183.8, 326.6 183.3 Q 326.6 181.4, 326.0 180.6 Q 325.4 179.7, 324.2 179.7 Q 323.6 179.7, 323.1 180.0 Q 322.6 180.4, 322.3 180.9 Q 322.0 181.5, 322.0 182.2 " fill="#000000"/>
<path class="legend" d="M 334.3 190.0 Q 332.2 190.0, 331.1 188.4 Q 330.1 186.9, 330.1 184.2 Q 330.1 181.4, 331.1 179.9 Q 332.2 178.4, 334.3 178.4 Q 336.4 178.4, 337.4 179.9 Q 338.4 181.4, 338.4 184.2 Q 338.4 186.9, 337.4 188.4 Q 336.3 190.0, 334.3 190.0 M 334.3 188.7 Q 335.5 188.7, 336.2 187.6 Q 336.8 186.4, 336.8 184.2 Q 336.8 182.0, 336.2 180.8 Q 335.5 179.7, 334.3 179.7 Q 333.1 179.7, 332.4 180.8 Q 331.7 182.0, 331.7 184.2 Q 331.7 186.4, 332.4 187.6 Q 333.1 188.7, 334.3 188.7 " fill="#000000"/>
<path class="legend" d="M 346.2 179.8 L 340.3 179.8 L 340.3 178.5 L 347.8 178.5 L 347.8 179.7 L 343.2 189.9 L 341.7 189.9 L 346.2 179.8 " fill="#000000"/>
</svg>