<svg xmlns="http://www.w3.org/2000/svg" xmlns:rdkit="http://www.rdkit.org/xml" xmlns:xlink="http://www.w3.org/1999/xlink" version="1.1" baseProfile="full" xml:space="preserve" width="600px" height="200px" viewBox="0 0 600 200">
<!-- END OF HEADER -->
<rect style="opacity:1.0;fill:#FFFFFF;stroke:none" width="600.0" height="200.0" x="0.0" y="0.0"> </rect>
<path class="bond-0 atom-0 atom-1" d="M 127.7,127.6 L 133.4,128.9" style="fill:none;fill-rule:evenodd;stroke:#0000FF;stroke-width:2.0px;stroke-linecap:butt;stroke-linejoin:miter;stroke-opacity:1"/>
<path class="bond-0 atom-0 atom-1" d="M 133.4,128.9 L 139.1,130.1" style="fill:none;fill-rule:evenodd;stroke:#000000;stroke-width:2.0px;stroke-linecap:butt;stroke-linejoin:miter;stroke-opacity:1"/>
<path class="bond-1 atom-2 atom-1" d="M 145.8,122.2 L 146.3,122.7" style="fill:none;fill-rule:evenodd;stroke:#000000;stroke-width:1.0px;stroke-linecap:butt;stroke-linejoin:miter;stroke-opacity:1"/>
<path class="bond-1 atom-2 atom-1" d="M 143.2,124.5 L 144.2,125.4" style="fill:none;fill-rule:evenodd;stroke:#000000;stroke-width:1.0px;stroke-linecap:butt;stroke-linejoin:miter;stroke-opacity:1"/>
<path class="bond-1 atom-2 atom-1" d="M 140.7,126.8 L 142.2,128.2" style="fill:none;fill-rule:evenodd;stroke:#000000;stroke-width:1.0px;stroke-linecap:butt;stroke-linejoin:miter;stroke-opacity:1"/>
<path class="bond-2 atom-2 atom-3" d="M 148.4,119.9 L 146.7,114.7" style="fill:none;fill-rule:evenodd;stroke:#000000;stroke-width:2.0px;stroke-linecap:butt;stroke-linejoin:miter;stroke-opacity:1"/>
<path class="bond-2 atom-2 atom-3" d="M 146.7,114.7 L 145.0,109.4" style="fill:none;fill-rule:evenodd;stroke:#FF0000;stroke-width:2.0px;stroke-linecap:butt;stroke-linejoin:miter;stroke-opacity:1"/>
<path class="bond-3 atom-3 atom-4" d="M 146.5,104.2 L 150.0,100.4" style="fill:none;fill-rule:evenodd;stroke:#FF0000;stroke-width:2.0px;stroke-linecap:butt;stroke-linejoin:miter;stroke-opacity:1"/>
<path class="bond-3 atom-3 atom-4" d="M 150.0,100.4 L 153.4,96.6" style="fill:none;fill-rule:evenodd;stroke:#000000;stroke-width:2.0px;stroke-linecap:butt;stroke-linejoin:miter;stroke-opacity:1"/>
<path class="bond-4 atom-4 atom-5" d="M 153.0,94.0 L 152.3,94.2" style="fill:none;fill-rule:evenodd;stroke:#000000;stroke-width:1.0px;stroke-linecap:butt;stroke-linejoin:miter;stroke-opacity:1"/>
<path class="bond-4 atom-4 atom-5" d="M 152.5,91.4 L 151.2,91.8" style="fill:none;fill-rule:evenodd;stroke:#000000;stroke-width:1.0px;stroke-linecap:butt;stroke-linejoin:miter;stroke-opacity:1"/>
<path class="bond-4 atom-4 atom-5" d="M 152.0,88.8 L 150.0,89.4" style="fill:none;fill-rule:evenodd;stroke:#FF0000;stroke-width:1.0px;stroke-linecap:butt;stroke-linejoin:miter;stroke-opacity:1"/>
<path class="bond-5 atom-6 atom-5" d="M 135.8,80.5 L 141.2,81.2 L 140.9,82.2 Z" style="fill:#000000;fill-rule:evenodd;fill-opacity:1;stroke:#000000;stroke-width:0.5px;stroke-linecap:butt;stroke-linejoin:miter;stroke-opacity:1;"/>
<path class="bond-5 atom-6 atom-5" d="M 141.2,81.2 L 146.1,83.8 L 146.6,81.8 Z" style="fill:#FF0000;fill-rule:evenodd;fill-opacity:1;stroke:#FF0000;stroke-width:0.5px;stroke-linecap:butt;stroke-linejoin:miter;stroke-opacity:1;"/>
<path class="bond-5 atom-6 atom-5" d="M 141.2,81.2 L 140.9,82.2 L 146.1,83.8 Z" style="fill:#FF0000;fill-rule:evenodd;fill-opacity:1;stroke:#FF0000;stroke-width:0.5px;stroke-linecap:butt;stroke-linejoin:miter;stroke-opacity:1;"/>
<path class="bond-6 atom-6 atom-7" d="M 135.8,80.5 L 125.5,89.7" style="fill:none;fill-rule:evenodd;stroke:#000000;stroke-width:2.0px;stroke-linecap:butt;stroke-linejoin:miter;stroke-opacity:1"/>
<path class="bond-7 atom-7 atom-8" d="M 125.5,89.7 L 126.5,95.0 L 125.5,95.1 Z" style="fill:#000000;fill-rule:evenodd;fill-opacity:1;stroke:#000000;stroke-width:0.5px;stroke-linecap:butt;stroke-linejoin:miter;stroke-opacity:1;"/>
<path class="bond-7 atom-7 atom-8" d="M 126.5,95.0 L 125.5,100.5 L 127.6,100.2 Z" style="fill:#FF0000;fill-rule:evenodd;fill-opacity:1;stroke:#FF0000;stroke-width:0.5px;stroke-linecap:butt;stroke-linejoin:miter;stroke-opacity:1;"/>
<path class="bond-7 atom-7 atom-8" d="M 126.5,95.0 L 125.5,95.1 L 125.5,100.5 Z" style="fill:#FF0000;fill-rule:evenodd;fill-opacity:1;stroke:#FF0000;stroke-width:0.5px;stroke-linecap:butt;stroke-linejoin:miter;stroke-opacity:1;"/>
<path class="bond-8 atom-7 atom-9" d="M 125.5,89.7 L 113.6,82.8" style="fill:none;fill-rule:evenodd;stroke:#000000;stroke-width:2.0px;stroke-linecap:butt;stroke-linejoin:miter;stroke-opacity:1"/>
<path class="bond-9 atom-9 atom-10" d="M 111.0,83.5 L 111.3,84.1" style="fill:none;fill-rule:evenodd;stroke:#000000;stroke-width:1.0px;stroke-linecap:butt;stroke-linejoin:miter;stroke-opacity:1"/>
<path class="bond-9 atom-9 atom-10" d="M 108.4,84.3 L 109.0,85.5" style="fill:none;fill-rule:evenodd;stroke:#000000;stroke-width:1.0px;stroke-linecap:butt;stroke-linejoin:miter;stroke-opacity:1"/>
<path class="bond-9 atom-9 atom-10" d="M 105.9,85.0 L 106.7,86.9" style="fill:none;fill-rule:evenodd;stroke:#FF0000;stroke-width:1.0px;stroke-linecap:butt;stroke-linejoin:miter;stroke-opacity:1"/>
<path class="bond-10 atom-11 atom-10" d="M 89.8,80.2 L 94.3,82.8 L 93.7,83.6 Z" style="fill:#000000;fill-rule:evenodd;fill-opacity:1;stroke:#000000;stroke-width:0.5px;stroke-linecap:butt;stroke-linejoin:miter;stroke-opacity:1;"/>
<path class="bond-10 atom-11 atom-10" d="M 94.3,82.8 L 97.5,87.0 L 98.7,85.4 Z" style="fill:#FF0000;fill-rule:evenodd;fill-opacity:1;stroke:#FF0000;stroke-width:0.5px;stroke-linecap:butt;stroke-linejoin:miter;stroke-opacity:1;"/>
<path class="bond-10 atom-11 atom-10" d="M 94.3,82.8 L 93.7,83.6 L 97.5,87.0 Z" style="fill:#FF0000;fill-rule:evenodd;fill-opacity:1;stroke:#FF0000;stroke-width:0.5px;stroke-linecap:butt;stroke-linejoin:miter;stroke-opacity:1;"/>
<path class="bond-11 atom-11 atom-12" d="M 89.8,80.2 L 91.3,66.5" style="fill:none;fill-rule:evenodd;stroke:#000000;stroke-width:2.0px;stroke-linecap:butt;stroke-linejoin:miter;stroke-opacity:1"/>
<path class="bond-12 atom-12 atom-13" d="M 94.5,64.7 L 94.7,65.3" style="fill:none;fill-rule:evenodd;stroke:#000000;stroke-width:1.0px;stroke-linecap:butt;stroke-linejoin:miter;stroke-opacity:1"/>
<path class="bond-12 atom-12 atom-13" d="M 97.6,63.0 L 98.1,64.2" style="fill:none;fill-rule:evenodd;stroke:#FF0000;stroke-width:1.0px;stroke-linecap:butt;stroke-linejoin:miter;stroke-opacity:1"/>
<path class="bond-12 atom-12 atom-13" d="M 100.7,61.2 L 101.5,63.1" style="fill:none;fill-rule:evenodd;stroke:#FF0000;stroke-width:1.0px;stroke-linecap:butt;stroke-linejoin:miter;stroke-opacity:1"/>
<path class="bond-13 atom-12 atom-14" d="M 91.3,66.5 L 80.2,58.3" style="fill:none;fill-rule:evenodd;stroke:#000000;stroke-width:2.0px;stroke-linecap:butt;stroke-linejoin:miter;stroke-opacity:1"/>
<path class="bond-14 atom-14 atom-15" d="M 80.2,58.3 L 80.3,52.9 L 81.3,53.0 Z" style="fill:#000000;fill-rule:evenodd;fill-opacity:1;stroke:#000000;stroke-width:0.5px;stroke-linecap:butt;stroke-linejoin:miter;stroke-opacity:1;"/>
<path class="bond-14 atom-14 atom-15" d="M 80.3,52.9 L 82.4,47.8 L 80.4,47.5 Z" style="fill:#0000FF;fill-rule:evenodd;fill-opacity:1;stroke:#0000FF;stroke-width:0.5px;stroke-linecap:butt;stroke-linejoin:miter;stroke-opacity:1;"/>
<path class="bond-14 atom-14 atom-15" d="M 80.3,52.9 L 81.3,53.0 L 82.4,47.8 Z" style="fill:#0000FF;fill-rule:evenodd;fill-opacity:1;stroke:#0000FF;stroke-width:0.5px;stroke-linecap:butt;stroke-linejoin:miter;stroke-opacity:1;"/>
<path class="bond-15 atom-14 atom-16" d="M 80.2,58.3 L 67.6,63.9" style="fill:none;fill-rule:evenodd;stroke:#000000;stroke-width:2.0px;stroke-linecap:butt;stroke-linejoin:miter;stroke-opacity:1"/>
<path class="bond-16 atom-16 atom-17" d="M 67.6,63.9 L 66.1,77.6" style="fill:none;fill-rule:evenodd;stroke:#000000;stroke-width:2.0px;stroke-linecap:butt;stroke-linejoin:miter;stroke-opacity:1"/>
<path class="bond-17 atom-17 atom-18" d="M 66.1,77.6 L 61.3,80.2 L 60.9,79.3 Z" style="fill:#000000;fill-rule:evenodd;fill-opacity:1;stroke:#000000;stroke-width:0.5px;stroke-linecap:butt;stroke-linejoin:miter;stroke-opacity:1;"/>
<path class="bond-17 atom-17 atom-18" d="M 61.3,80.2 L 55.6,81.0 L 56.4,82.9 Z" style="fill:#0000FF;fill-rule:evenodd;fill-opacity:1;stroke:#0000FF;stroke-width:0.5px;stroke-linecap:butt;stroke-linejoin:miter;stroke-opacity:1;"/>
<path class="bond-17 atom-17 atom-18" d="M 61.3,80.2 L 60.9,79.3 L 55.6,81.0 Z" style="fill:#0000FF;fill-rule:evenodd;fill-opacity:1;stroke:#0000FF;stroke-width:0.5px;stroke-linecap:butt;stroke-linejoin:miter;stroke-opacity:1;"/>
<path class="bond-18 atom-17 atom-19" d="M 66.1,77.6 L 77.2,85.7" style="fill:none;fill-rule:evenodd;stroke:#000000;stroke-width:2.0px;stroke-linecap:butt;stroke-linejoin:miter;stroke-opacity:1"/>
<path class="bond-19 atom-19 atom-20" d="M 76.6,88.3 L 77.3,88.4" style="fill:none;fill-rule:evenodd;stroke:#000000;stroke-width:1.0px;stroke-linecap:butt;stroke-linejoin:miter;stroke-opacity:1"/>
<path class="bond-19 atom-19 atom-20" d="M 76.0,90.9 L 77.3,91.1" style="fill:none;fill-rule:evenodd;stroke:#000000;stroke-width:1.0px;stroke-linecap:butt;stroke-linejoin:miter;stroke-opacity:1"/>
<path class="bond-19 atom-19 atom-20" d="M 75.3,93.5 L 77.4,93.8" style="fill:none;fill-rule:evenodd;stroke:#FF0000;stroke-width:1.0px;stroke-linecap:butt;stroke-linejoin:miter;stroke-opacity:1"/>
<path class="bond-20 atom-21 atom-20" d="M 65.7,104.2 L 65.4,103.6" style="fill:none;fill-rule:evenodd;stroke:#000000;stroke-width:1.0px;stroke-linecap:butt;stroke-linejoin:miter;stroke-opacity:1"/>
<path class="bond-20 atom-21 atom-20" d="M 68.2,103.4 L 67.7,102.2" style="fill:none;fill-rule:evenodd;stroke:#000000;stroke-width:1.0px;stroke-linecap:butt;stroke-linejoin:miter;stroke-opacity:1"/>
<path class="bond-20 atom-21 atom-20" d="M 70.8,102.7 L 70.0,100.8" style="fill:none;fill-rule:evenodd;stroke:#FF0000;stroke-width:1.0px;stroke-linecap:butt;stroke-linejoin:miter;stroke-opacity:1"/>
<path class="bond-21 atom-21 atom-22" d="M 63.1,105.0 L 58.8,101.8" style="fill:none;fill-rule:evenodd;stroke:#000000;stroke-width:2.0px;stroke-linecap:butt;stroke-linejoin:miter;stroke-opacity:1"/>
<path class="bond-21 atom-21 atom-22" d="M 58.8,101.8 L 54.4,98.6" style="fill:none;fill-rule:evenodd;stroke:#FF0000;stroke-width:2.0px;stroke-linecap:butt;stroke-linejoin:miter;stroke-opacity:1"/>
<path class="bond-22 atom-22 atom-23" d="M 49.6,97.9 L 44.5,100.1" style="fill:none;fill-rule:evenodd;stroke:#FF0000;stroke-width:2.0px;stroke-linecap:butt;stroke-linejoin:miter;stroke-opacity:1"/>
<path class="bond-22 atom-22 atom-23" d="M 44.5,100.1 L 39.4,102.4" style="fill:none;fill-rule:evenodd;stroke:#000000;stroke-width:2.0px;stroke-linecap:butt;stroke-linejoin:miter;stroke-opacity:1"/>
<path class="bond-23 atom-23 atom-24" d="M 39.4,102.4 L 27.1,94.7 L 29.3,93.7 Z" style="fill:#000000;fill-rule:evenodd;fill-opacity:1;stroke:#000000;stroke-width:0.5px;stroke-linecap:butt;stroke-linejoin:miter;stroke-opacity:1;"/>
<path class="bond-24 atom-24 atom-25" d="M 29.3,93.7 L 23.2,96.4" style="fill:none;fill-rule:evenodd;stroke:#000000;stroke-width:2.0px;stroke-linecap:butt;stroke-linejoin:miter;stroke-opacity:1"/>
<path class="bond-24 atom-24 atom-25" d="M 23.2,96.4 L 18.1,98.7" style="fill:none;fill-rule:evenodd;stroke:#FF0000;stroke-width:2.0px;stroke-linecap:butt;stroke-linejoin:miter;stroke-opacity:1"/>
<path class="bond-25 atom-23 atom-26" d="M 39.4,102.4 L 37.9,116.1" style="fill:none;fill-rule:evenodd;stroke:#000000;stroke-width:2.0px;stroke-linecap:butt;stroke-linejoin:miter;stroke-opacity:1"/>
<path class="bond-26 atom-26 atom-27" d="M 34.8,117.8 L 34.5,117.2" style="fill:none;fill-rule:evenodd;stroke:#000000;stroke-width:1.0px;stroke-linecap:butt;stroke-linejoin:miter;stroke-opacity:1"/>
<path class="bond-26 atom-26 atom-27" d="M 31.7,119.5 L 31.1,118.3" style="fill:none;fill-rule:evenodd;stroke:#FF0000;stroke-width:1.0px;stroke-linecap:butt;stroke-linejoin:miter;stroke-opacity:1"/>
<path class="bond-26 atom-26 atom-27" d="M 28.5,121.3 L 27.7,119.4" style="fill:none;fill-rule:evenodd;stroke:#FF0000;stroke-width:1.0px;stroke-linecap:butt;stroke-linejoin:miter;stroke-opacity:1"/>
<path class="bond-27 atom-26 atom-28" d="M 37.9,116.1 L 49.0,124.2" style="fill:none;fill-rule:evenodd;stroke:#000000;stroke-width:2.0px;stroke-linecap:butt;stroke-linejoin:miter;stroke-opacity:1"/>
<path class="bond-28 atom-28 atom-29" d="M 49.0,124.2 L 48.9,129.6 L 47.9,129.5 Z" style="fill:#000000;fill-rule:evenodd;fill-opacity:1;stroke:#000000;stroke-width:0.5px;stroke-linecap:butt;stroke-linejoin:miter;stroke-opacity:1;"/>
<path class="bond-28 atom-28 atom-29" d="M 48.9,129.6 L 46.8,134.7 L 48.9,135.0 Z" style="fill:#FF0000;fill-rule:evenodd;fill-opacity:1;stroke:#FF0000;stroke-width:0.5px;stroke-linecap:butt;stroke-linejoin:miter;stroke-opacity:1;"/>
<path class="bond-28 atom-28 atom-29" d="M 48.9,129.6 L 47.9,129.5 L 46.8,134.7 Z" style="fill:#FF0000;fill-rule:evenodd;fill-opacity:1;stroke:#FF0000;stroke-width:0.5px;stroke-linecap:butt;stroke-linejoin:miter;stroke-opacity:1;"/>
<path class="bond-29 atom-28 atom-30" d="M 49.0,124.2 L 61.6,118.7" style="fill:none;fill-rule:evenodd;stroke:#000000;stroke-width:2.0px;stroke-linecap:butt;stroke-linejoin:miter;stroke-opacity:1"/>
<path class="bond-30 atom-30 atom-31" d="M 64.7,120.5 L 64.3,121.0" style="fill:none;fill-rule:evenodd;stroke:#000000;stroke-width:1.0px;stroke-linecap:butt;stroke-linejoin:miter;stroke-opacity:1"/>
<path class="bond-30 atom-30 atom-31" d="M 67.7,122.3 L 66.9,123.4" style="fill:none;fill-rule:evenodd;stroke:#0000FF;stroke-width:1.0px;stroke-linecap:butt;stroke-linejoin:miter;stroke-opacity:1"/>
<path class="bond-30 atom-30 atom-31" d="M 70.8,124.1 L 69.6,125.8" style="fill:none;fill-rule:evenodd;stroke:#0000FF;stroke-width:1.0px;stroke-linecap:butt;stroke-linejoin:miter;stroke-opacity:1"/>
<path class="bond-31 atom-9 atom-32" d="M 113.6,82.8 L 114.7,77.4" style="fill:none;fill-rule:evenodd;stroke:#000000;stroke-width:2.0px;stroke-linecap:butt;stroke-linejoin:miter;stroke-opacity:1"/>
<path class="bond-31 atom-9 atom-32" d="M 114.7,77.4 L 115.9,72.0" style="fill:none;fill-rule:evenodd;stroke:#FF0000;stroke-width:2.0px;stroke-linecap:butt;stroke-linejoin:miter;stroke-opacity:1"/>
<path class="bond-32 atom-32 atom-33" d="M 118.9,69.0 L 124.5,68.5" style="fill:none;fill-rule:evenodd;stroke:#FF0000;stroke-width:2.0px;stroke-linecap:butt;stroke-linejoin:miter;stroke-opacity:1"/>
<path class="bond-32 atom-32 atom-33" d="M 124.5,68.5 L 130.2,67.9" style="fill:none;fill-rule:evenodd;stroke:#000000;stroke-width:2.0px;stroke-linecap:butt;stroke-linejoin:miter;stroke-opacity:1"/>
<path class="bond-33 atom-33 atom-34" d="M 132.2,65.1 L 131.6,64.8" style="fill:none;fill-rule:evenodd;stroke:#000000;stroke-width:1.0px;stroke-linecap:butt;stroke-linejoin:miter;stroke-opacity:1"/>
<path class="bond-33 atom-33 atom-34" d="M 134.3,62.3 L 133.1,61.6" style="fill:none;fill-rule:evenodd;stroke:#000000;stroke-width:1.0px;stroke-linecap:butt;stroke-linejoin:miter;stroke-opacity:1"/>
<path class="bond-33 atom-33 atom-34" d="M 136.3,59.5 L 134.5,58.5" style="fill:none;fill-rule:evenodd;stroke:#000000;stroke-width:1.0px;stroke-linecap:butt;stroke-linejoin:miter;stroke-opacity:1"/>
<path class="bond-34 atom-34 atom-35" d="M 137.1,56.0 L 134.5,51.4" style="fill:none;fill-rule:evenodd;stroke:#000000;stroke-width:2.0px;stroke-linecap:butt;stroke-linejoin:miter;stroke-opacity:1"/>
<path class="bond-34 atom-34 atom-35" d="M 134.5,51.4 L 131.8,46.7" style="fill:none;fill-rule:evenodd;stroke:#FF0000;stroke-width:2.0px;stroke-linecap:butt;stroke-linejoin:miter;stroke-opacity:1"/>
<path class="bond-35 atom-4 atom-36" d="M 153.4,96.6 L 166.9,99.5" style="fill:none;fill-rule:evenodd;stroke:#000000;stroke-width:2.0px;stroke-linecap:butt;stroke-linejoin:miter;stroke-opacity:1"/>
<path class="bond-36 atom-36 atom-37" d="M 168.9,96.8 L 169.4,97.2" style="fill:none;fill-rule:evenodd;stroke:#000000;stroke-width:1.0px;stroke-linecap:butt;stroke-linejoin:miter;stroke-opacity:1"/>
<path class="bond-36 atom-36 atom-37" d="M 170.9,94.1 L 171.9,95.0" style="fill:none;fill-rule:evenodd;stroke:#0000FF;stroke-width:1.0px;stroke-linecap:butt;stroke-linejoin:miter;stroke-opacity:1"/>
<path class="bond-36 atom-36 atom-37" d="M 172.9,91.4 L 174.4,92.8" style="fill:none;fill-rule:evenodd;stroke:#0000FF;stroke-width:1.0px;stroke-linecap:butt;stroke-linejoin:miter;stroke-opacity:1"/>
<path class="bond-37 atom-36 atom-38" d="M 166.9,99.5 L 171.1,112.6" style="fill:none;fill-rule:evenodd;stroke:#000000;stroke-width:2.0px;stroke-linecap:butt;stroke-linejoin:miter;stroke-opacity:1"/>
<path class="bond-38 atom-38 atom-39" d="M 171.1,112.6 L 176.5,113.3 L 176.3,114.3 Z" style="fill:#000000;fill-rule:evenodd;fill-opacity:1;stroke:#000000;stroke-width:0.5px;stroke-linecap:butt;stroke-linejoin:miter;stroke-opacity:1;"/>
<path class="bond-38 atom-38 atom-39" d="M 176.5,113.3 L 181.5,115.9 L 181.9,113.9 Z" style="fill:#FF0000;fill-rule:evenodd;fill-opacity:1;stroke:#FF0000;stroke-width:0.5px;stroke-linecap:butt;stroke-linejoin:miter;stroke-opacity:1;"/>
<path class="bond-38 atom-38 atom-39" d="M 176.5,113.3 L 176.3,114.3 L 181.5,115.9 Z" style="fill:#FF0000;fill-rule:evenodd;fill-opacity:1;stroke:#FF0000;stroke-width:0.5px;stroke-linecap:butt;stroke-linejoin:miter;stroke-opacity:1;"/>
<path class="bond-39 atom-38 atom-40" d="M 171.1,112.6 L 161.8,122.8" style="fill:none;fill-rule:evenodd;stroke:#000000;stroke-width:2.0px;stroke-linecap:butt;stroke-linejoin:miter;stroke-opacity:1"/>
<path class="bond-40 atom-40 atom-41" d="M 163.2,126.1 L 162.6,126.3" style="fill:none;fill-rule:evenodd;stroke:#000000;stroke-width:1.0px;stroke-linecap:butt;stroke-linejoin:miter;stroke-opacity:1"/>
<path class="bond-40 atom-40 atom-41" d="M 164.6,129.3 L 163.3,129.7" style="fill:none;fill-rule:evenodd;stroke:#FF0000;stroke-width:1.0px;stroke-linecap:butt;stroke-linejoin:miter;stroke-opacity:1"/>
<path class="bond-40 atom-40 atom-41" d="M 166.0,132.6 L 164.1,133.2" style="fill:none;fill-rule:evenodd;stroke:#FF0000;stroke-width:1.0px;stroke-linecap:butt;stroke-linejoin:miter;stroke-opacity:1"/>
<path class="bond-41 atom-40 atom-2" d="M 161.8,122.8 L 148.4,119.9" style="fill:none;fill-rule:evenodd;stroke:#000000;stroke-width:2.0px;stroke-linecap:butt;stroke-linejoin:miter;stroke-opacity:1"/>
<path class="bond-42 atom-33 atom-6" d="M 130.2,67.9 L 135.8,80.5" style="fill:none;fill-rule:evenodd;stroke:#000000;stroke-width:2.0px;stroke-linecap:butt;stroke-linejoin:miter;stroke-opacity:1"/>
<path class="bond-43 atom-19 atom-11" d="M 77.2,85.7 L 89.8,80.2" style="fill:none;fill-rule:evenodd;stroke:#000000;stroke-width:2.0px;stroke-linecap:butt;stroke-linejoin:miter;stroke-opacity:1"/>
<path class="bond-44 atom-30 atom-21" d="M 61.6,118.7 L 63.1,105.0" style="fill:none;fill-rule:evenodd;stroke:#000000;stroke-width:2.0px;stroke-linecap:butt;stroke-linejoin:miter;stroke-opacity:1"/>
<path d="M 148.3,119.6 L 148.4,119.9 L 149.0,120.0" style="fill:none;stroke:#000000;stroke-width:2.0px;stroke-linecap:butt;stroke-linejoin:miter;stroke-opacity:1;"/>
<path d="M 153.2,96.8 L 153.4,96.6 L 154.1,96.7" style="fill:none;stroke:#000000;stroke-width:2.0px;stroke-linecap:butt;stroke-linejoin:miter;stroke-opacity:1;"/>
<path d="M 135.2,81.0 L 135.8,80.5 L 135.5,79.9" style="fill:none;stroke:#000000;stroke-width:2.0px;stroke-linecap:butt;stroke-linejoin:miter;stroke-opacity:1;"/>
<path d="M 126.0,89.2 L 125.5,89.7 L 124.9,89.3" style="fill:none;stroke:#000000;stroke-width:2.0px;stroke-linecap:butt;stroke-linejoin:miter;stroke-opacity:1;"/>
<path d="M 114.2,83.1 L 113.6,82.8 L 113.6,82.5" style="fill:none;stroke:#000000;stroke-width:2.0px;stroke-linecap:butt;stroke-linejoin:miter;stroke-opacity:1;"/>
<path d="M 89.9,79.5 L 89.8,80.2 L 89.2,80.4" style="fill:none;stroke:#000000;stroke-width:2.0px;stroke-linecap:butt;stroke-linejoin:miter;stroke-opacity:1;"/>
<path d="M 91.3,67.1 L 91.3,66.5 L 90.8,66.0" style="fill:none;stroke:#000000;stroke-width:2.0px;stroke-linecap:butt;stroke-linejoin:miter;stroke-opacity:1;"/>
<path d="M 80.8,58.7 L 80.2,58.3 L 79.6,58.6" style="fill:none;stroke:#000000;stroke-width:2.0px;stroke-linecap:butt;stroke-linejoin:miter;stroke-opacity:1;"/>
<path d="M 68.2,63.6 L 67.6,63.9 L 67.5,64.5" style="fill:none;stroke:#000000;stroke-width:2.0px;stroke-linecap:butt;stroke-linejoin:miter;stroke-opacity:1;"/>
<path d="M 66.2,76.9 L 66.1,77.6 L 66.7,78.0" style="fill:none;stroke:#000000;stroke-width:2.0px;stroke-linecap:butt;stroke-linejoin:miter;stroke-opacity:1;"/>
<path d="M 76.7,85.3 L 77.2,85.7 L 77.9,85.4" style="fill:none;stroke:#000000;stroke-width:2.0px;stroke-linecap:butt;stroke-linejoin:miter;stroke-opacity:1;"/>
<path d="M 62.9,104.8 L 63.1,105.0 L 63.0,105.6" style="fill:none;stroke:#000000;stroke-width:2.0px;stroke-linecap:butt;stroke-linejoin:miter;stroke-opacity:1;"/>
<path d="M 39.6,102.2 L 39.4,102.4 L 39.3,103.0" style="fill:none;stroke:#000000;stroke-width:2.0px;stroke-linecap:butt;stroke-linejoin:miter;stroke-opacity:1;"/>
<path d="M 38.0,115.4 L 37.9,116.1 L 38.4,116.5" style="fill:none;stroke:#000000;stroke-width:2.0px;stroke-linecap:butt;stroke-linejoin:miter;stroke-opacity:1;"/>
<path d="M 48.4,123.8 L 49.0,124.2 L 49.6,123.9" style="fill:none;stroke:#000000;stroke-width:2.0px;stroke-linecap:butt;stroke-linejoin:miter;stroke-opacity:1;"/>
<path d="M 61.0,118.9 L 61.6,118.7 L 61.7,118.0" style="fill:none;stroke:#000000;stroke-width:2.0px;stroke-linecap:butt;stroke-linejoin:miter;stroke-opacity:1;"/>
<path d="M 129.9,67.9 L 130.2,67.9 L 130.5,68.5" style="fill:none;stroke:#000000;stroke-width:2.0px;stroke-linecap:butt;stroke-linejoin:miter;stroke-opacity:1;"/>
<path d="M 166.2,99.3 L 166.9,99.5 L 167.1,100.1" style="fill:none;stroke:#000000;stroke-width:2.0px;stroke-linecap:butt;stroke-linejoin:miter;stroke-opacity:1;"/>
<path d="M 170.9,112.0 L 171.1,112.6 L 170.6,113.1" style="fill:none;stroke:#000000;stroke-width:2.0px;stroke-linecap:butt;stroke-linejoin:miter;stroke-opacity:1;"/>
<path d="M 162.3,122.3 L 161.8,122.8 L 161.1,122.7" style="fill:none;stroke:#000000;stroke-width:2.0px;stroke-linecap:butt;stroke-linejoin:miter;stroke-opacity:1;"/>
<path class="atom-0" d="M 117.4 125.0 L 118.0 125.0 L 118.0 126.9 L 120.2 126.9 L 120.2 125.0 L 120.7 125.0 L 120.7 129.3 L 120.2 129.3 L 120.2 127.3 L 118.0 127.3 L 118.0 129.3 L 117.4 129.3 L 117.4 125.0 " fill="#0000FF"/>
<path class="atom-0" d="M 121.6 129.1 Q 121.7 128.9, 121.9 128.7 Q 122.2 128.6, 122.5 128.6 Q 122.9 128.6, 123.2 128.8 Q 123.4 129.0, 123.4 129.5 Q 123.4 129.9, 123.1 130.3 Q 122.8 130.6, 122.2 131.1 L 123.5 131.1 L 123.5 131.4 L 121.6 131.4 L 121.6 131.2 Q 122.1 130.8, 122.4 130.5 Q 122.7 130.2, 122.9 130.0 Q 123.0 129.7, 123.0 129.5 Q 123.0 129.2, 122.9 129.1 Q 122.7 128.9, 122.5 128.9 Q 122.3 128.9, 122.1 129.0 Q 122.0 129.1, 121.9 129.3 L 121.6 129.1 " fill="#0000FF"/>
<path class="atom-0" d="M 124.7 125.0 L 126.1 127.3 Q 126.2 127.5, 126.4 127.9 Q 126.7 128.3, 126.7 128.3 L 126.7 125.0 L 127.2 125.0 L 127.2 129.3 L 126.7 129.3 L 125.2 126.8 Q 125.0 126.5, 124.8 126.2 Q 124.6 125.9, 124.6 125.8 L 124.6 129.3 L 124.0 129.3 L 124.0 125.0 L 124.7 125.0 " fill="#0000FF"/>
<path class="atom-3" d="M 142.2 106.8 Q 142.2 105.8, 142.7 105.2 Q 143.2 104.6, 144.2 104.6 Q 145.1 104.6, 145.6 105.2 Q 146.1 105.8, 146.1 106.8 Q 146.1 107.8, 145.6 108.4 Q 145.1 109.0, 144.2 109.0 Q 143.2 109.0, 142.7 108.4 Q 142.2 107.8, 142.2 106.8 M 144.2 108.5 Q 144.8 108.5, 145.2 108.1 Q 145.5 107.6, 145.5 106.8 Q 145.5 105.9, 145.2 105.5 Q 144.8 105.1, 144.2 105.1 Q 143.5 105.1, 143.2 105.5 Q 142.8 105.9, 142.8 106.8 Q 142.8 107.6, 143.2 108.1 Q 143.5 108.5, 144.2 108.5 " fill="#FF0000"/>
<path class="atom-5" d="M 147.3 83.5 Q 147.3 82.4, 147.8 81.9 Q 148.3 81.3, 149.2 81.3 Q 150.2 81.3, 150.7 81.9 Q 151.2 82.4, 151.2 83.5 Q 151.2 84.5, 150.7 85.1 Q 150.1 85.7, 149.2 85.7 Q 148.3 85.7, 147.8 85.1 Q 147.3 84.5, 147.3 83.5 M 149.2 85.2 Q 149.9 85.2, 150.2 84.7 Q 150.6 84.3, 150.6 83.5 Q 150.6 82.6, 150.2 82.2 Q 149.9 81.8, 149.2 81.8 Q 148.6 81.8, 148.2 82.2 Q 147.9 82.6, 147.9 83.5 Q 147.9 84.3, 148.2 84.7 Q 148.6 85.2, 149.2 85.2 " fill="#FF0000"/>
<path class="atom-8" d="M 124.9 103.4 Q 124.9 102.4, 125.4 101.8 Q 125.9 101.3, 126.9 101.3 Q 127.8 101.3, 128.3 101.8 Q 128.8 102.4, 128.8 103.4 Q 128.8 104.5, 128.3 105.0 Q 127.8 105.6, 126.9 105.6 Q 125.9 105.6, 125.4 105.0 Q 124.9 104.5, 124.9 103.4 M 126.9 105.1 Q 127.5 105.1, 127.8 104.7 Q 128.2 104.3, 128.2 103.4 Q 128.2 102.6, 127.8 102.2 Q 127.5 101.7, 126.9 101.7 Q 126.2 101.7, 125.8 102.2 Q 125.5 102.6, 125.5 103.4 Q 125.5 104.3, 125.8 104.7 Q 126.2 105.1, 126.9 105.1 " fill="#FF0000"/>
<path class="atom-8" d="M 129.5 101.3 L 130.0 101.3 L 130.0 103.1 L 132.2 103.1 L 132.2 101.3 L 132.8 101.3 L 132.8 105.6 L 132.2 105.6 L 132.2 103.6 L 130.0 103.6 L 130.0 105.6 L 129.5 105.6 L 129.5 101.3 " fill="#FF0000"/>
<path class="atom-10" d="M 99.0 88.3 Q 99.0 87.3, 99.5 86.7 Q 100.0 86.2, 101.0 86.2 Q 101.9 86.2, 102.4 86.7 Q 102.9 87.3, 102.9 88.3 Q 102.9 89.3, 102.4 89.9 Q 101.9 90.5, 101.0 90.5 Q 100.0 90.5, 99.5 89.9 Q 99.0 89.4, 99.0 88.3 M 101.0 90.0 Q 101.6 90.0, 101.9 89.6 Q 102.3 89.2, 102.3 88.3 Q 102.3 87.5, 101.9 87.1 Q 101.6 86.6, 101.0 86.6 Q 100.3 86.6, 100.0 87.1 Q 99.6 87.5, 99.6 88.3 Q 99.6 89.2, 100.0 89.6 Q 100.3 90.0, 101.0 90.0 " fill="#FF0000"/>
<path class="atom-13" d="M 102.0 60.9 Q 102.0 59.9, 102.5 59.3 Q 103.0 58.8, 104.0 58.8 Q 104.9 58.8, 105.4 59.3 Q 105.9 59.9, 105.9 60.9 Q 105.9 61.9, 105.4 62.5 Q 104.9 63.1, 104.0 63.1 Q 103.0 63.1, 102.5 62.5 Q 102.0 62.0, 102.0 60.9 M 104.0 62.6 Q 104.6 62.6, 104.9 62.2 Q 105.3 61.8, 105.3 60.9 Q 105.3 60.1, 104.9 59.7 Q 104.6 59.2, 104.0 59.2 Q 103.3 59.2, 103.0 59.7 Q 102.6 60.1, 102.6 60.9 Q 102.6 61.8, 103.0 62.2 Q 103.3 62.6, 104.0 62.6 " fill="#FF0000"/>
<path class="atom-13" d="M 106.6 58.8 L 107.1 58.8 L 107.1 60.6 L 109.3 60.6 L 109.3 58.8 L 109.9 58.8 L 109.9 63.1 L 109.3 63.1 L 109.3 61.1 L 107.1 61.1 L 107.1 63.1 L 106.6 63.1 L 106.6 58.8 " fill="#FF0000"/>
<path class="atom-15" d="M 80.8 42.5 L 82.2 44.7 Q 82.3 45.0, 82.5 45.4 Q 82.8 45.8, 82.8 45.8 L 82.8 42.5 L 83.3 42.5 L 83.3 46.7 L 82.8 46.7 L 81.3 44.3 Q 81.1 44.0, 80.9 43.7 Q 80.7 43.3, 80.7 43.2 L 80.7 46.7 L 80.1 46.7 L 80.1 42.5 L 80.8 42.5 " fill="#0000FF"/>
<path class="atom-15" d="M 84.1 42.5 L 84.7 42.5 L 84.7 44.3 L 86.9 44.3 L 86.9 42.5 L 87.5 42.5 L 87.5 46.7 L 86.9 46.7 L 86.9 44.8 L 84.7 44.8 L 84.7 46.7 L 84.1 46.7 L 84.1 42.5 " fill="#0000FF"/>
<path class="atom-15" d="M 88.3 46.6 Q 88.4 46.3, 88.7 46.2 Q 88.9 46.0, 89.2 46.0 Q 89.7 46.0, 89.9 46.2 Q 90.1 46.5, 90.1 46.9 Q 90.1 47.3, 89.8 47.7 Q 89.5 48.1, 88.9 48.5 L 90.2 48.5 L 90.2 48.9 L 88.3 48.9 L 88.3 48.6 Q 88.8 48.2, 89.1 47.9 Q 89.4 47.7, 89.6 47.4 Q 89.7 47.2, 89.7 46.9 Q 89.7 46.6, 89.6 46.5 Q 89.5 46.3, 89.2 46.3 Q 89.0 46.3, 88.9 46.4 Q 88.7 46.5, 88.6 46.7 L 88.3 46.6 " fill="#0000FF"/>
<path class="atom-18" d="M 45.3 81.0 L 45.9 81.0 L 45.9 82.8 L 48.0 82.8 L 48.0 81.0 L 48.6 81.0 L 48.6 85.2 L 48.0 85.2 L 48.0 83.3 L 45.9 83.3 L 45.9 85.2 L 45.3 85.2 L 45.3 81.0 " fill="#0000FF"/>
<path class="atom-18" d="M 49.5 85.1 Q 49.6 84.8, 49.8 84.7 Q 50.0 84.5, 50.4 84.5 Q 50.8 84.5, 51.0 84.7 Q 51.3 85.0, 51.3 85.4 Q 51.3 85.8, 51.0 86.2 Q 50.7 86.6, 50.0 87.0 L 51.3 87.0 L 51.3 87.4 L 49.4 87.4 L 49.4 87.1 Q 50.0 86.7, 50.3 86.4 Q 50.6 86.2, 50.7 85.9 Q 50.9 85.7, 50.9 85.4 Q 50.9 85.1, 50.8 85.0 Q 50.6 84.8, 50.4 84.8 Q 50.2 84.8, 50.0 84.9 Q 49.9 85.0, 49.8 85.2 L 49.5 85.1 " fill="#0000FF"/>
<path class="atom-18" d="M 52.6 81.0 L 53.9 83.2 Q 54.1 83.5, 54.3 83.9 Q 54.5 84.3, 54.5 84.3 L 54.5 81.0 L 55.1 81.0 L 55.1 85.2 L 54.5 85.2 L 53.0 82.8 Q 52.9 82.5, 52.7 82.1 Q 52.5 81.8, 52.4 81.7 L 52.4 85.2 L 51.9 85.2 L 51.9 81.0 L 52.6 81.0 " fill="#0000FF"/>
<path class="atom-20" d="M 73.8 99.4 Q 73.8 98.4, 74.3 97.8 Q 74.8 97.3, 75.7 97.3 Q 76.7 97.3, 77.2 97.8 Q 77.7 98.4, 77.7 99.4 Q 77.7 100.4, 77.2 101.0 Q 76.7 101.6, 75.7 101.6 Q 74.8 101.6, 74.3 101.0 Q 73.8 100.5, 73.8 99.4 M 75.7 101.1 Q 76.4 101.1, 76.7 100.7 Q 77.1 100.3, 77.1 99.4 Q 77.1 98.6, 76.7 98.2 Q 76.4 97.7, 75.7 97.7 Q 75.1 97.7, 74.7 98.2 Q 74.4 98.6, 74.4 99.4 Q 74.4 100.3, 74.7 100.7 Q 75.1 101.1, 75.7 101.1 " fill="#FF0000"/>
<path class="atom-22" d="M 50.0 96.8 Q 50.0 95.8, 50.6 95.2 Q 51.1 94.7, 52.0 94.7 Q 52.9 94.7, 53.4 95.2 Q 53.9 95.8, 53.9 96.8 Q 53.9 97.8, 53.4 98.4 Q 52.9 99.0, 52.0 99.0 Q 51.1 99.0, 50.6 98.4 Q 50.0 97.9, 50.0 96.8 M 52.0 98.5 Q 52.6 98.5, 53.0 98.1 Q 53.3 97.7, 53.3 96.8 Q 53.3 96.0, 53.0 95.6 Q 52.6 95.1, 52.0 95.1 Q 51.3 95.1, 51.0 95.6 Q 50.6 96.0, 50.6 96.8 Q 50.6 97.7, 51.0 98.1 Q 51.3 98.5, 52.0 98.5 " fill="#FF0000"/>
<path class="atom-25" d="M 9.5 97.7 L 10.1 97.7 L 10.1 99.5 L 12.3 99.5 L 12.3 97.7 L 12.8 97.7 L 12.8 101.9 L 12.3 101.9 L 12.3 99.9 L 10.1 99.9 L 10.1 101.9 L 9.5 101.9 L 9.5 97.7 " fill="#FF0000"/>
<path class="atom-25" d="M 13.7 99.8 Q 13.7 98.7, 14.2 98.2 Q 14.7 97.6, 15.7 97.6 Q 16.6 97.6, 17.1 98.2 Q 17.6 98.7, 17.6 99.8 Q 17.6 100.8, 17.1 101.4 Q 16.6 102.0, 15.7 102.0 Q 14.7 102.0, 14.2 101.4 Q 13.7 100.8, 13.7 99.8 M 15.7 101.5 Q 16.3 101.5, 16.7 101.1 Q 17.0 100.6, 17.0 99.8 Q 17.0 98.9, 16.7 98.5 Q 16.3 98.1, 15.7 98.1 Q 15.0 98.1, 14.7 98.5 Q 14.3 98.9, 14.3 99.8 Q 14.3 100.6, 14.7 101.1 Q 15.0 101.5, 15.7 101.5 " fill="#FF0000"/>
<path class="atom-27" d="M 19.1 119.5 L 19.7 119.5 L 19.7 121.3 L 21.9 121.3 L 21.9 119.5 L 22.4 119.5 L 22.4 123.7 L 21.9 123.7 L 21.9 121.8 L 19.7 121.8 L 19.7 123.7 L 19.1 123.7 L 19.1 119.5 " fill="#FF0000"/>
<path class="atom-27" d="M 23.3 121.6 Q 23.3 120.6, 23.8 120.0 Q 24.3 119.5, 25.3 119.5 Q 26.2 119.5, 26.7 120.0 Q 27.2 120.6, 27.2 121.6 Q 27.2 122.6, 26.7 123.2 Q 26.2 123.8, 25.3 123.8 Q 24.3 123.8, 23.8 123.2 Q 23.3 122.7, 23.3 121.6 M 25.3 123.3 Q 25.9 123.3, 26.3 122.9 Q 26.6 122.5, 26.6 121.6 Q 26.6 120.8, 26.3 120.4 Q 25.9 119.9, 25.3 119.9 Q 24.6 119.9, 24.3 120.4 Q 23.9 120.8, 23.9 121.6 Q 23.9 122.5, 24.3 122.9 Q 24.6 123.3, 25.3 123.3 " fill="#FF0000"/>
<path class="atom-29" d="M 45.5 137.9 Q 45.5 136.9, 46.0 136.3 Q 46.6 135.8, 47.5 135.8 Q 48.4 135.8, 48.9 136.3 Q 49.4 136.9, 49.4 137.9 Q 49.4 138.9, 48.9 139.5 Q 48.4 140.1, 47.5 140.1 Q 46.6 140.1, 46.0 139.5 Q 45.5 138.9, 45.5 137.9 M 47.5 139.6 Q 48.1 139.6, 48.5 139.2 Q 48.8 138.8, 48.8 137.9 Q 48.8 137.1, 48.5 136.7 Q 48.1 136.2, 47.5 136.2 Q 46.8 136.2, 46.5 136.7 Q 46.1 137.1, 46.1 137.9 Q 46.1 138.8, 46.5 139.2 Q 46.8 139.6, 47.5 139.6 " fill="#FF0000"/>
<path class="atom-29" d="M 50.1 135.8 L 50.7 135.8 L 50.7 137.6 L 52.9 137.6 L 52.9 135.8 L 53.4 135.8 L 53.4 140.0 L 52.9 140.0 L 52.9 138.1 L 50.7 138.1 L 50.7 140.0 L 50.1 140.0 L 50.1 135.8 " fill="#FF0000"/>
<path class="atom-31" d="M 71.8 124.7 L 73.2 126.9 Q 73.3 127.1, 73.5 127.5 Q 73.8 128.0, 73.8 128.0 L 73.8 124.7 L 74.3 124.7 L 74.3 128.9 L 73.8 128.9 L 72.3 126.5 Q 72.1 126.2, 71.9 125.8 Q 71.7 125.5, 71.7 125.4 L 71.7 128.9 L 71.1 128.9 L 71.1 124.7 L 71.8 124.7 " fill="#0000FF"/>
<path class="atom-31" d="M 75.1 124.7 L 75.7 124.7 L 75.7 126.5 L 77.9 126.5 L 77.9 124.7 L 78.5 124.7 L 78.5 128.9 L 77.9 128.9 L 77.9 127.0 L 75.7 127.0 L 75.7 128.9 L 75.1 128.9 L 75.1 124.7 " fill="#0000FF"/>
<path class="atom-31" d="M 79.3 128.8 Q 79.4 128.5, 79.6 128.4 Q 79.9 128.2, 80.2 128.2 Q 80.7 128.2, 80.9 128.4 Q 81.1 128.7, 81.1 129.1 Q 81.1 129.5, 80.8 129.9 Q 80.5 130.3, 79.9 130.7 L 81.2 130.7 L 81.2 131.0 L 79.3 131.0 L 79.3 130.8 Q 79.8 130.4, 80.1 130.1 Q 80.4 129.9, 80.6 129.6 Q 80.7 129.4, 80.7 129.1 Q 80.7 128.8, 80.6 128.7 Q 80.5 128.5, 80.2 128.5 Q 80.0 128.5, 79.9 128.6 Q 79.7 128.7, 79.6 128.9 L 79.3 128.8 " fill="#0000FF"/>
<path class="atom-32" d="M 114.5 69.3 Q 114.5 68.3, 115.0 67.7 Q 115.5 67.1, 116.5 67.1 Q 117.4 67.1, 117.9 67.7 Q 118.4 68.3, 118.4 69.3 Q 118.4 70.3, 117.9 70.9 Q 117.4 71.5, 116.5 71.5 Q 115.6 71.5, 115.0 70.9 Q 114.5 70.3, 114.5 69.3 M 116.5 71.0 Q 117.1 71.0, 117.5 70.6 Q 117.8 70.1, 117.8 69.3 Q 117.8 68.5, 117.5 68.0 Q 117.1 67.6, 116.5 67.6 Q 115.8 67.6, 115.5 68.0 Q 115.1 68.5, 115.1 69.3 Q 115.1 70.2, 115.5 70.6 Q 115.8 71.0, 116.5 71.0 " fill="#FF0000"/>
<path class="atom-35" d="M 124.2 41.9 L 124.7 41.9 L 124.7 43.7 L 126.9 43.7 L 126.9 41.9 L 127.5 41.9 L 127.5 46.2 L 126.9 46.2 L 126.9 44.2 L 124.7 44.2 L 124.7 46.2 L 124.2 46.2 L 124.2 41.9 " fill="#FF0000"/>
<path class="atom-35" d="M 128.4 44.0 Q 128.4 43.0, 128.9 42.5 Q 129.4 41.9, 130.3 41.9 Q 131.2 41.9, 131.8 42.5 Q 132.3 43.0, 132.3 44.0 Q 132.3 45.1, 131.7 45.7 Q 131.2 46.2, 130.3 46.2 Q 129.4 46.2, 128.9 45.7 Q 128.4 45.1, 128.4 44.0 M 130.3 45.8 Q 131.0 45.8, 131.3 45.3 Q 131.7 44.9, 131.7 44.0 Q 131.7 43.2, 131.3 42.8 Q 131.0 42.4, 130.3 42.4 Q 129.7 42.4, 129.3 42.8 Q 129.0 43.2, 129.0 44.0 Q 129.0 44.9, 129.3 45.3 Q 129.7 45.8, 130.3 45.8 " fill="#FF0000"/>
<path class="atom-37" d="M 175.2 87.2 L 176.6 89.4 Q 176.7 89.6, 177.0 90.0 Q 177.2 90.4, 177.2 90.5 L 177.2 87.2 L 177.8 87.2 L 177.8 91.4 L 177.2 91.4 L 175.7 89.0 Q 175.5 88.7, 175.3 88.3 Q 175.1 88.0, 175.1 87.9 L 175.1 91.4 L 174.5 91.4 L 174.5 87.2 L 175.2 87.2 " fill="#0000FF"/>
<path class="atom-37" d="M 178.6 87.2 L 179.2 87.2 L 179.2 89.0 L 181.3 89.0 L 181.3 87.2 L 181.9 87.2 L 181.9 91.4 L 181.3 91.4 L 181.3 89.5 L 179.2 89.5 L 179.2 91.4 L 178.6 91.4 L 178.6 87.2 " fill="#0000FF"/>
<path class="atom-37" d="M 182.7 91.3 Q 182.8 91.0, 183.1 90.9 Q 183.3 90.7, 183.7 90.7 Q 184.1 90.7, 184.3 90.9 Q 184.6 91.2, 184.6 91.6 Q 184.6 92.0, 184.3 92.4 Q 184.0 92.8, 183.3 93.2 L 184.6 93.2 L 184.6 93.5 L 182.7 93.5 L 182.7 93.3 Q 183.2 92.9, 183.6 92.6 Q 183.9 92.3, 184.0 92.1 Q 184.2 91.8, 184.2 91.6 Q 184.2 91.3, 184.0 91.2 Q 183.9 91.0, 183.7 91.0 Q 183.4 91.0, 183.3 91.1 Q 183.1 91.2, 183.0 91.4 L 182.7 91.3 " fill="#0000FF"/>
<path class="atom-39" d="M 182.6 115.6 Q 182.6 114.5, 183.1 114.0 Q 183.6 113.4, 184.6 113.4 Q 185.5 113.4, 186.0 114.0 Q 186.5 114.5, 186.5 115.6 Q 186.5 116.6, 186.0 117.2 Q 185.5 117.8, 184.6 117.8 Q 183.6 117.8, 183.1 117.2 Q 182.6 116.6, 182.6 115.6 M 184.6 117.3 Q 185.2 117.3, 185.6 116.8 Q 185.9 116.4, 185.9 115.6 Q 185.9 114.7, 185.6 114.3 Q 185.2 113.9, 184.6 113.9 Q 183.9 113.9, 183.6 114.3 Q 183.2 114.7, 183.2 115.6 Q 183.2 116.4, 183.6 116.8 Q 183.9 117.3, 184.6 117.3 " fill="#FF0000"/>
<path class="atom-39" d="M 187.2 113.4 L 187.7 113.4 L 187.7 115.2 L 189.9 115.2 L 189.9 113.4 L 190.5 113.4 L 190.5 117.7 L 189.9 117.7 L 189.9 115.7 L 187.7 115.7 L 187.7 117.7 L 187.2 117.7 L 187.2 113.4 " fill="#FF0000"/>
<path class="atom-41" d="M 164.1 136.0 Q 164.1 134.9, 164.6 134.4 Q 165.1 133.8, 166.0 133.8 Q 167.0 133.8, 167.5 134.4 Q 168.0 134.9, 168.0 136.0 Q 168.0 137.0, 167.5 137.6 Q 167.0 138.2, 166.0 138.2 Q 165.1 138.2, 164.6 137.6 Q 164.1 137.0, 164.1 136.0 M 166.0 137.7 Q 166.7 137.7, 167.0 137.2 Q 167.4 136.8, 167.4 136.0 Q 167.4 135.1, 167.0 134.7 Q 166.7 134.3, 166.0 134.3 Q 165.4 134.3, 165.0 134.7 Q 164.7 135.1, 164.7 136.0 Q 164.7 136.8, 165.0 137.2 Q 165.4 137.7, 166.0 137.7 " fill="#FF0000"/>
<path class="atom-41" d="M 168.6 133.8 L 169.2 133.8 L 169.2 135.6 L 171.4 135.6 L 171.4 133.8 L 172.0 133.8 L 172.0 138.1 L 171.4 138.1 L 171.4 136.1 L 169.2 136.1 L 169.2 138.1 L 168.6 138.1 L 168.6 133.8 " fill="#FF0000"/>
<path class="legend" d="M 45.6 178.5 Q 47.5 178.5, 48.5 179.4 Q 49.5 180.2, 49.5 181.8 Q 49.5 183.4, 48.4 184.3 Q 47.5 185.2, 45.6 185.2 L 43.8 185.2 L 43.8 189.8 L 42.2 189.8 L 42.2 178.5 L 45.6 178.5 M 45.6 183.9 Q 46.7 183.9, 47.3 183.4 Q 47.9 182.8, 47.9 181.8 Q 47.9 180.8, 47.3 180.3 Q 46.7 179.8, 45.6 179.8 L 43.8 179.8 L 43.8 183.9 L 45.6 183.9 " fill="#000000"/>
<path class="legend" d="M 59.5 189.8 L 58.3 186.5 L 53.8 186.5 L 52.6 189.8 L 51.1 189.8 L 55.0 178.5 L 56.9 178.5 L 61.0 189.8 L 59.5 189.8 M 54.2 185.2 L 57.8 185.2 L 56.0 180.1 L 54.2 185.2 " fill="#000000"/>
<path class="legend" d="M 68.2 189.8 L 65.4 185.2 L 65.4 185.2 L 63.6 185.2 L 63.6 189.8 L 62.0 189.8 L 62.0 178.5 L 65.4 178.5 Q 67.3 178.5, 68.3 179.4 Q 69.3 180.2, 69.3 181.8 Q 69.3 183.0, 68.7 183.8 Q 68.1 184.6, 67.0 185.0 L 69.8 189.8 L 68.2 189.8 M 63.6 183.9 L 65.4 183.9 Q 66.5 183.9, 67.1 183.4 Q 67.7 182.8, 67.7 181.8 Q 67.7 180.8, 67.1 180.3 Q 66.5 179.8, 65.4 179.8 L 63.6 179.8 L 63.6 183.9 " fill="#000000"/>
<path class="legend" d="M 71.1 184.1 Q 71.1 181.4, 72.5 179.9 Q 73.8 178.4, 76.3 178.4 Q 78.8 178.4, 80.2 179.9 Q 81.5 181.4, 81.5 184.1 Q 81.5 186.9, 80.2 188.4 Q 78.8 190.0, 76.3 190.0 Q 73.8 190.0, 72.5 188.4 Q 71.1 186.9, 71.1 184.1 M 76.3 188.7 Q 78.1 188.7, 79.0 187.6 Q 79.9 186.4, 79.9 184.1 Q 79.9 181.9, 79.0 180.8 Q 78.1 179.6, 76.3 179.6 Q 74.6 179.6, 73.7 180.8 Q 72.7 181.9, 72.7 184.1 Q 72.7 186.4, 73.7 187.6 Q 74.6 188.7, 76.3 188.7 " fill="#000000"/>
<path class="legend" d="M 96.2 189.8 L 94.7 189.8 L 93.5 180.6 L 90.5 189.8 L 88.9 189.8 L 85.9 180.6 L 84.7 189.8 L 83.2 189.8 L 84.7 178.5 L 86.6 178.5 L 89.7 187.6 L 92.8 178.5 L 94.7 178.5 L 96.2 189.8 " fill="#000000"/>
<path class="legend" d="M 98.1 184.1 Q 98.1 181.4, 99.5 179.9 Q 100.8 178.4, 103.3 178.4 Q 105.8 178.4, 107.2 179.9 Q 108.5 181.4, 108.5 184.1 Q 108.5 186.9, 107.2 188.4 Q 105.8 190.0, 103.3 190.0 Q 100.8 190.0, 99.5 188.4 Q 98.1 186.9, 98.1 184.1 M 103.3 188.7 Q 105.0 188.7, 106.0 187.6 Q 106.9 186.4, 106.9 184.1 Q 106.9 181.9, 106.0 180.8 Q 105.0 179.6, 103.3 179.6 Q 101.6 179.6, 100.6 180.8 Q 99.7 181.9, 99.7 184.1 Q 99.7 186.4, 100.6 187.6 Q 101.6 188.7, 103.3 188.7 " fill="#000000"/>
<path class="legend" d="M 123.2 189.8 L 121.7 189.8 L 120.5 180.6 L 117.5 189.8 L 115.9 189.8 L 112.9 180.6 L 111.7 189.8 L 110.2 189.8 L 111.7 178.5 L 113.6 178.5 L 116.7 187.6 L 119.8 178.5 L 121.7 178.5 L 123.2 189.8 " fill="#000000"/>
<path class="legend" d="M 128.9 185.1 L 125.1 178.5 L 126.8 178.5 L 129.6 183.6 L 132.5 178.5 L 134.1 178.5 L 130.4 185.1 L 130.4 189.8 L 128.9 189.8 L 128.9 185.1 " fill="#000000"/>
<path class="legend" d="M 135.1 184.1 Q 135.1 181.3, 136.4 179.9 Q 137.7 178.4, 140.2 178.4 Q 142.6 178.4, 143.8 180.0 L 142.8 180.9 Q 141.8 179.7, 140.2 179.7 Q 138.5 179.7, 137.6 180.8 Q 136.7 182.0, 136.7 184.1 Q 136.7 186.4, 137.6 187.5 Q 138.6 188.7, 140.4 188.7 Q 141.6 188.7, 143.1 187.9 L 143.6 189.1 Q 143.0 189.5, 142.1 189.7 Q 141.2 190.0, 140.2 190.0 Q 137.7 190.0, 136.4 188.5 Q 135.1 187.0, 135.1 184.1 " fill="#000000"/>
<path class="legend" d="M 145.4 178.4 L 146.9 178.4 L 146.9 189.8 L 145.4 189.8 L 145.4 178.4 " fill="#000000"/>
<path class="legend" d="M 151.0 178.5 L 154.7 184.5 Q 155.1 185.1, 155.6 186.2 Q 156.2 187.2, 156.3 187.3 L 156.3 178.5 L 157.8 178.5 L 157.8 189.8 L 156.2 189.8 L 152.2 183.3 Q 151.8 182.5, 151.3 181.6 Q 150.8 180.7, 150.7 180.5 L 150.7 189.8 L 149.2 189.8 L 149.2 178.5 L 151.0 178.5 " fill="#000000"/>
<path class="bond-0 atom-0 atom-1" d="M 376.7,98.0 L 377.1,92.4" style="fill:none;fill-rule:evenodd;stroke:#FF0000;stroke-width:2.0px;stroke-linecap:butt;stroke-linejoin:miter;stroke-opacity:1"/>
<path class="bond-0 atom-0 atom-1" d="M 377.1,92.4 L 377.5,86.8" style="fill:none;fill-rule:evenodd;stroke:#000000;stroke-width:2.0px;stroke-linecap:butt;stroke-linejoin:miter;stroke-opacity:1"/>
<path class="bond-1 atom-1 atom-2" d="M 377.5,86.8 L 366.1,79.0" style="fill:none;fill-rule:evenodd;stroke:#000000;stroke-width:2.0px;stroke-linecap:butt;stroke-linejoin:miter;stroke-opacity:1"/>
<path class="bond-2 atom-2 atom-3" d="M 366.1,79.0 L 361.1,81.5" style="fill:none;fill-rule:evenodd;stroke:#000000;stroke-width:2.0px;stroke-linecap:butt;stroke-linejoin:miter;stroke-opacity:1"/>
<path class="bond-2 atom-2 atom-3" d="M 361.1,81.5 L 356.1,83.9" style="fill:none;fill-rule:evenodd;stroke:#FF0000;stroke-width:2.0px;stroke-linecap:butt;stroke-linejoin:miter;stroke-opacity:1"/>
<path class="bond-3 atom-3 atom-4" d="M 351.3,83.4 L 346.8,80.3" style="fill:none;fill-rule:evenodd;stroke:#FF0000;stroke-width:2.0px;stroke-linecap:butt;stroke-linejoin:miter;stroke-opacity:1"/>
<path class="bond-3 atom-3 atom-4" d="M 346.8,80.3 L 342.3,77.2" style="fill:none;fill-rule:evenodd;stroke:#000000;stroke-width:2.0px;stroke-linecap:butt;stroke-linejoin:miter;stroke-opacity:1"/>
<path class="bond-4 atom-4 atom-5" d="M 342.3,77.2 L 337.3,79.7" style="fill:none;fill-rule:evenodd;stroke:#000000;stroke-width:2.0px;stroke-linecap:butt;stroke-linejoin:miter;stroke-opacity:1"/>
<path class="bond-4 atom-4 atom-5" d="M 337.3,79.7 L 332.3,82.1" style="fill:none;fill-rule:evenodd;stroke:#FF0000;stroke-width:2.0px;stroke-linecap:butt;stroke-linejoin:miter;stroke-opacity:1"/>
<path class="bond-5 atom-5 atom-6" d="M 329.7,85.9 L 329.3,91.4" style="fill:none;fill-rule:evenodd;stroke:#FF0000;stroke-width:2.0px;stroke-linecap:butt;stroke-linejoin:miter;stroke-opacity:1"/>
<path class="bond-5 atom-5 atom-6" d="M 329.3,91.4 L 328.9,97.0" style="fill:none;fill-rule:evenodd;stroke:#000000;stroke-width:2.0px;stroke-linecap:butt;stroke-linejoin:miter;stroke-opacity:1"/>
<path class="bond-6 atom-6 atom-7" d="M 328.9,97.0 L 316.5,102.9" style="fill:none;fill-rule:evenodd;stroke:#000000;stroke-width:2.0px;stroke-linecap:butt;stroke-linejoin:miter;stroke-opacity:1"/>
<path class="bond-7 atom-7 atom-8" d="M 316.5,102.9 L 312.0,99.9" style="fill:none;fill-rule:evenodd;stroke:#000000;stroke-width:2.0px;stroke-linecap:butt;stroke-linejoin:miter;stroke-opacity:1"/>
<path class="bond-7 atom-7 atom-8" d="M 312.0,99.9 L 307.5,96.8" style="fill:none;fill-rule:evenodd;stroke:#FF0000;stroke-width:2.0px;stroke-linecap:butt;stroke-linejoin:miter;stroke-opacity:1"/>
<path class="bond-8 atom-8 atom-9" d="M 302.7,96.3 L 297.7,98.7" style="fill:none;fill-rule:evenodd;stroke:#FF0000;stroke-width:2.0px;stroke-linecap:butt;stroke-linejoin:miter;stroke-opacity:1"/>
<path class="bond-8 atom-8 atom-9" d="M 297.7,98.7 L 292.7,101.1" style="fill:none;fill-rule:evenodd;stroke:#000000;stroke-width:2.0px;stroke-linecap:butt;stroke-linejoin:miter;stroke-opacity:1"/>
<path class="bond-9 atom-9 atom-10" d="M 292.7,101.1 L 291.7,106.6" style="fill:none;fill-rule:evenodd;stroke:#000000;stroke-width:2.0px;stroke-linecap:butt;stroke-linejoin:miter;stroke-opacity:1"/>
<path class="bond-9 atom-9 atom-10" d="M 291.7,106.6 L 290.7,112.1" style="fill:none;fill-rule:evenodd;stroke:#FF0000;stroke-width:2.0px;stroke-linecap:butt;stroke-linejoin:miter;stroke-opacity:1"/>
<path class="bond-10 atom-10 atom-11" d="M 287.8,115.0 L 282.2,115.8" style="fill:none;fill-rule:evenodd;stroke:#FF0000;stroke-width:2.0px;stroke-linecap:butt;stroke-linejoin:miter;stroke-opacity:1"/>
<path class="bond-10 atom-10 atom-11" d="M 282.2,115.8 L 276.5,116.5" style="fill:none;fill-rule:evenodd;stroke:#000000;stroke-width:2.0px;stroke-linecap:butt;stroke-linejoin:miter;stroke-opacity:1"/>
<path class="bond-11 atom-11 atom-12" d="M 276.5,116.5 L 270.0,128.7" style="fill:none;fill-rule:evenodd;stroke:#000000;stroke-width:2.0px;stroke-linecap:butt;stroke-linejoin:miter;stroke-opacity:1"/>
<path class="bond-12 atom-12 atom-13" d="M 270.0,128.7 L 264.3,128.8" style="fill:none;fill-rule:evenodd;stroke:#000000;stroke-width:2.0px;stroke-linecap:butt;stroke-linejoin:miter;stroke-opacity:1"/>
<path class="bond-12 atom-12 atom-13" d="M 264.3,128.8 L 258.6,129.0" style="fill:none;fill-rule:evenodd;stroke:#FF0000;stroke-width:2.0px;stroke-linecap:butt;stroke-linejoin:miter;stroke-opacity:1"/>
<path class="bond-13 atom-11 atom-14" d="M 276.5,116.5 L 270.6,104.1" style="fill:none;fill-rule:evenodd;stroke:#000000;stroke-width:2.0px;stroke-linecap:butt;stroke-linejoin:miter;stroke-opacity:1"/>
<path class="bond-14 atom-14 atom-15" d="M 270.6,104.1 L 265.0,103.1" style="fill:none;fill-rule:evenodd;stroke:#000000;stroke-width:2.0px;stroke-linecap:butt;stroke-linejoin:miter;stroke-opacity:1"/>
<path class="bond-14 atom-14 atom-15" d="M 265.0,103.1 L 259.4,102.1" style="fill:none;fill-rule:evenodd;stroke:#FF0000;stroke-width:2.0px;stroke-linecap:butt;stroke-linejoin:miter;stroke-opacity:1"/>
<path class="bond-15 atom-15 atom-16" d="M 256.1,99.0 L 254.2,93.8" style="fill:none;fill-rule:evenodd;stroke:#FF0000;stroke-width:2.0px;stroke-linecap:butt;stroke-linejoin:miter;stroke-opacity:1"/>
<path class="bond-15 atom-15 atom-16" d="M 254.2,93.8 L 252.4,88.7" style="fill:none;fill-rule:evenodd;stroke:#000000;stroke-width:2.0px;stroke-linecap:butt;stroke-linejoin:miter;stroke-opacity:1"/>
<path class="bond-16 atom-16 atom-17" d="M 252.4,88.7 L 255.7,84.7" style="fill:none;fill-rule:evenodd;stroke:#000000;stroke-width:2.0px;stroke-linecap:butt;stroke-linejoin:miter;stroke-opacity:1"/>
<path class="bond-16 atom-16 atom-17" d="M 255.7,84.7 L 259.0,80.8" style="fill:none;fill-rule:evenodd;stroke:#FF0000;stroke-width:2.0px;stroke-linecap:butt;stroke-linejoin:miter;stroke-opacity:1"/>
<path class="bond-17 atom-17 atom-18" d="M 260.4,75.5 L 258.5,70.4" style="fill:none;fill-rule:evenodd;stroke:#FF0000;stroke-width:2.0px;stroke-linecap:butt;stroke-linejoin:miter;stroke-opacity:1"/>
<path class="bond-17 atom-17 atom-18" d="M 258.5,70.4 L 256.6,65.2" style="fill:none;fill-rule:evenodd;stroke:#000000;stroke-width:2.0px;stroke-linecap:butt;stroke-linejoin:miter;stroke-opacity:1"/>
<path class="bond-18 atom-18 atom-19" d="M 256.6,65.2 L 265.6,54.7" style="fill:none;fill-rule:evenodd;stroke:#000000;stroke-width:2.0px;stroke-linecap:butt;stroke-linejoin:miter;stroke-opacity:1"/>
<path class="bond-19 atom-19 atom-20" d="M 265.6,54.7 L 263.7,49.5" style="fill:none;fill-rule:evenodd;stroke:#000000;stroke-width:2.0px;stroke-linecap:butt;stroke-linejoin:miter;stroke-opacity:1"/>
<path class="bond-19 atom-19 atom-20" d="M 263.7,49.5 L 261.8,44.3" style="fill:none;fill-rule:evenodd;stroke:#0000FF;stroke-width:2.0px;stroke-linecap:butt;stroke-linejoin:miter;stroke-opacity:1"/>
<path class="bond-20 atom-18 atom-21" d="M 256.6,65.2 L 243.1,62.7" style="fill:none;fill-rule:evenodd;stroke:#000000;stroke-width:2.0px;stroke-linecap:butt;stroke-linejoin:miter;stroke-opacity:1"/>
<path class="bond-21 atom-21 atom-22" d="M 243.1,62.7 L 241.2,57.6" style="fill:none;fill-rule:evenodd;stroke:#000000;stroke-width:2.0px;stroke-linecap:butt;stroke-linejoin:miter;stroke-opacity:1"/>
<path class="bond-21 atom-21 atom-22" d="M 241.2,57.6 L 239.4,52.4" style="fill:none;fill-rule:evenodd;stroke:#FF0000;stroke-width:2.0px;stroke-linecap:butt;stroke-linejoin:miter;stroke-opacity:1"/>
<path class="bond-22 atom-21 atom-23" d="M 243.1,62.7 L 234.2,73.2" style="fill:none;fill-rule:evenodd;stroke:#000000;stroke-width:2.0px;stroke-linecap:butt;stroke-linejoin:miter;stroke-opacity:1"/>
<path class="bond-23 atom-23 atom-24" d="M 234.2,73.2 L 228.6,72.2" style="fill:none;fill-rule:evenodd;stroke:#000000;stroke-width:2.0px;stroke-linecap:butt;stroke-linejoin:miter;stroke-opacity:1"/>
<path class="bond-23 atom-23 atom-24" d="M 228.6,72.2 L 223.0,71.2" style="fill:none;fill-rule:evenodd;stroke:#FF0000;stroke-width:2.0px;stroke-linecap:butt;stroke-linejoin:miter;stroke-opacity:1"/>
<path class="bond-24 atom-23 atom-25" d="M 234.2,73.2 L 238.8,86.2" style="fill:none;fill-rule:evenodd;stroke:#000000;stroke-width:2.0px;stroke-linecap:butt;stroke-linejoin:miter;stroke-opacity:1"/>
<path class="bond-25 atom-25 atom-26" d="M 238.8,86.2 L 235.4,90.2" style="fill:none;fill-rule:evenodd;stroke:#000000;stroke-width:2.0px;stroke-linecap:butt;stroke-linejoin:miter;stroke-opacity:1"/>
<path class="bond-25 atom-25 atom-26" d="M 235.4,90.2 L 232.0,94.3" style="fill:none;fill-rule:evenodd;stroke:#0000FF;stroke-width:2.0px;stroke-linecap:butt;stroke-linejoin:miter;stroke-opacity:1"/>
<path class="bond-26 atom-14 atom-27" d="M 270.6,104.1 L 280.5,94.6" style="fill:none;fill-rule:evenodd;stroke:#000000;stroke-width:2.0px;stroke-linecap:butt;stroke-linejoin:miter;stroke-opacity:1"/>
<path class="bond-27 atom-27 atom-28" d="M 280.5,94.6 L 279.8,89.1" style="fill:none;fill-rule:evenodd;stroke:#000000;stroke-width:2.0px;stroke-linecap:butt;stroke-linejoin:miter;stroke-opacity:1"/>
<path class="bond-27 atom-27 atom-28" d="M 279.8,89.1 L 279.0,83.6" style="fill:none;fill-rule:evenodd;stroke:#FF0000;stroke-width:2.0px;stroke-linecap:butt;stroke-linejoin:miter;stroke-opacity:1"/>
<path class="bond-28 atom-7 atom-29" d="M 316.5,102.9 L 315.4,116.7" style="fill:none;fill-rule:evenodd;stroke:#000000;stroke-width:2.0px;stroke-linecap:butt;stroke-linejoin:miter;stroke-opacity:1"/>
<path class="bond-29 atom-29 atom-30" d="M 315.4,116.7 L 310.4,119.1" style="fill:none;fill-rule:evenodd;stroke:#000000;stroke-width:2.0px;stroke-linecap:butt;stroke-linejoin:miter;stroke-opacity:1"/>
<path class="bond-29 atom-29 atom-30" d="M 310.4,119.1 L 305.4,121.5" style="fill:none;fill-rule:evenodd;stroke:#FF0000;stroke-width:2.0px;stroke-linecap:butt;stroke-linejoin:miter;stroke-opacity:1"/>
<path class="bond-30 atom-29 atom-31" d="M 315.4,116.7 L 326.8,124.4" style="fill:none;fill-rule:evenodd;stroke:#000000;stroke-width:2.0px;stroke-linecap:butt;stroke-linejoin:miter;stroke-opacity:1"/>
<path class="bond-31 atom-31 atom-32" d="M 326.8,124.4 L 326.4,130.0" style="fill:none;fill-rule:evenodd;stroke:#000000;stroke-width:2.0px;stroke-linecap:butt;stroke-linejoin:miter;stroke-opacity:1"/>
<path class="bond-31 atom-31 atom-32" d="M 326.4,130.0 L 326.0,135.6" style="fill:none;fill-rule:evenodd;stroke:#0000FF;stroke-width:2.0px;stroke-linecap:butt;stroke-linejoin:miter;stroke-opacity:1"/>
<path class="bond-32 atom-31 atom-33" d="M 326.8,124.4 L 339.2,118.5" style="fill:none;fill-rule:evenodd;stroke:#000000;stroke-width:2.0px;stroke-linecap:butt;stroke-linejoin:miter;stroke-opacity:1"/>
<path class="bond-33 atom-33 atom-34" d="M 339.2,118.5 L 340.3,104.7" style="fill:none;fill-rule:evenodd;stroke:#000000;stroke-width:2.0px;stroke-linecap:butt;stroke-linejoin:miter;stroke-opacity:1"/>
<path class="bond-34 atom-34 atom-35" d="M 340.3,104.7 L 345.4,102.2" style="fill:none;fill-rule:evenodd;stroke:#000000;stroke-width:2.0px;stroke-linecap:butt;stroke-linejoin:miter;stroke-opacity:1"/>
<path class="bond-34 atom-34 atom-35" d="M 345.4,102.2 L 350.6,99.8" style="fill:none;fill-rule:evenodd;stroke:#0000FF;stroke-width:2.0px;stroke-linecap:butt;stroke-linejoin:miter;stroke-opacity:1"/>
<path class="bond-35 atom-4 atom-36" d="M 342.3,77.2 L 343.4,63.5" style="fill:none;fill-rule:evenodd;stroke:#000000;stroke-width:2.0px;stroke-linecap:butt;stroke-linejoin:miter;stroke-opacity:1"/>
<path class="bond-36 atom-36 atom-37" d="M 343.4,63.5 L 338.7,60.3" style="fill:none;fill-rule:evenodd;stroke:#000000;stroke-width:2.0px;stroke-linecap:butt;stroke-linejoin:miter;stroke-opacity:1"/>
<path class="bond-36 atom-36 atom-37" d="M 338.7,60.3 L 334.1,57.1" style="fill:none;fill-rule:evenodd;stroke:#0000FF;stroke-width:2.0px;stroke-linecap:butt;stroke-linejoin:miter;stroke-opacity:1"/>
<path class="bond-37 atom-36 atom-38" d="M 343.4,63.5 L 355.8,57.5" style="fill:none;fill-rule:evenodd;stroke:#000000;stroke-width:2.0px;stroke-linecap:butt;stroke-linejoin:miter;stroke-opacity:1"/>
<path class="bond-38 atom-38 atom-39" d="M 355.8,57.5 L 356.2,52.0" style="fill:none;fill-rule:evenodd;stroke:#000000;stroke-width:2.0px;stroke-linecap:butt;stroke-linejoin:miter;stroke-opacity:1"/>
<path class="bond-38 atom-38 atom-39" d="M 356.2,52.0 L 356.6,46.5" style="fill:none;fill-rule:evenodd;stroke:#FF0000;stroke-width:2.0px;stroke-linecap:butt;stroke-linejoin:miter;stroke-opacity:1"/>
<path class="bond-39 atom-38 atom-40" d="M 355.8,57.5 L 367.2,65.3" style="fill:none;fill-rule:evenodd;stroke:#000000;stroke-width:2.0px;stroke-linecap:butt;stroke-linejoin:miter;stroke-opacity:1"/>
<path class="bond-40 atom-40 atom-41" d="M 367.2,65.3 L 372.2,62.9" style="fill:none;fill-rule:evenodd;stroke:#000000;stroke-width:2.0px;stroke-linecap:butt;stroke-linejoin:miter;stroke-opacity:1"/>
<path class="bond-40 atom-40 atom-41" d="M 372.2,62.9 L 377.2,60.5" style="fill:none;fill-rule:evenodd;stroke:#FF0000;stroke-width:2.0px;stroke-linecap:butt;stroke-linejoin:miter;stroke-opacity:1"/>
<path class="bond-41 atom-40 atom-2" d="M 367.2,65.3 L 366.1,79.0" style="fill:none;fill-rule:evenodd;stroke:#000000;stroke-width:2.0px;stroke-linecap:butt;stroke-linejoin:miter;stroke-opacity:1"/>
<path class="bond-42 atom-34 atom-6" d="M 340.3,104.7 L 328.9,97.0" style="fill:none;fill-rule:evenodd;stroke:#000000;stroke-width:2.0px;stroke-linecap:butt;stroke-linejoin:miter;stroke-opacity:1"/>
<path class="bond-43 atom-27 atom-9" d="M 280.5,94.6 L 292.7,101.1" style="fill:none;fill-rule:evenodd;stroke:#000000;stroke-width:2.0px;stroke-linecap:butt;stroke-linejoin:miter;stroke-opacity:1"/>
<path class="bond-44 atom-25 atom-16" d="M 238.8,86.2 L 252.4,88.7" style="fill:none;fill-rule:evenodd;stroke:#000000;stroke-width:2.0px;stroke-linecap:butt;stroke-linejoin:miter;stroke-opacity:1"/>
<path d="M 377.5,87.1 L 377.5,86.8 L 377.0,86.4" style="fill:none;stroke:#000000;stroke-width:2.0px;stroke-linecap:butt;stroke-linejoin:miter;stroke-opacity:1;"/>
<path d="M 270.3,128.1 L 270.0,128.7 L 269.7,128.7" style="fill:none;stroke:#000000;stroke-width:2.0px;stroke-linecap:butt;stroke-linejoin:miter;stroke-opacity:1;"/>
<path d="M 265.1,55.2 L 265.6,54.7 L 265.5,54.4" style="fill:none;stroke:#000000;stroke-width:2.0px;stroke-linecap:butt;stroke-linejoin:miter;stroke-opacity:1;"/>
<path d="M 338.6,118.8 L 339.2,118.5 L 339.3,117.8" style="fill:none;stroke:#000000;stroke-width:2.0px;stroke-linecap:butt;stroke-linejoin:miter;stroke-opacity:1;"/>
<path class="atom-0" d="M 374.5 100.6 Q 374.5 99.6, 375.0 99.0 Q 375.5 98.4, 376.5 98.4 Q 377.4 98.4, 377.9 99.0 Q 378.4 99.6, 378.4 100.6 Q 378.4 101.6, 377.9 102.2 Q 377.4 102.8, 376.5 102.8 Q 375.5 102.8, 375.0 102.2 Q 374.5 101.6, 374.5 100.6 M 376.5 102.3 Q 377.1 102.3, 377.5 101.9 Q 377.8 101.4, 377.8 100.6 Q 377.8 99.7, 377.5 99.3 Q 377.1 98.9, 376.5 98.9 Q 375.8 98.9, 375.5 99.3 Q 375.1 99.7, 375.1 100.6 Q 375.1 101.4, 375.5 101.9 Q 375.8 102.3, 376.5 102.3 " fill="#FF0000"/>
<path class="atom-0" d="M 379.1 98.5 L 379.7 98.5 L 379.7 100.3 L 381.8 100.3 L 381.8 98.5 L 382.4 98.5 L 382.4 102.7 L 381.8 102.7 L 381.8 100.7 L 379.7 100.7 L 379.7 102.7 L 379.1 102.7 L 379.1 98.5 " fill="#FF0000"/>
<path class="atom-3" d="M 351.8 85.0 Q 351.8 84.0, 352.3 83.4 Q 352.8 82.9, 353.7 82.9 Q 354.7 82.9, 355.2 83.4 Q 355.7 84.0, 355.7 85.0 Q 355.7 86.1, 355.2 86.6 Q 354.7 87.2, 353.7 87.2 Q 352.8 87.2, 352.3 86.6 Q 351.8 86.1, 351.8 85.0 M 353.7 86.8 Q 354.4 86.8, 354.7 86.3 Q 355.1 85.9, 355.1 85.0 Q 355.1 84.2, 354.7 83.8 Q 354.4 83.3, 353.7 83.3 Q 353.1 83.3, 352.7 83.8 Q 352.4 84.2, 352.4 85.0 Q 352.4 85.9, 352.7 86.3 Q 353.1 86.8, 353.7 86.8 " fill="#FF0000"/>
<path class="atom-5" d="M 328.0 83.2 Q 328.0 82.2, 328.5 81.6 Q 329.0 81.1, 329.9 81.1 Q 330.9 81.1, 331.4 81.6 Q 331.9 82.2, 331.9 83.2 Q 331.9 84.3, 331.4 84.8 Q 330.9 85.4, 329.9 85.4 Q 329.0 85.4, 328.5 84.8 Q 328.0 84.3, 328.0 83.2 M 329.9 85.0 Q 330.6 85.0, 330.9 84.5 Q 331.3 84.1, 331.3 83.2 Q 331.3 82.4, 330.9 82.0 Q 330.6 81.5, 329.9 81.5 Q 329.3 81.5, 328.9 82.0 Q 328.6 82.4, 328.6 83.2 Q 328.6 84.1, 328.9 84.5 Q 329.3 85.0, 329.9 85.0 " fill="#FF0000"/>
<path class="atom-8" d="M 303.1 95.2 Q 303.1 94.1, 303.6 93.6 Q 304.1 93.0, 305.1 93.0 Q 306.0 93.0, 306.5 93.6 Q 307.0 94.1, 307.0 95.2 Q 307.0 96.2, 306.5 96.8 Q 306.0 97.4, 305.1 97.4 Q 304.1 97.4, 303.6 96.8 Q 303.1 96.2, 303.1 95.2 M 305.1 96.9 Q 305.7 96.9, 306.1 96.5 Q 306.4 96.0, 306.4 95.2 Q 306.4 94.3, 306.1 93.9 Q 305.7 93.5, 305.1 93.5 Q 304.4 93.5, 304.1 93.9 Q 303.7 94.3, 303.7 95.2 Q 303.7 96.0, 304.1 96.5 Q 304.4 96.9, 305.1 96.9 " fill="#FF0000"/>
<path class="atom-10" d="M 288.2 114.7 Q 288.2 113.7, 288.7 113.1 Q 289.2 112.5, 290.2 112.5 Q 291.1 112.5, 291.6 113.1 Q 292.1 113.7, 292.1 114.7 Q 292.1 115.7, 291.6 116.3 Q 291.1 116.9, 290.2 116.9 Q 289.3 116.9, 288.7 116.3 Q 288.2 115.7, 288.2 114.7 M 290.2 116.4 Q 290.8 116.4, 291.2 116.0 Q 291.5 115.5, 291.5 114.7 Q 291.5 113.9, 291.2 113.4 Q 290.8 113.0, 290.2 113.0 Q 289.5 113.0, 289.2 113.4 Q 288.8 113.9, 288.8 114.7 Q 288.8 115.6, 289.2 116.0 Q 289.5 116.4, 290.2 116.4 " fill="#FF0000"/>
<path class="atom-13" d="M 250.1 127.0 L 250.6 127.0 L 250.6 128.8 L 252.8 128.8 L 252.8 127.0 L 253.4 127.0 L 253.4 131.2 L 252.8 131.2 L 252.8 129.2 L 250.6 129.2 L 250.6 131.2 L 250.1 131.2 L 250.1 127.0 " fill="#FF0000"/>
<path class="atom-13" d="M 254.3 129.1 Q 254.3 128.1, 254.8 127.5 Q 255.3 126.9, 256.2 126.9 Q 257.2 126.9, 257.7 127.5 Q 258.2 128.1, 258.2 129.1 Q 258.2 130.1, 257.7 130.7 Q 257.1 131.3, 256.2 131.3 Q 255.3 131.3, 254.8 130.7 Q 254.3 130.1, 254.3 129.1 M 256.2 130.8 Q 256.9 130.8, 257.2 130.4 Q 257.6 129.9, 257.6 129.1 Q 257.6 128.2, 257.2 127.8 Q 256.9 127.4, 256.2 127.4 Q 255.6 127.4, 255.2 127.8 Q 254.9 128.2, 254.9 129.1 Q 254.9 129.9, 255.2 130.4 Q 255.6 130.8, 256.2 130.8 " fill="#FF0000"/>
<path class="atom-15" d="M 255.1 101.6 Q 255.1 100.6, 255.6 100.1 Q 256.1 99.5, 257.0 99.5 Q 257.9 99.5, 258.4 100.1 Q 259.0 100.6, 259.0 101.6 Q 259.0 102.7, 258.4 103.3 Q 257.9 103.8, 257.0 103.8 Q 256.1 103.8, 255.6 103.3 Q 255.1 102.7, 255.1 101.6 M 257.0 103.4 Q 257.7 103.4, 258.0 102.9 Q 258.4 102.5, 258.4 101.6 Q 258.4 100.8, 258.0 100.4 Q 257.7 100.0, 257.0 100.0 Q 256.4 100.0, 256.0 100.4 Q 255.7 100.8, 255.7 101.6 Q 255.7 102.5, 256.0 102.9 Q 256.4 103.4, 257.0 103.4 " fill="#FF0000"/>
<path class="atom-17" d="M 259.3 78.2 Q 259.3 77.1, 259.8 76.6 Q 260.3 76.0, 261.3 76.0 Q 262.2 76.0, 262.7 76.6 Q 263.2 77.1, 263.2 78.2 Q 263.2 79.2, 262.7 79.8 Q 262.2 80.4, 261.3 80.4 Q 260.3 80.4, 259.8 79.8 Q 259.3 79.2, 259.3 78.2 M 261.3 79.9 Q 261.9 79.9, 262.3 79.5 Q 262.6 79.0, 262.6 78.2 Q 262.6 77.3, 262.3 76.9 Q 261.9 76.5, 261.3 76.5 Q 260.6 76.5, 260.3 76.9 Q 259.9 77.3, 259.9 78.2 Q 259.9 79.0, 260.3 79.5 Q 260.6 79.9, 261.3 79.9 " fill="#FF0000"/>
<path class="atom-20" d="M 260.0 39.6 L 261.4 41.8 Q 261.5 42.0, 261.7 42.4 Q 262.0 42.8, 262.0 42.9 L 262.0 39.6 L 262.5 39.6 L 262.5 43.8 L 261.9 43.8 L 260.5 41.4 Q 260.3 41.1, 260.1 40.7 Q 259.9 40.4, 259.9 40.3 L 259.9 43.8 L 259.3 43.8 L 259.3 39.6 L 260.0 39.6 " fill="#0000FF"/>
<path class="atom-20" d="M 263.3 39.6 L 263.9 39.6 L 263.9 41.4 L 266.1 41.4 L 266.1 39.6 L 266.7 39.6 L 266.7 43.8 L 266.1 43.8 L 266.1 41.9 L 263.9 41.9 L 263.9 43.8 L 263.3 43.8 L 263.3 39.6 " fill="#0000FF"/>
<path class="atom-20" d="M 267.5 43.7 Q 267.6 43.4, 267.8 43.3 Q 268.1 43.1, 268.4 43.1 Q 268.9 43.1, 269.1 43.3 Q 269.3 43.6, 269.3 44.0 Q 269.3 44.4, 269.0 44.8 Q 268.7 45.2, 268.1 45.6 L 269.4 45.6 L 269.4 45.9 L 267.5 45.9 L 267.5 45.7 Q 268.0 45.3, 268.3 45.0 Q 268.6 44.7, 268.8 44.5 Q 268.9 44.2, 268.9 44.0 Q 268.9 43.7, 268.8 43.6 Q 268.7 43.4, 268.4 43.4 Q 268.2 43.4, 268.1 43.5 Q 267.9 43.6, 267.8 43.8 L 267.5 43.7 " fill="#0000FF"/>
<path class="atom-22" d="M 236.5 49.7 Q 236.5 48.7, 237.0 48.2 Q 237.5 47.6, 238.4 47.6 Q 239.4 47.6, 239.9 48.2 Q 240.4 48.7, 240.4 49.7 Q 240.4 50.8, 239.9 51.4 Q 239.4 51.9, 238.4 51.9 Q 237.5 51.9, 237.0 51.4 Q 236.5 50.8, 236.5 49.7 M 238.4 51.5 Q 239.1 51.5, 239.4 51.0 Q 239.8 50.6, 239.8 49.7 Q 239.8 48.9, 239.4 48.5 Q 239.1 48.1, 238.4 48.1 Q 237.8 48.1, 237.4 48.5 Q 237.1 48.9, 237.1 49.7 Q 237.1 50.6, 237.4 51.0 Q 237.8 51.5, 238.4 51.5 " fill="#FF0000"/>
<path class="atom-22" d="M 241.1 47.6 L 241.6 47.6 L 241.6 49.4 L 243.8 49.4 L 243.8 47.6 L 244.4 47.6 L 244.4 51.9 L 243.8 51.9 L 243.8 49.9 L 241.6 49.9 L 241.6 51.9 L 241.1 51.9 L 241.1 47.6 " fill="#FF0000"/>
<path class="atom-24" d="M 214.5 68.6 L 215.0 68.6 L 215.0 70.4 L 217.2 70.4 L 217.2 68.6 L 217.8 68.6 L 217.8 72.9 L 217.2 72.9 L 217.2 70.9 L 215.0 70.9 L 215.0 72.9 L 214.5 72.9 L 214.5 68.6 " fill="#FF0000"/>
<path class="atom-24" d="M 218.7 70.8 Q 218.7 69.7, 219.2 69.2 Q 219.7 68.6, 220.6 68.6 Q 221.5 68.6, 222.1 69.2 Q 222.6 69.7, 222.6 70.8 Q 222.6 71.8, 222.0 72.4 Q 221.5 73.0, 220.6 73.0 Q 219.7 73.0, 219.2 72.4 Q 218.7 71.8, 218.7 70.8 M 220.6 72.5 Q 221.3 72.5, 221.6 72.0 Q 222.0 71.6, 222.0 70.8 Q 222.0 69.9, 221.6 69.5 Q 221.3 69.1, 220.6 69.1 Q 220.0 69.1, 219.6 69.5 Q 219.3 69.9, 219.3 70.8 Q 219.3 71.6, 219.6 72.0 Q 220.0 72.5, 220.6 72.5 " fill="#FF0000"/>
<path class="atom-26" d="M 221.7 94.6 L 222.3 94.6 L 222.3 96.4 L 224.4 96.4 L 224.4 94.6 L 225.0 94.6 L 225.0 98.8 L 224.4 98.8 L 224.4 96.9 L 222.3 96.9 L 222.3 98.8 L 221.7 98.8 L 221.7 94.6 " fill="#0000FF"/>
<path class="atom-26" d="M 225.8 98.7 Q 225.9 98.4, 226.2 98.3 Q 226.4 98.1, 226.8 98.1 Q 227.2 98.1, 227.4 98.3 Q 227.7 98.6, 227.7 99.0 Q 227.7 99.4, 227.4 99.8 Q 227.1 100.2, 226.4 100.6 L 227.7 100.6 L 227.7 100.9 L 225.8 100.9 L 225.8 100.7 Q 226.4 100.3, 226.7 100.0 Q 227.0 99.8, 227.1 99.5 Q 227.3 99.3, 227.3 99.0 Q 227.3 98.7, 227.1 98.6 Q 227.0 98.4, 226.8 98.4 Q 226.6 98.4, 226.4 98.5 Q 226.3 98.6, 226.1 98.8 L 225.8 98.7 " fill="#0000FF"/>
<path class="atom-26" d="M 228.9 94.6 L 230.3 96.8 Q 230.5 97.0, 230.7 97.4 Q 230.9 97.8, 230.9 97.9 L 230.9 94.6 L 231.5 94.6 L 231.5 98.8 L 230.9 98.8 L 229.4 96.4 Q 229.2 96.1, 229.1 95.7 Q 228.9 95.4, 228.8 95.3 L 228.8 98.8 L 228.3 98.8 L 228.3 94.6 L 228.9 94.6 " fill="#0000FF"/>
<path class="atom-28" d="M 276.7 80.9 Q 276.7 79.9, 277.2 79.4 Q 277.7 78.8, 278.7 78.8 Q 279.6 78.8, 280.1 79.4 Q 280.6 79.9, 280.6 80.9 Q 280.6 82.0, 280.1 82.6 Q 279.6 83.1, 278.7 83.1 Q 277.8 83.1, 277.2 82.6 Q 276.7 82.0, 276.7 80.9 M 278.7 82.7 Q 279.3 82.7, 279.7 82.2 Q 280.0 81.8, 280.0 80.9 Q 280.0 80.1, 279.7 79.7 Q 279.3 79.3, 278.7 79.3 Q 278.0 79.3, 277.7 79.7 Q 277.3 80.1, 277.3 80.9 Q 277.3 81.8, 277.7 82.2 Q 278.0 82.7, 278.7 82.7 " fill="#FF0000"/>
<path class="atom-28" d="M 281.3 78.8 L 281.9 78.8 L 281.9 80.6 L 284.0 80.6 L 284.0 78.8 L 284.6 78.8 L 284.6 83.1 L 284.0 83.1 L 284.0 81.1 L 281.9 81.1 L 281.9 83.1 L 281.3 83.1 L 281.3 78.8 " fill="#FF0000"/>
<path class="atom-30" d="M 296.9 120.5 L 297.4 120.5 L 297.4 122.3 L 299.6 122.3 L 299.6 120.5 L 300.2 120.5 L 300.2 124.8 L 299.6 124.8 L 299.6 122.8 L 297.4 122.8 L 297.4 124.8 L 296.9 124.8 L 296.9 120.5 " fill="#FF0000"/>
<path class="atom-30" d="M 301.1 122.7 Q 301.1 121.6, 301.6 121.1 Q 302.1 120.5, 303.0 120.5 Q 303.9 120.5, 304.4 121.1 Q 305.0 121.6, 305.0 122.7 Q 305.0 123.7, 304.4 124.3 Q 303.9 124.9, 303.0 124.9 Q 302.1 124.9, 301.6 124.3 Q 301.1 123.7, 301.1 122.7 M 303.0 124.4 Q 303.6 124.4, 304.0 123.9 Q 304.4 123.5, 304.4 122.7 Q 304.4 121.8, 304.0 121.4 Q 303.6 121.0, 303.0 121.0 Q 302.4 121.0, 302.0 121.4 Q 301.7 121.8, 301.7 122.7 Q 301.7 123.5, 302.0 123.9 Q 302.4 124.4, 303.0 124.4 " fill="#FF0000"/>
<path class="atom-32" d="M 324.8 136.1 L 326.2 138.3 Q 326.4 138.5, 326.6 138.9 Q 326.8 139.3, 326.8 139.4 L 326.8 136.1 L 327.4 136.1 L 327.4 140.3 L 326.8 140.3 L 325.3 137.8 Q 325.1 137.6, 324.9 137.2 Q 324.8 136.9, 324.7 136.8 L 324.7 140.3 L 324.2 140.3 L 324.2 136.1 L 324.8 136.1 " fill="#0000FF"/>
<path class="atom-32" d="M 328.2 136.1 L 328.8 136.1 L 328.8 137.9 L 330.9 137.9 L 330.9 136.1 L 331.5 136.1 L 331.5 140.3 L 330.9 140.3 L 330.9 138.3 L 328.8 138.3 L 328.8 140.3 L 328.2 140.3 L 328.2 136.1 " fill="#0000FF"/>
<path class="atom-32" d="M 332.3 140.2 Q 332.4 139.9, 332.7 139.7 Q 332.9 139.6, 333.3 139.6 Q 333.7 139.6, 333.9 139.8 Q 334.2 140.1, 334.2 140.5 Q 334.2 140.9, 333.9 141.3 Q 333.6 141.7, 332.9 142.1 L 334.2 142.1 L 334.2 142.4 L 332.3 142.4 L 332.3 142.2 Q 332.9 141.8, 333.2 141.5 Q 333.5 141.2, 333.6 141.0 Q 333.8 140.7, 333.8 140.5 Q 333.8 140.2, 333.6 140.1 Q 333.5 139.9, 333.3 139.9 Q 333.0 139.9, 332.9 140.0 Q 332.7 140.1, 332.6 140.3 L 332.3 140.2 " fill="#0000FF"/>
<path class="atom-35" d="M 351.7 96.6 L 353.1 98.9 Q 353.3 99.1, 353.5 99.5 Q 353.7 99.9, 353.7 99.9 L 353.7 96.6 L 354.3 96.6 L 354.3 100.9 L 353.7 100.9 L 352.2 98.4 Q 352.0 98.1, 351.9 97.8 Q 351.7 97.5, 351.6 97.4 L 351.6 100.9 L 351.1 100.9 L 351.1 96.6 L 351.7 96.6 " fill="#0000FF"/>
<path class="atom-35" d="M 355.1 96.6 L 355.7 96.6 L 355.7 98.4 L 357.9 98.4 L 357.9 96.6 L 358.4 96.6 L 358.4 100.9 L 357.9 100.9 L 357.9 98.9 L 355.7 98.9 L 355.7 100.9 L 355.1 100.9 L 355.1 96.6 " fill="#0000FF"/>
<path class="atom-35" d="M 359.3 100.7 Q 359.4 100.5, 359.6 100.3 Q 359.9 100.2, 360.2 100.2 Q 360.6 100.2, 360.9 100.4 Q 361.1 100.6, 361.1 101.0 Q 361.1 101.5, 360.8 101.8 Q 360.5 102.2, 359.8 102.7 L 361.1 102.7 L 361.1 103.0 L 359.3 103.0 L 359.3 102.7 Q 359.8 102.4, 360.1 102.1 Q 360.4 101.8, 360.5 101.6 Q 360.7 101.3, 360.7 101.1 Q 360.7 100.8, 360.6 100.6 Q 360.4 100.5, 360.2 100.5 Q 360.0 100.5, 359.8 100.6 Q 359.7 100.7, 359.6 100.9 L 359.3 100.7 " fill="#0000FF"/>
<path class="atom-37" d="M 323.8 53.6 L 324.4 53.6 L 324.4 55.4 L 326.5 55.4 L 326.5 53.6 L 327.1 53.6 L 327.1 57.9 L 326.5 57.9 L 326.5 55.9 L 324.4 55.9 L 324.4 57.9 L 323.8 57.9 L 323.8 53.6 " fill="#0000FF"/>
<path class="atom-37" d="M 328.0 57.7 Q 328.1 57.4, 328.3 57.3 Q 328.6 57.1, 328.9 57.1 Q 329.3 57.1, 329.6 57.4 Q 329.8 57.6, 329.8 58.0 Q 329.8 58.4, 329.5 58.8 Q 329.2 59.2, 328.5 59.7 L 329.8 59.7 L 329.8 60.0 L 327.9 60.0 L 327.9 59.7 Q 328.5 59.3, 328.8 59.1 Q 329.1 58.8, 329.2 58.5 Q 329.4 58.3, 329.4 58.0 Q 329.4 57.8, 329.3 57.6 Q 329.1 57.5, 328.9 57.5 Q 328.7 57.5, 328.5 57.6 Q 328.4 57.6, 328.3 57.8 L 328.0 57.7 " fill="#0000FF"/>
<path class="atom-37" d="M 331.1 53.6 L 332.5 55.9 Q 332.6 56.1, 332.8 56.5 Q 333.0 56.9, 333.0 56.9 L 333.0 53.6 L 333.6 53.6 L 333.6 57.9 L 333.0 57.9 L 331.5 55.4 Q 331.4 55.1, 331.2 54.8 Q 331.0 54.4, 330.9 54.3 L 330.9 57.9 L 330.4 57.9 L 330.4 53.6 L 331.1 53.6 " fill="#0000FF"/>
<path class="atom-39" d="M 354.9 43.8 Q 354.9 42.8, 355.4 42.2 Q 355.9 41.6, 356.8 41.6 Q 357.8 41.6, 358.3 42.2 Q 358.8 42.8, 358.8 43.8 Q 358.8 44.8, 358.3 45.4 Q 357.8 46.0, 356.8 46.0 Q 355.9 46.0, 355.4 45.4 Q 354.9 44.8, 354.9 43.8 M 356.8 45.5 Q 357.5 45.5, 357.8 45.1 Q 358.2 44.7, 358.2 43.8 Q 358.2 43.0, 357.8 42.5 Q 357.5 42.1, 356.8 42.1 Q 356.2 42.1, 355.8 42.5 Q 355.5 43.0, 355.5 43.8 Q 355.5 44.7, 355.8 45.1 Q 356.2 45.5, 356.8 45.5 " fill="#FF0000"/>
<path class="atom-39" d="M 359.5 41.7 L 360.0 41.7 L 360.0 43.5 L 362.2 43.5 L 362.2 41.7 L 362.8 41.7 L 362.8 45.9 L 362.2 45.9 L 362.2 44.0 L 360.0 44.0 L 360.0 45.9 L 359.5 45.9 L 359.5 41.7 " fill="#FF0000"/>
<path class="atom-41" d="M 377.7 59.3 Q 377.7 58.3, 378.2 57.8 Q 378.7 57.2, 379.6 57.2 Q 380.5 57.2, 381.0 57.8 Q 381.6 58.3, 381.6 59.3 Q 381.6 60.4, 381.0 61.0 Q 380.5 61.5, 379.6 61.5 Q 378.7 61.5, 378.2 61.0 Q 377.7 60.4, 377.7 59.3 M 379.6 61.1 Q 380.3 61.1, 380.6 60.6 Q 381.0 60.2, 381.0 59.3 Q 381.0 58.5, 380.6 58.1 Q 380.3 57.7, 379.6 57.7 Q 379.0 57.7, 378.6 58.1 Q 378.3 58.5, 378.3 59.3 Q 378.3 60.2, 378.6 60.6 Q 379.0 61.1, 379.6 61.1 " fill="#FF0000"/>
<path class="atom-41" d="M 382.2 57.2 L 382.8 57.2 L 382.8 59.0 L 385.0 59.0 L 385.0 57.2 L 385.5 57.2 L 385.5 61.5 L 385.0 61.5 L 385.0 59.5 L 382.8 59.5 L 382.8 61.5 L 382.2 61.5 L 382.2 57.2 " fill="#FF0000"/>
<path class="legend" d="M 253.3 184.2 Q 253.3 181.3, 254.6 179.9 Q 255.9 178.4, 258.5 178.4 Q 260.8 178.4, 262.0 180.0 L 261.0 180.9 Q 260.1 179.7, 258.5 179.7 Q 256.7 179.7, 255.8 180.8 Q 254.9 182.0, 254.9 184.2 Q 254.9 186.4, 255.9 187.6 Q 256.8 188.7, 258.6 188.7 Q 259.9 188.7, 261.3 188.0 L 261.8 189.2 Q 261.2 189.5, 260.3 189.8 Q 259.4 190.0, 258.4 190.0 Q 255.9 190.0, 254.6 188.5 Q 253.3 187.0, 253.3 184.2 " fill="#000000"/>
<path class="legend" d="M 265.3 178.5 L 269.0 184.5 Q 269.3 185.1, 269.9 186.2 Q 270.5 187.2, 270.6 187.3 L 270.6 178.5 L 272.1 178.5 L 272.1 189.8 L 270.5 189.8 L 266.5 183.3 Q 266.1 182.5, 265.6 181.6 Q 265.1 180.8, 264.9 180.5 L 264.9 189.8 L 263.5 189.8 L 263.5 178.5 L 265.3 178.5 " fill="#000000"/>
<path class="legend" d="M 277.5 178.5 Q 279.5 178.5, 280.4 179.4 Q 281.4 180.3, 281.4 181.8 Q 281.4 183.4, 280.4 184.3 Q 279.4 185.2, 277.5 185.2 L 275.7 185.2 L 275.7 189.8 L 274.2 189.8 L 274.2 178.5 L 277.5 178.5 M 277.5 183.9 Q 278.6 183.9, 279.2 183.4 Q 279.8 182.8, 279.8 181.8 Q 279.8 180.8, 279.2 180.3 Q 278.6 179.8, 277.5 179.8 L 275.7 179.8 L 275.7 183.9 L 277.5 183.9 " fill="#000000"/>
<path class="legend" d="M 287.1 190.0 Q 285.0 190.0, 284.0 188.4 Q 282.9 186.9, 282.9 184.2 Q 282.9 181.4, 284.0 179.9 Q 285.0 178.4, 287.1 178.4 Q 289.2 178.4, 290.2 179.9 Q 291.2 181.4, 291.2 184.2 Q 291.2 186.9, 290.2 188.4 Q 289.2 190.0, 287.1 190.0 M 287.1 188.7 Q 288.3 188.7, 289.0 187.6 Q 289.6 186.4, 289.6 184.2 Q 289.6 181.9, 289.0 180.8 Q 288.3 179.7, 287.1 179.7 Q 285.9 179.7, 285.2 180.8 Q 284.5 181.9, 284.5 184.2 Q 284.5 186.4, 285.2 187.6 Q 285.9 188.7, 287.1 188.7 " fill="#000000"/>
<path class="legend" d="M 293.7 188.6 L 296.2 188.6 L 296.2 180.1 L 293.4 180.9 L 293.1 180.0 L 296.5 178.4 L 297.7 178.6 L 297.7 188.6 L 299.9 188.6 L 299.9 189.8 L 293.7 189.8 L 293.7 188.6 " fill="#000000"/>
<path class="legend" d="M 306.8 183.9 Q 307.9 184.2, 308.4 184.9 Q 309.0 185.6, 309.0 186.7 Q 309.0 187.7, 308.5 188.4 Q 308.0 189.2, 307.1 189.6 Q 306.2 190.0, 305.1 190.0 Q 303.9 190.0, 303.0 189.6 Q 302.1 189.2, 301.3 188.3 L 302.3 187.4 Q 303.0 188.1, 303.6 188.4 Q 304.1 188.7, 305.1 188.7 Q 306.1 188.7, 306.7 188.2 Q 307.4 187.6, 307.4 186.7 Q 307.4 185.6, 306.7 185.1 Q 306.1 184.5, 304.7 184.5 L 303.9 184.5 L 303.9 183.4 L 304.6 183.4 Q 305.8 183.4, 306.5 182.8 Q 307.1 182.3, 307.1 181.3 Q 307.1 180.5, 306.6 180.1 Q 306.0 179.7, 305.1 179.7 Q 304.2 179.7, 303.6 180.0 Q 303.0 180.3, 302.5 181.2 L 301.4 180.6 Q 301.8 179.6, 302.8 179.0 Q 303.8 178.4, 305.1 178.4 Q 306.8 178.4, 307.7 179.2 Q 308.7 180.0, 308.7 181.3 Q 308.7 182.2, 308.2 182.8 Q 307.7 183.5, 306.8 183.9 " fill="#000000"/>
<path class="legend" d="M 316.5 183.8 Q 317.5 184.3, 318.1 185.0 Q 318.7 185.6, 318.7 186.7 Q 318.7 187.7, 318.2 188.4 Q 317.7 189.2, 316.8 189.6 Q 315.9 190.0, 314.8 190.0 Q 312.9 190.0, 311.8 189.1 Q 310.7 188.3, 310.7 186.7 Q 310.7 185.8, 311.2 185.1 Q 311.6 184.4, 312.6 183.9 Q 311.9 183.5, 311.5 182.9 Q 311.1 182.2, 311.1 181.3 Q 311.1 180.0, 312.1 179.2 Q 313.0 178.4, 314.7 178.4 Q 316.3 178.4, 317.3 179.2 Q 318.3 180.0, 318.3 181.3 Q 318.3 182.1, 317.8 182.7 Q 317.4 183.3, 316.5 183.8 M 314.7 179.6 Q 313.7 179.6, 313.2 180.0 Q 312.7 180.5, 312.7 181.3 Q 312.7 181.9, 313.1 182.3 Q 313.4 182.7, 313.9 182.9 Q 314.4 183.1, 315.4 183.4 Q 316.1 183.0, 316.4 182.4 Q 316.7 181.9, 316.7 181.3 Q 316.7 180.5, 316.1 180.0 Q 315.6 179.6, 314.7 179.6 M 314.8 188.8 Q 315.8 188.8, 316.4 188.2 Q 317.1 187.7, 317.1 186.7 Q 317.1 186.1, 316.8 185.7 Q 316.4 185.3, 315.9 185.1 Q 315.4 184.9, 314.5 184.6 L 313.8 184.4 Q 313.0 184.8, 312.6 185.4 Q 312.3 186.0, 312.3 186.7 Q 312.3 187.7, 313.0 188.2 Q 313.6 188.8, 314.8 188.8 " fill="#000000"/>
<path class="legend" d="M 321.1 188.6 L 323.6 188.6 L 323.6 180.1 L 320.9 180.9 L 320.5 180.0 L 324.0 178.4 L 325.1 178.6 L 325.1 188.6 L 327.3 188.6 L 327.3 189.8 L 321.1 189.8 L 321.1 188.6 " fill="#000000"/>
<path class="legend" d="M 336.1 186.0 L 337.5 186.0 L 337.5 187.2 L 336.1 187.2 L 336.1 189.8 L 334.6 189.8 L 334.6 187.2 L 328.8 187.2 L 328.8 186.2 L 333.7 178.5 L 336.1 178.5 L 336.1 186.0 M 330.6 186.0 L 334.6 186.0 L 334.6 179.5 L 330.6 186.0 " fill="#000000"/>
<path class="legend" d="M 339.1 180.7 Q 339.5 179.6, 340.5 179.0 Q 341.5 178.4, 342.9 178.4 Q 344.6 178.4, 345.5 179.3 Q 346.5 180.2, 346.5 181.9 Q 346.5 183.6, 345.3 185.1 Q 344.0 186.7, 341.5 188.6 L 346.7 188.6 L 346.7 189.8 L 339.1 189.8 L 339.1 188.8 Q 341.2 187.3, 342.4 186.1 Q 343.7 185.0, 344.3 184.0 Q 344.9 183.0, 344.9 182.0 Q 344.9 180.9, 344.4 180.3 Q 343.8 179.7, 342.9 179.7 Q 342.0 179.7, 341.3 180.0 Q 340.7 180.4, 340.3 181.2 L 339.1 180.7 " fill="#000000"/>
</svg>