<svg xmlns="http://www.w3.org/2000/svg" xmlns:rdkit="http://www.rdkit.org/xml" xmlns:xlink="http://www.w3.org/1999/xlink" version="1.1" baseProfile="full" xml:space="preserve" width="600px" height="200px" viewBox="0 0 600 200">
<!-- END OF HEADER -->
<rect style="opacity:1.0;fill:#FFFFFF;stroke:none" width="600.0" height="200.0" x="0.0" y="0.0"> </rect>
<path class="bond-0 atom-0 atom-1" d="M 132.6,156.4 L 134.8,140.9" style="fill:none;fill-rule:evenodd;stroke:#000000;stroke-width:2.0px;stroke-linecap:butt;stroke-linejoin:miter;stroke-opacity:1"/>
<path class="bond-1 atom-2 atom-1" d="M 125.2,133.9 L 125.7,133.3" style="fill:none;fill-rule:evenodd;stroke:#000000;stroke-width:1.0px;stroke-linecap:butt;stroke-linejoin:miter;stroke-opacity:1"/>
<path class="bond-1 atom-2 atom-1" d="M 128.1,136.6 L 129.1,135.4" style="fill:none;fill-rule:evenodd;stroke:#000000;stroke-width:1.0px;stroke-linecap:butt;stroke-linejoin:miter;stroke-opacity:1"/>
<path class="bond-1 atom-2 atom-1" d="M 131.0,139.3 L 132.4,137.5" style="fill:none;fill-rule:evenodd;stroke:#000000;stroke-width:1.0px;stroke-linecap:butt;stroke-linejoin:miter;stroke-opacity:1"/>
<path class="bond-2 atom-2 atom-3" d="M 122.4,131.2 L 125.1,125.5" style="fill:none;fill-rule:evenodd;stroke:#000000;stroke-width:2.0px;stroke-linecap:butt;stroke-linejoin:miter;stroke-opacity:1"/>
<path class="bond-2 atom-2 atom-3" d="M 125.1,125.5 L 127.9,119.9" style="fill:none;fill-rule:evenodd;stroke:#FF0000;stroke-width:2.0px;stroke-linecap:butt;stroke-linejoin:miter;stroke-opacity:1"/>
<path class="bond-3 atom-3 atom-4" d="M 129.4,114.3 L 129.6,107.8" style="fill:none;fill-rule:evenodd;stroke:#FF0000;stroke-width:2.0px;stroke-linecap:butt;stroke-linejoin:miter;stroke-opacity:1"/>
<path class="bond-3 atom-3 atom-4" d="M 129.6,107.8 L 129.8,101.3" style="fill:none;fill-rule:evenodd;stroke:#000000;stroke-width:2.0px;stroke-linecap:butt;stroke-linejoin:miter;stroke-opacity:1"/>
<path class="bond-4 atom-4 atom-5" d="M 129.7,102.5 L 136.3,101.3" style="fill:none;fill-rule:evenodd;stroke:#000000;stroke-width:2.0px;stroke-linecap:butt;stroke-linejoin:miter;stroke-opacity:1"/>
<path class="bond-4 atom-4 atom-5" d="M 136.3,101.3 L 142.9,100.1" style="fill:none;fill-rule:evenodd;stroke:#FF0000;stroke-width:2.0px;stroke-linecap:butt;stroke-linejoin:miter;stroke-opacity:1"/>
<path class="bond-4 atom-4 atom-5" d="M 129.3,100.2 L 135.9,99.0" style="fill:none;fill-rule:evenodd;stroke:#000000;stroke-width:2.0px;stroke-linecap:butt;stroke-linejoin:miter;stroke-opacity:1"/>
<path class="bond-4 atom-4 atom-5" d="M 135.9,99.0 L 142.5,97.9" style="fill:none;fill-rule:evenodd;stroke:#FF0000;stroke-width:2.0px;stroke-linecap:butt;stroke-linejoin:miter;stroke-opacity:1"/>
<path class="bond-5 atom-4 atom-6" d="M 129.8,101.3 L 123.9,86.7" style="fill:none;fill-rule:evenodd;stroke:#000000;stroke-width:2.0px;stroke-linecap:butt;stroke-linejoin:miter;stroke-opacity:1"/>
<path class="bond-6 atom-6 atom-7" d="M 123.9,86.7 L 136.8,80.8 L 137.6,82.9 Z" style="fill:#000000;fill-rule:evenodd;fill-opacity:1;stroke:#000000;stroke-width:0.5px;stroke-linecap:butt;stroke-linejoin:miter;stroke-opacity:1;"/>
<path class="bond-7 atom-6 atom-8" d="M 123.9,86.7 L 112.5,75.8" style="fill:none;fill-rule:evenodd;stroke:#000000;stroke-width:2.0px;stroke-linecap:butt;stroke-linejoin:miter;stroke-opacity:1"/>
<path class="bond-8 atom-8 atom-9" d="M 114.4,73.5 L 113.8,73.1" style="fill:none;fill-rule:evenodd;stroke:#000000;stroke-width:1.0px;stroke-linecap:butt;stroke-linejoin:miter;stroke-opacity:1"/>
<path class="bond-8 atom-8 atom-9" d="M 116.3,71.2 L 115.0,70.4" style="fill:none;fill-rule:evenodd;stroke:#000000;stroke-width:1.0px;stroke-linecap:butt;stroke-linejoin:miter;stroke-opacity:1"/>
<path class="bond-8 atom-8 atom-9" d="M 118.2,68.9 L 116.2,67.7" style="fill:none;fill-rule:evenodd;stroke:#FF0000;stroke-width:1.0px;stroke-linecap:butt;stroke-linejoin:miter;stroke-opacity:1"/>
<path class="bond-9 atom-10 atom-9" d="M 136.6,63.0 L 130.2,63.3 L 130.3,62.2 Z" style="fill:#000000;fill-rule:evenodd;fill-opacity:1;stroke:#000000;stroke-width:0.5px;stroke-linecap:butt;stroke-linejoin:miter;stroke-opacity:1;"/>
<path class="bond-9 atom-10 atom-9" d="M 130.2,63.3 L 124.0,61.4 L 123.9,63.7 Z" style="fill:#FF0000;fill-rule:evenodd;fill-opacity:1;stroke:#FF0000;stroke-width:0.5px;stroke-linecap:butt;stroke-linejoin:miter;stroke-opacity:1;"/>
<path class="bond-9 atom-10 atom-9" d="M 130.2,63.3 L 130.3,62.2 L 124.0,61.4 Z" style="fill:#FF0000;fill-rule:evenodd;fill-opacity:1;stroke:#FF0000;stroke-width:0.5px;stroke-linecap:butt;stroke-linejoin:miter;stroke-opacity:1;"/>
<path class="bond-10 atom-10 atom-11" d="M 136.6,63.0 L 144.9,49.6" style="fill:none;fill-rule:evenodd;stroke:#000000;stroke-width:2.0px;stroke-linecap:butt;stroke-linejoin:miter;stroke-opacity:1"/>
<path class="bond-11 atom-11 atom-12" d="M 144.9,49.6 L 160.6,50.1" style="fill:none;fill-rule:evenodd;stroke:#000000;stroke-width:2.0px;stroke-linecap:butt;stroke-linejoin:miter;stroke-opacity:1"/>
<path class="bond-12 atom-12 atom-13" d="M 164.3,48.6 L 164.5,49.2" style="fill:none;fill-rule:evenodd;stroke:#000000;stroke-width:1.0px;stroke-linecap:butt;stroke-linejoin:miter;stroke-opacity:1"/>
<path class="bond-12 atom-12 atom-13" d="M 167.9,47.1 L 168.3,48.2" style="fill:none;fill-rule:evenodd;stroke:#000000;stroke-width:1.0px;stroke-linecap:butt;stroke-linejoin:miter;stroke-opacity:1"/>
<path class="bond-12 atom-12 atom-13" d="M 171.6,45.6 L 172.1,47.3" style="fill:none;fill-rule:evenodd;stroke:#000000;stroke-width:1.0px;stroke-linecap:butt;stroke-linejoin:miter;stroke-opacity:1"/>
<path class="bond-12 atom-12 atom-13" d="M 175.2,44.1 L 176.0,46.3" style="fill:none;fill-rule:evenodd;stroke:#000000;stroke-width:1.0px;stroke-linecap:butt;stroke-linejoin:miter;stroke-opacity:1"/>
<path class="bond-13 atom-12 atom-14" d="M 160.6,50.1 L 159.7,43.7" style="fill:none;fill-rule:evenodd;stroke:#000000;stroke-width:2.0px;stroke-linecap:butt;stroke-linejoin:miter;stroke-opacity:1"/>
<path class="bond-13 atom-12 atom-14" d="M 159.7,43.7 L 158.8,37.4" style="fill:none;fill-rule:evenodd;stroke:#FF0000;stroke-width:2.0px;stroke-linecap:butt;stroke-linejoin:miter;stroke-opacity:1"/>
<path class="bond-14 atom-14 atom-15" d="M 161.0,32.5 L 165.9,28.7" style="fill:none;fill-rule:evenodd;stroke:#FF0000;stroke-width:2.0px;stroke-linecap:butt;stroke-linejoin:miter;stroke-opacity:1"/>
<path class="bond-14 atom-14 atom-15" d="M 165.9,28.7 L 170.8,24.8" style="fill:none;fill-rule:evenodd;stroke:#000000;stroke-width:2.0px;stroke-linecap:butt;stroke-linejoin:miter;stroke-opacity:1"/>
<path class="bond-15 atom-12 atom-16" d="M 160.6,50.1 L 168.0,64.0" style="fill:none;fill-rule:evenodd;stroke:#000000;stroke-width:2.0px;stroke-linecap:butt;stroke-linejoin:miter;stroke-opacity:1"/>
<path class="bond-16 atom-16 atom-17" d="M 168.0,64.0 L 174.4,63.6 L 174.4,64.8 Z" style="fill:#000000;fill-rule:evenodd;fill-opacity:1;stroke:#000000;stroke-width:0.5px;stroke-linecap:butt;stroke-linejoin:miter;stroke-opacity:1;"/>
<path class="bond-16 atom-16 atom-17" d="M 174.4,63.6 L 180.7,65.6 L 180.7,63.3 Z" style="fill:#FF0000;fill-rule:evenodd;fill-opacity:1;stroke:#FF0000;stroke-width:0.5px;stroke-linecap:butt;stroke-linejoin:miter;stroke-opacity:1;"/>
<path class="bond-16 atom-16 atom-17" d="M 174.4,63.6 L 174.4,64.8 L 180.7,65.6 Z" style="fill:#FF0000;fill-rule:evenodd;fill-opacity:1;stroke:#FF0000;stroke-width:0.5px;stroke-linecap:butt;stroke-linejoin:miter;stroke-opacity:1;"/>
<path class="bond-17 atom-16 atom-18" d="M 168.0,64.0 L 159.7,77.4" style="fill:none;fill-rule:evenodd;stroke:#000000;stroke-width:2.0px;stroke-linecap:butt;stroke-linejoin:miter;stroke-opacity:1"/>
<path class="bond-18 atom-18 atom-19" d="M 161.8,80.7 L 161.3,81.0" style="fill:none;fill-rule:evenodd;stroke:#000000;stroke-width:1.0px;stroke-linecap:butt;stroke-linejoin:miter;stroke-opacity:1"/>
<path class="bond-18 atom-18 atom-19" d="M 163.9,84.0 L 162.9,84.6" style="fill:none;fill-rule:evenodd;stroke:#000000;stroke-width:1.0px;stroke-linecap:butt;stroke-linejoin:miter;stroke-opacity:1"/>
<path class="bond-18 atom-18 atom-19" d="M 166.0,87.4 L 164.5,88.2" style="fill:none;fill-rule:evenodd;stroke:#000000;stroke-width:1.0px;stroke-linecap:butt;stroke-linejoin:miter;stroke-opacity:1"/>
<path class="bond-18 atom-18 atom-19" d="M 168.2,90.7 L 166.1,91.8" style="fill:none;fill-rule:evenodd;stroke:#000000;stroke-width:1.0px;stroke-linecap:butt;stroke-linejoin:miter;stroke-opacity:1"/>
<path class="bond-19 atom-18 atom-20" d="M 159.7,77.4 L 153.1,77.1" style="fill:none;fill-rule:evenodd;stroke:#000000;stroke-width:2.0px;stroke-linecap:butt;stroke-linejoin:miter;stroke-opacity:1"/>
<path class="bond-19 atom-18 atom-20" d="M 153.1,77.1 L 146.5,76.9" style="fill:none;fill-rule:evenodd;stroke:#FF0000;stroke-width:2.0px;stroke-linecap:butt;stroke-linejoin:miter;stroke-opacity:1"/>
<path class="bond-20 atom-8 atom-21" d="M 112.5,75.8 L 97.7,70.4" style="fill:none;fill-rule:evenodd;stroke:#000000;stroke-width:2.0px;stroke-linecap:butt;stroke-linejoin:miter;stroke-opacity:1"/>
<path class="bond-21 atom-21 atom-22" d="M 97.7,70.4 L 98.7,54.7 L 101.0,55.0 Z" style="fill:#000000;fill-rule:evenodd;fill-opacity:1;stroke:#000000;stroke-width:0.5px;stroke-linecap:butt;stroke-linejoin:miter;stroke-opacity:1;"/>
<path class="bond-22 atom-21 atom-23" d="M 97.7,70.4 L 82.0,71.6" style="fill:none;fill-rule:evenodd;stroke:#000000;stroke-width:2.0px;stroke-linecap:butt;stroke-linejoin:miter;stroke-opacity:1"/>
<path class="bond-23 atom-23 atom-24" d="M 81.6,68.5 L 80.8,68.7" style="fill:none;fill-rule:evenodd;stroke:#000000;stroke-width:1.0px;stroke-linecap:butt;stroke-linejoin:miter;stroke-opacity:1"/>
<path class="bond-23 atom-23 atom-24" d="M 81.1,65.5 L 79.6,65.9" style="fill:none;fill-rule:evenodd;stroke:#000000;stroke-width:1.0px;stroke-linecap:butt;stroke-linejoin:miter;stroke-opacity:1"/>
<path class="bond-23 atom-23 atom-24" d="M 80.6,62.4 L 78.4,63.1" style="fill:none;fill-rule:evenodd;stroke:#FF0000;stroke-width:1.0px;stroke-linecap:butt;stroke-linejoin:miter;stroke-opacity:1"/>
<path class="bond-24 atom-25 atom-24" d="M 62.4,52.6 L 68.6,53.6 L 68.4,54.7 Z" style="fill:#000000;fill-rule:evenodd;fill-opacity:1;stroke:#000000;stroke-width:0.5px;stroke-linecap:butt;stroke-linejoin:miter;stroke-opacity:1;"/>
<path class="bond-24 atom-25 atom-24" d="M 68.6,53.6 L 74.3,56.8 L 74.9,54.5 Z" style="fill:#FF0000;fill-rule:evenodd;fill-opacity:1;stroke:#FF0000;stroke-width:0.5px;stroke-linecap:butt;stroke-linejoin:miter;stroke-opacity:1;"/>
<path class="bond-24 atom-25 atom-24" d="M 68.6,53.6 L 68.4,54.7 L 74.3,56.8 Z" style="fill:#FF0000;fill-rule:evenodd;fill-opacity:1;stroke:#FF0000;stroke-width:0.5px;stroke-linecap:butt;stroke-linejoin:miter;stroke-opacity:1;"/>
<path class="bond-25 atom-25 atom-26" d="M 62.4,52.6 L 60.6,46.5" style="fill:none;fill-rule:evenodd;stroke:#000000;stroke-width:2.0px;stroke-linecap:butt;stroke-linejoin:miter;stroke-opacity:1"/>
<path class="bond-25 atom-25 atom-26" d="M 60.6,46.5 L 58.8,40.4" style="fill:none;fill-rule:evenodd;stroke:#FF0000;stroke-width:2.0px;stroke-linecap:butt;stroke-linejoin:miter;stroke-opacity:1"/>
<path class="bond-26 atom-26 atom-27" d="M 55.5,36.9 L 49.1,35.3" style="fill:none;fill-rule:evenodd;stroke:#FF0000;stroke-width:2.0px;stroke-linecap:butt;stroke-linejoin:miter;stroke-opacity:1"/>
<path class="bond-26 atom-26 atom-27" d="M 49.1,35.3 L 42.7,33.7" style="fill:none;fill-rule:evenodd;stroke:#000000;stroke-width:2.0px;stroke-linecap:butt;stroke-linejoin:miter;stroke-opacity:1"/>
<path class="bond-27 atom-27 atom-28" d="M 42.7,33.7 L 37.3,18.9 L 39.5,18.3 Z" style="fill:#000000;fill-rule:evenodd;fill-opacity:1;stroke:#000000;stroke-width:0.5px;stroke-linecap:butt;stroke-linejoin:miter;stroke-opacity:1;"/>
<path class="bond-28 atom-27 atom-29" d="M 42.7,33.7 L 31.8,45.1" style="fill:none;fill-rule:evenodd;stroke:#000000;stroke-width:2.0px;stroke-linecap:butt;stroke-linejoin:miter;stroke-opacity:1"/>
<path class="bond-29 atom-29 atom-30" d="M 31.8,45.1 L 36.2,60.2" style="fill:none;fill-rule:evenodd;stroke:#000000;stroke-width:2.0px;stroke-linecap:butt;stroke-linejoin:miter;stroke-opacity:1"/>
<path class="bond-30 atom-30 atom-31" d="M 36.2,60.2 L 32.5,64.9 L 31.7,64.1 Z" style="fill:#000000;fill-rule:evenodd;fill-opacity:1;stroke:#000000;stroke-width:0.5px;stroke-linecap:butt;stroke-linejoin:miter;stroke-opacity:1;"/>
<path class="bond-30 atom-30 atom-31" d="M 32.5,64.9 L 27.2,67.9 L 28.8,69.5 Z" style="fill:#0000FF;fill-rule:evenodd;fill-opacity:1;stroke:#0000FF;stroke-width:0.5px;stroke-linecap:butt;stroke-linejoin:miter;stroke-opacity:1;"/>
<path class="bond-30 atom-30 atom-31" d="M 32.5,64.9 L 31.7,64.1 L 27.2,67.9 Z" style="fill:#0000FF;fill-rule:evenodd;fill-opacity:1;stroke:#0000FF;stroke-width:0.5px;stroke-linecap:butt;stroke-linejoin:miter;stroke-opacity:1;"/>
<path class="bond-31 atom-31 atom-32" d="M 23.1,71.0 L 16.5,69.4" style="fill:none;fill-rule:evenodd;stroke:#0000FF;stroke-width:2.0px;stroke-linecap:butt;stroke-linejoin:miter;stroke-opacity:1"/>
<path class="bond-31 atom-31 atom-32" d="M 16.5,69.4 L 10.0,67.8" style="fill:none;fill-rule:evenodd;stroke:#000000;stroke-width:2.0px;stroke-linecap:butt;stroke-linejoin:miter;stroke-opacity:1"/>
<path class="bond-32 atom-31 atom-33" d="M 26.1,74.3 L 27.9,80.5" style="fill:none;fill-rule:evenodd;stroke:#0000FF;stroke-width:2.0px;stroke-linecap:butt;stroke-linejoin:miter;stroke-opacity:1"/>
<path class="bond-32 atom-31 atom-33" d="M 27.9,80.5 L 29.6,86.7" style="fill:none;fill-rule:evenodd;stroke:#000000;stroke-width:2.0px;stroke-linecap:butt;stroke-linejoin:miter;stroke-opacity:1"/>
<path class="bond-33 atom-30 atom-34" d="M 36.2,60.2 L 51.5,64.0" style="fill:none;fill-rule:evenodd;stroke:#000000;stroke-width:2.0px;stroke-linecap:butt;stroke-linejoin:miter;stroke-opacity:1"/>
<path class="bond-34 atom-34 atom-35" d="M 52.1,65.6 L 51.4,65.7" style="fill:none;fill-rule:evenodd;stroke:#000000;stroke-width:1.0px;stroke-linecap:butt;stroke-linejoin:miter;stroke-opacity:1"/>
<path class="bond-34 atom-34 atom-35" d="M 52.8,67.2 L 51.2,67.4" style="fill:none;fill-rule:evenodd;stroke:#FF0000;stroke-width:1.0px;stroke-linecap:butt;stroke-linejoin:miter;stroke-opacity:1"/>
<path class="bond-34 atom-34 atom-35" d="M 53.4,68.8 L 51.1,69.2" style="fill:none;fill-rule:evenodd;stroke:#FF0000;stroke-width:1.0px;stroke-linecap:butt;stroke-linejoin:miter;stroke-opacity:1"/>
<path class="bond-35 atom-23 atom-36" d="M 82.0,71.6 L 68.1,79.0" style="fill:none;fill-rule:evenodd;stroke:#000000;stroke-width:2.0px;stroke-linecap:butt;stroke-linejoin:miter;stroke-opacity:1"/>
<path class="bond-36 atom-36 atom-37" d="M 65.3,78.9 L 65.4,78.2" style="fill:none;fill-rule:evenodd;stroke:#000000;stroke-width:1.0px;stroke-linecap:butt;stroke-linejoin:miter;stroke-opacity:1"/>
<path class="bond-36 atom-36 atom-37" d="M 62.5,78.9 L 62.8,77.3" style="fill:none;fill-rule:evenodd;stroke:#000000;stroke-width:1.0px;stroke-linecap:butt;stroke-linejoin:miter;stroke-opacity:1"/>
<path class="bond-36 atom-36 atom-37" d="M 59.7,78.8 L 60.1,76.5" style="fill:none;fill-rule:evenodd;stroke:#000000;stroke-width:1.0px;stroke-linecap:butt;stroke-linejoin:miter;stroke-opacity:1"/>
<path class="bond-37 atom-36 atom-38" d="M 68.1,79.0 L 67.5,72.6" style="fill:none;fill-rule:evenodd;stroke:#000000;stroke-width:2.0px;stroke-linecap:butt;stroke-linejoin:miter;stroke-opacity:1"/>
<path class="bond-37 atom-36 atom-38" d="M 67.5,72.6 L 66.8,66.1" style="fill:none;fill-rule:evenodd;stroke:#FF0000;stroke-width:2.0px;stroke-linecap:butt;stroke-linejoin:miter;stroke-opacity:1"/>
<path class="bond-38 atom-36 atom-39" d="M 68.1,79.0 L 58.5,91.4" style="fill:none;fill-rule:evenodd;stroke:#000000;stroke-width:2.0px;stroke-linecap:butt;stroke-linejoin:miter;stroke-opacity:1"/>
<path class="bond-39 atom-39 atom-40" d="M 58.5,91.4 L 54.7,106.7" style="fill:none;fill-rule:evenodd;stroke:#000000;stroke-width:2.0px;stroke-linecap:butt;stroke-linejoin:miter;stroke-opacity:1"/>
<path class="bond-40 atom-40 atom-41" d="M 50.7,106.8 L 50.8,106.2" style="fill:none;fill-rule:evenodd;stroke:#000000;stroke-width:1.0px;stroke-linecap:butt;stroke-linejoin:miter;stroke-opacity:1"/>
<path class="bond-40 atom-40 atom-41" d="M 46.8,107.0 L 46.8,105.8" style="fill:none;fill-rule:evenodd;stroke:#000000;stroke-width:1.0px;stroke-linecap:butt;stroke-linejoin:miter;stroke-opacity:1"/>
<path class="bond-40 atom-40 atom-41" d="M 42.9,107.1 L 42.9,105.4" style="fill:none;fill-rule:evenodd;stroke:#000000;stroke-width:1.0px;stroke-linecap:butt;stroke-linejoin:miter;stroke-opacity:1"/>
<path class="bond-40 atom-40 atom-41" d="M 38.9,107.3 L 39.0,105.0" style="fill:none;fill-rule:evenodd;stroke:#000000;stroke-width:1.0px;stroke-linecap:butt;stroke-linejoin:miter;stroke-opacity:1"/>
<path class="bond-41 atom-40 atom-42" d="M 54.7,106.7 L 57.4,122.2" style="fill:none;fill-rule:evenodd;stroke:#000000;stroke-width:2.0px;stroke-linecap:butt;stroke-linejoin:miter;stroke-opacity:1"/>
<path class="bond-42 atom-42 atom-43" d="M 57.4,122.2 L 60.9,127.3" style="fill:none;fill-rule:evenodd;stroke:#000000;stroke-width:2.0px;stroke-linecap:butt;stroke-linejoin:miter;stroke-opacity:1"/>
<path class="bond-42 atom-42 atom-43" d="M 60.9,127.3 L 64.4,132.5" style="fill:none;fill-rule:evenodd;stroke:#0000FF;stroke-width:2.0px;stroke-linecap:butt;stroke-linejoin:miter;stroke-opacity:1"/>
<path class="bond-43 atom-43 atom-44" d="M 64.1,137.5 L 59.7,142.0" style="fill:none;fill-rule:evenodd;stroke:#0000FF;stroke-width:2.0px;stroke-linecap:butt;stroke-linejoin:miter;stroke-opacity:1"/>
<path class="bond-43 atom-43 atom-44" d="M 59.7,142.0 L 55.4,146.5" style="fill:none;fill-rule:evenodd;stroke:#000000;stroke-width:2.0px;stroke-linecap:butt;stroke-linejoin:miter;stroke-opacity:1"/>
<path class="bond-44 atom-43 atom-45" d="M 68.5,136.6 L 74.0,140.0" style="fill:none;fill-rule:evenodd;stroke:#0000FF;stroke-width:2.0px;stroke-linecap:butt;stroke-linejoin:miter;stroke-opacity:1"/>
<path class="bond-44 atom-43 atom-45" d="M 74.0,140.0 L 79.6,143.5" style="fill:none;fill-rule:evenodd;stroke:#000000;stroke-width:2.0px;stroke-linecap:butt;stroke-linejoin:miter;stroke-opacity:1"/>
<path class="bond-45 atom-45 atom-46" d="M 79.6,143.5 L 75.4,158.7 L 73.2,157.9 Z" style="fill:#000000;fill-rule:evenodd;fill-opacity:1;stroke:#000000;stroke-width:0.5px;stroke-linecap:butt;stroke-linejoin:miter;stroke-opacity:1;"/>
<path class="bond-46 atom-45 atom-47" d="M 79.6,143.5 L 95.2,145.7" style="fill:none;fill-rule:evenodd;stroke:#000000;stroke-width:2.0px;stroke-linecap:butt;stroke-linejoin:miter;stroke-opacity:1"/>
<path class="bond-47 atom-47 atom-48" d="M 95.7,148.8 L 95.2,148.8" style="fill:none;fill-rule:evenodd;stroke:#000000;stroke-width:1.0px;stroke-linecap:butt;stroke-linejoin:miter;stroke-opacity:1"/>
<path class="bond-47 atom-47 atom-48" d="M 96.2,151.9 L 95.1,151.9" style="fill:none;fill-rule:evenodd;stroke:#000000;stroke-width:1.0px;stroke-linecap:butt;stroke-linejoin:miter;stroke-opacity:1"/>
<path class="bond-47 atom-47 atom-48" d="M 96.8,154.9 L 95.0,155.1" style="fill:none;fill-rule:evenodd;stroke:#FF0000;stroke-width:1.0px;stroke-linecap:butt;stroke-linejoin:miter;stroke-opacity:1"/>
<path class="bond-47 atom-47 atom-48" d="M 97.3,158.0 L 95.0,158.2" style="fill:none;fill-rule:evenodd;stroke:#FF0000;stroke-width:1.0px;stroke-linecap:butt;stroke-linejoin:miter;stroke-opacity:1"/>
<path class="bond-48 atom-47 atom-49" d="M 95.2,145.7 L 110.3,141.3" style="fill:none;fill-rule:evenodd;stroke:#000000;stroke-width:2.0px;stroke-linecap:butt;stroke-linejoin:miter;stroke-opacity:1"/>
<path class="bond-49 atom-49 atom-50" d="M 114.0,142.9 L 113.7,143.4" style="fill:none;fill-rule:evenodd;stroke:#000000;stroke-width:1.0px;stroke-linecap:butt;stroke-linejoin:miter;stroke-opacity:1"/>
<path class="bond-49 atom-49 atom-50" d="M 117.6,144.5 L 117.0,145.5" style="fill:none;fill-rule:evenodd;stroke:#000000;stroke-width:1.0px;stroke-linecap:butt;stroke-linejoin:miter;stroke-opacity:1"/>
<path class="bond-49 atom-49 atom-50" d="M 121.2,146.1 L 120.4,147.6" style="fill:none;fill-rule:evenodd;stroke:#000000;stroke-width:1.0px;stroke-linecap:butt;stroke-linejoin:miter;stroke-opacity:1"/>
<path class="bond-49 atom-49 atom-50" d="M 124.8,147.7 L 123.7,149.7" style="fill:none;fill-rule:evenodd;stroke:#000000;stroke-width:1.0px;stroke-linecap:butt;stroke-linejoin:miter;stroke-opacity:1"/>
<path class="bond-50 atom-49 atom-51" d="M 110.3,141.3 L 109.7,147.8" style="fill:none;fill-rule:evenodd;stroke:#000000;stroke-width:2.0px;stroke-linecap:butt;stroke-linejoin:miter;stroke-opacity:1"/>
<path class="bond-50 atom-49 atom-51" d="M 109.7,147.8 L 109.0,154.2" style="fill:none;fill-rule:evenodd;stroke:#FF0000;stroke-width:2.0px;stroke-linecap:butt;stroke-linejoin:miter;stroke-opacity:1"/>
<path class="bond-51 atom-49 atom-2" d="M 110.3,141.3 L 122.4,131.2" style="fill:none;fill-rule:evenodd;stroke:#000000;stroke-width:2.0px;stroke-linecap:butt;stroke-linejoin:miter;stroke-opacity:1"/>
<path class="bond-52 atom-20 atom-10" d="M 142.5,74.1 L 139.5,68.5" style="fill:none;fill-rule:evenodd;stroke:#FF0000;stroke-width:2.0px;stroke-linecap:butt;stroke-linejoin:miter;stroke-opacity:1"/>
<path class="bond-52 atom-20 atom-10" d="M 139.5,68.5 L 136.6,63.0" style="fill:none;fill-rule:evenodd;stroke:#000000;stroke-width:2.0px;stroke-linecap:butt;stroke-linejoin:miter;stroke-opacity:1"/>
<path class="bond-53 atom-34 atom-25" d="M 51.5,64.0 L 62.4,52.6" style="fill:none;fill-rule:evenodd;stroke:#000000;stroke-width:2.0px;stroke-linecap:butt;stroke-linejoin:miter;stroke-opacity:1"/>
<path d="M 122.5,130.9 L 122.4,131.2 L 121.8,131.7" style="fill:none;stroke:#000000;stroke-width:2.0px;stroke-linecap:butt;stroke-linejoin:miter;stroke-opacity:1;"/>
<path d="M 129.8,101.6 L 129.8,101.3 L 129.5,100.6" style="fill:none;stroke:#000000;stroke-width:2.0px;stroke-linecap:butt;stroke-linejoin:miter;stroke-opacity:1;"/>
<path d="M 124.2,87.4 L 123.9,86.7 L 123.3,86.2" style="fill:none;stroke:#000000;stroke-width:2.0px;stroke-linecap:butt;stroke-linejoin:miter;stroke-opacity:1;"/>
<path d="M 113.1,76.3 L 112.5,75.8 L 111.8,75.5" style="fill:none;stroke:#000000;stroke-width:2.0px;stroke-linecap:butt;stroke-linejoin:miter;stroke-opacity:1;"/>
<path d="M 137.0,62.3 L 136.6,63.0 L 136.7,63.2" style="fill:none;stroke:#000000;stroke-width:2.0px;stroke-linecap:butt;stroke-linejoin:miter;stroke-opacity:1;"/>
<path d="M 144.5,50.3 L 144.9,49.6 L 145.7,49.6" style="fill:none;stroke:#000000;stroke-width:2.0px;stroke-linecap:butt;stroke-linejoin:miter;stroke-opacity:1;"/>
<path d="M 167.7,63.3 L 168.0,64.0 L 167.6,64.7" style="fill:none;stroke:#000000;stroke-width:2.0px;stroke-linecap:butt;stroke-linejoin:miter;stroke-opacity:1;"/>
<path d="M 160.1,76.7 L 159.7,77.4 L 159.4,77.4" style="fill:none;stroke:#000000;stroke-width:2.0px;stroke-linecap:butt;stroke-linejoin:miter;stroke-opacity:1;"/>
<path d="M 98.5,70.7 L 97.7,70.4 L 96.9,70.5" style="fill:none;stroke:#000000;stroke-width:2.0px;stroke-linecap:butt;stroke-linejoin:miter;stroke-opacity:1;"/>
<path d="M 82.8,71.5 L 82.0,71.6 L 81.3,71.9" style="fill:none;stroke:#000000;stroke-width:2.0px;stroke-linecap:butt;stroke-linejoin:miter;stroke-opacity:1;"/>
<path d="M 62.3,52.3 L 62.4,52.6 L 61.8,53.2" style="fill:none;stroke:#000000;stroke-width:2.0px;stroke-linecap:butt;stroke-linejoin:miter;stroke-opacity:1;"/>
<path d="M 43.1,33.8 L 42.7,33.7 L 42.2,34.3" style="fill:none;stroke:#000000;stroke-width:2.0px;stroke-linecap:butt;stroke-linejoin:miter;stroke-opacity:1;"/>
<path d="M 32.4,44.5 L 31.8,45.1 L 32.1,45.8" style="fill:none;stroke:#000000;stroke-width:2.0px;stroke-linecap:butt;stroke-linejoin:miter;stroke-opacity:1;"/>
<path d="M 36.0,59.4 L 36.2,60.2 L 37.0,60.4" style="fill:none;stroke:#000000;stroke-width:2.0px;stroke-linecap:butt;stroke-linejoin:miter;stroke-opacity:1;"/>
<path d="M 50.7,63.8 L 51.5,64.0 L 52.0,63.4" style="fill:none;stroke:#000000;stroke-width:2.0px;stroke-linecap:butt;stroke-linejoin:miter;stroke-opacity:1;"/>
<path d="M 59.0,90.8 L 58.5,91.4 L 58.3,92.1" style="fill:none;stroke:#000000;stroke-width:2.0px;stroke-linecap:butt;stroke-linejoin:miter;stroke-opacity:1;"/>
<path d="M 54.9,105.9 L 54.7,106.7 L 54.8,107.4" style="fill:none;stroke:#000000;stroke-width:2.0px;stroke-linecap:butt;stroke-linejoin:miter;stroke-opacity:1;"/>
<path d="M 57.3,121.4 L 57.4,122.2 L 57.6,122.4" style="fill:none;stroke:#000000;stroke-width:2.0px;stroke-linecap:butt;stroke-linejoin:miter;stroke-opacity:1;"/>
<path d="M 79.3,143.3 L 79.6,143.5 L 80.4,143.6" style="fill:none;stroke:#000000;stroke-width:2.0px;stroke-linecap:butt;stroke-linejoin:miter;stroke-opacity:1;"/>
<path d="M 94.4,145.6 L 95.2,145.7 L 96.0,145.5" style="fill:none;stroke:#000000;stroke-width:2.0px;stroke-linecap:butt;stroke-linejoin:miter;stroke-opacity:1;"/>
<path class="atom-3" d="M 127.2 117.0 Q 127.2 116.0, 127.7 115.4 Q 128.3 114.8, 129.3 114.8 Q 130.2 114.8, 130.8 115.4 Q 131.3 116.0, 131.3 117.0 Q 131.3 118.1, 130.8 118.7 Q 130.2 119.3, 129.3 119.3 Q 128.3 119.3, 127.7 118.7 Q 127.2 118.1, 127.2 117.0 M 129.3 118.8 Q 129.9 118.8, 130.3 118.4 Q 130.7 117.9, 130.7 117.0 Q 130.7 116.2, 130.3 115.7 Q 129.9 115.3, 129.3 115.3 Q 128.6 115.3, 128.2 115.7 Q 127.8 116.2, 127.8 117.0 Q 127.8 117.9, 128.2 118.4 Q 128.6 118.8, 129.3 118.8 " fill="#FF0000"/>
<path class="atom-5" d="M 143.2 98.5 Q 143.2 97.5, 143.8 96.9 Q 144.3 96.3, 145.3 96.3 Q 146.3 96.3, 146.8 96.9 Q 147.3 97.5, 147.3 98.5 Q 147.3 99.6, 146.8 100.2 Q 146.3 100.9, 145.3 100.9 Q 144.3 100.9, 143.8 100.2 Q 143.2 99.6, 143.2 98.5 M 145.3 100.4 Q 146.0 100.4, 146.3 99.9 Q 146.7 99.4, 146.7 98.5 Q 146.7 97.7, 146.3 97.2 Q 146.0 96.8, 145.3 96.8 Q 144.6 96.8, 144.2 97.2 Q 143.9 97.7, 143.9 98.5 Q 143.9 99.4, 144.2 99.9 Q 144.6 100.4, 145.3 100.4 " fill="#FF0000"/>
<path class="atom-9" d="M 118.8 62.4 Q 118.8 61.4, 119.3 60.8 Q 119.9 60.2, 120.8 60.2 Q 121.8 60.2, 122.4 60.8 Q 122.9 61.4, 122.9 62.4 Q 122.9 63.5, 122.4 64.1 Q 121.8 64.8, 120.8 64.8 Q 119.9 64.8, 119.3 64.1 Q 118.8 63.5, 118.8 62.4 M 120.8 64.3 Q 121.5 64.3, 121.9 63.8 Q 122.3 63.3, 122.3 62.4 Q 122.3 61.6, 121.9 61.1 Q 121.5 60.7, 120.8 60.7 Q 120.2 60.7, 119.8 61.1 Q 119.4 61.6, 119.4 62.4 Q 119.4 63.3, 119.8 63.8 Q 120.2 64.3, 120.8 64.3 " fill="#FF0000"/>
<path class="atom-14" d="M 156.4 34.6 Q 156.4 33.5, 156.9 32.9 Q 157.4 32.3, 158.4 32.3 Q 159.4 32.3, 159.9 32.9 Q 160.5 33.5, 160.5 34.6 Q 160.5 35.6, 159.9 36.3 Q 159.4 36.9, 158.4 36.9 Q 157.4 36.9, 156.9 36.3 Q 156.4 35.6, 156.4 34.6 M 158.4 36.4 Q 159.1 36.4, 159.5 35.9 Q 159.8 35.4, 159.8 34.6 Q 159.8 33.7, 159.5 33.2 Q 159.1 32.8, 158.4 32.8 Q 157.7 32.8, 157.4 33.2 Q 157.0 33.7, 157.0 34.6 Q 157.0 35.5, 157.4 35.9 Q 157.7 36.4, 158.4 36.4 " fill="#FF0000"/>
<path class="atom-17" d="M 181.7 64.5 Q 181.7 63.5, 182.3 62.9 Q 182.8 62.3, 183.8 62.3 Q 184.8 62.3, 185.3 62.9 Q 185.8 63.5, 185.8 64.5 Q 185.8 65.6, 185.3 66.2 Q 184.7 66.9, 183.8 66.9 Q 182.8 66.9, 182.3 66.2 Q 181.7 65.6, 181.7 64.5 M 183.8 66.4 Q 184.5 66.4, 184.8 65.9 Q 185.2 65.4, 185.2 64.5 Q 185.2 63.7, 184.8 63.2 Q 184.5 62.8, 183.8 62.8 Q 183.1 62.8, 182.7 63.2 Q 182.4 63.7, 182.4 64.5 Q 182.4 65.4, 182.7 65.9 Q 183.1 66.4, 183.8 66.4 " fill="#FF0000"/>
<path class="atom-17" d="M 186.5 62.3 L 187.1 62.3 L 187.1 64.2 L 189.4 64.2 L 189.4 62.3 L 190.0 62.3 L 190.0 66.8 L 189.4 66.8 L 189.4 64.7 L 187.1 64.7 L 187.1 66.8 L 186.5 66.8 L 186.5 62.3 " fill="#FF0000"/>
<path class="atom-20" d="M 141.9 76.9 Q 141.9 75.8, 142.5 75.2 Q 143.0 74.6, 144.0 74.6 Q 145.0 74.6, 145.5 75.2 Q 146.0 75.8, 146.0 76.9 Q 146.0 77.9, 145.5 78.6 Q 145.0 79.2, 144.0 79.2 Q 143.0 79.2, 142.5 78.6 Q 141.9 77.9, 141.9 76.9 M 144.0 78.7 Q 144.7 78.7, 145.0 78.2 Q 145.4 77.7, 145.4 76.9 Q 145.4 76.0, 145.0 75.5 Q 144.7 75.1, 144.0 75.1 Q 143.3 75.1, 142.9 75.5 Q 142.6 76.0, 142.6 76.9 Q 142.6 77.8, 142.9 78.2 Q 143.3 78.7, 144.0 78.7 " fill="#FF0000"/>
<path class="atom-24" d="M 75.6 56.4 Q 75.6 55.4, 76.1 54.8 Q 76.7 54.2, 77.7 54.2 Q 78.7 54.2, 79.2 54.8 Q 79.7 55.4, 79.7 56.4 Q 79.7 57.5, 79.2 58.1 Q 78.6 58.8, 77.7 58.8 Q 76.7 58.8, 76.1 58.1 Q 75.6 57.5, 75.6 56.4 M 77.7 58.3 Q 78.3 58.3, 78.7 57.8 Q 79.1 57.3, 79.1 56.4 Q 79.1 55.6, 78.7 55.1 Q 78.3 54.7, 77.7 54.7 Q 77.0 54.7, 76.6 55.1 Q 76.3 55.6, 76.3 56.4 Q 76.3 57.3, 76.6 57.8 Q 77.0 58.3, 77.7 58.3 " fill="#FF0000"/>
<path class="atom-26" d="M 56.0 37.5 Q 56.0 36.5, 56.5 35.9 Q 57.0 35.3, 58.0 35.3 Q 59.0 35.3, 59.5 35.9 Q 60.1 36.5, 60.1 37.5 Q 60.1 38.6, 59.5 39.2 Q 59.0 39.8, 58.0 39.8 Q 57.0 39.8, 56.5 39.2 Q 56.0 38.6, 56.0 37.5 M 58.0 39.3 Q 58.7 39.3, 59.1 38.9 Q 59.4 38.4, 59.4 37.5 Q 59.4 36.7, 59.1 36.2 Q 58.7 35.8, 58.0 35.8 Q 57.3 35.8, 57.0 36.2 Q 56.6 36.7, 56.6 37.5 Q 56.6 38.4, 57.0 38.9 Q 57.3 39.3, 58.0 39.3 " fill="#FF0000"/>
<path class="atom-31" d="M 24.3 69.3 L 25.8 71.7 Q 25.9 71.9, 26.1 72.3 Q 26.4 72.8, 26.4 72.8 L 26.4 69.3 L 27.0 69.3 L 27.0 73.8 L 26.4 73.8 L 24.8 71.2 Q 24.6 70.9, 24.4 70.5 Q 24.2 70.2, 24.2 70.1 L 24.2 73.8 L 23.6 73.8 L 23.6 69.3 L 24.3 69.3 " fill="#0000FF"/>
<path class="atom-35" d="M 50.7 72.3 Q 50.7 71.2, 51.3 70.6 Q 51.8 70.0, 52.8 70.0 Q 53.8 70.0, 54.3 70.6 Q 54.8 71.2, 54.8 72.3 Q 54.8 73.3, 54.3 74.0 Q 53.8 74.6, 52.8 74.6 Q 51.8 74.6, 51.3 74.0 Q 50.7 73.3, 50.7 72.3 M 52.8 74.1 Q 53.5 74.1, 53.8 73.6 Q 54.2 73.2, 54.2 72.3 Q 54.2 71.4, 53.8 70.9 Q 53.5 70.5, 52.8 70.5 Q 52.1 70.5, 51.7 70.9 Q 51.4 71.4, 51.4 72.3 Q 51.4 73.2, 51.7 73.6 Q 52.1 74.1, 52.8 74.1 " fill="#FF0000"/>
<path class="atom-35" d="M 55.5 70.0 L 56.1 70.0 L 56.1 71.9 L 58.4 71.9 L 58.4 70.0 L 59.0 70.0 L 59.0 74.5 L 58.4 74.5 L 58.4 72.4 L 56.1 72.4 L 56.1 74.5 L 55.5 74.5 L 55.5 70.0 " fill="#FF0000"/>
<path class="atom-38" d="M 64.4 63.3 Q 64.4 62.3, 65.0 61.7 Q 65.5 61.1, 66.5 61.1 Q 67.5 61.1, 68.0 61.7 Q 68.5 62.3, 68.5 63.3 Q 68.5 64.4, 68.0 65.0 Q 67.4 65.6, 66.5 65.6 Q 65.5 65.6, 65.0 65.0 Q 64.4 64.4, 64.4 63.3 M 66.5 65.1 Q 67.2 65.1, 67.5 64.7 Q 67.9 64.2, 67.9 63.3 Q 67.9 62.5, 67.5 62.0 Q 67.2 61.6, 66.5 61.6 Q 65.8 61.6, 65.4 62.0 Q 65.1 62.4, 65.1 63.3 Q 65.1 64.2, 65.4 64.7 Q 65.8 65.1, 66.5 65.1 " fill="#FF0000"/>
<path class="atom-38" d="M 69.2 61.1 L 69.8 61.1 L 69.8 63.0 L 72.1 63.0 L 72.1 61.1 L 72.7 61.1 L 72.7 65.6 L 72.1 65.6 L 72.1 63.5 L 69.8 63.5 L 69.8 65.6 L 69.2 65.6 L 69.2 61.1 " fill="#FF0000"/>
<path class="atom-43" d="M 65.3 133.0 L 66.7 135.3 Q 66.9 135.6, 67.1 136.0 Q 67.4 136.4, 67.4 136.4 L 67.4 133.0 L 68.0 133.0 L 68.0 137.4 L 67.3 137.4 L 65.8 134.8 Q 65.6 134.5, 65.4 134.2 Q 65.2 133.8, 65.2 133.7 L 65.2 137.4 L 64.6 137.4 L 64.6 133.0 L 65.3 133.0 " fill="#0000FF"/>
<path class="atom-48" d="M 94.3 161.4 Q 94.3 160.3, 94.8 159.7 Q 95.4 159.1, 96.3 159.1 Q 97.3 159.1, 97.9 159.7 Q 98.4 160.3, 98.4 161.4 Q 98.4 162.5, 97.9 163.1 Q 97.3 163.7, 96.3 163.7 Q 95.4 163.7, 94.8 163.1 Q 94.3 162.5, 94.3 161.4 M 96.3 163.2 Q 97.0 163.2, 97.4 162.7 Q 97.8 162.3, 97.8 161.4 Q 97.8 160.5, 97.4 160.1 Q 97.0 159.6, 96.3 159.6 Q 95.7 159.6, 95.3 160.1 Q 94.9 160.5, 94.9 161.4 Q 94.9 162.3, 95.3 162.7 Q 95.7 163.2, 96.3 163.2 " fill="#FF0000"/>
<path class="atom-48" d="M 99.1 159.2 L 99.7 159.2 L 99.7 161.1 L 102.0 161.1 L 102.0 159.2 L 102.6 159.2 L 102.6 163.6 L 102.0 163.6 L 102.0 161.6 L 99.7 161.6 L 99.7 163.6 L 99.1 163.6 L 99.1 159.2 " fill="#FF0000"/>
<path class="atom-51" d="M 106.7 157.0 Q 106.7 155.9, 107.2 155.3 Q 107.7 154.7, 108.7 154.7 Q 109.7 154.7, 110.2 155.3 Q 110.8 155.9, 110.8 157.0 Q 110.8 158.1, 110.2 158.7 Q 109.7 159.3, 108.7 159.3 Q 107.7 159.3, 107.2 158.7 Q 106.7 158.1, 106.7 157.0 M 108.7 158.8 Q 109.4 158.8, 109.8 158.3 Q 110.1 157.9, 110.1 157.0 Q 110.1 156.1, 109.8 155.7 Q 109.4 155.2, 108.7 155.2 Q 108.0 155.2, 107.7 155.7 Q 107.3 156.1, 107.3 157.0 Q 107.3 157.9, 107.7 158.3 Q 108.0 158.8, 108.7 158.8 " fill="#FF0000"/>
<path class="atom-51" d="M 111.5 154.8 L 112.1 154.8 L 112.1 156.7 L 114.3 156.7 L 114.3 154.8 L 114.9 154.8 L 114.9 159.2 L 114.3 159.2 L 114.3 157.2 L 112.1 157.2 L 112.1 159.2 L 111.5 159.2 L 111.5 154.8 " fill="#FF0000"/>
<path class="legend" d="M 52.4 189.8 L 51.2 186.5 L 46.7 186.5 L 45.6 189.8 L 44.1 189.8 L 48.0 178.5 L 49.8 178.5 L 53.9 189.8 L 52.4 189.8 M 47.2 185.2 L 50.8 185.2 L 48.9 180.1 L 47.2 185.2 " fill="#000000"/>
<path class="legend" d="M 54.9 188.6 L 60.6 179.8 L 55.1 179.8 L 55.1 178.5 L 62.5 178.5 L 62.5 179.6 L 56.8 188.5 L 62.4 188.5 L 62.4 189.8 L 54.9 189.8 L 54.9 188.6 " fill="#000000"/>
<path class="legend" d="M 64.0 178.4 L 65.5 178.4 L 65.5 189.8 L 64.0 189.8 L 64.0 178.4 " fill="#000000"/>
<path class="legend" d="M 71.2 179.8 L 67.7 179.8 L 67.7 178.5 L 76.1 178.5 L 76.1 179.8 L 72.8 179.8 L 72.8 189.8 L 71.2 189.8 L 71.2 179.8 " fill="#000000"/>
<path class="legend" d="M 76.9 178.5 L 78.4 178.5 L 78.4 183.3 L 84.2 183.3 L 84.2 178.5 L 85.7 178.5 L 85.7 189.8 L 84.2 189.8 L 84.2 184.6 L 78.4 184.6 L 78.4 189.8 L 76.9 189.8 L 76.9 178.5 " fill="#000000"/>
<path class="legend" d="M 94.0 189.8 L 91.3 185.2 L 91.2 185.2 L 89.4 185.2 L 89.4 189.8 L 87.9 189.8 L 87.9 178.5 L 91.2 178.5 Q 93.2 178.5, 94.1 179.4 Q 95.1 180.2, 95.1 181.8 Q 95.1 183.0, 94.5 183.8 Q 93.9 184.6, 92.8 185.0 L 95.7 189.8 L 94.0 189.8 M 89.4 183.9 L 91.2 183.9 Q 92.3 183.9, 92.9 183.4 Q 93.5 182.8, 93.5 181.8 Q 93.5 180.8, 92.9 180.3 Q 92.3 179.8, 91.2 179.8 L 89.4 179.8 L 89.4 183.9 " fill="#000000"/>
<path class="legend" d="M 96.8 184.1 Q 96.8 181.4, 98.2 179.9 Q 99.5 178.4, 102.0 178.4 Q 104.6 178.4, 105.9 179.9 Q 107.2 181.4, 107.2 184.1 Q 107.2 186.9, 105.9 188.4 Q 104.5 190.0, 102.0 190.0 Q 99.5 190.0, 98.2 188.4 Q 96.8 186.9, 96.8 184.1 M 102.0 188.7 Q 103.8 188.7, 104.7 187.6 Q 105.6 186.4, 105.6 184.1 Q 105.6 181.9, 104.7 180.8 Q 103.8 179.6, 102.0 179.6 Q 100.3 179.6, 99.4 180.8 Q 98.4 181.9, 98.4 184.1 Q 98.4 186.4, 99.4 187.6 Q 100.3 188.7, 102.0 188.7 " fill="#000000"/>
<path class="legend" d="M 121.8 189.8 L 120.3 189.8 L 119.1 180.6 L 116.1 189.8 L 114.5 189.8 L 111.5 180.6 L 110.3 189.8 L 108.8 189.8 L 110.3 178.5 L 112.2 178.5 L 115.3 187.6 L 118.4 178.5 L 120.3 178.5 L 121.8 189.8 " fill="#000000"/>
<path class="legend" d="M 127.4 185.1 L 123.6 178.5 L 125.3 178.5 L 128.1 183.6 L 131.0 178.5 L 132.6 178.5 L 128.9 185.1 L 128.9 189.8 L 127.4 189.8 L 127.4 185.1 " fill="#000000"/>
<path class="legend" d="M 133.5 184.1 Q 133.5 181.3, 134.8 179.9 Q 136.1 178.4, 138.6 178.4 Q 141.0 178.4, 142.2 180.0 L 141.1 180.9 Q 140.2 179.7, 138.6 179.7 Q 136.9 179.7, 136.0 180.8 Q 135.1 182.0, 135.1 184.1 Q 135.1 186.4, 136.0 187.5 Q 137.0 188.7, 138.8 188.7 Q 140.0 188.7, 141.5 187.9 L 141.9 189.1 Q 141.4 189.5, 140.5 189.7 Q 139.6 190.0, 138.6 190.0 Q 136.1 190.0, 134.8 188.5 Q 133.5 187.0, 133.5 184.1 " fill="#000000"/>
<path class="legend" d="M 143.6 178.4 L 145.2 178.4 L 145.2 189.8 L 143.6 189.8 L 143.6 178.4 " fill="#000000"/>
<path class="legend" d="M 149.1 178.5 L 152.9 184.5 Q 153.2 185.1, 153.8 186.2 Q 154.4 187.2, 154.4 187.3 L 154.4 178.5 L 155.9 178.5 L 155.9 189.8 L 154.4 189.8 L 150.4 183.3 Q 149.9 182.5, 149.5 181.6 Q 149.0 180.7, 148.8 180.5 L 148.8 189.8 L 147.4 189.8 L 147.4 178.5 L 149.1 178.5 " fill="#000000"/>
<path class="bond-0 atom-0 atom-1" d="M 332.6,156.3 L 334.8,140.7" style="fill:none;fill-rule:evenodd;stroke:#000000;stroke-width:2.0px;stroke-linecap:butt;stroke-linejoin:miter;stroke-opacity:1"/>
<path class="bond-1 atom-1 atom-2" d="M 334.8,140.7 L 322.4,131.0" style="fill:none;fill-rule:evenodd;stroke:#000000;stroke-width:2.0px;stroke-linecap:butt;stroke-linejoin:miter;stroke-opacity:1"/>
<path class="bond-2 atom-2 atom-3" d="M 322.4,131.0 L 325.1,125.4" style="fill:none;fill-rule:evenodd;stroke:#000000;stroke-width:2.0px;stroke-linecap:butt;stroke-linejoin:miter;stroke-opacity:1"/>
<path class="bond-2 atom-2 atom-3" d="M 325.1,125.4 L 327.9,119.7" style="fill:none;fill-rule:evenodd;stroke:#FF0000;stroke-width:2.0px;stroke-linecap:butt;stroke-linejoin:miter;stroke-opacity:1"/>
<path class="bond-3 atom-3 atom-4" d="M 329.4,114.1 L 329.6,107.6" style="fill:none;fill-rule:evenodd;stroke:#FF0000;stroke-width:2.0px;stroke-linecap:butt;stroke-linejoin:miter;stroke-opacity:1"/>
<path class="bond-3 atom-3 atom-4" d="M 329.6,107.6 L 329.8,101.1" style="fill:none;fill-rule:evenodd;stroke:#000000;stroke-width:2.0px;stroke-linecap:butt;stroke-linejoin:miter;stroke-opacity:1"/>
<path class="bond-4 atom-4 atom-5" d="M 329.7,102.3 L 336.3,101.1" style="fill:none;fill-rule:evenodd;stroke:#000000;stroke-width:2.0px;stroke-linecap:butt;stroke-linejoin:miter;stroke-opacity:1"/>
<path class="bond-4 atom-4 atom-5" d="M 336.3,101.1 L 342.9,100.0" style="fill:none;fill-rule:evenodd;stroke:#FF0000;stroke-width:2.0px;stroke-linecap:butt;stroke-linejoin:miter;stroke-opacity:1"/>
<path class="bond-4 atom-4 atom-5" d="M 329.3,100.0 L 335.9,98.9" style="fill:none;fill-rule:evenodd;stroke:#000000;stroke-width:2.0px;stroke-linecap:butt;stroke-linejoin:miter;stroke-opacity:1"/>
<path class="bond-4 atom-4 atom-5" d="M 335.9,98.9 L 342.5,97.7" style="fill:none;fill-rule:evenodd;stroke:#FF0000;stroke-width:2.0px;stroke-linecap:butt;stroke-linejoin:miter;stroke-opacity:1"/>
<path class="bond-5 atom-4 atom-6" d="M 329.8,101.1 L 323.9,86.5" style="fill:none;fill-rule:evenodd;stroke:#000000;stroke-width:2.0px;stroke-linecap:butt;stroke-linejoin:miter;stroke-opacity:1"/>
<path class="bond-6 atom-6 atom-7" d="M 323.9,86.5 L 337.2,81.7" style="fill:none;fill-rule:evenodd;stroke:#000000;stroke-width:2.0px;stroke-linecap:butt;stroke-linejoin:miter;stroke-opacity:1"/>
<path class="bond-7 atom-6 atom-8" d="M 323.9,86.5 L 312.5,75.6" style="fill:none;fill-rule:evenodd;stroke:#000000;stroke-width:2.0px;stroke-linecap:butt;stroke-linejoin:miter;stroke-opacity:1"/>
<path class="bond-8 atom-8 atom-9" d="M 312.5,75.6 L 315.8,70.4" style="fill:none;fill-rule:evenodd;stroke:#000000;stroke-width:2.0px;stroke-linecap:butt;stroke-linejoin:miter;stroke-opacity:1"/>
<path class="bond-8 atom-8 atom-9" d="M 315.8,70.4 L 319.1,65.1" style="fill:none;fill-rule:evenodd;stroke:#FF0000;stroke-width:2.0px;stroke-linecap:butt;stroke-linejoin:miter;stroke-opacity:1"/>
<path class="bond-9 atom-9 atom-10" d="M 323.4,62.4 L 330.0,62.6" style="fill:none;fill-rule:evenodd;stroke:#FF0000;stroke-width:2.0px;stroke-linecap:butt;stroke-linejoin:miter;stroke-opacity:1"/>
<path class="bond-9 atom-9 atom-10" d="M 330.0,62.6 L 336.6,62.8" style="fill:none;fill-rule:evenodd;stroke:#000000;stroke-width:2.0px;stroke-linecap:butt;stroke-linejoin:miter;stroke-opacity:1"/>
<path class="bond-10 atom-10 atom-11" d="M 336.6,62.8 L 344.9,49.4" style="fill:none;fill-rule:evenodd;stroke:#000000;stroke-width:2.0px;stroke-linecap:butt;stroke-linejoin:miter;stroke-opacity:1"/>
<path class="bond-11 atom-11 atom-12" d="M 344.9,49.4 L 360.6,50.0" style="fill:none;fill-rule:evenodd;stroke:#000000;stroke-width:2.0px;stroke-linecap:butt;stroke-linejoin:miter;stroke-opacity:1"/>
<path class="bond-12 atom-12 atom-13" d="M 360.6,50.0 L 375.6,45.1" style="fill:none;fill-rule:evenodd;stroke:#000000;stroke-width:2.0px;stroke-linecap:butt;stroke-linejoin:miter;stroke-opacity:1"/>
<path class="bond-13 atom-12 atom-14" d="M 360.6,50.0 L 359.7,43.6" style="fill:none;fill-rule:evenodd;stroke:#000000;stroke-width:2.0px;stroke-linecap:butt;stroke-linejoin:miter;stroke-opacity:1"/>
<path class="bond-13 atom-12 atom-14" d="M 359.7,43.6 L 358.8,37.2" style="fill:none;fill-rule:evenodd;stroke:#FF0000;stroke-width:2.0px;stroke-linecap:butt;stroke-linejoin:miter;stroke-opacity:1"/>
<path class="bond-14 atom-14 atom-15" d="M 361.0,32.4 L 365.9,28.5" style="fill:none;fill-rule:evenodd;stroke:#FF0000;stroke-width:2.0px;stroke-linecap:butt;stroke-linejoin:miter;stroke-opacity:1"/>
<path class="bond-14 atom-14 atom-15" d="M 365.9,28.5 L 370.8,24.7" style="fill:none;fill-rule:evenodd;stroke:#000000;stroke-width:2.0px;stroke-linecap:butt;stroke-linejoin:miter;stroke-opacity:1"/>
<path class="bond-15 atom-12 atom-16" d="M 360.6,50.0 L 368.0,63.8" style="fill:none;fill-rule:evenodd;stroke:#000000;stroke-width:2.0px;stroke-linecap:butt;stroke-linejoin:miter;stroke-opacity:1"/>
<path class="bond-16 atom-16 atom-17" d="M 368.0,63.8 L 374.6,64.1" style="fill:none;fill-rule:evenodd;stroke:#000000;stroke-width:2.0px;stroke-linecap:butt;stroke-linejoin:miter;stroke-opacity:1"/>
<path class="bond-16 atom-16 atom-17" d="M 374.6,64.1 L 381.2,64.3" style="fill:none;fill-rule:evenodd;stroke:#FF0000;stroke-width:2.0px;stroke-linecap:butt;stroke-linejoin:miter;stroke-opacity:1"/>
<path class="bond-17 atom-16 atom-18" d="M 368.0,63.8 L 359.7,77.2" style="fill:none;fill-rule:evenodd;stroke:#000000;stroke-width:2.0px;stroke-linecap:butt;stroke-linejoin:miter;stroke-opacity:1"/>
<path class="bond-18 atom-18 atom-19" d="M 359.7,77.2 L 367.1,91.1" style="fill:none;fill-rule:evenodd;stroke:#000000;stroke-width:2.0px;stroke-linecap:butt;stroke-linejoin:miter;stroke-opacity:1"/>
<path class="bond-19 atom-18 atom-20" d="M 359.7,77.2 L 353.1,77.0" style="fill:none;fill-rule:evenodd;stroke:#000000;stroke-width:2.0px;stroke-linecap:butt;stroke-linejoin:miter;stroke-opacity:1"/>
<path class="bond-19 atom-18 atom-20" d="M 353.1,77.0 L 346.5,76.8" style="fill:none;fill-rule:evenodd;stroke:#FF0000;stroke-width:2.0px;stroke-linecap:butt;stroke-linejoin:miter;stroke-opacity:1"/>
<path class="bond-20 atom-8 atom-21" d="M 312.5,75.6 L 297.7,70.3" style="fill:none;fill-rule:evenodd;stroke:#000000;stroke-width:2.0px;stroke-linecap:butt;stroke-linejoin:miter;stroke-opacity:1"/>
<path class="bond-21 atom-21 atom-22" d="M 297.7,70.3 L 299.9,54.7" style="fill:none;fill-rule:evenodd;stroke:#000000;stroke-width:2.0px;stroke-linecap:butt;stroke-linejoin:miter;stroke-opacity:1"/>
<path class="bond-22 atom-21 atom-23" d="M 297.7,70.3 L 282.0,71.4" style="fill:none;fill-rule:evenodd;stroke:#000000;stroke-width:2.0px;stroke-linecap:butt;stroke-linejoin:miter;stroke-opacity:1"/>
<path class="bond-23 atom-23 atom-24" d="M 282.0,71.4 L 280.3,65.2" style="fill:none;fill-rule:evenodd;stroke:#000000;stroke-width:2.0px;stroke-linecap:butt;stroke-linejoin:miter;stroke-opacity:1"/>
<path class="bond-23 atom-23 atom-24" d="M 280.3,65.2 L 278.5,59.1" style="fill:none;fill-rule:evenodd;stroke:#FF0000;stroke-width:2.0px;stroke-linecap:butt;stroke-linejoin:miter;stroke-opacity:1"/>
<path class="bond-24 atom-24 atom-25" d="M 275.1,55.6 L 268.8,54.1" style="fill:none;fill-rule:evenodd;stroke:#FF0000;stroke-width:2.0px;stroke-linecap:butt;stroke-linejoin:miter;stroke-opacity:1"/>
<path class="bond-24 atom-24 atom-25" d="M 268.8,54.1 L 262.4,52.5" style="fill:none;fill-rule:evenodd;stroke:#000000;stroke-width:2.0px;stroke-linecap:butt;stroke-linejoin:miter;stroke-opacity:1"/>
<path class="bond-25 atom-25 atom-26" d="M 262.4,52.5 L 260.6,46.3" style="fill:none;fill-rule:evenodd;stroke:#000000;stroke-width:2.0px;stroke-linecap:butt;stroke-linejoin:miter;stroke-opacity:1"/>
<path class="bond-25 atom-25 atom-26" d="M 260.6,46.3 L 258.8,40.2" style="fill:none;fill-rule:evenodd;stroke:#FF0000;stroke-width:2.0px;stroke-linecap:butt;stroke-linejoin:miter;stroke-opacity:1"/>
<path class="bond-26 atom-26 atom-27" d="M 255.5,36.7 L 249.1,35.2" style="fill:none;fill-rule:evenodd;stroke:#FF0000;stroke-width:2.0px;stroke-linecap:butt;stroke-linejoin:miter;stroke-opacity:1"/>
<path class="bond-26 atom-26 atom-27" d="M 249.1,35.2 L 242.7,33.6" style="fill:none;fill-rule:evenodd;stroke:#000000;stroke-width:2.0px;stroke-linecap:butt;stroke-linejoin:miter;stroke-opacity:1"/>
<path class="bond-27 atom-27 atom-28" d="M 242.7,33.6 L 238.4,18.5" style="fill:none;fill-rule:evenodd;stroke:#000000;stroke-width:2.0px;stroke-linecap:butt;stroke-linejoin:miter;stroke-opacity:1"/>
<path class="bond-28 atom-27 atom-29" d="M 242.7,33.6 L 231.8,44.9" style="fill:none;fill-rule:evenodd;stroke:#000000;stroke-width:2.0px;stroke-linecap:butt;stroke-linejoin:miter;stroke-opacity:1"/>
<path class="bond-29 atom-29 atom-30" d="M 231.8,44.9 L 236.2,60.0" style="fill:none;fill-rule:evenodd;stroke:#000000;stroke-width:2.0px;stroke-linecap:butt;stroke-linejoin:miter;stroke-opacity:1"/>
<path class="bond-30 atom-30 atom-31" d="M 236.2,60.0 L 231.8,64.6" style="fill:none;fill-rule:evenodd;stroke:#000000;stroke-width:2.0px;stroke-linecap:butt;stroke-linejoin:miter;stroke-opacity:1"/>
<path class="bond-30 atom-30 atom-31" d="M 231.8,64.6 L 227.5,69.1" style="fill:none;fill-rule:evenodd;stroke:#0000FF;stroke-width:2.0px;stroke-linecap:butt;stroke-linejoin:miter;stroke-opacity:1"/>
<path class="bond-31 atom-31 atom-32" d="M 223.1,70.8 L 216.5,69.2" style="fill:none;fill-rule:evenodd;stroke:#0000FF;stroke-width:2.0px;stroke-linecap:butt;stroke-linejoin:miter;stroke-opacity:1"/>
<path class="bond-31 atom-31 atom-32" d="M 216.5,69.2 L 210.0,67.6" style="fill:none;fill-rule:evenodd;stroke:#000000;stroke-width:2.0px;stroke-linecap:butt;stroke-linejoin:miter;stroke-opacity:1"/>
<path class="bond-32 atom-31 atom-33" d="M 226.1,74.1 L 227.9,80.3" style="fill:none;fill-rule:evenodd;stroke:#0000FF;stroke-width:2.0px;stroke-linecap:butt;stroke-linejoin:miter;stroke-opacity:1"/>
<path class="bond-32 atom-31 atom-33" d="M 227.9,80.3 L 229.6,86.5" style="fill:none;fill-rule:evenodd;stroke:#000000;stroke-width:2.0px;stroke-linecap:butt;stroke-linejoin:miter;stroke-opacity:1"/>
<path class="bond-33 atom-30 atom-34" d="M 236.2,60.0 L 251.5,63.8" style="fill:none;fill-rule:evenodd;stroke:#000000;stroke-width:2.0px;stroke-linecap:butt;stroke-linejoin:miter;stroke-opacity:1"/>
<path class="bond-34 atom-34 atom-35" d="M 251.5,63.8 L 251.9,66.6" style="fill:none;fill-rule:evenodd;stroke:#000000;stroke-width:2.0px;stroke-linecap:butt;stroke-linejoin:miter;stroke-opacity:1"/>
<path class="bond-34 atom-34 atom-35" d="M 251.9,66.6 L 252.4,69.3" style="fill:none;fill-rule:evenodd;stroke:#FF0000;stroke-width:2.0px;stroke-linecap:butt;stroke-linejoin:miter;stroke-opacity:1"/>
<path class="bond-35 atom-23 atom-36" d="M 282.0,71.4 L 268.1,78.8" style="fill:none;fill-rule:evenodd;stroke:#000000;stroke-width:2.0px;stroke-linecap:butt;stroke-linejoin:miter;stroke-opacity:1"/>
<path class="bond-36 atom-36 atom-37" d="M 268.1,78.8 L 259.9,77.5" style="fill:none;fill-rule:evenodd;stroke:#000000;stroke-width:2.0px;stroke-linecap:butt;stroke-linejoin:miter;stroke-opacity:1"/>
<path class="bond-37 atom-36 atom-38" d="M 268.1,78.8 L 267.5,72.4" style="fill:none;fill-rule:evenodd;stroke:#000000;stroke-width:2.0px;stroke-linecap:butt;stroke-linejoin:miter;stroke-opacity:1"/>
<path class="bond-37 atom-36 atom-38" d="M 267.5,72.4 L 266.8,66.0" style="fill:none;fill-rule:evenodd;stroke:#FF0000;stroke-width:2.0px;stroke-linecap:butt;stroke-linejoin:miter;stroke-opacity:1"/>
<path class="bond-38 atom-36 atom-39" d="M 268.1,78.8 L 258.5,91.2" style="fill:none;fill-rule:evenodd;stroke:#000000;stroke-width:2.0px;stroke-linecap:butt;stroke-linejoin:miter;stroke-opacity:1"/>
<path class="bond-39 atom-39 atom-40" d="M 258.5,91.2 L 254.7,106.5" style="fill:none;fill-rule:evenodd;stroke:#000000;stroke-width:2.0px;stroke-linecap:butt;stroke-linejoin:miter;stroke-opacity:1"/>
<path class="bond-40 atom-40 atom-41" d="M 254.7,106.5 L 239.0,106.0" style="fill:none;fill-rule:evenodd;stroke:#000000;stroke-width:2.0px;stroke-linecap:butt;stroke-linejoin:miter;stroke-opacity:1"/>
<path class="bond-41 atom-40 atom-42" d="M 254.7,106.5 L 257.4,122.0" style="fill:none;fill-rule:evenodd;stroke:#000000;stroke-width:2.0px;stroke-linecap:butt;stroke-linejoin:miter;stroke-opacity:1"/>
<path class="bond-42 atom-42 atom-43" d="M 257.4,122.0 L 260.9,127.1" style="fill:none;fill-rule:evenodd;stroke:#000000;stroke-width:2.0px;stroke-linecap:butt;stroke-linejoin:miter;stroke-opacity:1"/>
<path class="bond-42 atom-42 atom-43" d="M 260.9,127.1 L 264.4,132.3" style="fill:none;fill-rule:evenodd;stroke:#0000FF;stroke-width:2.0px;stroke-linecap:butt;stroke-linejoin:miter;stroke-opacity:1"/>
<path class="bond-43 atom-43 atom-44" d="M 264.1,137.3 L 259.7,141.8" style="fill:none;fill-rule:evenodd;stroke:#0000FF;stroke-width:2.0px;stroke-linecap:butt;stroke-linejoin:miter;stroke-opacity:1"/>
<path class="bond-43 atom-43 atom-44" d="M 259.7,141.8 L 255.4,146.4" style="fill:none;fill-rule:evenodd;stroke:#000000;stroke-width:2.0px;stroke-linecap:butt;stroke-linejoin:miter;stroke-opacity:1"/>
<path class="bond-44 atom-43 atom-45" d="M 268.5,136.4 L 274.0,139.9" style="fill:none;fill-rule:evenodd;stroke:#0000FF;stroke-width:2.0px;stroke-linecap:butt;stroke-linejoin:miter;stroke-opacity:1"/>
<path class="bond-44 atom-43 atom-45" d="M 274.0,139.9 L 279.6,143.4" style="fill:none;fill-rule:evenodd;stroke:#000000;stroke-width:2.0px;stroke-linecap:butt;stroke-linejoin:miter;stroke-opacity:1"/>
<path class="bond-45 atom-45 atom-46" d="M 279.6,143.4 L 274.3,158.2" style="fill:none;fill-rule:evenodd;stroke:#000000;stroke-width:2.0px;stroke-linecap:butt;stroke-linejoin:miter;stroke-opacity:1"/>
<path class="bond-46 atom-45 atom-47" d="M 279.6,143.4 L 295.2,145.5" style="fill:none;fill-rule:evenodd;stroke:#000000;stroke-width:2.0px;stroke-linecap:butt;stroke-linejoin:miter;stroke-opacity:1"/>
<path class="bond-47 atom-47 atom-48" d="M 295.2,145.5 L 295.7,152.0" style="fill:none;fill-rule:evenodd;stroke:#000000;stroke-width:2.0px;stroke-linecap:butt;stroke-linejoin:miter;stroke-opacity:1"/>
<path class="bond-47 atom-47 atom-48" d="M 295.7,152.0 L 296.1,158.5" style="fill:none;fill-rule:evenodd;stroke:#FF0000;stroke-width:2.0px;stroke-linecap:butt;stroke-linejoin:miter;stroke-opacity:1"/>
<path class="bond-48 atom-47 atom-49" d="M 295.2,145.5 L 310.3,141.2" style="fill:none;fill-rule:evenodd;stroke:#000000;stroke-width:2.0px;stroke-linecap:butt;stroke-linejoin:miter;stroke-opacity:1"/>
<path class="bond-49 atom-49 atom-50" d="M 310.3,141.2 L 324.3,148.5" style="fill:none;fill-rule:evenodd;stroke:#000000;stroke-width:2.0px;stroke-linecap:butt;stroke-linejoin:miter;stroke-opacity:1"/>
<path class="bond-50 atom-49 atom-51" d="M 310.3,141.2 L 309.7,147.6" style="fill:none;fill-rule:evenodd;stroke:#000000;stroke-width:2.0px;stroke-linecap:butt;stroke-linejoin:miter;stroke-opacity:1"/>
<path class="bond-50 atom-49 atom-51" d="M 309.7,147.6 L 309.0,154.1" style="fill:none;fill-rule:evenodd;stroke:#FF0000;stroke-width:2.0px;stroke-linecap:butt;stroke-linejoin:miter;stroke-opacity:1"/>
<path class="bond-51 atom-49 atom-2" d="M 310.3,141.2 L 322.4,131.0" style="fill:none;fill-rule:evenodd;stroke:#000000;stroke-width:2.0px;stroke-linecap:butt;stroke-linejoin:miter;stroke-opacity:1"/>
<path class="bond-52 atom-20 atom-10" d="M 342.5,73.9 L 339.5,68.4" style="fill:none;fill-rule:evenodd;stroke:#FF0000;stroke-width:2.0px;stroke-linecap:butt;stroke-linejoin:miter;stroke-opacity:1"/>
<path class="bond-52 atom-20 atom-10" d="M 339.5,68.4 L 336.6,62.8" style="fill:none;fill-rule:evenodd;stroke:#000000;stroke-width:2.0px;stroke-linecap:butt;stroke-linejoin:miter;stroke-opacity:1"/>
<path class="bond-53 atom-34 atom-25" d="M 251.5,63.8 L 262.4,52.5" style="fill:none;fill-rule:evenodd;stroke:#000000;stroke-width:2.0px;stroke-linecap:butt;stroke-linejoin:miter;stroke-opacity:1"/>
<path d="M 334.7,141.5 L 334.8,140.7 L 334.2,140.2" style="fill:none;stroke:#000000;stroke-width:2.0px;stroke-linecap:butt;stroke-linejoin:miter;stroke-opacity:1;"/>
<path d="M 329.8,101.5 L 329.8,101.1 L 329.5,100.4" style="fill:none;stroke:#000000;stroke-width:2.0px;stroke-linecap:butt;stroke-linejoin:miter;stroke-opacity:1;"/>
<path d="M 344.5,50.1 L 344.9,49.4 L 345.7,49.5" style="fill:none;stroke:#000000;stroke-width:2.0px;stroke-linecap:butt;stroke-linejoin:miter;stroke-opacity:1;"/>
<path d="M 232.4,44.4 L 231.8,44.9 L 232.1,45.7" style="fill:none;stroke:#000000;stroke-width:2.0px;stroke-linecap:butt;stroke-linejoin:miter;stroke-opacity:1;"/>
<path d="M 259.0,90.6 L 258.5,91.2 L 258.3,92.0" style="fill:none;stroke:#000000;stroke-width:2.0px;stroke-linecap:butt;stroke-linejoin:miter;stroke-opacity:1;"/>
<path d="M 257.3,121.2 L 257.4,122.0 L 257.6,122.3" style="fill:none;stroke:#000000;stroke-width:2.0px;stroke-linecap:butt;stroke-linejoin:miter;stroke-opacity:1;"/>
<path class="atom-3" d="M 327.2 116.9 Q 327.2 115.8, 327.7 115.2 Q 328.3 114.6, 329.3 114.6 Q 330.2 114.6, 330.8 115.2 Q 331.3 115.8, 331.3 116.9 Q 331.3 118.0, 330.8 118.6 Q 330.2 119.2, 329.3 119.2 Q 328.3 119.2, 327.7 118.6 Q 327.2 118.0, 327.2 116.9 M 329.3 118.7 Q 329.9 118.7, 330.3 118.2 Q 330.7 117.8, 330.7 116.9 Q 330.7 116.0, 330.3 115.6 Q 329.9 115.1, 329.3 115.1 Q 328.6 115.1, 328.2 115.6 Q 327.8 116.0, 327.8 116.9 Q 327.8 117.8, 328.2 118.2 Q 328.6 118.7, 329.3 118.7 " fill="#FF0000"/>
<path class="atom-5" d="M 343.2 98.4 Q 343.2 97.3, 343.8 96.7 Q 344.3 96.1, 345.3 96.1 Q 346.3 96.1, 346.8 96.7 Q 347.3 97.3, 347.3 98.4 Q 347.3 99.5, 346.8 100.1 Q 346.3 100.7, 345.3 100.7 Q 344.3 100.7, 343.8 100.1 Q 343.2 99.5, 343.2 98.4 M 345.3 100.2 Q 346.0 100.2, 346.3 99.7 Q 346.7 99.3, 346.7 98.4 Q 346.7 97.5, 346.3 97.1 Q 346.0 96.6, 345.3 96.6 Q 344.6 96.6, 344.2 97.1 Q 343.9 97.5, 343.9 98.4 Q 343.9 99.3, 344.2 99.7 Q 344.6 100.2, 345.3 100.2 " fill="#FF0000"/>
<path class="atom-9" d="M 318.8 62.3 Q 318.8 61.2, 319.3 60.6 Q 319.9 60.0, 320.8 60.0 Q 321.8 60.0, 322.4 60.6 Q 322.9 61.2, 322.9 62.3 Q 322.9 63.4, 322.4 64.0 Q 321.8 64.6, 320.8 64.6 Q 319.9 64.6, 319.3 64.0 Q 318.8 63.4, 318.8 62.3 M 320.8 64.1 Q 321.5 64.1, 321.9 63.6 Q 322.3 63.2, 322.3 62.3 Q 322.3 61.4, 321.9 61.0 Q 321.5 60.5, 320.8 60.5 Q 320.2 60.5, 319.8 61.0 Q 319.4 61.4, 319.4 62.3 Q 319.4 63.2, 319.8 63.6 Q 320.2 64.1, 320.8 64.1 " fill="#FF0000"/>
<path class="atom-14" d="M 356.4 34.4 Q 356.4 33.3, 356.9 32.7 Q 357.4 32.1, 358.4 32.1 Q 359.4 32.1, 359.9 32.7 Q 360.5 33.3, 360.5 34.4 Q 360.5 35.5, 359.9 36.1 Q 359.4 36.7, 358.4 36.7 Q 357.4 36.7, 356.9 36.1 Q 356.4 35.5, 356.4 34.4 M 358.4 36.2 Q 359.1 36.2, 359.5 35.7 Q 359.8 35.3, 359.8 34.4 Q 359.8 33.5, 359.5 33.1 Q 359.1 32.6, 358.4 32.6 Q 357.7 32.6, 357.4 33.1 Q 357.0 33.5, 357.0 34.4 Q 357.0 35.3, 357.4 35.7 Q 357.7 36.2, 358.4 36.2 " fill="#FF0000"/>
<path class="atom-17" d="M 381.7 64.4 Q 381.7 63.3, 382.3 62.7 Q 382.8 62.1, 383.8 62.1 Q 384.8 62.1, 385.3 62.7 Q 385.8 63.3, 385.8 64.4 Q 385.8 65.5, 385.3 66.1 Q 384.7 66.7, 383.8 66.7 Q 382.8 66.7, 382.3 66.1 Q 381.7 65.5, 381.7 64.4 M 383.8 66.2 Q 384.5 66.2, 384.8 65.7 Q 385.2 65.3, 385.2 64.4 Q 385.2 63.5, 384.8 63.1 Q 384.5 62.6, 383.8 62.6 Q 383.1 62.6, 382.7 63.1 Q 382.4 63.5, 382.4 64.4 Q 382.4 65.3, 382.7 65.7 Q 383.1 66.2, 383.8 66.2 " fill="#FF0000"/>
<path class="atom-17" d="M 386.5 62.2 L 387.1 62.2 L 387.1 64.1 L 389.4 64.1 L 389.4 62.2 L 390.0 62.2 L 390.0 66.6 L 389.4 66.6 L 389.4 64.6 L 387.1 64.6 L 387.1 66.6 L 386.5 66.6 L 386.5 62.2 " fill="#FF0000"/>
<path class="atom-20" d="M 341.9 76.7 Q 341.9 75.6, 342.5 75.0 Q 343.0 74.4, 344.0 74.4 Q 345.0 74.4, 345.5 75.0 Q 346.0 75.6, 346.0 76.7 Q 346.0 77.8, 345.5 78.4 Q 345.0 79.0, 344.0 79.0 Q 343.0 79.0, 342.5 78.4 Q 341.9 77.8, 341.9 76.7 M 344.0 78.5 Q 344.7 78.5, 345.0 78.0 Q 345.4 77.6, 345.4 76.7 Q 345.4 75.8, 345.0 75.4 Q 344.7 74.9, 344.0 74.9 Q 343.3 74.9, 342.9 75.4 Q 342.6 75.8, 342.6 76.7 Q 342.6 77.6, 342.9 78.0 Q 343.3 78.5, 344.0 78.5 " fill="#FF0000"/>
<path class="atom-24" d="M 275.6 56.3 Q 275.6 55.2, 276.1 54.6 Q 276.7 54.0, 277.7 54.0 Q 278.7 54.0, 279.2 54.6 Q 279.7 55.2, 279.7 56.3 Q 279.7 57.4, 279.2 58.0 Q 278.6 58.6, 277.7 58.6 Q 276.7 58.6, 276.1 58.0 Q 275.6 57.4, 275.6 56.3 M 277.7 58.1 Q 278.3 58.1, 278.7 57.6 Q 279.1 57.2, 279.1 56.3 Q 279.1 55.4, 278.7 55.0 Q 278.3 54.5, 277.7 54.5 Q 277.0 54.5, 276.6 55.0 Q 276.3 55.4, 276.3 56.3 Q 276.3 57.2, 276.6 57.6 Q 277.0 58.1, 277.7 58.1 " fill="#FF0000"/>
<path class="atom-26" d="M 256.0 37.4 Q 256.0 36.3, 256.5 35.7 Q 257.0 35.1, 258.0 35.1 Q 259.0 35.1, 259.5 35.7 Q 260.1 36.3, 260.1 37.4 Q 260.1 38.5, 259.5 39.1 Q 259.0 39.7, 258.0 39.7 Q 257.0 39.7, 256.5 39.1 Q 256.0 38.5, 256.0 37.4 M 258.0 39.2 Q 258.7 39.2, 259.1 38.7 Q 259.4 38.3, 259.4 37.4 Q 259.4 36.5, 259.1 36.1 Q 258.7 35.6, 258.0 35.6 Q 257.3 35.6, 257.0 36.1 Q 256.6 36.5, 256.6 37.4 Q 256.6 38.3, 257.0 38.7 Q 257.3 39.2, 258.0 39.2 " fill="#FF0000"/>
<path class="atom-31" d="M 224.3 69.2 L 225.8 71.5 Q 225.9 71.7, 226.1 72.2 Q 226.4 72.6, 226.4 72.6 L 226.4 69.2 L 227.0 69.2 L 227.0 73.6 L 226.4 73.6 L 224.8 71.0 Q 224.6 70.7, 224.4 70.4 Q 224.2 70.0, 224.2 69.9 L 224.2 73.6 L 223.6 73.6 L 223.6 69.2 L 224.3 69.2 " fill="#0000FF"/>
<path class="atom-35" d="M 250.7 72.1 Q 250.7 71.0, 251.3 70.4 Q 251.8 69.8, 252.8 69.8 Q 253.8 69.8, 254.3 70.4 Q 254.8 71.0, 254.8 72.1 Q 254.8 73.2, 254.3 73.8 Q 253.8 74.4, 252.8 74.4 Q 251.8 74.4, 251.3 73.8 Q 250.7 73.2, 250.7 72.1 M 252.8 73.9 Q 253.5 73.9, 253.8 73.5 Q 254.2 73.0, 254.2 72.1 Q 254.2 71.2, 253.8 70.8 Q 253.5 70.3, 252.8 70.3 Q 252.1 70.3, 251.7 70.8 Q 251.4 71.2, 251.4 72.1 Q 251.4 73.0, 251.7 73.5 Q 252.1 73.9, 252.8 73.9 " fill="#FF0000"/>
<path class="atom-35" d="M 255.5 69.9 L 256.1 69.9 L 256.1 71.8 L 258.4 71.8 L 258.4 69.9 L 259.0 69.9 L 259.0 74.3 L 258.4 74.3 L 258.4 72.3 L 256.1 72.3 L 256.1 74.3 L 255.5 74.3 L 255.5 69.9 " fill="#FF0000"/>
<path class="atom-38" d="M 264.4 63.2 Q 264.4 62.1, 265.0 61.5 Q 265.5 60.9, 266.5 60.9 Q 267.5 60.9, 268.0 61.5 Q 268.5 62.1, 268.5 63.2 Q 268.5 64.3, 268.0 64.9 Q 267.4 65.5, 266.5 65.5 Q 265.5 65.5, 265.0 64.9 Q 264.4 64.3, 264.4 63.2 M 266.5 65.0 Q 267.2 65.0, 267.5 64.5 Q 267.9 64.1, 267.9 63.2 Q 267.9 62.3, 267.5 61.9 Q 267.2 61.4, 266.5 61.4 Q 265.8 61.4, 265.4 61.8 Q 265.1 62.3, 265.1 63.2 Q 265.1 64.1, 265.4 64.5 Q 265.8 65.0, 266.5 65.0 " fill="#FF0000"/>
<path class="atom-38" d="M 269.2 61.0 L 269.8 61.0 L 269.8 62.8 L 272.1 62.8 L 272.1 61.0 L 272.7 61.0 L 272.7 65.4 L 272.1 65.4 L 272.1 63.3 L 269.8 63.3 L 269.8 65.4 L 269.2 65.4 L 269.2 61.0 " fill="#FF0000"/>
<path class="atom-43" d="M 265.3 132.8 L 266.7 135.2 Q 266.9 135.4, 267.1 135.8 Q 267.4 136.2, 267.4 136.3 L 267.4 132.8 L 268.0 132.8 L 268.0 137.3 L 267.3 137.3 L 265.8 134.7 Q 265.6 134.4, 265.4 134.0 Q 265.2 133.7, 265.2 133.6 L 265.2 137.3 L 264.6 137.3 L 264.6 132.8 L 265.3 132.8 " fill="#0000FF"/>
<path class="atom-48" d="M 294.3 161.2 Q 294.3 160.2, 294.8 159.6 Q 295.4 159.0, 296.3 159.0 Q 297.3 159.0, 297.9 159.6 Q 298.4 160.2, 298.4 161.2 Q 298.4 162.3, 297.9 162.9 Q 297.3 163.5, 296.3 163.5 Q 295.4 163.5, 294.8 162.9 Q 294.3 162.3, 294.3 161.2 M 296.3 163.0 Q 297.0 163.0, 297.4 162.6 Q 297.8 162.1, 297.8 161.2 Q 297.8 160.4, 297.4 159.9 Q 297.0 159.5, 296.3 159.5 Q 295.7 159.5, 295.3 159.9 Q 294.9 160.4, 294.9 161.2 Q 294.9 162.1, 295.3 162.6 Q 295.7 163.0, 296.3 163.0 " fill="#FF0000"/>
<path class="atom-48" d="M 299.1 159.0 L 299.7 159.0 L 299.7 160.9 L 302.0 160.9 L 302.0 159.0 L 302.6 159.0 L 302.6 163.5 L 302.0 163.5 L 302.0 161.4 L 299.7 161.4 L 299.7 163.5 L 299.1 163.5 L 299.1 159.0 " fill="#FF0000"/>
<path class="atom-51" d="M 306.7 156.8 Q 306.7 155.8, 307.2 155.2 Q 307.7 154.6, 308.7 154.6 Q 309.7 154.6, 310.2 155.2 Q 310.8 155.8, 310.8 156.8 Q 310.8 157.9, 310.2 158.5 Q 309.7 159.1, 308.7 159.1 Q 307.7 159.1, 307.2 158.5 Q 306.7 157.9, 306.7 156.8 M 308.7 158.6 Q 309.4 158.6, 309.8 158.2 Q 310.1 157.7, 310.1 156.8 Q 310.1 156.0, 309.8 155.5 Q 309.4 155.1, 308.7 155.1 Q 308.0 155.1, 307.7 155.5 Q 307.3 155.9, 307.3 156.8 Q 307.3 157.7, 307.7 158.2 Q 308.0 158.6, 308.7 158.6 " fill="#FF0000"/>
<path class="atom-51" d="M 311.5 154.6 L 312.1 154.6 L 312.1 156.5 L 314.3 156.5 L 314.3 154.6 L 314.9 154.6 L 314.9 159.1 L 314.3 159.1 L 314.3 157.0 L 312.1 157.0 L 312.1 159.1 L 311.5 159.1 L 311.5 154.6 " fill="#FF0000"/>
<path class="legend" d="M 224.2 184.2 Q 224.2 181.3, 225.5 179.9 Q 226.9 178.4, 229.4 178.4 Q 231.7 178.4, 233.0 180.0 L 231.9 180.9 Q 231.0 179.7, 229.4 179.7 Q 227.7 179.7, 226.7 180.8 Q 225.9 182.0, 225.9 184.2 Q 225.9 186.4, 226.8 187.6 Q 227.7 188.7, 229.5 188.7 Q 230.8 188.7, 232.3 188.0 L 232.7 189.2 Q 232.1 189.5, 231.2 189.8 Q 230.3 190.0, 229.3 190.0 Q 226.9 190.0, 225.5 188.5 Q 224.2 187.0, 224.2 184.2 " fill="#000000"/>
<path class="legend" d="M 239.8 183.9 Q 240.9 184.2, 241.5 184.9 Q 242.0 185.5, 242.0 186.5 Q 242.0 188.1, 241.0 189.0 Q 240.0 189.8, 238.2 189.8 L 234.3 189.8 L 234.3 178.5 L 237.7 178.5 Q 239.6 178.5, 240.6 179.3 Q 241.6 180.1, 241.6 181.5 Q 241.6 183.2, 239.8 183.9 M 235.9 179.8 L 235.9 183.3 L 237.7 183.3 Q 238.8 183.3, 239.4 182.9 Q 240.0 182.4, 240.0 181.5 Q 240.0 179.8, 237.7 179.8 L 235.9 179.8 M 238.2 188.6 Q 239.3 188.6, 239.8 188.0 Q 240.4 187.5, 240.4 186.5 Q 240.4 185.6, 239.8 185.1 Q 239.1 184.6, 237.9 184.6 L 235.9 184.6 L 235.9 188.6 L 238.2 188.6 " fill="#000000"/>
<path class="legend" d="M 249.6 189.8 L 246.9 185.2 L 246.9 185.2 L 245.1 185.2 L 245.1 189.8 L 243.5 189.8 L 243.5 178.5 L 246.9 178.5 Q 248.8 178.5, 249.8 179.4 Q 250.8 180.3, 250.8 181.8 Q 250.8 183.0, 250.2 183.9 Q 249.6 184.7, 248.5 185.0 L 251.3 189.8 L 249.6 189.8 M 245.1 183.9 L 246.9 183.9 Q 248.0 183.9, 248.6 183.4 Q 249.2 182.8, 249.2 181.8 Q 249.2 180.8, 248.6 180.3 Q 248.0 179.8, 246.9 179.8 L 245.1 179.8 L 245.1 183.9 " fill="#000000"/>
<path class="legend" d="M 252.4 184.1 L 258.3 184.1 L 258.3 185.4 L 252.4 185.4 L 252.4 184.1 " fill="#000000"/>
<path class="legend" d="M 264.0 190.0 Q 261.9 190.0, 260.9 188.4 Q 259.9 186.9, 259.9 184.2 Q 259.9 181.4, 260.9 179.9 Q 261.9 178.4, 264.0 178.4 Q 266.1 178.4, 267.1 179.9 Q 268.2 181.4, 268.2 184.2 Q 268.2 186.9, 267.1 188.4 Q 266.1 190.0, 264.0 190.0 M 264.0 188.7 Q 265.2 188.7, 265.9 187.6 Q 266.6 186.4, 266.6 184.2 Q 266.6 181.9, 265.9 180.8 Q 265.2 179.7, 264.0 179.7 Q 262.8 179.7, 262.1 180.8 Q 261.5 181.9, 261.5 184.2 Q 261.5 186.4, 262.1 187.6 Q 262.8 188.7, 264.0 188.7 " fill="#000000"/>
<path class="legend" d="M 274.1 190.0 Q 272.0 190.0, 271.0 188.4 Q 269.9 186.9, 269.9 184.2 Q 269.9 181.4, 271.0 179.9 Q 272.0 178.4, 274.1 178.4 Q 276.2 178.4, 277.2 179.9 Q 278.2 181.4, 278.2 184.2 Q 278.2 186.9, 277.2 188.4 Q 276.2 190.0, 274.1 190.0 M 274.1 188.7 Q 275.3 188.7, 276.0 187.6 Q 276.6 186.4, 276.6 184.2 Q 276.6 181.9, 276.0 180.8 Q 275.3 179.7, 274.1 179.7 Q 272.9 179.7, 272.2 180.8 Q 271.5 181.9, 271.5 184.2 Q 271.5 186.4, 272.2 187.6 Q 272.9 188.7, 274.1 188.7 " fill="#000000"/>
<path class="legend" d="M 280.6 188.6 L 283.1 188.6 L 283.1 180.1 L 280.4 180.9 L 280.0 180.0 L 283.5 178.4 L 284.6 178.6 L 284.6 188.6 L 286.9 188.6 L 286.9 189.8 L 280.6 189.8 L 280.6 188.6 " fill="#000000"/>
<path class="legend" d="M 288.3 184.1 L 294.1 184.1 L 294.1 185.4 L 288.3 185.4 L 288.3 184.1 " fill="#000000"/>
<path class="legend" d="M 299.8 182.8 Q 300.8 182.8, 301.6 183.2 Q 302.4 183.6, 302.9 184.4 Q 303.4 185.2, 303.4 186.3 Q 303.4 187.4, 302.8 188.3 Q 302.2 189.1, 301.3 189.5 Q 300.4 190.0, 299.3 190.0 Q 298.3 190.0, 297.3 189.6 Q 296.4 189.2, 295.7 188.5 L 296.7 187.5 Q 297.2 188.0, 297.9 188.4 Q 298.6 188.7, 299.4 188.7 Q 300.4 188.7, 301.1 188.0 Q 301.8 187.4, 301.8 186.3 Q 301.8 185.1, 301.1 184.5 Q 300.4 184.0, 299.3 184.0 Q 298.3 184.0, 297.2 184.4 L 296.3 184.0 L 296.8 178.5 L 302.7 178.5 L 302.5 179.8 L 298.1 179.8 L 297.8 183.2 Q 298.8 182.8, 299.8 182.8 " fill="#000000"/>
<path class="legend" d="M 310.8 179.8 L 304.9 179.8 L 304.9 178.5 L 312.4 178.5 L 312.4 179.6 L 307.8 189.8 L 306.3 189.8 L 310.8 179.8 " fill="#000000"/>
<path class="legend" d="M 313.6 180.7 Q 314.1 179.6, 315.0 179.0 Q 316.0 178.4, 317.4 178.4 Q 319.1 178.4, 320.1 179.3 Q 321.0 180.2, 321.0 181.9 Q 321.0 183.6, 319.8 185.1 Q 318.6 186.7, 316.0 188.6 L 321.2 188.6 L 321.2 189.8 L 313.6 189.8 L 313.6 188.8 Q 315.7 187.3, 317.0 186.1 Q 318.2 185.0, 318.8 184.0 Q 319.4 183.0, 319.4 182.0 Q 319.4 180.9, 318.9 180.3 Q 318.4 179.7, 317.4 179.7 Q 316.5 179.7, 315.9 180.0 Q 315.3 180.4, 314.9 181.2 L 313.6 180.7 " fill="#000000"/>
<path class="legend" d="M 322.9 184.1 L 328.8 184.1 L 328.8 185.4 L 322.9 185.4 L 322.9 184.1 " fill="#000000"/>
<path class="legend" d="M 337.7 186.0 L 339.1 186.0 L 339.1 187.2 L 337.7 187.2 L 337.7 189.8 L 336.2 189.8 L 336.2 187.2 L 330.4 187.2 L 330.4 186.2 L 335.3 178.5 L 337.7 178.5 L 337.7 186.0 M 332.2 186.0 L 336.2 186.0 L 336.2 179.5 L 332.2 186.0 " fill="#000000"/>
<path class="legend" d="M 345.1 182.8 Q 346.0 182.8, 346.8 183.2 Q 347.6 183.6, 348.0 184.4 Q 348.5 185.2, 348.5 186.2 Q 348.5 187.3, 348.0 188.2 Q 347.5 189.0, 346.6 189.5 Q 345.8 190.0, 344.7 190.0 Q 342.7 190.0, 341.6 188.6 Q 340.6 187.2, 340.6 184.5 Q 340.6 181.5, 341.9 180.0 Q 343.1 178.4, 345.6 178.4 Q 346.3 178.4, 346.8 178.5 Q 347.5 178.7, 348.0 179.0 L 347.4 180.1 Q 346.6 179.7, 345.6 179.7 Q 344.0 179.7, 343.2 180.7 Q 342.3 181.7, 342.2 183.9 Q 342.8 183.3, 343.5 183.1 Q 344.3 182.8, 345.1 182.8 M 344.7 188.7 Q 345.3 188.7, 345.8 188.3 Q 346.3 188.0, 346.6 187.5 Q 346.9 186.9, 346.9 186.2 Q 346.9 185.2, 346.3 184.6 Q 345.8 184.0, 344.8 184.0 Q 344.1 184.0, 343.4 184.3 Q 342.7 184.6, 342.2 185.1 Q 342.3 187.0, 342.9 187.8 Q 343.5 188.7, 344.7 188.7 " fill="#000000"/>
<path class="legend" d="M 357.5 186.0 L 358.8 186.0 L 358.8 187.2 L 357.5 187.2 L 357.5 189.8 L 356.0 189.8 L 356.0 187.2 L 350.1 187.2 L 350.1 186.2 L 355.1 178.5 L 357.5 178.5 L 357.5 186.0 M 352.0 186.0 L 356.0 186.0 L 356.0 179.5 L 352.0 186.0 " fill="#000000"/>
<path class="legend" d="M 360.4 184.1 L 366.2 184.1 L 366.2 185.4 L 360.4 185.4 L 360.4 184.1 " fill="#000000"/>
<path class="legend" d="M 373.6 183.8 Q 374.6 184.3, 375.2 185.0 Q 375.8 185.6, 375.8 186.7 Q 375.8 187.7, 375.3 188.4 Q 374.8 189.2, 373.9 189.6 Q 373.0 190.0, 371.8 190.0 Q 370.0 190.0, 368.9 189.1 Q 367.8 188.3, 367.8 186.7 Q 367.8 185.8, 368.3 185.1 Q 368.7 184.4, 369.7 183.9 Q 369.0 183.5, 368.6 182.9 Q 368.2 182.2, 368.2 181.3 Q 368.2 180.0, 369.2 179.2 Q 370.1 178.4, 371.8 178.4 Q 373.4 178.4, 374.4 179.2 Q 375.4 180.0, 375.4 181.3 Q 375.4 182.1, 374.9 182.7 Q 374.5 183.3, 373.6 183.8 M 371.8 179.6 Q 370.8 179.6, 370.3 180.0 Q 369.8 180.5, 369.8 181.3 Q 369.8 181.9, 370.1 182.3 Q 370.5 182.7, 371.0 182.9 Q 371.5 183.1, 372.5 183.4 Q 373.2 183.0, 373.5 182.4 Q 373.8 181.9, 373.8 181.3 Q 373.8 180.5, 373.2 180.0 Q 372.7 179.6, 371.8 179.6 M 371.8 188.8 Q 372.9 188.8, 373.5 188.2 Q 374.2 187.7, 374.2 186.7 Q 374.2 186.1, 373.8 185.7 Q 373.5 185.3, 373.0 185.1 Q 372.5 184.9, 371.6 184.6 L 370.9 184.4 Q 370.1 184.8, 369.7 185.4 Q 369.4 186.0, 369.4 186.7 Q 369.4 187.7, 370.1 188.2 Q 370.7 188.8, 371.8 188.8 " fill="#000000"/>
<path class="bond-0 atom-0 atom-1" d="M 553.9,93.0 L 548.4,89.7" style="fill:none;fill-rule:evenodd;stroke:#FF0000;stroke-width:2.0px;stroke-linecap:butt;stroke-linejoin:miter;stroke-opacity:1"/>
<path class="bond-0 atom-0 atom-1" d="M 548.4,89.7 L 542.8,86.3" style="fill:none;fill-rule:evenodd;stroke:#000000;stroke-width:2.0px;stroke-linecap:butt;stroke-linejoin:miter;stroke-opacity:1"/>
<path class="bond-0 atom-0 atom-1" d="M 555.2,91.0 L 549.6,87.7" style="fill:none;fill-rule:evenodd;stroke:#FF0000;stroke-width:2.0px;stroke-linecap:butt;stroke-linejoin:miter;stroke-opacity:1"/>
<path class="bond-0 atom-0 atom-1" d="M 549.6,87.7 L 544.1,84.3" style="fill:none;fill-rule:evenodd;stroke:#000000;stroke-width:2.0px;stroke-linecap:butt;stroke-linejoin:miter;stroke-opacity:1"/>
<path class="bond-1 atom-1 atom-2" d="M 543.7,85.4 L 545.8,79.4" style="fill:none;fill-rule:evenodd;stroke:#000000;stroke-width:2.0px;stroke-linecap:butt;stroke-linejoin:miter;stroke-opacity:1"/>
<path class="bond-1 atom-1 atom-2" d="M 545.8,79.4 L 547.8,73.4" style="fill:none;fill-rule:evenodd;stroke:#FF0000;stroke-width:2.0px;stroke-linecap:butt;stroke-linejoin:miter;stroke-opacity:1"/>
<path class="bond-2 atom-2 atom-3" d="M 548.6,67.8 L 548.1,61.3" style="fill:none;fill-rule:evenodd;stroke:#FF0000;stroke-width:2.0px;stroke-linecap:butt;stroke-linejoin:miter;stroke-opacity:1"/>
<path class="bond-2 atom-2 atom-3" d="M 548.1,61.3 L 547.5,54.9" style="fill:none;fill-rule:evenodd;stroke:#000000;stroke-width:2.0px;stroke-linecap:butt;stroke-linejoin:miter;stroke-opacity:1"/>
<path class="bond-3 atom-3 atom-4" d="M 547.5,54.9 L 562.6,50.3" style="fill:none;fill-rule:evenodd;stroke:#000000;stroke-width:2.0px;stroke-linecap:butt;stroke-linejoin:miter;stroke-opacity:1"/>
<path class="bond-4 atom-4 atom-5" d="M 562.6,50.3 L 574.1,61.1" style="fill:none;fill-rule:evenodd;stroke:#000000;stroke-width:2.0px;stroke-linecap:butt;stroke-linejoin:miter;stroke-opacity:1"/>
<path class="bond-5 atom-3 atom-6" d="M 547.5,54.9 L 539.9,41.1" style="fill:none;fill-rule:evenodd;stroke:#000000;stroke-width:2.0px;stroke-linecap:butt;stroke-linejoin:miter;stroke-opacity:1"/>
<path class="bond-6 atom-6 atom-7" d="M 539.9,41.1 L 546.5,40.3" style="fill:none;fill-rule:evenodd;stroke:#000000;stroke-width:2.0px;stroke-linecap:butt;stroke-linejoin:miter;stroke-opacity:1"/>
<path class="bond-6 atom-6 atom-7" d="M 546.5,40.3 L 553.0,39.5" style="fill:none;fill-rule:evenodd;stroke:#FF0000;stroke-width:2.0px;stroke-linecap:butt;stroke-linejoin:miter;stroke-opacity:1"/>
<path class="bond-7 atom-6 atom-8" d="M 539.9,41.1 L 544.1,25.9" style="fill:none;fill-rule:evenodd;stroke:#000000;stroke-width:2.0px;stroke-linecap:butt;stroke-linejoin:miter;stroke-opacity:1"/>
<path class="bond-8 atom-6 atom-9" d="M 539.9,41.1 L 527.4,31.6" style="fill:none;fill-rule:evenodd;stroke:#000000;stroke-width:2.0px;stroke-linecap:butt;stroke-linejoin:miter;stroke-opacity:1"/>
<path class="bond-9 atom-9 atom-10" d="M 527.4,31.6 L 530.1,25.9" style="fill:none;fill-rule:evenodd;stroke:#000000;stroke-width:2.0px;stroke-linecap:butt;stroke-linejoin:miter;stroke-opacity:1"/>
<path class="bond-9 atom-9 atom-10" d="M 530.1,25.9 L 532.8,20.2" style="fill:none;fill-rule:evenodd;stroke:#FF0000;stroke-width:2.0px;stroke-linecap:butt;stroke-linejoin:miter;stroke-opacity:1"/>
<path class="bond-10 atom-9 atom-11" d="M 527.4,31.6 L 512.1,28.0" style="fill:none;fill-rule:evenodd;stroke:#000000;stroke-width:2.0px;stroke-linecap:butt;stroke-linejoin:miter;stroke-opacity:1"/>
<path class="bond-11 atom-11 atom-12" d="M 512.1,28.0 L 505.5,29.2" style="fill:none;fill-rule:evenodd;stroke:#000000;stroke-width:2.0px;stroke-linecap:butt;stroke-linejoin:miter;stroke-opacity:1"/>
<path class="bond-11 atom-11 atom-12" d="M 505.5,29.2 L 498.8,30.5" style="fill:none;fill-rule:evenodd;stroke:#0000FF;stroke-width:2.0px;stroke-linecap:butt;stroke-linejoin:miter;stroke-opacity:1"/>
<path class="bond-12 atom-12 atom-13" d="M 495.5,28.2 L 493.0,22.3" style="fill:none;fill-rule:evenodd;stroke:#0000FF;stroke-width:2.0px;stroke-linecap:butt;stroke-linejoin:miter;stroke-opacity:1"/>
<path class="bond-12 atom-12 atom-13" d="M 493.0,22.3 L 490.5,16.4" style="fill:none;fill-rule:evenodd;stroke:#000000;stroke-width:2.0px;stroke-linecap:butt;stroke-linejoin:miter;stroke-opacity:1"/>
<path class="bond-13 atom-12 atom-14" d="M 494.4,32.5 L 489.1,36.2" style="fill:none;fill-rule:evenodd;stroke:#0000FF;stroke-width:2.0px;stroke-linecap:butt;stroke-linejoin:miter;stroke-opacity:1"/>
<path class="bond-13 atom-12 atom-14" d="M 489.1,36.2 L 483.7,39.9" style="fill:none;fill-rule:evenodd;stroke:#000000;stroke-width:2.0px;stroke-linecap:butt;stroke-linejoin:miter;stroke-opacity:1"/>
<path class="bond-14 atom-14 atom-15" d="M 483.7,39.9 L 475.5,53.4" style="fill:none;fill-rule:evenodd;stroke:#000000;stroke-width:2.0px;stroke-linecap:butt;stroke-linejoin:miter;stroke-opacity:1"/>
<path class="bond-15 atom-15 atom-16" d="M 475.5,53.4 L 460.7,48.2" style="fill:none;fill-rule:evenodd;stroke:#000000;stroke-width:2.0px;stroke-linecap:butt;stroke-linejoin:miter;stroke-opacity:1"/>
<path class="bond-16 atom-15 atom-17" d="M 475.5,53.4 L 473.6,69.0" style="fill:none;fill-rule:evenodd;stroke:#000000;stroke-width:2.0px;stroke-linecap:butt;stroke-linejoin:miter;stroke-opacity:1"/>
<path class="bond-17 atom-17 atom-18" d="M 473.6,69.0 L 478.1,84.0" style="fill:none;fill-rule:evenodd;stroke:#000000;stroke-width:2.0px;stroke-linecap:butt;stroke-linejoin:miter;stroke-opacity:1"/>
<path class="bond-18 atom-18 atom-19" d="M 478.1,84.0 L 471.6,83.4" style="fill:none;fill-rule:evenodd;stroke:#000000;stroke-width:2.0px;stroke-linecap:butt;stroke-linejoin:miter;stroke-opacity:1"/>
<path class="bond-18 atom-18 atom-19" d="M 471.6,83.4 L 465.0,82.9" style="fill:none;fill-rule:evenodd;stroke:#FF0000;stroke-width:2.0px;stroke-linecap:butt;stroke-linejoin:miter;stroke-opacity:1"/>
<path class="bond-19 atom-18 atom-20" d="M 478.1,84.0 L 470.9,98.0" style="fill:none;fill-rule:evenodd;stroke:#000000;stroke-width:2.0px;stroke-linecap:butt;stroke-linejoin:miter;stroke-opacity:1"/>
<path class="bond-20 atom-18 atom-21" d="M 478.1,84.0 L 488.4,96.0" style="fill:none;fill-rule:evenodd;stroke:#000000;stroke-width:2.0px;stroke-linecap:butt;stroke-linejoin:miter;stroke-opacity:1"/>
<path class="bond-21 atom-21 atom-22" d="M 488.4,96.0 L 484.7,100.8" style="fill:none;fill-rule:evenodd;stroke:#000000;stroke-width:2.0px;stroke-linecap:butt;stroke-linejoin:miter;stroke-opacity:1"/>
<path class="bond-21 atom-21 atom-22" d="M 484.7,100.8 L 481.0,105.7" style="fill:none;fill-rule:evenodd;stroke:#FF0000;stroke-width:2.0px;stroke-linecap:butt;stroke-linejoin:miter;stroke-opacity:1"/>
<path class="bond-22 atom-22 atom-23" d="M 476.3,108.2 L 469.8,107.3" style="fill:none;fill-rule:evenodd;stroke:#FF0000;stroke-width:2.0px;stroke-linecap:butt;stroke-linejoin:miter;stroke-opacity:1"/>
<path class="bond-22 atom-22 atom-23" d="M 469.8,107.3 L 463.3,106.5" style="fill:none;fill-rule:evenodd;stroke:#000000;stroke-width:2.0px;stroke-linecap:butt;stroke-linejoin:miter;stroke-opacity:1"/>
<path class="bond-23 atom-23 atom-24" d="M 463.3,106.5 L 460.8,100.7" style="fill:none;fill-rule:evenodd;stroke:#000000;stroke-width:2.0px;stroke-linecap:butt;stroke-linejoin:miter;stroke-opacity:1"/>
<path class="bond-23 atom-23 atom-24" d="M 460.8,100.7 L 458.4,94.9" style="fill:none;fill-rule:evenodd;stroke:#FF0000;stroke-width:2.0px;stroke-linecap:butt;stroke-linejoin:miter;stroke-opacity:1"/>
<path class="bond-24 atom-24 atom-25" d="M 454.6,91.7 L 448.1,90.9" style="fill:none;fill-rule:evenodd;stroke:#FF0000;stroke-width:2.0px;stroke-linecap:butt;stroke-linejoin:miter;stroke-opacity:1"/>
<path class="bond-24 atom-24 atom-25" d="M 448.1,90.9 L 441.6,90.0" style="fill:none;fill-rule:evenodd;stroke:#000000;stroke-width:2.0px;stroke-linecap:butt;stroke-linejoin:miter;stroke-opacity:1"/>
<path class="bond-25 atom-25 atom-26" d="M 441.6,90.0 L 435.5,75.5" style="fill:none;fill-rule:evenodd;stroke:#000000;stroke-width:2.0px;stroke-linecap:butt;stroke-linejoin:miter;stroke-opacity:1"/>
<path class="bond-26 atom-25 atom-27" d="M 441.6,90.0 L 432.0,102.6" style="fill:none;fill-rule:evenodd;stroke:#000000;stroke-width:2.0px;stroke-linecap:butt;stroke-linejoin:miter;stroke-opacity:1"/>
<path class="bond-27 atom-27 atom-28" d="M 432.0,102.6 L 438.1,117.1" style="fill:none;fill-rule:evenodd;stroke:#000000;stroke-width:2.0px;stroke-linecap:butt;stroke-linejoin:miter;stroke-opacity:1"/>
<path class="bond-28 atom-28 atom-29" d="M 438.1,117.1 L 434.4,122.0" style="fill:none;fill-rule:evenodd;stroke:#000000;stroke-width:2.0px;stroke-linecap:butt;stroke-linejoin:miter;stroke-opacity:1"/>
<path class="bond-28 atom-28 atom-29" d="M 434.4,122.0 L 430.7,126.9" style="fill:none;fill-rule:evenodd;stroke:#0000FF;stroke-width:2.0px;stroke-linecap:butt;stroke-linejoin:miter;stroke-opacity:1"/>
<path class="bond-29 atom-29 atom-30" d="M 426.4,129.3 L 419.7,128.5" style="fill:none;fill-rule:evenodd;stroke:#0000FF;stroke-width:2.0px;stroke-linecap:butt;stroke-linejoin:miter;stroke-opacity:1"/>
<path class="bond-29 atom-29 atom-30" d="M 419.7,128.5 L 413.0,127.6" style="fill:none;fill-rule:evenodd;stroke:#000000;stroke-width:2.0px;stroke-linecap:butt;stroke-linejoin:miter;stroke-opacity:1"/>
<path class="bond-30 atom-29 atom-31" d="M 429.8,132.4 L 432.2,138.3" style="fill:none;fill-rule:evenodd;stroke:#0000FF;stroke-width:2.0px;stroke-linecap:butt;stroke-linejoin:miter;stroke-opacity:1"/>
<path class="bond-30 atom-29 atom-31" d="M 432.2,138.3 L 434.7,144.1" style="fill:none;fill-rule:evenodd;stroke:#000000;stroke-width:2.0px;stroke-linecap:butt;stroke-linejoin:miter;stroke-opacity:1"/>
<path class="bond-31 atom-28 atom-32" d="M 438.1,117.1 L 453.7,119.1" style="fill:none;fill-rule:evenodd;stroke:#000000;stroke-width:2.0px;stroke-linecap:butt;stroke-linejoin:miter;stroke-opacity:1"/>
<path class="bond-32 atom-32 atom-33" d="M 453.7,119.1 L 456.2,124.9" style="fill:none;fill-rule:evenodd;stroke:#000000;stroke-width:2.0px;stroke-linecap:butt;stroke-linejoin:miter;stroke-opacity:1"/>
<path class="bond-32 atom-32 atom-33" d="M 456.2,124.9 L 458.7,130.8" style="fill:none;fill-rule:evenodd;stroke:#FF0000;stroke-width:2.0px;stroke-linecap:butt;stroke-linejoin:miter;stroke-opacity:1"/>
<path class="bond-33 atom-21 atom-34" d="M 488.4,96.0 L 502.6,102.7" style="fill:none;fill-rule:evenodd;stroke:#000000;stroke-width:2.0px;stroke-linecap:butt;stroke-linejoin:miter;stroke-opacity:1"/>
<path class="bond-34 atom-34 atom-35" d="M 502.6,102.7 L 499.0,118.0" style="fill:none;fill-rule:evenodd;stroke:#000000;stroke-width:2.0px;stroke-linecap:butt;stroke-linejoin:miter;stroke-opacity:1"/>
<path class="bond-35 atom-34 atom-36" d="M 502.6,102.7 L 518.4,103.0" style="fill:none;fill-rule:evenodd;stroke:#000000;stroke-width:2.0px;stroke-linecap:butt;stroke-linejoin:miter;stroke-opacity:1"/>
<path class="bond-36 atom-36 atom-37" d="M 518.4,103.0 L 519.6,109.3" style="fill:none;fill-rule:evenodd;stroke:#000000;stroke-width:2.0px;stroke-linecap:butt;stroke-linejoin:miter;stroke-opacity:1"/>
<path class="bond-36 atom-36 atom-37" d="M 519.6,109.3 L 520.8,115.7" style="fill:none;fill-rule:evenodd;stroke:#FF0000;stroke-width:2.0px;stroke-linecap:butt;stroke-linejoin:miter;stroke-opacity:1"/>
<path class="bond-37 atom-37 atom-38" d="M 523.9,119.4 L 530.0,121.5" style="fill:none;fill-rule:evenodd;stroke:#FF0000;stroke-width:2.0px;stroke-linecap:butt;stroke-linejoin:miter;stroke-opacity:1"/>
<path class="bond-37 atom-37 atom-38" d="M 530.0,121.5 L 536.2,123.6" style="fill:none;fill-rule:evenodd;stroke:#000000;stroke-width:2.0px;stroke-linecap:butt;stroke-linejoin:miter;stroke-opacity:1"/>
<path class="bond-38 atom-38 atom-39" d="M 536.2,123.6 L 540.9,119.6" style="fill:none;fill-rule:evenodd;stroke:#000000;stroke-width:2.0px;stroke-linecap:butt;stroke-linejoin:miter;stroke-opacity:1"/>
<path class="bond-38 atom-38 atom-39" d="M 540.9,119.6 L 545.5,115.6" style="fill:none;fill-rule:evenodd;stroke:#FF0000;stroke-width:2.0px;stroke-linecap:butt;stroke-linejoin:miter;stroke-opacity:1"/>
<path class="bond-39 atom-39 atom-40" d="M 550.7,114.2 L 556.8,116.4" style="fill:none;fill-rule:evenodd;stroke:#FF0000;stroke-width:2.0px;stroke-linecap:butt;stroke-linejoin:miter;stroke-opacity:1"/>
<path class="bond-39 atom-39 atom-40" d="M 556.8,116.4 L 563.0,118.5" style="fill:none;fill-rule:evenodd;stroke:#000000;stroke-width:2.0px;stroke-linecap:butt;stroke-linejoin:miter;stroke-opacity:1"/>
<path class="bond-40 atom-40 atom-41" d="M 563.0,118.5 L 574.9,108.3" style="fill:none;fill-rule:evenodd;stroke:#000000;stroke-width:2.0px;stroke-linecap:butt;stroke-linejoin:miter;stroke-opacity:1"/>
<path class="bond-41 atom-40 atom-42" d="M 563.0,118.5 L 565.9,134.0" style="fill:none;fill-rule:evenodd;stroke:#000000;stroke-width:2.0px;stroke-linecap:butt;stroke-linejoin:miter;stroke-opacity:1"/>
<path class="bond-42 atom-42 atom-43" d="M 565.9,134.0 L 572.1,136.1" style="fill:none;fill-rule:evenodd;stroke:#000000;stroke-width:2.0px;stroke-linecap:butt;stroke-linejoin:miter;stroke-opacity:1"/>
<path class="bond-42 atom-42 atom-43" d="M 572.1,136.1 L 578.2,138.3" style="fill:none;fill-rule:evenodd;stroke:#FF0000;stroke-width:2.0px;stroke-linecap:butt;stroke-linejoin:miter;stroke-opacity:1"/>
<path class="bond-43 atom-42 atom-44" d="M 565.9,134.0 L 554.0,144.3" style="fill:none;fill-rule:evenodd;stroke:#000000;stroke-width:2.0px;stroke-linecap:butt;stroke-linejoin:miter;stroke-opacity:1"/>
<path class="bond-44 atom-44 atom-45" d="M 554.0,144.3 L 558.8,148.2" style="fill:none;fill-rule:evenodd;stroke:#000000;stroke-width:2.0px;stroke-linecap:butt;stroke-linejoin:miter;stroke-opacity:1"/>
<path class="bond-44 atom-44 atom-45" d="M 558.8,148.2 L 563.6,152.1" style="fill:none;fill-rule:evenodd;stroke:#FF0000;stroke-width:2.0px;stroke-linecap:butt;stroke-linejoin:miter;stroke-opacity:1"/>
<path class="bond-45 atom-45 atom-46" d="M 565.7,157.1 L 564.7,163.4" style="fill:none;fill-rule:evenodd;stroke:#FF0000;stroke-width:2.0px;stroke-linecap:butt;stroke-linejoin:miter;stroke-opacity:1"/>
<path class="bond-45 atom-45 atom-46" d="M 564.7,163.4 L 563.7,169.8" style="fill:none;fill-rule:evenodd;stroke:#000000;stroke-width:2.0px;stroke-linecap:butt;stroke-linejoin:miter;stroke-opacity:1"/>
<path class="bond-46 atom-44 atom-47" d="M 554.0,144.3 L 546.3,158.0" style="fill:none;fill-rule:evenodd;stroke:#000000;stroke-width:2.0px;stroke-linecap:butt;stroke-linejoin:miter;stroke-opacity:1"/>
<path class="bond-47 atom-44 atom-48" d="M 554.0,144.3 L 539.1,139.1" style="fill:none;fill-rule:evenodd;stroke:#000000;stroke-width:2.0px;stroke-linecap:butt;stroke-linejoin:miter;stroke-opacity:1"/>
<path class="bond-48 atom-36 atom-49" d="M 518.4,103.0 L 532.9,96.9" style="fill:none;fill-rule:evenodd;stroke:#000000;stroke-width:2.0px;stroke-linecap:butt;stroke-linejoin:miter;stroke-opacity:1"/>
<path class="bond-49 atom-49 atom-50" d="M 532.9,96.9 L 543.5,106.2" style="fill:none;fill-rule:evenodd;stroke:#000000;stroke-width:2.0px;stroke-linecap:butt;stroke-linejoin:miter;stroke-opacity:1"/>
<path class="bond-50 atom-11 atom-51" d="M 512.1,28.0 L 512.4,12.2" style="fill:none;fill-rule:evenodd;stroke:#000000;stroke-width:2.0px;stroke-linecap:butt;stroke-linejoin:miter;stroke-opacity:1"/>
<path class="bond-51 atom-49 atom-1" d="M 532.9,96.9 L 543.7,85.4" style="fill:none;fill-rule:evenodd;stroke:#000000;stroke-width:2.0px;stroke-linecap:butt;stroke-linejoin:miter;stroke-opacity:1"/>
<path class="bond-52 atom-32 atom-23" d="M 453.7,119.1 L 463.3,106.5" style="fill:none;fill-rule:evenodd;stroke:#000000;stroke-width:2.0px;stroke-linecap:butt;stroke-linejoin:miter;stroke-opacity:1"/>
<path class="bond-53 atom-48 atom-38" d="M 539.1,139.1 L 536.2,123.6" style="fill:none;fill-rule:evenodd;stroke:#000000;stroke-width:2.0px;stroke-linecap:butt;stroke-linejoin:miter;stroke-opacity:1"/>
<path d="M 543.8,85.1 L 543.7,85.4 L 543.1,86.0" style="fill:none;stroke:#000000;stroke-width:2.0px;stroke-linecap:butt;stroke-linejoin:miter;stroke-opacity:1;"/>
<path d="M 561.8,50.6 L 562.6,50.3 L 563.2,50.9" style="fill:none;stroke:#000000;stroke-width:2.0px;stroke-linecap:butt;stroke-linejoin:miter;stroke-opacity:1;"/>
<path d="M 484.0,39.7 L 483.7,39.9 L 483.3,40.6" style="fill:none;stroke:#000000;stroke-width:2.0px;stroke-linecap:butt;stroke-linejoin:miter;stroke-opacity:1;"/>
<path d="M 473.7,68.2 L 473.6,69.0 L 473.8,69.7" style="fill:none;stroke:#000000;stroke-width:2.0px;stroke-linecap:butt;stroke-linejoin:miter;stroke-opacity:1;"/>
<path d="M 432.5,101.9 L 432.0,102.6 L 432.3,103.3" style="fill:none;stroke:#000000;stroke-width:2.0px;stroke-linecap:butt;stroke-linejoin:miter;stroke-opacity:1;"/>
<path d="M 539.9,139.4 L 539.1,139.1 L 539.0,138.3" style="fill:none;stroke:#000000;stroke-width:2.0px;stroke-linecap:butt;stroke-linejoin:miter;stroke-opacity:1;"/>
<path class="atom-0" d="M 555.1 93.6 Q 555.1 92.5, 555.6 91.9 Q 556.1 91.3, 557.1 91.3 Q 558.1 91.3, 558.6 91.9 Q 559.2 92.5, 559.2 93.6 Q 559.2 94.7, 558.6 95.3 Q 558.1 95.9, 557.1 95.9 Q 556.1 95.9, 555.6 95.3 Q 555.1 94.7, 555.1 93.6 M 557.1 95.4 Q 557.8 95.4, 558.2 95.0 Q 558.5 94.5, 558.5 93.6 Q 558.5 92.7, 558.2 92.3 Q 557.8 91.8, 557.1 91.8 Q 556.4 91.8, 556.1 92.3 Q 555.7 92.7, 555.7 93.6 Q 555.7 94.5, 556.1 95.0 Q 556.4 95.4, 557.1 95.4 " fill="#FF0000"/>
<path class="atom-2" d="M 546.8 70.6 Q 546.8 69.5, 547.3 68.9 Q 547.9 68.3, 548.8 68.3 Q 549.8 68.3, 550.4 68.9 Q 550.9 69.5, 550.9 70.6 Q 550.9 71.7, 550.4 72.3 Q 549.8 72.9, 548.8 72.9 Q 547.9 72.9, 547.3 72.3 Q 546.8 71.7, 546.8 70.6 M 548.8 72.4 Q 549.5 72.4, 549.9 71.9 Q 550.3 71.5, 550.3 70.6 Q 550.3 69.7, 549.9 69.3 Q 549.5 68.8, 548.8 68.8 Q 548.2 68.8, 547.8 69.3 Q 547.4 69.7, 547.4 70.6 Q 547.4 71.5, 547.8 71.9 Q 548.2 72.4, 548.8 72.4 " fill="#FF0000"/>
<path class="atom-7" d="M 553.5 39.2 Q 553.5 38.2, 554.1 37.6 Q 554.6 37.0, 555.6 37.0 Q 556.6 37.0, 557.1 37.6 Q 557.6 38.2, 557.6 39.2 Q 557.6 40.3, 557.1 40.9 Q 556.5 41.5, 555.6 41.5 Q 554.6 41.5, 554.1 40.9 Q 553.5 40.3, 553.5 39.2 M 555.6 41.0 Q 556.3 41.0, 556.6 40.6 Q 557.0 40.1, 557.0 39.2 Q 557.0 38.4, 556.6 37.9 Q 556.3 37.5, 555.6 37.5 Q 554.9 37.5, 554.5 37.9 Q 554.2 38.4, 554.2 39.2 Q 554.2 40.1, 554.5 40.6 Q 554.9 41.0, 555.6 41.0 " fill="#FF0000"/>
<path class="atom-7" d="M 558.3 37.0 L 558.9 37.0 L 558.9 38.9 L 561.2 38.9 L 561.2 37.0 L 561.8 37.0 L 561.8 41.5 L 561.2 41.5 L 561.2 39.4 L 558.9 39.4 L 558.9 41.5 L 558.3 41.5 L 558.3 37.0 " fill="#FF0000"/>
<path class="atom-10" d="M 532.1 17.3 Q 532.1 16.3, 532.6 15.7 Q 533.1 15.1, 534.1 15.1 Q 535.1 15.1, 535.6 15.7 Q 536.2 16.3, 536.2 17.3 Q 536.2 18.4, 535.6 19.0 Q 535.1 19.7, 534.1 19.7 Q 533.1 19.7, 532.6 19.0 Q 532.1 18.4, 532.1 17.3 M 534.1 19.1 Q 534.8 19.1, 535.2 18.7 Q 535.5 18.2, 535.5 17.3 Q 535.5 16.5, 535.2 16.0 Q 534.8 15.6, 534.1 15.6 Q 533.4 15.6, 533.1 16.0 Q 532.7 16.5, 532.7 17.3 Q 532.7 18.2, 533.1 18.7 Q 533.4 19.1, 534.1 19.1 " fill="#FF0000"/>
<path class="atom-10" d="M 536.9 15.1 L 537.5 15.1 L 537.5 17.0 L 539.7 17.0 L 539.7 15.1 L 540.3 15.1 L 540.3 19.6 L 539.7 19.6 L 539.7 17.5 L 537.5 17.5 L 537.5 19.6 L 536.9 19.6 L 536.9 15.1 " fill="#FF0000"/>
<path class="atom-12" d="M 495.6 28.7 L 497.1 31.1 Q 497.2 31.3, 497.5 31.7 Q 497.7 32.1, 497.7 32.2 L 497.7 28.7 L 498.3 28.7 L 498.3 33.1 L 497.7 33.1 L 496.1 30.6 Q 496.0 30.3, 495.8 29.9 Q 495.6 29.6, 495.5 29.5 L 495.5 33.1 L 494.9 33.1 L 494.9 28.7 L 495.6 28.7 " fill="#0000FF"/>
<path class="atom-19" d="M 456.0 80.4 L 456.6 80.4 L 456.6 82.3 L 458.9 82.3 L 458.9 80.4 L 459.5 80.4 L 459.5 84.9 L 458.9 84.9 L 458.9 82.8 L 456.6 82.8 L 456.6 84.9 L 456.0 84.9 L 456.0 80.4 " fill="#FF0000"/>
<path class="atom-19" d="M 460.4 82.6 Q 460.4 81.6, 460.9 81.0 Q 461.5 80.4, 462.4 80.4 Q 463.4 80.4, 464.0 81.0 Q 464.5 81.6, 464.5 82.6 Q 464.5 83.7, 463.9 84.3 Q 463.4 84.9, 462.4 84.9 Q 461.5 84.9, 460.9 84.3 Q 460.4 83.7, 460.4 82.6 M 462.4 84.4 Q 463.1 84.4, 463.5 84.0 Q 463.9 83.5, 463.9 82.6 Q 463.9 81.8, 463.5 81.3 Q 463.1 80.9, 462.4 80.9 Q 461.8 80.9, 461.4 81.3 Q 461.0 81.7, 461.0 82.6 Q 461.0 83.5, 461.4 84.0 Q 461.8 84.4, 462.4 84.4 " fill="#FF0000"/>
<path class="atom-22" d="M 476.8 108.5 Q 476.8 107.4, 477.4 106.8 Q 477.9 106.2, 478.9 106.2 Q 479.9 106.2, 480.4 106.8 Q 480.9 107.4, 480.9 108.5 Q 480.9 109.6, 480.4 110.2 Q 479.9 110.8, 478.9 110.8 Q 477.9 110.8, 477.4 110.2 Q 476.8 109.6, 476.8 108.5 M 478.9 110.3 Q 479.6 110.3, 479.9 109.9 Q 480.3 109.4, 480.3 108.5 Q 480.3 107.6, 479.9 107.2 Q 479.6 106.7, 478.9 106.7 Q 478.2 106.7, 477.8 107.2 Q 477.5 107.6, 477.5 108.5 Q 477.5 109.4, 477.8 109.9 Q 478.2 110.3, 478.9 110.3 " fill="#FF0000"/>
<path class="atom-24" d="M 455.1 92.0 Q 455.1 91.0, 455.6 90.4 Q 456.2 89.8, 457.2 89.8 Q 458.2 89.8, 458.7 90.4 Q 459.2 91.0, 459.2 92.0 Q 459.2 93.1, 458.7 93.7 Q 458.1 94.3, 457.2 94.3 Q 456.2 94.3, 455.6 93.7 Q 455.1 93.1, 455.1 92.0 M 457.2 93.8 Q 457.8 93.8, 458.2 93.4 Q 458.6 92.9, 458.6 92.0 Q 458.6 91.2, 458.2 90.7 Q 457.8 90.3, 457.2 90.3 Q 456.5 90.3, 456.1 90.7 Q 455.7 91.1, 455.7 92.0 Q 455.7 92.9, 456.1 93.4 Q 456.5 93.8, 457.2 93.8 " fill="#FF0000"/>
<path class="atom-29" d="M 427.6 127.4 L 429.1 129.8 Q 429.2 130.0, 429.5 130.4 Q 429.7 130.8, 429.7 130.9 L 429.7 127.4 L 430.3 127.4 L 430.3 131.9 L 429.7 131.9 L 428.1 129.3 Q 427.9 129.0, 427.7 128.6 Q 427.6 128.3, 427.5 128.2 L 427.5 131.9 L 426.9 131.9 L 426.9 127.4 L 427.6 127.4 " fill="#0000FF"/>
<path class="atom-33" d="M 457.8 133.6 Q 457.8 132.5, 458.3 131.9 Q 458.9 131.3, 459.8 131.3 Q 460.8 131.3, 461.4 131.9 Q 461.9 132.5, 461.9 133.6 Q 461.9 134.7, 461.4 135.3 Q 460.8 135.9, 459.8 135.9 Q 458.9 135.9, 458.3 135.3 Q 457.8 134.7, 457.8 133.6 M 459.8 135.4 Q 460.5 135.4, 460.9 134.9 Q 461.3 134.5, 461.3 133.6 Q 461.3 132.7, 460.9 132.3 Q 460.5 131.8, 459.8 131.8 Q 459.2 131.8, 458.8 132.3 Q 458.4 132.7, 458.4 133.6 Q 458.4 134.5, 458.8 134.9 Q 459.2 135.4, 459.8 135.4 " fill="#FF0000"/>
<path class="atom-33" d="M 462.6 131.4 L 463.2 131.4 L 463.2 133.3 L 465.5 133.3 L 465.5 131.4 L 466.1 131.4 L 466.1 135.8 L 465.5 135.8 L 465.5 133.8 L 463.2 133.8 L 463.2 135.8 L 462.6 135.8 L 462.6 131.4 " fill="#FF0000"/>
<path class="atom-37" d="M 519.3 118.5 Q 519.3 117.4, 519.8 116.8 Q 520.3 116.2, 521.3 116.2 Q 522.3 116.2, 522.8 116.8 Q 523.4 117.4, 523.4 118.5 Q 523.4 119.6, 522.8 120.2 Q 522.3 120.8, 521.3 120.8 Q 520.3 120.8, 519.8 120.2 Q 519.3 119.6, 519.3 118.5 M 521.3 120.3 Q 522.0 120.3, 522.4 119.8 Q 522.7 119.4, 522.7 118.5 Q 522.7 117.6, 522.4 117.2 Q 522.0 116.7, 521.3 116.7 Q 520.6 116.7, 520.3 117.2 Q 519.9 117.6, 519.9 118.5 Q 519.9 119.4, 520.3 119.8 Q 520.6 120.3, 521.3 120.3 " fill="#FF0000"/>
<path class="atom-39" d="M 546.1 113.4 Q 546.1 112.3, 546.6 111.7 Q 547.1 111.1, 548.1 111.1 Q 549.1 111.1, 549.6 111.7 Q 550.1 112.3, 550.1 113.4 Q 550.1 114.5, 549.6 115.1 Q 549.1 115.7, 548.1 115.7 Q 547.1 115.7, 546.6 115.1 Q 546.1 114.5, 546.1 113.4 M 548.1 115.2 Q 548.8 115.2, 549.1 114.7 Q 549.5 114.3, 549.5 113.4 Q 549.5 112.5, 549.1 112.1 Q 548.8 111.6, 548.1 111.6 Q 547.4 111.6, 547.0 112.0 Q 546.7 112.5, 546.7 113.4 Q 546.7 114.3, 547.0 114.7 Q 547.4 115.2, 548.1 115.2 " fill="#FF0000"/>
<path class="atom-43" d="M 578.7 139.2 Q 578.7 138.1, 579.3 137.5 Q 579.8 136.9, 580.8 136.9 Q 581.8 136.9, 582.3 137.5 Q 582.8 138.1, 582.8 139.2 Q 582.8 140.3, 582.3 140.9 Q 581.8 141.5, 580.8 141.5 Q 579.8 141.5, 579.3 140.9 Q 578.7 140.3, 578.7 139.2 M 580.8 141.0 Q 581.5 141.0, 581.8 140.5 Q 582.2 140.1, 582.2 139.2 Q 582.2 138.3, 581.8 137.9 Q 581.5 137.4, 580.8 137.4 Q 580.1 137.4, 579.7 137.9 Q 579.4 138.3, 579.4 139.2 Q 579.4 140.1, 579.7 140.5 Q 580.1 141.0, 580.8 141.0 " fill="#FF0000"/>
<path class="atom-43" d="M 583.5 137.0 L 584.1 137.0 L 584.1 138.9 L 586.4 138.9 L 586.4 137.0 L 587.0 137.0 L 587.0 141.4 L 586.4 141.4 L 586.4 139.4 L 584.1 139.4 L 584.1 141.4 L 583.5 141.4 L 583.5 137.0 " fill="#FF0000"/>
<path class="atom-45" d="M 564.1 154.2 Q 564.1 153.2, 564.7 152.6 Q 565.2 152.0, 566.2 152.0 Q 567.2 152.0, 567.7 152.6 Q 568.2 153.2, 568.2 154.2 Q 568.2 155.3, 567.7 155.9 Q 567.2 156.6, 566.2 156.6 Q 565.2 156.6, 564.7 155.9 Q 564.1 155.3, 564.1 154.2 M 566.2 156.0 Q 566.9 156.0, 567.2 155.6 Q 567.6 155.1, 567.6 154.2 Q 567.6 153.4, 567.2 152.9 Q 566.9 152.5, 566.2 152.5 Q 565.5 152.5, 565.1 152.9 Q 564.8 153.4, 564.8 154.2 Q 564.8 155.1, 565.1 155.6 Q 565.5 156.0, 566.2 156.0 " fill="#FF0000"/>
<path class="legend" d="M 453.7 184.2 Q 453.7 181.3, 455.0 179.9 Q 456.3 178.4, 458.8 178.4 Q 461.2 178.4, 462.4 180.0 L 461.4 180.9 Q 460.5 179.7, 458.8 179.7 Q 457.1 179.7, 456.2 180.8 Q 455.3 182.0, 455.3 184.2 Q 455.3 186.4, 456.3 187.6 Q 457.2 188.7, 459.0 188.7 Q 460.3 188.7, 461.7 188.0 L 462.2 189.2 Q 461.6 189.5, 460.7 189.8 Q 459.8 190.0, 458.8 190.0 Q 456.3 190.0, 455.0 188.5 Q 453.7 187.0, 453.7 184.2 " fill="#000000"/>
<path class="legend" d="M 465.6 178.5 L 469.4 184.5 Q 469.7 185.1, 470.3 186.2 Q 470.9 187.2, 470.9 187.3 L 470.9 178.5 L 472.4 178.5 L 472.4 189.8 L 470.9 189.8 L 466.9 183.3 Q 466.4 182.5, 465.9 181.6 Q 465.5 180.8, 465.3 180.5 L 465.3 189.8 L 463.8 189.8 L 463.8 178.5 L 465.6 178.5 " fill="#000000"/>
<path class="legend" d="M 477.9 178.5 Q 479.8 178.5, 480.8 179.4 Q 481.8 180.3, 481.8 181.8 Q 481.8 183.4, 480.8 184.3 Q 479.8 185.2, 477.9 185.2 L 476.1 185.2 L 476.1 189.8 L 474.5 189.8 L 474.5 178.5 L 477.9 178.5 M 477.9 183.9 Q 479.0 183.9, 479.6 183.4 Q 480.2 182.8, 480.2 181.8 Q 480.2 180.8, 479.6 180.3 Q 479.0 179.8, 477.9 179.8 L 476.1 179.8 L 476.1 183.9 L 477.9 183.9 " fill="#000000"/>
<path class="legend" d="M 487.5 190.0 Q 485.4 190.0, 484.3 188.4 Q 483.3 186.9, 483.3 184.2 Q 483.3 181.4, 484.3 179.9 Q 485.4 178.4, 487.5 178.4 Q 489.6 178.4, 490.6 179.9 Q 491.6 181.4, 491.6 184.2 Q 491.6 186.9, 490.6 188.4 Q 489.5 190.0, 487.5 190.0 M 487.5 188.7 Q 488.7 188.7, 489.3 187.6 Q 490.0 186.4, 490.0 184.2 Q 490.0 181.9, 489.3 180.8 Q 488.7 179.7, 487.5 179.7 Q 486.2 179.7, 485.6 180.8 Q 484.9 181.9, 484.9 184.2 Q 484.9 186.4, 485.6 187.6 Q 486.2 188.7, 487.5 188.7 " fill="#000000"/>
<path class="legend" d="M 498.9 183.9 Q 500.0 184.2, 500.5 184.9 Q 501.0 185.6, 501.0 186.7 Q 501.0 187.7, 500.6 188.4 Q 500.1 189.2, 499.2 189.6 Q 498.3 190.0, 497.2 190.0 Q 495.9 190.0, 495.0 189.6 Q 494.1 189.2, 493.4 188.3 L 494.3 187.4 Q 495.0 188.1, 495.6 188.4 Q 496.2 188.7, 497.2 188.7 Q 498.2 188.7, 498.8 188.2 Q 499.4 187.6, 499.4 186.7 Q 499.4 185.6, 498.8 185.1 Q 498.1 184.5, 496.7 184.5 L 495.9 184.5 L 495.9 183.4 L 496.7 183.4 Q 497.9 183.4, 498.5 182.8 Q 499.2 182.3, 499.2 181.3 Q 499.2 180.5, 498.7 180.1 Q 498.1 179.7, 497.2 179.7 Q 496.2 179.7, 495.6 180.0 Q 495.1 180.3, 494.6 181.2 L 493.5 180.6 Q 493.9 179.6, 494.9 179.0 Q 495.8 178.4, 497.2 178.4 Q 498.8 178.4, 499.8 179.2 Q 500.8 180.0, 500.8 181.3 Q 500.8 182.2, 500.3 182.8 Q 499.8 183.5, 498.9 183.9 " fill="#000000"/>
<path class="legend" d="M 507.2 182.8 Q 508.2 182.8, 509.0 183.2 Q 509.7 183.6, 510.2 184.4 Q 510.6 185.2, 510.6 186.2 Q 510.6 187.3, 510.1 188.2 Q 509.6 189.0, 508.8 189.5 Q 507.9 190.0, 506.8 190.0 Q 504.8 190.0, 503.8 188.6 Q 502.8 187.2, 502.8 184.5 Q 502.8 181.5, 504.0 180.0 Q 505.3 178.4, 507.7 178.4 Q 508.4 178.4, 509.0 178.5 Q 509.6 178.7, 510.2 179.0 L 509.5 180.1 Q 508.7 179.7, 507.7 179.7 Q 506.1 179.7, 505.3 180.7 Q 504.5 181.7, 504.4 183.9 Q 504.9 183.3, 505.7 183.1 Q 506.4 182.8, 507.2 182.8 M 506.8 188.7 Q 507.4 188.7, 507.9 188.3 Q 508.4 188.0, 508.7 187.5 Q 509.0 186.9, 509.0 186.2 Q 509.0 185.2, 508.5 184.6 Q 507.9 184.0, 506.9 184.0 Q 506.2 184.0, 505.5 184.3 Q 504.9 184.6, 504.4 185.1 Q 504.4 187.0, 505.0 187.8 Q 505.6 188.7, 506.8 188.7 " fill="#000000"/>
<path class="legend" d="M 512.9 188.6 L 515.4 188.6 L 515.4 180.1 L 512.6 180.9 L 512.3 180.0 L 515.7 178.4 L 516.9 178.6 L 516.9 188.6 L 519.1 188.6 L 519.1 189.8 L 512.9 189.8 L 512.9 188.6 " fill="#000000"/>
<path class="legend" d="M 526.5 179.8 L 520.6 179.8 L 520.6 178.5 L 528.1 178.5 L 528.1 179.6 L 523.5 189.8 L 522.0 189.8 L 526.5 179.8 " fill="#000000"/>
<path class="legend" d="M 529.4 180.7 Q 529.8 179.6, 530.8 179.0 Q 531.8 178.4, 533.1 178.4 Q 534.8 178.4, 535.8 179.3 Q 536.8 180.2, 536.8 181.9 Q 536.8 183.6, 535.5 185.1 Q 534.3 186.7, 531.7 188.6 L 537.0 188.6 L 537.0 189.8 L 529.3 189.8 L 529.3 188.8 Q 531.4 187.3, 532.7 186.1 Q 533.9 185.0, 534.6 184.0 Q 535.2 183.0, 535.2 182.0 Q 535.2 180.9, 534.6 180.3 Q 534.1 179.7, 533.1 179.7 Q 532.2 179.7, 531.6 180.0 Q 531.0 180.4, 530.6 181.2 L 529.4 180.7 " fill="#000000"/>
<path class="legend" d="M 544.1 183.9 Q 545.2 184.2, 545.8 184.9 Q 546.3 185.6, 546.3 186.7 Q 546.3 187.7, 545.8 188.4 Q 545.3 189.2, 544.5 189.6 Q 543.6 190.0, 542.4 190.0 Q 541.2 190.0, 540.3 189.6 Q 539.4 189.2, 538.7 188.3 L 539.6 187.4 Q 540.3 188.1, 540.9 188.4 Q 541.5 188.7, 542.4 188.7 Q 543.5 188.7, 544.1 188.2 Q 544.7 187.6, 544.7 186.7 Q 544.7 185.6, 544.1 185.1 Q 543.4 184.5, 542.0 184.5 L 541.2 184.5 L 541.2 183.4 L 541.9 183.4 Q 543.2 183.4, 543.8 182.8 Q 544.5 182.3, 544.5 181.3 Q 544.5 180.5, 543.9 180.1 Q 543.4 179.7, 542.5 179.7 Q 541.5 179.7, 540.9 180.0 Q 540.3 180.3, 539.9 181.2 L 538.8 180.6 Q 539.2 179.6, 540.1 179.0 Q 541.1 178.4, 542.5 178.4 Q 544.1 178.4, 545.1 179.2 Q 546.1 180.0, 546.1 181.3 Q 546.1 182.2, 545.6 182.8 Q 545.1 183.5, 544.1 183.9 " fill="#000000"/>
</svg>