<svg xmlns="http://www.w3.org/2000/svg" xmlns:rdkit="http://www.rdkit.org/xml" xmlns:xlink="http://www.w3.org/1999/xlink" version="1.1" baseProfile="full" xml:space="preserve" width="600px" height="200px" viewBox="0 0 600 200">
<!-- END OF HEADER -->
<rect style="opacity:1.0;fill:#FFFFFF;stroke:none" width="600.0" height="200.0" x="0.0" y="0.0"> </rect>
<path class="bond-0 atom-0 atom-1" d="M 97.3,138.1 L 96.4,130.7" style="fill:none;fill-rule:evenodd;stroke:#000000;stroke-width:2.0px;stroke-linecap:butt;stroke-linejoin:miter;stroke-opacity:1"/>
<path class="bond-0 atom-0 atom-1" d="M 96.4,130.7 L 95.5,123.2" style="fill:none;fill-rule:evenodd;stroke:#FF0000;stroke-width:2.0px;stroke-linecap:butt;stroke-linejoin:miter;stroke-opacity:1"/>
<path class="bond-1 atom-1 atom-2" d="M 98.1,117.6 L 103.9,113.3" style="fill:none;fill-rule:evenodd;stroke:#FF0000;stroke-width:2.0px;stroke-linecap:butt;stroke-linejoin:miter;stroke-opacity:1"/>
<path class="bond-1 atom-1 atom-2" d="M 103.9,113.3 L 109.7,108.9" style="fill:none;fill-rule:evenodd;stroke:#000000;stroke-width:2.0px;stroke-linecap:butt;stroke-linejoin:miter;stroke-opacity:1"/>
<path class="bond-2 atom-2 atom-3" d="M 109.7,108.9 L 116.9,111.9" style="fill:none;fill-rule:evenodd;stroke:#000000;stroke-width:2.0px;stroke-linecap:butt;stroke-linejoin:miter;stroke-opacity:1"/>
<path class="bond-2 atom-2 atom-3" d="M 116.9,111.9 L 124.0,114.9" style="fill:none;fill-rule:evenodd;stroke:#0000FF;stroke-width:2.0px;stroke-linecap:butt;stroke-linejoin:miter;stroke-opacity:1"/>
<path class="bond-2 atom-2 atom-3" d="M 112.3,106.9 L 118.7,109.7" style="fill:none;fill-rule:evenodd;stroke:#000000;stroke-width:2.0px;stroke-linecap:butt;stroke-linejoin:miter;stroke-opacity:1"/>
<path class="bond-2 atom-2 atom-3" d="M 118.7,109.7 L 125.1,112.4" style="fill:none;fill-rule:evenodd;stroke:#0000FF;stroke-width:2.0px;stroke-linecap:butt;stroke-linejoin:miter;stroke-opacity:1"/>
<path class="bond-3 atom-3 atom-4" d="M 129.2,114.1 L 135.2,109.5" style="fill:none;fill-rule:evenodd;stroke:#0000FF;stroke-width:2.0px;stroke-linecap:butt;stroke-linejoin:miter;stroke-opacity:1"/>
<path class="bond-3 atom-3 atom-4" d="M 135.2,109.5 L 141.2,105.0" style="fill:none;fill-rule:evenodd;stroke:#000000;stroke-width:2.0px;stroke-linecap:butt;stroke-linejoin:miter;stroke-opacity:1"/>
<path class="bond-4 atom-4 atom-5" d="M 141.2,105.0 L 158.1,112.1" style="fill:none;fill-rule:evenodd;stroke:#000000;stroke-width:2.0px;stroke-linecap:butt;stroke-linejoin:miter;stroke-opacity:1"/>
<path class="bond-4 atom-4 atom-5" d="M 143.8,103.0 L 157.7,108.9" style="fill:none;fill-rule:evenodd;stroke:#000000;stroke-width:2.0px;stroke-linecap:butt;stroke-linejoin:miter;stroke-opacity:1"/>
<path class="bond-5 atom-5 atom-6" d="M 158.1,112.1 L 172.7,101.1" style="fill:none;fill-rule:evenodd;stroke:#000000;stroke-width:2.0px;stroke-linecap:butt;stroke-linejoin:miter;stroke-opacity:1"/>
<path class="bond-6 atom-6 atom-7" d="M 172.7,101.1 L 170.5,82.9" style="fill:none;fill-rule:evenodd;stroke:#000000;stroke-width:2.0px;stroke-linecap:butt;stroke-linejoin:miter;stroke-opacity:1"/>
<path class="bond-6 atom-6 atom-7" d="M 169.8,99.8 L 168.0,84.8" style="fill:none;fill-rule:evenodd;stroke:#000000;stroke-width:2.0px;stroke-linecap:butt;stroke-linejoin:miter;stroke-opacity:1"/>
<path class="bond-7 atom-7 atom-8" d="M 170.5,82.9 L 176.6,78.2" style="fill:none;fill-rule:evenodd;stroke:#000000;stroke-width:2.0px;stroke-linecap:butt;stroke-linejoin:miter;stroke-opacity:1"/>
<path class="bond-7 atom-7 atom-8" d="M 176.6,78.2 L 182.7,73.6" style="fill:none;fill-rule:evenodd;stroke:#7F4C19;stroke-width:2.0px;stroke-linecap:butt;stroke-linejoin:miter;stroke-opacity:1"/>
<path class="bond-8 atom-7 atom-9" d="M 170.5,82.9 L 153.6,75.7" style="fill:none;fill-rule:evenodd;stroke:#000000;stroke-width:2.0px;stroke-linecap:butt;stroke-linejoin:miter;stroke-opacity:1"/>
<path class="bond-9 atom-9 atom-10" d="M 153.6,75.7 L 139.0,86.8" style="fill:none;fill-rule:evenodd;stroke:#000000;stroke-width:2.0px;stroke-linecap:butt;stroke-linejoin:miter;stroke-opacity:1"/>
<path class="bond-9 atom-9 atom-10" d="M 154.0,78.9 L 141.9,88.0" style="fill:none;fill-rule:evenodd;stroke:#000000;stroke-width:2.0px;stroke-linecap:butt;stroke-linejoin:miter;stroke-opacity:1"/>
<path class="bond-10 atom-10 atom-11" d="M 139.0,86.8 L 122.1,79.6" style="fill:none;fill-rule:evenodd;stroke:#000000;stroke-width:2.0px;stroke-linecap:butt;stroke-linejoin:miter;stroke-opacity:1"/>
<path class="bond-11 atom-11 atom-12" d="M 122.1,79.6 L 107.5,90.7" style="fill:none;fill-rule:evenodd;stroke:#000000;stroke-width:2.0px;stroke-linecap:butt;stroke-linejoin:miter;stroke-opacity:1"/>
<path class="bond-11 atom-11 atom-12" d="M 122.5,82.8 L 110.4,91.9" style="fill:none;fill-rule:evenodd;stroke:#000000;stroke-width:2.0px;stroke-linecap:butt;stroke-linejoin:miter;stroke-opacity:1"/>
<path class="bond-12 atom-13 atom-12" d="M 93.8,85.3 L 94.1,84.6" style="fill:none;fill-rule:evenodd;stroke:#000000;stroke-width:1.0px;stroke-linecap:butt;stroke-linejoin:miter;stroke-opacity:1"/>
<path class="bond-12 atom-13 atom-12" d="M 97.1,87.0 L 97.6,85.7" style="fill:none;fill-rule:evenodd;stroke:#000000;stroke-width:1.0px;stroke-linecap:butt;stroke-linejoin:miter;stroke-opacity:1"/>
<path class="bond-12 atom-13 atom-12" d="M 100.3,88.8 L 101.1,86.9" style="fill:none;fill-rule:evenodd;stroke:#000000;stroke-width:1.0px;stroke-linecap:butt;stroke-linejoin:miter;stroke-opacity:1"/>
<path class="bond-12 atom-13 atom-12" d="M 103.5,90.5 L 104.6,88.0" style="fill:none;fill-rule:evenodd;stroke:#000000;stroke-width:1.0px;stroke-linecap:butt;stroke-linejoin:miter;stroke-opacity:1"/>
<path class="bond-13 atom-13 atom-14" d="M 90.6,83.5 L 88.3,65.3" style="fill:none;fill-rule:evenodd;stroke:#000000;stroke-width:2.0px;stroke-linecap:butt;stroke-linejoin:miter;stroke-opacity:1"/>
<path class="bond-14 atom-14 atom-15" d="M 88.3,65.3 L 103.0,54.3" style="fill:none;fill-rule:evenodd;stroke:#000000;stroke-width:2.0px;stroke-linecap:butt;stroke-linejoin:miter;stroke-opacity:1"/>
<path class="bond-14 atom-14 atom-15" d="M 87.9,62.2 L 100.0,53.0" style="fill:none;fill-rule:evenodd;stroke:#000000;stroke-width:2.0px;stroke-linecap:butt;stroke-linejoin:miter;stroke-opacity:1"/>
<path class="bond-15 atom-15 atom-16" d="M 103.0,54.3 L 100.7,36.1" style="fill:none;fill-rule:evenodd;stroke:#000000;stroke-width:2.0px;stroke-linecap:butt;stroke-linejoin:miter;stroke-opacity:1"/>
<path class="bond-16 atom-16 atom-17" d="M 100.7,36.1 L 83.8,29.0" style="fill:none;fill-rule:evenodd;stroke:#000000;stroke-width:2.0px;stroke-linecap:butt;stroke-linejoin:miter;stroke-opacity:1"/>
<path class="bond-16 atom-16 atom-17" d="M 98.2,38.0 L 84.2,32.1" style="fill:none;fill-rule:evenodd;stroke:#000000;stroke-width:2.0px;stroke-linecap:butt;stroke-linejoin:miter;stroke-opacity:1"/>
<path class="bond-17 atom-17 atom-18" d="M 83.8,29.0 L 69.2,40.0" style="fill:none;fill-rule:evenodd;stroke:#000000;stroke-width:2.0px;stroke-linecap:butt;stroke-linejoin:miter;stroke-opacity:1"/>
<path class="bond-18 atom-18 atom-19" d="M 69.2,40.0 L 71.5,58.2" style="fill:none;fill-rule:evenodd;stroke:#000000;stroke-width:2.0px;stroke-linecap:butt;stroke-linejoin:miter;stroke-opacity:1"/>
<path class="bond-18 atom-18 atom-19" d="M 72.1,41.2 L 74.0,56.3" style="fill:none;fill-rule:evenodd;stroke:#000000;stroke-width:2.0px;stroke-linecap:butt;stroke-linejoin:miter;stroke-opacity:1"/>
<path class="bond-19 atom-13 atom-20" d="M 90.6,83.5 L 76.0,94.6" style="fill:none;fill-rule:evenodd;stroke:#000000;stroke-width:2.0px;stroke-linecap:butt;stroke-linejoin:miter;stroke-opacity:1"/>
<path class="bond-20 atom-20 atom-21" d="M 78.3,97.1 L 77.7,97.5" style="fill:none;fill-rule:evenodd;stroke:#000000;stroke-width:1.0px;stroke-linecap:butt;stroke-linejoin:miter;stroke-opacity:1"/>
<path class="bond-20 atom-20 atom-21" d="M 80.6,99.6 L 79.5,100.4" style="fill:none;fill-rule:evenodd;stroke:#000000;stroke-width:1.0px;stroke-linecap:butt;stroke-linejoin:miter;stroke-opacity:1"/>
<path class="bond-20 atom-20 atom-21" d="M 82.9,102.0 L 81.3,103.3" style="fill:none;fill-rule:evenodd;stroke:#FF0000;stroke-width:1.0px;stroke-linecap:butt;stroke-linejoin:miter;stroke-opacity:1"/>
<path class="bond-20 atom-20 atom-21" d="M 85.2,104.5 L 83.0,106.2" style="fill:none;fill-rule:evenodd;stroke:#FF0000;stroke-width:1.0px;stroke-linecap:butt;stroke-linejoin:miter;stroke-opacity:1"/>
<path class="bond-21 atom-20 atom-22" d="M 76.0,94.6 L 61.3,105.6" style="fill:none;fill-rule:evenodd;stroke:#000000;stroke-width:2.0px;stroke-linecap:butt;stroke-linejoin:miter;stroke-opacity:1"/>
<path class="bond-22 atom-22 atom-23" d="M 61.3,105.6 L 63.6,123.8" style="fill:none;fill-rule:evenodd;stroke:#000000;stroke-width:2.0px;stroke-linecap:butt;stroke-linejoin:miter;stroke-opacity:1"/>
<path class="bond-23 atom-23 atom-24" d="M 63.6,123.8 L 57.6,128.4" style="fill:none;fill-rule:evenodd;stroke:#000000;stroke-width:2.0px;stroke-linecap:butt;stroke-linejoin:miter;stroke-opacity:1"/>
<path class="bond-23 atom-23 atom-24" d="M 57.6,128.4 L 51.5,132.9" style="fill:none;fill-rule:evenodd;stroke:#0000FF;stroke-width:2.0px;stroke-linecap:butt;stroke-linejoin:miter;stroke-opacity:1"/>
<path class="bond-24 atom-24 atom-25" d="M 49.4,138.1 L 50.3,145.6" style="fill:none;fill-rule:evenodd;stroke:#0000FF;stroke-width:2.0px;stroke-linecap:butt;stroke-linejoin:miter;stroke-opacity:1"/>
<path class="bond-24 atom-24 atom-25" d="M 50.3,145.6 L 51.2,153.0" style="fill:none;fill-rule:evenodd;stroke:#000000;stroke-width:2.0px;stroke-linecap:butt;stroke-linejoin:miter;stroke-opacity:1"/>
<path class="bond-25 atom-24 atom-26" d="M 46.4,133.8 L 39.2,130.7" style="fill:none;fill-rule:evenodd;stroke:#0000FF;stroke-width:2.0px;stroke-linecap:butt;stroke-linejoin:miter;stroke-opacity:1"/>
<path class="bond-25 atom-24 atom-26" d="M 39.2,130.7 L 32.1,127.7" style="fill:none;fill-rule:evenodd;stroke:#000000;stroke-width:2.0px;stroke-linecap:butt;stroke-linejoin:miter;stroke-opacity:1"/>
<path class="bond-26 atom-20 atom-27" d="M 76.0,94.6 L 64.9,79.9" style="fill:none;fill-rule:evenodd;stroke:#000000;stroke-width:2.0px;stroke-linecap:butt;stroke-linejoin:miter;stroke-opacity:1"/>
<path class="bond-27 atom-27 atom-28" d="M 64.9,79.9 L 72.1,63.1" style="fill:none;fill-rule:evenodd;stroke:#000000;stroke-width:2.0px;stroke-linecap:butt;stroke-linejoin:miter;stroke-opacity:1"/>
<path class="bond-27 atom-27 atom-28" d="M 63.0,77.4 L 68.9,63.5" style="fill:none;fill-rule:evenodd;stroke:#000000;stroke-width:2.0px;stroke-linecap:butt;stroke-linejoin:miter;stroke-opacity:1"/>
<path class="bond-28 atom-28 atom-29" d="M 72.1,63.1 L 61.0,48.4" style="fill:none;fill-rule:evenodd;stroke:#000000;stroke-width:2.0px;stroke-linecap:butt;stroke-linejoin:miter;stroke-opacity:1"/>
<path class="bond-29 atom-29 atom-30" d="M 61.0,48.4 L 42.8,50.7" style="fill:none;fill-rule:evenodd;stroke:#000000;stroke-width:2.0px;stroke-linecap:butt;stroke-linejoin:miter;stroke-opacity:1"/>
<path class="bond-29 atom-29 atom-30" d="M 59.8,51.4 L 44.7,53.2" style="fill:none;fill-rule:evenodd;stroke:#000000;stroke-width:2.0px;stroke-linecap:butt;stroke-linejoin:miter;stroke-opacity:1"/>
<path class="bond-30 atom-30 atom-31" d="M 42.8,50.7 L 35.7,67.6" style="fill:none;fill-rule:evenodd;stroke:#000000;stroke-width:2.0px;stroke-linecap:butt;stroke-linejoin:miter;stroke-opacity:1"/>
<path class="bond-31 atom-31 atom-32" d="M 35.7,67.6 L 17.5,69.8" style="fill:none;fill-rule:evenodd;stroke:#000000;stroke-width:2.0px;stroke-linecap:butt;stroke-linejoin:miter;stroke-opacity:1"/>
<path class="bond-31 atom-31 atom-32" d="M 34.4,70.5 L 19.4,72.4" style="fill:none;fill-rule:evenodd;stroke:#000000;stroke-width:2.0px;stroke-linecap:butt;stroke-linejoin:miter;stroke-opacity:1"/>
<path class="bond-32 atom-32 atom-33" d="M 17.5,69.8 L 10.3,86.7" style="fill:none;fill-rule:evenodd;stroke:#000000;stroke-width:2.0px;stroke-linecap:butt;stroke-linejoin:miter;stroke-opacity:1"/>
<path class="bond-33 atom-33 atom-34" d="M 10.3,86.7 L 21.4,101.3" style="fill:none;fill-rule:evenodd;stroke:#000000;stroke-width:2.0px;stroke-linecap:butt;stroke-linejoin:miter;stroke-opacity:1"/>
<path class="bond-33 atom-33 atom-34" d="M 13.5,86.3 L 22.6,98.4" style="fill:none;fill-rule:evenodd;stroke:#000000;stroke-width:2.0px;stroke-linecap:butt;stroke-linejoin:miter;stroke-opacity:1"/>
<path class="bond-34 atom-34 atom-35" d="M 21.4,101.3 L 39.6,99.1" style="fill:none;fill-rule:evenodd;stroke:#000000;stroke-width:2.0px;stroke-linecap:butt;stroke-linejoin:miter;stroke-opacity:1"/>
<path class="bond-35 atom-35 atom-36" d="M 39.6,99.1 L 46.7,82.2" style="fill:none;fill-rule:evenodd;stroke:#000000;stroke-width:2.0px;stroke-linecap:butt;stroke-linejoin:miter;stroke-opacity:1"/>
<path class="bond-35 atom-35 atom-36" d="M 37.7,96.5 L 43.6,82.6" style="fill:none;fill-rule:evenodd;stroke:#000000;stroke-width:2.0px;stroke-linecap:butt;stroke-linejoin:miter;stroke-opacity:1"/>
<path class="bond-36 atom-12 atom-2" d="M 107.5,90.7 L 109.7,108.9" style="fill:none;fill-rule:evenodd;stroke:#000000;stroke-width:2.0px;stroke-linecap:butt;stroke-linejoin:miter;stroke-opacity:1"/>
<path class="bond-37 atom-19 atom-14" d="M 71.5,58.2 L 88.3,65.3" style="fill:none;fill-rule:evenodd;stroke:#000000;stroke-width:2.0px;stroke-linecap:butt;stroke-linejoin:miter;stroke-opacity:1"/>
<path class="bond-38 atom-36 atom-27" d="M 46.7,82.2 L 64.9,79.9" style="fill:none;fill-rule:evenodd;stroke:#000000;stroke-width:2.0px;stroke-linecap:butt;stroke-linejoin:miter;stroke-opacity:1"/>
<path class="bond-39 atom-10 atom-4" d="M 139.0,86.8 L 141.2,105.0" style="fill:none;fill-rule:evenodd;stroke:#000000;stroke-width:2.0px;stroke-linecap:butt;stroke-linejoin:miter;stroke-opacity:1"/>
<path class="bond-40 atom-36 atom-31" d="M 46.7,82.2 L 35.7,67.6" style="fill:none;fill-rule:evenodd;stroke:#000000;stroke-width:2.0px;stroke-linecap:butt;stroke-linejoin:miter;stroke-opacity:1"/>
<path d="M 157.3,111.7 L 158.1,112.1 L 158.8,111.5" style="fill:none;stroke:#000000;stroke-width:2.0px;stroke-linecap:butt;stroke-linejoin:miter;stroke-opacity:1;"/>
<path d="M 172.0,101.6 L 172.7,101.1 L 172.6,100.1" style="fill:none;stroke:#000000;stroke-width:2.0px;stroke-linecap:butt;stroke-linejoin:miter;stroke-opacity:1;"/>
<path d="M 154.4,76.1 L 153.6,75.7 L 152.9,76.3" style="fill:none;stroke:#000000;stroke-width:2.0px;stroke-linecap:butt;stroke-linejoin:miter;stroke-opacity:1;"/>
<path d="M 122.9,80.0 L 122.1,79.6 L 121.4,80.2" style="fill:none;stroke:#000000;stroke-width:2.0px;stroke-linecap:butt;stroke-linejoin:miter;stroke-opacity:1;"/>
<path d="M 108.2,90.1 L 107.5,90.7 L 107.6,91.6" style="fill:none;stroke:#000000;stroke-width:2.0px;stroke-linecap:butt;stroke-linejoin:miter;stroke-opacity:1;"/>
<path d="M 90.5,82.6 L 90.6,83.5 L 89.9,84.1" style="fill:none;stroke:#000000;stroke-width:2.0px;stroke-linecap:butt;stroke-linejoin:miter;stroke-opacity:1;"/>
<path d="M 102.2,54.8 L 103.0,54.3 L 102.8,53.4" style="fill:none;stroke:#000000;stroke-width:2.0px;stroke-linecap:butt;stroke-linejoin:miter;stroke-opacity:1;"/>
<path d="M 100.8,37.0 L 100.7,36.1 L 99.9,35.7" style="fill:none;stroke:#000000;stroke-width:2.0px;stroke-linecap:butt;stroke-linejoin:miter;stroke-opacity:1;"/>
<path d="M 84.7,29.3 L 83.8,29.0 L 83.1,29.5" style="fill:none;stroke:#000000;stroke-width:2.0px;stroke-linecap:butt;stroke-linejoin:miter;stroke-opacity:1;"/>
<path d="M 69.9,39.4 L 69.2,40.0 L 69.3,40.9" style="fill:none;stroke:#000000;stroke-width:2.0px;stroke-linecap:butt;stroke-linejoin:miter;stroke-opacity:1;"/>
<path d="M 71.3,57.3 L 71.5,58.2 L 72.3,58.5" style="fill:none;stroke:#000000;stroke-width:2.0px;stroke-linecap:butt;stroke-linejoin:miter;stroke-opacity:1;"/>
<path d="M 62.1,105.1 L 61.3,105.6 L 61.4,106.5" style="fill:none;stroke:#000000;stroke-width:2.0px;stroke-linecap:butt;stroke-linejoin:miter;stroke-opacity:1;"/>
<path d="M 63.5,122.9 L 63.6,123.8 L 63.3,124.0" style="fill:none;stroke:#000000;stroke-width:2.0px;stroke-linecap:butt;stroke-linejoin:miter;stroke-opacity:1;"/>
<path d="M 71.7,63.9 L 72.1,63.1 L 71.5,62.3" style="fill:none;stroke:#000000;stroke-width:2.0px;stroke-linecap:butt;stroke-linejoin:miter;stroke-opacity:1;"/>
<path d="M 61.6,49.2 L 61.0,48.4 L 60.1,48.5" style="fill:none;stroke:#000000;stroke-width:2.0px;stroke-linecap:butt;stroke-linejoin:miter;stroke-opacity:1;"/>
<path d="M 43.7,50.6 L 42.8,50.7 L 42.5,51.5" style="fill:none;stroke:#000000;stroke-width:2.0px;stroke-linecap:butt;stroke-linejoin:miter;stroke-opacity:1;"/>
<path d="M 18.4,69.7 L 17.5,69.8 L 17.1,70.7" style="fill:none;stroke:#000000;stroke-width:2.0px;stroke-linecap:butt;stroke-linejoin:miter;stroke-opacity:1;"/>
<path d="M 10.7,85.9 L 10.3,86.7 L 10.9,87.4" style="fill:none;stroke:#000000;stroke-width:2.0px;stroke-linecap:butt;stroke-linejoin:miter;stroke-opacity:1;"/>
<path d="M 20.8,100.6 L 21.4,101.3 L 22.3,101.2" style="fill:none;stroke:#000000;stroke-width:2.0px;stroke-linecap:butt;stroke-linejoin:miter;stroke-opacity:1;"/>
<path d="M 38.7,99.2 L 39.6,99.1 L 39.9,98.2" style="fill:none;stroke:#000000;stroke-width:2.0px;stroke-linecap:butt;stroke-linejoin:miter;stroke-opacity:1;"/>
<path class="atom-1" d="M 92.7 119.9 Q 92.7 118.7, 93.3 118.0 Q 93.9 117.3, 95.1 117.3 Q 96.2 117.3, 96.9 118.0 Q 97.5 118.7, 97.5 119.9 Q 97.5 121.2, 96.9 121.9 Q 96.2 122.6, 95.1 122.6 Q 94.0 122.6, 93.3 121.9 Q 92.7 121.2, 92.7 119.9 M 95.1 122.0 Q 95.9 122.0, 96.3 121.5 Q 96.7 121.0, 96.7 119.9 Q 96.7 118.9, 96.3 118.4 Q 95.9 117.9, 95.1 117.9 Q 94.3 117.9, 93.9 118.4 Q 93.4 118.9, 93.4 119.9 Q 93.4 121.0, 93.9 121.5 Q 94.3 122.0, 95.1 122.0 " fill="#FF0000"/>
<path class="atom-3" d="M 125.5 113.4 L 127.2 116.2 Q 127.3 116.4, 127.6 116.9 Q 127.9 117.4, 127.9 117.4 L 127.9 113.4 L 128.6 113.4 L 128.6 118.6 L 127.9 118.6 L 126.0 115.6 Q 125.8 115.2, 125.6 114.8 Q 125.4 114.4, 125.3 114.3 L 125.3 118.6 L 124.6 118.6 L 124.6 113.4 L 125.5 113.4 " fill="#0000FF"/>
<path class="atom-8" d="M 185.9 71.7 Q 186.4 71.8, 186.6 72.1 Q 186.9 72.4, 186.9 72.9 Q 186.9 73.6, 186.4 74.0 Q 186.0 74.4, 185.1 74.4 L 183.3 74.4 L 183.3 69.2 L 184.9 69.2 Q 185.8 69.2, 186.2 69.6 Q 186.7 69.9, 186.7 70.6 Q 186.7 71.4, 185.9 71.7 M 184.0 69.8 L 184.0 71.4 L 184.9 71.4 Q 185.4 71.4, 185.7 71.2 Q 185.9 71.0, 185.9 70.6 Q 185.9 69.8, 184.9 69.8 L 184.0 69.8 M 185.1 73.8 Q 185.6 73.8, 185.9 73.6 Q 186.1 73.3, 186.1 72.9 Q 186.1 72.5, 185.8 72.2 Q 185.5 72.0, 185.0 72.0 L 184.0 72.0 L 184.0 73.8 L 185.1 73.8 " fill="#7F4C19"/>
<path class="atom-8" d="M 188.1 70.6 L 188.1 71.2 Q 188.5 70.6, 189.2 70.6 Q 189.4 70.6, 189.7 70.6 L 189.5 71.3 Q 189.2 71.2, 189.1 71.2 Q 188.7 71.2, 188.5 71.3 Q 188.3 71.4, 188.2 71.7 L 188.2 74.4 L 187.5 74.4 L 187.5 70.6 L 188.1 70.6 " fill="#7F4C19"/>
<path class="atom-21" d="M 84.6 109.2 Q 84.6 108.0, 85.2 107.3 Q 85.9 106.6, 87.0 106.6 Q 88.2 106.6, 88.8 107.3 Q 89.4 108.0, 89.4 109.2 Q 89.4 110.5, 88.8 111.2 Q 88.1 111.9, 87.0 111.9 Q 85.9 111.9, 85.2 111.2 Q 84.6 110.5, 84.6 109.2 M 87.0 111.3 Q 87.8 111.3, 88.2 110.8 Q 88.7 110.3, 88.7 109.2 Q 88.7 108.2, 88.2 107.7 Q 87.8 107.2, 87.0 107.2 Q 86.2 107.2, 85.8 107.7 Q 85.4 108.2, 85.4 109.2 Q 85.4 110.3, 85.8 110.8 Q 86.2 111.3, 87.0 111.3 " fill="#FF0000"/>
<path class="atom-21" d="M 90.2 106.6 L 90.9 106.6 L 90.9 108.8 L 93.6 108.8 L 93.6 106.6 L 94.3 106.6 L 94.3 111.8 L 93.6 111.8 L 93.6 109.4 L 90.9 109.4 L 90.9 111.8 L 90.2 111.8 L 90.2 106.6 " fill="#FF0000"/>
<path class="atom-24" d="M 47.8 132.3 L 49.5 135.0 Q 49.7 135.3, 50.0 135.8 Q 50.2 136.3, 50.2 136.3 L 50.2 132.3 L 50.9 132.3 L 50.9 137.5 L 50.2 137.5 L 48.4 134.4 Q 48.2 134.1, 48.0 133.7 Q 47.7 133.3, 47.7 133.2 L 47.7 137.5 L 47.0 137.5 L 47.0 132.3 L 47.8 132.3 " fill="#0000FF"/>
<path class="legend" d="M 58.5 180.6 Q 59.6 180.9, 60.2 181.6 Q 60.7 182.3, 60.7 183.2 Q 60.7 184.8, 59.7 185.7 Q 58.7 186.6, 56.8 186.6 L 53.0 186.6 L 53.0 175.2 L 56.4 175.2 Q 58.3 175.2, 59.3 176.0 Q 60.3 176.8, 60.3 178.3 Q 60.3 180.0, 58.5 180.6 M 54.5 176.5 L 54.5 180.1 L 56.4 180.1 Q 57.5 180.1, 58.1 179.6 Q 58.7 179.2, 58.7 178.3 Q 58.7 176.5, 56.4 176.5 L 54.5 176.5 M 56.8 185.3 Q 57.9 185.3, 58.5 184.8 Q 59.1 184.2, 59.1 183.2 Q 59.1 182.3, 58.5 181.8 Q 57.8 181.4, 56.6 181.4 L 54.5 181.4 L 54.5 185.3 L 56.8 185.3 " fill="#000000"/>
<path class="legend" d="M 62.2 175.2 L 68.9 175.2 L 68.9 176.5 L 63.7 176.5 L 63.7 180.0 L 68.4 180.0 L 68.4 181.3 L 63.7 181.3 L 63.7 185.2 L 69.1 185.2 L 69.1 186.6 L 62.2 186.6 L 62.2 175.2 " fill="#000000"/>
<path class="legend" d="M 74.2 175.2 Q 76.7 175.2, 78.1 176.7 Q 79.4 178.2, 79.4 180.9 Q 79.4 183.6, 78.1 185.1 Q 76.7 186.6, 74.2 186.6 L 70.6 186.6 L 70.6 175.2 L 74.2 175.2 M 74.2 185.3 Q 76.0 185.3, 76.9 184.2 Q 77.8 183.1, 77.8 180.9 Q 77.8 178.7, 76.9 177.6 Q 76.0 176.5, 74.2 176.5 L 72.1 176.5 L 72.1 185.3 L 74.2 185.3 " fill="#000000"/>
<path class="legend" d="M 89.2 186.6 L 88.0 183.2 L 83.5 183.2 L 82.4 186.6 L 80.9 186.6 L 84.8 175.2 L 86.6 175.2 L 90.7 186.6 L 89.2 186.6 M 84.0 182.0 L 87.6 182.0 L 85.7 176.8 L 84.0 182.0 " fill="#000000"/>
<path class="legend" d="M 99.4 188.6 Q 100.0 188.6, 100.6 188.4 L 101.0 189.7 Q 100.1 190.0, 99.3 190.0 Q 97.9 190.0, 97.0 189.2 Q 96.0 188.3, 95.9 186.7 Q 93.8 186.4, 92.7 184.9 Q 91.6 183.4, 91.6 180.9 Q 91.6 178.2, 92.9 176.6 Q 94.3 175.1, 96.8 175.1 Q 99.3 175.1, 100.7 176.6 Q 102.0 178.2, 102.0 180.9 Q 102.0 183.5, 100.7 185.1 Q 99.5 186.6, 97.2 186.7 Q 97.3 187.6, 97.9 188.1 Q 98.5 188.6, 99.4 188.6 M 93.2 180.9 Q 93.2 183.2, 94.1 184.3 Q 95.1 185.5, 96.8 185.5 Q 98.5 185.5, 99.5 184.3 Q 100.4 183.2, 100.4 180.9 Q 100.4 178.7, 99.5 177.5 Q 98.5 176.4, 96.8 176.4 Q 95.1 176.4, 94.1 177.5 Q 93.2 178.6, 93.2 180.9 " fill="#000000"/>
<path class="legend" d="M 105.0 175.2 L 105.0 182.9 Q 105.0 184.2, 105.8 184.8 Q 106.5 185.4, 107.9 185.4 Q 109.3 185.4, 110.1 184.8 Q 110.8 184.2, 110.8 183.0 L 110.8 175.2 L 112.4 175.2 L 112.4 183.0 Q 112.4 184.8, 111.2 185.7 Q 110.1 186.7, 107.9 186.7 Q 105.7 186.7, 104.6 185.7 Q 103.5 184.8, 103.5 183.0 L 103.5 175.2 L 105.0 175.2 " fill="#000000"/>
<path class="legend" d="M 114.3 175.2 L 115.8 175.2 L 115.8 186.6 L 114.3 186.6 L 114.3 175.2 " fill="#000000"/>
<path class="legend" d="M 117.9 175.2 L 119.5 175.2 L 119.5 185.2 L 124.6 185.2 L 124.6 186.6 L 117.9 186.6 L 117.9 175.2 " fill="#000000"/>
<path class="legend" d="M 125.8 175.2 L 127.3 175.2 L 127.3 186.6 L 125.8 186.6 L 125.8 175.2 " fill="#000000"/>
<path class="legend" d="M 131.2 175.2 L 134.9 181.2 Q 135.3 181.8, 135.9 182.9 Q 136.5 184.0, 136.5 184.0 L 136.5 175.2 L 138.0 175.2 L 138.0 186.6 L 136.5 186.6 L 132.5 180.0 Q 132.0 179.2, 131.5 178.4 Q 131.1 177.5, 130.9 177.2 L 130.9 186.6 L 129.4 186.6 L 129.4 175.2 L 131.2 175.2 " fill="#000000"/>
<path class="legend" d="M 140.1 175.2 L 146.8 175.2 L 146.8 176.5 L 141.6 176.5 L 141.6 180.0 L 146.3 180.0 L 146.3 181.3 L 141.6 181.3 L 141.6 185.2 L 147.0 185.2 L 147.0 186.6 L 140.1 186.6 L 140.1 175.2 " fill="#000000"/>
<path class="bond-0 atom-0 atom-1" d="M 216.9,108.9 L 223.4,104.0" style="fill:none;fill-rule:evenodd;stroke:#7F4C19;stroke-width:2.0px;stroke-linecap:butt;stroke-linejoin:miter;stroke-opacity:1"/>
<path class="bond-0 atom-0 atom-1" d="M 223.4,104.0 L 229.9,99.1" style="fill:none;fill-rule:evenodd;stroke:#000000;stroke-width:2.0px;stroke-linecap:butt;stroke-linejoin:miter;stroke-opacity:1"/>
<path class="bond-1 atom-1 atom-2" d="M 229.9,99.1 L 227.6,80.9" style="fill:none;fill-rule:evenodd;stroke:#000000;stroke-width:2.0px;stroke-linecap:butt;stroke-linejoin:miter;stroke-opacity:1"/>
<path class="bond-1 atom-1 atom-2" d="M 232.4,97.2 L 230.5,82.2" style="fill:none;fill-rule:evenodd;stroke:#000000;stroke-width:2.0px;stroke-linecap:butt;stroke-linejoin:miter;stroke-opacity:1"/>
<path class="bond-2 atom-2 atom-3" d="M 227.6,80.9 L 242.2,69.9" style="fill:none;fill-rule:evenodd;stroke:#000000;stroke-width:2.0px;stroke-linecap:butt;stroke-linejoin:miter;stroke-opacity:1"/>
<path class="bond-3 atom-3 atom-4" d="M 242.2,69.9 L 259.1,77.0" style="fill:none;fill-rule:evenodd;stroke:#000000;stroke-width:2.0px;stroke-linecap:butt;stroke-linejoin:miter;stroke-opacity:1"/>
<path class="bond-3 atom-3 atom-4" d="M 242.6,73.1 L 256.6,79.0" style="fill:none;fill-rule:evenodd;stroke:#000000;stroke-width:2.0px;stroke-linecap:butt;stroke-linejoin:miter;stroke-opacity:1"/>
<path class="bond-4 atom-4 atom-5" d="M 259.1,77.0 L 265.1,72.5" style="fill:none;fill-rule:evenodd;stroke:#000000;stroke-width:2.0px;stroke-linecap:butt;stroke-linejoin:miter;stroke-opacity:1"/>
<path class="bond-4 atom-4 atom-5" d="M 265.1,72.5 L 271.2,67.9" style="fill:none;fill-rule:evenodd;stroke:#0000FF;stroke-width:2.0px;stroke-linecap:butt;stroke-linejoin:miter;stroke-opacity:1"/>
<path class="bond-5 atom-5 atom-6" d="M 276.3,67.1 L 283.5,70.1" style="fill:none;fill-rule:evenodd;stroke:#0000FF;stroke-width:2.0px;stroke-linecap:butt;stroke-linejoin:miter;stroke-opacity:1"/>
<path class="bond-5 atom-5 atom-6" d="M 283.5,70.1 L 290.6,73.1" style="fill:none;fill-rule:evenodd;stroke:#000000;stroke-width:2.0px;stroke-linecap:butt;stroke-linejoin:miter;stroke-opacity:1"/>
<path class="bond-5 atom-5 atom-6" d="M 275.2,69.6 L 281.7,72.3" style="fill:none;fill-rule:evenodd;stroke:#0000FF;stroke-width:2.0px;stroke-linecap:butt;stroke-linejoin:miter;stroke-opacity:1"/>
<path class="bond-5 atom-5 atom-6" d="M 281.7,72.3 L 288.1,75.1" style="fill:none;fill-rule:evenodd;stroke:#000000;stroke-width:2.0px;stroke-linecap:butt;stroke-linejoin:miter;stroke-opacity:1"/>
<path class="bond-6 atom-6 atom-7" d="M 290.6,73.1 L 296.4,68.7" style="fill:none;fill-rule:evenodd;stroke:#000000;stroke-width:2.0px;stroke-linecap:butt;stroke-linejoin:miter;stroke-opacity:1"/>
<path class="bond-6 atom-6 atom-7" d="M 296.4,68.7 L 302.3,64.4" style="fill:none;fill-rule:evenodd;stroke:#FF0000;stroke-width:2.0px;stroke-linecap:butt;stroke-linejoin:miter;stroke-opacity:1"/>
<path class="bond-7 atom-7 atom-8" d="M 304.8,58.9 L 303.9,51.4" style="fill:none;fill-rule:evenodd;stroke:#FF0000;stroke-width:2.0px;stroke-linecap:butt;stroke-linejoin:miter;stroke-opacity:1"/>
<path class="bond-7 atom-7 atom-8" d="M 303.9,51.4 L 303.0,43.9" style="fill:none;fill-rule:evenodd;stroke:#000000;stroke-width:2.0px;stroke-linecap:butt;stroke-linejoin:miter;stroke-opacity:1"/>
<path class="bond-8 atom-6 atom-9" d="M 290.6,73.1 L 292.9,91.3" style="fill:none;fill-rule:evenodd;stroke:#000000;stroke-width:2.0px;stroke-linecap:butt;stroke-linejoin:miter;stroke-opacity:1"/>
<path class="bond-9 atom-9 atom-10" d="M 292.9,91.3 L 278.2,102.4" style="fill:none;fill-rule:evenodd;stroke:#000000;stroke-width:2.0px;stroke-linecap:butt;stroke-linejoin:miter;stroke-opacity:1"/>
<path class="bond-9 atom-9 atom-10" d="M 289.9,90.1 L 277.9,99.2" style="fill:none;fill-rule:evenodd;stroke:#000000;stroke-width:2.0px;stroke-linecap:butt;stroke-linejoin:miter;stroke-opacity:1"/>
<path class="bond-10 atom-10 atom-11" d="M 278.2,102.4 L 261.4,95.2" style="fill:none;fill-rule:evenodd;stroke:#000000;stroke-width:2.0px;stroke-linecap:butt;stroke-linejoin:miter;stroke-opacity:1"/>
<path class="bond-11 atom-11 atom-12" d="M 261.4,95.2 L 246.7,106.3" style="fill:none;fill-rule:evenodd;stroke:#000000;stroke-width:2.0px;stroke-linecap:butt;stroke-linejoin:miter;stroke-opacity:1"/>
<path class="bond-11 atom-11 atom-12" d="M 258.4,94.0 L 246.3,103.1" style="fill:none;fill-rule:evenodd;stroke:#000000;stroke-width:2.0px;stroke-linecap:butt;stroke-linejoin:miter;stroke-opacity:1"/>
<path class="bond-12 atom-9 atom-13" d="M 292.9,91.3 L 309.8,98.5" style="fill:none;fill-rule:evenodd;stroke:#000000;stroke-width:2.0px;stroke-linecap:butt;stroke-linejoin:miter;stroke-opacity:1"/>
<path class="bond-13 atom-13 atom-14" d="M 309.8,98.5 L 312.0,116.7" style="fill:none;fill-rule:evenodd;stroke:#000000;stroke-width:2.0px;stroke-linecap:butt;stroke-linejoin:miter;stroke-opacity:1"/>
<path class="bond-14 atom-14 atom-15" d="M 312.0,116.7 L 297.4,127.7" style="fill:none;fill-rule:evenodd;stroke:#000000;stroke-width:2.0px;stroke-linecap:butt;stroke-linejoin:miter;stroke-opacity:1"/>
<path class="bond-14 atom-14 atom-15" d="M 312.4,119.8 L 300.3,129.0" style="fill:none;fill-rule:evenodd;stroke:#000000;stroke-width:2.0px;stroke-linecap:butt;stroke-linejoin:miter;stroke-opacity:1"/>
<path class="bond-15 atom-15 atom-16" d="M 297.4,127.7 L 299.6,145.9" style="fill:none;fill-rule:evenodd;stroke:#000000;stroke-width:2.0px;stroke-linecap:butt;stroke-linejoin:miter;stroke-opacity:1"/>
<path class="bond-16 atom-16 atom-17" d="M 299.6,145.9 L 316.5,153.0" style="fill:none;fill-rule:evenodd;stroke:#000000;stroke-width:2.0px;stroke-linecap:butt;stroke-linejoin:miter;stroke-opacity:1"/>
<path class="bond-16 atom-16 atom-17" d="M 302.2,144.0 L 316.1,149.9" style="fill:none;fill-rule:evenodd;stroke:#000000;stroke-width:2.0px;stroke-linecap:butt;stroke-linejoin:miter;stroke-opacity:1"/>
<path class="bond-17 atom-17 atom-18" d="M 316.5,153.0 L 331.1,142.0" style="fill:none;fill-rule:evenodd;stroke:#000000;stroke-width:2.0px;stroke-linecap:butt;stroke-linejoin:miter;stroke-opacity:1"/>
<path class="bond-18 atom-18 atom-19" d="M 331.1,142.0 L 328.9,123.8" style="fill:none;fill-rule:evenodd;stroke:#000000;stroke-width:2.0px;stroke-linecap:butt;stroke-linejoin:miter;stroke-opacity:1"/>
<path class="bond-18 atom-18 atom-19" d="M 328.2,140.8 L 326.4,125.7" style="fill:none;fill-rule:evenodd;stroke:#000000;stroke-width:2.0px;stroke-linecap:butt;stroke-linejoin:miter;stroke-opacity:1"/>
<path class="bond-19 atom-13 atom-20" d="M 309.8,98.5 L 324.4,87.4" style="fill:none;fill-rule:evenodd;stroke:#000000;stroke-width:2.0px;stroke-linecap:butt;stroke-linejoin:miter;stroke-opacity:1"/>
<path class="bond-20 atom-20 atom-21" d="M 324.4,87.4 L 320.1,81.8" style="fill:none;fill-rule:evenodd;stroke:#000000;stroke-width:2.0px;stroke-linecap:butt;stroke-linejoin:miter;stroke-opacity:1"/>
<path class="bond-20 atom-20 atom-21" d="M 320.1,81.8 L 315.8,76.1" style="fill:none;fill-rule:evenodd;stroke:#FF0000;stroke-width:2.0px;stroke-linecap:butt;stroke-linejoin:miter;stroke-opacity:1"/>
<path class="bond-21 atom-20 atom-22" d="M 324.4,87.4 L 335.4,102.1" style="fill:none;fill-rule:evenodd;stroke:#000000;stroke-width:2.0px;stroke-linecap:butt;stroke-linejoin:miter;stroke-opacity:1"/>
<path class="bond-22 atom-22 atom-23" d="M 335.4,102.1 L 328.3,118.9" style="fill:none;fill-rule:evenodd;stroke:#000000;stroke-width:2.0px;stroke-linecap:butt;stroke-linejoin:miter;stroke-opacity:1"/>
<path class="bond-22 atom-22 atom-23" d="M 337.3,104.6 L 331.4,118.5" style="fill:none;fill-rule:evenodd;stroke:#000000;stroke-width:2.0px;stroke-linecap:butt;stroke-linejoin:miter;stroke-opacity:1"/>
<path class="bond-23 atom-23 atom-24" d="M 328.3,118.9 L 339.3,133.6" style="fill:none;fill-rule:evenodd;stroke:#000000;stroke-width:2.0px;stroke-linecap:butt;stroke-linejoin:miter;stroke-opacity:1"/>
<path class="bond-24 atom-24 atom-25" d="M 339.3,133.6 L 357.5,131.3" style="fill:none;fill-rule:evenodd;stroke:#000000;stroke-width:2.0px;stroke-linecap:butt;stroke-linejoin:miter;stroke-opacity:1"/>
<path class="bond-24 atom-24 atom-25" d="M 340.6,130.6 L 355.6,128.8" style="fill:none;fill-rule:evenodd;stroke:#000000;stroke-width:2.0px;stroke-linecap:butt;stroke-linejoin:miter;stroke-opacity:1"/>
<path class="bond-25 atom-25 atom-26" d="M 357.5,131.3 L 364.7,114.4" style="fill:none;fill-rule:evenodd;stroke:#000000;stroke-width:2.0px;stroke-linecap:butt;stroke-linejoin:miter;stroke-opacity:1"/>
<path class="bond-26 atom-26 atom-27" d="M 364.7,114.4 L 382.9,112.2" style="fill:none;fill-rule:evenodd;stroke:#000000;stroke-width:2.0px;stroke-linecap:butt;stroke-linejoin:miter;stroke-opacity:1"/>
<path class="bond-26 atom-26 atom-27" d="M 365.9,111.5 L 380.9,109.6" style="fill:none;fill-rule:evenodd;stroke:#000000;stroke-width:2.0px;stroke-linecap:butt;stroke-linejoin:miter;stroke-opacity:1"/>
<path class="bond-27 atom-27 atom-28" d="M 382.9,112.2 L 390.0,95.3" style="fill:none;fill-rule:evenodd;stroke:#000000;stroke-width:2.0px;stroke-linecap:butt;stroke-linejoin:miter;stroke-opacity:1"/>
<path class="bond-28 atom-28 atom-29" d="M 390.0,95.3 L 379.0,80.7" style="fill:none;fill-rule:evenodd;stroke:#000000;stroke-width:2.0px;stroke-linecap:butt;stroke-linejoin:miter;stroke-opacity:1"/>
<path class="bond-28 atom-28 atom-29" d="M 386.8,95.7 L 377.7,83.6" style="fill:none;fill-rule:evenodd;stroke:#000000;stroke-width:2.0px;stroke-linecap:butt;stroke-linejoin:miter;stroke-opacity:1"/>
<path class="bond-29 atom-29 atom-30" d="M 379.0,80.7 L 360.8,82.9" style="fill:none;fill-rule:evenodd;stroke:#000000;stroke-width:2.0px;stroke-linecap:butt;stroke-linejoin:miter;stroke-opacity:1"/>
<path class="bond-30 atom-30 atom-31" d="M 360.8,82.9 L 353.6,99.8" style="fill:none;fill-rule:evenodd;stroke:#000000;stroke-width:2.0px;stroke-linecap:butt;stroke-linejoin:miter;stroke-opacity:1"/>
<path class="bond-30 atom-30 atom-31" d="M 362.7,85.5 L 356.8,99.4" style="fill:none;fill-rule:evenodd;stroke:#000000;stroke-width:2.0px;stroke-linecap:butt;stroke-linejoin:miter;stroke-opacity:1"/>
<path class="bond-31 atom-20 atom-32" d="M 324.4,87.4 L 339.0,76.4" style="fill:none;fill-rule:evenodd;stroke:#000000;stroke-width:2.0px;stroke-linecap:butt;stroke-linejoin:miter;stroke-opacity:1"/>
<path class="bond-32 atom-32 atom-33" d="M 339.0,76.4 L 336.8,58.2" style="fill:none;fill-rule:evenodd;stroke:#000000;stroke-width:2.0px;stroke-linecap:butt;stroke-linejoin:miter;stroke-opacity:1"/>
<path class="bond-33 atom-33 atom-34" d="M 336.8,58.2 L 342.8,53.6" style="fill:none;fill-rule:evenodd;stroke:#000000;stroke-width:2.0px;stroke-linecap:butt;stroke-linejoin:miter;stroke-opacity:1"/>
<path class="bond-33 atom-33 atom-34" d="M 342.8,53.6 L 348.8,49.1" style="fill:none;fill-rule:evenodd;stroke:#0000FF;stroke-width:2.0px;stroke-linecap:butt;stroke-linejoin:miter;stroke-opacity:1"/>
<path class="bond-34 atom-34 atom-35" d="M 351.0,43.9 L 350.1,36.4" style="fill:none;fill-rule:evenodd;stroke:#0000FF;stroke-width:2.0px;stroke-linecap:butt;stroke-linejoin:miter;stroke-opacity:1"/>
<path class="bond-34 atom-34 atom-35" d="M 350.1,36.4 L 349.1,29.0" style="fill:none;fill-rule:evenodd;stroke:#000000;stroke-width:2.0px;stroke-linecap:butt;stroke-linejoin:miter;stroke-opacity:1"/>
<path class="bond-35 atom-34 atom-36" d="M 354.0,48.2 L 361.1,51.3" style="fill:none;fill-rule:evenodd;stroke:#0000FF;stroke-width:2.0px;stroke-linecap:butt;stroke-linejoin:miter;stroke-opacity:1"/>
<path class="bond-35 atom-34 atom-36" d="M 361.1,51.3 L 368.3,54.3" style="fill:none;fill-rule:evenodd;stroke:#000000;stroke-width:2.0px;stroke-linecap:butt;stroke-linejoin:miter;stroke-opacity:1"/>
<path class="bond-36 atom-1 atom-12" d="M 229.9,99.1 L 246.7,106.3" style="fill:none;fill-rule:evenodd;stroke:#000000;stroke-width:2.0px;stroke-linecap:butt;stroke-linejoin:miter;stroke-opacity:1"/>
<path class="bond-37 atom-11 atom-4" d="M 261.4,95.2 L 259.1,77.0" style="fill:none;fill-rule:evenodd;stroke:#000000;stroke-width:2.0px;stroke-linecap:butt;stroke-linejoin:miter;stroke-opacity:1"/>
<path class="bond-38 atom-14 atom-19" d="M 312.0,116.7 L 328.9,123.8" style="fill:none;fill-rule:evenodd;stroke:#000000;stroke-width:2.0px;stroke-linecap:butt;stroke-linejoin:miter;stroke-opacity:1"/>
<path class="bond-39 atom-31 atom-22" d="M 353.6,99.8 L 335.4,102.1" style="fill:none;fill-rule:evenodd;stroke:#000000;stroke-width:2.0px;stroke-linecap:butt;stroke-linejoin:miter;stroke-opacity:1"/>
<path class="bond-40 atom-26 atom-31" d="M 364.7,114.4 L 353.6,99.8" style="fill:none;fill-rule:evenodd;stroke:#000000;stroke-width:2.0px;stroke-linecap:butt;stroke-linejoin:miter;stroke-opacity:1"/>
<path d="M 227.7,81.9 L 227.6,80.9 L 228.3,80.4" style="fill:none;stroke:#000000;stroke-width:2.0px;stroke-linecap:butt;stroke-linejoin:miter;stroke-opacity:1;"/>
<path d="M 241.5,70.5 L 242.2,69.9 L 243.1,70.3" style="fill:none;stroke:#000000;stroke-width:2.0px;stroke-linecap:butt;stroke-linejoin:miter;stroke-opacity:1;"/>
<path d="M 279.0,101.8 L 278.2,102.4 L 277.4,102.0" style="fill:none;stroke:#000000;stroke-width:2.0px;stroke-linecap:butt;stroke-linejoin:miter;stroke-opacity:1;"/>
<path d="M 247.5,105.7 L 246.7,106.3 L 245.9,105.9" style="fill:none;stroke:#000000;stroke-width:2.0px;stroke-linecap:butt;stroke-linejoin:miter;stroke-opacity:1;"/>
<path d="M 298.1,127.2 L 297.4,127.7 L 297.5,128.6" style="fill:none;stroke:#000000;stroke-width:2.0px;stroke-linecap:butt;stroke-linejoin:miter;stroke-opacity:1;"/>
<path d="M 299.5,145.0 L 299.6,145.9 L 300.5,146.3" style="fill:none;stroke:#000000;stroke-width:2.0px;stroke-linecap:butt;stroke-linejoin:miter;stroke-opacity:1;"/>
<path d="M 315.7,152.7 L 316.5,153.0 L 317.2,152.5" style="fill:none;stroke:#000000;stroke-width:2.0px;stroke-linecap:butt;stroke-linejoin:miter;stroke-opacity:1;"/>
<path d="M 330.4,142.6 L 331.1,142.0 L 331.0,141.1" style="fill:none;stroke:#000000;stroke-width:2.0px;stroke-linecap:butt;stroke-linejoin:miter;stroke-opacity:1;"/>
<path d="M 329.0,124.7 L 328.9,123.8 L 328.0,123.5" style="fill:none;stroke:#000000;stroke-width:2.0px;stroke-linecap:butt;stroke-linejoin:miter;stroke-opacity:1;"/>
<path d="M 328.6,118.1 L 328.3,118.9 L 328.8,119.7" style="fill:none;stroke:#000000;stroke-width:2.0px;stroke-linecap:butt;stroke-linejoin:miter;stroke-opacity:1;"/>
<path d="M 338.8,132.8 L 339.3,133.6 L 340.2,133.5" style="fill:none;stroke:#000000;stroke-width:2.0px;stroke-linecap:butt;stroke-linejoin:miter;stroke-opacity:1;"/>
<path d="M 356.6,131.4 L 357.5,131.3 L 357.9,130.5" style="fill:none;stroke:#000000;stroke-width:2.0px;stroke-linecap:butt;stroke-linejoin:miter;stroke-opacity:1;"/>
<path d="M 381.9,112.3 L 382.9,112.2 L 383.2,111.3" style="fill:none;stroke:#000000;stroke-width:2.0px;stroke-linecap:butt;stroke-linejoin:miter;stroke-opacity:1;"/>
<path d="M 389.6,96.1 L 390.0,95.3 L 389.4,94.6" style="fill:none;stroke:#000000;stroke-width:2.0px;stroke-linecap:butt;stroke-linejoin:miter;stroke-opacity:1;"/>
<path d="M 379.5,81.4 L 379.0,80.7 L 378.0,80.8" style="fill:none;stroke:#000000;stroke-width:2.0px;stroke-linecap:butt;stroke-linejoin:miter;stroke-opacity:1;"/>
<path d="M 361.7,82.8 L 360.8,82.9 L 360.4,83.8" style="fill:none;stroke:#000000;stroke-width:2.0px;stroke-linecap:butt;stroke-linejoin:miter;stroke-opacity:1;"/>
<path d="M 338.3,76.9 L 339.0,76.4 L 338.9,75.5" style="fill:none;stroke:#000000;stroke-width:2.0px;stroke-linecap:butt;stroke-linejoin:miter;stroke-opacity:1;"/>
<path d="M 336.9,59.1 L 336.8,58.2 L 337.1,58.0" style="fill:none;stroke:#000000;stroke-width:2.0px;stroke-linecap:butt;stroke-linejoin:miter;stroke-opacity:1;"/>
<path class="atom-0" d="M 212.5 110.1 Q 213.0 110.2, 213.3 110.5 Q 213.5 110.8, 213.5 111.2 Q 213.5 112.0, 213.1 112.4 Q 212.6 112.8, 211.7 112.8 L 210.0 112.8 L 210.0 107.6 L 211.5 107.6 Q 212.4 107.6, 212.9 107.9 Q 213.3 108.3, 213.3 109.0 Q 213.3 109.8, 212.5 110.1 M 210.7 108.2 L 210.7 109.8 L 211.5 109.8 Q 212.0 109.8, 212.3 109.6 Q 212.6 109.4, 212.6 109.0 Q 212.6 108.2, 211.5 108.2 L 210.7 108.2 M 211.7 112.2 Q 212.3 112.2, 212.5 112.0 Q 212.8 111.7, 212.8 111.2 Q 212.8 110.8, 212.5 110.6 Q 212.2 110.4, 211.6 110.4 L 210.7 110.4 L 210.7 112.2 L 211.7 112.2 " fill="#7F4C19"/>
<path class="atom-0" d="M 214.7 109.0 L 214.8 109.5 Q 215.2 108.9, 215.8 108.9 Q 216.0 108.9, 216.3 109.0 L 216.2 109.6 Q 215.9 109.6, 215.7 109.6 Q 215.4 109.6, 215.2 109.7 Q 215.0 109.8, 214.8 110.1 L 214.8 112.8 L 214.1 112.8 L 214.1 109.0 L 214.7 109.0 " fill="#7F4C19"/>
<path class="atom-5" d="M 272.6 63.4 L 274.3 66.2 Q 274.5 66.4, 274.7 66.9 Q 275.0 67.4, 275.0 67.4 L 275.0 63.4 L 275.7 63.4 L 275.7 68.6 L 275.0 68.6 L 273.2 65.6 Q 273.0 65.2, 272.7 64.8 Q 272.5 64.4, 272.4 64.3 L 272.4 68.6 L 271.8 68.6 L 271.8 63.4 L 272.6 63.4 " fill="#0000FF"/>
<path class="atom-7" d="M 302.9 62.1 Q 302.9 60.9, 303.5 60.2 Q 304.1 59.5, 305.2 59.5 Q 306.4 59.5, 307.0 60.2 Q 307.6 60.9, 307.6 62.1 Q 307.6 63.4, 307.0 64.1 Q 306.4 64.8, 305.2 64.8 Q 304.1 64.8, 303.5 64.1 Q 302.9 63.4, 302.9 62.1 M 305.2 64.2 Q 306.0 64.2, 306.5 63.7 Q 306.9 63.1, 306.9 62.1 Q 306.9 61.1, 306.5 60.6 Q 306.0 60.1, 305.2 60.1 Q 304.5 60.1, 304.0 60.6 Q 303.6 61.1, 303.6 62.1 Q 303.6 63.2, 304.0 63.7 Q 304.5 64.2, 305.2 64.2 " fill="#FF0000"/>
<path class="atom-21" d="M 305.8 70.2 L 306.5 70.2 L 306.5 72.4 L 309.2 72.4 L 309.2 70.2 L 309.9 70.2 L 309.9 75.4 L 309.2 75.4 L 309.2 73.0 L 306.5 73.0 L 306.5 75.4 L 305.8 75.4 L 305.8 70.2 " fill="#FF0000"/>
<path class="atom-21" d="M 310.9 72.8 Q 310.9 71.6, 311.6 70.9 Q 312.2 70.2, 313.3 70.2 Q 314.5 70.2, 315.1 70.9 Q 315.7 71.6, 315.7 72.8 Q 315.7 74.1, 315.1 74.8 Q 314.5 75.5, 313.3 75.5 Q 312.2 75.5, 311.6 74.8 Q 310.9 74.1, 310.9 72.8 M 313.3 74.9 Q 314.1 74.9, 314.5 74.4 Q 315.0 73.9, 315.0 72.8 Q 315.0 71.8, 314.5 71.3 Q 314.1 70.8, 313.3 70.8 Q 312.5 70.8, 312.1 71.3 Q 311.7 71.8, 311.7 72.8 Q 311.7 73.9, 312.1 74.4 Q 312.5 74.9, 313.3 74.9 " fill="#FF0000"/>
<path class="atom-34" d="M 350.2 44.5 L 351.9 47.3 Q 352.1 47.6, 352.4 48.1 Q 352.6 48.6, 352.7 48.6 L 352.7 44.5 L 353.3 44.5 L 353.3 49.7 L 352.6 49.7 L 350.8 46.7 Q 350.6 46.4, 350.4 46.0 Q 350.2 45.6, 350.1 45.4 L 350.1 49.7 L 349.4 49.7 L 349.4 44.5 L 350.2 44.5 " fill="#0000FF"/>
<path class="legend" d="M 252.7 184.2 Q 252.7 181.3, 254.0 179.9 Q 255.3 178.4, 257.8 178.4 Q 260.2 178.4, 261.4 180.0 L 260.4 180.9 Q 259.5 179.7, 257.8 179.7 Q 256.1 179.7, 255.2 180.8 Q 254.3 182.0, 254.3 184.2 Q 254.3 186.4, 255.3 187.6 Q 256.2 188.7, 258.0 188.7 Q 259.3 188.7, 260.7 188.0 L 261.2 189.2 Q 260.6 189.5, 259.7 189.8 Q 258.8 190.0, 257.8 190.0 Q 255.3 190.0, 254.0 188.5 Q 252.7 187.0, 252.7 184.2 " fill="#000000"/>
<path class="legend" d="M 264.7 178.5 L 268.4 184.5 Q 268.7 185.1, 269.3 186.2 Q 269.9 187.2, 269.9 187.3 L 269.9 178.5 L 271.5 178.5 L 271.5 189.8 L 269.9 189.8 L 265.9 183.3 Q 265.5 182.5, 265.0 181.6 Q 264.5 180.8, 264.3 180.5 L 264.3 189.8 L 262.9 189.8 L 262.9 178.5 L 264.7 178.5 " fill="#000000"/>
<path class="legend" d="M 276.9 178.5 Q 278.9 178.5, 279.8 179.4 Q 280.8 180.3, 280.8 181.8 Q 280.8 183.4, 279.8 184.3 Q 278.8 185.2, 276.9 185.2 L 275.1 185.2 L 275.1 189.8 L 273.6 189.8 L 273.6 178.5 L 276.9 178.5 M 276.9 183.9 Q 278.0 183.9, 278.6 183.4 Q 279.2 182.8, 279.2 181.8 Q 279.2 180.8, 278.6 180.3 Q 278.0 179.8, 276.9 179.8 L 275.1 179.8 L 275.1 183.9 L 276.9 183.9 " fill="#000000"/>
<path class="legend" d="M 286.5 190.0 Q 284.4 190.0, 283.4 188.4 Q 282.3 186.9, 282.3 184.2 Q 282.3 181.4, 283.4 179.9 Q 284.4 178.4, 286.5 178.4 Q 288.6 178.4, 289.6 179.9 Q 290.6 181.4, 290.6 184.2 Q 290.6 186.9, 289.6 188.4 Q 288.6 190.0, 286.5 190.0 M 286.5 188.7 Q 287.7 188.7, 288.4 187.6 Q 289.0 186.4, 289.0 184.2 Q 289.0 181.9, 288.4 180.8 Q 287.7 179.7, 286.5 179.7 Q 285.3 179.7, 284.6 180.8 Q 283.9 181.9, 283.9 184.2 Q 283.9 186.4, 284.6 187.6 Q 285.3 188.7, 286.5 188.7 " fill="#000000"/>
<path class="legend" d="M 292.5 180.7 Q 292.9 179.6, 293.9 179.0 Q 294.9 178.4, 296.3 178.4 Q 298.0 178.4, 298.9 179.3 Q 299.9 180.2, 299.9 181.9 Q 299.9 183.6, 298.7 185.1 Q 297.4 186.7, 294.9 188.6 L 300.1 188.6 L 300.1 189.8 L 292.5 189.8 L 292.5 188.8 Q 294.6 187.3, 295.8 186.1 Q 297.1 185.0, 297.7 184.0 Q 298.3 183.0, 298.3 182.0 Q 298.3 180.9, 297.8 180.3 Q 297.2 179.7, 296.3 179.7 Q 295.4 179.7, 294.8 180.0 Q 294.1 180.4, 293.7 181.2 L 292.5 180.7 " fill="#000000"/>
<path class="legend" d="M 307.6 183.8 Q 308.7 184.3, 309.3 185.0 Q 309.9 185.6, 309.9 186.7 Q 309.9 187.7, 309.4 188.4 Q 308.9 189.2, 308.0 189.6 Q 307.1 190.0, 305.9 190.0 Q 304.0 190.0, 302.9 189.1 Q 301.9 188.3, 301.9 186.7 Q 301.9 185.8, 302.3 185.1 Q 302.8 184.4, 303.8 183.9 Q 303.1 183.5, 302.7 182.9 Q 302.3 182.2, 302.3 181.3 Q 302.3 180.0, 303.2 179.2 Q 304.2 178.4, 305.9 178.4 Q 307.5 178.4, 308.5 179.2 Q 309.4 180.0, 309.4 181.3 Q 309.4 182.1, 309.0 182.7 Q 308.5 183.3, 307.6 183.8 M 305.9 179.6 Q 304.9 179.6, 304.4 180.0 Q 303.9 180.5, 303.9 181.3 Q 303.9 181.9, 304.2 182.3 Q 304.6 182.7, 305.1 182.9 Q 305.6 183.1, 306.6 183.4 Q 307.2 183.0, 307.5 182.4 Q 307.8 181.9, 307.8 181.3 Q 307.8 180.5, 307.3 180.0 Q 306.8 179.6, 305.9 179.6 M 305.9 188.8 Q 307.0 188.8, 307.6 188.2 Q 308.3 187.7, 308.3 186.7 Q 308.3 186.1, 307.9 185.7 Q 307.6 185.3, 307.1 185.1 Q 306.6 184.9, 305.7 184.6 L 305.0 184.4 Q 304.2 184.8, 303.8 185.4 Q 303.5 186.0, 303.5 186.7 Q 303.5 187.7, 304.1 188.2 Q 304.8 188.8, 305.9 188.8 " fill="#000000"/>
<path class="legend" d="M 311.7 180.7 Q 312.1 179.6, 313.1 179.0 Q 314.1 178.4, 315.5 178.4 Q 317.2 178.4, 318.1 179.3 Q 319.1 180.2, 319.1 181.9 Q 319.1 183.6, 317.8 185.1 Q 316.6 186.7, 314.1 188.6 L 319.3 188.6 L 319.3 189.8 L 311.7 189.8 L 311.7 188.8 Q 313.8 187.3, 315.0 186.1 Q 316.3 185.0, 316.9 184.0 Q 317.5 183.0, 317.5 182.0 Q 317.5 180.9, 316.9 180.3 Q 316.4 179.7, 315.5 179.7 Q 314.5 179.7, 313.9 180.0 Q 313.3 180.4, 312.9 181.2 L 311.7 180.7 " fill="#000000"/>
<path class="legend" d="M 325.5 182.8 Q 326.5 182.8, 327.2 183.2 Q 328.0 183.6, 328.5 184.4 Q 328.9 185.2, 328.9 186.2 Q 328.9 187.3, 328.4 188.2 Q 327.9 189.0, 327.1 189.5 Q 326.2 190.0, 325.1 190.0 Q 323.1 190.0, 322.0 188.6 Q 321.0 187.2, 321.0 184.5 Q 321.0 181.5, 322.3 180.0 Q 323.5 178.4, 326.0 178.4 Q 326.7 178.4, 327.3 178.5 Q 327.9 178.7, 328.4 179.0 L 327.8 180.1 Q 327.0 179.7, 326.0 179.7 Q 324.4 179.7, 323.6 180.7 Q 322.7 181.7, 322.7 183.9 Q 323.2 183.3, 323.9 183.1 Q 324.7 182.8, 325.5 182.8 M 325.1 188.7 Q 325.7 188.7, 326.2 188.3 Q 326.7 188.0, 327.0 187.5 Q 327.3 186.9, 327.3 186.2 Q 327.3 185.2, 326.7 184.6 Q 326.2 184.0, 325.2 184.0 Q 324.5 184.0, 323.8 184.3 Q 323.1 184.6, 322.7 185.1 Q 322.7 187.0, 323.3 187.8 Q 323.9 188.7, 325.1 188.7 " fill="#000000"/>
<path class="legend" d="M 334.7 182.8 Q 335.7 182.8, 336.5 183.2 Q 337.3 183.6, 337.8 184.4 Q 338.2 185.2, 338.2 186.3 Q 338.2 187.4, 337.7 188.3 Q 337.1 189.1, 336.2 189.5 Q 335.2 190.0, 334.2 190.0 Q 333.1 190.0, 332.2 189.6 Q 331.2 189.2, 330.6 188.5 L 331.5 187.5 Q 332.1 188.0, 332.8 188.4 Q 333.5 188.7, 334.2 188.7 Q 335.2 188.7, 335.9 188.0 Q 336.6 187.4, 336.6 186.3 Q 336.6 185.1, 335.9 184.5 Q 335.2 184.0, 334.1 184.0 Q 333.1 184.0, 332.0 184.4 L 331.2 184.0 L 331.7 178.5 L 337.5 178.5 L 337.4 179.8 L 333.0 179.8 L 332.7 183.2 Q 333.7 182.8, 334.7 182.8 " fill="#000000"/>
<path class="legend" d="M 345.7 179.8 L 339.8 179.8 L 339.8 178.5 L 347.3 178.5 L 347.3 179.6 L 342.7 189.8 L 341.2 189.8 L 345.7 179.8 " fill="#000000"/>
</svg>