<svg xmlns="http://www.w3.org/2000/svg" xmlns:rdkit="http://www.rdkit.org/xml" xmlns:xlink="http://www.w3.org/1999/xlink" version="1.1" baseProfile="full" xml:space="preserve" width="600px" height="200px" viewBox="0 0 600 200">
<!-- END OF HEADER -->
<rect style="opacity:1.0;fill:#FFFFFF;stroke:none" width="600.0" height="200.0" x="0.0" y="0.0"> </rect>
<path class="bond-0 atom-0 atom-1" d="M 61.5,129.5 L 56.5,113.4" style="fill:none;fill-rule:evenodd;stroke:#000000;stroke-width:2.0px;stroke-linecap:butt;stroke-linejoin:miter;stroke-opacity:1"/>
<path class="bond-1 atom-1 atom-2" d="M 56.5,113.4 L 40.9,120.1" style="fill:none;fill-rule:evenodd;stroke:#000000;stroke-width:2.0px;stroke-linecap:butt;stroke-linejoin:miter;stroke-opacity:1"/>
<path class="bond-2 atom-1 atom-3" d="M 56.5,113.4 L 63.7,111.9" style="fill:none;fill-rule:evenodd;stroke:#000000;stroke-width:2.0px;stroke-linecap:butt;stroke-linejoin:miter;stroke-opacity:1"/>
<path class="bond-2 atom-1 atom-3" d="M 63.7,111.9 L 71.0,110.5" style="fill:none;fill-rule:evenodd;stroke:#CCCC00;stroke-width:2.0px;stroke-linecap:butt;stroke-linejoin:miter;stroke-opacity:1"/>
<path class="bond-3 atom-3 atom-4" d="M 73.4,107.1 L 74.2,100.2" style="fill:none;fill-rule:evenodd;stroke:#CCCC00;stroke-width:2.0px;stroke-linecap:butt;stroke-linejoin:miter;stroke-opacity:1"/>
<path class="bond-3 atom-3 atom-4" d="M 74.2,100.2 L 75.0,93.2" style="fill:none;fill-rule:evenodd;stroke:#000000;stroke-width:2.0px;stroke-linecap:butt;stroke-linejoin:miter;stroke-opacity:1"/>
<path class="bond-4 atom-4 atom-5" d="M 75.0,93.2 L 82.1,77.9" style="fill:none;fill-rule:evenodd;stroke:#000000;stroke-width:2.0px;stroke-linecap:butt;stroke-linejoin:miter;stroke-opacity:1"/>
<path class="bond-5 atom-5 atom-6" d="M 82.1,77.9 L 88.4,74.9 L 88.8,76.1 Z" style="fill:#000000;fill-rule:evenodd;fill-opacity:1;stroke:#000000;stroke-width:0.5px;stroke-linecap:butt;stroke-linejoin:miter;stroke-opacity:1;"/>
<path class="bond-5 atom-5 atom-6" d="M 88.4,74.9 L 95.5,74.3 L 94.6,71.9 Z" style="fill:#0000FF;fill-rule:evenodd;fill-opacity:1;stroke:#0000FF;stroke-width:0.5px;stroke-linecap:butt;stroke-linejoin:miter;stroke-opacity:1;"/>
<path class="bond-5 atom-5 atom-6" d="M 88.4,74.9 L 88.8,76.1 L 95.5,74.3 Z" style="fill:#0000FF;fill-rule:evenodd;fill-opacity:1;stroke:#0000FF;stroke-width:0.5px;stroke-linecap:butt;stroke-linejoin:miter;stroke-opacity:1;"/>
<path class="bond-6 atom-6 atom-7" d="M 100.4,74.0 L 105.7,78.4" style="fill:none;fill-rule:evenodd;stroke:#0000FF;stroke-width:2.0px;stroke-linecap:butt;stroke-linejoin:miter;stroke-opacity:1"/>
<path class="bond-6 atom-6 atom-7" d="M 105.7,78.4 L 111.0,82.8" style="fill:none;fill-rule:evenodd;stroke:#000000;stroke-width:2.0px;stroke-linecap:butt;stroke-linejoin:miter;stroke-opacity:1"/>
<path class="bond-7 atom-7 atom-8" d="M 109.9,81.9 L 108.7,89.1" style="fill:none;fill-rule:evenodd;stroke:#000000;stroke-width:2.0px;stroke-linecap:butt;stroke-linejoin:miter;stroke-opacity:1"/>
<path class="bond-7 atom-7 atom-8" d="M 108.7,89.1 L 107.4,96.3" style="fill:none;fill-rule:evenodd;stroke:#FF0000;stroke-width:2.0px;stroke-linecap:butt;stroke-linejoin:miter;stroke-opacity:1"/>
<path class="bond-7 atom-7 atom-8" d="M 112.4,82.3 L 111.2,89.5" style="fill:none;fill-rule:evenodd;stroke:#000000;stroke-width:2.0px;stroke-linecap:butt;stroke-linejoin:miter;stroke-opacity:1"/>
<path class="bond-7 atom-7 atom-8" d="M 111.2,89.5 L 109.9,96.7" style="fill:none;fill-rule:evenodd;stroke:#FF0000;stroke-width:2.0px;stroke-linecap:butt;stroke-linejoin:miter;stroke-opacity:1"/>
<path class="bond-8 atom-7 atom-9" d="M 111.0,82.8 L 126.9,76.9" style="fill:none;fill-rule:evenodd;stroke:#000000;stroke-width:2.0px;stroke-linecap:butt;stroke-linejoin:miter;stroke-opacity:1"/>
<path class="bond-9 atom-9 atom-10" d="M 127.1,73.6 L 127.8,73.7" style="fill:none;fill-rule:evenodd;stroke:#000000;stroke-width:1.0px;stroke-linecap:butt;stroke-linejoin:miter;stroke-opacity:1"/>
<path class="bond-9 atom-9 atom-10" d="M 127.4,70.2 L 128.6,70.4" style="fill:none;fill-rule:evenodd;stroke:#000000;stroke-width:1.0px;stroke-linecap:butt;stroke-linejoin:miter;stroke-opacity:1"/>
<path class="bond-9 atom-9 atom-10" d="M 127.6,66.9 L 129.5,67.2" style="fill:none;fill-rule:evenodd;stroke:#0000FF;stroke-width:1.0px;stroke-linecap:butt;stroke-linejoin:miter;stroke-opacity:1"/>
<path class="bond-9 atom-9 atom-10" d="M 127.9,63.5 L 130.4,64.0" style="fill:none;fill-rule:evenodd;stroke:#0000FF;stroke-width:1.0px;stroke-linecap:butt;stroke-linejoin:miter;stroke-opacity:1"/>
<path class="bond-10 atom-9 atom-11" d="M 126.9,76.9 L 139.9,87.7" style="fill:none;fill-rule:evenodd;stroke:#000000;stroke-width:2.0px;stroke-linecap:butt;stroke-linejoin:miter;stroke-opacity:1"/>
<path class="bond-11 atom-11 atom-12" d="M 139.9,87.7 L 137.1,104.4" style="fill:none;fill-rule:evenodd;stroke:#000000;stroke-width:2.0px;stroke-linecap:butt;stroke-linejoin:miter;stroke-opacity:1"/>
<path class="bond-11 atom-11 atom-12" d="M 142.2,89.6 L 139.8,103.4" style="fill:none;fill-rule:evenodd;stroke:#000000;stroke-width:2.0px;stroke-linecap:butt;stroke-linejoin:miter;stroke-opacity:1"/>
<path class="bond-12 atom-12 atom-13" d="M 137.1,104.4 L 150.1,115.2" style="fill:none;fill-rule:evenodd;stroke:#000000;stroke-width:2.0px;stroke-linecap:butt;stroke-linejoin:miter;stroke-opacity:1"/>
<path class="bond-13 atom-13 atom-14" d="M 150.1,115.2 L 166.0,109.4" style="fill:none;fill-rule:evenodd;stroke:#000000;stroke-width:2.0px;stroke-linecap:butt;stroke-linejoin:miter;stroke-opacity:1"/>
<path class="bond-13 atom-13 atom-14" d="M 150.6,112.3 L 163.7,107.5" style="fill:none;fill-rule:evenodd;stroke:#000000;stroke-width:2.0px;stroke-linecap:butt;stroke-linejoin:miter;stroke-opacity:1"/>
<path class="bond-14 atom-14 atom-15" d="M 166.0,109.4 L 171.1,113.6" style="fill:none;fill-rule:evenodd;stroke:#000000;stroke-width:2.0px;stroke-linecap:butt;stroke-linejoin:miter;stroke-opacity:1"/>
<path class="bond-14 atom-14 atom-15" d="M 171.1,113.6 L 176.2,117.9" style="fill:none;fill-rule:evenodd;stroke:#FF0000;stroke-width:2.0px;stroke-linecap:butt;stroke-linejoin:miter;stroke-opacity:1"/>
<path class="bond-15 atom-14 atom-16" d="M 166.0,109.4 L 168.8,92.7" style="fill:none;fill-rule:evenodd;stroke:#000000;stroke-width:2.0px;stroke-linecap:butt;stroke-linejoin:miter;stroke-opacity:1"/>
<path class="bond-16 atom-16 atom-17" d="M 168.8,92.7 L 155.8,81.9" style="fill:none;fill-rule:evenodd;stroke:#000000;stroke-width:2.0px;stroke-linecap:butt;stroke-linejoin:miter;stroke-opacity:1"/>
<path class="bond-16 atom-16 atom-17" d="M 166.1,93.7 L 155.3,84.7" style="fill:none;fill-rule:evenodd;stroke:#000000;stroke-width:2.0px;stroke-linecap:butt;stroke-linejoin:miter;stroke-opacity:1"/>
<path class="bond-17 atom-5 atom-18" d="M 82.1,77.9 L 66.7,70.8" style="fill:none;fill-rule:evenodd;stroke:#000000;stroke-width:2.0px;stroke-linecap:butt;stroke-linejoin:miter;stroke-opacity:1"/>
<path class="bond-18 atom-18 atom-19" d="M 68.4,71.5 L 65.8,64.5" style="fill:none;fill-rule:evenodd;stroke:#000000;stroke-width:2.0px;stroke-linecap:butt;stroke-linejoin:miter;stroke-opacity:1"/>
<path class="bond-18 atom-18 atom-19" d="M 65.8,64.5 L 63.2,57.5" style="fill:none;fill-rule:evenodd;stroke:#FF0000;stroke-width:2.0px;stroke-linecap:butt;stroke-linejoin:miter;stroke-opacity:1"/>
<path class="bond-18 atom-18 atom-19" d="M 66.0,72.4 L 63.4,65.4" style="fill:none;fill-rule:evenodd;stroke:#000000;stroke-width:2.0px;stroke-linecap:butt;stroke-linejoin:miter;stroke-opacity:1"/>
<path class="bond-18 atom-18 atom-19" d="M 63.4,65.4 L 60.8,58.4" style="fill:none;fill-rule:evenodd;stroke:#FF0000;stroke-width:2.0px;stroke-linecap:butt;stroke-linejoin:miter;stroke-opacity:1"/>
<path class="bond-19 atom-18 atom-20" d="M 66.7,70.8 L 63.9,77.0" style="fill:none;fill-rule:evenodd;stroke:#000000;stroke-width:2.0px;stroke-linecap:butt;stroke-linejoin:miter;stroke-opacity:1"/>
<path class="bond-19 atom-18 atom-20" d="M 63.9,77.0 L 61.0,83.2" style="fill:none;fill-rule:evenodd;stroke:#0000FF;stroke-width:2.0px;stroke-linecap:butt;stroke-linejoin:miter;stroke-opacity:1"/>
<path class="bond-20 atom-20 atom-21" d="M 57.3,88.7 L 52.7,93.7" style="fill:none;fill-rule:evenodd;stroke:#0000FF;stroke-width:2.0px;stroke-linecap:butt;stroke-linejoin:miter;stroke-opacity:1"/>
<path class="bond-20 atom-20 atom-21" d="M 52.7,93.7 L 48.2,98.6" style="fill:none;fill-rule:evenodd;stroke:#000000;stroke-width:2.0px;stroke-linecap:butt;stroke-linejoin:miter;stroke-opacity:1"/>
<path class="bond-21 atom-21 atom-22" d="M 44.9,97.9 L 44.8,98.5" style="fill:none;fill-rule:evenodd;stroke:#000000;stroke-width:1.0px;stroke-linecap:butt;stroke-linejoin:miter;stroke-opacity:1"/>
<path class="bond-21 atom-21 atom-22" d="M 41.5,97.2 L 41.4,98.4" style="fill:none;fill-rule:evenodd;stroke:#000000;stroke-width:1.0px;stroke-linecap:butt;stroke-linejoin:miter;stroke-opacity:1"/>
<path class="bond-21 atom-21 atom-22" d="M 38.2,96.5 L 38.0,98.4" style="fill:none;fill-rule:evenodd;stroke:#000000;stroke-width:1.0px;stroke-linecap:butt;stroke-linejoin:miter;stroke-opacity:1"/>
<path class="bond-21 atom-21 atom-22" d="M 34.9,95.8 L 34.6,98.3" style="fill:none;fill-rule:evenodd;stroke:#000000;stroke-width:1.0px;stroke-linecap:butt;stroke-linejoin:miter;stroke-opacity:1"/>
<path class="bond-22 atom-22 atom-23" d="M 32.8,96.8 L 30.0,90.2" style="fill:none;fill-rule:evenodd;stroke:#000000;stroke-width:2.0px;stroke-linecap:butt;stroke-linejoin:miter;stroke-opacity:1"/>
<path class="bond-22 atom-22 atom-23" d="M 30.0,90.2 L 27.2,83.6" style="fill:none;fill-rule:evenodd;stroke:#FF0000;stroke-width:2.0px;stroke-linecap:butt;stroke-linejoin:miter;stroke-opacity:1"/>
<path class="bond-22 atom-22 atom-23" d="M 30.5,97.8 L 27.7,91.2" style="fill:none;fill-rule:evenodd;stroke:#000000;stroke-width:2.0px;stroke-linecap:butt;stroke-linejoin:miter;stroke-opacity:1"/>
<path class="bond-22 atom-22 atom-23" d="M 27.7,91.2 L 24.8,84.6" style="fill:none;fill-rule:evenodd;stroke:#FF0000;stroke-width:2.0px;stroke-linecap:butt;stroke-linejoin:miter;stroke-opacity:1"/>
<path class="bond-23 atom-22 atom-24" d="M 31.4,96.6 L 27.4,101.9" style="fill:none;fill-rule:evenodd;stroke:#000000;stroke-width:2.0px;stroke-linecap:butt;stroke-linejoin:miter;stroke-opacity:1"/>
<path class="bond-23 atom-22 atom-24" d="M 27.4,101.9 L 23.5,107.2" style="fill:none;fill-rule:evenodd;stroke:#FF0000;stroke-width:2.0px;stroke-linecap:butt;stroke-linejoin:miter;stroke-opacity:1"/>
<path class="bond-24 atom-21 atom-1" d="M 48.2,98.6 L 56.5,113.4" style="fill:none;fill-rule:evenodd;stroke:#000000;stroke-width:2.0px;stroke-linecap:butt;stroke-linejoin:miter;stroke-opacity:1"/>
<path class="bond-25 atom-20 atom-4" d="M 62.0,87.3 L 68.5,90.2" style="fill:none;fill-rule:evenodd;stroke:#0000FF;stroke-width:2.0px;stroke-linecap:butt;stroke-linejoin:miter;stroke-opacity:1"/>
<path class="bond-25 atom-20 atom-4" d="M 68.5,90.2 L 75.0,93.2" style="fill:none;fill-rule:evenodd;stroke:#000000;stroke-width:2.0px;stroke-linecap:butt;stroke-linejoin:miter;stroke-opacity:1"/>
<path class="bond-26 atom-17 atom-11" d="M 155.8,81.9 L 139.9,87.7" style="fill:none;fill-rule:evenodd;stroke:#000000;stroke-width:2.0px;stroke-linecap:butt;stroke-linejoin:miter;stroke-opacity:1"/>
<path class="bond-27 atom-4 atom-25" d="M 78.5,93.9 L 78.3,94.5" style="fill:none;fill-rule:evenodd;stroke:#000000;stroke-width:1.0px;stroke-linecap:butt;stroke-linejoin:miter;stroke-opacity:1"/>
<path class="bond-27 atom-4 atom-25" d="M 81.9,94.5 L 81.5,95.7" style="fill:none;fill-rule:evenodd;stroke:#000000;stroke-width:1.0px;stroke-linecap:butt;stroke-linejoin:miter;stroke-opacity:1"/>
<path class="bond-27 atom-4 atom-25" d="M 85.3,95.1 L 84.8,97.0" style="fill:none;fill-rule:evenodd;stroke:#000000;stroke-width:1.0px;stroke-linecap:butt;stroke-linejoin:miter;stroke-opacity:1"/>
<path class="bond-27 atom-4 atom-25" d="M 88.7,95.7 L 88.0,98.2" style="fill:none;fill-rule:evenodd;stroke:#000000;stroke-width:1.0px;stroke-linecap:butt;stroke-linejoin:miter;stroke-opacity:1"/>
<path d="M 81.8,78.6 L 82.1,77.9 L 81.3,77.5" style="fill:none;stroke:#000000;stroke-width:2.0px;stroke-linecap:butt;stroke-linejoin:miter;stroke-opacity:1;"/>
<path d="M 110.7,82.6 L 111.0,82.8 L 111.8,82.5" style="fill:none;stroke:#000000;stroke-width:2.0px;stroke-linecap:butt;stroke-linejoin:miter;stroke-opacity:1;"/>
<path d="M 126.1,77.2 L 126.9,76.9 L 127.5,77.5" style="fill:none;stroke:#000000;stroke-width:2.0px;stroke-linecap:butt;stroke-linejoin:miter;stroke-opacity:1;"/>
<path d="M 137.2,103.6 L 137.1,104.4 L 137.7,105.0" style="fill:none;stroke:#000000;stroke-width:2.0px;stroke-linecap:butt;stroke-linejoin:miter;stroke-opacity:1;"/>
<path d="M 149.4,114.7 L 150.1,115.2 L 150.9,114.9" style="fill:none;stroke:#000000;stroke-width:2.0px;stroke-linecap:butt;stroke-linejoin:miter;stroke-opacity:1;"/>
<path d="M 168.7,93.5 L 168.8,92.7 L 168.2,92.1" style="fill:none;stroke:#000000;stroke-width:2.0px;stroke-linecap:butt;stroke-linejoin:miter;stroke-opacity:1;"/>
<path d="M 156.4,82.4 L 155.8,81.9 L 155.0,82.2" style="fill:none;stroke:#000000;stroke-width:2.0px;stroke-linecap:butt;stroke-linejoin:miter;stroke-opacity:1;"/>
<path d="M 67.5,71.1 L 66.7,70.8 L 66.6,71.1" style="fill:none;stroke:#000000;stroke-width:2.0px;stroke-linecap:butt;stroke-linejoin:miter;stroke-opacity:1;"/>
<path d="M 48.4,98.4 L 48.2,98.6 L 48.6,99.3" style="fill:none;stroke:#000000;stroke-width:2.0px;stroke-linecap:butt;stroke-linejoin:miter;stroke-opacity:1;"/>
<path class="atom-3" d="M 71.7 111.7 Q 71.8 111.7, 72.0 111.8 Q 72.2 111.9, 72.5 112.0 Q 72.7 112.0, 72.9 112.0 Q 73.4 112.0, 73.7 111.8 Q 73.9 111.6, 73.9 111.2 Q 73.9 110.9, 73.8 110.8 Q 73.7 110.6, 73.5 110.5 Q 73.3 110.4, 72.9 110.3 Q 72.5 110.2, 72.2 110.1 Q 72.0 109.9, 71.8 109.7 Q 71.6 109.4, 71.6 109.0 Q 71.6 108.4, 72.0 108.0 Q 72.4 107.7, 73.3 107.7 Q 73.8 107.7, 74.4 107.9 L 74.3 108.4 Q 73.7 108.2, 73.3 108.2 Q 72.8 108.2, 72.6 108.4 Q 72.3 108.6, 72.3 108.9 Q 72.3 109.2, 72.4 109.3 Q 72.6 109.5, 72.8 109.6 Q 73.0 109.7, 73.3 109.8 Q 73.7 109.9, 74.0 110.0 Q 74.2 110.2, 74.4 110.4 Q 74.6 110.7, 74.6 111.2 Q 74.6 111.9, 74.2 112.2 Q 73.7 112.6, 73.0 112.6 Q 72.5 112.6, 72.2 112.5 Q 71.9 112.4, 71.5 112.2 L 71.7 111.7 " fill="#CCCC00"/>
<path class="atom-6" d="M 96.9 69.6 L 98.5 72.1 Q 98.7 72.4, 98.9 72.8 Q 99.2 73.3, 99.2 73.3 L 99.2 69.6 L 99.8 69.6 L 99.8 74.4 L 99.1 74.4 L 97.5 71.6 Q 97.3 71.3, 97.1 70.9 Q 96.9 70.5, 96.8 70.4 L 96.8 74.4 L 96.2 74.4 L 96.2 69.6 L 96.9 69.6 " fill="#0000FF"/>
<path class="atom-6" d="M 96.1 64.3 L 96.8 64.3 L 96.8 66.3 L 99.2 66.3 L 99.2 64.3 L 99.9 64.3 L 99.9 69.1 L 99.2 69.1 L 99.2 66.9 L 96.8 66.9 L 96.8 69.1 L 96.1 69.1 L 96.1 64.3 " fill="#0000FF"/>
<path class="atom-8" d="M 106.0 99.5 Q 106.0 98.3, 106.5 97.7 Q 107.1 97.1, 108.2 97.1 Q 109.2 97.1, 109.8 97.7 Q 110.4 98.3, 110.4 99.5 Q 110.4 100.7, 109.8 101.3 Q 109.2 102.0, 108.2 102.0 Q 107.1 102.0, 106.5 101.3 Q 106.0 100.7, 106.0 99.5 M 108.2 101.4 Q 108.9 101.4, 109.3 100.9 Q 109.7 100.5, 109.7 99.5 Q 109.7 98.6, 109.3 98.1 Q 108.9 97.6, 108.2 97.6 Q 107.4 97.6, 107.0 98.1 Q 106.6 98.5, 106.6 99.5 Q 106.6 100.5, 107.0 100.9 Q 107.4 101.4, 108.2 101.4 " fill="#FF0000"/>
<path class="atom-10" d="M 128.7 57.8 L 130.3 60.4 Q 130.4 60.6, 130.7 61.1 Q 130.9 61.5, 130.9 61.6 L 130.9 57.8 L 131.6 57.8 L 131.6 62.6 L 130.9 62.6 L 129.2 59.9 Q 129.0 59.5, 128.8 59.2 Q 128.6 58.8, 128.5 58.7 L 128.5 62.6 L 127.9 62.6 L 127.9 57.8 L 128.7 57.8 " fill="#0000FF"/>
<path class="atom-10" d="M 132.5 57.8 L 133.1 57.8 L 133.1 59.9 L 135.6 59.9 L 135.6 57.8 L 136.2 57.8 L 136.2 62.6 L 135.6 62.6 L 135.6 60.4 L 133.1 60.4 L 133.1 62.6 L 132.5 62.6 L 132.5 57.8 " fill="#0000FF"/>
<path class="atom-10" d="M 137.2 62.5 Q 137.3 62.2, 137.6 62.0 Q 137.8 61.8, 138.2 61.8 Q 138.7 61.8, 139.0 62.1 Q 139.2 62.3, 139.2 62.8 Q 139.2 63.3, 138.9 63.7 Q 138.5 64.2, 137.8 64.7 L 139.3 64.7 L 139.3 65.0 L 137.2 65.0 L 137.2 64.7 Q 137.7 64.3, 138.1 64.0 Q 138.4 63.7, 138.6 63.4 Q 138.8 63.1, 138.8 62.8 Q 138.8 62.5, 138.6 62.4 Q 138.5 62.2, 138.2 62.2 Q 138.0 62.2, 137.8 62.3 Q 137.6 62.4, 137.5 62.6 L 137.2 62.5 " fill="#0000FF"/>
<path class="atom-15" d="M 176.8 120.2 Q 176.8 119.0, 177.4 118.4 Q 177.9 117.7, 179.0 117.7 Q 180.0 117.7, 180.6 118.4 Q 181.2 119.0, 181.2 120.2 Q 181.2 121.3, 180.6 122.0 Q 180.0 122.7, 179.0 122.7 Q 177.9 122.7, 177.4 122.0 Q 176.8 121.4, 176.8 120.2 M 179.0 122.1 Q 179.7 122.1, 180.1 121.6 Q 180.5 121.1, 180.5 120.2 Q 180.5 119.2, 180.1 118.8 Q 179.7 118.3, 179.0 118.3 Q 178.3 118.3, 177.9 118.8 Q 177.5 119.2, 177.5 120.2 Q 177.5 121.2, 177.9 121.6 Q 178.3 122.1, 179.0 122.1 " fill="#FF0000"/>
<path class="atom-15" d="M 181.9 117.8 L 182.6 117.8 L 182.6 119.8 L 185.0 119.8 L 185.0 117.8 L 185.7 117.8 L 185.7 122.6 L 185.0 122.6 L 185.0 120.4 L 182.6 120.4 L 182.6 122.6 L 181.9 122.6 L 181.9 117.8 " fill="#FF0000"/>
<path class="atom-19" d="M 58.7 54.9 Q 58.7 53.8, 59.2 53.1 Q 59.8 52.5, 60.9 52.5 Q 61.9 52.5, 62.5 53.1 Q 63.1 53.8, 63.1 54.9 Q 63.1 56.1, 62.5 56.7 Q 61.9 57.4, 60.9 57.4 Q 59.8 57.4, 59.2 56.7 Q 58.7 56.1, 58.7 54.9 M 60.9 56.9 Q 61.6 56.9, 62.0 56.4 Q 62.4 55.9, 62.4 54.9 Q 62.4 54.0, 62.0 53.5 Q 61.6 53.0, 60.9 53.0 Q 60.1 53.0, 59.7 53.5 Q 59.3 54.0, 59.3 54.9 Q 59.3 55.9, 59.7 56.4 Q 60.1 56.9, 60.9 56.9 " fill="#FF0000"/>
<path class="atom-20" d="M 58.6 83.8 L 60.2 86.3 Q 60.3 86.6, 60.6 87.0 Q 60.8 87.5, 60.8 87.5 L 60.8 83.8 L 61.5 83.8 L 61.5 88.6 L 60.8 88.6 L 59.1 85.8 Q 58.9 85.5, 58.7 85.1 Q 58.5 84.7, 58.5 84.6 L 58.5 88.6 L 57.8 88.6 L 57.8 83.8 L 58.6 83.8 " fill="#0000FF"/>
<path class="atom-23" d="M 22.5 81.1 Q 22.5 79.9, 23.0 79.3 Q 23.6 78.7, 24.7 78.7 Q 25.7 78.7, 26.3 79.3 Q 26.9 79.9, 26.9 81.1 Q 26.9 82.3, 26.3 82.9 Q 25.7 83.6, 24.7 83.6 Q 23.6 83.6, 23.0 82.9 Q 22.5 82.3, 22.5 81.1 M 24.7 83.0 Q 25.4 83.0, 25.8 82.5 Q 26.2 82.1, 26.2 81.1 Q 26.2 80.1, 25.8 79.7 Q 25.4 79.2, 24.7 79.2 Q 23.9 79.2, 23.5 79.7 Q 23.1 80.1, 23.1 81.1 Q 23.1 82.1, 23.5 82.5 Q 23.9 83.0, 24.7 83.0 " fill="#FF0000"/>
<path class="atom-24" d="M 14.3 107.8 L 15.0 107.8 L 15.0 109.9 L 17.4 109.9 L 17.4 107.8 L 18.1 107.8 L 18.1 112.6 L 17.4 112.6 L 17.4 110.4 L 15.0 110.4 L 15.0 112.6 L 14.3 112.6 L 14.3 107.8 " fill="#FF0000"/>
<path class="atom-24" d="M 19.1 110.2 Q 19.1 109.1, 19.6 108.4 Q 20.2 107.8, 21.3 107.8 Q 22.3 107.8, 22.9 108.4 Q 23.5 109.1, 23.5 110.2 Q 23.5 111.4, 22.9 112.0 Q 22.3 112.7, 21.3 112.7 Q 20.2 112.7, 19.6 112.0 Q 19.1 111.4, 19.1 110.2 M 21.3 112.2 Q 22.0 112.2, 22.4 111.7 Q 22.8 111.2, 22.8 110.2 Q 22.8 109.3, 22.4 108.8 Q 22.0 108.3, 21.3 108.3 Q 20.5 108.3, 20.1 108.8 Q 19.7 109.3, 19.7 110.2 Q 19.7 111.2, 20.1 111.7 Q 20.5 112.2, 21.3 112.2 " fill="#FF0000"/>
<path class="atom-25" d="M 89.5 95.4 L 90.1 95.4 L 90.1 97.5 L 92.6 97.5 L 92.6 95.4 L 93.2 95.4 L 93.2 100.2 L 92.6 100.2 L 92.6 98.0 L 90.1 98.0 L 90.1 100.2 L 89.5 100.2 L 89.5 95.4 " fill="#000000"/>
<path class="legend" d="M 61.5 189.8 L 60.3 186.5 L 55.8 186.5 L 54.7 189.8 L 53.2 189.8 L 57.1 178.5 L 58.9 178.5 L 63.0 189.8 L 61.5 189.8 M 56.3 185.2 L 59.9 185.2 L 58.0 180.1 L 56.3 185.2 " fill="#000000"/>
<path class="legend" d="M 76.8 189.8 L 75.4 189.8 L 74.2 180.6 L 71.1 189.8 L 69.6 189.8 L 66.5 180.6 L 65.4 189.8 L 63.9 189.8 L 65.3 178.5 L 67.2 178.5 L 70.4 187.6 L 73.5 178.5 L 75.4 178.5 L 76.8 189.8 " fill="#000000"/>
<path class="legend" d="M 78.6 184.1 Q 78.6 181.4, 79.9 179.9 Q 81.3 178.4, 83.8 178.4 Q 86.3 178.4, 87.7 179.9 Q 89.0 181.4, 89.0 184.1 Q 89.0 186.9, 87.6 188.4 Q 86.3 190.0, 83.8 190.0 Q 81.3 190.0, 79.9 188.4 Q 78.6 186.9, 78.6 184.1 M 83.8 188.7 Q 85.5 188.7, 86.5 187.6 Q 87.4 186.4, 87.4 184.1 Q 87.4 181.9, 86.5 180.8 Q 85.5 179.6, 83.8 179.6 Q 82.1 179.6, 81.1 180.8 Q 80.2 181.9, 80.2 184.1 Q 80.2 186.4, 81.1 187.6 Q 82.1 188.7, 83.8 188.7 " fill="#000000"/>
<path class="legend" d="M 100.7 189.8 L 99.0 189.8 L 95.6 185.1 L 92.3 189.8 L 90.5 189.8 L 94.7 183.9 L 90.8 178.5 L 92.6 178.5 L 95.7 182.8 L 98.7 178.5 L 100.5 178.5 L 96.6 184.0 L 100.7 189.8 " fill="#000000"/>
<path class="legend" d="M 101.5 178.4 L 103.0 178.4 L 103.0 189.8 L 101.5 189.8 L 101.5 178.4 " fill="#000000"/>
<path class="legend" d="M 105.1 184.1 Q 105.1 181.3, 106.5 179.9 Q 107.8 178.4, 110.3 178.4 Q 112.6 178.4, 113.9 180.0 L 112.8 180.9 Q 111.9 179.7, 110.3 179.7 Q 108.6 179.7, 107.7 180.8 Q 106.8 182.0, 106.8 184.1 Q 106.8 186.4, 107.7 187.5 Q 108.6 188.7, 110.5 188.7 Q 111.7 188.7, 113.2 187.9 L 113.6 189.1 Q 113.0 189.5, 112.1 189.7 Q 111.2 190.0, 110.2 190.0 Q 107.8 190.0, 106.5 188.5 Q 105.1 187.0, 105.1 184.1 " fill="#000000"/>
<path class="legend" d="M 115.2 178.4 L 116.8 178.4 L 116.8 189.8 L 115.2 189.8 L 115.2 178.4 " fill="#000000"/>
<path class="legend" d="M 118.9 178.5 L 120.4 178.5 L 120.4 188.5 L 125.6 188.5 L 125.6 189.8 L 118.9 189.8 L 118.9 178.5 " fill="#000000"/>
<path class="legend" d="M 126.7 178.5 L 128.3 178.5 L 128.3 188.5 L 133.5 188.5 L 133.5 189.8 L 126.7 189.8 L 126.7 178.5 " fill="#000000"/>
<path class="legend" d="M 134.6 178.4 L 136.1 178.4 L 136.1 189.8 L 134.6 189.8 L 134.6 178.4 " fill="#000000"/>
<path class="legend" d="M 140.0 178.5 L 143.8 184.5 Q 144.1 185.1, 144.7 186.2 Q 145.3 187.2, 145.3 187.3 L 145.3 178.5 L 146.8 178.5 L 146.8 189.8 L 145.3 189.8 L 141.3 183.3 Q 140.8 182.5, 140.4 181.6 Q 139.9 180.7, 139.7 180.5 L 139.7 189.8 L 138.3 189.8 L 138.3 178.5 L 140.0 178.5 " fill="#000000"/>
<path class="bond-0 atom-0 atom-1" d="M 259.8,129.5 L 254.8,113.4" style="fill:none;fill-rule:evenodd;stroke:#000000;stroke-width:2.0px;stroke-linecap:butt;stroke-linejoin:miter;stroke-opacity:1"/>
<path class="bond-1 atom-1 atom-2" d="M 254.8,113.4 L 239.2,120.1" style="fill:none;fill-rule:evenodd;stroke:#000000;stroke-width:2.0px;stroke-linecap:butt;stroke-linejoin:miter;stroke-opacity:1"/>
<path class="bond-2 atom-1 atom-3" d="M 254.8,113.4 L 262.0,111.9" style="fill:none;fill-rule:evenodd;stroke:#000000;stroke-width:2.0px;stroke-linecap:butt;stroke-linejoin:miter;stroke-opacity:1"/>
<path class="bond-2 atom-1 atom-3" d="M 262.0,111.9 L 269.3,110.5" style="fill:none;fill-rule:evenodd;stroke:#CCCC00;stroke-width:2.0px;stroke-linecap:butt;stroke-linejoin:miter;stroke-opacity:1"/>
<path class="bond-3 atom-3 atom-4" d="M 271.7,107.1 L 272.5,100.2" style="fill:none;fill-rule:evenodd;stroke:#CCCC00;stroke-width:2.0px;stroke-linecap:butt;stroke-linejoin:miter;stroke-opacity:1"/>
<path class="bond-3 atom-3 atom-4" d="M 272.5,100.2 L 273.3,93.2" style="fill:none;fill-rule:evenodd;stroke:#000000;stroke-width:2.0px;stroke-linecap:butt;stroke-linejoin:miter;stroke-opacity:1"/>
<path class="bond-4 atom-4 atom-5" d="M 273.3,93.2 L 280.4,77.8" style="fill:none;fill-rule:evenodd;stroke:#000000;stroke-width:2.0px;stroke-linecap:butt;stroke-linejoin:miter;stroke-opacity:1"/>
<path class="bond-5 atom-5 atom-6" d="M 280.4,77.8 L 287.1,75.3" style="fill:none;fill-rule:evenodd;stroke:#000000;stroke-width:2.0px;stroke-linecap:butt;stroke-linejoin:miter;stroke-opacity:1"/>
<path class="bond-5 atom-5 atom-6" d="M 287.1,75.3 L 293.9,72.8" style="fill:none;fill-rule:evenodd;stroke:#0000FF;stroke-width:2.0px;stroke-linecap:butt;stroke-linejoin:miter;stroke-opacity:1"/>
<path class="bond-6 atom-6 atom-7" d="M 298.6,73.9 L 304.0,78.4" style="fill:none;fill-rule:evenodd;stroke:#0000FF;stroke-width:2.0px;stroke-linecap:butt;stroke-linejoin:miter;stroke-opacity:1"/>
<path class="bond-6 atom-6 atom-7" d="M 304.0,78.4 L 309.3,82.8" style="fill:none;fill-rule:evenodd;stroke:#000000;stroke-width:2.0px;stroke-linecap:butt;stroke-linejoin:miter;stroke-opacity:1"/>
<path class="bond-7 atom-7 atom-8" d="M 308.2,81.8 L 306.9,89.1" style="fill:none;fill-rule:evenodd;stroke:#000000;stroke-width:2.0px;stroke-linecap:butt;stroke-linejoin:miter;stroke-opacity:1"/>
<path class="bond-7 atom-7 atom-8" d="M 306.9,89.1 L 305.7,96.3" style="fill:none;fill-rule:evenodd;stroke:#FF0000;stroke-width:2.0px;stroke-linecap:butt;stroke-linejoin:miter;stroke-opacity:1"/>
<path class="bond-7 atom-7 atom-8" d="M 310.7,82.3 L 309.4,89.5" style="fill:none;fill-rule:evenodd;stroke:#000000;stroke-width:2.0px;stroke-linecap:butt;stroke-linejoin:miter;stroke-opacity:1"/>
<path class="bond-7 atom-7 atom-8" d="M 309.4,89.5 L 308.2,96.7" style="fill:none;fill-rule:evenodd;stroke:#FF0000;stroke-width:2.0px;stroke-linecap:butt;stroke-linejoin:miter;stroke-opacity:1"/>
<path class="bond-8 atom-7 atom-9" d="M 309.3,82.8 L 325.2,76.9" style="fill:none;fill-rule:evenodd;stroke:#000000;stroke-width:2.0px;stroke-linecap:butt;stroke-linejoin:miter;stroke-opacity:1"/>
<path class="bond-9 atom-9 atom-10" d="M 325.2,76.9 L 326.3,70.0" style="fill:none;fill-rule:evenodd;stroke:#000000;stroke-width:2.0px;stroke-linecap:butt;stroke-linejoin:miter;stroke-opacity:1"/>
<path class="bond-9 atom-9 atom-10" d="M 326.3,70.0 L 327.5,63.2" style="fill:none;fill-rule:evenodd;stroke:#0000FF;stroke-width:2.0px;stroke-linecap:butt;stroke-linejoin:miter;stroke-opacity:1"/>
<path class="bond-10 atom-9 atom-11" d="M 325.2,76.9 L 338.2,87.7" style="fill:none;fill-rule:evenodd;stroke:#000000;stroke-width:2.0px;stroke-linecap:butt;stroke-linejoin:miter;stroke-opacity:1"/>
<path class="bond-11 atom-11 atom-12" d="M 338.2,87.7 L 335.4,104.4" style="fill:none;fill-rule:evenodd;stroke:#000000;stroke-width:2.0px;stroke-linecap:butt;stroke-linejoin:miter;stroke-opacity:1"/>
<path class="bond-11 atom-11 atom-12" d="M 340.5,89.6 L 338.1,103.4" style="fill:none;fill-rule:evenodd;stroke:#000000;stroke-width:2.0px;stroke-linecap:butt;stroke-linejoin:miter;stroke-opacity:1"/>
<path class="bond-12 atom-12 atom-13" d="M 335.4,104.4 L 348.4,115.2" style="fill:none;fill-rule:evenodd;stroke:#000000;stroke-width:2.0px;stroke-linecap:butt;stroke-linejoin:miter;stroke-opacity:1"/>
<path class="bond-13 atom-13 atom-14" d="M 348.4,115.2 L 364.3,109.3" style="fill:none;fill-rule:evenodd;stroke:#000000;stroke-width:2.0px;stroke-linecap:butt;stroke-linejoin:miter;stroke-opacity:1"/>
<path class="bond-13 atom-13 atom-14" d="M 348.9,112.3 L 362.0,107.5" style="fill:none;fill-rule:evenodd;stroke:#000000;stroke-width:2.0px;stroke-linecap:butt;stroke-linejoin:miter;stroke-opacity:1"/>
<path class="bond-14 atom-14 atom-15" d="M 364.3,109.3 L 369.4,113.6" style="fill:none;fill-rule:evenodd;stroke:#000000;stroke-width:2.0px;stroke-linecap:butt;stroke-linejoin:miter;stroke-opacity:1"/>
<path class="bond-14 atom-14 atom-15" d="M 369.4,113.6 L 374.5,117.8" style="fill:none;fill-rule:evenodd;stroke:#FF0000;stroke-width:2.0px;stroke-linecap:butt;stroke-linejoin:miter;stroke-opacity:1"/>
<path class="bond-15 atom-14 atom-16" d="M 364.3,109.3 L 367.1,92.6" style="fill:none;fill-rule:evenodd;stroke:#000000;stroke-width:2.0px;stroke-linecap:butt;stroke-linejoin:miter;stroke-opacity:1"/>
<path class="bond-16 atom-16 atom-17" d="M 367.1,92.6 L 354.1,81.8" style="fill:none;fill-rule:evenodd;stroke:#000000;stroke-width:2.0px;stroke-linecap:butt;stroke-linejoin:miter;stroke-opacity:1"/>
<path class="bond-16 atom-16 atom-17" d="M 364.4,93.7 L 353.6,84.7" style="fill:none;fill-rule:evenodd;stroke:#000000;stroke-width:2.0px;stroke-linecap:butt;stroke-linejoin:miter;stroke-opacity:1"/>
<path class="bond-17 atom-5 atom-18" d="M 280.4,77.8 L 265.0,70.8" style="fill:none;fill-rule:evenodd;stroke:#000000;stroke-width:2.0px;stroke-linecap:butt;stroke-linejoin:miter;stroke-opacity:1"/>
<path class="bond-18 atom-18 atom-19" d="M 266.6,71.5 L 264.1,64.5" style="fill:none;fill-rule:evenodd;stroke:#000000;stroke-width:2.0px;stroke-linecap:butt;stroke-linejoin:miter;stroke-opacity:1"/>
<path class="bond-18 atom-18 atom-19" d="M 264.1,64.5 L 261.5,57.5" style="fill:none;fill-rule:evenodd;stroke:#FF0000;stroke-width:2.0px;stroke-linecap:butt;stroke-linejoin:miter;stroke-opacity:1"/>
<path class="bond-18 atom-18 atom-19" d="M 264.3,72.4 L 261.7,65.4" style="fill:none;fill-rule:evenodd;stroke:#000000;stroke-width:2.0px;stroke-linecap:butt;stroke-linejoin:miter;stroke-opacity:1"/>
<path class="bond-18 atom-18 atom-19" d="M 261.7,65.4 L 259.1,58.4" style="fill:none;fill-rule:evenodd;stroke:#FF0000;stroke-width:2.0px;stroke-linecap:butt;stroke-linejoin:miter;stroke-opacity:1"/>
<path class="bond-19 atom-18 atom-20" d="M 265.0,70.8 L 262.2,77.0" style="fill:none;fill-rule:evenodd;stroke:#000000;stroke-width:2.0px;stroke-linecap:butt;stroke-linejoin:miter;stroke-opacity:1"/>
<path class="bond-19 atom-18 atom-20" d="M 262.2,77.0 L 259.3,83.2" style="fill:none;fill-rule:evenodd;stroke:#0000FF;stroke-width:2.0px;stroke-linecap:butt;stroke-linejoin:miter;stroke-opacity:1"/>
<path class="bond-20 atom-20 atom-21" d="M 255.6,88.7 L 251.0,93.7" style="fill:none;fill-rule:evenodd;stroke:#0000FF;stroke-width:2.0px;stroke-linecap:butt;stroke-linejoin:miter;stroke-opacity:1"/>
<path class="bond-20 atom-20 atom-21" d="M 251.0,93.7 L 246.5,98.6" style="fill:none;fill-rule:evenodd;stroke:#000000;stroke-width:2.0px;stroke-linecap:butt;stroke-linejoin:miter;stroke-opacity:1"/>
<path class="bond-21 atom-21 atom-22" d="M 246.5,98.6 L 229.7,96.6" style="fill:none;fill-rule:evenodd;stroke:#000000;stroke-width:2.0px;stroke-linecap:butt;stroke-linejoin:miter;stroke-opacity:1"/>
<path class="bond-22 atom-22 atom-23" d="M 229.1,95.3 L 224.9,100.9" style="fill:none;fill-rule:evenodd;stroke:#000000;stroke-width:2.0px;stroke-linecap:butt;stroke-linejoin:miter;stroke-opacity:1"/>
<path class="bond-22 atom-22 atom-23" d="M 224.9,100.9 L 220.7,106.5" style="fill:none;fill-rule:evenodd;stroke:#FF0000;stroke-width:2.0px;stroke-linecap:butt;stroke-linejoin:miter;stroke-opacity:1"/>
<path class="bond-22 atom-22 atom-23" d="M 231.1,96.8 L 226.9,102.4" style="fill:none;fill-rule:evenodd;stroke:#000000;stroke-width:2.0px;stroke-linecap:butt;stroke-linejoin:miter;stroke-opacity:1"/>
<path class="bond-22 atom-22 atom-23" d="M 226.9,102.4 L 222.8,108.0" style="fill:none;fill-rule:evenodd;stroke:#FF0000;stroke-width:2.0px;stroke-linecap:butt;stroke-linejoin:miter;stroke-opacity:1"/>
<path class="bond-23 atom-22 atom-24" d="M 229.7,96.6 L 227.0,90.4" style="fill:none;fill-rule:evenodd;stroke:#000000;stroke-width:2.0px;stroke-linecap:butt;stroke-linejoin:miter;stroke-opacity:1"/>
<path class="bond-23 atom-22 atom-24" d="M 227.0,90.4 L 224.3,84.1" style="fill:none;fill-rule:evenodd;stroke:#FF0000;stroke-width:2.0px;stroke-linecap:butt;stroke-linejoin:miter;stroke-opacity:1"/>
<path class="bond-24 atom-21 atom-1" d="M 246.5,98.6 L 254.8,113.4" style="fill:none;fill-rule:evenodd;stroke:#000000;stroke-width:2.0px;stroke-linecap:butt;stroke-linejoin:miter;stroke-opacity:1"/>
<path class="bond-25 atom-20 atom-4" d="M 260.3,87.3 L 266.8,90.2" style="fill:none;fill-rule:evenodd;stroke:#0000FF;stroke-width:2.0px;stroke-linecap:butt;stroke-linejoin:miter;stroke-opacity:1"/>
<path class="bond-25 atom-20 atom-4" d="M 266.8,90.2 L 273.3,93.2" style="fill:none;fill-rule:evenodd;stroke:#000000;stroke-width:2.0px;stroke-linecap:butt;stroke-linejoin:miter;stroke-opacity:1"/>
<path class="bond-26 atom-17 atom-11" d="M 354.1,81.8 L 338.2,87.7" style="fill:none;fill-rule:evenodd;stroke:#000000;stroke-width:2.0px;stroke-linecap:butt;stroke-linejoin:miter;stroke-opacity:1"/>
<path d="M 309.0,82.6 L 309.3,82.8 L 310.1,82.5" style="fill:none;stroke:#000000;stroke-width:2.0px;stroke-linecap:butt;stroke-linejoin:miter;stroke-opacity:1;"/>
<path d="M 335.5,103.6 L 335.4,104.4 L 336.0,104.9" style="fill:none;stroke:#000000;stroke-width:2.0px;stroke-linecap:butt;stroke-linejoin:miter;stroke-opacity:1;"/>
<path d="M 347.7,114.7 L 348.4,115.2 L 349.2,114.9" style="fill:none;stroke:#000000;stroke-width:2.0px;stroke-linecap:butt;stroke-linejoin:miter;stroke-opacity:1;"/>
<path d="M 367.0,93.5 L 367.1,92.6 L 366.4,92.1" style="fill:none;stroke:#000000;stroke-width:2.0px;stroke-linecap:butt;stroke-linejoin:miter;stroke-opacity:1;"/>
<path d="M 354.7,82.4 L 354.1,81.8 L 353.3,82.1" style="fill:none;stroke:#000000;stroke-width:2.0px;stroke-linecap:butt;stroke-linejoin:miter;stroke-opacity:1;"/>
<path d="M 265.8,71.1 L 265.0,70.8 L 264.9,71.1" style="fill:none;stroke:#000000;stroke-width:2.0px;stroke-linecap:butt;stroke-linejoin:miter;stroke-opacity:1;"/>
<path d="M 230.5,96.7 L 229.7,96.6 L 229.5,96.3" style="fill:none;stroke:#000000;stroke-width:2.0px;stroke-linecap:butt;stroke-linejoin:miter;stroke-opacity:1;"/>
<path class="atom-3" d="M 270.0 111.7 Q 270.1 111.7, 270.3 111.8 Q 270.5 111.9, 270.7 112.0 Q 271.0 112.0, 271.2 112.0 Q 271.7 112.0, 272.0 111.8 Q 272.2 111.6, 272.2 111.2 Q 272.2 110.9, 272.1 110.8 Q 272.0 110.6, 271.8 110.5 Q 271.6 110.4, 271.2 110.3 Q 270.8 110.2, 270.5 110.1 Q 270.3 109.9, 270.1 109.7 Q 269.9 109.4, 269.9 109.0 Q 269.9 108.4, 270.3 108.0 Q 270.7 107.6, 271.6 107.6 Q 272.1 107.6, 272.7 107.9 L 272.6 108.4 Q 272.0 108.2, 271.6 108.2 Q 271.1 108.2, 270.8 108.4 Q 270.6 108.6, 270.6 108.9 Q 270.6 109.2, 270.7 109.3 Q 270.9 109.5, 271.1 109.6 Q 271.2 109.7, 271.6 109.8 Q 272.0 109.9, 272.3 110.0 Q 272.5 110.2, 272.7 110.4 Q 272.9 110.7, 272.9 111.2 Q 272.9 111.8, 272.4 112.2 Q 272.0 112.6, 271.3 112.6 Q 270.8 112.6, 270.5 112.5 Q 270.2 112.4, 269.8 112.2 L 270.0 111.7 " fill="#CCCC00"/>
<path class="atom-6" d="M 295.2 69.6 L 296.8 72.1 Q 296.9 72.4, 297.2 72.8 Q 297.4 73.3, 297.5 73.3 L 297.5 69.6 L 298.1 69.6 L 298.1 74.4 L 297.4 74.4 L 295.7 71.6 Q 295.5 71.3, 295.3 70.9 Q 295.1 70.5, 295.1 70.4 L 295.1 74.4 L 294.5 74.4 L 294.5 69.6 L 295.2 69.6 " fill="#0000FF"/>
<path class="atom-6" d="M 294.4 64.3 L 295.0 64.3 L 295.0 66.3 L 297.5 66.3 L 297.5 64.3 L 298.1 64.3 L 298.1 69.1 L 297.5 69.1 L 297.5 66.9 L 295.0 66.9 L 295.0 69.1 L 294.4 69.1 L 294.4 64.3 " fill="#0000FF"/>
<path class="atom-8" d="M 304.2 99.5 Q 304.2 98.3, 304.8 97.7 Q 305.4 97.0, 306.4 97.0 Q 307.5 97.0, 308.1 97.7 Q 308.7 98.3, 308.7 99.5 Q 308.7 100.6, 308.1 101.3 Q 307.5 102.0, 306.4 102.0 Q 305.4 102.0, 304.8 101.3 Q 304.2 100.6, 304.2 99.5 M 306.4 101.4 Q 307.2 101.4, 307.6 100.9 Q 308.0 100.4, 308.0 99.5 Q 308.0 98.5, 307.6 98.1 Q 307.2 97.6, 306.4 97.6 Q 305.7 97.6, 305.3 98.1 Q 304.9 98.5, 304.9 99.5 Q 304.9 100.4, 305.3 100.9 Q 305.7 101.4, 306.4 101.4 " fill="#FF0000"/>
<path class="atom-10" d="M 327.0 57.8 L 328.5 60.4 Q 328.7 60.6, 328.9 61.1 Q 329.2 61.5, 329.2 61.5 L 329.2 57.8 L 329.8 57.8 L 329.8 62.6 L 329.2 62.6 L 327.5 59.8 Q 327.3 59.5, 327.1 59.1 Q 326.9 58.8, 326.8 58.7 L 326.8 62.6 L 326.2 62.6 L 326.2 57.8 L 327.0 57.8 " fill="#0000FF"/>
<path class="atom-10" d="M 330.8 57.8 L 331.4 57.8 L 331.4 59.9 L 333.9 59.9 L 333.9 57.8 L 334.5 57.8 L 334.5 62.6 L 333.9 62.6 L 333.9 60.4 L 331.4 60.4 L 331.4 62.6 L 330.8 62.6 L 330.8 57.8 " fill="#0000FF"/>
<path class="atom-10" d="M 335.4 62.4 Q 335.6 62.1, 335.8 62.0 Q 336.1 61.8, 336.5 61.8 Q 337.0 61.8, 337.2 62.1 Q 337.5 62.3, 337.5 62.8 Q 337.5 63.3, 337.2 63.7 Q 336.8 64.1, 336.1 64.7 L 337.6 64.7 L 337.6 65.0 L 335.4 65.0 L 335.4 64.7 Q 336.0 64.3, 336.4 64.0 Q 336.7 63.7, 336.9 63.4 Q 337.1 63.1, 337.1 62.8 Q 337.1 62.5, 336.9 62.3 Q 336.8 62.2, 336.5 62.2 Q 336.2 62.2, 336.1 62.3 Q 335.9 62.4, 335.8 62.6 L 335.4 62.4 " fill="#0000FF"/>
<path class="atom-15" d="M 375.1 120.2 Q 375.1 119.0, 375.6 118.4 Q 376.2 117.7, 377.3 117.7 Q 378.3 117.7, 378.9 118.4 Q 379.5 119.0, 379.5 120.2 Q 379.5 121.3, 378.9 122.0 Q 378.3 122.6, 377.3 122.6 Q 376.2 122.6, 375.6 122.0 Q 375.1 121.3, 375.1 120.2 M 377.3 122.1 Q 378.0 122.1, 378.4 121.6 Q 378.8 121.1, 378.8 120.2 Q 378.8 119.2, 378.4 118.7 Q 378.0 118.3, 377.3 118.3 Q 376.5 118.3, 376.1 118.7 Q 375.8 119.2, 375.8 120.2 Q 375.8 121.1, 376.1 121.6 Q 376.5 122.1, 377.3 122.1 " fill="#FF0000"/>
<path class="atom-15" d="M 380.2 117.8 L 380.9 117.8 L 380.9 119.8 L 383.3 119.8 L 383.3 117.8 L 384.0 117.8 L 384.0 122.6 L 383.3 122.6 L 383.3 120.3 L 380.9 120.3 L 380.9 122.6 L 380.2 122.6 L 380.2 117.8 " fill="#FF0000"/>
<path class="atom-19" d="M 256.9 54.9 Q 256.9 53.8, 257.5 53.1 Q 258.1 52.5, 259.1 52.5 Q 260.2 52.5, 260.8 53.1 Q 261.3 53.8, 261.3 54.9 Q 261.3 56.1, 260.8 56.7 Q 260.2 57.4, 259.1 57.4 Q 258.1 57.4, 257.5 56.7 Q 256.9 56.1, 256.9 54.9 M 259.1 56.9 Q 259.9 56.9, 260.3 56.4 Q 260.7 55.9, 260.7 54.9 Q 260.7 54.0, 260.3 53.5 Q 259.9 53.0, 259.1 53.0 Q 258.4 53.0, 258.0 53.5 Q 257.6 54.0, 257.6 54.9 Q 257.6 55.9, 258.0 56.4 Q 258.4 56.9, 259.1 56.9 " fill="#FF0000"/>
<path class="atom-20" d="M 256.9 83.8 L 258.5 86.3 Q 258.6 86.6, 258.9 87.0 Q 259.1 87.5, 259.1 87.5 L 259.1 83.8 L 259.8 83.8 L 259.8 88.6 L 259.1 88.6 L 257.4 85.8 Q 257.2 85.5, 257.0 85.1 Q 256.8 84.7, 256.8 84.6 L 256.8 88.6 L 256.1 88.6 L 256.1 83.8 L 256.9 83.8 " fill="#0000FF"/>
<path class="atom-23" d="M 217.3 110.2 Q 217.3 109.1, 217.9 108.4 Q 218.5 107.8, 219.5 107.8 Q 220.6 107.8, 221.2 108.4 Q 221.7 109.1, 221.7 110.2 Q 221.7 111.4, 221.2 112.0 Q 220.6 112.7, 219.5 112.7 Q 218.5 112.7, 217.9 112.0 Q 217.3 111.4, 217.3 110.2 M 219.5 112.2 Q 220.3 112.2, 220.7 111.7 Q 221.1 111.2, 221.1 110.2 Q 221.1 109.3, 220.7 108.8 Q 220.3 108.3, 219.5 108.3 Q 218.8 108.3, 218.4 108.8 Q 218.0 109.3, 218.0 110.2 Q 218.0 111.2, 218.4 111.7 Q 218.8 112.2, 219.5 112.2 " fill="#FF0000"/>
<path class="atom-24" d="M 216.0 78.7 L 216.7 78.7 L 216.7 80.8 L 219.1 80.8 L 219.1 78.7 L 219.8 78.7 L 219.8 83.5 L 219.1 83.5 L 219.1 81.3 L 216.7 81.3 L 216.7 83.5 L 216.0 83.5 L 216.0 78.7 " fill="#FF0000"/>
<path class="atom-24" d="M 220.8 81.1 Q 220.8 79.9, 221.3 79.3 Q 221.9 78.7, 223.0 78.7 Q 224.0 78.7, 224.6 79.3 Q 225.2 79.9, 225.2 81.1 Q 225.2 82.3, 224.6 82.9 Q 224.0 83.6, 223.0 83.6 Q 221.9 83.6, 221.3 82.9 Q 220.8 82.3, 220.8 81.1 M 223.0 83.0 Q 223.7 83.0, 224.1 82.6 Q 224.5 82.1, 224.5 81.1 Q 224.5 80.2, 224.1 79.7 Q 223.7 79.2, 223.0 79.2 Q 222.2 79.2, 221.8 79.7 Q 221.4 80.2, 221.4 81.1 Q 221.4 82.1, 221.8 82.6 Q 222.2 83.0, 223.0 83.0 " fill="#FF0000"/>
<path class="legend" d="M 224.6 184.2 Q 224.6 181.3, 226.0 179.9 Q 227.3 178.4, 229.8 178.4 Q 232.1 178.4, 233.4 180.0 L 232.3 180.9 Q 231.4 179.7, 229.8 179.7 Q 228.1 179.7, 227.2 180.8 Q 226.3 182.0, 226.3 184.2 Q 226.3 186.4, 227.2 187.6 Q 228.1 188.7, 230.0 188.7 Q 231.2 188.7, 232.7 188.0 L 233.1 189.2 Q 232.5 189.5, 231.6 189.8 Q 230.7 190.0, 229.7 190.0 Q 227.3 190.0, 226.0 188.5 Q 224.6 187.0, 224.6 184.2 " fill="#000000"/>
<path class="legend" d="M 240.3 183.9 Q 241.4 184.2, 241.9 184.9 Q 242.5 185.5, 242.5 186.5 Q 242.5 188.1, 241.4 189.0 Q 240.5 189.8, 238.6 189.8 L 234.8 189.8 L 234.8 178.5 L 238.1 178.5 Q 240.0 178.5, 241.0 179.3 Q 242.0 180.1, 242.0 181.5 Q 242.0 183.2, 240.3 183.9 M 236.3 179.8 L 236.3 183.3 L 238.1 183.3 Q 239.2 183.3, 239.8 182.9 Q 240.4 182.4, 240.4 181.5 Q 240.4 179.8, 238.1 179.8 L 236.3 179.8 M 238.6 188.6 Q 239.7 188.6, 240.3 188.0 Q 240.9 187.5, 240.9 186.5 Q 240.9 185.6, 240.2 185.1 Q 239.6 184.6, 238.3 184.6 L 236.3 184.6 L 236.3 188.6 L 238.6 188.6 " fill="#000000"/>
<path class="legend" d="M 250.0 189.8 L 247.3 185.2 L 247.3 185.2 L 245.5 185.2 L 245.5 189.8 L 243.9 189.8 L 243.9 178.5 L 247.3 178.5 Q 249.2 178.5, 250.2 179.4 Q 251.2 180.3, 251.2 181.8 Q 251.2 183.0, 250.6 183.9 Q 250.0 184.7, 248.9 185.0 L 251.7 189.8 L 250.0 189.8 M 245.5 183.9 L 247.3 183.9 Q 248.4 183.9, 249.0 183.4 Q 249.6 182.8, 249.6 181.8 Q 249.6 180.8, 249.0 180.3 Q 248.4 179.8, 247.3 179.8 L 245.5 179.8 L 245.5 183.9 " fill="#000000"/>
<path class="legend" d="M 252.9 184.1 L 258.7 184.1 L 258.7 185.4 L 252.9 185.4 L 252.9 184.1 " fill="#000000"/>
<path class="legend" d="M 264.4 190.0 Q 262.3 190.0, 261.3 188.4 Q 260.3 186.9, 260.3 184.2 Q 260.3 181.4, 261.3 179.9 Q 262.3 178.4, 264.4 178.4 Q 266.5 178.4, 267.5 179.9 Q 268.6 181.4, 268.6 184.2 Q 268.6 186.9, 267.5 188.4 Q 266.5 190.0, 264.4 190.0 M 264.4 188.7 Q 265.6 188.7, 266.3 187.6 Q 267.0 186.4, 267.0 184.2 Q 267.0 181.9, 266.3 180.8 Q 265.6 179.7, 264.4 179.7 Q 263.2 179.7, 262.5 180.8 Q 261.9 181.9, 261.9 184.2 Q 261.9 186.4, 262.5 187.6 Q 263.2 188.7, 264.4 188.7 " fill="#000000"/>
<path class="legend" d="M 274.5 190.0 Q 272.4 190.0, 271.4 188.4 Q 270.3 186.9, 270.3 184.2 Q 270.3 181.4, 271.4 179.9 Q 272.4 178.4, 274.5 178.4 Q 276.6 178.4, 277.6 179.9 Q 278.6 181.4, 278.6 184.2 Q 278.6 186.9, 277.6 188.4 Q 276.6 190.0, 274.5 190.0 M 274.5 188.7 Q 275.7 188.7, 276.4 187.6 Q 277.0 186.4, 277.0 184.2 Q 277.0 181.9, 276.4 180.8 Q 275.7 179.7, 274.5 179.7 Q 273.3 179.7, 272.6 180.8 Q 271.9 181.9, 271.9 184.2 Q 271.9 186.4, 272.6 187.6 Q 273.3 188.7, 274.5 188.7 " fill="#000000"/>
<path class="legend" d="M 281.0 188.6 L 283.5 188.6 L 283.5 180.1 L 280.8 180.9 L 280.4 180.0 L 283.9 178.4 L 285.0 178.6 L 285.0 188.6 L 287.2 188.6 L 287.2 189.8 L 281.0 189.8 L 281.0 188.6 " fill="#000000"/>
<path class="legend" d="M 288.7 184.1 L 294.5 184.1 L 294.5 185.4 L 288.7 185.4 L 288.7 184.1 " fill="#000000"/>
<path class="legend" d="M 300.2 182.8 Q 301.2 182.8, 302.0 183.2 Q 302.8 183.6, 303.3 184.4 Q 303.7 185.2, 303.7 186.3 Q 303.7 187.4, 303.2 188.3 Q 302.6 189.1, 301.7 189.5 Q 300.7 190.0, 299.7 190.0 Q 298.6 190.0, 297.7 189.6 Q 296.7 189.2, 296.1 188.5 L 297.0 187.5 Q 297.6 188.0, 298.3 188.4 Q 299.0 188.7, 299.7 188.7 Q 300.7 188.7, 301.4 188.0 Q 302.1 187.4, 302.1 186.3 Q 302.1 185.1, 301.4 184.5 Q 300.7 184.0, 299.6 184.0 Q 298.6 184.0, 297.5 184.4 L 296.7 184.0 L 297.2 178.5 L 303.0 178.5 L 302.9 179.8 L 298.5 179.8 L 298.2 183.2 Q 299.2 182.8, 300.2 182.8 " fill="#000000"/>
<path class="legend" d="M 311.2 179.8 L 305.2 179.8 L 305.2 178.5 L 312.8 178.5 L 312.8 179.6 L 308.2 189.8 L 306.6 189.8 L 311.2 179.8 " fill="#000000"/>
<path class="legend" d="M 314.0 180.7 Q 314.4 179.6, 315.4 179.0 Q 316.4 178.4, 317.8 178.4 Q 319.5 178.4, 320.4 179.3 Q 321.4 180.2, 321.4 181.9 Q 321.4 183.6, 320.2 185.1 Q 318.9 186.7, 316.4 188.6 L 321.6 188.6 L 321.6 189.8 L 314.0 189.8 L 314.0 188.8 Q 316.1 187.3, 317.3 186.1 Q 318.6 185.0, 319.2 184.0 Q 319.8 183.0, 319.8 182.0 Q 319.8 180.9, 319.3 180.3 Q 318.7 179.7, 317.8 179.7 Q 316.9 179.7, 316.3 180.0 Q 315.6 180.4, 315.2 181.2 L 314.0 180.7 " fill="#000000"/>
<path class="legend" d="M 323.3 184.1 L 329.2 184.1 L 329.2 185.4 L 323.3 185.4 L 323.3 184.1 " fill="#000000"/>
<path class="legend" d="M 334.5 178.4 Q 336.5 178.4, 337.5 179.8 Q 338.6 181.1, 338.6 183.8 Q 338.6 186.8, 337.3 188.4 Q 336.1 190.0, 333.6 190.0 Q 332.9 190.0, 332.3 189.8 Q 331.7 189.6, 331.2 189.3 L 331.8 188.2 Q 332.6 188.7, 333.6 188.7 Q 335.2 188.7, 336.0 187.7 Q 336.9 186.6, 337.0 184.5 Q 336.4 185.0, 335.6 185.3 Q 334.9 185.6, 334.1 185.6 Q 333.1 185.6, 332.4 185.2 Q 331.6 184.7, 331.1 183.9 Q 330.7 183.2, 330.7 182.2 Q 330.7 181.1, 331.2 180.2 Q 331.7 179.3, 332.6 178.9 Q 333.4 178.4, 334.5 178.4 M 332.3 182.1 Q 332.3 183.2, 332.9 183.7 Q 333.4 184.3, 334.4 184.3 Q 335.1 184.3, 335.8 184.0 Q 336.5 183.7, 337.0 183.3 Q 336.9 181.4, 336.3 180.5 Q 335.7 179.7, 334.5 179.7 Q 333.9 179.7, 333.4 180.0 Q 332.9 180.3, 332.6 180.9 Q 332.3 181.5, 332.3 182.1 " fill="#000000"/>
<path class="legend" d="M 347.8 186.0 L 349.1 186.0 L 349.1 187.2 L 347.8 187.2 L 347.8 189.8 L 346.3 189.8 L 346.3 187.2 L 340.4 187.2 L 340.4 186.2 L 345.4 178.5 L 347.8 178.5 L 347.8 186.0 M 342.3 186.0 L 346.3 186.0 L 346.3 179.5 L 342.3 186.0 " fill="#000000"/>
<path class="legend" d="M 356.1 183.9 Q 357.2 184.2, 357.7 184.9 Q 358.3 185.6, 358.3 186.7 Q 358.3 187.7, 357.8 188.4 Q 357.3 189.2, 356.4 189.6 Q 355.5 190.0, 354.4 190.0 Q 353.2 190.0, 352.3 189.6 Q 351.4 189.2, 350.6 188.3 L 351.6 187.4 Q 352.3 188.1, 352.9 188.4 Q 353.4 188.7, 354.4 188.7 Q 355.4 188.7, 356.0 188.2 Q 356.7 187.6, 356.7 186.7 Q 356.7 185.6, 356.0 185.1 Q 355.4 184.5, 354.0 184.5 L 353.2 184.5 L 353.2 183.4 L 353.9 183.4 Q 355.1 183.4, 355.8 182.8 Q 356.4 182.3, 356.4 181.3 Q 356.4 180.5, 355.9 180.1 Q 355.3 179.7, 354.4 179.7 Q 353.5 179.7, 352.9 180.0 Q 352.3 180.3, 351.8 181.2 L 350.7 180.6 Q 351.1 179.6, 352.1 179.0 Q 353.1 178.4, 354.4 178.4 Q 356.1 178.4, 357.0 179.2 Q 358.0 180.0, 358.0 181.3 Q 358.0 182.2, 357.5 182.8 Q 357.0 183.5, 356.1 183.9 " fill="#000000"/>
<path class="legend" d="M 359.9 184.1 L 365.8 184.1 L 365.8 185.4 L 359.9 185.4 L 359.9 184.1 " fill="#000000"/>
<path class="legend" d="M 373.1 183.8 Q 374.2 184.3, 374.8 185.0 Q 375.4 185.6, 375.4 186.7 Q 375.4 187.7, 374.9 188.4 Q 374.4 189.2, 373.5 189.6 Q 372.6 190.0, 371.4 190.0 Q 369.5 190.0, 368.4 189.1 Q 367.4 188.3, 367.4 186.7 Q 367.4 185.8, 367.8 185.1 Q 368.3 184.4, 369.3 183.9 Q 368.6 183.5, 368.2 182.9 Q 367.8 182.2, 367.8 181.3 Q 367.8 180.0, 368.7 179.2 Q 369.7 178.4, 371.4 178.4 Q 373.0 178.4, 374.0 179.2 Q 374.9 180.0, 374.9 181.3 Q 374.9 182.1, 374.5 182.7 Q 374.0 183.3, 373.1 183.8 M 371.4 179.6 Q 370.4 179.6, 369.9 180.0 Q 369.4 180.5, 369.4 181.3 Q 369.4 181.9, 369.7 182.3 Q 370.1 182.7, 370.6 182.9 Q 371.1 183.1, 372.1 183.4 Q 372.8 183.0, 373.0 182.4 Q 373.3 181.9, 373.3 181.3 Q 373.3 180.5, 372.8 180.0 Q 372.3 179.6, 371.4 179.6 M 371.4 188.8 Q 372.5 188.8, 373.1 188.2 Q 373.8 187.7, 373.8 186.7 Q 373.8 186.1, 373.4 185.7 Q 373.1 185.3, 372.6 185.1 Q 372.1 184.9, 371.2 184.6 L 370.5 184.4 Q 369.7 184.8, 369.3 185.4 Q 369.0 186.0, 369.0 186.7 Q 369.0 187.7, 369.6 188.2 Q 370.3 188.8, 371.4 188.8 " fill="#000000"/>
<path class="bond-0 atom-0 atom-1" d="M 438.7,121.6 L 435.5,115.1" style="fill:none;fill-rule:evenodd;stroke:#FF0000;stroke-width:2.0px;stroke-linecap:butt;stroke-linejoin:miter;stroke-opacity:1"/>
<path class="bond-0 atom-0 atom-1" d="M 435.5,115.1 L 432.4,108.7" style="fill:none;fill-rule:evenodd;stroke:#000000;stroke-width:2.0px;stroke-linecap:butt;stroke-linejoin:miter;stroke-opacity:1"/>
<path class="bond-0 atom-0 atom-1" d="M 440.9,120.5 L 437.8,114.0" style="fill:none;fill-rule:evenodd;stroke:#FF0000;stroke-width:2.0px;stroke-linecap:butt;stroke-linejoin:miter;stroke-opacity:1"/>
<path class="bond-0 atom-0 atom-1" d="M 437.8,114.0 L 434.6,107.6" style="fill:none;fill-rule:evenodd;stroke:#000000;stroke-width:2.0px;stroke-linecap:butt;stroke-linejoin:miter;stroke-opacity:1"/>
<path class="bond-1 atom-1 atom-2" d="M 433.8,108.8 L 426.8,108.3" style="fill:none;fill-rule:evenodd;stroke:#000000;stroke-width:2.0px;stroke-linecap:butt;stroke-linejoin:miter;stroke-opacity:1"/>
<path class="bond-1 atom-1 atom-2" d="M 426.8,108.3 L 419.7,107.8" style="fill:none;fill-rule:evenodd;stroke:#FF0000;stroke-width:2.0px;stroke-linecap:butt;stroke-linejoin:miter;stroke-opacity:1"/>
<path class="bond-2 atom-1 atom-3" d="M 433.8,108.8 L 443.3,94.8" style="fill:none;fill-rule:evenodd;stroke:#000000;stroke-width:2.0px;stroke-linecap:butt;stroke-linejoin:miter;stroke-opacity:1"/>
<path class="bond-3 atom-3 atom-4" d="M 443.3,94.8 L 450.5,94.5" style="fill:none;fill-rule:evenodd;stroke:#000000;stroke-width:2.0px;stroke-linecap:butt;stroke-linejoin:miter;stroke-opacity:1"/>
<path class="bond-3 atom-3 atom-4" d="M 450.5,94.5 L 457.8,94.2" style="fill:none;fill-rule:evenodd;stroke:#0000FF;stroke-width:2.0px;stroke-linecap:butt;stroke-linejoin:miter;stroke-opacity:1"/>
<path class="bond-4 atom-4 atom-5" d="M 462.6,94.8 L 469.5,96.8" style="fill:none;fill-rule:evenodd;stroke:#0000FF;stroke-width:2.0px;stroke-linecap:butt;stroke-linejoin:miter;stroke-opacity:1"/>
<path class="bond-4 atom-4 atom-5" d="M 469.5,96.8 L 476.5,98.8" style="fill:none;fill-rule:evenodd;stroke:#000000;stroke-width:2.0px;stroke-linecap:butt;stroke-linejoin:miter;stroke-opacity:1"/>
<path class="bond-5 atom-5 atom-6" d="M 474.7,98.3 L 478.3,104.8" style="fill:none;fill-rule:evenodd;stroke:#000000;stroke-width:2.0px;stroke-linecap:butt;stroke-linejoin:miter;stroke-opacity:1"/>
<path class="bond-5 atom-5 atom-6" d="M 478.3,104.8 L 481.9,111.2" style="fill:none;fill-rule:evenodd;stroke:#FF0000;stroke-width:2.0px;stroke-linecap:butt;stroke-linejoin:miter;stroke-opacity:1"/>
<path class="bond-5 atom-5 atom-6" d="M 477.0,97.1 L 480.6,103.6" style="fill:none;fill-rule:evenodd;stroke:#000000;stroke-width:2.0px;stroke-linecap:butt;stroke-linejoin:miter;stroke-opacity:1"/>
<path class="bond-5 atom-5 atom-6" d="M 480.6,103.6 L 484.1,110.0" style="fill:none;fill-rule:evenodd;stroke:#FF0000;stroke-width:2.0px;stroke-linecap:butt;stroke-linejoin:miter;stroke-opacity:1"/>
<path class="bond-6 atom-5 atom-7" d="M 476.5,98.8 L 481.1,82.5" style="fill:none;fill-rule:evenodd;stroke:#000000;stroke-width:2.0px;stroke-linecap:butt;stroke-linejoin:miter;stroke-opacity:1"/>
<path class="bond-7 atom-7 atom-8" d="M 481.1,82.5 L 487.3,79.1" style="fill:none;fill-rule:evenodd;stroke:#000000;stroke-width:2.0px;stroke-linecap:butt;stroke-linejoin:miter;stroke-opacity:1"/>
<path class="bond-7 atom-7 atom-8" d="M 487.3,79.1 L 493.5,75.6" style="fill:none;fill-rule:evenodd;stroke:#0000FF;stroke-width:2.0px;stroke-linecap:butt;stroke-linejoin:miter;stroke-opacity:1"/>
<path class="bond-8 atom-8 atom-9" d="M 498.3,75.7 L 504.4,79.4" style="fill:none;fill-rule:evenodd;stroke:#0000FF;stroke-width:2.0px;stroke-linecap:butt;stroke-linejoin:miter;stroke-opacity:1"/>
<path class="bond-8 atom-8 atom-9" d="M 504.4,79.4 L 510.4,83.0" style="fill:none;fill-rule:evenodd;stroke:#000000;stroke-width:2.0px;stroke-linecap:butt;stroke-linejoin:miter;stroke-opacity:1"/>
<path class="bond-9 atom-9 atom-10" d="M 509.2,82.3 L 509.1,89.6" style="fill:none;fill-rule:evenodd;stroke:#000000;stroke-width:2.0px;stroke-linecap:butt;stroke-linejoin:miter;stroke-opacity:1"/>
<path class="bond-9 atom-9 atom-10" d="M 509.1,89.6 L 508.9,97.0" style="fill:none;fill-rule:evenodd;stroke:#FF0000;stroke-width:2.0px;stroke-linecap:butt;stroke-linejoin:miter;stroke-opacity:1"/>
<path class="bond-9 atom-9 atom-10" d="M 511.7,82.3 L 511.6,89.7" style="fill:none;fill-rule:evenodd;stroke:#000000;stroke-width:2.0px;stroke-linecap:butt;stroke-linejoin:miter;stroke-opacity:1"/>
<path class="bond-9 atom-9 atom-10" d="M 511.6,89.7 L 511.5,97.0" style="fill:none;fill-rule:evenodd;stroke:#FF0000;stroke-width:2.0px;stroke-linecap:butt;stroke-linejoin:miter;stroke-opacity:1"/>
<path class="bond-10 atom-9 atom-11" d="M 510.4,83.0 L 525.2,74.8" style="fill:none;fill-rule:evenodd;stroke:#000000;stroke-width:2.0px;stroke-linecap:butt;stroke-linejoin:miter;stroke-opacity:1"/>
<path class="bond-11 atom-11 atom-12" d="M 525.2,74.8 L 525.4,67.8" style="fill:none;fill-rule:evenodd;stroke:#000000;stroke-width:2.0px;stroke-linecap:butt;stroke-linejoin:miter;stroke-opacity:1"/>
<path class="bond-11 atom-11 atom-12" d="M 525.4,67.8 L 525.5,60.8" style="fill:none;fill-rule:evenodd;stroke:#0000FF;stroke-width:2.0px;stroke-linecap:butt;stroke-linejoin:miter;stroke-opacity:1"/>
<path class="bond-12 atom-11 atom-13" d="M 525.2,74.8 L 539.8,83.5" style="fill:none;fill-rule:evenodd;stroke:#000000;stroke-width:2.0px;stroke-linecap:butt;stroke-linejoin:miter;stroke-opacity:1"/>
<path class="bond-13 atom-13 atom-14" d="M 539.8,83.5 L 539.5,100.4" style="fill:none;fill-rule:evenodd;stroke:#000000;stroke-width:2.0px;stroke-linecap:butt;stroke-linejoin:miter;stroke-opacity:1"/>
<path class="bond-13 atom-13 atom-14" d="M 542.3,85.0 L 542.0,99.0" style="fill:none;fill-rule:evenodd;stroke:#000000;stroke-width:2.0px;stroke-linecap:butt;stroke-linejoin:miter;stroke-opacity:1"/>
<path class="bond-14 atom-14 atom-15" d="M 539.5,100.4 L 554.0,109.2" style="fill:none;fill-rule:evenodd;stroke:#000000;stroke-width:2.0px;stroke-linecap:butt;stroke-linejoin:miter;stroke-opacity:1"/>
<path class="bond-15 atom-15 atom-16" d="M 554.0,109.2 L 568.8,100.9" style="fill:none;fill-rule:evenodd;stroke:#000000;stroke-width:2.0px;stroke-linecap:butt;stroke-linejoin:miter;stroke-opacity:1"/>
<path class="bond-15 atom-15 atom-16" d="M 554.0,106.2 L 566.3,99.4" style="fill:none;fill-rule:evenodd;stroke:#000000;stroke-width:2.0px;stroke-linecap:butt;stroke-linejoin:miter;stroke-opacity:1"/>
<path class="bond-16 atom-16 atom-17" d="M 568.8,100.9 L 574.7,104.5" style="fill:none;fill-rule:evenodd;stroke:#000000;stroke-width:2.0px;stroke-linecap:butt;stroke-linejoin:miter;stroke-opacity:1"/>
<path class="bond-16 atom-16 atom-17" d="M 574.7,104.5 L 580.5,108.0" style="fill:none;fill-rule:evenodd;stroke:#FF0000;stroke-width:2.0px;stroke-linecap:butt;stroke-linejoin:miter;stroke-opacity:1"/>
<path class="bond-17 atom-16 atom-18" d="M 568.8,100.9 L 569.1,84.0" style="fill:none;fill-rule:evenodd;stroke:#000000;stroke-width:2.0px;stroke-linecap:butt;stroke-linejoin:miter;stroke-opacity:1"/>
<path class="bond-18 atom-18 atom-19" d="M 569.1,84.0 L 554.6,75.3" style="fill:none;fill-rule:evenodd;stroke:#000000;stroke-width:2.0px;stroke-linecap:butt;stroke-linejoin:miter;stroke-opacity:1"/>
<path class="bond-18 atom-18 atom-19" d="M 566.5,85.4 L 554.5,78.2" style="fill:none;fill-rule:evenodd;stroke:#000000;stroke-width:2.0px;stroke-linecap:butt;stroke-linejoin:miter;stroke-opacity:1"/>
<path class="bond-19 atom-7 atom-20" d="M 481.1,82.5 L 464.8,77.9" style="fill:none;fill-rule:evenodd;stroke:#000000;stroke-width:2.0px;stroke-linecap:butt;stroke-linejoin:miter;stroke-opacity:1"/>
<path class="bond-20 atom-20 atom-21" d="M 464.8,77.9 L 458.9,73.9" style="fill:none;fill-rule:evenodd;stroke:#000000;stroke-width:2.0px;stroke-linecap:butt;stroke-linejoin:miter;stroke-opacity:1"/>
<path class="bond-20 atom-20 atom-21" d="M 458.9,73.9 L 452.9,69.8" style="fill:none;fill-rule:evenodd;stroke:#CCCC00;stroke-width:2.0px;stroke-linecap:butt;stroke-linejoin:miter;stroke-opacity:1"/>
<path class="bond-21 atom-21 atom-22" d="M 448.7,70.1 L 443.1,74.5" style="fill:none;fill-rule:evenodd;stroke:#CCCC00;stroke-width:2.0px;stroke-linecap:butt;stroke-linejoin:miter;stroke-opacity:1"/>
<path class="bond-21 atom-21 atom-22" d="M 443.1,74.5 L 437.5,78.9" style="fill:none;fill-rule:evenodd;stroke:#000000;stroke-width:2.0px;stroke-linecap:butt;stroke-linejoin:miter;stroke-opacity:1"/>
<path class="bond-22 atom-22 atom-23" d="M 437.5,78.9 L 422.3,86.3" style="fill:none;fill-rule:evenodd;stroke:#000000;stroke-width:2.0px;stroke-linecap:butt;stroke-linejoin:miter;stroke-opacity:1"/>
<path class="bond-23 atom-22 atom-24" d="M 437.5,78.9 L 428.5,64.5" style="fill:none;fill-rule:evenodd;stroke:#000000;stroke-width:2.0px;stroke-linecap:butt;stroke-linejoin:miter;stroke-opacity:1"/>
<path class="bond-24 atom-22 atom-3" d="M 437.5,78.9 L 443.3,94.8" style="fill:none;fill-rule:evenodd;stroke:#000000;stroke-width:2.0px;stroke-linecap:butt;stroke-linejoin:miter;stroke-opacity:1"/>
<path class="bond-25 atom-20 atom-4" d="M 464.8,77.9 L 462.9,84.5" style="fill:none;fill-rule:evenodd;stroke:#000000;stroke-width:2.0px;stroke-linecap:butt;stroke-linejoin:miter;stroke-opacity:1"/>
<path class="bond-25 atom-20 atom-4" d="M 462.9,84.5 L 461.0,91.2" style="fill:none;fill-rule:evenodd;stroke:#0000FF;stroke-width:2.0px;stroke-linecap:butt;stroke-linejoin:miter;stroke-opacity:1"/>
<path class="bond-26 atom-19 atom-13" d="M 554.6,75.3 L 539.8,83.5" style="fill:none;fill-rule:evenodd;stroke:#000000;stroke-width:2.0px;stroke-linecap:butt;stroke-linejoin:miter;stroke-opacity:1"/>
<path d="M 433.5,108.8 L 433.8,108.8 L 434.3,108.1" style="fill:none;stroke:#000000;stroke-width:2.0px;stroke-linecap:butt;stroke-linejoin:miter;stroke-opacity:1;"/>
<path d="M 476.1,98.7 L 476.5,98.8 L 476.7,98.0" style="fill:none;stroke:#000000;stroke-width:2.0px;stroke-linecap:butt;stroke-linejoin:miter;stroke-opacity:1;"/>
<path d="M 510.1,82.8 L 510.4,83.0 L 511.2,82.6" style="fill:none;stroke:#000000;stroke-width:2.0px;stroke-linecap:butt;stroke-linejoin:miter;stroke-opacity:1;"/>
<path d="M 539.5,99.6 L 539.5,100.4 L 540.2,100.9" style="fill:none;stroke:#000000;stroke-width:2.0px;stroke-linecap:butt;stroke-linejoin:miter;stroke-opacity:1;"/>
<path d="M 553.3,108.7 L 554.0,109.2 L 554.7,108.7" style="fill:none;stroke:#000000;stroke-width:2.0px;stroke-linecap:butt;stroke-linejoin:miter;stroke-opacity:1;"/>
<path d="M 569.1,84.9 L 569.1,84.0 L 568.3,83.6" style="fill:none;stroke:#000000;stroke-width:2.0px;stroke-linecap:butt;stroke-linejoin:miter;stroke-opacity:1;"/>
<path d="M 555.3,75.7 L 554.6,75.3 L 553.8,75.7" style="fill:none;stroke:#000000;stroke-width:2.0px;stroke-linecap:butt;stroke-linejoin:miter;stroke-opacity:1;"/>
<path class="atom-0" d="M 439.1 124.0 Q 439.1 122.9, 439.6 122.2 Q 440.2 121.6, 441.3 121.6 Q 442.3 121.6, 442.9 122.2 Q 443.5 122.9, 443.5 124.0 Q 443.5 125.2, 442.9 125.9 Q 442.3 126.5, 441.3 126.5 Q 440.2 126.5, 439.6 125.9 Q 439.1 125.2, 439.1 124.0 M 441.3 126.0 Q 442.0 126.0, 442.4 125.5 Q 442.8 125.0, 442.8 124.0 Q 442.8 123.1, 442.4 122.6 Q 442.0 122.1, 441.3 122.1 Q 440.5 122.1, 440.1 122.6 Q 439.7 123.1, 439.7 124.0 Q 439.7 125.0, 440.1 125.5 Q 440.5 126.0, 441.3 126.0 " fill="#FF0000"/>
<path class="atom-2" d="M 410.0 105.3 L 410.7 105.3 L 410.7 107.3 L 413.1 107.3 L 413.1 105.3 L 413.8 105.3 L 413.8 110.1 L 413.1 110.1 L 413.1 107.8 L 410.7 107.8 L 410.7 110.1 L 410.0 110.1 L 410.0 105.3 " fill="#FF0000"/>
<path class="atom-2" d="M 414.7 107.6 Q 414.7 106.5, 415.3 105.9 Q 415.9 105.2, 416.9 105.2 Q 418.0 105.2, 418.6 105.9 Q 419.1 106.5, 419.1 107.6 Q 419.1 108.8, 418.6 109.5 Q 418.0 110.1, 416.9 110.1 Q 415.9 110.1, 415.3 109.5 Q 414.7 108.8, 414.7 107.6 M 416.9 109.6 Q 417.7 109.6, 418.1 109.1 Q 418.5 108.6, 418.5 107.6 Q 418.5 106.7, 418.1 106.2 Q 417.7 105.8, 416.9 105.8 Q 416.2 105.8, 415.8 106.2 Q 415.4 106.7, 415.4 107.6 Q 415.4 108.6, 415.8 109.1 Q 416.2 109.6, 416.9 109.6 " fill="#FF0000"/>
<path class="atom-4" d="M 459.1 91.8 L 460.7 94.3 Q 460.9 94.6, 461.1 95.0 Q 461.4 95.5, 461.4 95.5 L 461.4 91.8 L 462.0 91.8 L 462.0 96.6 L 461.4 96.6 L 459.7 93.8 Q 459.5 93.5, 459.3 93.1 Q 459.1 92.7, 459.0 92.6 L 459.0 96.6 L 458.4 96.6 L 458.4 91.8 L 459.1 91.8 " fill="#0000FF"/>
<path class="atom-6" d="M 482.5 113.6 Q 482.5 112.5, 483.1 111.8 Q 483.6 111.2, 484.7 111.2 Q 485.7 111.2, 486.3 111.8 Q 486.9 112.5, 486.9 113.6 Q 486.9 114.8, 486.3 115.5 Q 485.7 116.1, 484.7 116.1 Q 483.6 116.1, 483.1 115.5 Q 482.5 114.8, 482.5 113.6 M 484.7 115.6 Q 485.4 115.6, 485.8 115.1 Q 486.2 114.6, 486.2 113.6 Q 486.2 112.7, 485.8 112.2 Q 485.4 111.7, 484.7 111.7 Q 484.0 111.7, 483.6 112.2 Q 483.2 112.7, 483.2 113.6 Q 483.2 114.6, 483.6 115.1 Q 484.0 115.6, 484.7 115.6 " fill="#FF0000"/>
<path class="atom-8" d="M 494.9 71.9 L 496.4 74.5 Q 496.6 74.7, 496.8 75.2 Q 497.1 75.6, 497.1 75.6 L 497.1 71.9 L 497.7 71.9 L 497.7 76.7 L 497.1 76.7 L 495.4 73.9 Q 495.2 73.6, 495.0 73.2 Q 494.8 72.9, 494.7 72.8 L 494.7 76.7 L 494.1 76.7 L 494.1 71.9 L 494.9 71.9 " fill="#0000FF"/>
<path class="atom-8" d="M 494.0 66.7 L 494.7 66.7 L 494.7 68.7 L 497.1 68.7 L 497.1 66.7 L 497.8 66.7 L 497.8 71.4 L 497.1 71.4 L 497.1 69.2 L 494.7 69.2 L 494.7 71.4 L 494.0 71.4 L 494.0 66.7 " fill="#0000FF"/>
<path class="atom-10" d="M 508.0 100.0 Q 508.0 98.8, 508.5 98.2 Q 509.1 97.5, 510.2 97.5 Q 511.2 97.5, 511.8 98.2 Q 512.4 98.8, 512.4 100.0 Q 512.4 101.1, 511.8 101.8 Q 511.2 102.5, 510.2 102.5 Q 509.1 102.5, 508.5 101.8 Q 508.0 101.1, 508.0 100.0 M 510.2 101.9 Q 510.9 101.9, 511.3 101.4 Q 511.7 100.9, 511.7 100.0 Q 511.7 99.0, 511.3 98.6 Q 510.9 98.1, 510.2 98.1 Q 509.4 98.1, 509.0 98.5 Q 508.6 99.0, 508.6 100.0 Q 508.6 100.9, 509.0 101.4 Q 509.4 101.9, 510.2 101.9 " fill="#FF0000"/>
<path class="atom-12" d="M 524.5 55.5 L 526.0 58.0 Q 526.2 58.3, 526.4 58.7 Q 526.7 59.2, 526.7 59.2 L 526.7 55.5 L 527.3 55.5 L 527.3 60.3 L 526.7 60.3 L 525.0 57.5 Q 524.8 57.2, 524.6 56.8 Q 524.4 56.4, 524.3 56.3 L 524.3 60.3 L 523.7 60.3 L 523.7 55.5 L 524.5 55.5 " fill="#0000FF"/>
<path class="atom-12" d="M 528.3 55.5 L 528.9 55.5 L 528.9 57.5 L 531.4 57.5 L 531.4 55.5 L 532.0 55.5 L 532.0 60.3 L 531.4 60.3 L 531.4 58.1 L 528.9 58.1 L 528.9 60.3 L 528.3 60.3 L 528.3 55.5 " fill="#0000FF"/>
<path class="atom-12" d="M 532.9 60.1 Q 533.1 59.8, 533.3 59.7 Q 533.6 59.5, 534.0 59.5 Q 534.5 59.5, 534.7 59.7 Q 535.0 60.0, 535.0 60.5 Q 535.0 60.9, 534.7 61.4 Q 534.3 61.8, 533.6 62.3 L 535.1 62.3 L 535.1 62.7 L 532.9 62.7 L 532.9 62.4 Q 533.5 62.0, 533.9 61.6 Q 534.2 61.3, 534.4 61.1 Q 534.6 60.8, 534.6 60.5 Q 534.6 60.2, 534.4 60.0 Q 534.3 59.8, 534.0 59.8 Q 533.7 59.8, 533.6 59.9 Q 533.4 60.0, 533.3 60.3 L 532.9 60.1 " fill="#0000FF"/>
<path class="atom-17" d="M 581.1 109.7 Q 581.1 108.5, 581.7 107.9 Q 582.2 107.2, 583.3 107.2 Q 584.4 107.2, 584.9 107.9 Q 585.5 108.5, 585.5 109.7 Q 585.5 110.8, 584.9 111.5 Q 584.4 112.1, 583.3 112.1 Q 582.2 112.1, 581.7 111.5 Q 581.1 110.8, 581.1 109.7 M 583.3 111.6 Q 584.0 111.6, 584.4 111.1 Q 584.8 110.6, 584.8 109.7 Q 584.8 108.7, 584.4 108.2 Q 584.0 107.8, 583.3 107.8 Q 582.6 107.8, 582.2 108.2 Q 581.8 108.7, 581.8 109.7 Q 581.8 110.6, 582.2 111.1 Q 582.6 111.6, 583.3 111.6 " fill="#FF0000"/>
<path class="atom-17" d="M 586.2 107.3 L 586.9 107.3 L 586.9 109.3 L 589.3 109.3 L 589.3 107.3 L 590.0 107.3 L 590.0 112.1 L 589.3 112.1 L 589.3 109.9 L 586.9 109.9 L 586.9 112.1 L 586.2 112.1 L 586.2 107.3 " fill="#FF0000"/>
<path class="atom-21" d="M 449.5 70.1 Q 449.5 70.1, 449.7 70.2 Q 450.0 70.3, 450.2 70.3 Q 450.5 70.4, 450.7 70.4 Q 451.1 70.4, 451.4 70.2 Q 451.7 70.0, 451.7 69.6 Q 451.7 69.3, 451.5 69.1 Q 451.4 69.0, 451.2 68.9 Q 451.0 68.8, 450.7 68.7 Q 450.2 68.6, 450.0 68.5 Q 449.7 68.3, 449.5 68.1 Q 449.4 67.8, 449.4 67.4 Q 449.4 66.8, 449.8 66.4 Q 450.2 66.0, 451.0 66.0 Q 451.6 66.0, 452.2 66.3 L 452.0 66.8 Q 451.5 66.6, 451.0 66.6 Q 450.6 66.6, 450.3 66.8 Q 450.0 67.0, 450.1 67.3 Q 450.1 67.6, 450.2 67.7 Q 450.3 67.9, 450.5 68.0 Q 450.7 68.0, 451.0 68.2 Q 451.5 68.3, 451.7 68.4 Q 452.0 68.6, 452.2 68.8 Q 452.3 69.1, 452.3 69.6 Q 452.3 70.2, 451.9 70.6 Q 451.5 70.9, 450.7 70.9 Q 450.3 70.9, 450.0 70.9 Q 449.7 70.8, 449.3 70.6 L 449.5 70.1 " fill="#CCCC00"/>
<path class="legend" d="M 452.9 184.2 Q 452.9 181.3, 454.3 179.9 Q 455.6 178.4, 458.1 178.4 Q 460.4 178.4, 461.7 180.0 L 460.6 180.9 Q 459.7 179.7, 458.1 179.7 Q 456.4 179.7, 455.5 180.8 Q 454.6 182.0, 454.6 184.2 Q 454.6 186.4, 455.5 187.6 Q 456.4 188.7, 458.3 188.7 Q 459.5 188.7, 461.0 188.0 L 461.4 189.2 Q 460.8 189.5, 459.9 189.8 Q 459.0 190.0, 458.0 190.0 Q 455.6 190.0, 454.3 188.5 Q 452.9 187.0, 452.9 184.2 " fill="#000000"/>
<path class="legend" d="M 464.9 178.5 L 468.6 184.5 Q 469.0 185.1, 469.6 186.2 Q 470.2 187.2, 470.2 187.3 L 470.2 178.5 L 471.7 178.5 L 471.7 189.8 L 470.1 189.8 L 466.2 183.3 Q 465.7 182.5, 465.2 181.6 Q 464.7 180.8, 464.6 180.5 L 464.6 189.8 L 463.1 189.8 L 463.1 178.5 L 464.9 178.5 " fill="#000000"/>
<path class="legend" d="M 477.2 178.5 Q 479.1 178.5, 480.1 179.4 Q 481.0 180.3, 481.0 181.8 Q 481.0 183.4, 480.0 184.3 Q 479.0 185.2, 477.2 185.2 L 475.4 185.2 L 475.4 189.8 L 473.8 189.8 L 473.8 178.5 L 477.2 178.5 M 477.2 183.9 Q 478.3 183.9, 478.9 183.4 Q 479.4 182.8, 479.4 181.8 Q 479.4 180.8, 478.9 180.3 Q 478.3 179.8, 477.2 179.8 L 475.4 179.8 L 475.4 183.9 L 477.2 183.9 " fill="#000000"/>
<path class="legend" d="M 486.7 190.0 Q 484.7 190.0, 483.6 188.4 Q 482.6 186.9, 482.6 184.2 Q 482.6 181.4, 483.6 179.9 Q 484.6 178.4, 486.7 178.4 Q 488.8 178.4, 489.9 179.9 Q 490.9 181.4, 490.9 184.2 Q 490.9 186.9, 489.8 188.4 Q 488.8 190.0, 486.7 190.0 M 486.7 188.7 Q 488.0 188.7, 488.6 187.6 Q 489.3 186.4, 489.3 184.2 Q 489.3 181.9, 488.6 180.8 Q 488.0 179.7, 486.7 179.7 Q 485.5 179.7, 484.8 180.8 Q 484.2 181.9, 484.2 184.2 Q 484.2 186.4, 484.8 187.6 Q 485.5 188.7, 486.7 188.7 " fill="#000000"/>
<path class="legend" d="M 493.3 188.6 L 495.8 188.6 L 495.8 180.1 L 493.1 180.9 L 492.7 180.0 L 496.2 178.4 L 497.3 178.6 L 497.3 188.6 L 499.5 188.6 L 499.5 189.8 L 493.3 189.8 L 493.3 188.6 " fill="#000000"/>
<path class="legend" d="M 504.8 178.4 Q 506.8 178.4, 507.8 179.8 Q 508.9 181.1, 508.9 183.8 Q 508.9 186.8, 507.6 188.4 Q 506.3 190.0, 503.9 190.0 Q 503.2 190.0, 502.6 189.8 Q 502.0 189.6, 501.5 189.3 L 502.1 188.2 Q 502.9 188.7, 503.9 188.7 Q 505.5 188.7, 506.3 187.7 Q 507.1 186.6, 507.2 184.5 Q 506.7 185.0, 505.9 185.3 Q 505.2 185.6, 504.4 185.6 Q 503.4 185.6, 502.7 185.2 Q 501.9 184.7, 501.4 183.9 Q 501.0 183.2, 501.0 182.2 Q 501.0 181.1, 501.5 180.2 Q 502.0 179.3, 502.8 178.9 Q 503.7 178.4, 504.8 178.4 M 502.6 182.1 Q 502.6 183.2, 503.2 183.7 Q 503.7 184.3, 504.7 184.3 Q 505.4 184.3, 506.1 184.0 Q 506.8 183.7, 507.2 183.3 Q 507.2 181.4, 506.6 180.5 Q 506.0 179.7, 504.8 179.7 Q 504.2 179.7, 503.7 180.0 Q 503.2 180.3, 502.9 180.9 Q 502.6 181.5, 502.6 182.1 " fill="#000000"/>
<path class="legend" d="M 514.9 190.0 Q 512.8 190.0, 511.8 188.4 Q 510.7 186.9, 510.7 184.2 Q 510.7 181.4, 511.8 179.9 Q 512.8 178.4, 514.9 178.4 Q 517.0 178.4, 518.0 179.9 Q 519.0 181.4, 519.0 184.2 Q 519.0 186.9, 518.0 188.4 Q 517.0 190.0, 514.9 190.0 M 514.9 188.7 Q 516.1 188.7, 516.8 187.6 Q 517.4 186.4, 517.4 184.2 Q 517.4 181.9, 516.8 180.8 Q 516.1 179.7, 514.9 179.7 Q 513.7 179.7, 513.0 180.8 Q 512.3 181.9, 512.3 184.2 Q 512.3 186.4, 513.0 187.6 Q 513.7 188.7, 514.9 188.7 " fill="#000000"/>
<path class="legend" d="M 526.6 183.8 Q 527.7 184.3, 528.3 185.0 Q 528.9 185.6, 528.9 186.7 Q 528.9 187.7, 528.4 188.4 Q 527.9 189.2, 527.0 189.6 Q 526.1 190.0, 524.9 190.0 Q 523.0 190.0, 521.9 189.1 Q 520.9 188.3, 520.9 186.7 Q 520.9 185.8, 521.3 185.1 Q 521.8 184.4, 522.8 183.9 Q 522.1 183.5, 521.7 182.9 Q 521.3 182.2, 521.3 181.3 Q 521.3 180.0, 522.2 179.2 Q 523.2 178.4, 524.9 178.4 Q 526.5 178.4, 527.5 179.2 Q 528.4 180.0, 528.4 181.3 Q 528.4 182.1, 528.0 182.7 Q 527.5 183.3, 526.6 183.8 M 524.9 179.6 Q 523.9 179.6, 523.4 180.0 Q 522.9 180.5, 522.9 181.3 Q 522.9 181.9, 523.2 182.3 Q 523.6 182.7, 524.1 182.9 Q 524.6 183.1, 525.6 183.4 Q 526.2 183.0, 526.5 182.4 Q 526.8 181.9, 526.8 181.3 Q 526.8 180.5, 526.3 180.0 Q 525.8 179.6, 524.9 179.6 M 524.9 188.8 Q 526.0 188.8, 526.6 188.2 Q 527.3 187.7, 527.3 186.7 Q 527.3 186.1, 526.9 185.7 Q 526.6 185.3, 526.1 185.1 Q 525.6 184.9, 524.7 184.6 L 524.0 184.4 Q 523.2 184.8, 522.8 185.4 Q 522.5 186.0, 522.5 186.7 Q 522.5 187.7, 523.1 188.2 Q 523.8 188.8, 524.9 188.8 " fill="#000000"/>
<path class="legend" d="M 536.6 179.8 L 530.7 179.8 L 530.7 178.5 L 538.2 178.5 L 538.2 179.6 L 533.6 189.8 L 532.1 189.8 L 536.6 179.8 " fill="#000000"/>
<path class="legend" d="M 539.5 180.7 Q 539.9 179.6, 540.9 179.0 Q 541.9 178.4, 543.2 178.4 Q 544.9 178.4, 545.9 179.3 Q 546.9 180.2, 546.9 181.9 Q 546.9 183.6, 545.6 185.1 Q 544.4 186.7, 541.8 188.6 L 547.1 188.6 L 547.1 189.8 L 539.4 189.8 L 539.4 188.8 Q 541.5 187.3, 542.8 186.1 Q 544.0 185.0, 544.7 184.0 Q 545.3 183.0, 545.3 182.0 Q 545.3 180.9, 544.7 180.3 Q 544.2 179.7, 543.2 179.7 Q 542.3 179.7, 541.7 180.0 Q 541.1 180.4, 540.7 181.2 L 539.5 180.7 " fill="#000000"/>
</svg>